<?xml version="1.0" standalone="no"?>
<!DOCTYPE svg PUBLIC "-//W3C//DTD SVG 1.1//EN" "http://www.w3.org/Graphics/SVG/1.1/DTD/svg11.dtd" >
<svg xmlns="http://www.w3.org/2000/svg" xmlns:xlink="http://www.w3.org/1999/xlink" version="1.1">
<metadata>
Created by FontForge 20170731 at Mon Aug 16 22:14:56 2021
 By Aleksey,,,
Copyright (c) 2020 by Ligature srl. All rights reserved.
</metadata>
<defs>
<font id="EastmanCondensedTrial-Heavy" horiz-adv-x="1126" >
  <font-face 
    font-family="Eastman Condensed Trial Heavy"
    font-weight="900"
    font-stretch="condensed"
    units-per-em="2048"
    panose-1="0 0 10 6 0 0 0 0 0 0"
    ascent="1638"
    descent="-410"
    x-height="1149"
    cap-height="1434"
    bbox="-1468 -526 2726 2310"
    underline-thickness="231"
    underline-position="-640"
    unicode-range="U+0020-F8FF"
  />
<missing-glyph horiz-adv-x="1234" 
 />
    <glyph glyph-name=".notdef" horiz-adv-x="1234" 
 />
    <glyph glyph-name=".null" horiz-adv-x="0" 
 />
    <glyph glyph-name="nonmarkingreturn" horiz-adv-x="682" 
 />
    <glyph glyph-name="space" unicode=" " horiz-adv-x="585" 
 />
    <glyph glyph-name="exclam" unicode="!" horiz-adv-x="622" 
d="M98 969v465h439v-461l-74 -488h-295zM86 0v403h442v-403h-442z" />
    <glyph glyph-name="quotedbl" unicode="&#x22;" horiz-adv-x="770" 
d="M369 1511l-43 -452h-240l-43 452h326zM725 1511l-41 -452h-242l-41 452h324z" />
    <glyph glyph-name="numbersign" unicode="#" horiz-adv-x="1583" 
d="M1538 1096v-342h-238l-59 -211h184v-342h-282l-53 -191h-412l53 191h-158l-53 -191h-414l54 191h-117v342h215l59 211h-159v342h258l59 209h412l-60 -209h158l59 209h412l-59 -209h141zM672 543h157l60 211h-158z" />
    <glyph glyph-name="dollar" unicode="$" horiz-adv-x="976" 
d="M967 406q0 -156 -87 -263t-239 -149v-158h-297v137q-162 11 -319 74l45 369q60 -27 147 -46.5t152 -19.5q114 0 114 76q0 29 -30.5 60t-92.5 73q-329 168 -329 442q0 164 82.5 277t230.5 158v168h297v-146q167 -14 272 -59l-43 -379q-137 57 -258 57q-100 0 -100 -78
q0 -65 125 -145q330 -161 330 -448z" />
    <glyph glyph-name="percent" unicode="%" horiz-adv-x="1814" 
d="M367 672q-166 0 -255 103t-89 296t90 296t256 103t256 -103.5t90 -295.5q0 -195 -90.5 -297t-257.5 -102zM770 0h-321l600 1434h319zM369 920q55 0 55 149q0 150 -57 150q-56 0 -56 -148q0 -151 58 -151zM1446 -16q-166 0 -255 103t-89 296t90 296t256 103t256 -103.5
t90 -295.5q0 -195 -90.5 -297t-257.5 -102zM1448 231q55 0 55 150q0 149 -57 149q-55 0 -55 -147q0 -152 57 -152z" />
    <glyph glyph-name="ampersand" unicode="&#x26;" horiz-adv-x="1292" 
d="M1044 895h250v-219h-141q3 -224 -86 -389q73 -25 147 -19l5 -274q-167 -23 -357 76q-153 -95 -362 -95q-217 0 -337 115t-120 336q0 148 68 266t168 189q-9 61 -9 120q1 218 120 338.5t323 120.5q113 0 202 -35.5t144 -111.5t55 -183q0 -124 -70 -235zM838 449
q38 88 41 227h-140v219q60 71 60 164q0 45 -23.5 71.5t-64.5 26.5q-54 0 -79.5 -39t-25.5 -121q0 -134 64 -284.5t168 -263.5zM344 444q0 -88 49 -140t139 -52q42 0 76 6q-148 152 -235 332q-29 -69 -29 -146z" />
    <glyph glyph-name="quotesingle" unicode="'" horiz-adv-x="411" 
d="M369 1511l-43 -452h-240l-43 452h326z" />
    <glyph glyph-name="parenleft" unicode="(" horiz-adv-x="862" 
d="M844 -158l-314 -237q-487 390 -487 970q0 288 125 535t364 434l312 -237q-334 -322 -334 -732q0 -411 334 -733z" />
    <glyph glyph-name="parenright" unicode=")" horiz-adv-x="862" 
d="M20 1307l312 237q238 -189 362.5 -434.5t124.5 -536.5q0 -287 -124.5 -533t-362.5 -435l-312 237q332 323 332 731q0 411 -332 734z" />
    <glyph glyph-name="asterisk" unicode="*" horiz-adv-x="964" 
d="M727 989l-53 -2l41 -33l141 -161l-248 -179l-108 185l-19 45l-16 -45l-111 -185l-248 179l144 161l41 33l-53 2l-207 47l92 291l199 -86l43 -29l-15 52l-18 213h303l-19 -213l-14 -50l43 27l197 86l92 -291z" />
    <glyph glyph-name="plus" unicode="+" horiz-adv-x="770" 
d="M563 831h187v-337h-187v-185h-358v185h-185v337h185v185h358v-185z" />
    <glyph glyph-name="comma" unicode="," horiz-adv-x="614" 
d="M180 -350l-104 168q42 27 62.5 42t42.5 37t30.5 46.5t9.5 56.5h-135v403h422q22 -112 26.5 -204.5t-3.5 -160t-33.5 -124t-54.5 -93.5t-75.5 -71t-87.5 -54.5t-100 -45.5z" />
    <glyph glyph-name="hyphen" unicode="-" horiz-adv-x="645" 
d="M625 662v-359h-605v359h605z" />
    <glyph glyph-name="period" unicode="." horiz-adv-x="614" 
d="M86 0v403h442v-403h-442z" />
    <glyph glyph-name="slash" unicode="/" horiz-adv-x="1161" 
d="M432 -190h-430l725 1644h432z" />
    <glyph glyph-name="zero" unicode="0" horiz-adv-x="2742" 
d="M1614 946h995v-395h-2568v395h995q8 114 91 192.5t198 78.5t198 -78.5t91 -192.5zM1151 1120h348q-78 68 -174 68q-99 0 -174 -68zM1180 760h346q59 72 59 166q0 99 -65 174zM1473 1092h-351q-59 -72 -59 -166q0 -100 67 -174zM1769 621q58 0 97 37t39 94q0 55 -39.5 92
t-96.5 37t-95 -37t-38 -92q0 -57 38 -94t95 -37zM227 803h58v71h-197v-71h59v-176h80v176zM395 698l31 -71h84l-43 94q29 25 29 65q0 38 -28 63t-67 25h-102v-247h80v71h16zM522 627h78v247h-78v-247zM778 666l10 -39h86l-83 247h-93l-84 -247h84l11 39h69zM889 627h168v67
h-88v180h-80v-247zM2077 627h82v247h-80v-131l-76 131h-82v-247h80l-2 121zM2183 627h168v67h-88v180h-80v-247zM2476 627v98l84 149h-92l-33 -73l-31 73h-94l86 -149v-98h80zM1769 809q25 0 40.5 -16t15.5 -41q0 -26 -15.5 -43t-40.5 -17q-23 0 -39 17t-16 43q0 25 16 41
t39 16zM379 807h20q6 0 11.5 -7t5.5 -14q0 -9 -5.5 -15.5t-11.5 -6.5h-20v43zM725 731l16 60h2l17 -60h-35zM1499 731h-348q75 -65 174 -65t174 65zM1030 387v-27q24 -14 53 -14q23 0 38.5 12.5t15.5 34.5q0 28 -47 45q-12 4 -17.5 6.5t-10.5 7.5t-5 13q0 22 28 22
q23 0 41 -14v27q-20 10 -41 10q-24 0 -38.5 -12t-14.5 -33q0 -14 7 -23.5t14.5 -13.5t23.5 -10q35 -9 35 -25q0 -24 -29 -24q-28 0 -53 18zM1212 428q0 -35 23.5 -58.5t58.5 -23.5q34 0 58 23.5t24 58.5q0 34 -24 58t-58 24q-35 0 -58.5 -24t-23.5 -58zM1538 344v162h-25
v-111l-100 113h-12v-160h24v107l101 -111h12zM141 506h-102v-158h24v60h68v22h-68v53h78v23zM162 506v-96q0 -28 17.5 -46t45.5 -18q29 0 47.5 18t18.5 46v96h-25v-96q0 -17 -12 -29t-29 -12t-28 11t-11 30v96h-24zM346 506h-24v-158h96v23h-72v135zM465 506h-25v-158h99v23
h-74v135zM686 348l66 158h-29l-45 -117l-45 117h-29l66 -158h16zM874 506h-102v-158h102v23h-77v47h67v20h-67v45h77v23zM963 406l26 -58h29l-31 64q25 14 25 43q0 22 -14.5 36.5t-36.5 14.5h-60v-158h25v58h37zM1186 506h-25v-158h25v158zM1350 428q0 -26 -16 -42.5
t-40 -16.5q-25 0 -41 16.5t-16 42.5q0 25 16 41t41 16q24 0 40 -16.5t16 -40.5zM987 455q0 -12 -7.5 -20.5t-18.5 -8.5h-35v57h35q11 0 18.5 -8t7.5 -20zM2535 375l52 49l-52 49l-16 -14l27 -23h-938v-24h938l-27 -23zM987 195q0 -51 35 -85t86 -34q52 0 86.5 34t34.5 85
q0 50 -34.5 83t-86.5 33q-51 0 -86 -33.5t-35 -82.5zM1657 172v-76q33 -20 78 -20q40 0 65 20t25 56q0 54 -74 71q-3 1 -6.5 2t-5.5 1.5t-4.5 1.5t-4 1.5t-3 1.5t-2.5 1.5t-1.5 2t-1 2.5t-0.5 3q0 8 23 8q35 0 65 -23v70q-37 16 -65 16q-42 0 -67 -18t-25 -51
q0 -29 15.5 -45t49.5 -27q4 -2 11.5 -4t12 -3t8 -4t3.5 -7q0 -13 -18 -13q-24 0 -78 33zM1919 195q0 -51 34.5 -85t84.5 -34q25 0 53 14l2 72q-21 -21 -51 -21q-22 0 -36.5 15.5t-14.5 38.5q0 22 14.5 36.5t36.5 14.5q20 0 45 -15v68q-21 12 -47 12q-51 0 -86 -33.5
t-35 -82.5zM2099 195q0 -51 35 -85t88 -34q51 0 86 34t35 85q0 49 -35 82.5t-86 33.5q-52 0 -87.5 -33t-35.5 -83zM41 242h74l-84 -160h194v63h-78l84 160h-190v-63zM408 305h-162v-223h164v61h-93v21h78v61h-78v19h91v61zM418 242h53v-160h72v160h53v63h-178v-63zM655 117
h64l8 -35h78l-76 223h-82l-76 -223h74zM979 305h-162v-223h72v70h76v59h-76v33h90v61zM1458 82v223h-72v-119l-67 119h-74v-223h72l-2 108l69 -108h74zM1470 242h54v-160h71v160h52v63h-177v-63zM2429 305h-72v-223h72v88l29 -55h51l28 55v-88h70v223h-72l-53 -102z
M1157 195q0 -23 -13.5 -38.5t-35.5 -15.5t-35.5 15.5t-13.5 38.5q0 22 13.5 36.5t35.5 14.5t35.5 -14.5t13.5 -36.5zM2271 195q0 -23 -14.5 -38.5t-34.5 -15.5q-22 0 -36.5 15.5t-14.5 38.5q0 22 14.5 36.5t36.5 14.5q20 0 34.5 -14.5t14.5 -36.5zM688 229l14 -53h-30l14 53
h2zM1835 111q0 -14 10 -24.5t27 -10.5q15 0 25 10.5t10 24.5t-10 23t-25 9q-17 0 -27 -9t-10 -23z" />
    <glyph glyph-name="one" unicode="1" horiz-adv-x="2639" 
d="M1614 946h995v-395h-2568v395h995q8 114 91 192.5t198 78.5t198 -78.5t91 -192.5zM1151 1120h348q-78 68 -174 68q-99 0 -174 -68zM1180 760h346q59 72 59 166q0 99 -65 174zM1473 1092h-351q-59 -72 -59 -166q0 -100 67 -174zM1769 621q58 0 97 37t39 94q0 55 -39.5 92
t-96.5 37t-95 -37t-38 -92q0 -57 38 -94t95 -37zM227 803h58v71h-197v-71h59v-176h80v176zM395 698l31 -71h84l-43 94q29 25 29 65q0 38 -28 63t-67 25h-102v-247h80v71h16zM522 627h78v247h-78v-247zM778 666l10 -39h86l-83 247h-93l-84 -247h84l11 39h69zM889 627h168v67
h-88v180h-80v-247zM2077 627h82v247h-80v-131l-76 131h-82v-247h80l-2 121zM2183 627h168v67h-88v180h-80v-247zM2476 627v98l84 149h-92l-33 -73l-31 73h-94l86 -149v-98h80zM1769 809q25 0 40.5 -16t15.5 -41q0 -26 -15.5 -43t-40.5 -17q-23 0 -39 17t-16 43q0 25 16 41
t39 16zM379 807h20q6 0 11.5 -7t5.5 -14q0 -9 -5.5 -15.5t-11.5 -6.5h-20v43zM725 731l16 60h2l17 -60h-35zM1499 731h-348q75 -65 174 -65t174 65zM1030 387v-27q24 -14 53 -14q23 0 38.5 12.5t15.5 34.5q0 28 -47 45q-12 4 -17.5 6.5t-10.5 7.5t-5 13q0 22 28 22
q23 0 41 -14v27q-20 10 -41 10q-24 0 -38.5 -12t-14.5 -33q0 -14 7 -23.5t14.5 -13.5t23.5 -10q35 -9 35 -25q0 -24 -29 -24q-28 0 -53 18zM1212 428q0 -35 23.5 -58.5t58.5 -23.5q34 0 58 23.5t24 58.5q0 34 -24 58t-58 24q-35 0 -58.5 -24t-23.5 -58zM1538 344v162h-25
v-111l-100 113h-12v-160h24v107l101 -111h12zM141 506h-102v-158h24v60h68v22h-68v53h78v23zM162 506v-96q0 -28 17.5 -46t45.5 -18q29 0 47.5 18t18.5 46v96h-25v-96q0 -17 -12 -29t-29 -12t-28 11t-11 30v96h-24zM346 506h-24v-158h96v23h-72v135zM465 506h-25v-158h99v23
h-74v135zM686 348l66 158h-29l-45 -117l-45 117h-29l66 -158h16zM874 506h-102v-158h102v23h-77v47h67v20h-67v45h77v23zM963 406l26 -58h29l-31 64q25 14 25 43q0 22 -14.5 36.5t-36.5 14.5h-60v-158h25v58h37zM1186 506h-25v-158h25v158zM1350 428q0 -26 -16 -42.5
t-40 -16.5q-25 0 -41 16.5t-16 42.5q0 25 16 41t41 16q24 0 40 -16.5t16 -40.5zM987 455q0 -12 -7.5 -20.5t-18.5 -8.5h-35v57h35q11 0 18.5 -8t7.5 -20zM2535 375l52 49l-52 49l-16 -14l27 -23h-938v-24h938l-27 -23zM987 195q0 -51 35 -85t86 -34q52 0 86.5 34t34.5 85
q0 50 -34.5 83t-86.5 33q-51 0 -86 -33.5t-35 -82.5zM1657 172v-76q33 -20 78 -20q40 0 65 20t25 56q0 54 -74 71q-3 1 -6.5 2t-5.5 1.5t-4.5 1.5t-4 1.5t-3 1.5t-2.5 1.5t-1.5 2t-1 2.5t-0.5 3q0 8 23 8q35 0 65 -23v70q-37 16 -65 16q-42 0 -67 -18t-25 -51
q0 -29 15.5 -45t49.5 -27q4 -2 11.5 -4t12 -3t8 -4t3.5 -7q0 -13 -18 -13q-24 0 -78 33zM1919 195q0 -51 34.5 -85t84.5 -34q25 0 53 14l2 72q-21 -21 -51 -21q-22 0 -36.5 15.5t-14.5 38.5q0 22 14.5 36.5t36.5 14.5q20 0 45 -15v68q-21 12 -47 12q-51 0 -86 -33.5
t-35 -82.5zM2099 195q0 -51 35 -85t88 -34q51 0 86 34t35 85q0 49 -35 82.5t-86 33.5q-52 0 -87.5 -33t-35.5 -83zM41 242h74l-84 -160h194v63h-78l84 160h-190v-63zM408 305h-162v-223h164v61h-93v21h78v61h-78v19h91v61zM418 242h53v-160h72v160h53v63h-178v-63zM655 117
h64l8 -35h78l-76 223h-82l-76 -223h74zM979 305h-162v-223h72v70h76v59h-76v33h90v61zM1458 82v223h-72v-119l-67 119h-74v-223h72l-2 108l69 -108h74zM1470 242h54v-160h71v160h52v63h-177v-63zM2429 305h-72v-223h72v88l29 -55h51l28 55v-88h70v223h-72l-53 -102z
M1157 195q0 -23 -13.5 -38.5t-35.5 -15.5t-35.5 15.5t-13.5 38.5q0 22 13.5 36.5t35.5 14.5t35.5 -14.5t13.5 -36.5zM2271 195q0 -23 -14.5 -38.5t-34.5 -15.5q-22 0 -36.5 15.5t-14.5 38.5q0 22 14.5 36.5t36.5 14.5q20 0 34.5 -14.5t14.5 -36.5zM688 229l14 -53h-30l14 53
h2zM1835 111q0 -14 10 -24.5t27 -10.5q15 0 25 10.5t10 24.5t-10 23t-25 9q-17 0 -27 -9t-10 -23z" />
    <glyph glyph-name="two" unicode="2" horiz-adv-x="2639" 
d="M1614 946h995v-395h-2568v395h995q8 114 91 192.5t198 78.5t198 -78.5t91 -192.5zM1151 1120h348q-78 68 -174 68q-99 0 -174 -68zM1180 760h346q59 72 59 166q0 99 -65 174zM1473 1092h-351q-59 -72 -59 -166q0 -100 67 -174zM1769 621q58 0 97 37t39 94q0 55 -39.5 92
t-96.5 37t-95 -37t-38 -92q0 -57 38 -94t95 -37zM227 803h58v71h-197v-71h59v-176h80v176zM395 698l31 -71h84l-43 94q29 25 29 65q0 38 -28 63t-67 25h-102v-247h80v71h16zM522 627h78v247h-78v-247zM778 666l10 -39h86l-83 247h-93l-84 -247h84l11 39h69zM889 627h168v67
h-88v180h-80v-247zM2077 627h82v247h-80v-131l-76 131h-82v-247h80l-2 121zM2183 627h168v67h-88v180h-80v-247zM2476 627v98l84 149h-92l-33 -73l-31 73h-94l86 -149v-98h80zM1769 809q25 0 40.5 -16t15.5 -41q0 -26 -15.5 -43t-40.5 -17q-23 0 -39 17t-16 43q0 25 16 41
t39 16zM379 807h20q6 0 11.5 -7t5.5 -14q0 -9 -5.5 -15.5t-11.5 -6.5h-20v43zM725 731l16 60h2l17 -60h-35zM1499 731h-348q75 -65 174 -65t174 65zM1030 387v-27q24 -14 53 -14q23 0 38.5 12.5t15.5 34.5q0 28 -47 45q-12 4 -17.5 6.5t-10.5 7.5t-5 13q0 22 28 22
q23 0 41 -14v27q-20 10 -41 10q-24 0 -38.5 -12t-14.5 -33q0 -14 7 -23.5t14.5 -13.5t23.5 -10q35 -9 35 -25q0 -24 -29 -24q-28 0 -53 18zM1212 428q0 -35 23.5 -58.5t58.5 -23.5q34 0 58 23.5t24 58.5q0 34 -24 58t-58 24q-35 0 -58.5 -24t-23.5 -58zM1538 344v162h-25
v-111l-100 113h-12v-160h24v107l101 -111h12zM141 506h-102v-158h24v60h68v22h-68v53h78v23zM162 506v-96q0 -28 17.5 -46t45.5 -18q29 0 47.5 18t18.5 46v96h-25v-96q0 -17 -12 -29t-29 -12t-28 11t-11 30v96h-24zM346 506h-24v-158h96v23h-72v135zM465 506h-25v-158h99v23
h-74v135zM686 348l66 158h-29l-45 -117l-45 117h-29l66 -158h16zM874 506h-102v-158h102v23h-77v47h67v20h-67v45h77v23zM963 406l26 -58h29l-31 64q25 14 25 43q0 22 -14.5 36.5t-36.5 14.5h-60v-158h25v58h37zM1186 506h-25v-158h25v158zM1350 428q0 -26 -16 -42.5
t-40 -16.5q-25 0 -41 16.5t-16 42.5q0 25 16 41t41 16q24 0 40 -16.5t16 -40.5zM987 455q0 -12 -7.5 -20.5t-18.5 -8.5h-35v57h35q11 0 18.5 -8t7.5 -20zM2535 375l52 49l-52 49l-16 -14l27 -23h-938v-24h938l-27 -23zM987 195q0 -51 35 -85t86 -34q52 0 86.5 34t34.5 85
q0 50 -34.5 83t-86.5 33q-51 0 -86 -33.5t-35 -82.5zM1657 172v-76q33 -20 78 -20q40 0 65 20t25 56q0 54 -74 71q-3 1 -6.5 2t-5.5 1.5t-4.5 1.5t-4 1.5t-3 1.5t-2.5 1.5t-1.5 2t-1 2.5t-0.5 3q0 8 23 8q35 0 65 -23v70q-37 16 -65 16q-42 0 -67 -18t-25 -51
q0 -29 15.5 -45t49.5 -27q4 -2 11.5 -4t12 -3t8 -4t3.5 -7q0 -13 -18 -13q-24 0 -78 33zM1919 195q0 -51 34.5 -85t84.5 -34q25 0 53 14l2 72q-21 -21 -51 -21q-22 0 -36.5 15.5t-14.5 38.5q0 22 14.5 36.5t36.5 14.5q20 0 45 -15v68q-21 12 -47 12q-51 0 -86 -33.5
t-35 -82.5zM2099 195q0 -51 35 -85t88 -34q51 0 86 34t35 85q0 49 -35 82.5t-86 33.5q-52 0 -87.5 -33t-35.5 -83zM41 242h74l-84 -160h194v63h-78l84 160h-190v-63zM408 305h-162v-223h164v61h-93v21h78v61h-78v19h91v61zM418 242h53v-160h72v160h53v63h-178v-63zM655 117
h64l8 -35h78l-76 223h-82l-76 -223h74zM979 305h-162v-223h72v70h76v59h-76v33h90v61zM1458 82v223h-72v-119l-67 119h-74v-223h72l-2 108l69 -108h74zM1470 242h54v-160h71v160h52v63h-177v-63zM2429 305h-72v-223h72v88l29 -55h51l28 55v-88h70v223h-72l-53 -102z
M1157 195q0 -23 -13.5 -38.5t-35.5 -15.5t-35.5 15.5t-13.5 38.5q0 22 13.5 36.5t35.5 14.5t35.5 -14.5t13.5 -36.5zM2271 195q0 -23 -14.5 -38.5t-34.5 -15.5q-22 0 -36.5 15.5t-14.5 38.5q0 22 14.5 36.5t36.5 14.5q20 0 34.5 -14.5t14.5 -36.5zM688 229l14 -53h-30l14 53
h2zM1835 111q0 -14 10 -24.5t27 -10.5q15 0 25 10.5t10 24.5t-10 23t-25 9q-17 0 -27 -9t-10 -23z" />
    <glyph glyph-name="three" unicode="3" horiz-adv-x="2639" 
d="M1614 946h995v-395h-2568v395h995q8 114 91 192.5t198 78.5t198 -78.5t91 -192.5zM1151 1120h348q-78 68 -174 68q-99 0 -174 -68zM1180 760h346q59 72 59 166q0 99 -65 174zM1473 1092h-351q-59 -72 -59 -166q0 -100 67 -174zM1769 621q58 0 97 37t39 94q0 55 -39.5 92
t-96.5 37t-95 -37t-38 -92q0 -57 38 -94t95 -37zM227 803h58v71h-197v-71h59v-176h80v176zM395 698l31 -71h84l-43 94q29 25 29 65q0 38 -28 63t-67 25h-102v-247h80v71h16zM522 627h78v247h-78v-247zM778 666l10 -39h86l-83 247h-93l-84 -247h84l11 39h69zM889 627h168v67
h-88v180h-80v-247zM2077 627h82v247h-80v-131l-76 131h-82v-247h80l-2 121zM2183 627h168v67h-88v180h-80v-247zM2476 627v98l84 149h-92l-33 -73l-31 73h-94l86 -149v-98h80zM1769 809q25 0 40.5 -16t15.5 -41q0 -26 -15.5 -43t-40.5 -17q-23 0 -39 17t-16 43q0 25 16 41
t39 16zM379 807h20q6 0 11.5 -7t5.5 -14q0 -9 -5.5 -15.5t-11.5 -6.5h-20v43zM725 731l16 60h2l17 -60h-35zM1499 731h-348q75 -65 174 -65t174 65zM1030 387v-27q24 -14 53 -14q23 0 38.5 12.5t15.5 34.5q0 28 -47 45q-12 4 -17.5 6.5t-10.5 7.5t-5 13q0 22 28 22
q23 0 41 -14v27q-20 10 -41 10q-24 0 -38.5 -12t-14.5 -33q0 -14 7 -23.5t14.5 -13.5t23.5 -10q35 -9 35 -25q0 -24 -29 -24q-28 0 -53 18zM1212 428q0 -35 23.5 -58.5t58.5 -23.5q34 0 58 23.5t24 58.5q0 34 -24 58t-58 24q-35 0 -58.5 -24t-23.5 -58zM1538 344v162h-25
v-111l-100 113h-12v-160h24v107l101 -111h12zM141 506h-102v-158h24v60h68v22h-68v53h78v23zM162 506v-96q0 -28 17.5 -46t45.5 -18q29 0 47.5 18t18.5 46v96h-25v-96q0 -17 -12 -29t-29 -12t-28 11t-11 30v96h-24zM346 506h-24v-158h96v23h-72v135zM465 506h-25v-158h99v23
h-74v135zM686 348l66 158h-29l-45 -117l-45 117h-29l66 -158h16zM874 506h-102v-158h102v23h-77v47h67v20h-67v45h77v23zM963 406l26 -58h29l-31 64q25 14 25 43q0 22 -14.5 36.5t-36.5 14.5h-60v-158h25v58h37zM1186 506h-25v-158h25v158zM1350 428q0 -26 -16 -42.5
t-40 -16.5q-25 0 -41 16.5t-16 42.5q0 25 16 41t41 16q24 0 40 -16.5t16 -40.5zM987 455q0 -12 -7.5 -20.5t-18.5 -8.5h-35v57h35q11 0 18.5 -8t7.5 -20zM2535 375l52 49l-52 49l-16 -14l27 -23h-938v-24h938l-27 -23zM987 195q0 -51 35 -85t86 -34q52 0 86.5 34t34.5 85
q0 50 -34.5 83t-86.5 33q-51 0 -86 -33.5t-35 -82.5zM1657 172v-76q33 -20 78 -20q40 0 65 20t25 56q0 54 -74 71q-3 1 -6.5 2t-5.5 1.5t-4.5 1.5t-4 1.5t-3 1.5t-2.5 1.5t-1.5 2t-1 2.5t-0.5 3q0 8 23 8q35 0 65 -23v70q-37 16 -65 16q-42 0 -67 -18t-25 -51
q0 -29 15.5 -45t49.5 -27q4 -2 11.5 -4t12 -3t8 -4t3.5 -7q0 -13 -18 -13q-24 0 -78 33zM1919 195q0 -51 34.5 -85t84.5 -34q25 0 53 14l2 72q-21 -21 -51 -21q-22 0 -36.5 15.5t-14.5 38.5q0 22 14.5 36.5t36.5 14.5q20 0 45 -15v68q-21 12 -47 12q-51 0 -86 -33.5
t-35 -82.5zM2099 195q0 -51 35 -85t88 -34q51 0 86 34t35 85q0 49 -35 82.5t-86 33.5q-52 0 -87.5 -33t-35.5 -83zM41 242h74l-84 -160h194v63h-78l84 160h-190v-63zM408 305h-162v-223h164v61h-93v21h78v61h-78v19h91v61zM418 242h53v-160h72v160h53v63h-178v-63zM655 117
h64l8 -35h78l-76 223h-82l-76 -223h74zM979 305h-162v-223h72v70h76v59h-76v33h90v61zM1458 82v223h-72v-119l-67 119h-74v-223h72l-2 108l69 -108h74zM1470 242h54v-160h71v160h52v63h-177v-63zM2429 305h-72v-223h72v88l29 -55h51l28 55v-88h70v223h-72l-53 -102z
M1157 195q0 -23 -13.5 -38.5t-35.5 -15.5t-35.5 15.5t-13.5 38.5q0 22 13.5 36.5t35.5 14.5t35.5 -14.5t13.5 -36.5zM2271 195q0 -23 -14.5 -38.5t-34.5 -15.5q-22 0 -36.5 15.5t-14.5 38.5q0 22 14.5 36.5t36.5 14.5q20 0 34.5 -14.5t14.5 -36.5zM688 229l14 -53h-30l14 53
h2zM1835 111q0 -14 10 -24.5t27 -10.5q15 0 25 10.5t10 24.5t-10 23t-25 9q-17 0 -27 -9t-10 -23z" />
    <glyph glyph-name="four" unicode="4" horiz-adv-x="2639" 
d="M1614 946h995v-395h-2568v395h995q8 114 91 192.5t198 78.5t198 -78.5t91 -192.5zM1151 1120h348q-78 68 -174 68q-99 0 -174 -68zM1180 760h346q59 72 59 166q0 99 -65 174zM1473 1092h-351q-59 -72 -59 -166q0 -100 67 -174zM1769 621q58 0 97 37t39 94q0 55 -39.5 92
t-96.5 37t-95 -37t-38 -92q0 -57 38 -94t95 -37zM227 803h58v71h-197v-71h59v-176h80v176zM395 698l31 -71h84l-43 94q29 25 29 65q0 38 -28 63t-67 25h-102v-247h80v71h16zM522 627h78v247h-78v-247zM778 666l10 -39h86l-83 247h-93l-84 -247h84l11 39h69zM889 627h168v67
h-88v180h-80v-247zM2077 627h82v247h-80v-131l-76 131h-82v-247h80l-2 121zM2183 627h168v67h-88v180h-80v-247zM2476 627v98l84 149h-92l-33 -73l-31 73h-94l86 -149v-98h80zM1769 809q25 0 40.5 -16t15.5 -41q0 -26 -15.5 -43t-40.5 -17q-23 0 -39 17t-16 43q0 25 16 41
t39 16zM379 807h20q6 0 11.5 -7t5.5 -14q0 -9 -5.5 -15.5t-11.5 -6.5h-20v43zM725 731l16 60h2l17 -60h-35zM1499 731h-348q75 -65 174 -65t174 65zM1030 387v-27q24 -14 53 -14q23 0 38.5 12.5t15.5 34.5q0 28 -47 45q-12 4 -17.5 6.5t-10.5 7.5t-5 13q0 22 28 22
q23 0 41 -14v27q-20 10 -41 10q-24 0 -38.5 -12t-14.5 -33q0 -14 7 -23.5t14.5 -13.5t23.5 -10q35 -9 35 -25q0 -24 -29 -24q-28 0 -53 18zM1212 428q0 -35 23.5 -58.5t58.5 -23.5q34 0 58 23.5t24 58.5q0 34 -24 58t-58 24q-35 0 -58.5 -24t-23.5 -58zM1538 344v162h-25
v-111l-100 113h-12v-160h24v107l101 -111h12zM141 506h-102v-158h24v60h68v22h-68v53h78v23zM162 506v-96q0 -28 17.5 -46t45.5 -18q29 0 47.5 18t18.5 46v96h-25v-96q0 -17 -12 -29t-29 -12t-28 11t-11 30v96h-24zM346 506h-24v-158h96v23h-72v135zM465 506h-25v-158h99v23
h-74v135zM686 348l66 158h-29l-45 -117l-45 117h-29l66 -158h16zM874 506h-102v-158h102v23h-77v47h67v20h-67v45h77v23zM963 406l26 -58h29l-31 64q25 14 25 43q0 22 -14.5 36.5t-36.5 14.5h-60v-158h25v58h37zM1186 506h-25v-158h25v158zM1350 428q0 -26 -16 -42.5
t-40 -16.5q-25 0 -41 16.5t-16 42.5q0 25 16 41t41 16q24 0 40 -16.5t16 -40.5zM987 455q0 -12 -7.5 -20.5t-18.5 -8.5h-35v57h35q11 0 18.5 -8t7.5 -20zM2535 375l52 49l-52 49l-16 -14l27 -23h-938v-24h938l-27 -23zM987 195q0 -51 35 -85t86 -34q52 0 86.5 34t34.5 85
q0 50 -34.5 83t-86.5 33q-51 0 -86 -33.5t-35 -82.5zM1657 172v-76q33 -20 78 -20q40 0 65 20t25 56q0 54 -74 71q-3 1 -6.5 2t-5.5 1.5t-4.5 1.5t-4 1.5t-3 1.5t-2.5 1.5t-1.5 2t-1 2.5t-0.5 3q0 8 23 8q35 0 65 -23v70q-37 16 -65 16q-42 0 -67 -18t-25 -51
q0 -29 15.5 -45t49.5 -27q4 -2 11.5 -4t12 -3t8 -4t3.5 -7q0 -13 -18 -13q-24 0 -78 33zM1919 195q0 -51 34.5 -85t84.5 -34q25 0 53 14l2 72q-21 -21 -51 -21q-22 0 -36.5 15.5t-14.5 38.5q0 22 14.5 36.5t36.5 14.5q20 0 45 -15v68q-21 12 -47 12q-51 0 -86 -33.5
t-35 -82.5zM2099 195q0 -51 35 -85t88 -34q51 0 86 34t35 85q0 49 -35 82.5t-86 33.5q-52 0 -87.5 -33t-35.5 -83zM41 242h74l-84 -160h194v63h-78l84 160h-190v-63zM408 305h-162v-223h164v61h-93v21h78v61h-78v19h91v61zM418 242h53v-160h72v160h53v63h-178v-63zM655 117
h64l8 -35h78l-76 223h-82l-76 -223h74zM979 305h-162v-223h72v70h76v59h-76v33h90v61zM1458 82v223h-72v-119l-67 119h-74v-223h72l-2 108l69 -108h74zM1470 242h54v-160h71v160h52v63h-177v-63zM2429 305h-72v-223h72v88l29 -55h51l28 55v-88h70v223h-72l-53 -102z
M1157 195q0 -23 -13.5 -38.5t-35.5 -15.5t-35.5 15.5t-13.5 38.5q0 22 13.5 36.5t35.5 14.5t35.5 -14.5t13.5 -36.5zM2271 195q0 -23 -14.5 -38.5t-34.5 -15.5q-22 0 -36.5 15.5t-14.5 38.5q0 22 14.5 36.5t36.5 14.5q20 0 34.5 -14.5t14.5 -36.5zM688 229l14 -53h-30l14 53
h2zM1835 111q0 -14 10 -24.5t27 -10.5q15 0 25 10.5t10 24.5t-10 23t-25 9q-17 0 -27 -9t-10 -23z" />
    <glyph glyph-name="five" unicode="5" horiz-adv-x="2639" 
d="M1614 946h995v-395h-2568v395h995q8 114 91 192.5t198 78.5t198 -78.5t91 -192.5zM1151 1120h348q-78 68 -174 68q-99 0 -174 -68zM1180 760h346q59 72 59 166q0 99 -65 174zM1473 1092h-351q-59 -72 -59 -166q0 -100 67 -174zM1769 621q58 0 97 37t39 94q0 55 -39.5 92
t-96.5 37t-95 -37t-38 -92q0 -57 38 -94t95 -37zM227 803h58v71h-197v-71h59v-176h80v176zM395 698l31 -71h84l-43 94q29 25 29 65q0 38 -28 63t-67 25h-102v-247h80v71h16zM522 627h78v247h-78v-247zM778 666l10 -39h86l-83 247h-93l-84 -247h84l11 39h69zM889 627h168v67
h-88v180h-80v-247zM2077 627h82v247h-80v-131l-76 131h-82v-247h80l-2 121zM2183 627h168v67h-88v180h-80v-247zM2476 627v98l84 149h-92l-33 -73l-31 73h-94l86 -149v-98h80zM1769 809q25 0 40.5 -16t15.5 -41q0 -26 -15.5 -43t-40.5 -17q-23 0 -39 17t-16 43q0 25 16 41
t39 16zM379 807h20q6 0 11.5 -7t5.5 -14q0 -9 -5.5 -15.5t-11.5 -6.5h-20v43zM725 731l16 60h2l17 -60h-35zM1499 731h-348q75 -65 174 -65t174 65zM1030 387v-27q24 -14 53 -14q23 0 38.5 12.5t15.5 34.5q0 28 -47 45q-12 4 -17.5 6.5t-10.5 7.5t-5 13q0 22 28 22
q23 0 41 -14v27q-20 10 -41 10q-24 0 -38.5 -12t-14.5 -33q0 -14 7 -23.5t14.5 -13.5t23.5 -10q35 -9 35 -25q0 -24 -29 -24q-28 0 -53 18zM1212 428q0 -35 23.5 -58.5t58.5 -23.5q34 0 58 23.5t24 58.5q0 34 -24 58t-58 24q-35 0 -58.5 -24t-23.5 -58zM1538 344v162h-25
v-111l-100 113h-12v-160h24v107l101 -111h12zM141 506h-102v-158h24v60h68v22h-68v53h78v23zM162 506v-96q0 -28 17.5 -46t45.5 -18q29 0 47.5 18t18.5 46v96h-25v-96q0 -17 -12 -29t-29 -12t-28 11t-11 30v96h-24zM346 506h-24v-158h96v23h-72v135zM465 506h-25v-158h99v23
h-74v135zM686 348l66 158h-29l-45 -117l-45 117h-29l66 -158h16zM874 506h-102v-158h102v23h-77v47h67v20h-67v45h77v23zM963 406l26 -58h29l-31 64q25 14 25 43q0 22 -14.5 36.5t-36.5 14.5h-60v-158h25v58h37zM1186 506h-25v-158h25v158zM1350 428q0 -26 -16 -42.5
t-40 -16.5q-25 0 -41 16.5t-16 42.5q0 25 16 41t41 16q24 0 40 -16.5t16 -40.5zM987 455q0 -12 -7.5 -20.5t-18.5 -8.5h-35v57h35q11 0 18.5 -8t7.5 -20zM2535 375l52 49l-52 49l-16 -14l27 -23h-938v-24h938l-27 -23zM987 195q0 -51 35 -85t86 -34q52 0 86.5 34t34.5 85
q0 50 -34.5 83t-86.5 33q-51 0 -86 -33.5t-35 -82.5zM1657 172v-76q33 -20 78 -20q40 0 65 20t25 56q0 54 -74 71q-3 1 -6.5 2t-5.5 1.5t-4.5 1.5t-4 1.5t-3 1.5t-2.5 1.5t-1.5 2t-1 2.5t-0.5 3q0 8 23 8q35 0 65 -23v70q-37 16 -65 16q-42 0 -67 -18t-25 -51
q0 -29 15.5 -45t49.5 -27q4 -2 11.5 -4t12 -3t8 -4t3.5 -7q0 -13 -18 -13q-24 0 -78 33zM1919 195q0 -51 34.5 -85t84.5 -34q25 0 53 14l2 72q-21 -21 -51 -21q-22 0 -36.5 15.5t-14.5 38.5q0 22 14.5 36.5t36.5 14.5q20 0 45 -15v68q-21 12 -47 12q-51 0 -86 -33.5
t-35 -82.5zM2099 195q0 -51 35 -85t88 -34q51 0 86 34t35 85q0 49 -35 82.5t-86 33.5q-52 0 -87.5 -33t-35.5 -83zM41 242h74l-84 -160h194v63h-78l84 160h-190v-63zM408 305h-162v-223h164v61h-93v21h78v61h-78v19h91v61zM418 242h53v-160h72v160h53v63h-178v-63zM655 117
h64l8 -35h78l-76 223h-82l-76 -223h74zM979 305h-162v-223h72v70h76v59h-76v33h90v61zM1458 82v223h-72v-119l-67 119h-74v-223h72l-2 108l69 -108h74zM1470 242h54v-160h71v160h52v63h-177v-63zM2429 305h-72v-223h72v88l29 -55h51l28 55v-88h70v223h-72l-53 -102z
M1157 195q0 -23 -13.5 -38.5t-35.5 -15.5t-35.5 15.5t-13.5 38.5q0 22 13.5 36.5t35.5 14.5t35.5 -14.5t13.5 -36.5zM2271 195q0 -23 -14.5 -38.5t-34.5 -15.5q-22 0 -36.5 15.5t-14.5 38.5q0 22 14.5 36.5t36.5 14.5q20 0 34.5 -14.5t14.5 -36.5zM688 229l14 -53h-30l14 53
h2zM1835 111q0 -14 10 -24.5t27 -10.5q15 0 25 10.5t10 24.5t-10 23t-25 9q-17 0 -27 -9t-10 -23z" />
    <glyph glyph-name="six" unicode="6" horiz-adv-x="2639" 
d="M1614 946h995v-395h-2568v395h995q8 114 91 192.5t198 78.5t198 -78.5t91 -192.5zM1151 1120h348q-78 68 -174 68q-99 0 -174 -68zM1180 760h346q59 72 59 166q0 99 -65 174zM1473 1092h-351q-59 -72 -59 -166q0 -100 67 -174zM1769 621q58 0 97 37t39 94q0 55 -39.5 92
t-96.5 37t-95 -37t-38 -92q0 -57 38 -94t95 -37zM227 803h58v71h-197v-71h59v-176h80v176zM395 698l31 -71h84l-43 94q29 25 29 65q0 38 -28 63t-67 25h-102v-247h80v71h16zM522 627h78v247h-78v-247zM778 666l10 -39h86l-83 247h-93l-84 -247h84l11 39h69zM889 627h168v67
h-88v180h-80v-247zM2077 627h82v247h-80v-131l-76 131h-82v-247h80l-2 121zM2183 627h168v67h-88v180h-80v-247zM2476 627v98l84 149h-92l-33 -73l-31 73h-94l86 -149v-98h80zM1769 809q25 0 40.5 -16t15.5 -41q0 -26 -15.5 -43t-40.5 -17q-23 0 -39 17t-16 43q0 25 16 41
t39 16zM379 807h20q6 0 11.5 -7t5.5 -14q0 -9 -5.5 -15.5t-11.5 -6.5h-20v43zM725 731l16 60h2l17 -60h-35zM1499 731h-348q75 -65 174 -65t174 65zM1030 387v-27q24 -14 53 -14q23 0 38.5 12.5t15.5 34.5q0 28 -47 45q-12 4 -17.5 6.5t-10.5 7.5t-5 13q0 22 28 22
q23 0 41 -14v27q-20 10 -41 10q-24 0 -38.5 -12t-14.5 -33q0 -14 7 -23.5t14.5 -13.5t23.5 -10q35 -9 35 -25q0 -24 -29 -24q-28 0 -53 18zM1212 428q0 -35 23.5 -58.5t58.5 -23.5q34 0 58 23.5t24 58.5q0 34 -24 58t-58 24q-35 0 -58.5 -24t-23.5 -58zM1538 344v162h-25
v-111l-100 113h-12v-160h24v107l101 -111h12zM141 506h-102v-158h24v60h68v22h-68v53h78v23zM162 506v-96q0 -28 17.5 -46t45.5 -18q29 0 47.5 18t18.5 46v96h-25v-96q0 -17 -12 -29t-29 -12t-28 11t-11 30v96h-24zM346 506h-24v-158h96v23h-72v135zM465 506h-25v-158h99v23
h-74v135zM686 348l66 158h-29l-45 -117l-45 117h-29l66 -158h16zM874 506h-102v-158h102v23h-77v47h67v20h-67v45h77v23zM963 406l26 -58h29l-31 64q25 14 25 43q0 22 -14.5 36.5t-36.5 14.5h-60v-158h25v58h37zM1186 506h-25v-158h25v158zM1350 428q0 -26 -16 -42.5
t-40 -16.5q-25 0 -41 16.5t-16 42.5q0 25 16 41t41 16q24 0 40 -16.5t16 -40.5zM987 455q0 -12 -7.5 -20.5t-18.5 -8.5h-35v57h35q11 0 18.5 -8t7.5 -20zM2535 375l52 49l-52 49l-16 -14l27 -23h-938v-24h938l-27 -23zM987 195q0 -51 35 -85t86 -34q52 0 86.5 34t34.5 85
q0 50 -34.5 83t-86.5 33q-51 0 -86 -33.5t-35 -82.5zM1657 172v-76q33 -20 78 -20q40 0 65 20t25 56q0 54 -74 71q-3 1 -6.5 2t-5.5 1.5t-4.5 1.5t-4 1.5t-3 1.5t-2.5 1.5t-1.5 2t-1 2.5t-0.5 3q0 8 23 8q35 0 65 -23v70q-37 16 -65 16q-42 0 -67 -18t-25 -51
q0 -29 15.5 -45t49.5 -27q4 -2 11.5 -4t12 -3t8 -4t3.5 -7q0 -13 -18 -13q-24 0 -78 33zM1919 195q0 -51 34.5 -85t84.5 -34q25 0 53 14l2 72q-21 -21 -51 -21q-22 0 -36.5 15.5t-14.5 38.5q0 22 14.5 36.5t36.5 14.5q20 0 45 -15v68q-21 12 -47 12q-51 0 -86 -33.5
t-35 -82.5zM2099 195q0 -51 35 -85t88 -34q51 0 86 34t35 85q0 49 -35 82.5t-86 33.5q-52 0 -87.5 -33t-35.5 -83zM41 242h74l-84 -160h194v63h-78l84 160h-190v-63zM408 305h-162v-223h164v61h-93v21h78v61h-78v19h91v61zM418 242h53v-160h72v160h53v63h-178v-63zM655 117
h64l8 -35h78l-76 223h-82l-76 -223h74zM979 305h-162v-223h72v70h76v59h-76v33h90v61zM1458 82v223h-72v-119l-67 119h-74v-223h72l-2 108l69 -108h74zM1470 242h54v-160h71v160h52v63h-177v-63zM2429 305h-72v-223h72v88l29 -55h51l28 55v-88h70v223h-72l-53 -102z
M1157 195q0 -23 -13.5 -38.5t-35.5 -15.5t-35.5 15.5t-13.5 38.5q0 22 13.5 36.5t35.5 14.5t35.5 -14.5t13.5 -36.5zM2271 195q0 -23 -14.5 -38.5t-34.5 -15.5q-22 0 -36.5 15.5t-14.5 38.5q0 22 14.5 36.5t36.5 14.5q20 0 34.5 -14.5t14.5 -36.5zM688 229l14 -53h-30l14 53
h2zM1835 111q0 -14 10 -24.5t27 -10.5q15 0 25 10.5t10 24.5t-10 23t-25 9q-17 0 -27 -9t-10 -23z" />
    <glyph glyph-name="seven" unicode="7" horiz-adv-x="2639" 
d="M1614 946h995v-395h-2568v395h995q8 114 91 192.5t198 78.5t198 -78.5t91 -192.5zM1151 1120h348q-78 68 -174 68q-99 0 -174 -68zM1180 760h346q59 72 59 166q0 99 -65 174zM1473 1092h-351q-59 -72 -59 -166q0 -100 67 -174zM1769 621q58 0 97 37t39 94q0 55 -39.5 92
t-96.5 37t-95 -37t-38 -92q0 -57 38 -94t95 -37zM227 803h58v71h-197v-71h59v-176h80v176zM395 698l31 -71h84l-43 94q29 25 29 65q0 38 -28 63t-67 25h-102v-247h80v71h16zM522 627h78v247h-78v-247zM778 666l10 -39h86l-83 247h-93l-84 -247h84l11 39h69zM889 627h168v67
h-88v180h-80v-247zM2077 627h82v247h-80v-131l-76 131h-82v-247h80l-2 121zM2183 627h168v67h-88v180h-80v-247zM2476 627v98l84 149h-92l-33 -73l-31 73h-94l86 -149v-98h80zM1769 809q25 0 40.5 -16t15.5 -41q0 -26 -15.5 -43t-40.5 -17q-23 0 -39 17t-16 43q0 25 16 41
t39 16zM379 807h20q6 0 11.5 -7t5.5 -14q0 -9 -5.5 -15.5t-11.5 -6.5h-20v43zM725 731l16 60h2l17 -60h-35zM1499 731h-348q75 -65 174 -65t174 65zM1030 387v-27q24 -14 53 -14q23 0 38.5 12.5t15.5 34.5q0 28 -47 45q-12 4 -17.5 6.5t-10.5 7.5t-5 13q0 22 28 22
q23 0 41 -14v27q-20 10 -41 10q-24 0 -38.5 -12t-14.5 -33q0 -14 7 -23.5t14.5 -13.5t23.5 -10q35 -9 35 -25q0 -24 -29 -24q-28 0 -53 18zM1212 428q0 -35 23.5 -58.5t58.5 -23.5q34 0 58 23.5t24 58.5q0 34 -24 58t-58 24q-35 0 -58.5 -24t-23.5 -58zM1538 344v162h-25
v-111l-100 113h-12v-160h24v107l101 -111h12zM141 506h-102v-158h24v60h68v22h-68v53h78v23zM162 506v-96q0 -28 17.5 -46t45.5 -18q29 0 47.5 18t18.5 46v96h-25v-96q0 -17 -12 -29t-29 -12t-28 11t-11 30v96h-24zM346 506h-24v-158h96v23h-72v135zM465 506h-25v-158h99v23
h-74v135zM686 348l66 158h-29l-45 -117l-45 117h-29l66 -158h16zM874 506h-102v-158h102v23h-77v47h67v20h-67v45h77v23zM963 406l26 -58h29l-31 64q25 14 25 43q0 22 -14.5 36.5t-36.5 14.5h-60v-158h25v58h37zM1186 506h-25v-158h25v158zM1350 428q0 -26 -16 -42.5
t-40 -16.5q-25 0 -41 16.5t-16 42.5q0 25 16 41t41 16q24 0 40 -16.5t16 -40.5zM987 455q0 -12 -7.5 -20.5t-18.5 -8.5h-35v57h35q11 0 18.5 -8t7.5 -20zM2535 375l52 49l-52 49l-16 -14l27 -23h-938v-24h938l-27 -23zM987 195q0 -51 35 -85t86 -34q52 0 86.5 34t34.5 85
q0 50 -34.5 83t-86.5 33q-51 0 -86 -33.5t-35 -82.5zM1657 172v-76q33 -20 78 -20q40 0 65 20t25 56q0 54 -74 71q-3 1 -6.5 2t-5.5 1.5t-4.5 1.5t-4 1.5t-3 1.5t-2.5 1.5t-1.5 2t-1 2.5t-0.5 3q0 8 23 8q35 0 65 -23v70q-37 16 -65 16q-42 0 -67 -18t-25 -51
q0 -29 15.5 -45t49.5 -27q4 -2 11.5 -4t12 -3t8 -4t3.5 -7q0 -13 -18 -13q-24 0 -78 33zM1919 195q0 -51 34.5 -85t84.5 -34q25 0 53 14l2 72q-21 -21 -51 -21q-22 0 -36.5 15.5t-14.5 38.5q0 22 14.5 36.5t36.5 14.5q20 0 45 -15v68q-21 12 -47 12q-51 0 -86 -33.5
t-35 -82.5zM2099 195q0 -51 35 -85t88 -34q51 0 86 34t35 85q0 49 -35 82.5t-86 33.5q-52 0 -87.5 -33t-35.5 -83zM41 242h74l-84 -160h194v63h-78l84 160h-190v-63zM408 305h-162v-223h164v61h-93v21h78v61h-78v19h91v61zM418 242h53v-160h72v160h53v63h-178v-63zM655 117
h64l8 -35h78l-76 223h-82l-76 -223h74zM979 305h-162v-223h72v70h76v59h-76v33h90v61zM1458 82v223h-72v-119l-67 119h-74v-223h72l-2 108l69 -108h74zM1470 242h54v-160h71v160h52v63h-177v-63zM2429 305h-72v-223h72v88l29 -55h51l28 55v-88h70v223h-72l-53 -102z
M1157 195q0 -23 -13.5 -38.5t-35.5 -15.5t-35.5 15.5t-13.5 38.5q0 22 13.5 36.5t35.5 14.5t35.5 -14.5t13.5 -36.5zM2271 195q0 -23 -14.5 -38.5t-34.5 -15.5q-22 0 -36.5 15.5t-14.5 38.5q0 22 14.5 36.5t36.5 14.5q20 0 34.5 -14.5t14.5 -36.5zM688 229l14 -53h-30l14 53
h2zM1835 111q0 -14 10 -24.5t27 -10.5q15 0 25 10.5t10 24.5t-10 23t-25 9q-17 0 -27 -9t-10 -23z" />
    <glyph glyph-name="eight" unicode="8" horiz-adv-x="2639" 
d="M1614 946h995v-395h-2568v395h995q8 114 91 192.5t198 78.5t198 -78.5t91 -192.5zM1151 1120h348q-78 68 -174 68q-99 0 -174 -68zM1180 760h346q59 72 59 166q0 99 -65 174zM1473 1092h-351q-59 -72 -59 -166q0 -100 67 -174zM1769 621q58 0 97 37t39 94q0 55 -39.5 92
t-96.5 37t-95 -37t-38 -92q0 -57 38 -94t95 -37zM227 803h58v71h-197v-71h59v-176h80v176zM395 698l31 -71h84l-43 94q29 25 29 65q0 38 -28 63t-67 25h-102v-247h80v71h16zM522 627h78v247h-78v-247zM778 666l10 -39h86l-83 247h-93l-84 -247h84l11 39h69zM889 627h168v67
h-88v180h-80v-247zM2077 627h82v247h-80v-131l-76 131h-82v-247h80l-2 121zM2183 627h168v67h-88v180h-80v-247zM2476 627v98l84 149h-92l-33 -73l-31 73h-94l86 -149v-98h80zM1769 809q25 0 40.5 -16t15.5 -41q0 -26 -15.5 -43t-40.5 -17q-23 0 -39 17t-16 43q0 25 16 41
t39 16zM379 807h20q6 0 11.5 -7t5.5 -14q0 -9 -5.5 -15.5t-11.5 -6.5h-20v43zM725 731l16 60h2l17 -60h-35zM1499 731h-348q75 -65 174 -65t174 65zM1030 387v-27q24 -14 53 -14q23 0 38.5 12.5t15.5 34.5q0 28 -47 45q-12 4 -17.5 6.5t-10.5 7.5t-5 13q0 22 28 22
q23 0 41 -14v27q-20 10 -41 10q-24 0 -38.5 -12t-14.5 -33q0 -14 7 -23.5t14.5 -13.5t23.5 -10q35 -9 35 -25q0 -24 -29 -24q-28 0 -53 18zM1212 428q0 -35 23.5 -58.5t58.5 -23.5q34 0 58 23.5t24 58.5q0 34 -24 58t-58 24q-35 0 -58.5 -24t-23.5 -58zM1538 344v162h-25
v-111l-100 113h-12v-160h24v107l101 -111h12zM141 506h-102v-158h24v60h68v22h-68v53h78v23zM162 506v-96q0 -28 17.5 -46t45.5 -18q29 0 47.5 18t18.5 46v96h-25v-96q0 -17 -12 -29t-29 -12t-28 11t-11 30v96h-24zM346 506h-24v-158h96v23h-72v135zM465 506h-25v-158h99v23
h-74v135zM686 348l66 158h-29l-45 -117l-45 117h-29l66 -158h16zM874 506h-102v-158h102v23h-77v47h67v20h-67v45h77v23zM963 406l26 -58h29l-31 64q25 14 25 43q0 22 -14.5 36.5t-36.5 14.5h-60v-158h25v58h37zM1186 506h-25v-158h25v158zM1350 428q0 -26 -16 -42.5
t-40 -16.5q-25 0 -41 16.5t-16 42.5q0 25 16 41t41 16q24 0 40 -16.5t16 -40.5zM987 455q0 -12 -7.5 -20.5t-18.5 -8.5h-35v57h35q11 0 18.5 -8t7.5 -20zM2535 375l52 49l-52 49l-16 -14l27 -23h-938v-24h938l-27 -23zM987 195q0 -51 35 -85t86 -34q52 0 86.5 34t34.5 85
q0 50 -34.5 83t-86.5 33q-51 0 -86 -33.5t-35 -82.5zM1657 172v-76q33 -20 78 -20q40 0 65 20t25 56q0 54 -74 71q-3 1 -6.5 2t-5.5 1.5t-4.5 1.5t-4 1.5t-3 1.5t-2.5 1.5t-1.5 2t-1 2.5t-0.5 3q0 8 23 8q35 0 65 -23v70q-37 16 -65 16q-42 0 -67 -18t-25 -51
q0 -29 15.5 -45t49.5 -27q4 -2 11.5 -4t12 -3t8 -4t3.5 -7q0 -13 -18 -13q-24 0 -78 33zM1919 195q0 -51 34.5 -85t84.5 -34q25 0 53 14l2 72q-21 -21 -51 -21q-22 0 -36.5 15.5t-14.5 38.5q0 22 14.5 36.5t36.5 14.5q20 0 45 -15v68q-21 12 -47 12q-51 0 -86 -33.5
t-35 -82.5zM2099 195q0 -51 35 -85t88 -34q51 0 86 34t35 85q0 49 -35 82.5t-86 33.5q-52 0 -87.5 -33t-35.5 -83zM41 242h74l-84 -160h194v63h-78l84 160h-190v-63zM408 305h-162v-223h164v61h-93v21h78v61h-78v19h91v61zM418 242h53v-160h72v160h53v63h-178v-63zM655 117
h64l8 -35h78l-76 223h-82l-76 -223h74zM979 305h-162v-223h72v70h76v59h-76v33h90v61zM1458 82v223h-72v-119l-67 119h-74v-223h72l-2 108l69 -108h74zM1470 242h54v-160h71v160h52v63h-177v-63zM2429 305h-72v-223h72v88l29 -55h51l28 55v-88h70v223h-72l-53 -102z
M1157 195q0 -23 -13.5 -38.5t-35.5 -15.5t-35.5 15.5t-13.5 38.5q0 22 13.5 36.5t35.5 14.5t35.5 -14.5t13.5 -36.5zM2271 195q0 -23 -14.5 -38.5t-34.5 -15.5q-22 0 -36.5 15.5t-14.5 38.5q0 22 14.5 36.5t36.5 14.5q20 0 34.5 -14.5t14.5 -36.5zM688 229l14 -53h-30l14 53
h2zM1835 111q0 -14 10 -24.5t27 -10.5q15 0 25 10.5t10 24.5t-10 23t-25 9q-17 0 -27 -9t-10 -23z" />
    <glyph glyph-name="nine" unicode="9" horiz-adv-x="2639" 
d="M1614 946h995v-395h-2568v395h995q8 114 91 192.5t198 78.5t198 -78.5t91 -192.5zM1151 1120h348q-78 68 -174 68q-99 0 -174 -68zM1180 760h346q59 72 59 166q0 99 -65 174zM1473 1092h-351q-59 -72 -59 -166q0 -100 67 -174zM1769 621q58 0 97 37t39 94q0 55 -39.5 92
t-96.5 37t-95 -37t-38 -92q0 -57 38 -94t95 -37zM227 803h58v71h-197v-71h59v-176h80v176zM395 698l31 -71h84l-43 94q29 25 29 65q0 38 -28 63t-67 25h-102v-247h80v71h16zM522 627h78v247h-78v-247zM778 666l10 -39h86l-83 247h-93l-84 -247h84l11 39h69zM889 627h168v67
h-88v180h-80v-247zM2077 627h82v247h-80v-131l-76 131h-82v-247h80l-2 121zM2183 627h168v67h-88v180h-80v-247zM2476 627v98l84 149h-92l-33 -73l-31 73h-94l86 -149v-98h80zM1769 809q25 0 40.5 -16t15.5 -41q0 -26 -15.5 -43t-40.5 -17q-23 0 -39 17t-16 43q0 25 16 41
t39 16zM379 807h20q6 0 11.5 -7t5.5 -14q0 -9 -5.5 -15.5t-11.5 -6.5h-20v43zM725 731l16 60h2l17 -60h-35zM1499 731h-348q75 -65 174 -65t174 65zM1030 387v-27q24 -14 53 -14q23 0 38.5 12.5t15.5 34.5q0 28 -47 45q-12 4 -17.5 6.5t-10.5 7.5t-5 13q0 22 28 22
q23 0 41 -14v27q-20 10 -41 10q-24 0 -38.5 -12t-14.5 -33q0 -14 7 -23.5t14.5 -13.5t23.5 -10q35 -9 35 -25q0 -24 -29 -24q-28 0 -53 18zM1212 428q0 -35 23.5 -58.5t58.5 -23.5q34 0 58 23.5t24 58.5q0 34 -24 58t-58 24q-35 0 -58.5 -24t-23.5 -58zM1538 344v162h-25
v-111l-100 113h-12v-160h24v107l101 -111h12zM141 506h-102v-158h24v60h68v22h-68v53h78v23zM162 506v-96q0 -28 17.5 -46t45.5 -18q29 0 47.5 18t18.5 46v96h-25v-96q0 -17 -12 -29t-29 -12t-28 11t-11 30v96h-24zM346 506h-24v-158h96v23h-72v135zM465 506h-25v-158h99v23
h-74v135zM686 348l66 158h-29l-45 -117l-45 117h-29l66 -158h16zM874 506h-102v-158h102v23h-77v47h67v20h-67v45h77v23zM963 406l26 -58h29l-31 64q25 14 25 43q0 22 -14.5 36.5t-36.5 14.5h-60v-158h25v58h37zM1186 506h-25v-158h25v158zM1350 428q0 -26 -16 -42.5
t-40 -16.5q-25 0 -41 16.5t-16 42.5q0 25 16 41t41 16q24 0 40 -16.5t16 -40.5zM987 455q0 -12 -7.5 -20.5t-18.5 -8.5h-35v57h35q11 0 18.5 -8t7.5 -20zM2535 375l52 49l-52 49l-16 -14l27 -23h-938v-24h938l-27 -23zM987 195q0 -51 35 -85t86 -34q52 0 86.5 34t34.5 85
q0 50 -34.5 83t-86.5 33q-51 0 -86 -33.5t-35 -82.5zM1657 172v-76q33 -20 78 -20q40 0 65 20t25 56q0 54 -74 71q-3 1 -6.5 2t-5.5 1.5t-4.5 1.5t-4 1.5t-3 1.5t-2.5 1.5t-1.5 2t-1 2.5t-0.5 3q0 8 23 8q35 0 65 -23v70q-37 16 -65 16q-42 0 -67 -18t-25 -51
q0 -29 15.5 -45t49.5 -27q4 -2 11.5 -4t12 -3t8 -4t3.5 -7q0 -13 -18 -13q-24 0 -78 33zM1919 195q0 -51 34.5 -85t84.5 -34q25 0 53 14l2 72q-21 -21 -51 -21q-22 0 -36.5 15.5t-14.5 38.5q0 22 14.5 36.5t36.5 14.5q20 0 45 -15v68q-21 12 -47 12q-51 0 -86 -33.5
t-35 -82.5zM2099 195q0 -51 35 -85t88 -34q51 0 86 34t35 85q0 49 -35 82.5t-86 33.5q-52 0 -87.5 -33t-35.5 -83zM41 242h74l-84 -160h194v63h-78l84 160h-190v-63zM408 305h-162v-223h164v61h-93v21h78v61h-78v19h91v61zM418 242h53v-160h72v160h53v63h-178v-63zM655 117
h64l8 -35h78l-76 223h-82l-76 -223h74zM979 305h-162v-223h72v70h76v59h-76v33h90v61zM1458 82v223h-72v-119l-67 119h-74v-223h72l-2 108l69 -108h74zM1470 242h54v-160h71v160h52v63h-177v-63zM2429 305h-72v-223h72v88l29 -55h51l28 55v-88h70v223h-72l-53 -102z
M1157 195q0 -23 -13.5 -38.5t-35.5 -15.5t-35.5 15.5t-13.5 38.5q0 22 13.5 36.5t35.5 14.5t35.5 -14.5t13.5 -36.5zM2271 195q0 -23 -14.5 -38.5t-34.5 -15.5q-22 0 -36.5 15.5t-14.5 38.5q0 22 14.5 36.5t36.5 14.5q20 0 34.5 -14.5t14.5 -36.5zM688 229l14 -53h-30l14 53
h2zM1835 111q0 -14 10 -24.5t27 -10.5q15 0 25 10.5t10 24.5t-10 23t-25 9q-17 0 -27 -9t-10 -23z" />
    <glyph glyph-name="colon" unicode=":" horiz-adv-x="614" 
d="M528 1151v-403h-442v403h442zM88 0v403h442v-403h-442z" />
    <glyph glyph-name="semicolon" unicode=";" horiz-adv-x="614" 
d="M532 745h-442v404h442v-404zM180 -350l-104 168q42 27 62.5 42t42.5 37t30.5 46.5t9.5 56.5h-135v403h422q22 -112 26.5 -204.5t-3.5 -160t-33.5 -124t-54.5 -93.5t-75.5 -71t-87.5 -54.5t-100 -45.5z" />
    <glyph glyph-name="less" unicode="&#x3c;" horiz-adv-x="886" 
d="M43 807l586 551l213 -242l-449 -401l449 -404l-209 -243l-590 555v184z" />
    <glyph glyph-name="equal" unicode="=" horiz-adv-x="645" 
d="M625 1126v-297h-605v297h605zM625 705v-297h-605v297h605z" />
    <glyph glyph-name="greater" unicode="&#x3e;" horiz-adv-x="884" 
d="M842 627l-584 -551l-215 241l449 402l-449 403l209 244l590 -555v-184z" />
    <glyph glyph-name="question" unicode="?" horiz-adv-x="890" 
d="M588 487h-314q-16 128 3 213.5t92 163.5q57 71 57 121q0 43 -25 65.5t-69 22.5q-89 0 -221 -78l-88 375q210 88 393 88q211 0 341 -101.5t130 -287.5q0 -55 -13.5 -103t-42.5 -92t-51 -70t-63 -69q-64 -70 -94.5 -122t-34.5 -126zM221 0v403h443v-403h-443z" />
    <glyph glyph-name="at" unicode="@" horiz-adv-x="1667" 
d="M903 1475q177 0 315.5 -55t226.5 -153.5t133.5 -232.5t45.5 -295q0 -68 -10 -138t-31 -142.5t-57 -135.5t-83 -112.5t-114.5 -78t-146.5 -28.5q-220 0 -279 168q-117 -161 -272 -161q-128 0 -199.5 99t-66.5 265q2 97 29.5 202.5t75.5 201t126.5 157.5t171.5 62
q117 0 188 -107l17 103l346 -19l-107 -651q-30 -184 58 -184q68 0 124.5 79.5t85.5 197.5t29 241q0 149 -46.5 265.5t-130 189.5t-194 111t-241.5 38q-153 0 -288.5 -63t-235 -176.5t-157.5 -280.5t-58 -365q0 -85 13.5 -161.5t53 -159.5t102 -143t169.5 -99.5t247 -40.5
q61 0 138 12l-2 -112q-83 -13 -144 -13q-149 2 -273 45.5t-218.5 129t-147.5 224t-53 318.5q0 212 62 396.5t173 317t272.5 208.5t352.5 76zM784 418q45 0 78 95.5t35 168.5q1 49 -14 77.5t-43 28.5q-26 0 -48.5 -32.5t-35.5 -78.5t-20.5 -89t-8.5 -72q-2 -44 13.5 -71
t43.5 -27z" />
    <glyph glyph-name="A" unicode="A" horiz-adv-x="1239" 
d="M1245 0h-465l-32 201h-263l-34 -201h-459l338 1434h581zM614 956l-79 -471h165l-75 471h-11z" />
    <glyph glyph-name="B" unicode="B" horiz-adv-x="1175" 
d="M918 748q113 -41 175 -127t62 -211q0 -193 -135 -301.5t-375 -108.5h-573v1434h567q226 0 352.5 -96.5t126.5 -278.5q0 -107 -52 -188.5t-148 -122.5zM571 1085h-65v-221h63q117 0 117 103q0 64 -25.5 91t-89.5 27zM506 348h88q125 0 125 119q0 113 -123 113h-90v-232z
" />
    <glyph glyph-name="C" unicode="C" horiz-adv-x="1038" 
d="M674 -29q-295 0 -463 195t-168 549q0 353 165.5 550t463.5 197q162 0 332 -86l-109 -385q-101 56 -193 56q-194 0 -194 -330q0 -332 197 -332q96 0 190 57l113 -385q-67 -39 -158 -62.5t-176 -23.5z" />
    <glyph glyph-name="D" unicode="D" horiz-adv-x="1269" 
d="M608 0h-536v1434h536q289 0 454 -191t165 -522q0 -335 -164.5 -528t-454.5 -193zM524 1028v-622h64q88 0 132 75.5t44 237.5q0 309 -176 309h-64z" />
    <glyph glyph-name="E" unicode="E" horiz-adv-x="1005" 
d="M520 541v-154h453v-387h-901v1434h889v-387h-441v-150h367v-356h-367z" />
    <glyph glyph-name="F" unicode="F" horiz-adv-x="964" 
d="M944 1434v-392h-420v-227h373v-366h-373v-449h-452v1434h872z" />
    <glyph glyph-name="G" unicode="G" horiz-adv-x="1187" 
d="M674 500v319h461v-696q-221 -152 -480 -152q-288 0 -450 195t-162 549q0 351 175 549t464 198q180 0 362 -80l-104 -403q-122 72 -225 72q-219 0 -219 -338q0 -165 44.5 -256.5t125.5 -91.5q41 0 75 12v123h-67z" />
    <glyph glyph-name="H" unicode="H" horiz-adv-x="1263" 
d="M737 911v523h455v-1434h-455v512h-211v-512h-454v1434h454v-523h211z" />
    <glyph glyph-name="I" unicode="I" horiz-adv-x="595" 
d="M524 0h-452v1434h452v-1434z" />
    <glyph glyph-name="J" unicode="J" horiz-adv-x="835" 
d="M272 -29q-135 0 -270 56l74 385q87 -33 141 -33q57 0 85 39.5t28 126.5v502h-129v387h575v-922q0 -265 -134.5 -403t-369.5 -138z" />
    <glyph glyph-name="K" unicode="K" horiz-adv-x="1284" 
d="M932 723l348 -721h-494l-262 619v-621h-452l2 1434h452v-605l248 607h494z" />
    <glyph glyph-name="L" unicode="L" horiz-adv-x="921" 
d="M893 0h-821v1434h456v-1039h365v-395z" />
    <glyph glyph-name="M" unicode="M" horiz-adv-x="1454" 
d="M922 1434h434l53 -1434h-426l-27 598l-139 -598h-180l-139 598l-27 -598h-428l55 1434h422l205 -689z" />
    <glyph glyph-name="N" unicode="N" horiz-adv-x="1261" 
d="M512 0h-440v1434h417l259 -584v584h442v-1434h-408l-270 604v-604z" />
    <glyph glyph-name="O" unicode="O" horiz-adv-x="1284" 
d="M641 -29q-270 0 -434 198.5t-164 545.5q0 222 70.5 390.5t207 262.5t320.5 94q271 0 434.5 -198t163.5 -545q0 -222 -70.5 -390.5t-207 -263t-320.5 -94.5zM641 387q64 0 100.5 83.5t36.5 244.5q0 162 -35.5 247t-101.5 85q-64 0 -100.5 -84t-36.5 -246q0 -156 35.5 -243
t101.5 -87z" />
    <glyph glyph-name="P" unicode="P" horiz-adv-x="1167" 
d="M588 1434q257 0 405 -143t148 -402q0 -255 -145.5 -404t-407.5 -149h-64v-336h-452v1434h516zM524 709h51q56 0 86.5 44.5t30.5 127.5q0 78 -31 126t-86 48h-51v-346z" />
    <glyph glyph-name="Q" unicode="Q" horiz-adv-x="1294" 
d="M1313 344v-344q-131 0 -351 -14.5t-319 -14.5h-2h-2q-269 2 -432.5 200t-163.5 544q0 222 70.5 390.5t207 262.5t320.5 94q271 0 434.5 -198t163.5 -545q0 -227 -76 -402q55 32 150 27zM504 717q0 -156 35.5 -243t101.5 -87q64 0 100.5 83.5t36.5 244.5q0 162 -35.5 247
t-101.5 85q-64 0 -100.5 -84t-36.5 -246z" />
    <glyph glyph-name="R" unicode="R" horiz-adv-x="1171" 
d="M1171 0h-471l-147 387h-29v-387h-452v1434h522q254 0 402.5 -137t148.5 -384q0 -141 -49.5 -249.5t-143.5 -176.5zM584 1055h-60v-299h60q52 0 83 39.5t31 111.5q0 67 -30.5 107.5t-83.5 40.5z" />
    <glyph glyph-name="S" unicode="S" horiz-adv-x="976" 
d="M446 -31q-228 0 -421 78l45 369q60 -27 147 -46.5t152 -19.5q114 0 114 76q0 29 -30.5 60t-92.5 73q-329 168 -329 442q0 213 138.5 337t369.5 124q98 0 201.5 -16.5t172.5 -46.5l-43 -379q-137 57 -258 57q-100 0 -100 -78q0 -65 125 -145q330 -161 330 -448
q0 -203 -143.5 -320t-377.5 -117z" />
    <glyph glyph-name="T" unicode="T" horiz-adv-x="1009" 
d="M20 1434h971v-406h-260v-1028h-452v1028h-259v406z" />
    <glyph glyph-name="U" unicode="U" horiz-adv-x="1208" 
d="M604 -29q-250 0 -397.5 138.5t-147.5 373.5v951h455v-953q0 -123 92 -123q90 0 90 123v953h453v-951q0 -235 -147 -373.5t-398 -138.5z" />
    <glyph glyph-name="V" unicode="V" horiz-adv-x="1208" 
d="M883 0h-557l-328 1434h463l143 -936l144 936h462z" />
    <glyph glyph-name="W" unicode="W" horiz-adv-x="1751" 
d="M1159 543l131 891h463l-301 -1434h-467l-108 602l-109 -602h-469l-301 1434h463l133 -891l111 891h344z" />
    <glyph glyph-name="X" unicode="X" horiz-adv-x="1239" 
d="M952 717l283 -717h-494l-120 440l-119 -440h-498l277 717l-256 717h491l102 -414l103 414h489z" />
    <glyph glyph-name="Y" unicode="Y" horiz-adv-x="1157" 
d="M692 1434h475l-362 -977v-457h-453v457l-364 977h477l117 -555z" />
    <glyph glyph-name="Z" unicode="Z" horiz-adv-x="1007" 
d="M973 0h-938v301l371 727h-357v406h912v-299l-371 -729h383v-406z" />
    <glyph glyph-name="bracketleft" unicode="[" horiz-adv-x="765" 
d="M745 -381h-702v1909h702v-352h-223v-1205h223v-352z" />
    <glyph glyph-name="backslash" unicode="\" horiz-adv-x="1161" 
d="M432 1454l727 -1644h-432l-725 1644h430z" />
    <glyph glyph-name="bracketright" unicode="]" horiz-adv-x="765" 
d="M20 1528h701v-1909h-701v352h222v1205h-222v352z" />
    <glyph glyph-name="asciicircum" unicode="^" horiz-adv-x="948" 
d="M471 1020l-84 -408l-389 19l256 803h432l262 -803l-389 -19z" />
    <glyph glyph-name="underscore" unicode="_" horiz-adv-x="890" 
d="M864 -80v-176h-868v176h868z" />
    <glyph glyph-name="grave" unicode="`" horiz-adv-x="595" 
d="M553 1249l-279 -18l-231 295l371 55z" />
    <glyph glyph-name="a" unicode="a" horiz-adv-x="1069" 
d="M496 1180q265 0 391.5 -136t126.5 -366v-678h-432v143q-38 -83 -105 -126.5t-145 -43.5q-147 0 -229.5 91.5t-82.5 275.5q0 167 96 255.5t285 88.5q99 0 181 -6v14q0 68 -35.5 102.5t-114.5 34.5q-125 0 -268 -47l-35 344q185 54 367 54zM498 293q84 0 84 196v9
q-32 4 -60 4q-40 0 -62 -27.5t-22 -77.5q0 -45 17 -74.5t43 -29.5z" />
    <glyph glyph-name="b" unicode="b" horiz-adv-x="1157" 
d="M733 -27q-135 0 -235 119v-92h-435v1511h435v-452q96 121 231 121q181 0 289 -164.5t108 -435.5q0 -277 -107.5 -442t-285.5 -165zM594 352q45 0 68.5 59.5t23.5 168.5q0 101 -24 161t-68 60q-31 0 -53.5 -37t-32.5 -87.5t-10 -103.5q0 -95 23 -158t73 -63z" />
    <glyph glyph-name="c" unicode="c" horiz-adv-x="851" 
d="M571 -29q-251 0 -395.5 163t-144.5 441q0 276 146.5 440.5t391.5 164.5q146 0 277 -70l-103 -350q-74 43 -135 43q-62 0 -100.5 -59t-38.5 -166q0 -111 38 -170.5t101 -59.5q71 0 137 39l103 -348q-131 -68 -277 -68z" />
    <glyph glyph-name="d" unicode="d" horiz-adv-x="1159" 
d="M426 -27q-178 0 -285.5 165t-107.5 442q0 271 108 435.5t289 164.5q136 0 232 -121v452h434v-1511h-434v92q-100 -119 -236 -119zM565 352q50 0 73.5 63t23.5 158q0 101 -26.5 164.5t-70.5 63.5q-43 0 -66.5 -59.5t-23.5 -161.5q0 -228 90 -228z" />
    <glyph glyph-name="e" unicode="e" horiz-adv-x="1064" 
d="M999 469h-544q13 -81 53.5 -117.5t109.5 -36.5q123 0 248 58l70 -312q-75 -42 -172.5 -66t-194.5 -24q-242 0 -390 164t-148 443q0 272 141.5 436t392.5 164q222 0 345.5 -140.5t123.5 -373.5q0 -88 -35 -195zM451 666l176 2q-2 90 -22 133t-64 43t-64.5 -43.5
t-25.5 -134.5z" />
    <glyph glyph-name="f" unicode="f" horiz-adv-x="772" 
d="M639 1272q-34 0 -50 -21t-16 -77v-25h183v-346h-183v-803h-436v803h-114v346h114v41q0 210 110.5 321t311.5 111q115 0 254 -33l-43 -329q-49 12 -131 12z" />
    <glyph glyph-name="g" unicode="g" horiz-adv-x="1071" 
d="M514 313l107 2q232 1 344 -78t112 -239q0 -182 -147.5 -279.5t-427.5 -97.5q-227 0 -338 71t-111 218q0 114 117 199q-115 49 -115 184q0 111 121 201q-125 107 -125 292q0 180 131 287t355 107q128 0 206 -37l248 78l68 -260l-101 -11q62 -77 62 -164
q0 -187 -124.5 -293t-356.5 -106q-30 0 -84 4q-15 -23 -15 -39q0 -39 74 -39zM537 895q-27 0 -42.5 -29.5t-15.5 -77.5q0 -120 58 -120q26 0 40.5 31.5t14.5 86.5q0 50 -14.5 79.5t-40.5 29.5zM541 -90q49 0 72.5 22t23.5 72q0 74 -94 74h-58q-22 -37 -22 -76q0 -92 78 -92z
" />
    <glyph glyph-name="h" unicode="h" horiz-adv-x="1130" 
d="M772 1180q146 0 224.5 -106.5t78.5 -315.5v-758h-434v664q0 118 -66 118q-27 0 -47.5 -29t-29.5 -87v-666h-435v1511h435v-505q99 174 274 174z" />
    <glyph glyph-name="i" unicode="i" horiz-adv-x="557" 
d="M502 1231h-449v291h449v-291zM496 0h-435v1149h435v-1149z" />
    <glyph glyph-name="j" unicode="j" horiz-adv-x="561" 
d="M506 1231h-449v291h449v-291zM-63 -367l4 316q16 2 63 2q64 0 64 106v1092h434v-1077q0 -241 -111 -348t-325 -107q-74 0 -129 16z" />
    <glyph glyph-name="k" unicode="k" horiz-adv-x="1157" 
d="M682 1149h475l-287 -569l287 -580h-471l-188 444v-444h-435v1511h435v-796z" />
    <glyph glyph-name="l" unicode="l" horiz-adv-x="561" 
d="M498 0h-435v1511h435v-1511z" />
    <glyph glyph-name="m" unicode="m" horiz-adv-x="1669" 
d="M1313 1180q148 0 224.5 -100.5t76.5 -299.5v-780h-432v680q0 106 -56 106q-54 0 -71 -92v-694h-434v680q0 106 -54 106q-59 0 -73 -102v-684h-433v1149h433v-94q104 125 258 125q191 0 262 -164q53 76 130.5 120t168.5 44z" />
    <glyph glyph-name="n" unicode="n" 
d="M768 1180q146 0 224.5 -106.5t78.5 -315.5v-758h-434v664q0 118 -66 118q-48 0 -77 -71v-711h-433v1149h433v-143q99 174 274 174z" />
    <glyph glyph-name="o" unicode="o" 
d="M561 -29q-240 0 -385 162t-145 445q0 271 143 436.5t389 165.5q241 0 387 -160t146 -440q0 -275 -143.5 -442t-391.5 -167zM563 354q90 0 90 224q0 221 -92 221q-90 0 -90 -219q0 -226 92 -226z" />
    <glyph glyph-name="p" unicode="p" horiz-adv-x="1155" 
d="M496 -352h-435v1501h435v-92q99 121 235 121q178 0 285.5 -166t107.5 -443q0 -270 -108.5 -434t-288.5 -164q-134 0 -231 119v-442zM592 348q42 0 66 60t24 161q0 110 -23 170t-67 60q-51 0 -73.5 -64.5t-22.5 -163.5t26.5 -161t69.5 -62z" />
    <glyph glyph-name="q" unicode="q" horiz-adv-x="1153" 
d="M1092 -352h-435v438q-98 -115 -229 -115q-181 0 -289 163.5t-108 434.5q0 277 107.5 443t285.5 166q136 0 233 -119v90h435v-1501zM563 348q24 0 42.5 21t29.5 54.5t16.5 71.5t5.5 76q0 94 -23.5 161t-70.5 67q-45 0 -68.5 -60t-23.5 -170q0 -101 24 -161t68 -60z" />
    <glyph glyph-name="r" unicode="r" horiz-adv-x="772" 
d="M688 1174q29 0 80 -15l-31 -414q-61 11 -110 11q-62 0 -96.5 -68t-34.5 -196v-492h-435v1149h435v-109q73 134 192 134z" />
    <glyph glyph-name="s" unicode="s" horiz-adv-x="849" 
d="M393 -29q-112 0 -191 13.5t-175 46.5l47 346q61 -30 137 -48t141 -18q54 0 54 45q0 19 -24 36.5t-85 47.5q-138 55 -204 136t-66 231q0 120 61.5 206.5t157 126.5t211.5 40q165 0 321 -58l-47 -342q-141 56 -235 56q-60 0 -60 -48q0 -42 101 -81q68 -27 116.5 -56.5
t90 -72.5t62.5 -102.5t21 -135.5q0 -168 -121.5 -268.5t-312.5 -100.5z" />
    <glyph glyph-name="t" unicode="t" horiz-adv-x="811" 
d="M504 -29q-195 0 -296.5 109t-101.5 319v404h-88v170l148 186l199 254h174v-264h237v-346h-237v-373q0 -80 69 -80q44 0 117 25l61 -348q-151 -56 -282 -56z" />
    <glyph glyph-name="u" unicode="u" 
d="M633 438v711h432v-1149h-432v143q-99 -174 -275 -174q-146 0 -224.5 106.5t-78.5 315.5v758h434v-664q0 -118 66 -118q49 0 78 71z" />
    <glyph glyph-name="v" unicode="v" horiz-adv-x="1116" 
d="M815 0h-514l-297 1149h447l104 -698h4l103 698h450z" />
    <glyph glyph-name="w" unicode="w" horiz-adv-x="1550" 
d="M1010 479l86 670h446l-266 -1149h-418l-82 532l-84 -532h-418l-266 1149h449l86 -670l90 670h287z" />
    <glyph glyph-name="x" unicode="x" horiz-adv-x="1136" 
d="M862 569l277 -569h-469l-103 293l-100 -293h-467l270 567l-254 582h471l80 -279l82 279h467z" />
    <glyph glyph-name="y" unicode="y" horiz-adv-x="1116" 
d="M559 449l103 700h450l-311 -1149l-94 -350h-437l92 340l-43 -2l-315 1161h447l104 -700h4z" />
    <glyph glyph-name="z" unicode="z" horiz-adv-x="937" 
d="M903 0h-866v276l317 512h-305v361h844v-275l-315 -509h325v-365z" />
    <glyph glyph-name="braceleft" unicode="{" horiz-adv-x="856" 
d="M836 1526v-348q-101 0 -142.5 -39t-38.5 -127q0 -10 3.5 -72t3.5 -94q1 -128 -61.5 -192.5t-188.5 -78.5v-6q126 -14 188.5 -77.5t61.5 -192.5q0 -31 -3.5 -93.5t-3.5 -72.5q-3 -88 38.5 -127t142.5 -39v-348q-174 -9 -298.5 6t-197.5 50t-113.5 89.5t-47 125t2.5 155.5
q17 169 19 229q3 72 -45.5 108t-135.5 36v311q87 0 135.5 34.5t45.5 104.5q-5 94 -19 232q-9 85 -2.5 155.5t47 125t113.5 89.5t197.5 50t298.5 6z" />
    <glyph glyph-name="bar" unicode="|" horiz-adv-x="552" 
d="M481 1434v-1653h-409v1653h409z" />
    <glyph glyph-name="braceright" unicode="}" horiz-adv-x="856" 
d="M20 -377v348q101 0 142 39t39 127q-6 159 -6 166q-1 128 61 192t188 78v7q-126 14 -188 77.5t-61 192.5q0 7 6 166q2 88 -39 127t-142 39v348q174 9 298.5 -6t197.5 -50t113.5 -89.5t47 -125t-2.5 -155.5q-17 -169 -19 -230q-3 -73 45 -108t136 -35v-311
q-88 0 -136 -34.5t-45 -104.5q5 -94 19 -232q9 -85 2.5 -155.5t-47 -125t-113.5 -89.5t-197.5 -50t-298.5 -6z" />
    <glyph glyph-name="asciitilde" unicode="~" horiz-adv-x="872" 
d="M268 1120l-248 41q-3 120 65 189t183 69q67 0 162.5 -21.5t110.5 -21.5q28 0 46 19t17 49l248 -43q3 -119 -64 -188.5t-182 -69.5q-67 0 -164 22.5t-112 22.5q-29 0 -46.5 -20t-15.5 -48z" />
    <glyph glyph-name="uni00A0" unicode="&#xa0;" horiz-adv-x="585" 
 />
    <glyph glyph-name="exclamdown" unicode="&#xa1;" horiz-adv-x="622" 
d="M537 1149v-401h-443v401h443zM526 182v-467h-438v463l72 486h295z" />
    <glyph glyph-name="cent" unicode="&#xa2;" horiz-adv-x="905" 
d="M745 387l103 -348q-116 -60 -238 -66l-30 -286h-297l34 340q-137 68 -211.5 209.5t-74.5 338.5q0 235 108.5 392t296.5 198l31 291h299l-31 -301q55 -15 111 -45l-103 -350q-74 43 -135 43q-62 0 -100.5 -59t-38.5 -166q0 -111 38 -170.5t101 -59.5q71 0 137 39z" />
    <glyph glyph-name="sterling" unicode="&#xa3;" horiz-adv-x="1036" 
d="M578 559v-213h421v-350h-979v268l123 60v235h-112v176h112v162q0 269 131 415t371 146q161 0 318 -82l-125 -358q-81 35 -148 35q-112 0 -112 -158v-160h223v-176h-223z" />
    <glyph glyph-name="yen" unicode="&#xa5;" horiz-adv-x="1142" 
d="M303 563l-315 871h477l110 -549l103 549h477l-315 -871h131v-129h-172v-82h172v-127h-172v-225h-455v225h-164v127h164v82h-164v129h123z" />
    <glyph glyph-name="brokenbar" unicode="&#xa6;" horiz-adv-x="618" 
d="M516 1434v-666h-414v666h414zM516 498v-664h-414v664h414z" />
    <glyph glyph-name="section" unicode="&#xa7;" horiz-adv-x="983" 
d="M694 1151q24 -54 79 -151.5t95 -170.5t72.5 -179t32.5 -206q0 -147 -71.5 -254.5t-193.5 -161t-280 -53.5q-169 0 -383 80l72 283q94 -39 180 -51q-24 55 -79 152t-95 170.5t-72.5 179t-32.5 204.5q0 147 71.5 254.5t193.5 161t280 53.5q172 0 383 -80l-72 -284
q-91 40 -180 53zM561 330q51 45 51 131q0 67 -22.5 149t-51.5 150.5t-61 165.5t-47 182q-51 -45 -51 -129q0 -86 35 -190.5t82 -229.5t65 -229z" />
    <glyph glyph-name="dieresis" unicode="&#xa8;" horiz-adv-x="739" 
d="M328 1231h-285v291h285v-291zM696 1231h-284v291h284v-291z" />
    <glyph glyph-name="copyright" unicode="&#xa9;" horiz-adv-x="1394" 
d="M696 -20q-137 0 -256.5 51t-207.5 144t-138.5 232t-50.5 306q0 169 50.5 309.5t138.5 234.5t207.5 145.5t256.5 51.5q140 0 260 -51.5t208 -145.5t138 -234.5t50 -309.5q0 -167 -50 -306t-138 -232t-208 -144t-260 -51zM696 111q110 0 207 44t167 121.5t110.5 191
t40.5 245.5q0 271 -149.5 440.5t-375.5 169.5q-223 0 -371.5 -169.5t-148.5 -440.5q0 -266 148.5 -434t371.5 -168zM700 256q-182 0 -295.5 129.5t-113.5 335.5q0 207 114.5 335t301.5 128q239 0 354 -219l-227 -166q-42 67 -105 67q-44 0 -74 -41t-30 -102q0 -63 29 -105.5
t73 -42.5q62 0 107 68l227 -166q-114 -221 -361 -221z" />
    <glyph glyph-name="ordfeminine" unicode="&#xaa;" horiz-adv-x="622" 
d="M301 1540q148 0 219.5 -74.5t71.5 -193.5v-406h-234v70q-23 -42 -60 -64t-79 -22q-87 0 -137.5 61.5t-50.5 169.5q0 88 55 141.5t156 53.5q50 0 116 -8v2q0 37 -18 56.5t-64 19.5q-86 0 -139 -35l-61 178q88 51 225 51zM299 1055q26 0 42.5 24t16.5 64q-24 6 -45 6
q-25 0 -40 -14t-15 -37q0 -43 41 -43zM590 590h-549v184h549v-184z" />
    <glyph glyph-name="guillemotleft" unicode="&#xab;" horiz-adv-x="1183" 
d="M623 180l-252 -127l-351 414v158l349 411l254 -127l-250 -362zM1165 180l-256 -127l-405 482v22l405 479l256 -127l-252 -362z" />
    <glyph glyph-name="logicalnot" unicode="&#xac;" horiz-adv-x="864" 
d="M20 553v358h824v-585h-359v227h-465z" />
    <glyph glyph-name="uni00AD" unicode="&#xad;" horiz-adv-x="645" 
d="M625 662v-359h-605v359h605z" />
    <glyph glyph-name="registered" unicode="&#xae;" horiz-adv-x="753" 
d="M377 1505q149 0 241.5 -109.5t92.5 -287.5q0 -180 -92.5 -290.5t-241.5 -110.5t-241.5 110.5t-92.5 290.5q0 178 92.5 287.5t241.5 109.5zM377 784q114 0 184 89t70 235q0 145 -70 233.5t-184 88.5q-113 0 -183.5 -89t-70.5 -233q0 -146 70.5 -235t183.5 -89zM508 1069
l59 -149h-159l-27 112h-14v-112h-144v415h164q78 0 124 -39.5t46 -111.5q0 -78 -49 -115zM385 1217h-18v-76h18q29 0 29 41q0 15 -8 25t-21 10z" />
    <glyph glyph-name="macron" unicode="&#xaf;" horiz-adv-x="765" 
d="M721 1253h-678v232h678v-232z" />
    <glyph glyph-name="degree" unicode="&#xb0;" horiz-adv-x="753" 
d="M377 795q-138 0 -236 97.5t-98 235.5t98 236t236 98t236 -98t98 -236t-98.5 -235.5t-235.5 -97.5zM377 938q79 0 134.5 56t55.5 134q0 80 -55.5 135.5t-134.5 55.5t-135 -55.5t-56 -135.5q0 -78 56 -134t135 -56z" />
    <glyph glyph-name="plusminus" unicode="&#xb1;" horiz-adv-x="770" 
d="M563 1174v-185h187v-336h-187v-186h-358v186h-185v336h185v185h358zM741 123h-716v301h716v-301z" />
    <glyph glyph-name="uni00B2" unicode="&#xb2;" horiz-adv-x="626" 
d="M604 870h-571v211q95 54 188 144q66 72 66 114q0 54 -80 54q-47 0 -98 -31l-84 229q113 58 241 58q147 0 237.5 -70.5t90.5 -189.5q0 -126 -121 -238q-3 -2 -12 -10.5t-17 -14.5h160v-256z" />
    <glyph glyph-name="uni00B3" unicode="&#xb3;" horiz-adv-x="604" 
d="M270 856q-114 0 -247 47l57 232q61 -27 147 -27q52 0 52 41q0 38 -54 41h-98v135l121 109h-187v202h474l18 -186l-115 -107q10 -3 15 -8q129 -56 129 -211q0 -129 -84 -198.5t-228 -69.5z" />
    <glyph glyph-name="acute" unicode="&#xb4;" horiz-adv-x="595" 
d="M553 1526l-229 -295l-281 18l139 332z" />
    <glyph glyph-name="uni00B5" unicode="&#xb5;" 
d="M633 438v711h432v-1149h-432v143q-58 -106 -156 -149l21 -344h-443v1499h434v-664q0 -118 66 -118q49 0 78 71z" />
    <glyph glyph-name="paragraph" unicode="&#xb6;" horiz-adv-x="1359" 
d="M524 1434h305v-1680h-305v721q-239 5 -368 129.5t-129 353.5q0 226 129 349.5t368 126.5zM983 -246v1680h307v-1680h-307z" />
    <glyph glyph-name="periodcentered" unicode="&#xb7;" horiz-adv-x="395" 
d="M31 471v305h336v-305h-336z" />
    <glyph glyph-name="cedilla" unicode="&#xb8;" horiz-adv-x="608" 
d="M383 16l-21 -69q78 -6 127.5 -47t49.5 -103q0 -85 -81.5 -129.5t-217.5 -44.5q-96 0 -158 12l33 152q40 -8 71 -8q64 0 64 37q0 50 -109 24l47 176h195z" />
    <glyph glyph-name="uni00B9" unicode="&#xb9;" horiz-adv-x="462" 
d="M23 1599l182 31h235v-760h-286v498l-95 -16z" />
    <glyph glyph-name="ordmasculine" unicode="&#xba;" horiz-adv-x="684" 
d="M344 844q-142 0 -227.5 92t-85.5 254q0 156 83.5 250t229.5 94q140 0 224.5 -91.5t84.5 -250.5q0 -157 -83 -252.5t-226 -95.5zM342 1044q35 0 56.5 38.5t21.5 107.5q0 66 -20.5 104.5t-55.5 38.5t-56.5 -37t-21.5 -104q0 -68 20.5 -108t55.5 -40zM625 584h-568v184h568
v-184z" />
    <glyph glyph-name="guillemotright" unicode="&#xbb;" horiz-adv-x="1183" 
d="M20 909l254 127l408 -481v-23l-408 -479l-254 127l250 363zM561 909l252 127l352 -413v-158l-350 -412l-254 127l250 363z" />
    <glyph glyph-name="onequarter" unicode="&#xbc;" horiz-adv-x="1517" 
d="M440 1448v-760h-286v498l-95 -17l-36 248l182 31h235zM174 0l600 1434h320l-598 -1434h-322zM1438 764v-438h57v-215h-57v-111h-271v111h-288l-52 163l248 490h363zM1100 326h78v196z" />
    <glyph glyph-name="onehalf" unicode="&#xbd;" horiz-adv-x="1431" 
d="M440 1448v-760h-286v498l-95 -17l-36 248l182 31h235zM174 0l600 1434h320l-598 -1434h-322zM1249 256h160v-256h-571v211q97 56 188 143q66 72 66 115q0 53 -80 53q-50 0 -99 -30l-84 229q111 57 242 57q147 0 237.5 -70.5t90.5 -189.5q0 -125 -121 -237
q-3 -2 -12 -10.5t-17 -14.5z" />
    <glyph glyph-name="threequarters" unicode="&#xbe;" horiz-adv-x="1658" 
d="M270 674q-114 0 -247 47l57 231q59 -26 147 -26q52 0 52 41q0 38 -54 41h-98v135l121 108h-187v203h474l18 -186l-115 -107q10 -3 15 -8q129 -56 129 -211q0 -129 -84 -198.5t-228 -69.5zM637 0h-322l600 1434h320zM1579 0h-270v111h-289l-51 163l248 490h362v-438h57
v-215h-57v-111zM1319 522l-78 -196h78v196z" />
    <glyph glyph-name="questiondown" unicode="&#xbf;" horiz-adv-x="890" 
d="M670 1149v-401h-443v401h443zM303 664h313q16 -129 -3 -215t-91 -164q-57 -67 -57 -121q0 -42 25.5 -65t68.5 -23q89 0 221 78l88 -375q-210 -88 -393 -88q-211 0 -341 101.5t-130 287.5q0 55 13.5 103t42.5 92t51 70t63 69q45 49 66.5 77.5t40.5 74t22 98.5z" />
    <glyph glyph-name="Agrave" unicode="&#xc0;" horiz-adv-x="1239" 
d="M623 1810l163 -290l-325 -17l-232 230zM1245 0h-465l-32 201h-263l-34 -201h-459l338 1434h581zM614 956l-79 -471h165l-75 471h-11z" />
    <glyph glyph-name="Aacute" unicode="&#xc1;" horiz-adv-x="1239" 
d="M616 1812l394 -77l-232 -230l-325 17zM1245 0h-465l-32 201h-263l-34 -201h-459l338 1434h581zM614 956l-79 -471h165l-75 471h-11z" />
    <glyph glyph-name="Acircumflex" unicode="&#xc2;" horiz-adv-x="1239" 
d="M664 1511l-43 107l-43 -107l-308 17l152 270h397l154 -270zM1245 0h-465l-32 201h-263l-34 -201h-459l338 1434h581zM614 956l-79 -471h165l-75 471h-11z" />
    <glyph glyph-name="Atilde" unicode="&#xc3;" horiz-adv-x="1239" 
d="M508 1509l-193 39q-2 124 44.5 194t132.5 70q50 0 113.5 -21.5t78.5 -21.5q45 0 45 60l191 -39q3 -125 -43 -195.5t-132 -70.5q-50 0 -114.5 21.5t-79.5 21.5q-19 0 -31 -15t-12 -43zM1245 0h-465l-32 201h-263l-34 -201h-459l338 1434h581zM614 956l-79 -471h165
l-75 471h-11z" />
    <glyph glyph-name="Adieresis" unicode="&#xc4;" horiz-adv-x="1239" 
d="M301 1794h289v-281h-289v281zM653 1794h289v-281h-289v281zM1245 0h-465l-32 201h-263l-34 -201h-459l338 1434h581zM614 956l-79 -471h165l-75 471h-11z" />
    <glyph glyph-name="Aring" unicode="&#xc5;" horiz-adv-x="1239" 
d="M618 1477q-111 0 -184.5 68.5t-73.5 172.5q0 103 74 171.5t184 68.5t184.5 -68.5t74.5 -171.5q0 -104 -74 -172.5t-185 -68.5zM618 1788q-27 0 -45 -20t-18 -50q0 -31 17.5 -50t45.5 -19t47 19.5t19 49.5q0 29 -19 49.5t-47 20.5zM1245 0h-465l-32 201h-263l-34 -201
h-459l338 1434h581zM614 956l-79 -471h165l-75 471h-11z" />
    <glyph glyph-name="AE" unicode="&#xc6;" horiz-adv-x="1679" 
d="M1194 541v-154h453v-387h-902v227h-227l-59 -227h-467l409 1434h1233v-387h-440v-150h367v-356h-367zM737 1032l-131 -508h139v508h-8z" />
    <glyph glyph-name="Ccedilla" unicode="&#xc7;" horiz-adv-x="1038" 
d="M723 -27l-8 -26q78 -6 127 -47t49 -103q0 -85 -81.5 -129.5t-217.5 -44.5q-96 0 -158 12l33 152q40 -8 72 -8q63 0 63 37q0 50 -108 24l38 144q-231 45 -360 233.5t-129 497.5q0 353 165.5 550t463.5 197q162 0 332 -86l-109 -385q-101 56 -193 56q-194 0 -194 -330
q0 -332 197 -332q96 0 190 57l113 -385q-126 -72 -285 -84z" />
    <glyph glyph-name="Egrave" unicode="&#xc8;" horiz-adv-x="1005" 
d="M522 1810l164 -290l-326 -17l-231 230zM520 541v-154h453v-387h-901v1434h889v-387h-441v-150h367v-356h-367z" />
    <glyph glyph-name="Eacute" unicode="&#xc9;" horiz-adv-x="1005" 
d="M516 1812l393 -77l-231 -230l-326 17zM520 541v-154h453v-387h-901v1434h889v-387h-441v-150h367v-356h-367z" />
    <glyph glyph-name="Ecircumflex" unicode="&#xca;" horiz-adv-x="1005" 
d="M563 1511l-43 107l-43 -107l-307 17l152 270h397l153 -270zM520 541v-154h453v-387h-901v1434h889v-387h-441v-150h367v-356h-367z" />
    <glyph glyph-name="Edieresis" unicode="&#xcb;" horiz-adv-x="1005" 
d="M201 1794h288v-281h-288v281zM553 1794h289v-281h-289v281zM520 541v-154h453v-387h-901v1434h889v-387h-441v-150h367v-356h-367z" />
    <glyph glyph-name="Igrave" unicode="&#xcc;" horiz-adv-x="595" 
d="M463 1520l-326 -17l-231 230l393 77zM524 0h-452v1434h452v-1434z" />
    <glyph glyph-name="Iacute" unicode="&#xcd;" horiz-adv-x="595" 
d="M688 1735l-231 -230l-326 17l164 290zM524 0h-452v1434h452v-1434z" />
    <glyph glyph-name="Icircumflex" unicode="&#xce;" horiz-adv-x="595" 
d="M342 1511l-43 107l-43 -107l-307 17l151 270h398l153 -270zM524 0h-452v1434h452v-1434z" />
    <glyph glyph-name="Idieresis" unicode="&#xcf;" horiz-adv-x="595" 
d="M268 1513h-288v281h288v-281zM621 1513h-289v281h289v-281zM524 0h-452v1434h452v-1434z" />
    <glyph glyph-name="Eth" unicode="&#xd0;" horiz-adv-x="1269" 
d="M72 1434h536q289 0 454 -191t165 -522q0 -335 -164.5 -528t-454.5 -193h-536v637h-64v166h64v631zM524 406h64q88 0 132 75.5t44 237.5q0 309 -176 309h-64v-225h162v-166h-162v-231z" />
    <glyph glyph-name="Ntilde" unicode="&#xd1;" horiz-adv-x="1261" 
d="M520 1509l-192 39q-2 124 44 194t132 70q50 0 113.5 -21.5t78.5 -21.5q45 0 45 60l191 -39q3 -125 -42.5 -195.5t-131.5 -70.5q-50 0 -115 21.5t-80 21.5q-19 0 -31 -15t-12 -43zM512 0h-440v1434h417l259 -584v584h442v-1434h-408l-270 604v-604z" />
    <glyph glyph-name="Ograve" unicode="&#xd2;" horiz-adv-x="1284" 
d="M807 1520l-326 -17l-231 230l393 77zM641 -29q-270 0 -434 198.5t-164 545.5q0 222 70.5 390.5t207 262.5t320.5 94q271 0 434.5 -198t163.5 -545q0 -222 -70.5 -390.5t-207 -263t-320.5 -94.5zM641 387q64 0 100.5 83.5t36.5 244.5q0 162 -35.5 247t-101.5 85
q-64 0 -100.5 -84t-36.5 -246q0 -156 35.5 -243t101.5 -87z" />
    <glyph glyph-name="Oacute" unicode="&#xd3;" horiz-adv-x="1284" 
d="M1032 1735l-231 -230l-326 17l164 290zM641 -29q-270 0 -434 198.5t-164 545.5q0 222 70.5 390.5t207 262.5t320.5 94q271 0 434.5 -198t163.5 -545q0 -222 -70.5 -390.5t-207 -263t-320.5 -94.5zM641 387q64 0 100.5 83.5t36.5 244.5q0 162 -35.5 247t-101.5 85
q-64 0 -100.5 -84t-36.5 -246q0 -156 35.5 -243t101.5 -87z" />
    <glyph glyph-name="Ocircumflex" unicode="&#xd4;" horiz-adv-x="1284" 
d="M684 1511l-43 107l-43 -107l-307 17l151 270h398l153 -270zM641 1462q271 0 434.5 -198t163.5 -545q0 -222 -70.5 -390.5t-207 -263t-320.5 -94.5q-270 0 -434 198.5t-164 545.5q0 222 70.5 390.5t207 262.5t320.5 94zM641 387q64 0 100.5 83.5t36.5 244.5
q0 162 -35.5 247t-101.5 85q-64 0 -100.5 -84t-36.5 -246q0 -156 35.5 -243t101.5 -87z" />
    <glyph glyph-name="Otilde" unicode="&#xd5;" horiz-adv-x="1284" 
d="M530 1509l-192 39q-2 124 44 194t132 70q50 0 114 -21.5t79 -21.5q45 0 45 60l190 -39q3 -125 -42.5 -195.5t-131.5 -70.5q-50 0 -115 21.5t-80 21.5q-19 0 -31 -15t-12 -43zM641 -29q-270 0 -434 198.5t-164 545.5q0 222 70.5 390.5t207 262.5t320.5 94
q271 0 434.5 -198t163.5 -545q0 -222 -70.5 -390.5t-207 -263t-320.5 -94.5zM641 387q64 0 100.5 83.5t36.5 244.5q0 162 -35.5 247t-101.5 85q-64 0 -100.5 -84t-36.5 -246q0 -156 35.5 -243t101.5 -87z" />
    <glyph glyph-name="Odieresis" unicode="&#xd6;" horiz-adv-x="1284" 
d="M612 1513h-288v281h288v-281zM965 1513h-289v281h289v-281zM641 -29q-270 0 -434 198.5t-164 545.5q0 222 70.5 390.5t207 262.5t320.5 94q271 0 434.5 -198t163.5 -545q0 -222 -70.5 -390.5t-207 -263t-320.5 -94.5zM641 387q64 0 100.5 83.5t36.5 244.5
q0 162 -35.5 247t-101.5 85q-64 0 -100.5 -84t-36.5 -246q0 -156 35.5 -243t101.5 -87z" />
    <glyph glyph-name="multiply" unicode="&#xd7;" horiz-adv-x="811" 
d="M782 664l-280 -281v-6l-4 2l-86 -86l-148 147l-16 4l2 11l-221 219l278 278l2 11l6 -2l84 83l146 -143l20 -6l-2 -14z" />
    <glyph glyph-name="Oslash" unicode="&#xd8;" horiz-adv-x="1284" 
d="M1153 1382l-76 -120q162 -202 162 -543q0 -222 -70.5 -390.5t-207 -263t-320.5 -94.5q-179 0 -319 92l-60 -94l-133 84l76 119q-162 202 -162 543q0 222 70.5 390.5t207 262.5t320.5 94t320 -92l57 92zM504 717q0 -46 2 -66l219 346q-35 50 -84 50q-64 0 -100.5 -84
t-36.5 -246zM641 387q64 0 100.5 83.5t36.5 244.5q0 46 -2 69l-219 -346q36 -51 84 -51z" />
    <glyph glyph-name="Ugrave" unicode="&#xd9;" horiz-adv-x="1208" 
d="M772 1520l-326 -17l-231 230l393 77zM604 -29q-250 0 -397.5 138.5t-147.5 373.5v951h455v-953q0 -123 92 -123q90 0 90 123v953h453v-951q0 -235 -147 -373.5t-398 -138.5z" />
    <glyph glyph-name="Uacute" unicode="&#xda;" horiz-adv-x="1208" 
d="M997 1735l-231 -230l-326 17l164 290zM604 -29q-250 0 -397.5 138.5t-147.5 373.5v951h455v-953q0 -123 92 -123q90 0 90 123v953h453v-951q0 -235 -147 -373.5t-398 -138.5z" />
    <glyph glyph-name="Ucircumflex" unicode="&#xdb;" horiz-adv-x="1208" 
d="M649 1511l-43 107l-43 -107l-307 17l152 270h397l153 -270zM696 481v953h453v-951q0 -235 -147 -373.5t-398 -138.5q-250 0 -397.5 138.5t-147.5 373.5v951h455v-953q0 -123 92 -123q90 0 90 123z" />
    <glyph glyph-name="Udieresis" unicode="&#xdc;" horiz-adv-x="1208" 
d="M578 1513h-289v281h289v-281zM930 1513h-289v281h289v-281zM604 -29q-250 0 -397.5 138.5t-147.5 373.5v951h455v-953q0 -123 92 -123q90 0 90 123v953h453v-951q0 -235 -147 -373.5t-398 -138.5z" />
    <glyph glyph-name="Yacute" unicode="&#xdd;" horiz-adv-x="1157" 
d="M575 1812l394 -77l-232 -230l-325 17zM692 1434h475l-362 -977v-457h-453v457l-364 977h477l117 -555z" />
    <glyph glyph-name="Thorn" unicode="&#xde;" horiz-adv-x="1163" 
d="M524 1268h64q255 0 403 -142.5t148 -402.5q0 -255 -145 -404t-406 -149h-64v-170h-452v1434h452v-166zM524 549h51q55 0 86 45t31 127q0 77 -31.5 122.5t-85.5 45.5h-51v-340z" />
    <glyph glyph-name="germandbls" unicode="&#xdf;" horiz-adv-x="1163" 
d="M924 778q96 -29 158.5 -121.5t62.5 -230.5q0 -198 -118.5 -322t-285.5 -124q-117 0 -192 34l8 357q44 -13 74 -13q82 0 82 129q0 56 -23.5 89t-66.5 36q-48 0 -64 -4v269q94 28 94 165q0 129 -71 129q-38 0 -61 -37t-23 -108v-1016l-435 -10v1026q0 228 140.5 370
t380.5 142q225 0 362 -125.5t137 -331.5q0 -101 -45.5 -181.5t-113.5 -121.5z" />
    <glyph glyph-name="agrave" unicode="&#xe0;" horiz-adv-x="1069" 
d="M532 1583l140 -332l-279 -18l-231 295zM496 1180q265 0 391.5 -136t126.5 -366v-678h-432v143q-38 -83 -105 -126.5t-145 -43.5q-147 0 -229.5 91.5t-82.5 275.5q0 167 96 255.5t285 88.5q99 0 181 -6v14q0 68 -35.5 102.5t-114.5 34.5q-125 0 -268 -47l-35 344
q185 54 367 54zM498 293q84 0 84 196v9q-32 4 -60 4q-40 0 -62 -27.5t-22 -77.5q0 -45 17 -74.5t43 -29.5z" />
    <glyph glyph-name="aacute" unicode="&#xe1;" horiz-adv-x="1069" 
d="M494 1583l370 -55l-229 -295l-281 18zM496 1180q265 0 391.5 -136t126.5 -366v-678h-432v143q-38 -83 -105 -126.5t-145 -43.5q-147 0 -229.5 91.5t-82.5 275.5q0 167 96 255.5t285 88.5q99 0 181 -6v14q0 68 -35.5 102.5t-114.5 34.5q-125 0 -268 -47l-35 344
q185 54 367 54zM498 293q84 0 84 196v9q-32 4 -60 4q-40 0 -62 -27.5t-22 -77.5q0 -45 17 -74.5t43 -29.5z" />
    <glyph glyph-name="acircumflex" unicode="&#xe2;" horiz-adv-x="1069" 
d="M563 1233l-43 119l-41 -119l-305 18l150 301h393l149 -301zM496 1180q265 0 391.5 -136t126.5 -366v-678h-432v143q-38 -83 -105 -126.5t-145 -43.5q-147 0 -229.5 91.5t-82.5 275.5q0 167 96 255.5t285 88.5q99 0 181 -6v14q0 68 -35.5 102.5t-114.5 34.5
q-125 0 -268 -47l-35 344q185 54 367 54zM498 293q84 0 84 196v9q-32 4 -60 4q-40 0 -62 -27.5t-22 -77.5q0 -45 17 -74.5t43 -29.5z" />
    <glyph glyph-name="atilde" unicode="&#xe3;" horiz-adv-x="1069" 
d="M410 1227l-193 39q-2 124 44.5 195t131.5 71q50 0 114 -21.5t79 -21.5q45 0 45 57l190 -39q3 -125 -42.5 -195.5t-131.5 -70.5q-50 0 -114.5 21.5t-79.5 21.5q-43 0 -43 -57zM496 1180q265 0 391.5 -136t126.5 -366v-678h-432v143q-38 -83 -105 -126.5t-145 -43.5
q-147 0 -229.5 91.5t-82.5 275.5q0 167 96 255.5t285 88.5q99 0 181 -6v14q0 68 -35.5 102.5t-114.5 34.5q-125 0 -268 -47l-35 344q185 54 367 54zM498 293q84 0 84 196v9q-32 4 -60 4q-40 0 -62 -27.5t-22 -77.5q0 -45 17 -74.5t43 -29.5z" />
    <glyph glyph-name="adieresis" unicode="&#xe4;" horiz-adv-x="1069" 
d="M193 1524h284v-291h-284v291zM561 1524h285v-291h-285v291zM496 1180q265 0 391.5 -136t126.5 -366v-678h-432v143q-38 -83 -105 -126.5t-145 -43.5q-147 0 -229.5 91.5t-82.5 275.5q0 167 96 255.5t285 88.5q99 0 181 -6v14q0 68 -35.5 102.5t-114.5 34.5
q-125 0 -268 -47l-35 344q185 54 367 54zM498 293q84 0 84 196v9q-32 4 -60 4q-40 0 -62 -27.5t-22 -77.5q0 -45 17 -74.5t43 -29.5z" />
    <glyph glyph-name="aring" unicode="&#xe5;" horiz-adv-x="1069" 
d="M520 1214q-110 0 -184 68.5t-74 171.5q0 104 74 173t184 69t184 -69t74 -173q0 -103 -74 -171.5t-184 -68.5zM520 1526q-27 0 -45 -21t-18 -51q0 -29 17.5 -48.5t45.5 -19.5t47 19.5t19 48.5t-19 50.5t-47 21.5zM496 1180q265 0 391.5 -136t126.5 -366v-678h-432v143
q-38 -83 -105 -126.5t-145 -43.5q-147 0 -229.5 91.5t-82.5 275.5q0 167 96 255.5t285 88.5q99 0 181 -6v14q0 68 -35.5 102.5t-114.5 34.5q-125 0 -268 -47l-35 344q185 54 367 54zM498 293q84 0 84 196v9q-32 4 -60 4q-40 0 -62 -27.5t-22 -77.5q0 -45 17 -74.5t43 -29.5z
" />
    <glyph glyph-name="ae" unicode="&#xe6;" horiz-adv-x="1619" 
d="M1554 469h-544q13 -81 54 -117.5t110 -36.5q122 0 247 58l70 -312q-75 -42 -172.5 -66t-194.5 -24q-243 0 -393 166q-138 -166 -350 -166q-159 0 -255.5 98.5t-96.5 266.5q0 348 409 348q80 0 150 -6v8q0 72 -35 107.5t-117 35.5q-118 0 -260 -49l-49 344q81 21 113 28.5
t107 17.5t149 10q202 0 303 -101q132 99 321 99q222 0 345.5 -140.5t123.5 -373.5q0 -88 -35 -195zM1006 666l176 2q-2 90 -22 133t-64 43t-64.5 -43.5t-25.5 -134.5zM506 293q33 2 59.5 40t30.5 109q-4 20 -4 33l-4 -2v27q-20 2 -60 2q-82 0 -82 -103q0 -51 15.5 -80
t44.5 -26z" />
    <glyph glyph-name="ccedilla" unicode="&#xe7;" horiz-adv-x="851" 
d="M616 -27l-8 -26q78 -6 127 -47t49 -103q0 -85 -81.5 -129.5t-217.5 -44.5q-95 0 -157 12l32 152q40 -8 72 -8q64 0 64 37q0 50 -109 24l39 148q-186 44 -290.5 199t-104.5 388q0 276 146.5 440.5t391.5 164.5q146 0 277 -70l-103 -350q-74 43 -135 43q-62 0 -100.5 -59
t-38.5 -166q0 -111 38 -170.5t101 -59.5q71 0 137 39l103 -348q-114 -60 -232 -66z" />
    <glyph glyph-name="egrave" unicode="&#xe8;" horiz-adv-x="1064" 
d="M553 1581l139 -332l-278 -18l-232 295zM999 469h-544q13 -81 53.5 -117.5t109.5 -36.5q123 0 248 58l70 -312q-75 -42 -172.5 -66t-194.5 -24q-242 0 -390 164t-148 443q0 272 141.5 436t392.5 164q222 0 345.5 -140.5t123.5 -373.5q0 -88 -35 -195zM451 666l176 2
q-2 90 -22 133t-64 43t-64.5 -43.5t-25.5 -134.5z" />
    <glyph glyph-name="eacute" unicode="&#xe9;" horiz-adv-x="1064" 
d="M514 1581l371 -55l-230 -295l-280 18zM999 469h-544q13 -81 53.5 -117.5t109.5 -36.5q123 0 248 58l70 -312q-75 -42 -172.5 -66t-194.5 -24q-242 0 -390 164t-148 443q0 272 141.5 436t392.5 164q222 0 345.5 -140.5t123.5 -373.5q0 -88 -35 -195zM451 666l176 2
q-2 90 -22 133t-64 43t-64.5 -43.5t-25.5 -134.5z" />
    <glyph glyph-name="ecircumflex" unicode="&#xea;" horiz-adv-x="1064" 
d="M582 1231l-43 119l-41 -119l-305 18l149 301h393l150 -301zM999 469h-544q13 -81 53.5 -117.5t109.5 -36.5q123 0 248 58l70 -312q-75 -42 -172.5 -66t-194.5 -24q-242 0 -390 164t-148 443q0 272 141.5 436t392.5 164q222 0 345.5 -140.5t123.5 -373.5q0 -88 -35 -195z
M451 666l176 2q-2 90 -22 133t-64 43t-64.5 -43.5t-25.5 -134.5z" />
    <glyph glyph-name="edieresis" unicode="&#xeb;" horiz-adv-x="1064" 
d="M213 1522h285v-291h-285v291zM582 1522h284v-291h-284v291zM999 469h-544q13 -81 53.5 -117.5t109.5 -36.5q123 0 248 58l70 -312q-75 -42 -172.5 -66t-194.5 -24q-242 0 -390 164t-148 443q0 272 141.5 436t392.5 164q222 0 345.5 -140.5t123.5 -373.5q0 -88 -35 -195z
M451 666l176 2q-2 90 -22 133t-64 43t-64.5 -43.5t-25.5 -134.5z" />
    <glyph glyph-name="igrave" unicode="&#xec;" horiz-adv-x="557" 
d="M430 1249l-278 -18l-232 295l371 55zM496 0h-435v1149h435v-1149z" />
    <glyph glyph-name="iacute" unicode="&#xed;" horiz-adv-x="557" 
d="M623 1526l-230 -295l-280 18l139 332zM496 0h-435v1149h435v-1149z" />
    <glyph glyph-name="icircumflex" unicode="&#xee;" horiz-adv-x="557" 
d="M322 1231l-43 119l-41 -119l-306 18l150 301h393l150 -301zM496 0h-435v1149h435v-1149z" />
    <glyph glyph-name="idieresis" unicode="&#xef;" horiz-adv-x="557" 
d="M236 1231h-285v291h285v-291zM604 1231h-285v291h285v-291zM496 0h-435v1149h435v-1149z" />
    <glyph glyph-name="eth" unicode="&#xf0;" 
d="M883 1430l-62 -54q123 -113 191.5 -288.5t68.5 -395.5q0 -352 -136.5 -536.5t-405.5 -184.5q-233 0 -370.5 133.5t-137.5 378.5q0 221 119.5 360.5t324.5 139.5q76 0 135 -35q-29 101 -84 170l-106 -92l-94 115l84 73q-52 30 -117 48l172 280q122 -15 231 -74l90 80z
M545 301q32 0 52.5 28.5t31.5 108.5l-2 -2q1 96 -22.5 146.5t-61.5 50.5q-34 0 -55 -40.5t-21 -127.5q0 -86 22 -125t56 -39z" />
    <glyph glyph-name="ntilde" unicode="&#xf1;" 
d="M457 1225l-193 39q-2 124 44.5 195t131.5 71q50 0 114 -21.5t79 -21.5q45 0 45 57l190 -39q3 -125 -42.5 -195.5t-131.5 -70.5q-50 0 -114.5 21.5t-79.5 21.5q-43 0 -43 -57zM768 1180q146 0 224.5 -106.5t78.5 -315.5v-758h-434v664q0 118 -66 118q-48 0 -77 -71v-711
h-433v1149h433v-143q99 174 274 174z" />
    <glyph glyph-name="ograve" unicode="&#xf2;" 
d="M717 1249l-279 -18l-231 295l371 55zM561 -29q-240 0 -385 162t-145 445q0 271 143 436.5t389 165.5q241 0 387 -160t146 -440q0 -275 -143.5 -442t-391.5 -167zM563 354q90 0 90 224q0 221 -92 221q-90 0 -90 -219q0 -226 92 -226z" />
    <glyph glyph-name="oacute" unicode="&#xf3;" 
d="M909 1526l-229 -295l-281 18l140 332zM561 -29q-240 0 -385 162t-145 445q0 271 143 436.5t389 165.5q241 0 387 -160t146 -440q0 -275 -143.5 -442t-391.5 -167zM563 354q90 0 90 224q0 221 -92 221q-90 0 -90 -219q0 -226 92 -226z" />
    <glyph glyph-name="ocircumflex" unicode="&#xf4;" 
d="M608 1231l-43 119l-41 -119l-305 18l150 301h393l149 -301zM563 1180q241 0 387 -160t146 -440q0 -275 -143.5 -442t-391.5 -167q-240 0 -385 162t-145 445q0 271 143 436.5t389 165.5zM563 354q90 0 90 224q0 221 -92 221q-90 0 -90 -219q0 -226 92 -226z" />
    <glyph glyph-name="otilde" unicode="&#xf5;" 
d="M453 1225l-193 39q-2 124 44.5 195t131.5 71q50 0 114 -21.5t79 -21.5q45 0 45 57l190 -39q3 -125 -42.5 -195.5t-131.5 -70.5q-50 0 -114.5 21.5t-79.5 21.5q-43 0 -43 -57zM561 -29q-240 0 -385 162t-145 445q0 271 143 436.5t389 165.5q241 0 387 -160t146 -440
q0 -275 -143.5 -442t-391.5 -167zM563 354q90 0 90 224q0 221 -92 221q-90 0 -90 -219q0 -226 92 -226z" />
    <glyph glyph-name="odieresis" unicode="&#xf6;" 
d="M522 1231h-284v291h284v-291zM891 1231h-285v291h285v-291zM561 -29q-240 0 -385 162t-145 445q0 271 143 436.5t389 165.5q241 0 387 -160t146 -440q0 -275 -143.5 -442t-391.5 -167zM563 354q90 0 90 224q0 221 -92 221q-90 0 -90 -219q0 -226 92 -226z" />
    <glyph glyph-name="divide" unicode="&#xf7;" horiz-adv-x="749" 
d="M561 1239v-334h-366v334h366zM729 844v-312h-711v312h711zM195 131v334h366v-334h-366z" />
    <glyph glyph-name="oslash" unicode="&#xf8;" 
d="M1061 1090l-82 -105q117 -158 117 -405q0 -275 -143.5 -442t-391.5 -167q-177 0 -305 90l-70 -90l-123 99l80 102q-112 159 -112 406q0 271 143 436.5t389 165.5q173 0 301 -84l72 92zM561 799q-87 0 -90 -207l141 182q-22 25 -51 25zM563 354q87 0 90 215l-143 -186
q23 -29 53 -29z" />
    <glyph glyph-name="ugrave" unicode="&#xf9;" 
d="M571 1581l140 -332l-279 -18l-231 295zM633 438v711h432v-1149h-432v143q-99 -174 -275 -174q-146 0 -224.5 106.5t-78.5 315.5v758h434v-664q0 -118 66 -118q49 0 78 71z" />
    <glyph glyph-name="uacute" unicode="&#xfa;" 
d="M532 1581l371 -55l-229 -295l-281 18zM633 438v711h432v-1149h-432v143q-99 -174 -275 -174q-146 0 -224.5 106.5t-78.5 315.5v758h434v-664q0 -118 66 -118q49 0 78 71z" />
    <glyph glyph-name="ucircumflex" unicode="&#xfb;" 
d="M602 1231l-43 119l-41 -119l-305 18l149 301h394l149 -301zM633 438v711h432v-1149h-432v143q-99 -174 -275 -174q-146 0 -224.5 106.5t-78.5 315.5v758h434v-664q0 -118 66 -118q49 0 78 71z" />
    <glyph glyph-name="udieresis" unicode="&#xfc;" 
d="M231 1522h285v-291h-285v291zM600 1522h285v-291h-285v291zM633 438v711h432v-1149h-432v143q-99 -174 -275 -174q-146 0 -224.5 106.5t-78.5 315.5v758h434v-664q0 -118 66 -118q49 0 78 71z" />
    <glyph glyph-name="yacute" unicode="&#xfd;" horiz-adv-x="1116" 
d="M532 1575l371 -55l-229 -295l-281 18zM559 449l103 700h450l-311 -1149l-94 -350h-437l92 340l-43 -2l-315 1161h447l104 -700h4z" />
    <glyph glyph-name="thorn" unicode="&#xfe;" horiz-adv-x="1157" 
d="M498 -352h-435v1863h435v-454q99 121 235 121q178 0 285.5 -166t107.5 -443q0 -271 -108 -434.5t-289 -163.5q-134 0 -231 119v-442zM594 348q44 0 68 60t24 161q0 110 -23.5 170t-68.5 60q-92 0 -96 -228q0 -99 26.5 -161t69.5 -62z" />
    <glyph glyph-name="ydieresis" unicode="&#xff;" horiz-adv-x="1116" 
d="M233 1516h285v-291h-285v291zM602 1516h285v-291h-285v291zM559 449l103 700h450l-311 -1149l-94 -350h-437l92 340l-43 -2l-315 1161h447l104 -700h4z" />
    <glyph glyph-name="Amacron" unicode="&#x100;" horiz-adv-x="1239" 
d="M281 1761h677v-231h-677v231zM1245 0h-465l-32 201h-263l-34 -201h-459l338 1434h581zM614 956l-79 -471h165l-75 471h-11z" />
    <glyph glyph-name="amacron" unicode="&#x101;" horiz-adv-x="1069" 
d="M182 1487h678v-232h-678v232zM496 1180q265 0 391.5 -136t126.5 -366v-678h-432v143q-38 -83 -105 -126.5t-145 -43.5q-147 0 -229.5 91.5t-82.5 275.5q0 167 96 255.5t285 88.5q99 0 181 -6v14q0 68 -35.5 102.5t-114.5 34.5q-125 0 -268 -47l-35 344q185 54 367 54z
M498 293q84 0 84 196v9q-32 4 -60 4q-40 0 -62 -27.5t-22 -77.5q0 -45 17 -74.5t43 -29.5z" />
    <glyph glyph-name="Abreve" unicode="&#x102;" horiz-adv-x="1239" 
d="M618 1505q-342 0 -342 305l281 7q0 -88 61 -88q62 0 62 88l281 -7q0 -153 -84.5 -229t-258.5 -76zM1245 0h-465l-32 201h-263l-34 -201h-459l338 1434h581zM614 956l-79 -471h165l-75 471h-11z" />
    <glyph glyph-name="abreve" unicode="&#x103;" horiz-adv-x="1069" 
d="M520 1231q-172 0 -257 75t-85 228l281 8q0 -90 61 -90q62 0 62 90l280 -8q0 -153 -84 -228t-258 -75zM496 1180q265 0 391.5 -136t126.5 -366v-678h-432v143q-38 -83 -105 -126.5t-145 -43.5q-147 0 -229.5 91.5t-82.5 275.5q0 167 96 255.5t285 88.5q99 0 181 -6v14
q0 68 -35.5 102.5t-114.5 34.5q-125 0 -268 -47l-35 344q185 54 367 54zM498 293q84 0 84 196v9q-32 4 -60 4q-40 0 -62 -27.5t-22 -77.5q0 -45 17 -74.5t43 -29.5z" />
    <glyph glyph-name="Aogonek" unicode="&#x104;" horiz-adv-x="1239" 
d="M1286 -174l21 -242q-173 -44 -285.5 -28t-167.5 70t-55 138q0 71 41.5 132t105.5 104h-166l-32 201h-263l-34 -201h-459l338 1434h581l334 -1434h2q-82 -70 -82 -125q0 -69 121 -49zM614 956l-79 -471h165l-75 471h-11z" />
    <glyph glyph-name="aogonek" unicode="&#x105;" horiz-adv-x="1069" 
d="M1053 -174l20 -242q-173 -44 -285.5 -28t-167.5 70t-55 138q0 71 42 132t106 104h-131v143q-38 -83 -105 -126.5t-145 -43.5q-147 0 -229.5 91.5t-82.5 275.5q0 167 96 255.5t285 88.5q99 0 181 -6v14q0 68 -35.5 102.5t-114.5 34.5q-125 0 -268 -47l-35 344
q185 54 367 54q265 0 391.5 -136t126.5 -366v-678q-82 -70 -82 -125q0 -69 121 -49zM498 293q84 0 84 196v9q-32 4 -60 4q-40 0 -62 -27.5t-22 -77.5q0 -45 17 -74.5t43 -29.5z" />
    <glyph glyph-name="Cacute" unicode="&#x106;" horiz-adv-x="1038" 
d="M1036 1735l-231 -230l-326 17l164 290zM674 -29q-295 0 -463 195t-168 549q0 353 165.5 550t463.5 197q162 0 332 -86l-109 -385q-101 56 -193 56q-194 0 -194 -330q0 -332 197 -332q96 0 190 57l113 -385q-67 -39 -158 -62.5t-176 -23.5z" />
    <glyph glyph-name="cacute" unicode="&#x107;" horiz-adv-x="851" 
d="M893 1526l-229 -295l-281 18l139 332zM571 -29q-251 0 -395.5 163t-144.5 441q0 276 146.5 440.5t391.5 164.5q146 0 277 -70l-103 -350q-74 43 -135 43q-62 0 -100.5 -59t-38.5 -166q0 -111 38 -170.5t101 -59.5q71 0 137 39l103 -348q-131 -68 -277 -68z" />
    <glyph glyph-name="Ccircumflex" unicode="&#x108;" horiz-adv-x="1038" 
d="M688 1511l-43 107l-43 -107l-307 17l151 270h398l153 -270zM895 442l113 -385q-67 -39 -158 -62.5t-176 -23.5q-295 0 -463 195t-168 549q0 353 165.5 550t463.5 197q162 0 332 -86l-109 -385q-101 56 -193 56q-194 0 -194 -330q0 -332 197 -332q96 0 190 57z" />
    <glyph glyph-name="ccircumflex" unicode="&#x109;" horiz-adv-x="851" 
d="M592 1231l-43 119l-41 -119l-305 18l149 301h393l150 -301zM608 348q71 0 137 39l103 -348q-131 -68 -277 -68q-251 0 -395.5 163t-144.5 441q0 276 146.5 440.5t391.5 164.5q146 0 277 -70l-103 -350q-74 43 -135 43q-62 0 -100.5 -59t-38.5 -166q0 -111 38 -170.5
t101 -59.5z" />
    <glyph glyph-name="Cdotaccent" unicode="&#x10a;" horiz-adv-x="1038" 
d="M868 1513h-448v283h448v-283zM674 -29q-295 0 -463 195t-168 549q0 353 165.5 550t463.5 197q162 0 332 -86l-109 -385q-101 56 -193 56q-194 0 -194 -330q0 -332 197 -332q96 0 190 57l113 -385q-67 -39 -158 -62.5t-176 -23.5z" />
    <glyph glyph-name="cdotaccent" unicode="&#x10b;" horiz-adv-x="851" 
d="M772 1231h-448v291h448v-291zM571 -29q-251 0 -395.5 163t-144.5 441q0 276 146.5 440.5t391.5 164.5q146 0 277 -70l-103 -350q-74 43 -135 43q-62 0 -100.5 -59t-38.5 -166q0 -111 38 -170.5t101 -59.5q71 0 137 39l103 -348q-131 -68 -277 -68z" />
    <glyph glyph-name="Ccaron" unicode="&#x10c;" horiz-adv-x="1038" 
d="M444 1526l-149 272l307 17l43 -107l43 107l307 -17l-153 -272h-398zM895 442l113 -385q-67 -39 -158 -62.5t-176 -23.5q-295 0 -463 195t-168 549q0 353 165.5 550t463.5 197q162 0 332 -86l-109 -385q-101 56 -193 56q-194 0 -194 -330q0 -332 197 -332q96 0 190 57z
" />
    <glyph glyph-name="ccaron" unicode="&#x10d;" horiz-adv-x="851" 
d="M352 1237l-149 289l305 18l41 -112l43 112l303 -18l-150 -289h-393zM608 348q71 0 137 39l103 -348q-131 -68 -277 -68q-251 0 -395.5 163t-144.5 441q0 276 146.5 440.5t391.5 164.5q146 0 277 -70l-103 -350q-74 43 -135 43q-62 0 -100.5 -59t-38.5 -166
q0 -111 38 -170.5t101 -59.5z" />
    <glyph glyph-name="Dcaron" unicode="&#x10e;" horiz-adv-x="1269" 
d="M330 1526l-150 272l307 17l43 -107l43 107l308 -17l-154 -272h-397zM72 1434h536q289 0 454 -191t165 -522q0 -335 -164.5 -528t-454.5 -193h-536v1434zM524 406h64q88 0 132 75.5t44 237.5q0 309 -176 309h-64v-622z" />
    <glyph glyph-name="dcaron" unicode="&#x10f;" horiz-adv-x="1159" 
d="M426 -27q-178 0 -285.5 165t-107.5 442q0 271 108 435.5t289 164.5q136 0 232 -121v452h434v-1511h-434v92q-100 -119 -236 -119zM1149 1114v397h223l-55 -397h-168zM565 352q50 0 73.5 63t23.5 158q0 101 -26.5 164.5t-70.5 63.5q-43 0 -66.5 -59.5t-23.5 -161.5
q0 -228 90 -228z" />
    <glyph glyph-name="Dcroat" unicode="&#x110;" horiz-adv-x="1269" 
d="M72 1434h536q289 0 454 -191t165 -522q0 -335 -164.5 -528t-454.5 -193h-536v637h-64v166h64v631zM524 406h64q88 0 132 75.5t44 237.5q0 309 -176 309h-64v-225h162v-166h-162v-231z" />
    <glyph glyph-name="dcroat" unicode="&#x111;" horiz-adv-x="1159" 
d="M1096 1397h80v-156h-80v-1241h-434v92q-100 -119 -236 -119q-178 0 -285.5 165t-107.5 442q0 271 108 435.5t289 164.5q136 0 232 -121v182h-154v154h154v116h434v-114zM565 352q50 0 73.5 63t23.5 158q0 101 -26.5 164.5t-70.5 63.5q-43 0 -66.5 -59.5t-23.5 -161.5
q0 -228 90 -228z" />
    <glyph glyph-name="Emacron" unicode="&#x112;" horiz-adv-x="1005" 
d="M180 1761h678v-231h-678v231zM520 541v-154h453v-387h-901v1434h889v-387h-441v-150h367v-356h-367z" />
    <glyph glyph-name="emacron" unicode="&#x113;" horiz-adv-x="1064" 
d="M201 1485h678v-232h-678v232zM999 469h-544q13 -81 53.5 -117.5t109.5 -36.5q123 0 248 58l70 -312q-75 -42 -172.5 -66t-194.5 -24q-242 0 -390 164t-148 443q0 272 141.5 436t392.5 164q222 0 345.5 -140.5t123.5 -373.5q0 -88 -35 -195zM451 666l176 2q-2 90 -22 133
t-64 43t-64.5 -43.5t-25.5 -134.5z" />
    <glyph glyph-name="Ebreve" unicode="&#x114;" horiz-adv-x="1005" 
d="M518 1505q-342 0 -342 305l281 7q0 -88 61 -88q62 0 62 88l280 -7q0 -153 -84 -229t-258 -76zM520 541v-154h453v-387h-901v1434h889v-387h-441v-150h367v-356h-367z" />
    <glyph glyph-name="ebreve" unicode="&#x115;" horiz-adv-x="1064" 
d="M539 1229q-172 0 -257 75t-85 228l280 8q0 -90 62 -90q61 0 61 90l281 -8q0 -153 -84 -228t-258 -75zM999 469h-544q13 -81 53.5 -117.5t109.5 -36.5q123 0 248 58l70 -312q-75 -42 -172.5 -66t-194.5 -24q-242 0 -390 164t-148 443q0 272 141.5 436t392.5 164
q222 0 345.5 -140.5t123.5 -373.5q0 -88 -35 -195zM451 666l176 2q-2 90 -22 133t-64 43t-64.5 -43.5t-25.5 -134.5z" />
    <glyph glyph-name="Edotaccent" unicode="&#x116;" horiz-adv-x="1005" 
d="M295 1796h448v-283h-448v283zM520 541v-154h453v-387h-901v1434h889v-387h-441v-150h367v-356h-367z" />
    <glyph glyph-name="edotaccent" unicode="&#x117;" horiz-adv-x="1064" 
d="M315 1522h449v-291h-449v291zM999 469h-544q13 -81 53.5 -117.5t109.5 -36.5q123 0 248 58l70 -312q-75 -42 -172.5 -66t-194.5 -24q-242 0 -390 164t-148 443q0 272 141.5 436t392.5 164q222 0 345.5 -140.5t123.5 -373.5q0 -88 -35 -195zM451 666l176 2q-2 90 -22 133
t-64 43t-64.5 -43.5t-25.5 -134.5z" />
    <glyph glyph-name="Eogonek" unicode="&#x118;" horiz-adv-x="1005" 
d="M1012 -174l20 -242q-173 -44 -285.5 -28t-167.5 70t-55 138q0 71 42 132t106 104h-600v1434h889v-387h-441v-150h367v-356h-367v-154h453v-387q-82 -70 -82 -125q0 -69 121 -49z" />
    <glyph glyph-name="eogonek" unicode="&#x119;" horiz-adv-x="1064" 
d="M999 469h-544q13 -81 53.5 -117.5t109.5 -36.5q123 0 248 58l70 -312h2q-82 -70 -82 -124q0 -70 121 -50l20 -241q-173 -44 -285.5 -28t-167.5 70t-55 138q0 76 52 145q-230 11 -370 174.5t-140 432.5q0 272 141.5 436t392.5 164q222 0 345.5 -140.5t123.5 -373.5
q0 -88 -35 -195zM451 666l176 2q-2 90 -22 133t-64 43t-64.5 -43.5t-25.5 -134.5z" />
    <glyph glyph-name="Ecaron" unicode="&#x11a;" horiz-adv-x="1005" 
d="M319 1526l-149 272l307 17l43 -107l43 107l307 -17l-153 -272h-398zM520 541v-154h453v-387h-901v1434h889v-387h-441v-150h367v-356h-367z" />
    <glyph glyph-name="ecaron" unicode="&#x11b;" horiz-adv-x="1064" 
d="M342 1237l-149 289l305 18l41 -112l43 112l303 -18l-150 -289h-393zM999 469h-544q13 -81 53.5 -117.5t109.5 -36.5q123 0 248 58l70 -312q-75 -42 -172.5 -66t-194.5 -24q-242 0 -390 164t-148 443q0 272 141.5 436t392.5 164q222 0 345.5 -140.5t123.5 -373.5
q0 -88 -35 -195zM451 666l176 2q-2 90 -22 133t-64 43t-64.5 -43.5t-25.5 -134.5z" />
    <glyph glyph-name="Gcircumflex" unicode="&#x11c;" horiz-adv-x="1187" 
d="M719 1511l-43 107l-43 -107l-307 17l151 270h397l154 -270zM674 500v319h461v-696q-221 -152 -480 -152q-288 0 -450 195t-162 549q0 351 175 549t464 198q180 0 362 -80l-104 -403q-122 72 -225 72q-219 0 -219 -338q0 -165 44.5 -256.5t125.5 -91.5q41 0 75 12v123h-67
z" />
    <glyph glyph-name="gcircumflex" unicode="&#x11d;" horiz-adv-x="1071" 
d="M571 1255l-43 119l-41 -119l-305 19l150 301h393l149 -301zM514 313l107 2q232 1 344 -78t112 -239q0 -182 -147.5 -279.5t-427.5 -97.5q-227 0 -338 71t-111 218q0 114 117 199q-115 49 -115 184q0 111 121 201q-125 107 -125 292q0 180 131 287t355 107q128 0 206 -37
l248 78l68 -260l-101 -11q62 -77 62 -164q0 -187 -124.5 -293t-356.5 -106q-30 0 -84 4q-15 -23 -15 -39q0 -39 74 -39zM537 895q-27 0 -42.5 -29.5t-15.5 -77.5q0 -120 58 -120q26 0 40.5 31.5t14.5 86.5q0 50 -14.5 79.5t-40.5 29.5zM541 -90q49 0 72.5 22t23.5 72
q0 74 -94 74h-58q-22 -37 -22 -76q0 -92 78 -92z" />
    <glyph glyph-name="Gbreve" unicode="&#x11e;" horiz-adv-x="1187" 
d="M674 1505q-342 0 -342 305l280 7q0 -88 62 -88q61 0 61 88l281 -7q0 -153 -84 -229t-258 -76zM674 500v319h461v-696q-221 -152 -480 -152q-288 0 -450 195t-162 549q0 351 175 549t464 198q180 0 362 -80l-104 -403q-122 72 -225 72q-219 0 -219 -338
q0 -165 44.5 -256.5t125.5 -91.5q41 0 75 12v123h-67z" />
    <glyph glyph-name="gbreve" unicode="&#x11f;" horiz-adv-x="1071" 
d="M528 1253q-172 0 -257 75t-85 228l281 9q0 -90 61 -90q62 0 62 90l280 -9q0 -153 -84 -228t-258 -75zM514 313l107 2q232 1 344 -78t112 -239q0 -182 -147.5 -279.5t-427.5 -97.5q-227 0 -338 71t-111 218q0 114 117 199q-115 49 -115 184q0 111 121 201
q-125 107 -125 292q0 180 131 287t355 107q128 0 206 -37l248 78l68 -260l-101 -11q62 -77 62 -164q0 -187 -124.5 -293t-356.5 -106q-30 0 -84 4q-15 -23 -15 -39q0 -39 74 -39zM537 895q-27 0 -42.5 -29.5t-15.5 -77.5q0 -120 58 -120q26 0 40.5 31.5t14.5 86.5
q0 50 -14.5 79.5t-40.5 29.5zM541 -90q49 0 72.5 22t23.5 72q0 74 -94 74h-58q-22 -37 -22 -76q0 -92 78 -92z" />
    <glyph glyph-name="Gdotaccent" unicode="&#x120;" horiz-adv-x="1187" 
d="M451 1796h448v-283h-448v283zM674 500v319h461v-696q-221 -152 -480 -152q-288 0 -450 195t-162 549q0 351 175 549t464 198q180 0 362 -80l-104 -403q-122 72 -225 72q-219 0 -219 -338q0 -165 44.5 -256.5t125.5 -91.5q41 0 75 12v123h-67z" />
    <glyph glyph-name="gdotaccent" unicode="&#x121;" horiz-adv-x="1071" 
d="M303 1546h449v-291h-449v291zM514 313l107 2q232 1 344 -78t112 -239q0 -182 -147.5 -279.5t-427.5 -97.5q-227 0 -338 71t-111 218q0 114 117 199q-115 49 -115 184q0 111 121 201q-125 107 -125 292q0 180 131 287t355 107q128 0 206 -37l248 78l68 -260l-101 -11
q62 -77 62 -164q0 -187 -124.5 -293t-356.5 -106q-30 0 -84 4q-15 -23 -15 -39q0 -39 74 -39zM537 895q-27 0 -42.5 -29.5t-15.5 -77.5q0 -120 58 -120q26 0 40.5 31.5t14.5 86.5q0 50 -14.5 79.5t-40.5 29.5zM541 -90q49 0 72.5 22t23.5 72q0 74 -94 74h-58
q-22 -37 -22 -76q0 -92 78 -92z" />
    <glyph glyph-name="uni0122" unicode="&#x122;" horiz-adv-x="1187" 
d="M674 500v319h461v-696q-221 -152 -480 -152q-288 0 -450 195t-162 549q0 351 175 549t464 198q180 0 362 -80l-104 -403q-122 72 -225 72q-219 0 -219 -338q0 -165 44.5 -256.5t125.5 -91.5q41 0 75 12v123h-67zM440 -283v205h316q95 -326 -234 -440l-61 119
q58 18 82 45.5t24 70.5h-127z" />
    <glyph glyph-name="uni0123" unicode="&#x123;" horiz-adv-x="1071" 
d="M696 1454v-205h-315q-96 327 233 441l62 -119q-58 -18 -82.5 -46t-24.5 -71h127zM514 313l107 2q232 1 344 -78t112 -239q0 -182 -147.5 -279.5t-427.5 -97.5q-227 0 -338 71t-111 218q0 114 117 199q-115 49 -115 184q0 111 121 201q-125 107 -125 292q0 180 131 287
t355 107q128 0 206 -37l248 78l68 -260l-101 -11q62 -77 62 -164q0 -187 -124.5 -293t-356.5 -106q-30 0 -84 4q-15 -23 -15 -39q0 -39 74 -39zM537 895q-27 0 -42.5 -29.5t-15.5 -77.5q0 -120 58 -120q26 0 40.5 31.5t14.5 86.5q0 50 -14.5 79.5t-40.5 29.5zM541 -90
q49 0 72.5 22t23.5 72q0 74 -94 74h-58q-22 -37 -22 -76q0 -92 78 -92z" />
    <glyph glyph-name="Hcircumflex" unicode="&#x124;" horiz-adv-x="1263" 
d="M676 1511l-43 107l-43 -107l-307 17l151 270h397l154 -270zM737 911v523h455v-1434h-455v512h-211v-512h-454v1434h454v-523h211z" />
    <glyph glyph-name="hcircumflex" unicode="&#x125;" horiz-adv-x="1130" 
d="M637 1561l-43 106l-43 -106l-307 16l151 270h398l153 -270zM772 1180q146 0 224.5 -106.5t78.5 -315.5v-758h-434v664q0 118 -66 118q-27 0 -47.5 -29t-29.5 -87v-666h-435v1511h435v-505q99 174 274 174z" />
    <glyph glyph-name="Hbar" unicode="&#x126;" horiz-adv-x="1263" 
d="M1192 1251h74v-184h-74v-1067h-455v512h-211v-512h-454v1067h-72v184h72v183h454v-183h211v183h455v-183zM526 911h211v156h-211v-156z" />
    <glyph glyph-name="hbar" unicode="&#x127;" horiz-adv-x="1130" 
d="M772 1180q146 0 224.5 -106.5t78.5 -315.5v-758h-434v664q0 118 -66 118q-27 0 -47.5 -29t-29.5 -87v-666h-435v1221h-98v153h98v137h435v-135h135v-155h-135v-215q99 174 274 174z" />
    <glyph glyph-name="Itilde" unicode="&#x128;" horiz-adv-x="595" 
d="M186 1509l-192 39q-2 124 44 194t132 70q50 0 113.5 -21.5t78.5 -21.5q46 0 46 60l190 -39q3 -125 -42.5 -195.5t-131.5 -70.5q-50 0 -115 21.5t-80 21.5q-19 0 -31 -15t-12 -43zM524 0h-452v1434h452v-1434z" />
    <glyph glyph-name="itilde" unicode="&#x129;" horiz-adv-x="557" 
d="M168 1225l-193 39q-2 124 44.5 195t132.5 71q50 0 113.5 -21.5t78.5 -21.5q45 0 45 57l191 -39q3 -125 -42.5 -195.5t-131.5 -70.5q-50 0 -115 21.5t-80 21.5q-43 0 -43 -57zM496 0h-435v1149h435v-1149z" />
    <glyph glyph-name="Imacron" unicode="&#x12a;" horiz-adv-x="595" 
d="M637 1530h-678v231h678v-231zM524 0h-452v1434h452v-1434z" />
    <glyph glyph-name="imacron" unicode="&#x12b;" horiz-adv-x="557" 
d="M618 1253h-677v232h677v-232zM496 0h-435v1149h435v-1149z" />
    <glyph glyph-name="Ibreve" unicode="&#x12c;" horiz-adv-x="595" 
d="M358 1817l281 -7q0 -153 -84 -229t-258 -76q-342 0 -342 305l281 7q0 -88 61 -88t61 88zM524 0h-452v1434h452v-1434z" />
    <glyph glyph-name="ibreve" unicode="&#x12d;" horiz-adv-x="557" 
d="M340 1540l281 -8q0 -153 -84 -228t-258 -75q-172 0 -257 75t-85 228l280 8q0 -90 62 -90q61 0 61 90zM496 0h-435v1149h435v-1149z" />
    <glyph glyph-name="Iogonek" unicode="&#x12e;" horiz-adv-x="595" 
d="M565 -174l21 -242q-173 -44 -285.5 -28t-167.5 70t-55 138q0 71 41.5 132t105.5 104h-153v1434h452v-1434h2q-82 -70 -82 -125q0 -69 121 -49z" />
    <glyph glyph-name="iogonek" unicode="&#x12f;" horiz-adv-x="557" 
d="M53 1522h449v-291h-449v291zM535 -174l20 -242q-173 -44 -285.5 -28t-167.5 70t-55 138q0 71 42 132t106 104h-134v1149h435v-1149q-82 -70 -82 -125q0 -69 121 -49z" />
    <glyph glyph-name="Idotaccent" unicode="&#x130;" horiz-adv-x="595" 
d="M522 1513h-448v283h448v-283zM524 0h-452v1434h452v-1434z" />
    <glyph glyph-name="dotlessi" unicode="&#x131;" horiz-adv-x="557" 
d="M496 0h-435v1149h435v-1149z" />
    <glyph glyph-name="IJ" unicode="&#x132;" horiz-adv-x="1431" 
d="M524 0h-452v1434h452v-1434zM868 -29q-135 0 -270 56l74 385q87 -33 141 -33q57 0 85 39.5t28 126.5v502h-129v387h575v-922q0 -265 -134.5 -403t-369.5 -138z" />
    <glyph glyph-name="ij" unicode="&#x133;" horiz-adv-x="1118" 
d="M502 1231h-449v291h449v-291zM1063 1231h-449v291h449v-291zM496 0h-435v1149h435v-1149zM494 -367l4 316q16 2 63 2q64 0 64 106v1092h434v-1077q0 -241 -111 -348t-325 -107q-74 0 -129 16z" />
    <glyph glyph-name="Jcircumflex" unicode="&#x134;" horiz-adv-x="835" 
d="M530 1511l-43 107l-43 -107l-307 17l152 270h397l154 -270zM330 1047h-129v387h575v-922q0 -265 -134.5 -403t-369.5 -138q-135 0 -270 56l74 385q87 -33 141 -33q57 0 85 39.5t28 126.5v502z" />
    <glyph glyph-name="jcircumflex" unicode="&#x135;" horiz-adv-x="561" 
d="M326 1231l-43 119l-41 -119l-305 18l149 301h393l150 -301zM68 57v1092h434v-1077q0 -241 -111 -348t-325 -107q-74 0 -129 16l4 316q16 2 63 2q64 0 64 106z" />
    <glyph glyph-name="uni0136" unicode="&#x136;" horiz-adv-x="1284" 
d="M786 2l-262 619v-621h-452l2 1434h452v-605l248 607h494l-336 -713l348 -721h-494zM479 -283v205h316q95 -326 -234 -440l-61 119q58 18 82 45.5t24 70.5h-127z" />
    <glyph glyph-name="uni0137" unicode="&#x137;" horiz-adv-x="1157" 
d="M682 1149h475l-287 -569l287 -580h-471l-188 444v-444h-435v1511h435v-796zM401 -283v205h316q95 -326 -234 -440l-61 119q58 18 82 45.5t24 70.5h-127z" />
    <glyph glyph-name="kgreenlandic" unicode="&#x138;" horiz-adv-x="1157" 
d="M682 1149h475l-287 -569l287 -580h-471l-188 444v-444h-435v1149h435v-434z" />
    <glyph glyph-name="Lacute" unicode="&#x139;" horiz-adv-x="921" 
d="M707 1735l-232 -230l-325 17l163 290zM893 0h-821v1434h456v-1039h365v-395z" />
    <glyph glyph-name="lacute" unicode="&#x13a;" horiz-adv-x="561" 
d="M688 1812l-231 -229l-326 16l164 291zM498 0h-435v1511h435v-1511z" />
    <glyph glyph-name="uni013B" unicode="&#x13b;" horiz-adv-x="921" 
d="M893 0h-821v1434h456v-1039h365v-395zM383 -518l-61 119q58 18 82 45.5t24 70.5h-127v205h315q19 -63 22 -118t-9.5 -98t-34.5 -78.5t-56 -62.5t-71.5 -47t-83.5 -36z" />
    <glyph glyph-name="uni013C" unicode="&#x13c;" horiz-adv-x="561" 
d="M498 0h-435v1511h435v-1511zM209 -518l-62 119q58 18 82.5 45.5t24.5 70.5h-127v205h315q19 -63 22 -118t-9.5 -98t-34.5 -78.5t-56 -62.5t-71.5 -47t-83.5 -36z" />
    <glyph glyph-name="Lcaron" unicode="&#x13d;" horiz-adv-x="921" 
d="M893 0h-821v1434h456v-1039h365v-395zM713 1036v398h311l-76 -398h-235z" />
    <glyph glyph-name="lcaron" unicode="&#x13e;" horiz-adv-x="561" 
d="M498 0h-435v1511h435v-1511zM565 1114v397h211l-51 -397h-160z" />
    <glyph glyph-name="Ldot" unicode="&#x13f;" horiz-adv-x="1210" 
d="M893 0h-821v1434h456v-1039h365v-395zM930 360v234h258v-234h-258z" />
    <glyph glyph-name="ldot" unicode="&#x140;" horiz-adv-x="854" 
d="M498 0h-435v1511h435v-1511zM584 348v225h247v-225h-247z" />
    <glyph glyph-name="Lslash" unicode="&#x141;" horiz-adv-x="921" 
d="M528 748v-353h365v-395h-821v545l-64 -29l-67 141l131 58v719h456v-516l56 24l67 -139z" />
    <glyph glyph-name="lslash" unicode="&#x142;" horiz-adv-x="561" 
d="M578 969l67 -140l-147 -65v-764h-435v569l-61 -26l-68 141l129 57v770h435v-577z" />
    <glyph glyph-name="Nacute" unicode="&#x143;" horiz-adv-x="1261" 
d="M1022 1735l-231 -230l-326 17l164 290zM512 0h-440v1434h417l259 -584v584h442v-1434h-408l-270 604v-604z" />
    <glyph glyph-name="nacute" unicode="&#x144;" 
d="M543 1581l370 -55l-229 -295l-281 18zM768 1180q146 0 224.5 -106.5t78.5 -315.5v-758h-434v664q0 118 -66 118q-48 0 -77 -71v-711h-433v1149h433v-143q99 174 274 174z" />
    <glyph glyph-name="uni0145" unicode="&#x145;" horiz-adv-x="1261" 
d="M512 0h-440v1434h417l259 -584v584h442v-1434h-408l-270 604v-604zM543 -518l-62 119q58 18 82.5 45.5t24.5 70.5h-127v205h315q19 -63 22 -118t-9.5 -98t-34.5 -78.5t-56 -62.5t-71.5 -47t-83.5 -36z" />
    <glyph glyph-name="uni0146" unicode="&#x146;" 
d="M768 1180q146 0 224.5 -106.5t78.5 -315.5v-758h-434v664q0 118 -66 118q-48 0 -77 -71v-711h-433v1149h433v-143q99 174 274 174zM399 -283v205h316q95 -326 -234 -440l-61 119q58 18 82 45.5t24 70.5h-127z" />
    <glyph glyph-name="Ncaron" unicode="&#x147;" horiz-adv-x="1261" 
d="M432 1526l-149 272l307 17l43 -107l43 107l307 -17l-154 -272h-397zM748 850v584h442v-1434h-408l-270 604v-604h-440v1434h417z" />
    <glyph glyph-name="ncaron" unicode="&#x148;" 
d="M371 1237l-150 289l305 18l41 -112l43 112l303 -18l-149 -289h-393zM768 1180q146 0 224.5 -106.5t78.5 -315.5v-758h-434v664q0 118 -66 118q-48 0 -77 -71v-711h-433v1149h433v-143q99 174 274 174z" />
    <glyph glyph-name="Eng" unicode="&#x14a;" horiz-adv-x="1261" 
d="M748 850v584h442v-1434q0 -84 -24.5 -153.5t-74.5 -124t-133.5 -85t-193.5 -30.5q-84 0 -180 28l26 353q42 -11 64 -11q65 0 65 76v43l-227 508v-604h-440v1434h417z" />
    <glyph glyph-name="eng" unicode="&#x14b;" horiz-adv-x="1118" 
d="M768 1180q146 0 224.5 -106.5t78.5 -315.5v-758q0 -83 -23.5 -152.5t-72 -124t-129 -85.5t-187.5 -31q-78 0 -174 28l27 353q37 -11 59 -11q30 0 48 20t18 56v611q0 118 -66 118q-48 0 -77 -71v-711h-433v1149h433v-143q99 174 274 174z" />
    <glyph glyph-name="Omacron" unicode="&#x14c;" horiz-adv-x="1284" 
d="M981 1530h-678v231h678v-231zM641 -29q-270 0 -434 198.5t-164 545.5q0 222 70.5 390.5t207 262.5t320.5 94q271 0 434.5 -198t163.5 -545q0 -222 -70.5 -390.5t-207 -263t-320.5 -94.5zM641 387q64 0 100.5 83.5t36.5 244.5q0 162 -35.5 247t-101.5 85q-64 0 -100.5 -84
t-36.5 -246q0 -156 35.5 -243t101.5 -87z" />
    <glyph glyph-name="omacron" unicode="&#x14d;" 
d="M903 1253h-678v232h678v-232zM561 -29q-240 0 -385 162t-145 445q0 271 143 436.5t389 165.5q241 0 387 -160t146 -440q0 -275 -143.5 -442t-391.5 -167zM563 354q90 0 90 224q0 221 -92 221q-90 0 -90 -219q0 -226 92 -226z" />
    <glyph glyph-name="Obreve" unicode="&#x14e;" horiz-adv-x="1284" 
d="M639 1505q-342 0 -342 305l281 7q0 -88 61 -88t61 88l281 -7q0 -153 -84 -229t-258 -76zM641 1462q271 0 434.5 -198t163.5 -545q0 -222 -70.5 -390.5t-207 -263t-320.5 -94.5q-270 0 -434 198.5t-164 545.5q0 222 70.5 390.5t207 262.5t320.5 94zM641 387
q64 0 100.5 83.5t36.5 244.5q0 162 -35.5 247t-101.5 85q-64 0 -100.5 -84t-36.5 -246q0 -156 35.5 -243t101.5 -87z" />
    <glyph glyph-name="obreve" unicode="&#x14f;" 
d="M563 1229q-172 0 -257 75t-85 228l281 8q0 -90 61 -90q62 0 62 90l280 -8q0 -153 -84 -228t-258 -75zM563 1180q241 0 387 -160t146 -440q0 -275 -143.5 -442t-391.5 -167q-240 0 -385 162t-145 445q0 271 143 436.5t389 165.5zM563 354q90 0 90 224q0 221 -92 221
q-90 0 -90 -219q0 -226 92 -226z" />
    <glyph glyph-name="Ohungarumlaut" unicode="&#x150;" horiz-adv-x="1284" 
d="M754 1749l-183 -229l-309 18l109 291zM1204 1749l-182 -229l-309 18l108 291zM641 -29q-270 0 -434 198.5t-164 545.5q0 222 70.5 390.5t207 262.5t320.5 94q271 0 434.5 -198t163.5 -545q0 -222 -70.5 -390.5t-207 -263t-320.5 -94.5zM641 387q64 0 100.5 83.5
t36.5 244.5q0 162 -35.5 247t-101.5 85q-64 0 -100.5 -84t-36.5 -246q0 -156 35.5 -243t101.5 -87z" />
    <glyph glyph-name="ohungarumlaut" unicode="&#x151;" 
d="M676 1526l-172 -295l-266 18l79 332zM1067 1526l-170 -295l-266 18l78 332zM561 -29q-240 0 -385 162t-145 445q0 271 143 436.5t389 165.5q241 0 387 -160t146 -440q0 -275 -143.5 -442t-391.5 -167zM563 354q90 0 90 224q0 221 -92 221q-90 0 -90 -219q0 -226 92 -226z
" />
    <glyph glyph-name="OE" unicode="&#x152;" horiz-adv-x="1771" 
d="M1286 387h453v-387h-871q-102 -29 -194 -29q-295 0 -463 195t-168 549q0 353 165.5 550t463.5 197q92 0 190 -28h864v-387h-440v-150h367v-356h-367v-154zM508 717q0 -332 197 -332q64 0 133 29v606q-67 27 -136 27q-194 0 -194 -330z" />
    <glyph glyph-name="oe" unicode="&#x153;" horiz-adv-x="1716" 
d="M1651 469h-545q13 -81 54 -117.5t110 -36.5q123 0 248 58l69 -312q-75 -43 -172 -66.5t-194 -23.5q-195 0 -330 107q-135 -107 -330 -107q-240 0 -385 162t-145 445q0 271 143 436.5t389 165.5q192 0 328 -105q131 103 326 103q222 0 345.5 -140.5t123.5 -373.5
q0 -88 -35 -195zM1102 666l176 2q-2 90 -22 133t-64 43t-64.5 -43.5t-25.5 -134.5zM563 354q90 0 90 224q0 221 -92 221q-90 0 -90 -219q0 -226 92 -226z" />
    <glyph glyph-name="Racute" unicode="&#x154;" horiz-adv-x="1171" 
d="M592 1812l393 -77l-231 -230l-326 17zM1171 0h-471l-147 387h-29v-387h-452v1434h522q254 0 402.5 -137t148.5 -384q0 -141 -49.5 -249.5t-143.5 -176.5zM584 1055h-60v-299h60q52 0 83 39.5t31 111.5q0 67 -30.5 107.5t-83.5 40.5z" />
    <glyph glyph-name="racute" unicode="&#x155;" horiz-adv-x="772" 
d="M348 1581l371 -55l-230 -295l-280 18zM688 1174q29 0 80 -15l-31 -414q-61 11 -110 11q-62 0 -96.5 -68t-34.5 -196v-492h-435v1149h435v-109q73 134 192 134z" />
    <glyph glyph-name="uni0156" unicode="&#x156;" horiz-adv-x="1171" 
d="M553 387h-29v-387h-452v1434h522q254 0 402.5 -137t148.5 -384q0 -141 -49.5 -249.5t-143.5 -176.5l219 -487h-471zM584 1055h-60v-299h60q52 0 83 39.5t31 111.5q0 67 -30.5 107.5t-83.5 40.5zM434 -283v205h316q95 -326 -234 -440l-61 119q58 18 82 45.5t24 70.5h-127z
" />
    <glyph glyph-name="uni0157" unicode="&#x157;" horiz-adv-x="772" 
d="M688 1174q29 0 80 -15l-31 -414q-61 11 -110 11q-62 0 -96.5 -68t-34.5 -196v-492h-435v1149h435v-109q73 134 192 134zM113 -283v205h315q19 -63 22 -118t-9.5 -98t-34.5 -78.5t-56 -62.5t-71.5 -47t-83.5 -36l-62 119q58 18 82.5 45.5t24.5 70.5h-127z" />
    <glyph glyph-name="Rcaron" unicode="&#x158;" horiz-adv-x="1171" 
d="M393 1526l-149 272l307 17l43 -107l43 107l307 -17l-153 -272h-398zM1171 0h-471l-147 387h-29v-387h-452v1434h522q254 0 402.5 -137t148.5 -384q0 -141 -49.5 -249.5t-143.5 -176.5zM584 1055h-60v-299h60q52 0 83 39.5t31 111.5q0 67 -30.5 107.5t-83.5 40.5z" />
    <glyph glyph-name="rcaron" unicode="&#x159;" horiz-adv-x="772" 
d="M178 1237l-149 289l305 18l41 -112l43 112l303 -18l-150 -289h-393zM688 1174q29 0 80 -15l-31 -414q-61 11 -110 11q-62 0 -96.5 -68t-34.5 -196v-492h-435v1149h435v-109q73 134 192 134z" />
    <glyph glyph-name="Sacute" unicode="&#x15a;" horiz-adv-x="976" 
d="M922 1735l-232 -230l-325 17l163 290zM446 -31q-228 0 -421 78l45 369q60 -27 147 -46.5t152 -19.5q114 0 114 76q0 29 -30.5 60t-92.5 73q-329 168 -329 442q0 213 138.5 337t369.5 124q98 0 201.5 -16.5t172.5 -46.5l-43 -379q-137 57 -258 57q-100 0 -100 -78
q0 -65 125 -145q330 -161 330 -448q0 -203 -143.5 -320t-377.5 -117z" />
    <glyph glyph-name="sacute" unicode="&#x15b;" horiz-adv-x="849" 
d="M788 1526l-229 -295l-280 18l139 332zM393 -29q-112 0 -191 13.5t-175 46.5l47 346q61 -30 137 -48t141 -18q54 0 54 45q0 19 -24 36.5t-85 47.5q-138 55 -204 136t-66 231q0 120 61.5 206.5t157 126.5t211.5 40q165 0 321 -58l-47 -342q-141 56 -235 56q-60 0 -60 -48
q0 -42 101 -81q68 -27 116.5 -56.5t90 -72.5t62.5 -102.5t21 -135.5q0 -168 -121.5 -268.5t-312.5 -100.5z" />
    <glyph glyph-name="Scircumflex" unicode="&#x15c;" horiz-adv-x="976" 
d="M573 1511l-43 107l-43 -107l-307 17l152 270h397l154 -270zM637 854q330 -161 330 -448q0 -203 -143.5 -320t-377.5 -117q-228 0 -421 78l45 369q60 -27 147 -46.5t152 -19.5q114 0 114 76q0 29 -30.5 60t-92.5 73q-329 168 -329 442q0 213 138.5 337t369.5 124
q98 0 201.5 -16.5t172.5 -46.5l-43 -379q-137 57 -258 57q-100 0 -100 -78q0 -65 125 -145z" />
    <glyph glyph-name="scircumflex" unicode="&#x15d;" horiz-adv-x="849" 
d="M487 1231l-43 119l-41 -119l-305 18l150 301h393l150 -301zM537 707q68 -27 116.5 -56.5t90 -72.5t62.5 -102.5t21 -135.5q0 -168 -121.5 -268.5t-312.5 -100.5q-112 0 -191 13.5t-175 46.5l47 346q61 -30 137 -48t141 -18q54 0 54 45q0 19 -24 36.5t-85 47.5
q-138 55 -204 136t-66 231q0 120 61.5 206.5t157 126.5t211.5 40q165 0 321 -58l-47 -342q-141 56 -235 56q-60 0 -60 -48q0 -42 101 -81z" />
    <glyph glyph-name="Scedilla" unicode="&#x15e;" horiz-adv-x="976" 
d="M967 406q0 -177 -111.5 -290.5t-300.5 -138.5l-8 -30q78 -6 127 -47t49 -103q0 -85 -81.5 -129.5t-217.5 -44.5q-96 0 -158 12l33 152q40 -8 72 -8q63 0 63 37q0 50 -108 24l34 131q-170 11 -335 76l45 369q60 -27 147 -46.5t152 -19.5q114 0 114 76q0 29 -30.5 60
t-92.5 73q-329 168 -329 442q0 213 138.5 337t369.5 124q98 0 201.5 -16.5t172.5 -46.5l-43 -379q-137 57 -258 57q-100 0 -100 -78q0 -65 125 -145q330 -161 330 -448z" />
    <glyph glyph-name="scedilla" unicode="&#x15f;" horiz-adv-x="849" 
d="M827 340q0 -138 -85 -232t-228 -124l-10 -37q78 -6 127 -47t49 -103q0 -85 -81.5 -129.5t-217.5 -44.5q-97 0 -158 12l33 152q40 -8 72 -8q63 0 63 37q0 50 -108 24l34 133q-138 5 -290 58l47 346q61 -30 137 -48t141 -18q54 0 54 45q0 19 -24 36.5t-85 47.5
q-138 55 -204 136t-66 231q0 120 61.5 206.5t157 126.5t211.5 40q165 0 321 -58l-47 -342q-141 56 -235 56q-60 0 -60 -48q0 -42 101 -81q68 -27 116.5 -56.5t90 -72.5t62.5 -102.5t21 -135.5z" />
    <glyph glyph-name="Scaron" unicode="&#x160;" horiz-adv-x="976" 
d="M330 1526l-150 272l307 17l43 -107l43 107l308 -17l-154 -272h-397zM637 854q330 -161 330 -448q0 -203 -143.5 -320t-377.5 -117q-228 0 -421 78l45 369q60 -27 147 -46.5t152 -19.5q114 0 114 76q0 29 -30.5 60t-92.5 73q-329 168 -329 442q0 213 138.5 337t369.5 124
q98 0 201.5 -16.5t172.5 -46.5l-43 -379q-137 57 -258 57q-100 0 -100 -78q0 -65 125 -145z" />
    <glyph glyph-name="scaron" unicode="&#x161;" horiz-adv-x="849" 
d="M248 1237l-150 289l305 18l41 -112l43 112l304 -18l-150 -289h-393zM537 707q68 -27 116.5 -56.5t90 -72.5t62.5 -102.5t21 -135.5q0 -168 -121.5 -268.5t-312.5 -100.5q-112 0 -191 13.5t-175 46.5l47 346q61 -30 137 -48t141 -18q54 0 54 45q0 19 -24 36.5t-85 47.5
q-138 55 -204 136t-66 231q0 120 61.5 206.5t157 126.5t211.5 40q165 0 321 -58l-47 -342q-141 56 -235 56q-60 0 -60 -48q0 -42 101 -81z" />
    <glyph glyph-name="uni0162" unicode="&#x162;" horiz-adv-x="1009" 
d="M731 1028v-1028h-147l-17 -53q78 -6 127 -47t49 -103q0 -85 -81.5 -129.5t-217.5 -44.5q-96 0 -157 12l32 152q40 -8 72 -8q64 0 64 37q0 50 -109 24l43 160h-110v1028h-259v406h971v-406h-260z" />
    <glyph glyph-name="uni0163" unicode="&#x163;" horiz-adv-x="811" 
d="M471 -29l-8 -26q78 -6 127 -47t49 -103q0 -85 -81.5 -129.5t-217.5 -44.5q-96 0 -158 12l33 152q40 -8 72 -8q63 0 63 37q0 50 -108 24l47 176h6q-189 97 -189 385v404h-88v170l148 186l199 254h174v-264h237v-346h-237v-373q0 -80 69 -80q44 0 117 25l61 -348
q-151 -56 -282 -56h-33z" />
    <glyph glyph-name="Tcaron" unicode="&#x164;" horiz-adv-x="1009" 
d="M307 1526l-149 272l307 17l43 -107l43 107l307 -17l-153 -272h-398zM20 1434h971v-406h-260v-1028h-452v1028h-259v406z" />
    <glyph glyph-name="tcaron" unicode="&#x165;" horiz-adv-x="811" 
d="M610 1212v398h312l-76 -398h-236zM504 -29q-195 0 -296.5 109t-101.5 319v404h-88v170l148 186l199 254h174v-264h237v-346h-237v-373q0 -80 69 -80q44 0 117 25l61 -348q-151 -56 -282 -56z" />
    <glyph glyph-name="Tbar" unicode="&#x166;" horiz-adv-x="1009" 
d="M991 1434v-406h-260v-225h117v-166h-117v-637h-452v637h-109v166h109v225h-259v406h971z" />
    <glyph glyph-name="tbar" unicode="&#x167;" horiz-adv-x="811" 
d="M725 375l61 -348q-151 -56 -282 -56q-195 0 -296.5 109t-101.5 319v121h-94v154h94v129h-88v170l148 186l199 254h174v-264h237v-346h-237v-127h141v-156h-141v-90q0 -80 69 -80q44 0 117 25z" />
    <glyph glyph-name="Utilde" unicode="&#x168;" horiz-adv-x="1208" 
d="M496 1509l-193 39q-2 124 44 194t132 70q50 0 114 -21.5t79 -21.5q45 0 45 60l190 -39q3 -125 -42.5 -195.5t-131.5 -70.5q-50 0 -114.5 21.5t-79.5 21.5q-19 0 -31 -15t-12 -43zM604 -29q-250 0 -397.5 138.5t-147.5 373.5v951h455v-953q0 -123 92 -123q90 0 90 123v953
h453v-951q0 -235 -147 -373.5t-398 -138.5z" />
    <glyph glyph-name="utilde" unicode="&#x169;" 
d="M446 1225l-192 39q-2 124 44.5 195t131.5 71q50 0 114 -21.5t79 -21.5q45 0 45 57l190 -39q3 -125 -42.5 -195.5t-131.5 -70.5q-50 0 -115 21.5t-80 21.5q-43 0 -43 -57zM633 438v711h432v-1149h-432v143q-99 -174 -275 -174q-146 0 -224.5 106.5t-78.5 315.5v758h434
v-664q0 -118 66 -118q49 0 78 71z" />
    <glyph glyph-name="Umacron" unicode="&#x16a;" horiz-adv-x="1208" 
d="M946 1530h-678v231h678v-231zM604 -29q-250 0 -397.5 138.5t-147.5 373.5v951h455v-953q0 -123 92 -123q90 0 90 123v953h453v-951q0 -235 -147 -373.5t-398 -138.5z" />
    <glyph glyph-name="umacron" unicode="&#x16b;" 
d="M219 1485h678v-232h-678v232zM633 438v711h432v-1149h-432v143q-99 -174 -275 -174q-146 0 -224.5 106.5t-78.5 315.5v758h434v-664q0 -118 66 -118q49 0 78 71z" />
    <glyph glyph-name="Ubreve" unicode="&#x16c;" horiz-adv-x="1208" 
d="M604 1505q-342 0 -342 305l281 7q0 -88 61 -88q62 0 62 88l280 -7q0 -153 -84 -229t-258 -76zM696 481v953h453v-951q0 -235 -147 -373.5t-398 -138.5q-250 0 -397.5 138.5t-147.5 373.5v951h455v-953q0 -123 92 -123q90 0 90 123z" />
    <glyph glyph-name="ubreve" unicode="&#x16d;" 
d="M557 1229q-172 0 -257 75t-85 228l281 8q0 -90 61 -90t61 90l281 -8q0 -153 -84 -228t-258 -75zM633 438v711h432v-1149h-432v143q-99 -174 -275 -174q-146 0 -224.5 106.5t-78.5 315.5v758h434v-664q0 -118 66 -118q49 0 78 71z" />
    <glyph glyph-name="Uring" unicode="&#x16e;" horiz-adv-x="1208" 
d="M606 1477q-111 0 -184.5 68.5t-73.5 172.5q0 103 74 171.5t184 68.5t184 -68.5t74 -171.5q0 -104 -73.5 -172.5t-184.5 -68.5zM606 1649q28 0 47 19.5t19 49.5q0 29 -19 49.5t-47 20.5q-27 0 -45 -20t-18 -50q0 -31 17.5 -50t45.5 -19zM604 -29q-250 0 -397.5 138.5
t-147.5 373.5v951h455v-953q0 -123 92 -123q90 0 90 123v953h453v-951q0 -235 -147 -373.5t-398 -138.5z" />
    <glyph glyph-name="uring" unicode="&#x16f;" 
d="M557 1212q-110 0 -184 68.5t-74 171.5q0 104 74 173t184 69t184 -69t74 -173q0 -103 -74 -171.5t-184 -68.5zM557 1524q-27 0 -45 -21t-18 -51q0 -29 17.5 -48.5t45.5 -19.5t47 19.5t19 48.5t-19 50.5t-47 21.5zM633 438v711h432v-1149h-432v143q-99 -174 -275 -174
q-146 0 -224.5 106.5t-78.5 315.5v758h434v-664q0 -118 66 -118q49 0 78 71z" />
    <glyph glyph-name="Uhungarumlaut" unicode="&#x170;" horiz-adv-x="1208" 
d="M719 1749l-182 -229l-310 18l109 291zM1169 1749l-182 -229l-309 18l108 291zM604 -29q-250 0 -397.5 138.5t-147.5 373.5v951h455v-953q0 -123 92 -123q90 0 90 123v953h453v-951q0 -235 -147 -373.5t-398 -138.5z" />
    <glyph glyph-name="uhungarumlaut" unicode="&#x171;" 
d="M311 1581l359 -55l-172 -295l-267 18zM1061 1526l-170 -295l-266 18l77 332zM633 438v711h432v-1149h-432v143q-99 -174 -275 -174q-146 0 -224.5 106.5t-78.5 315.5v758h434v-664q0 -118 66 -118q49 0 78 71z" />
    <glyph glyph-name="Uogonek" unicode="&#x172;" horiz-adv-x="1208" 
d="M956 72q-59 -56 -59 -105q0 -69 121 -49l20 -242q-173 -44 -285.5 -28t-167.5 70.5t-55 138.5q0 56 31 116q-232 10 -367 148t-135 362v951h455v-953q0 -123 92 -123q90 0 90 123v953h453v-951q0 -134 -50 -239t-143 -172z" />
    <glyph glyph-name="uogonek" unicode="&#x173;" 
d="M1104 -174l20 -242q-173 -44 -285.5 -28t-167.5 70t-55 138q0 71 42 132t106 104h-131v143q-99 -174 -275 -174q-146 0 -224.5 106.5t-78.5 315.5v758h434v-664q0 -118 66 -118q49 0 78 71v711h432v-1149q-82 -70 -82 -125q0 -69 121 -49z" />
    <glyph glyph-name="Wcircumflex" unicode="&#x174;" horiz-adv-x="1751" 
d="M920 1511l-43 107l-43 -107l-308 17l152 270h397l154 -270zM1159 543l131 891h463l-301 -1434h-467l-108 602l-109 -602h-469l-301 1434h463l133 -891l111 891h344z" />
    <glyph glyph-name="wcircumflex" unicode="&#x175;" horiz-adv-x="1550" 
d="M821 1231l-43 119l-41 -119l-305 18l150 301h393l149 -301zM1010 479l86 670h446l-266 -1149h-418l-82 532l-84 -532h-418l-266 1149h449l86 -670l90 670h287z" />
    <glyph glyph-name="Ycircumflex" unicode="&#x176;" horiz-adv-x="1157" 
d="M623 1511l-43 107l-43 -107l-308 17l152 270h397l154 -270zM692 1434h475l-362 -977v-457h-453v457l-364 977h477l117 -555z" />
    <glyph glyph-name="ycircumflex" unicode="&#x177;" horiz-adv-x="1116" 
d="M602 1225l-43 118l-41 -118l-305 18l149 301h394l149 -301zM559 449l103 700h450l-311 -1149l-94 -350h-437l92 340l-43 -2l-315 1161h447l104 -700h4z" />
    <glyph glyph-name="Ydieresis" unicode="&#x178;" horiz-adv-x="1157" 
d="M260 1794h289v-281h-289v281zM612 1794h289v-281h-289v281zM692 1434h475l-362 -977v-457h-453v457l-364 977h477l117 -555z" />
    <glyph glyph-name="Zacute" unicode="&#x179;" horiz-adv-x="1007" 
d="M895 1735l-231 -230l-326 17l164 290zM973 0h-938v301l371 727h-357v406h912v-299l-371 -729h383v-406z" />
    <glyph glyph-name="zacute" unicode="&#x17a;" horiz-adv-x="937" 
d="M817 1526l-229 -295l-281 18l139 332zM903 0h-866v276l317 512h-305v361h844v-275l-315 -509h325v-365z" />
    <glyph glyph-name="Zdotaccent" unicode="&#x17b;" horiz-adv-x="1007" 
d="M729 1513h-448v283h448v-283zM973 0h-938v301l371 727h-357v406h912v-299l-371 -729h383v-406z" />
    <glyph glyph-name="zdotaccent" unicode="&#x17c;" horiz-adv-x="937" 
d="M696 1231h-448v291h448v-291zM903 0h-866v276l317 512h-305v361h844v-275l-315 -509h325v-365z" />
    <glyph glyph-name="Zcaron" unicode="&#x17d;" horiz-adv-x="1007" 
d="M305 1526l-149 272l307 17l43 -107l43 107l307 -17l-154 -272h-397zM961 1135l-371 -729h383v-406h-938v301l371 727h-357v406h912v-299z" />
    <glyph glyph-name="zcaron" unicode="&#x17e;" horiz-adv-x="937" 
d="M276 1237l-149 289l305 18l41 -112l43 112l303 -18l-149 -289h-394zM893 874l-315 -509h325v-365h-866v276l317 512h-305v361h844v-275z" />
    <glyph glyph-name="uni018F" unicode="&#x18f;" horiz-adv-x="1261" 
d="M582 1462q290 0 463.5 -202.5t173.5 -546.5q0 -338 -164.5 -541t-448.5 -203q-257 0 -410 185t-153 495q0 66 25 187h688q-28 237 -201 237q-140 0 -266 -92l-162 336q86 68 203 106.5t252 38.5zM614 344q117 0 140 250h-258q10 -250 118 -250z" />
    <glyph glyph-name="florin" unicode="&#x192;" horiz-adv-x="1153" 
d="M928 1249q-37 0 -59.5 -24.5t-34.5 -79.5h161v-346h-202l-37 -342q-31 -238 -147 -362t-304 -124q-156 0 -274 54l102 346q7 -2 21 -7t19 -6.5t15.5 -4.5t17.5 -4t17.5 -2t22.5 -1q60 0 82 152l32 301h-143v346h182q36 240 144 357.5t305 117.5q166 0 274 -53l-102 -342
q-63 24 -92 24z" />
    <glyph glyph-name="uni019D" unicode="&#x19d;" horiz-adv-x="1261" 
d="M748 850v584h442v-1434h-408l-270 602q16 -107 16 -371v-217q0 -84 -25 -153.5t-75.5 -124t-135 -85t-196.5 -30.5q-78 0 -182 29l29 352q38 -10 63 -10q57 0 66 53v1389h417z" />
    <glyph glyph-name="Ohorn" unicode="&#x1a0;" horiz-adv-x="1284" 
d="M893 1608l358 20q35 -108 24.5 -193.5t-52 -142t-107.5 -82.5q123 -197 123 -491q0 -222 -70.5 -390.5t-207 -263t-320.5 -94.5q-270 0 -434 198.5t-164 545.5q0 222 70.5 390.5t207 262.5t320.5 94q120 0 215 -39q39 6 46 48t-9 137zM641 387q64 0 100.5 83.5
t36.5 244.5q0 162 -35.5 247t-101.5 85q-64 0 -100.5 -84t-36.5 -246q0 -156 35.5 -243t101.5 -87z" />
    <glyph glyph-name="ohorn" unicode="&#x1a1;" 
d="M805 1327l358 21q36 -111 24.5 -198t-56 -143.5t-113.5 -80.5q78 -150 78 -346q0 -275 -143.5 -442t-391.5 -167q-240 0 -385 162t-145 445q0 271 143 436.5t389 165.5q112 0 205 -35q39 4 46 45.5t-9 136.5zM563 354q90 0 90 224q0 221 -92 221q-90 0 -90 -219
q0 -226 92 -226z" />
    <glyph glyph-name="Uhorn" unicode="&#x1af;" horiz-adv-x="1208" 
d="M874 1618l359 20q30 -92 26 -168.5t-32.5 -132t-77.5 -90.5v-764q0 -235 -147 -373.5t-398 -138.5q-250 0 -397.5 138.5t-147.5 373.5v951h455v-953q0 -123 92 -123q90 0 90 123v953h125q50 0 60.5 40t-7.5 144z" />
    <glyph glyph-name="uhorn" unicode="&#x1b0;" 
d="M854 1335l358 21q36 -111 24.5 -198t-56.5 -144t-115 -82v-932h-432v143q-99 -174 -275 -174q-146 0 -224.5 106.5t-78.5 315.5v758h434v-664q0 -118 66 -118q49 0 78 71v711h168v2q50 0 60.5 40t-7.5 144z" />
    <glyph glyph-name="uni01CD" unicode="&#x1cd;" horiz-adv-x="1239" 
d="M420 1526l-150 272l308 17l43 -107l43 107l307 -17l-154 -272h-397zM1245 0h-465l-32 201h-263l-34 -201h-459l338 1434h581zM614 956l-79 -471h165l-75 471h-11z" />
    <glyph glyph-name="uni01CE" unicode="&#x1ce;" horiz-adv-x="1069" 
d="M324 1239l-150 289l305 18l41 -112l43 112l303 -18l-149 -289h-393zM496 1180q265 0 391.5 -136t126.5 -366v-678h-432v143q-38 -83 -105 -126.5t-145 -43.5q-147 0 -229.5 91.5t-82.5 275.5q0 167 96 255.5t285 88.5q99 0 181 -6v14q0 68 -35.5 102.5t-114.5 34.5
q-125 0 -268 -47l-35 344q185 54 367 54zM498 293q84 0 84 196v9q-32 4 -60 4q-40 0 -62 -27.5t-22 -77.5q0 -45 17 -74.5t43 -29.5z" />
    <glyph glyph-name="uni01CF" unicode="&#x1cf;" horiz-adv-x="595" 
d="M98 1526l-149 272l307 17l43 -107l43 107l307 -17l-153 -272h-398zM524 0h-452v1434h452v-1434z" />
    <glyph glyph-name="uni01D0" unicode="&#x1d0;" horiz-adv-x="557" 
d="M82 1237l-150 289l306 18l41 -112l43 112l303 -18l-150 -289h-393zM496 0h-435v1149h435v-1149z" />
    <glyph glyph-name="uni01D1" unicode="&#x1d1;" horiz-adv-x="1284" 
d="M442 1526l-149 272l307 17l43 -107l43 107l307 -17l-153 -272h-398zM641 1462q271 0 434.5 -198t163.5 -545q0 -222 -70.5 -390.5t-207 -263t-320.5 -94.5q-270 0 -434 198.5t-164 545.5q0 222 70.5 390.5t207 262.5t320.5 94zM641 387q64 0 100.5 83.5t36.5 244.5
q0 162 -35.5 247t-101.5 85q-64 0 -100.5 -84t-36.5 -246q0 -156 35.5 -243t101.5 -87z" />
    <glyph glyph-name="uni01D2" unicode="&#x1d2;" 
d="M369 1237l-150 289l305 18l41 -112l43 112l303 -18l-149 -289h-393zM563 1180q241 0 387 -160t146 -440q0 -275 -143.5 -442t-391.5 -167q-240 0 -385 162t-145 445q0 271 143 436.5t389 165.5zM563 354q90 0 90 224q0 221 -92 221q-90 0 -90 -219q0 -226 92 -226z" />
    <glyph glyph-name="uni01D3" unicode="&#x1d3;" horiz-adv-x="1208" 
d="M406 1526l-150 272l307 17l43 -107l43 107l307 -17l-153 -272h-397zM696 481v953h453v-951q0 -235 -147 -373.5t-398 -138.5q-250 0 -397.5 138.5t-147.5 373.5v951h455v-953q0 -123 92 -123q90 0 90 123z" />
    <glyph glyph-name="uni01D4" unicode="&#x1d4;" 
d="M362 1237l-149 289l305 18l41 -112l43 112l303 -18l-149 -289h-394zM633 438v711h432v-1149h-432v143q-99 -174 -275 -174q-146 0 -224.5 106.5t-78.5 315.5v758h434v-664q0 -118 66 -118q49 0 78 71z" />
    <glyph glyph-name="uni01D5" unicode="&#x1d5;" horiz-adv-x="1208" 
d="M946 1862h-678v231h678v-231zM578 1513h-289v281h289v-281zM930 1513h-289v281h289v-281zM604 -29q-250 0 -397.5 138.5t-147.5 373.5v951h455v-953q0 -123 92 -123q90 0 90 123v953h453v-951q0 -235 -147 -373.5t-398 -138.5z" />
    <glyph glyph-name="uni01D6" unicode="&#x1d6;" 
d="M219 1845h678v-231h-678v231zM516 1522v-291h-285v291h285zM885 1522v-291h-285v291h285zM633 438v711h432v-1149h-432v143q-99 -174 -275 -174q-146 0 -224.5 106.5t-78.5 315.5v758h434v-664q0 -118 66 -118q49 0 78 71z" />
    <glyph glyph-name="uni01D7" unicode="&#x1d7;" horiz-adv-x="1208" 
d="M999 2066l-231 -229l-326 16l164 291zM578 1513h-289v281h289v-281zM930 1513h-289v281h289v-281zM604 -29q-250 0 -397.5 138.5t-147.5 373.5v951h455v-953q0 -123 92 -123q90 0 90 123v953h453v-951q0 -235 -147 -373.5t-398 -138.5z" />
    <glyph glyph-name="uni01D8" unicode="&#x1d8;" 
d="M532 1942l371 -56l-229 -295l-281 19zM231 1522h285v-291h-285v291zM885 1231h-285v291h285v-291zM633 438v711h432v-1149h-432v143q-99 -174 -275 -174q-146 0 -224.5 106.5t-78.5 315.5v758h434v-664q0 -118 66 -118q49 0 78 71z" />
    <glyph glyph-name="uni01D9" unicode="&#x1d9;" horiz-adv-x="1208" 
d="M408 1858l-150 272l307 16l43 -106l43 106l307 -16l-153 -272h-397zM578 1513h-289v281h289v-281zM930 1513h-289v281h289v-281zM696 481v953h453v-951q0 -235 -147 -373.5t-398 -138.5q-250 0 -397.5 138.5t-147.5 373.5v951h455v-953q0 -123 92 -123q90 0 90 123z" />
    <glyph glyph-name="uni01DA" unicode="&#x1da;" 
d="M362 1597l-149 289l305 19l41 -113l43 113l303 -19l-149 -289h-394zM516 1231h-285v291h285v-291zM885 1231h-285v291h285v-291zM633 438v711h432v-1149h-432v143q-99 -174 -275 -174q-146 0 -224.5 106.5t-78.5 315.5v758h434v-664q0 -118 66 -118q49 0 78 71z" />
    <glyph glyph-name="uni01DB" unicode="&#x1db;" horiz-adv-x="1208" 
d="M774 1851l-325 -16l-232 229l393 78zM578 1513h-289v281h289v-281zM930 1513h-289v281h289v-281zM604 -29q-250 0 -397.5 138.5t-147.5 373.5v951h455v-953q0 -123 92 -123q90 0 90 123v953h453v-951q0 -235 -147 -373.5t-398 -138.5z" />
    <glyph glyph-name="Gcaron" unicode="&#x1e6;" horiz-adv-x="1187" 
d="M475 1526l-149 272l307 17l43 -107l43 107l307 -17l-154 -272h-397zM674 500v319h461v-696q-221 -152 -480 -152q-288 0 -450 195t-162 549q0 351 175 549t464 198q180 0 362 -80l-104 -403q-122 72 -225 72q-219 0 -219 -338q0 -165 44.5 -256.5t125.5 -91.5q41 0 75 12
v123h-67z" />
    <glyph glyph-name="gcaron" unicode="&#x1e7;" horiz-adv-x="1071" 
d="M332 1262l-150 288l305 19l41 -113l43 113l303 -19l-149 -288h-393zM514 313l107 2q232 1 344 -78t112 -239q0 -182 -147.5 -279.5t-427.5 -97.5q-227 0 -338 71t-111 218q0 114 117 199q-115 49 -115 184q0 111 121 201q-125 107 -125 292q0 180 131 287t355 107
q128 0 206 -37l248 78l68 -260l-101 -11q62 -77 62 -164q0 -187 -124.5 -293t-356.5 -106q-30 0 -84 4q-15 -23 -15 -39q0 -39 74 -39zM537 895q-27 0 -42.5 -29.5t-15.5 -77.5q0 -120 58 -120q26 0 40.5 31.5t14.5 86.5q0 50 -14.5 79.5t-40.5 29.5zM541 -90q49 0 72.5 22
t23.5 72q0 74 -94 74h-58q-22 -37 -22 -76q0 -92 78 -92z" />
    <glyph glyph-name="uni01EA" unicode="&#x1ea;" horiz-adv-x="1284" 
d="M915 -33q0 -69 121 -49l21 -242q-173 -44 -285.5 -28t-167.5 70.5t-55 138.5q0 58 33 116q-246 24 -392.5 220t-146.5 522q0 222 70.5 390.5t207 262.5t320.5 94q271 0 434.5 -198t163.5 -545q0 -207 -62.5 -368.5t-179.5 -258.5q-82 -70 -82 -125zM504 717
q0 -156 35.5 -243t101.5 -87q64 0 100.5 83.5t36.5 244.5q0 162 -35.5 247t-101.5 85q-64 0 -100.5 -84t-36.5 -246z" />
    <glyph glyph-name="uni01EB" unicode="&#x1eb;" 
d="M799 -53q0 -69 121 -49l20 -242q-173 -44 -285.5 -28t-167.5 70t-55 138q0 75 47 141q-206 27 -327 185.5t-121 415.5q0 271 143 436.5t389 165.5q241 0 387 -160t146 -440q0 -169 -58 -302.5t-164 -211.5q-75 -66 -75 -119zM561 799q-90 0 -90 -219q0 -226 92 -226
q90 0 90 224q0 221 -92 221z" />
    <glyph glyph-name="Aringacute" unicode="&#x1fa;" horiz-adv-x="1239" 
d="M621 2310l393 -78l-232 -229l-325 16zM618 1477q-111 0 -184.5 68.5t-73.5 172.5q0 103 74 171.5t184 68.5t184.5 -68.5t74.5 -171.5q0 -104 -74 -172.5t-185 -68.5zM618 1788q-27 0 -45 -20t-18 -50q0 -31 17.5 -50t45.5 -19t47 19.5t19 49.5q0 29 -19 49.5t-47 20.5z
M1245 0h-465l-32 201h-263l-34 -201h-459l338 1434h581zM614 956l-79 -471h165l-75 471h-11z" />
    <glyph glyph-name="aringacute" unicode="&#x1fb;" horiz-adv-x="1069" 
d="M494 2091l370 -55l-229 -295l-281 18zM520 1214q-110 0 -184 68.5t-74 171.5q0 104 74 173t184 69t184 -69t74 -173q0 -103 -74 -171.5t-184 -68.5zM520 1526q-27 0 -45 -21t-18 -51q0 -29 17.5 -48.5t45.5 -19.5t47 19.5t19 48.5t-19 50.5t-47 21.5zM496 1180
q265 0 391.5 -136t126.5 -366v-678h-432v143q-38 -83 -105 -126.5t-145 -43.5q-147 0 -229.5 91.5t-82.5 275.5q0 167 96 255.5t285 88.5q99 0 181 -6v14q0 68 -35.5 102.5t-114.5 34.5q-125 0 -268 -47l-35 344q185 54 367 54zM498 293q84 0 84 196v9q-32 4 -60 4
q-40 0 -62 -27.5t-22 -77.5q0 -45 17 -74.5t43 -29.5z" />
    <glyph glyph-name="AEacute" unicode="&#x1fc;" horiz-adv-x="1679" 
d="M1018 1812l393 -77l-231 -230l-326 17zM1194 541v-154h453v-387h-902v227h-227l-59 -227h-467l409 1434h1233v-387h-440v-150h367v-356h-367zM737 1032l-131 -508h139v508h-8z" />
    <glyph glyph-name="aeacute" unicode="&#x1fd;" horiz-adv-x="1619" 
d="M778 1581l371 -55l-229 -295l-281 18zM1554 469h-544q13 -81 54 -117.5t110 -36.5q122 0 247 58l70 -312q-75 -42 -172.5 -66t-194.5 -24q-243 0 -393 166q-138 -166 -350 -166q-159 0 -255.5 98.5t-96.5 266.5q0 348 409 348q80 0 150 -6v8q0 72 -35 107.5t-117 35.5
q-118 0 -260 -49l-49 344q81 21 113 28.5t107 17.5t149 10q202 0 303 -101q132 99 321 99q222 0 345.5 -140.5t123.5 -373.5q0 -88 -35 -195zM1006 666l176 2q-2 90 -22 133t-64 43t-64.5 -43.5t-25.5 -134.5zM506 293q33 2 59.5 40t30.5 109q-4 20 -4 33l-4 -2v27
q-20 2 -60 2q-82 0 -82 -103q0 -51 15.5 -80t44.5 -26z" />
    <glyph glyph-name="oslashacute" unicode="&#x1ff;" 
d="M539 1581l370 -55l-229 -295l-281 18zM1061 1090l-82 -105q117 -158 117 -405q0 -275 -143.5 -442t-391.5 -167q-177 0 -305 90l-70 -90l-123 99l80 102q-112 159 -112 406q0 271 143 436.5t389 165.5q173 0 301 -84l72 92zM561 799q-87 0 -90 -207l141 182
q-22 25 -51 25zM563 354q87 0 90 215l-143 -186q23 -29 53 -29z" />
    <glyph glyph-name="uni0218" unicode="&#x218;" horiz-adv-x="976" 
d="M446 -31q-228 0 -421 78l45 369q60 -27 147 -46.5t152 -19.5q114 0 114 76q0 29 -30.5 60t-92.5 73q-329 168 -329 442q0 213 138.5 337t369.5 124q98 0 201.5 -16.5t172.5 -46.5l-43 -379q-137 57 -258 57q-100 0 -100 -78q0 -65 125 -145q330 -161 330 -448
q0 -203 -143.5 -320t-377.5 -117zM397 -518l-61 119q58 18 82 45.5t24 70.5h-127v205h316q95 -326 -234 -440z" />
    <glyph glyph-name="uni0219" unicode="&#x219;" horiz-adv-x="849" 
d="M393 -29q-112 0 -191 13.5t-175 46.5l47 346q61 -30 137 -48t141 -18q54 0 54 45q0 19 -24 36.5t-85 47.5q-138 55 -204 136t-66 231q0 120 61.5 206.5t157 126.5t211.5 40q165 0 321 -58l-47 -342q-141 56 -235 56q-60 0 -60 -48q0 -42 101 -81q68 -27 116.5 -56.5
t90 -72.5t62.5 -102.5t21 -135.5q0 -168 -121.5 -268.5t-312.5 -100.5zM356 -518l-61 119q58 18 82 45.5t24 70.5h-127v205h316q95 -326 -234 -440z" />
    <glyph glyph-name="uni021A" unicode="&#x21a;" horiz-adv-x="1009" 
d="M20 1434h971v-406h-260v-1028h-452v1028h-259v406zM338 -283v205h315q19 -63 22 -118t-9.5 -98t-34.5 -78.5t-56 -62.5t-71.5 -47t-83.5 -36l-62 119q58 18 82.5 45.5t24.5 70.5h-127z" />
    <glyph glyph-name="uni021B" unicode="&#x21b;" horiz-adv-x="811" 
d="M504 -29q-195 0 -296.5 109t-101.5 319v404h-88v170l148 186l199 254h174v-264h237v-346h-237v-373q0 -80 69 -80q44 0 117 25l61 -348q-151 -56 -282 -56zM315 -520l-61 119q58 18 82 45.5t24 70.5h-127v205h316q95 -326 -234 -440z" />
    <glyph glyph-name="uni0232" unicode="&#x232;" horiz-adv-x="1157" 
d="M240 1761h678v-231h-678v231zM692 1434h475l-362 -977v-457h-453v457l-364 977h477l117 -555z" />
    <glyph glyph-name="uni0233" unicode="&#x233;" horiz-adv-x="1116" 
d="M221 1479h678v-232h-678v232zM559 449l103 700h450l-311 -1149l-94 -350h-437l92 340l-43 -2l-315 1161h447l104 -700h4z" />
    <glyph glyph-name="uni0237" unicode="&#x237;" horiz-adv-x="561" 
d="M-63 -367l4 316q16 2 63 2q64 0 64 106v1092h434v-1077q0 -241 -111 -348t-325 -107q-74 0 -129 16z" />
    <glyph glyph-name="uni0259" unicode="&#x259;" horiz-adv-x="1064" 
d="M496 1178q242 0 390 -164t148 -443q0 -272 -141.5 -436t-392.5 -164q-222 0 -345.5 140.5t-123.5 373.5q0 88 35 195h544q-13 81 -54 117.5t-110 36.5q-122 0 -247 -58l-70 311q75 43 172.5 67t194.5 24zM524 305q44 0 64.5 43.5t25.5 134.5l-176 -2q2 -90 22 -133
t64 -43z" />
    <glyph glyph-name="uni0272" unicode="&#x272;" 
d="M768 1180q146 0 224.5 -106.5t78.5 -315.5v-758h-434v664q0 118 -66 118q-48 0 -77 -71v-293q2 -53 2 -187v-217q0 -84 -23.5 -153.5t-71.5 -124t-129 -85t-188 -30.5q-75 0 -174 29l27 352q33 -10 61 -10q63 0 63 76v1081h433v-143q99 174 274 174z" />
    <glyph glyph-name="uni02B0" unicode="&#x2b0;" horiz-adv-x="641" 
d="M432 1532q87 0 136.5 -61t49.5 -177v-428h-235v383q0 68 -49 68q-27 0 -45.5 -29t-18.5 -86v-336h-235v877h235v-293q62 82 162 82z" />
    <glyph glyph-name="circumflex" unicode="&#x2c6;" horiz-adv-x="780" 
d="M586 1550l149 -301l-303 -18l-43 119l-41 -119l-305 18l150 301h393z" />
    <glyph glyph-name="caron" unicode="&#x2c7;" horiz-adv-x="780" 
d="M389 1432l43 112l303 -18l-149 -289h-393l-150 289l305 18z" />
    <glyph glyph-name="breve" unicode="&#x2d8;" horiz-adv-x="772" 
d="M446 1540l281 -8q0 -153 -84 -228t-258 -75q-172 0 -257 75t-85 228l281 8q0 -90 61 -90t61 90z" />
    <glyph glyph-name="dotaccent" unicode="&#x2d9;" horiz-adv-x="534" 
d="M492 1231h-449v291h449v-291z" />
    <glyph glyph-name="ring" unicode="&#x2da;" horiz-adv-x="602" 
d="M301 1212q-110 0 -184 68.5t-74 171.5q0 104 74 173t184 69t184 -69t74 -173q0 -103 -74 -171.5t-184 -68.5zM301 1384q28 0 47 19.5t19 48.5t-19 50.5t-47 21.5q-27 0 -45 -21t-18 -51q0 -29 17.5 -48.5t45.5 -19.5z" />
    <glyph glyph-name="ogonek" unicode="&#x2db;" horiz-adv-x="714" 
d="M313 49l207 -49q-82 -70 -82 -125q0 -69 121 -49l21 -242q-173 -44 -285.5 -28t-167.5 70t-55 138q0 52 23.5 101t61.5 84.5t77.5 60.5t78.5 39z" />
    <glyph glyph-name="tilde" unicode="&#x2dc;" horiz-adv-x="692" 
d="M236 1225l-193 39q-2 124 44.5 195t131.5 71q50 0 114 -21.5t79 -21.5q45 0 45 57l190 -39q3 -125 -42.5 -195.5t-131.5 -70.5q-50 0 -114.5 21.5t-79.5 21.5q-43 0 -43 -57z" />
    <glyph glyph-name="hungarumlaut" unicode="&#x2dd;" horiz-adv-x="917" 
d="M481 1526l-172 -295l-266 18l80 332zM872 1526l-170 -295l-266 18l78 332z" />
    <glyph glyph-name="uni02E1" unicode="&#x2e1;" horiz-adv-x="301" 
d="M266 866h-231v877h231v-877z" />
    <glyph glyph-name="uni02E2" unicode="&#x2e2;" horiz-adv-x="491" 
d="M229 850q-109 0 -206 39l40 170q75 -33 138 -33q16 0 28.5 9.5t12.5 25.5q0 19 -15 34t-51 35q-75 29 -109 71.5t-34 115.5q0 104 64.5 161.5t166.5 57.5q42 0 99 -10.5t88 -24.5l-41 -178q-71 33 -125 33q-14 0 -22.5 -10.5t-8.5 -24.5q0 -39 55 -66q83 -37 121.5 -80.5
t38.5 -119.5q0 -94 -67 -149.5t-173 -55.5z" />
    <glyph glyph-name="gravecomb" unicode="&#x300;" horiz-adv-x="0" 
d="M-43 1249l-279 -18l-231 295l371 55z" />
    <glyph glyph-name="acutecomb" unicode="&#x301;" horiz-adv-x="0" 
d="M-43 1526l-229 -295l-281 18l139 332z" />
    <glyph glyph-name="uni0302" unicode="&#x302;" horiz-adv-x="0" 
d="M-195 1550l150 -301l-303 -18l-43 119l-41 -119l-305 18l149 301h393z" />
    <glyph glyph-name="tildecomb" unicode="&#x303;" horiz-adv-x="0" 
d="M-457 1225l-192 39q-2 124 44.5 195t131.5 71q50 0 113.5 -21.5t78.5 -21.5q45 0 45 57l191 -39q3 -125 -42.5 -195.5t-131.5 -70.5q-50 0 -115 21.5t-80 21.5q-43 0 -43 -57z" />
    <glyph glyph-name="uni0304" unicode="&#x304;" horiz-adv-x="0" 
d="M-14 1253h-678v232h678v-232z" />
    <glyph glyph-name="uni0306" unicode="&#x306;" horiz-adv-x="0" 
d="M-326 1540l281 -8q0 -153 -84 -228t-258 -75q-172 0 -257 75t-85 228l280 8q0 -90 62 -90q61 0 61 90z" />
    <glyph glyph-name="uni0307" unicode="&#x307;" horiz-adv-x="0" 
d="M-43 1231h-449v291h449v-291z" />
    <glyph glyph-name="uni0308" unicode="&#x308;" horiz-adv-x="0" 
d="M-412 1231h-284v291h284v-291zM-43 1231h-285v291h285v-291z" />
    <glyph glyph-name="hookabovecomb" unicode="&#x309;" horiz-adv-x="0" 
d="M-170 1200l-190 66q57 54 57 106q0 37 -31 49.5t-78 -10.5l-30 180q108 58 204 58t151.5 -49.5t55.5 -131.5q0 -67 -38 -138t-101 -130z" />
    <glyph glyph-name="uni030A" unicode="&#x30a;" horiz-adv-x="0" 
d="M-301 1212q-110 0 -184 68.5t-74 171.5q0 104 74 173t184 69t184 -69t74 -173q0 -103 -74 -171.5t-184 -68.5zM-301 1384q28 0 46.5 19.5t18.5 48.5q0 30 -19 51t-46 21t-45.5 -21t-18.5 -51q0 -29 18 -48.5t46 -19.5z" />
    <glyph glyph-name="uni030B" unicode="&#x30b;" horiz-adv-x="0" 
d="M-436 1526l-172 -295l-266 18l79 332zM-45 1526l-170 -295l-266 18l78 332z" />
    <glyph glyph-name="uni030C" unicode="&#x30c;" horiz-adv-x="0" 
d="M-391 1432l43 112l303 -18l-150 -289h-393l-149 289l305 18z" />
    <glyph glyph-name="uni0312" unicode="&#x312;" horiz-adv-x="0" 
d="M-125 1665l62 -119q-58 -18 -82.5 -45.5t-24.5 -70.5h127v-205h-315q-19 63 -22 118t9.5 98t34.5 78.5t56 62.5t71.5 47t83.5 36z" />
    <glyph glyph-name="uni031B" unicode="&#x31b;" horiz-adv-x="0" 
d="M-594 1124l12 189q50 0 61 40t-7 144l358 21q29 -89 26 -161t-26.5 -127.5t-69 -91t-100.5 -50.5t-121.5 -6t-132.5 42z" />
    <glyph glyph-name="dotbelowcomb" unicode="&#x323;" horiz-adv-x="0" 
d="M-449 -371v291h418v-291h-418z" />
    <glyph glyph-name="uni0324" unicode="&#x324;" horiz-adv-x="0" 
d="M-412 -406h-284v291h284v-291zM-43 -406h-285v291h285v-291z" />
    <glyph glyph-name="uni0326" unicode="&#x326;" horiz-adv-x="0" 
d="M-326 -518l-61 119q58 18 82 45.5t24 70.5h-127v205h316q95 -326 -234 -440z" />
    <glyph glyph-name="uni0327" unicode="&#x327;" horiz-adv-x="0" 
d="M-225 16l-21 -69q78 -6 127 -47t49 -103q0 -85 -81.5 -129.5t-217.5 -44.5q-95 0 -157 12l32 152q40 -8 72 -8q64 0 64 37q0 50 -109 24l47 176h195z" />
    <glyph glyph-name="uni0328" unicode="&#x328;" horiz-adv-x="0" 
d="M-313 49l207 -49q-82 -70 -82 -125q0 -69 120 -49l21 -242q-173 -44 -285.5 -28t-167.5 70t-55 138q0 52 24 101t61.5 84.5t77.5 60.5t79 39z" />
    <glyph glyph-name="uni032E" unicode="&#x32e;" horiz-adv-x="0" 
d="M-258 -66l217 -4q0 -113 -65 -169t-201 -56q-135 0 -200.5 55.5t-65.5 169.5l219 4q0 -65 47 -65q49 0 49 65z" />
    <glyph glyph-name="uni0331" unicode="&#x331;" horiz-adv-x="0" 
d="M-14 -332h-678v232h678v-232z" />
    <glyph glyph-name="uni0335" unicode="&#x335;" horiz-adv-x="0" 
d="M-723 594v154l668 2v-156h-668z" />
    <glyph glyph-name="uni0336" unicode="&#x336;" horiz-adv-x="0" 
d="M-1108 840v184h1096v-184h-1096z" />
    <glyph glyph-name="uni0337" unicode="&#x337;" horiz-adv-x="0" 
d="M-713 557l-67 141l643 285l67 -139z" />
    <glyph glyph-name="uni0338" unicode="&#x338;" horiz-adv-x="0" 
d="M-1030 -29l-123 99l872 1118l125 -98z" />
    <glyph glyph-name="tonos" unicode="&#x384;" horiz-adv-x="628" 
d="M598 1587l-139 -338h-244l21 338h362z" />
    <glyph glyph-name="dieresistonos" unicode="&#x385;" horiz-adv-x="1138" 
d="M707 1642l-123 -339h-172l20 339h275zM371 1251h-232v244h232v-244zM924 1251h-234v244h234v-244z" />
    <glyph glyph-name="Alphatonos" unicode="&#x386;" horiz-adv-x="1239" 
d="M-57 1434h362l-139 -338h-246zM1245 0h-465l-35 205h-258l-36 -205h-459l354 1434h549zM618 946l-79 -454h157l-75 454h-3z" />
    <glyph glyph-name="Epsilontonos" unicode="&#x388;" horiz-adv-x="1005" 
d="M-98 1096h-246l22 338h363zM520 541v-154h453v-387h-901v1434h889v-387h-441v-150h367v-356h-367z" />
    <glyph glyph-name="Etatonos" unicode="&#x389;" horiz-adv-x="1263" 
d="M-98 1096h-246l22 338h363zM737 911v523h455v-1434h-455v512h-211v-512h-454v1434h454v-523h211z" />
    <glyph glyph-name="Iotatonos" unicode="&#x38a;" horiz-adv-x="595" 
d="M41 1434l-139 -338h-246l22 338h363zM524 0h-452v1434h452v-1434z" />
    <glyph glyph-name="Omicrontonos" unicode="&#x38c;" horiz-adv-x="1284" 
d="M641 -29q-270 0 -434 198.5t-164 545.5q0 222 70.5 390.5t207 262.5t320.5 94q271 0 434.5 -198t163.5 -545q0 -222 -70.5 -390.5t-207 -263t-320.5 -94.5zM182 1434l-139 -338h-246l23 338h362zM641 387q64 0 100.5 83.5t36.5 244.5q0 162 -35.5 247t-101.5 85
q-64 0 -100.5 -84t-36.5 -246q0 -156 35.5 -243t101.5 -87z" />
    <glyph glyph-name="Upsilontonos" unicode="&#x38e;" horiz-adv-x="1157" 
d="M-190 1096h-246l22 338h363zM692 1434h475l-362 -977v-457h-453v457l-364 977h477l117 -555z" />
    <glyph glyph-name="Omegatonos" unicode="&#x38f;" horiz-adv-x="1230" 
d="M1188 911q0 -78 -16.5 -152t-50 -144t-66 -123.5t-80.5 -122.5l194 30v-399h-526v317q16 155 50 323t34 245q0 75 -30 119.5t-83 44.5q-50 0 -80 -43.5t-30 -120.5t34 -245t50 -323v-317h-525v399l195 -30q-50 71 -81.5 121.5t-66 121t-51 144.5t-16.5 155q0 88 20 167
t65 150t110.5 122.5t162.5 81.5t215 30q141 0 251.5 -43t179.5 -118.5t105 -174.5t36 -215zM-311 1096l22 338h363l-140 -338h-245z" />
    <glyph glyph-name="iotadieresistonos" unicode="&#x390;" horiz-adv-x="608" 
d="M451 1642l-123 -339h-172l20 339h275zM115 1251h-232v244h232v-244zM668 1251h-234v244h234v-244zM451 -29q-195 0 -295.5 108t-100.5 320v750h432v-715q0 -72 58 -72q5 0 16 1.5t17 1.5l26 -379q-76 -15 -153 -15z" />
    <glyph glyph-name="Alpha" unicode="&#x391;" horiz-adv-x="1239" 
d="M1245 0h-465l-35 205h-258l-36 -205h-459l354 1434h549zM618 946l-79 -454h157l-75 454h-3z" />
    <glyph glyph-name="Beta" unicode="&#x392;" horiz-adv-x="1175" 
d="M918 748q113 -41 175 -127t62 -211q0 -193 -135 -301.5t-375 -108.5h-573v1434h567q226 0 352.5 -96.5t126.5 -278.5q0 -107 -52 -188.5t-148 -122.5zM571 1085h-65v-221h63q117 0 117 103q0 64 -25.5 91t-89.5 27zM506 348h88q125 0 125 119q0 113 -123 113h-90v-232z
" />
    <glyph glyph-name="Gamma" unicode="&#x393;" horiz-adv-x="913" 
d="M72 0v1434h821v-396h-365v-1038h-456z" />
    <glyph glyph-name="uni0394" unicode="&#x394;" horiz-adv-x="1200" 
d="M334 1436h532l340 -1434h-1214zM596 936l-96 -619h198l-94 619h-8z" />
    <glyph glyph-name="Epsilon" unicode="&#x395;" horiz-adv-x="1005" 
d="M520 541v-154h453v-387h-901v1434h889v-387h-441v-150h367v-356h-367z" />
    <glyph glyph-name="Zeta" unicode="&#x396;" horiz-adv-x="1007" 
d="M973 0h-938v301l371 727h-357v406h912v-299l-371 -729h383v-406z" />
    <glyph glyph-name="Eta" unicode="&#x397;" horiz-adv-x="1263" 
d="M737 911v523h455v-1434h-455v512h-211v-512h-454v1434h454v-523h211z" />
    <glyph glyph-name="Theta" unicode="&#x398;" horiz-adv-x="1284" 
d="M641 -29q-270 0 -434 198.5t-164 545.5q0 222 70.5 390.5t207 262.5t320.5 94q271 0 434.5 -198t163.5 -545q0 -222 -70.5 -390.5t-207 -263t-320.5 -94.5zM641 387q64 0 100.5 83.5t36.5 244.5q0 162 -35.5 247t-101.5 85q-64 0 -100.5 -84t-36.5 -246q0 -156 35.5 -243
t101.5 -87zM547 639v156h192v-156h-192z" />
    <glyph glyph-name="Iota" unicode="&#x399;" horiz-adv-x="595" 
d="M524 0h-452v1434h452v-1434z" />
    <glyph glyph-name="Kappa" unicode="&#x39a;" horiz-adv-x="1290" 
d="M1286 0h-489l-193 436l-80 -86v-350h-452v1434h452v-521l226 521h512l-373 -613z" />
    <glyph glyph-name="Lambda" unicode="&#x39b;" horiz-adv-x="1208" 
d="M-2 0l340 1434h530l342 -1434h-462l-144 924l-143 -924h-463z" />
    <glyph glyph-name="Mu" unicode="&#x39c;" horiz-adv-x="1454" 
d="M922 1434h434l53 -1434h-426l-27 598l-139 -598h-180l-139 598l-27 -598h-428l55 1434h422l205 -689z" />
    <glyph glyph-name="Nu" unicode="&#x39d;" horiz-adv-x="1247" 
d="M512 0h-440v1434h403l258 -576v576h445v-1434h-396l-270 598v-598z" />
    <glyph glyph-name="Xi" unicode="&#x39e;" horiz-adv-x="933" 
d="M895 1047l-858 2v385l858 -2v-385zM819 543l-706 2v346l706 -4v-344zM901 -2l-868 2v389l868 -4v-387z" />
    <glyph glyph-name="Omicron" unicode="&#x39f;" horiz-adv-x="1284" 
d="M641 -29q-270 0 -434 198.5t-164 545.5q0 222 70.5 390.5t207 262.5t320.5 94q271 0 434.5 -198t163.5 -545q0 -222 -70.5 -390.5t-207 -263t-320.5 -94.5zM641 387q64 0 100.5 83.5t36.5 244.5q0 162 -35.5 247t-101.5 85q-64 0 -100.5 -84t-36.5 -246q0 -156 35.5 -243
t101.5 -87z" />
    <glyph glyph-name="Pi" unicode="&#x3a0;" horiz-adv-x="1234" 
d="M1165 1434v-1434h-454v1028h-189v-1028h-450v1434h1093z" />
    <glyph glyph-name="Rho" unicode="&#x3a1;" horiz-adv-x="1167" 
d="M588 1434q257 0 405 -143t148 -402q0 -255 -145.5 -404t-407.5 -149h-64v-336h-452v1434h516zM524 709h51q56 0 86.5 44.5t30.5 127.5q0 78 -31 126t-86 48h-51v-346z" />
    <glyph glyph-name="Sigma" unicode="&#x3a3;" horiz-adv-x="948" 
d="M915 0h-880v322l254 395l-256 395v322h870v-396h-385l197 -321l-197 -322h397v-395z" />
    <glyph glyph-name="Tau" unicode="&#x3a4;" horiz-adv-x="1009" 
d="M20 1434h971v-406h-260v-1028h-452v1028h-259v406z" />
    <glyph glyph-name="Upsilon" unicode="&#x3a5;" horiz-adv-x="1157" 
d="M692 1434h475l-362 -977v-457h-453v457l-364 977h477l117 -555z" />
    <glyph glyph-name="Phi" unicode="&#x3a6;" horiz-adv-x="1675" 
d="M1632 719q0 -248 -159 -410t-412 -176v-133h-447v133q-255 12 -413 176t-158 406q0 244 157 408.5t414 176.5v134h447v-134q254 -14 412.5 -173.5t158.5 -407.5zM500 717q0 -97 31 -155t83 -64v438q-52 -6 -83 -64t-31 -155zM1061 936v-436q52 8 82.5 65t30.5 150
q0 96 -30 154.5t-83 66.5z" />
    <glyph glyph-name="Chi" unicode="&#x3a7;" horiz-adv-x="1239" 
d="M952 717l283 -717h-494l-120 440l-119 -440h-498l277 717l-256 717h491l102 -414l103 414h489z" />
    <glyph glyph-name="Psi" unicode="&#x3a8;" horiz-adv-x="1544" 
d="M1073 879v555h410v-521q0 -226 -119.5 -358t-362.5 -147v-408h-458v408q-237 13 -360.5 143.5t-123.5 361.5v521h412v-555q0 -45 19.5 -70.5t52.5 -30.5v656h458v-656q72 11 72 101z" />
    <glyph glyph-name="uni03A9" unicode="&#x3a9;" horiz-adv-x="1230" 
d="M1188 911q0 -78 -16.5 -152t-50 -144t-66 -123.5t-80.5 -122.5l194 30v-399h-526v317q16 155 50 323t34 245q0 75 -30 119.5t-83 44.5q-50 0 -80 -43.5t-30 -120.5t34 -245t50 -323v-317h-525v399l195 -30q-50 71 -81.5 121.5t-66 121t-51 144.5t-16.5 155q0 88 20 167
t65 150t110.5 122.5t162.5 81.5t215 30q141 0 251.5 -43t179.5 -118.5t105 -174.5t36 -215z" />
    <glyph glyph-name="Iotadieresis" unicode="&#x3aa;" horiz-adv-x="595" 
d="M256 1516h-285v290h285v-290zM625 1516h-285v290h285v-290zM524 0h-452v1434h452v-1434z" />
    <glyph glyph-name="Upsilondieresis" unicode="&#x3ab;" horiz-adv-x="1157" 
d="M252 1806h285v-290h-285v290zM621 1806h284v-290h-284v290zM692 1434h475l-362 -977v-457h-453v457l-364 977h477l117 -555z" />
    <glyph glyph-name="alphatonos" unicode="&#x3ac;" horiz-adv-x="1177" 
d="M467 1587h362l-139 -338h-244zM684 1149h432l-39 -576l39 -573h-432l-4 119q-106 -148 -252 -148q-181 0 -289 163.5t-108 434.5q0 277 107.5 443t285.5 166q152 0 254 -150zM563 348q43 0 69.5 62t26.5 161q0 102 -27 165t-69 63q-45 0 -68.5 -60t-23.5 -170
q0 -101 24 -161t68 -60z" />
    <glyph glyph-name="epsilontonos" unicode="&#x3ad;" horiz-adv-x="813" 
d="M713 1587l-140 -338h-243l20 338h363zM473 -29q-196 0 -323 98t-127 253q0 87 38 153.5t103 97.5q-62 33 -98.5 99t-36.5 151q0 155 127.5 251.5t322.5 96.5q162 0 318 -59l-80 -305q-77 35 -164 35q-48 0 -77.5 -17.5t-29.5 -50.5q0 -27 23 -43t68 -16h120v-273h-112
q-50 0 -75.5 -18.5t-25.5 -50.5t30 -50t77 -18q37 0 90.5 11t87.5 28l82 -313q-166 -60 -338 -60z" />
    <glyph glyph-name="etatonos" unicode="&#x3ae;" 
d="M455 1587h362l-139 -338h-244zM768 1180q146 0 224.5 -106.5t78.5 -315.5v-1108h-434v1014q0 118 -66 118q-48 0 -77 -71v-711h-433v1149h433v-143q99 174 274 174z" />
    <glyph glyph-name="iotatonos" unicode="&#x3af;" horiz-adv-x="608" 
d="M526 1587l-139 -338h-244l21 338h362zM451 -29q-195 0 -295.5 108t-100.5 320v750h432v-715q0 -72 58 -72q5 0 16 1.5t17 1.5l26 -379q-76 -15 -153 -15z" />
    <glyph glyph-name="upsilondieresistonos" unicode="&#x3b0;" horiz-adv-x="1122" 
d="M735 1642l-123 -339h-172l21 339h274zM399 1251h-231v244h231v-244zM952 1251h-233v244h233v-244zM635 463v686h432v-682q0 -221 -135 -358.5t-371 -137.5q-226 0 -366 132.5t-140 363.5v682h434v-686q0 -44 19.5 -73.5t52.5 -29.5q32 0 53 28.5t21 74.5z" />
    <glyph glyph-name="alpha" unicode="&#x3b1;" horiz-adv-x="1177" 
d="M684 1149h432l-39 -576l39 -573h-432l-4 119q-106 -148 -252 -148q-181 0 -289 163.5t-108 434.5q0 277 107.5 443t285.5 166q152 0 254 -150zM563 348q43 0 69.5 62t26.5 161q0 102 -27 165t-69 63q-45 0 -68.5 -60t-23.5 -170q0 -101 24 -161t68 -60z" />
    <glyph glyph-name="beta" unicode="&#x3b2;" horiz-adv-x="1171" 
d="M498 -350h-435v1370q0 110 26.5 200t83 162.5t156.5 113t236 40.5q107 0 198.5 -30t160.5 -86.5t108 -145.5t39 -201q0 -80 -34 -164t-95 -137q76 -33 137.5 -118.5t61.5 -202.5q0 -229 -126.5 -354.5t-322.5 -125.5q-114 0 -194 39v-360zM498 1020v-633q53 -35 102 -35
q43 0 71.5 30t28.5 87q0 127 -90 127h-80v301h31q64 0 70 127q5 61 -12.5 98t-55.5 37q-29 0 -47 -34.5t-18 -104.5z" />
    <glyph glyph-name="gamma" unicode="&#x3b3;" horiz-adv-x="1120" 
d="M662 1149h454l-338 -1124v-375h-434v368l-340 1131h453l100 -645h6z" />
    <glyph glyph-name="delta" unicode="&#x3b4;" horiz-adv-x="1085" 
d="M1010 1163h-310q355 -332 355 -669q0 -237 -137.5 -379t-376.5 -142q-232 0 -371 137.5t-139 383.5q0 92 29 174t78.5 143t101.5 104.5t110 75.5q-77 84 -184 166v359h844v-353zM541 352q73 0 73 142q0 107 -65 231q-80 -92 -80 -231q0 -68 19 -105t53 -37z" />
    <glyph glyph-name="epsilon" unicode="&#x3b5;" horiz-adv-x="813" 
d="M473 -29q-196 0 -323 98t-127 253q0 87 38 153.5t103 97.5q-62 33 -98.5 99t-36.5 151q0 155 127.5 251.5t322.5 96.5q162 0 318 -59l-80 -305q-77 35 -164 35q-48 0 -77.5 -17.5t-29.5 -50.5q0 -27 23 -43t68 -16h120v-273h-112q-50 0 -75.5 -18.5t-25.5 -50.5t30 -50
t77 -18q37 0 90.5 11t87.5 28l82 -313q-166 -60 -338 -60z" />
    <glyph glyph-name="zeta" unicode="&#x3b6;" horiz-adv-x="925" 
d="M674 305q123 -66 176 -139t53 -205q0 -139 -67 -311h-361q62 153 62 211q0 62 -40.5 104t-127.5 88q-71 36 -123.5 75.5t-96.5 95.5t-67 132.5t-23 171.5q0 199 101.5 360t261.5 269h-340v354h739l2 -354h-2q-162 -136 -241.5 -276t-79.5 -326q0 -86 42 -139.5
t132 -110.5z" />
    <glyph glyph-name="eta" unicode="&#x3b7;" 
d="M768 1180q146 0 224.5 -106.5t78.5 -315.5v-1108h-434v1014q0 118 -66 118q-48 0 -77 -71v-711h-433v1149h433v-143q99 174 274 174z" />
    <glyph glyph-name="theta" unicode="&#x3b8;" 
d="M565 1536q255 0 393 -202.5t138 -579.5q0 -379 -138 -582t-395 -203q-256 0 -394 203t-138 582q0 377 138.5 579.5t395.5 202.5zM563 1149q-43 0 -70 -72.5t-34 -210.5l41 27l168 -45q-6 146 -33.5 223.5t-71.5 77.5zM565 356q85 0 101 279l-48 -33l-159 43
q7 -139 35 -214t71 -75z" />
    <glyph glyph-name="iota" unicode="&#x3b9;" horiz-adv-x="608" 
d="M451 -29q-195 0 -295.5 108t-100.5 320v750h432v-715q0 -72 58 -72q5 0 16 1.5t17 1.5l26 -379q-76 -15 -153 -15z" />
    <glyph glyph-name="kappa" unicode="&#x3ba;" 
d="M1128 0h-475l-114 381h-45v-381h-433v1151h433v-391h45l94 391h471l-242 -524z" />
    <glyph glyph-name="lambda" unicode="&#x3bb;" horiz-adv-x="1056" 
d="M451 -4h-447l277 1085l-5 17q-25 110 -137 110l4 310q202 18 319 -8.5t181.5 -103t101.5 -226.5l308 -1184h-451l-74 588z" />
    <glyph glyph-name="uni03BC" unicode="&#x3bc;" 
d="M633 438v711h432v-1149h-432v143q-58 -106 -156 -149l21 -344h-443v1499h434v-664q0 -118 66 -118q49 0 78 71z" />
    <glyph glyph-name="nu" unicode="&#x3bd;" horiz-adv-x="1116" 
d="M815 0h-514l-297 1149h447l104 -698h4l103 698h450z" />
    <glyph glyph-name="xi" unicode="&#x3be;" horiz-adv-x="890" 
d="M817 -350h-358q57 117 57 194q0 59 -24 85t-130 89q-8 5 -12 7q-169 91 -243 188t-74 219q0 274 200 344q-196 99 -196 336q0 129 66 228t171 148.5t230 49.5q199 0 350 -72l-84 -317q-79 37 -186 37q-63 0 -96 -35t-33 -92q0 -58 37.5 -91.5t115.5 -33.5h121v-330h-135
q-119 0 -119 -125q0 -47 34 -87t134 -99q65 -32 107 -61.5t74 -69.5t46.5 -92.5t14.5 -122.5q0 -144 -68 -297z" />
    <glyph glyph-name="omicron" unicode="&#x3bf;" 
d="M561 -29q-240 0 -385 162t-145 445q0 271 143 436.5t389 165.5q241 0 387 -160t146 -440q0 -275 -143.5 -442t-391.5 -167zM563 354q90 0 90 224q0 221 -92 221q-90 0 -90 -219q0 -226 92 -226z" />
    <glyph glyph-name="pi" unicode="&#x3c0;" horiz-adv-x="1120" 
d="M1059 1149v-1151h-432v801h-133v-801h-433v1151h998z" />
    <glyph glyph-name="rho" unicode="&#x3c1;" horiz-adv-x="1148" 
d="M487 -350h-432v925q0 272 142.5 438.5t386.5 166.5q242 0 388 -160t146 -442q0 -266 -121.5 -436.5t-326.5 -170.5q-57 0 -111.5 25.5t-89.5 66.5zM492 578q0 -110 25 -169t69 -59q42 0 66 55.5t24 169.5q0 106 -24.5 165t-67.5 59t-67.5 -55.5t-24.5 -165.5z" />
    <glyph glyph-name="uni03C2" unicode="&#x3c2;" horiz-adv-x="899" 
d="M809 -350h-358q61 158 61 211q0 26 -5 45.5t-11 32.5t-24 27.5t-31.5 23t-46.5 28.5t-56 35q-113 65 -177.5 132.5t-97 163.5t-32.5 235q0 174 64.5 308.5t189.5 211t293 76.5t288 -97l-137 -329q-52 49 -115 49q-67 0 -106 -54t-39 -145q1 -98 35.5 -155.5t103.5 -102.5
q81 -52 124.5 -86t79.5 -79t49 -96t13 -124q0 -139 -65 -311z" />
    <glyph glyph-name="sigma" unicode="&#x3c3;" horiz-adv-x="1159" 
d="M1180 1149v-444q-49 0 -99 32q15 -74 15 -157q0 -275 -143.5 -442t-391.5 -167q-240 0 -385 162t-145 445q0 271 143 436.5t389 165.5q100 0 306.5 -15.5t310.5 -15.5zM563 354q90 0 90 224q0 221 -92 221q-90 0 -90 -219q0 -226 92 -226z" />
    <glyph glyph-name="tau" unicode="&#x3c4;" horiz-adv-x="747" 
d="M725 1149v-346h-166v-369q0 -72 55 -72q4 0 16 1.5t19 1.5l25 -379q-73 -15 -152 -15q-197 0 -297 108t-100 320v404h-107v346h707z" />
    <glyph glyph-name="upsilon" unicode="&#x3c5;" horiz-adv-x="1122" 
d="M635 463v686h432v-682q0 -221 -135 -358.5t-371 -137.5q-226 0 -366 132.5t-140 363.5v682h434v-686q0 -44 19.5 -73.5t52.5 -29.5q32 0 53 28.5t21 74.5z" />
    <glyph glyph-name="phi" unicode="&#x3c6;" horiz-adv-x="1595" 
d="M1565 580q0 -175 -68 -310t-193.5 -210t-289.5 -78v-332h-432v332q-118 2 -219 43t-175 115.5t-115.5 186t-41.5 248.5q0 263 150.5 425.5t400.5 168.5v265h432v-265q244 -6 397.5 -162.5t153.5 -426.5zM471 578q0 -214 111 -222v439q-111 -6 -111 -217zM1014 795v-439
q57 5 83.5 56t26.5 163q0 212 -110 220z" />
    <glyph glyph-name="chi" unicode="&#x3c7;" horiz-adv-x="1157" 
d="M868 406l285 -756h-463l-112 428l-109 -428h-465l281 751l-262 754h464l91 -403l88 403h464z" />
    <glyph glyph-name="psi" unicode="&#x3c8;" horiz-adv-x="1511" 
d="M1018 498v651h432v-631q0 -241 -128.5 -364.5t-352.5 -139.5v-364h-432l4 364q-106 7 -192 39.5t-153 92.5t-104 154.5t-37 217.5v631h432v-651q0 -53 25.5 -82.5t67.5 -34.5v768h348v-768q42 5 66 34t24 83z" />
    <glyph glyph-name="omega" unicode="&#x3c9;" horiz-adv-x="1517" 
d="M31 547q0 178 25.5 311.5t113.5 290.5h436q-85 -137 -112 -281.5t-27 -320.5q0 -207 53 -207q35 0 51.5 45.5t16.5 144.5v285h342v-285q0 -97 15 -143.5t50 -46.5q56 0 56 207q0 174 -27 319.5t-113 282.5h439q87 -158 112 -289.5t25 -312.5q0 -262 -118.5 -419
t-293.5 -157q-132 0 -216 74t-99 197q-15 -123 -100 -197t-218 -74q-175 0 -293 157t-118 419z" />
    <glyph glyph-name="iotadieresis" unicode="&#x3ca;" horiz-adv-x="608" 
d="M233 1231h-284v291h284v-291zM602 1231h-285v291h285v-291zM451 -29q-195 0 -295.5 108t-100.5 320v750h432v-715q0 -72 58 -72q5 0 16 1.5t17 1.5l26 -379q-76 -15 -153 -15z" />
    <glyph glyph-name="upsilondieresis" unicode="&#x3cb;" horiz-adv-x="1122" 
d="M518 1231h-285v291h285v-291zM887 1231h-285v291h285v-291zM635 463v686h432v-682q0 -221 -135 -358.5t-371 -137.5q-226 0 -366 132.5t-140 363.5v682h434v-686q0 -44 19.5 -73.5t52.5 -29.5q32 0 53 28.5t21 74.5z" />
    <glyph glyph-name="omicrontonos" unicode="&#x3cc;" 
d="M815 1587l-139 -338h-244l21 338h362zM561 -29q-240 0 -385 162t-145 445q0 271 143 436.5t389 165.5q241 0 387 -160t146 -440q0 -275 -143.5 -442t-391.5 -167zM563 354q90 0 90 224q0 221 -92 221q-90 0 -90 -219q0 -226 92 -226z" />
    <glyph glyph-name="upsilontonos" unicode="&#x3cd;" horiz-adv-x="1122" 
d="M811 1587l-139 -338h-244l21 338h362zM635 463v686h432v-682q0 -221 -135 -358.5t-371 -137.5q-226 0 -366 132.5t-140 363.5v682h434v-686q0 -44 19.5 -73.5t52.5 -29.5q32 0 53 28.5t21 74.5z" />
    <glyph glyph-name="omegatonos" unicode="&#x3ce;" horiz-adv-x="1517" 
d="M1010 1587l-140 -338h-243l20 338h363zM31 547q0 178 25.5 311.5t113.5 290.5h436q-85 -137 -112 -281.5t-27 -320.5q0 -207 53 -207q35 0 51.5 45.5t16.5 144.5v285h342v-285q0 -97 15 -143.5t50 -46.5q56 0 56 207q0 174 -27 319.5t-113 282.5h439q87 -158 112 -289.5
t25 -312.5q0 -262 -118.5 -419t-293.5 -157q-132 0 -216 74t-99 197q-15 -123 -100 -197t-218 -74q-175 0 -293 157t-118 419z" />
    <glyph glyph-name="uni0400" unicode="&#x400;" horiz-adv-x="1005" 
d="M532 1866l140 -332l-279 -18l-231 294zM520 541v-154h453v-387h-901v1434h889v-387h-441v-150h367v-356h-367z" />
    <glyph glyph-name="uni0401" unicode="&#x401;" horiz-adv-x="1005" 
d="M193 1806h284v-290h-284v290zM561 1806h285v-290h-285v290zM520 541v-154h453v-387h-901v1434h889v-387h-441v-150h367v-356h-367z" />
    <glyph glyph-name="uni0402" unicode="&#x402;" horiz-adv-x="1386" 
d="M956 915q183 0 285 -123.5t102 -347.5v-16q0 -207 -118 -333t-303 -126q-87 0 -177 35l37 320q27 -9 35 -9q68 0 68 115v12q0 52 -20 82.5t-58 30.5q-48 0 -100 -18v-537h-453v1061h-234v373h1043v-373h-356v-187q128 41 249 41z" />
    <glyph glyph-name="uni0403" unicode="&#x403;" horiz-adv-x="913" 
d="M827 1810l-229 -294l-281 18l140 332zM72 0v1434h821v-396h-365v-1038h-456z" />
    <glyph glyph-name="uni0404" unicode="&#x404;" horiz-adv-x="1038" 
d="M895 442l113 -385q-67 -39 -158 -62.5t-176 -23.5q-295 0 -463 195t-168 549q0 353 165.5 550t463.5 197q162 0 332 -86l-109 -385q-101 56 -193 56q-141 0 -180 -177h283v-311h-283q42 -174 183 -174q96 0 190 57z" />
    <glyph glyph-name="uni0405" unicode="&#x405;" horiz-adv-x="976" 
d="M446 -31q-228 0 -421 78l45 369q60 -27 147 -46.5t152 -19.5q114 0 114 76q0 29 -30.5 60t-92.5 73q-329 168 -329 442q0 213 138.5 337t369.5 124q98 0 201.5 -16.5t172.5 -46.5l-43 -379q-137 57 -258 57q-100 0 -100 -78q0 -65 125 -145q330 -161 330 -448
q0 -203 -143.5 -320t-377.5 -117z" />
    <glyph glyph-name="uni0406" unicode="&#x406;" horiz-adv-x="595" 
d="M524 0h-452v1434h452v-1434z" />
    <glyph glyph-name="uni0407" unicode="&#x407;" horiz-adv-x="595" 
d="M256 1516h-285v290h285v-290zM625 1516h-285v290h285v-290zM524 0h-452v1434h452v-1434z" />
    <glyph glyph-name="uni0408" unicode="&#x408;" horiz-adv-x="835" 
d="M272 -29q-135 0 -270 56l74 385q87 -33 141 -33q57 0 85 39.5t28 126.5v502h-129v387h575v-922q0 -265 -134.5 -403t-369.5 -138z" />
    <glyph glyph-name="uni0409" unicode="&#x409;" horiz-adv-x="1806" 
d="M1178 1098h53q261 0 405 -149t144 -404q0 -259 -148 -402t-403 -143h-506v1061h-117l-8 -346q-5 -186 -29 -315.5t-66.5 -214.5t-113 -130.5t-158 -60t-211.5 -4.5v379q43 -8 68 17.5t40 109.5t19 243l19 695h1012v-336zM1178 379h41q55 0 85.5 46t30.5 124
q0 81 -31.5 125.5t-84.5 44.5h-41v-340z" />
    <glyph glyph-name="uni040A" unicode="&#x40a;" horiz-adv-x="1822" 
d="M1169 981h91q249 0 392.5 -124.5t143.5 -364.5q0 -224 -142.5 -358t-393.5 -134h-545v573h-189v-573h-454v1434h454v-455h189v455h454v-453zM1169 367h76q105 0 105 118q0 117 -105 117h-76v-235z" />
    <glyph glyph-name="uni040B" unicode="&#x40b;" horiz-adv-x="1411" 
d="M973 920q383 0 383 -463v-457h-445v416q0 77 -24.5 101t-79.5 24q-49 0 -100 -15v-526h-453v1061h-234v373h1043v-373h-356v-193q148 52 266 52z" />
    <glyph glyph-name="uni040C" unicode="&#x40c;" horiz-adv-x="1253" 
d="M625 1812l393 -77l-232 -230l-325 17zM1249 0h-497l-174 512h-54v-512h-452v1434h452v-535h62l147 535h508l-309 -684z" />
    <glyph glyph-name="uni040D" unicode="&#x40d;" horiz-adv-x="1247" 
d="M776 1534l-278 -18l-232 294l371 56zM1178 1434v-1434h-443v598l-270 -598h-393v1434h442v-576l258 576h406z" />
    <glyph glyph-name="uni040E" unicode="&#x40e;" horiz-adv-x="1091" 
d="M549 1513q-342 0 -342 304l280 8q0 -90 62 -90q61 0 61 90l281 -8q0 -153 -84 -228.5t-258 -75.5zM641 1434h451l-330 -1076q0 -6 -2 -10l-15 -45q-51 -158 -158.5 -243t-269.5 -85q-167 0 -256 60l89 373q83 -41 129 -41q29 0 43 26l-324 1041h455l94 -586h2z" />
    <glyph glyph-name="uni040F" unicode="&#x40f;" horiz-adv-x="1234" 
d="M711 1434h454v-1434h-325v-246h-439v246h-329v1434h450v-1028h189v1028z" />
    <glyph glyph-name="uni0410" unicode="&#x410;" horiz-adv-x="1239" 
d="M1245 0h-465l-32 201h-263l-34 -201h-459l338 1434h581zM614 956l-79 -471h165l-75 471h-11z" />
    <glyph glyph-name="uni0411" unicode="&#x411;" horiz-adv-x="1183" 
d="M524 905h123q117 -1 208 -27.5t148 -70t94 -104.5t51.5 -125.5t14.5 -139.5q0 -187 -134.5 -312.5t-348.5 -125.5h-608v1434h938v-385h-486v-144zM524 360h78q47 0 79 29t32 94q0 56 -33 85.5t-80 29.5h-76v-238z" />
    <glyph glyph-name="uni0412" unicode="&#x412;" horiz-adv-x="1175" 
d="M918 748q113 -41 175 -127t62 -211q0 -193 -135 -301.5t-375 -108.5h-573v1434h567q226 0 352.5 -96.5t126.5 -278.5q0 -107 -52 -188.5t-148 -122.5zM571 1085h-65v-221h63q117 0 117 103q0 64 -25.5 91t-89.5 27zM506 348h88q125 0 125 119q0 113 -123 113h-90v-232z
" />
    <glyph glyph-name="uni0413" unicode="&#x413;" horiz-adv-x="913" 
d="M72 0v1434h821v-396h-365v-1038h-456z" />
    <glyph glyph-name="uni0414" unicode="&#x414;" horiz-adv-x="1429" 
d="M442 -246h-422v652h113q37 33 58 140.5t24 352.5l10 535h1030v-1028h154v-652h-422v246h-545v-246zM606 406h195v655h-129l-4 -207q-6 -277 -62 -448z" />
    <glyph glyph-name="uni0415" unicode="&#x415;" horiz-adv-x="1005" 
d="M520 541v-154h453v-387h-901v1434h889v-387h-441v-150h367v-356h-367z" />
    <glyph glyph-name="uni0416" unicode="&#x416;" horiz-adv-x="1837" 
d="M1835 0h-500l-170 512h-22v-512h-453v512h-24l-164 -512h-498l309 758l-303 676h510l142 -535h28v535h453v-535h26l148 535h510l-307 -676z" />
    <glyph glyph-name="uni0417" unicode="&#x417;" horiz-adv-x="999" 
d="M776 721q97 -33 151 -121.5t54 -204.5q0 -130 -75 -227.5t-202 -148t-286 -50.5q-210 0 -385 66l102 379q38 -20 98.5 -33.5t114.5 -13.5q63 0 102 27t39 73q0 53 -32.5 79.5t-89.5 26.5h-166v312h166q48 0 82 21.5t34 60.5q0 100 -143 100q-108 0 -197 -47l-102 375
q92 36 176.5 50.5t194.5 14.5q156 0 282 -49.5t200.5 -146t74.5 -224.5q0 -118 -51 -201.5t-142 -117.5z" />
    <glyph glyph-name="uni0418" unicode="&#x418;" horiz-adv-x="1247" 
d="M1178 1434v-1434h-443v598l-270 -598h-393v1434h442v-576l258 576h406z" />
    <glyph glyph-name="uni0419" unicode="&#x419;" horiz-adv-x="1247" 
d="M623 1513q-342 0 -342 304l280 8q0 -90 62 -90q61 0 61 90l281 -8q0 -153 -84 -228.5t-258 -75.5zM514 858l258 576h406v-1434h-443v598l-270 -598h-393v1434h442v-576z" />
    <glyph glyph-name="uni041A" unicode="&#x41a;" horiz-adv-x="1253" 
d="M1249 0h-497l-174 512h-54v-512h-452v1434h452v-535h62l147 535h508l-309 -684z" />
    <glyph glyph-name="uni041B" unicode="&#x41b;" horiz-adv-x="1261" 
d="M20 -10v379q43 -8 68 17.5t40 109.5t19 243l19 695h1024v-1434h-453v1061h-131l-8 -346q-5 -186 -29 -315.5t-66.5 -214.5t-113 -130.5t-158 -60t-211.5 -4.5z" />
    <glyph glyph-name="uni041C" unicode="&#x41c;" horiz-adv-x="1406" 
d="M702 897l226 537h407v-1434h-415v612l-148 -405h-139l-146 405v-612h-415v1434h407z" />
    <glyph glyph-name="uni041D" unicode="&#x41d;" horiz-adv-x="1263" 
d="M737 911v523h455v-1434h-455v512h-211v-512h-454v1434h454v-523h211z" />
    <glyph glyph-name="uni041E" unicode="&#x41e;" horiz-adv-x="1284" 
d="M641 -29q-270 0 -434 198.5t-164 545.5q0 222 70.5 390.5t207 262.5t320.5 94q271 0 434.5 -198t163.5 -545q0 -222 -70.5 -390.5t-207 -263t-320.5 -94.5zM641 387q64 0 100.5 83.5t36.5 244.5q0 162 -35.5 247t-101.5 85q-64 0 -100.5 -84t-36.5 -246q0 -156 35.5 -243
t101.5 -87z" />
    <glyph glyph-name="uni041F" unicode="&#x41f;" horiz-adv-x="1234" 
d="M1165 1434v-1434h-454v1028h-189v-1028h-450v1434h1093z" />
    <glyph glyph-name="uni0420" unicode="&#x420;" horiz-adv-x="1167" 
d="M588 1434q257 0 405 -143t148 -402q0 -255 -145.5 -404t-407.5 -149h-64v-336h-452v1434h516zM524 709h51q56 0 86.5 44.5t30.5 127.5q0 78 -31 126t-86 48h-51v-346z" />
    <glyph glyph-name="uni0421" unicode="&#x421;" horiz-adv-x="1038" 
d="M674 -29q-295 0 -463 195t-168 549q0 353 165.5 550t463.5 197q162 0 332 -86l-109 -385q-101 56 -193 56q-194 0 -194 -330q0 -332 197 -332q96 0 190 57l113 -385q-67 -39 -158 -62.5t-176 -23.5z" />
    <glyph glyph-name="uni0422" unicode="&#x422;" horiz-adv-x="1009" 
d="M20 1434h971v-406h-260v-1028h-452v1028h-259v406z" />
    <glyph glyph-name="uni0423" unicode="&#x423;" horiz-adv-x="1091" 
d="M641 1434h451l-330 -1076q0 -6 -2 -10l-15 -45q-51 -158 -158.5 -243t-269.5 -85q-167 0 -256 60l89 373q83 -41 129 -41q29 0 43 26l-324 1041h455l94 -586h2z" />
    <glyph glyph-name="uni0424" unicode="&#x424;" horiz-adv-x="1675" 
d="M1632 719q0 -248 -159 -410t-412 -176v-133h-447v133q-255 12 -413 176t-158 406q0 244 157 408.5t414 176.5v134h447v-134q254 -14 412.5 -173.5t158.5 -407.5zM500 717q0 -97 31 -155t83 -64v438q-52 -6 -83 -64t-31 -155zM1061 936v-436q52 8 82.5 65t30.5 150
q0 96 -30 154.5t-83 66.5z" />
    <glyph glyph-name="uni0425" unicode="&#x425;" horiz-adv-x="1239" 
d="M952 717l283 -717h-494l-120 440l-119 -440h-498l277 717l-256 717h491l102 -414l103 414h489z" />
    <glyph glyph-name="uni0426" unicode="&#x426;" horiz-adv-x="1339" 
d="M897 0h-825v1434h450v-1028h189v1028h454v-1028h154v-652h-422v246z" />
    <glyph glyph-name="uni0427" unicode="&#x427;" horiz-adv-x="1259" 
d="M735 780v654h453v-1434h-453v434q-162 -57 -291 -57q-183 0 -284 125.5t-101 365.5v566h447v-527q0 -81 25.5 -117t76.5 -36q77 0 127 26z" />
    <glyph glyph-name="uni0428" unicode="&#x428;" horiz-adv-x="1740" 
d="M1671 0h-1599v1434h452v-1028h121v1028h453v-1028h121v1028h452v-1434z" />
    <glyph glyph-name="uni0429" unicode="&#x429;" horiz-adv-x="1845" 
d="M1671 1434v-1028h154v-652h-422v246h-1331v1434h452v-1028h121v1028h453v-1028h121v1028h452z" />
    <glyph glyph-name="uni042A" unicode="&#x42a;" horiz-adv-x="1302" 
d="M657 1098h64q262 0 406.5 -148.5t144.5 -404.5q0 -259 -148 -402t-403 -143h-516v1028h-185v406h637v-336zM657 379h52q55 0 85.5 46t30.5 124q0 81 -31 125.5t-85 44.5h-52v-340z" />
    <glyph glyph-name="uni042B" unicode="&#x42b;" horiz-adv-x="1759" 
d="M524 1098h64q261 0 406 -149t145 -404q0 -259 -148 -402t-403 -143h-516v1434h452v-336zM1235 0v1434h453v-1434h-453zM524 379h51q55 0 86 46t31 124q0 81 -31 125.5t-86 44.5h-51v-340z" />
    <glyph glyph-name="uni042C" unicode="&#x42c;" horiz-adv-x="1163" 
d="M524 1098h64q261 0 406 -149t145 -404q0 -259 -148 -402t-403 -143h-516v1434h452v-336zM524 379h51q55 0 86 46t31 124q0 81 -31 125.5t-86 44.5h-51v-340z" />
    <glyph glyph-name="uni042D" unicode="&#x42d;" horiz-adv-x="1038" 
d="M367 1462q298 0 463 -197t165 -550q0 -355 -168 -549.5t-462 -194.5q-86 0 -176.5 23.5t-155.5 62.5l110 385q94 -57 193 -57q143 0 182 176h-285v309h285q-39 177 -182 177q-90 0 -191 -56l-108 385q166 86 330 86z" />
    <glyph glyph-name="uni042E" unicode="&#x42e;" horiz-adv-x="1804" 
d="M1159 1462q275 0 437.5 -197.5t162.5 -545.5q0 -343 -160 -545.5t-440 -202.5q-232 0 -381.5 145.5t-187.5 409.5h-66v-526h-452v1434h452v-535h64q39 264 186 413.5t385 149.5zM1159 350q139 0 139 365q0 370 -139 370q-65 0 -101 -92.5t-36 -275.5t35.5 -275t101.5 -92
z" />
    <glyph glyph-name="uni042F" unicode="&#x42f;" horiz-adv-x="1171" 
d="M1102 1434v-1434h-453v387h-45l-133 -387h-471l207 498q-178 140 -178 415q0 248 148 384.5t403 136.5h522zM590 756h59v299h-59q-54 0 -85.5 -40.5t-31.5 -107.5q0 -72 31.5 -111.5t85.5 -39.5z" />
    <glyph glyph-name="uni0430" unicode="&#x430;" horiz-adv-x="1069" 
d="M496 1180q265 0 391.5 -136t126.5 -366v-678h-432v143q-38 -83 -105 -126.5t-145 -43.5q-147 0 -229.5 91.5t-82.5 275.5q0 167 96 255.5t285 88.5q99 0 181 -6v14q0 68 -35.5 102.5t-114.5 34.5q-125 0 -268 -47l-35 344q185 54 367 54zM498 293q84 0 84 196v9
q-32 4 -60 4q-40 0 -62 -27.5t-22 -77.5q0 -45 17 -74.5t43 -29.5z" />
    <glyph glyph-name="uni0431" unicode="&#x431;" horiz-adv-x="1118" 
d="M567 -29q-200 0 -342 144t-180 387q-14 80 -14 182q0 115 16 210t43 165.5t70.5 126.5t91 94.5t113 69t128 49t142.5 35.5q113 26 181 46t134 54l25 -369q-44 -27 -98 -47.5t-88.5 -28.5t-96.5 -20q-103 -22 -150 -61.5t-69 -145.5q100 113 260 113q155 0 254.5 -133.5
t99.5 -356.5q0 -230 -143.5 -372t-376.5 -142zM571 336q78 0 78 162q0 73 -20 113t-54 40q-88 0 -88 -155q0 -78 22.5 -119t61.5 -41z" />
    <glyph glyph-name="uni0432" unicode="&#x432;" horiz-adv-x="1075" 
d="M801 604q243 -59 243 -266q0 -159 -117 -248.5t-337 -89.5h-529v1151h510q201 0 314.5 -76.5t113.5 -220.5q0 -87 -49.5 -152t-148.5 -98zM532 848h-49v-170h41q35 0 55.5 22t20.5 62q0 39 -17.5 62.5t-50.5 23.5zM483 303h66q37 0 57.5 23t20.5 67q0 40 -19.5 63
t-58.5 23h-66v-176z" />
    <glyph glyph-name="uni0433" unicode="&#x433;" horiz-adv-x="757" 
d="M61 -2v1151h693v-354h-260v-797h-433z" />
    <glyph glyph-name="uni0434" unicode="&#x434;" horiz-adv-x="1275" 
d="M1135 1149v-797h137v-557h-418v205h-432v-205h-418v557h80q31 21 52 83t24 153l14 561h961zM545 352h157v447h-108l-6 -195q-3 -151 -43 -252z" />
    <glyph glyph-name="uni0435" unicode="&#x435;" horiz-adv-x="1064" 
d="M1012 471h-561q23 -160 153 -160q119 0 223 72l131 -287q-70 -57 -170 -90t-217 -33q-246 0 -393 165t-147 440q0 270 139 434t381 164q221 0 352 -148t131 -395q0 -76 -22 -162zM451 668h172q0 176 -82 176q-42 0 -63 -43.5t-27 -132.5z" />
    <glyph glyph-name="uni0436" unicode="&#x436;" horiz-adv-x="1642" 
d="M1642 0h-473l-108 381h-27v-381h-426v381h-26l-109 -381h-473l258 639l-233 512h471l79 -379h33v377h426v-377h33l80 379h471l-236 -514z" />
    <glyph glyph-name="uni0437" unicode="&#x437;" horiz-adv-x="815" 
d="M342 -29q-170 0 -336 60l82 313q34 -16 87 -27.5t89 -11.5q48 0 77.5 18t29.5 50t-25.5 50.5t-75.5 18.5h-110v273h119q90 0 90 59q0 33 -29 50.5t-76 17.5q-87 0 -164 -35l-80 305q152 59 316 59q196 0 323 -96.5t127 -251.5q0 -85 -36 -151t-97 -99q63 -32 101.5 -98
t38.5 -153q0 -155 -127 -253t-324 -98z" />
    <glyph glyph-name="uni0438" unicode="&#x438;" horiz-adv-x="1134" 
d="M1073 1149v-1149h-432v397l-203 -397h-377v1149h433v-375l188 375h391z" />
    <glyph glyph-name="uni0439" unicode="&#x439;" horiz-adv-x="1134" 
d="M565 1229q-172 0 -257 75t-85 228l281 8q0 -90 61 -90q62 0 62 90l280 -8q0 -153 -84 -228t-258 -75zM494 774l188 375h391v-1149h-432v397l-203 -397h-377v1149h433v-375z" />
    <glyph glyph-name="uni043A" unicode="&#x43a;" 
d="M1128 0h-475l-114 381h-45v-381h-433v1151h433v-391h45l94 391h471l-242 -524z" />
    <glyph glyph-name="uni043B" unicode="&#x43b;" horiz-adv-x="1122" 
d="M1061 1149v-1149h-434v791h-84l-11 -297q-3 -96 -16 -172t-39.5 -140t-67.5 -105t-99 -67.5t-134 -27.5t-172 16l2 336q37 -6 58 15.5t28 59.5t8 103l23 637h938z" />
    <glyph glyph-name="uni043C" unicode="&#x43c;" horiz-adv-x="1263" 
d="M633 817l141 334h428v-1151h-422v408l-104 -242h-88l-105 242v-408h-422v1151h428z" />
    <glyph glyph-name="uni043D" unicode="&#x43d;" horiz-adv-x="1122" 
d="M627 748v403h434v-1151h-434v416h-133v-416h-433v1151h433v-403h133z" />
    <glyph glyph-name="uni043E" unicode="&#x43e;" 
d="M561 -29q-240 0 -385 162t-145 445q0 271 143 436.5t389 165.5q241 0 387 -160t146 -440q0 -275 -143.5 -442t-391.5 -167zM563 354q90 0 90 224q0 221 -92 221q-90 0 -90 -219q0 -226 92 -226z" />
    <glyph glyph-name="uni043F" unicode="&#x43f;" horiz-adv-x="1120" 
d="M1059 1149v-1151h-432v801h-133v-801h-433v1151h998z" />
    <glyph glyph-name="uni0440" unicode="&#x440;" horiz-adv-x="1155" 
d="M496 -352h-435v1501h435v-92q99 121 235 121q178 0 285.5 -166t107.5 -443q0 -270 -108.5 -434t-288.5 -164q-134 0 -231 119v-442zM592 348q42 0 66 60t24 161q0 110 -23 170t-67 60q-51 0 -73.5 -64.5t-22.5 -163.5t26.5 -161t69.5 -62z" />
    <glyph glyph-name="uni0441" unicode="&#x441;" horiz-adv-x="851" 
d="M571 -29q-251 0 -395.5 163t-144.5 441q0 276 146.5 440.5t391.5 164.5q146 0 277 -70l-103 -350q-74 43 -135 43q-62 0 -100.5 -59t-38.5 -166q0 -111 38 -170.5t101 -59.5q71 0 137 39l103 -348q-131 -68 -277 -68z" />
    <glyph glyph-name="uni0442" unicode="&#x442;" horiz-adv-x="890" 
d="M18 1149h856v-346h-212v-803h-433v803h-211v346z" />
    <glyph glyph-name="uni0443" unicode="&#x443;" horiz-adv-x="1116" 
d="M338 -379q-158 0 -275 45l52 307q82 -16 153 -16q103 0 129 92l2 10h-67l-328 1094h447l104 -657h4l103 657h450l-289 -1090q-61 -250 -168.5 -346t-316.5 -96z" />
    <glyph glyph-name="uni0444" unicode="&#x444;" horiz-adv-x="1595" 
d="M1565 580q0 -175 -68 -310t-193.5 -210t-289.5 -78v-332h-432v332q-118 2 -219 43t-175 115.5t-115.5 186t-41.5 248.5q0 263 150.5 425.5t400.5 168.5v265h432v-265q244 -6 397.5 -162.5t153.5 -426.5zM471 578q0 -214 111 -222v439q-111 -6 -111 -217zM1014 795v-439
q57 5 83.5 56t26.5 163q0 212 -110 220z" />
    <glyph glyph-name="uni0445" unicode="&#x445;" horiz-adv-x="1136" 
d="M862 569l277 -569h-469l-103 293l-100 -293h-467l270 567l-254 582h471l80 -279l82 279h467z" />
    <glyph glyph-name="uni0446" unicode="&#x446;" horiz-adv-x="1204" 
d="M1059 1151v-799h141v-557h-418v205h-721v1151h433v-799h133v799h432z" />
    <glyph glyph-name="uni0447" unicode="&#x447;" horiz-adv-x="1116" 
d="M623 719v426h432v-1145h-432v369q-143 -68 -271 -68q-146 0 -224.5 111.5t-78.5 326.5v406h432v-342q0 -109 70 -109q36 0 72 25z" />
    <glyph glyph-name="uni0448" unicode="&#x448;" horiz-adv-x="1640" 
d="M1147 352v797h432v-1149h-1518v1149h433v-797h110v797h432v-797h111z" />
    <glyph glyph-name="uni0449" unicode="&#x449;" horiz-adv-x="1720" 
d="M1579 1149v-797h137v-557h-418v205h-1237v1149h433v-797h110v797h432v-797h111v797h432z" />
    <glyph glyph-name="uni044A" unicode="&#x44a;" horiz-adv-x="1150" 
d="M582 915h39q231 0 366 -120.5t135 -335.5q0 -212 -131.5 -335.5t-369.5 -123.5h-471v807h-201v342h633v-234zM582 350h26q36 0 58 29t22 82q0 51 -21 80.5t-59 29.5h-26v-221z" />
    <glyph glyph-name="uni044B" unicode="&#x44b;" horiz-adv-x="1628" 
d="M494 915h41q230 0 365.5 -121t135.5 -335q0 -212 -132.5 -335.5t-371.5 -123.5h-471v1149h433v-234zM1133 0v1149h434v-1149h-434zM494 350h28q36 0 57 29t21 82q0 51 -20.5 80.5t-57.5 29.5h-28v-221z" />
    <glyph glyph-name="uni044C" unicode="&#x44c;" horiz-adv-x="1056" 
d="M494 915h41q230 0 365.5 -121t135.5 -335q0 -212 -132.5 -335.5t-371.5 -123.5h-471v1149h433v-234zM494 350h28q36 0 57 29t21 82q0 51 -20.5 80.5t-57.5 29.5h-28v-221z" />
    <glyph glyph-name="uni044D" unicode="&#x44d;" horiz-adv-x="870" 
d="M293 1180q254 0 400.5 -166t146.5 -439q0 -274 -146 -439t-403 -165q-76 0 -153.5 24.5t-135.5 72.5l139 329q54 -49 125 -49q86 0 121 115h-209v227h209q-17 55 -49 84t-74 29q-61 0 -123 -49l-137 329q123 97 289 97z" />
    <glyph glyph-name="uni044E" unicode="&#x44e;" horiz-adv-x="1675" 
d="M1114 1180q240 0 385.5 -160t145.5 -440q0 -275 -143.5 -442t-389.5 -167q-199 0 -336.5 113t-179.5 317h-102v-401h-433v1151h433v-399h104q42 198 177 313t339 115zM1114 354q88 0 88 224q0 221 -90 221q-92 0 -92 -219q0 -226 94 -226z" />
    <glyph glyph-name="uni044F" unicode="&#x44f;" horiz-adv-x="1058" 
d="M520 1149h477v-1149h-426v309h-24l-96 -309h-451l170 408q-137 112 -137 313q0 207 130.5 317.5t356.5 110.5zM530 602h41v203h-41q-38 0 -57.5 -26.5t-19.5 -67.5q0 -54 20.5 -81.5t56.5 -27.5z" />
    <glyph glyph-name="uni0450" unicode="&#x450;" horiz-adv-x="1064" 
d="M553 1581l139 -332l-278 -18l-232 295zM999 469h-544q13 -81 53.5 -117.5t109.5 -36.5q123 0 248 58l70 -312q-75 -42 -172.5 -66t-194.5 -24q-242 0 -390 164t-148 443q0 272 141.5 436t392.5 164q222 0 345.5 -140.5t123.5 -373.5q0 -88 -35 -195zM451 666l176 2
q-2 90 -22 133t-64 43t-64.5 -43.5t-25.5 -134.5z" />
    <glyph glyph-name="uni0451" unicode="&#x451;" horiz-adv-x="1064" 
d="M213 1522h285v-291h-285v291zM582 1522h284v-291h-284v291zM999 469h-544q13 -81 53.5 -117.5t109.5 -36.5q123 0 248 58l70 -312q-75 -42 -172.5 -66t-194.5 -24q-242 0 -390 164t-148 443q0 272 141.5 436t392.5 164q222 0 345.5 -140.5t123.5 -373.5q0 -88 -35 -195z
M451 666l176 2q-2 90 -22 133t-64 43t-64.5 -43.5t-25.5 -134.5z" />
    <glyph glyph-name="uni0452" unicode="&#x452;" horiz-adv-x="1228" 
d="M868 1180q148 0 227 -106.5t79 -315.5v-758q0 -83 -23.5 -152.5t-72 -124t-129 -85.5t-187.5 -31q-78 0 -174 28l26 353q37 -11 60 -11q31 0 48 19.5t17 56.5v611q0 118 -65 118q-58 0 -78 -106v-676h-434v1210h-119v172h119v129h434v-129h156v-172h-156v-200
q46 80 115 125t157 45z" />
    <glyph glyph-name="uni0453" unicode="&#x453;" horiz-adv-x="757" 
d="M739 1526l-229 -295l-281 18l140 332zM61 -2v1151h693v-354h-260v-797h-433z" />
    <glyph glyph-name="uni0454" unicode="&#x454;" horiz-adv-x="851" 
d="M745 387l103 -348q-131 -68 -277 -68q-251 0 -395.5 163t-144.5 441q0 276 146.5 440.5t391.5 164.5q146 0 277 -70l-103 -350q-74 43 -135 43q-88 0 -123 -109h207v-225h-211q15 -59 48.5 -90t78.5 -31q71 0 137 39z" />
    <glyph glyph-name="uni0455" unicode="&#x455;" horiz-adv-x="849" 
d="M393 -29q-112 0 -191 13.5t-175 46.5l47 346q61 -30 137 -48t141 -18q54 0 54 45q0 19 -24 36.5t-85 47.5q-138 55 -204 136t-66 231q0 120 61.5 206.5t157 126.5t211.5 40q165 0 321 -58l-47 -342q-141 56 -235 56q-60 0 -60 -48q0 -42 101 -81q68 -27 116.5 -56.5
t90 -72.5t62.5 -102.5t21 -135.5q0 -168 -121.5 -268.5t-312.5 -100.5z" />
    <glyph glyph-name="uni0456" unicode="&#x456;" horiz-adv-x="557" 
d="M502 1231h-449v291h449v-291zM496 0h-435v1149h435v-1149z" />
    <glyph glyph-name="uni0457" unicode="&#x457;" horiz-adv-x="557" 
d="M236 1231h-285v291h285v-291zM604 1231h-285v291h285v-291zM496 0h-435v1149h435v-1149z" />
    <glyph glyph-name="uni0458" unicode="&#x458;" horiz-adv-x="561" 
d="M506 1231h-449v291h449v-291zM-63 -367l4 316q16 2 63 2q64 0 64 106v1092h434v-1077q0 -241 -111 -348t-325 -107q-74 0 -129 16z" />
    <glyph glyph-name="uni0459" unicode="&#x459;" horiz-adv-x="1611" 
d="M1053 893h32q232 0 364 -117.5t132 -322.5q0 -214 -132.5 -333.5t-356.5 -119.5h-465v791h-84l-11 -297q-5 -193 -56 -306.5t-166 -162t-306 -27.5l2 336q37 -6 58 15.5t28 59.5t8 103l23 637h930v-256zM1053 344h28q72 0 72 111q0 55 -19 83.5t-53 28.5h-28v-223z" />
    <glyph glyph-name="uni045A" unicode="&#x45a;" horiz-adv-x="1619" 
d="M1061 844h26q232 0 367 -106t135 -300q0 -205 -128.5 -321.5t-366.5 -116.5h-467v506h-133v-506h-433v1151h433v-320h133v318h434v-305zM1061 338h20q36 0 58 25t22 71q0 37 -21 59.5t-59 22.5h-20v-178z" />
    <glyph glyph-name="uni045B" unicode="&#x45b;" horiz-adv-x="1169" 
d="M811 1180q146 0 224.5 -106.5t78.5 -315.5v-758h-434v664q0 118 -66 118q-27 0 -47.5 -29t-29.5 -87v-666h-435v1210h-118v172h118v129h435v-129h155v-172h-155v-204q99 174 274 174z" />
    <glyph glyph-name="uni045C" unicode="&#x45c;" 
d="M539 1581l370 -55l-229 -295l-281 18zM1128 0h-475l-114 381h-45v-381h-433v1151h433v-391h45l94 391h471l-242 -524z" />
    <glyph glyph-name="uni045D" unicode="&#x45d;" horiz-adv-x="1134" 
d="M719 1249l-279 -18l-231 295l371 55zM1073 1149v-1149h-432v397l-203 -397h-377v1149h433v-375l188 375h391z" />
    <glyph glyph-name="uni045E" unicode="&#x45e;" horiz-adv-x="1116" 
d="M559 1229q-172 0 -257 75t-85 228l281 8q0 -90 61 -90q62 0 62 90l280 -8q0 -153 -84 -228t-258 -75zM559 496l103 657h450l-289 -1090q-61 -250 -168.5 -346t-316.5 -96q-158 0 -275 45l52 307q82 -16 153 -16q103 0 129 92l2 10h-67l-328 1094h447l104 -657h4z" />
    <glyph glyph-name="uni045F" unicode="&#x45f;" horiz-adv-x="1120" 
d="M627 1151h432v-1151h-283v-250h-430v250h-285v1151h433v-799h133v799z" />
    <glyph glyph-name="uni0474" unicode="&#x474;" horiz-adv-x="1226" 
d="M868 0h-532l-338 1434h461l139 -904h14l60 467q38 232 176.5 356t363.5 124v-457q-62 -3 -100 -50t-49 -102z" />
    <glyph glyph-name="uni0474" unicode="&#x475;" horiz-adv-x="1226" 
d="M868 0h-532l-338 1434h461l139 -904h14l60 467q38 232 176.5 356t363.5 124v-457q-62 -3 -100 -50t-49 -102z" />
    <glyph glyph-name="uni0490" unicode="&#x490;" horiz-adv-x="913" 
d="M469 1434v227h424v-623h-365v-1038h-456v1434h397z" />
    <glyph glyph-name="uni0491" unicode="&#x491;" horiz-adv-x="757" 
d="M360 1149v213h394v-567h-260v-797h-433v1151h299z" />
    <glyph glyph-name="uni04D9" unicode="&#x4d9;" horiz-adv-x="1064" 
d="M494 1176q246 0 393 -165t147 -440q0 -270 -139 -434t-381 -164q-221 0 -352 148t-131 395q0 76 22 162h561q-23 160 -153 160q-119 0 -223 -72l-132 287q69 57 170 90t218 33zM524 305q42 0 63 43.5t27 132.5h-172q0 -176 82 -176z" />
    <glyph glyph-name="uni1E0C" unicode="&#x1e0c;" horiz-adv-x="1269" 
d="M608 0h-536v1434h536q289 0 454 -191t165 -522q0 -335 -164.5 -528t-454.5 -193zM524 1028v-622h64q88 0 132 75.5t44 237.5q0 309 -176 309h-64zM313 -371v291h418v-291h-418z" />
    <glyph glyph-name="uni1E0D" unicode="&#x1e0d;" horiz-adv-x="1159" 
d="M426 -27q-178 0 -285.5 165t-107.5 442q0 271 108 435.5t289 164.5q136 0 232 -121v452h434v-1511h-434v92q-100 -119 -236 -119zM565 352q50 0 73.5 63t23.5 158q0 101 -26.5 164.5t-70.5 63.5q-43 0 -66.5 -59.5t-23.5 -161.5q0 -228 90 -228zM408 -371v291h417v-291
h-417z" />
    <glyph glyph-name="uni1E0E" unicode="&#x1e0e;" horiz-adv-x="1269" 
d="M608 0h-536v1434h536q289 0 454 -191t165 -522q0 -335 -164.5 -528t-454.5 -193zM524 1028v-622h64q88 0 132 75.5t44 237.5q0 309 -176 309h-64zM862 -332h-678v232h678v-232z" />
    <glyph glyph-name="uni1E0F" unicode="&#x1e0f;" horiz-adv-x="1159" 
d="M426 -27q-178 0 -285.5 165t-107.5 442q0 271 108 435.5t289 164.5q136 0 232 -121v452h434v-1511h-434v92q-100 -119 -236 -119zM565 352q50 0 73.5 63t23.5 158q0 101 -26.5 164.5t-70.5 63.5q-43 0 -66.5 -59.5t-23.5 -161.5q0 -228 90 -228zM956 -332h-677v232h677
v-232z" />
    <glyph glyph-name="uni1E20" unicode="&#x1e20;" horiz-adv-x="1187" 
d="M338 1761h678v-231h-678v231zM674 500v319h461v-696q-221 -152 -480 -152q-288 0 -450 195t-162 549q0 351 175 549t464 198q180 0 362 -80l-104 -403q-122 72 -225 72q-219 0 -219 -338q0 -165 44.5 -256.5t125.5 -91.5q41 0 75 12v123h-67z" />
    <glyph glyph-name="uni1E21" unicode="&#x1e21;" horiz-adv-x="1071" 
d="M190 1509h678v-231h-678v231zM514 313l107 2q232 1 344 -78t112 -239q0 -182 -147.5 -279.5t-427.5 -97.5q-227 0 -338 71t-111 218q0 114 117 199q-115 49 -115 184q0 111 121 201q-125 107 -125 292q0 180 131 287t355 107q128 0 206 -37l248 78l68 -260l-101 -11
q62 -77 62 -164q0 -187 -124.5 -293t-356.5 -106q-30 0 -84 4q-15 -23 -15 -39q0 -39 74 -39zM537 895q-27 0 -42.5 -29.5t-15.5 -77.5q0 -120 58 -120q26 0 40.5 31.5t14.5 86.5q0 50 -14.5 79.5t-40.5 29.5zM541 -90q49 0 72.5 22t23.5 72q0 74 -94 74h-58
q-22 -37 -22 -76q0 -92 78 -92z" />
    <glyph glyph-name="uni1E24" unicode="&#x1e24;" horiz-adv-x="1263" 
d="M737 911v523h455v-1434h-455v512h-211v-512h-454v1434h454v-523h211zM842 -371h-418v291h418v-291z" />
    <glyph glyph-name="uni1E25" unicode="&#x1e25;" horiz-adv-x="1130" 
d="M772 1180q146 0 224.5 -106.5t78.5 -315.5v-758h-434v664q0 118 -66 118q-27 0 -47.5 -29t-29.5 -87v-666h-435v1511h435v-505q99 174 274 174zM780 -371h-418v291h418v-291z" />
    <glyph glyph-name="uni1E2A" unicode="&#x1e2a;" horiz-adv-x="1263" 
d="M737 911v523h455v-1434h-455v512h-211v-512h-454v1434h454v-523h211zM633 -131q49 0 49 65l217 -4q0 -113 -65 -169t-201 -56q-135 0 -200.5 55.5t-65.5 169.5l219 4q0 -65 47 -65z" />
    <glyph glyph-name="uni1E2B" unicode="&#x1e2b;" horiz-adv-x="1130" 
d="M772 1180q146 0 224.5 -106.5t78.5 -315.5v-758h-434v664q0 118 -66 118q-27 0 -47.5 -29t-29.5 -87v-666h-435v1511h435v-505q99 174 274 174zM571 -131q50 0 50 65l217 -4q0 -113 -65.5 -169t-201.5 -56q-135 0 -200.5 55.5t-65.5 169.5l219 4q0 -65 47 -65z" />
    <glyph glyph-name="uni1E36" unicode="&#x1e36;" horiz-adv-x="921" 
d="M893 0h-821v1434h456v-1039h365v-395zM262 -371v291h418v-291h-418z" />
    <glyph glyph-name="uni1E37" unicode="&#x1e37;" horiz-adv-x="561" 
d="M498 0h-435v1511h435v-1511zM88 -371v291h418v-291h-418z" />
    <glyph glyph-name="uni1E38" unicode="&#x1e38;" horiz-adv-x="921" 
d="M655 1530h-678v231h678v-231zM893 0h-821v1434h456v-1039h365v-395zM262 -371v291h418v-291h-418z" />
    <glyph glyph-name="uni1E39" unicode="&#x1e39;" horiz-adv-x="561" 
d="M637 1608h-678v231h678v-231zM498 0h-435v1511h435v-1511zM88 -371v291h418v-291h-418z" />
    <glyph glyph-name="uni1E3A" unicode="&#x1e3a;" horiz-adv-x="921" 
d="M893 0h-821v1434h456v-1039h365v-395zM809 -332h-678v232h678v-232z" />
    <glyph glyph-name="uni1E3B" unicode="&#x1e3b;" horiz-adv-x="561" 
d="M498 0h-435v1511h435v-1511zM637 -332h-678v232h678v-232z" />
    <glyph glyph-name="uni1E42" unicode="&#x1e42;" horiz-adv-x="1454" 
d="M922 1434h434l53 -1434h-426l-27 598l-139 -598h-180l-139 598l-27 -598h-428l55 1434h422l205 -689zM938 -371h-418v291h418v-291z" />
    <glyph glyph-name="uni1E43" unicode="&#x1e43;" horiz-adv-x="1669" 
d="M1313 1180q148 0 224.5 -100.5t76.5 -299.5v-780h-432v680q0 106 -56 106q-54 0 -71 -92v-694h-434v680q0 106 -54 106q-59 0 -73 -102v-684h-433v1149h433v-94q104 125 258 125q191 0 262 -164q53 76 130.5 120t168.5 44zM1049 -371h-418v291h418v-291z" />
    <glyph glyph-name="uni1E44" unicode="&#x1e44;" horiz-adv-x="1261" 
d="M856 1513h-448v283h448v-283zM512 0h-440v1434h417l259 -584v584h442v-1434h-408l-270 604v-604z" />
    <glyph glyph-name="uni1E45" unicode="&#x1e45;" 
d="M344 1522h449v-291h-449v291zM768 1180q146 0 224.5 -106.5t78.5 -315.5v-758h-434v664q0 118 -66 118q-48 0 -77 -71v-711h-433v1149h433v-143q99 174 274 174z" />
    <glyph glyph-name="uni1E46" unicode="&#x1e46;" horiz-adv-x="1261" 
d="M512 0h-440v1434h417l259 -584v584h442v-1434h-408l-270 604v-604zM424 -371v291h418v-291h-418z" />
    <glyph glyph-name="uni1E47" unicode="&#x1e47;" 
d="M768 1180q146 0 224.5 -106.5t78.5 -315.5v-758h-434v664q0 118 -66 118q-48 0 -77 -71v-711h-433v1149h433v-143q99 174 274 174zM778 -371h-418v291h418v-291z" />
    <glyph glyph-name="uni1E48" unicode="&#x1e48;" horiz-adv-x="1261" 
d="M512 0h-440v1434h417l259 -584v584h442v-1434h-408l-270 604v-604zM971 -332h-678v232h678v-232z" />
    <glyph glyph-name="uni1E49" unicode="&#x1e49;" 
d="M768 1180q146 0 224.5 -106.5t78.5 -315.5v-758h-434v664q0 118 -66 118q-48 0 -77 -71v-711h-433v1149h433v-143q99 174 274 174zM907 -332h-678v232h678v-232z" />
    <glyph glyph-name="uni1E5A" unicode="&#x1e5a;" horiz-adv-x="1171" 
d="M553 387h-29v-387h-452v1434h522q254 0 402.5 -137t148.5 -384q0 -141 -49.5 -249.5t-143.5 -176.5l219 -487h-471zM584 1055h-60v-299h60q52 0 83 39.5t31 111.5q0 67 -30.5 107.5t-83.5 40.5zM813 -371h-418v291h418v-291z" />
    <glyph glyph-name="uni1E5B" unicode="&#x1e5b;" horiz-adv-x="772" 
d="M688 1174q29 0 80 -15l-31 -414q-61 11 -110 11q-62 0 -96.5 -68t-34.5 -196v-492h-435v1149h435v-109q73 134 192 134zM492 -371h-418v291h418v-291z" />
    <glyph glyph-name="uni1E5C" unicode="&#x1e5c;" horiz-adv-x="1171" 
d="M256 1761h678v-231h-678v231zM553 387h-29v-387h-452v1434h522q254 0 402.5 -137t148.5 -384q0 -141 -49.5 -249.5t-143.5 -176.5l219 -487h-471zM584 1055h-60v-299h60q52 0 83 39.5t31 111.5q0 67 -30.5 107.5t-83.5 40.5zM813 -371h-418v291h418v-291z" />
    <glyph glyph-name="uni1E5D" unicode="&#x1e5d;" horiz-adv-x="772" 
d="M35 1485h678v-232h-678v232zM688 1174q29 0 80 -15l-31 -414q-61 11 -110 11q-62 0 -96.5 -68t-34.5 -196v-492h-435v1149h435v-109q73 134 192 134zM492 -371h-418v291h418v-291z" />
    <glyph glyph-name="uni1E5E" unicode="&#x1e5e;" horiz-adv-x="1171" 
d="M553 387h-29v-387h-452v1434h522q254 0 402.5 -137t148.5 -384q0 -141 -49.5 -249.5t-143.5 -176.5l219 -487h-471zM584 1055h-60v-299h60q52 0 83 39.5t31 111.5q0 67 -30.5 107.5t-83.5 40.5zM942 -332h-678v232h678v-232z" />
    <glyph glyph-name="uni1E5F" unicode="&#x1e5f;" horiz-adv-x="772" 
d="M688 1174q29 0 80 -15l-31 -414q-61 11 -110 11q-62 0 -96.5 -68t-34.5 -196v-492h-435v1149h435v-109q73 134 192 134zM621 -332h-678v232h678v-232z" />
    <glyph glyph-name="uni1E60" unicode="&#x1e60;" horiz-adv-x="976" 
d="M754 1513h-449v283h449v-283zM446 -31q-228 0 -421 78l45 369q60 -27 147 -46.5t152 -19.5q114 0 114 76q0 29 -30.5 60t-92.5 73q-329 168 -329 442q0 213 138.5 337t369.5 124q98 0 201.5 -16.5t172.5 -46.5l-43 -379q-137 57 -258 57q-100 0 -100 -78q0 -65 125 -145
q330 -161 330 -448q0 -203 -143.5 -320t-377.5 -117z" />
    <glyph glyph-name="uni1E61" unicode="&#x1e61;" horiz-adv-x="849" 
d="M668 1231h-449v291h449v-291zM393 -29q-112 0 -191 13.5t-175 46.5l47 346q61 -30 137 -48t141 -18q54 0 54 45q0 19 -24 36.5t-85 47.5q-138 55 -204 136t-66 231q0 120 61.5 206.5t157 126.5t211.5 40q165 0 321 -58l-47 -342q-141 56 -235 56q-60 0 -60 -48
q0 -42 101 -81q68 -27 116.5 -56.5t90 -72.5t62.5 -102.5t21 -135.5q0 -168 -121.5 -268.5t-312.5 -100.5z" />
    <glyph glyph-name="uni1E62" unicode="&#x1e62;" horiz-adv-x="976" 
d="M446 -31q-228 0 -421 78l45 369q60 -27 147 -46.5t152 -19.5q114 0 114 76q0 29 -30.5 60t-92.5 73q-329 168 -329 442q0 213 138.5 337t369.5 124q98 0 201.5 -16.5t172.5 -46.5l-43 -379q-137 57 -258 57q-100 0 -100 -78q0 -65 125 -145q330 -161 330 -448
q0 -203 -143.5 -320t-377.5 -117zM279 -371v291h417v-291h-417z" />
    <glyph glyph-name="uni1E63" unicode="&#x1e63;" horiz-adv-x="849" 
d="M393 -29q-112 0 -191 13.5t-175 46.5l47 346q61 -30 137 -48t141 -18q54 0 54 45q0 19 -24 36.5t-85 47.5q-138 55 -204 136t-66 231q0 120 61.5 206.5t157 126.5t211.5 40q165 0 321 -58l-47 -342q-141 56 -235 56q-60 0 -60 -48q0 -42 101 -81q68 -27 116.5 -56.5
t90 -72.5t62.5 -102.5t21 -135.5q0 -168 -121.5 -268.5t-312.5 -100.5zM236 -371v291h417v-291h-417z" />
    <glyph glyph-name="uni1E6C" unicode="&#x1e6c;" horiz-adv-x="1009" 
d="M20 1434h971v-406h-260v-1028h-452v1028h-259v406zM717 -371h-418v291h418v-291z" />
    <glyph glyph-name="uni1E6D" unicode="&#x1e6d;" horiz-adv-x="811" 
d="M504 -29q-195 0 -296.5 109t-101.5 319v404h-88v170l148 186l199 254h174v-264h237v-346h-237v-373q0 -80 69 -80q44 0 117 25l61 -348q-151 -56 -282 -56zM195 -373v291h417v-291h-417z" />
    <glyph glyph-name="uni1E6E" unicode="&#x1e6e;" horiz-adv-x="1009" 
d="M20 1028v406h971v-406h-260v-1028h-452v1028h-259zM846 -332h-678v232h678v-232z" />
    <glyph glyph-name="uni1E6F" unicode="&#x1e6f;" horiz-adv-x="811" 
d="M504 -29q-195 0 -296.5 109t-101.5 319v404h-88v170l148 186l199 254h174v-264h237v-346h-237v-373q0 -80 69 -80q44 0 117 25l61 -348q-151 -56 -282 -56zM741 -334h-678v232h678v-232z" />
    <glyph glyph-name="Wgrave" unicode="&#x1e80;" horiz-adv-x="1751" 
d="M879 1810l163 -290l-325 -17l-232 230zM1159 543l131 891h463l-301 -1434h-467l-108 602l-109 -602h-469l-301 1434h463l133 -891l111 891h344z" />
    <glyph glyph-name="wgrave" unicode="&#x1e81;" horiz-adv-x="1550" 
d="M791 1581l139 -332l-279 -18l-231 295zM1010 479l86 670h446l-266 -1149h-418l-82 532l-84 -532h-418l-266 1149h449l86 -670l90 670h287z" />
    <glyph glyph-name="Wacute" unicode="&#x1e82;" horiz-adv-x="1751" 
d="M874 1812l394 -77l-232 -230l-325 17zM1159 543l131 891h463l-301 -1434h-467l-108 602l-109 -602h-469l-301 1434h463l133 -891l111 891h344z" />
    <glyph glyph-name="wacute" unicode="&#x1e83;" horiz-adv-x="1550" 
d="M754 1581l370 -55l-229 -295l-281 18zM1010 479l86 670h446l-266 -1149h-418l-82 532l-84 -532h-418l-266 1149h449l86 -670l90 670h287z" />
    <glyph glyph-name="Wdieresis" unicode="&#x1e84;" horiz-adv-x="1751" 
d="M559 1794h289v-281h-289v281zM911 1794h289v-281h-289v281zM1159 543l131 891h463l-301 -1434h-467l-108 602l-109 -602h-469l-301 1434h463l133 -891l111 891h344z" />
    <glyph glyph-name="wdieresis" unicode="&#x1e85;" horiz-adv-x="1550" 
d="M453 1522h284v-291h-284v291zM821 1522h285v-291h-285v291zM1010 479l86 670h446l-266 -1149h-418l-82 532l-84 -532h-418l-266 1149h449l86 -670l90 670h287z" />
    <glyph glyph-name="uni1E8E" unicode="&#x1e8e;" horiz-adv-x="1157" 
d="M354 1796h449v-283h-449v283zM692 1434h475l-362 -977v-457h-453v457l-364 977h477l117 -555z" />
    <glyph glyph-name="uni1E8F" unicode="&#x1e8f;" horiz-adv-x="1116" 
d="M334 1516h448v-291h-448v291zM559 449l103 700h450l-311 -1149l-94 -350h-437l92 340l-43 -2l-315 1161h447l104 -700h4z" />
    <glyph glyph-name="uni1E92" unicode="&#x1e92;" horiz-adv-x="1007" 
d="M973 0h-938v301l371 727h-357v406h912v-299l-371 -729h383v-406zM297 -371v291h418v-291h-418z" />
    <glyph glyph-name="uni1E93" unicode="&#x1e93;" horiz-adv-x="937" 
d="M903 0h-866v276l317 512h-305v361h844v-275l-315 -509h325v-365zM266 -371v291h418v-291h-418z" />
    <glyph glyph-name="uni1E97" unicode="&#x1e97;" horiz-adv-x="811" 
d="M375 1460h-285v291h285v-291zM743 1460h-284v291h284v-291zM504 -29q-195 0 -296.5 109t-101.5 319v404h-88v170l148 186l199 254h174v-264h237v-346h-237v-373q0 -80 69 -80q44 0 117 25l61 -348q-151 -56 -282 -56z" />
    <glyph glyph-name="uni1E9E" unicode="&#x1e9e;" horiz-adv-x="1339" 
d="M1196 1311l-78 -484q211 -119 211 -374q0 -227 -125.5 -354.5t-353.5 -127.5q-140 0 -270 45l63 371q75 -37 152 -37q36 0 56.5 23.5t20.5 68.5q0 29 -11 51t-27 35.5t-46.5 24.5t-57.5 16.5t-71 12.5l62 489q-60 16 -113 16q-45 0 -70.5 -37t-25.5 -108v-942h-453l2 958
q0 238 142 371t407 133q280 0 586 -151z" />
    <glyph glyph-name="uni1EA0" unicode="&#x1ea0;" horiz-adv-x="1239" 
d="M748 201h-263l-34 -201h-459l338 1434h581l334 -1434h-465zM700 485l-75 471h-11l-79 -471h165zM829 -371h-417v291h417v-291z" />
    <glyph glyph-name="uni1EA1" unicode="&#x1ea1;" horiz-adv-x="1069" 
d="M496 1180q265 0 391.5 -136t126.5 -366v-678h-432v143q-38 -83 -105 -126.5t-145 -43.5q-147 0 -229.5 91.5t-82.5 275.5q0 167 96 255.5t285 88.5q99 0 181 -6v14q0 68 -35.5 102.5t-114.5 34.5q-125 0 -268 -47l-35 344q185 54 367 54zM498 293q84 0 84 196v9
q-32 4 -60 4q-40 0 -62 -27.5t-22 -77.5q0 -45 17 -74.5t43 -29.5zM711 -371h-418v291h418v-291z" />
    <glyph glyph-name="uni1EA2" unicode="&#x1ea2;" horiz-adv-x="1239" 
d="M555 1657q0 37 -31 49.5t-78 -10.5l-30 180q108 58 204 58t151.5 -49.5t55.5 -131.5q0 -67 -38 -138t-101 -130l-190 65q57 54 57 107zM1245 0h-465l-32 201h-263l-34 -201h-459l338 1434h581zM614 956l-79 -471h165l-75 471h-11z" />
    <glyph glyph-name="uni1EA3" unicode="&#x1ea3;" horiz-adv-x="1069" 
d="M457 1374q0 37 -31 49.5t-78 -10.5l-31 180q81 43 158 54t132 -8t88.5 -63.5t33.5 -105.5q0 -67 -38 -138t-101 -130l-191 66q58 55 58 106zM496 1180q265 0 391.5 -136t126.5 -366v-678h-432v143q-38 -83 -105 -126.5t-145 -43.5q-147 0 -229.5 91.5t-82.5 275.5
q0 167 96 255.5t285 88.5q99 0 181 -6v14q0 68 -35.5 102.5t-114.5 34.5q-125 0 -268 -47l-35 344q185 54 367 54zM498 293q84 0 84 196v9q-32 4 -60 4q-40 0 -62 -27.5t-22 -77.5q0 -45 17 -74.5t43 -29.5z" />
    <glyph glyph-name="uni1EA4" unicode="&#x1ea4;" horiz-adv-x="1239" 
d="M1034 1915l232 -70l-176 -168l-177 39zM662 1516l-41 116l-43 -116l-306 18l152 301h391l152 -301zM-8 0l338 1434h581l334 -1434h-465l-32 201h-263l-34 -201h-459zM614 956l-79 -471h165l-75 471h-11z" />
    <glyph glyph-name="uni1EA5" unicode="&#x1ea5;" horiz-adv-x="1069" 
d="M934 1632l233 -71l-176 -166l-176 37zM563 1233l-43 119l-41 -119l-305 18l150 301h393l149 -301zM496 1180q265 0 391.5 -136t126.5 -366v-678h-432v143q-38 -83 -105 -126.5t-145 -43.5q-147 0 -229.5 91.5t-82.5 275.5q0 167 96 255.5t285 88.5q99 0 181 -6v14
q0 68 -35.5 102.5t-114.5 34.5q-125 0 -268 -47l-35 344q185 54 367 54zM498 293q84 0 84 196v9q-32 4 -60 4q-40 0 -62 -27.5t-22 -77.5q0 -45 17 -74.5t43 -29.5z" />
    <glyph glyph-name="uni1EA6" unicode="&#x1ea6;" horiz-adv-x="1239" 
d="M250 1958l121 -201l-178 -37l-177 166zM618 1642l-43 -118l-303 18l150 303h391l152 -303l-303 -18zM1245 0h-465l-32 201h-263l-34 -201h-459l338 1434h581zM614 956l-79 -471h165l-75 471h-11z" />
    <glyph glyph-name="uni1EA7" unicode="&#x1ea7;" horiz-adv-x="1069" 
d="M152 1663l120 -199l-176 -39l-176 168zM522 1348l-43 -117l-303 18l150 303h391l151 -303l-305 -18zM496 1180q265 0 391.5 -136t126.5 -366v-678h-432v143q-38 -83 -105 -126.5t-145 -43.5q-147 0 -229.5 91.5t-82.5 275.5q0 167 96 255.5t285 88.5q99 0 181 -6v14
q0 68 -35.5 102.5t-114.5 34.5q-125 0 -268 -47l-35 344q185 54 367 54zM498 293q84 0 84 196v9q-32 4 -60 4q-40 0 -62 -27.5t-22 -77.5q0 -45 17 -74.5t43 -29.5z" />
    <glyph glyph-name="uni1EA8" unicode="&#x1ea8;" horiz-adv-x="1239" 
d="M956 1765q0 26 -22.5 35.5t-54.5 -8.5l-23 129q77 42 146 42t108 -35.5t39 -94.5q0 -49 -26.5 -100t-71.5 -91l-138 46q43 40 43 77zM664 1516l-43 118l-41 -118l-306 18l150 301h393l150 -301zM1245 0h-465l-32 201h-263l-34 -201h-459l338 1434h581zM614 956l-79 -471
h165l-75 471h-11z" />
    <glyph glyph-name="uni1EA9" unicode="&#x1ea9;" horiz-adv-x="1069" 
d="M856 1481q0 26 -23 35t-55 -9l-22 131q120 61 206.5 32t86.5 -120q0 -50 -27 -100.5t-72 -91.5l-137 47q43 37 43 76zM563 1231l-43 119l-41 -119l-305 18l150 303h393l149 -303zM496 1180q265 0 391.5 -136t126.5 -366v-678h-432v143q-38 -83 -105 -126.5t-145 -43.5
q-147 0 -229.5 91.5t-82.5 275.5q0 167 96 255.5t285 88.5q99 0 181 -6v14q0 68 -35.5 102.5t-114.5 34.5q-125 0 -268 -47l-35 344q185 54 367 54zM498 293q84 0 84 196v9q-32 4 -60 4q-40 0 -62 -27.5t-22 -77.5q0 -45 17 -74.5t43 -29.5z" />
    <glyph glyph-name="uni1EAA" unicode="&#x1eaa;" horiz-adv-x="1239" 
d="M524 1866l-180 32q-2 107 41.5 168.5t124.5 61.5q46 0 106 -18.5t74 -18.5q41 0 41 49l180 -33q2 -108 -41 -168.5t-122 -60.5q-47 0 -108.5 18.5t-76.5 18.5q-39 0 -39 -49zM662 1516l-44 118l-40 -118l-306 18l150 303h393l150 -303zM1245 0h-465l-32 201h-263
l-34 -201h-459l338 1434h581zM614 956l-79 -471h165l-75 471h-11z" />
    <glyph glyph-name="uni1EAB" unicode="&#x1eab;" horiz-adv-x="1069" 
d="M424 1583l-180 33q-2 108 41.5 168.5t124.5 60.5q46 0 106 -18.5t74 -18.5q41 0 41 50l180 -33q2 -108 -41.5 -169t-122.5 -61q-47 0 -108 18.5t-76 18.5q-39 0 -39 -49zM561 1233l-43 119l-41 -119l-305 18l150 303h393l149 -303zM496 1180q265 0 391.5 -136t126.5 -366
v-678h-432v143q-38 -83 -105 -126.5t-145 -43.5q-147 0 -229.5 91.5t-82.5 275.5q0 167 96 255.5t285 88.5q99 0 181 -6v14q0 68 -35.5 102.5t-114.5 34.5q-125 0 -268 -47l-35 344q185 54 367 54zM498 293q84 0 84 196v9q-32 4 -60 4q-40 0 -62 -27.5t-22 -77.5
q0 -45 17 -74.5t43 -29.5z" />
    <glyph glyph-name="uni1EAC" unicode="&#x1eac;" horiz-adv-x="1239" 
d="M664 1511l-43 107l-43 -107l-308 17l152 270h397l154 -270zM748 201h-263l-34 -201h-459l338 1434h581l334 -1434h-465zM700 485l-75 471h-11l-79 -471h165zM829 -371h-417v291h417v-291z" />
    <glyph glyph-name="uni1EAD" unicode="&#x1ead;" horiz-adv-x="1069" 
d="M563 1233l-43 119l-41 -119l-305 18l150 301h393l149 -301zM496 1180q265 0 391.5 -136t126.5 -366v-678h-432v143q-38 -83 -105 -126.5t-145 -43.5q-147 0 -229.5 91.5t-82.5 275.5q0 167 96 255.5t285 88.5q99 0 181 -6v14q0 68 -35.5 102.5t-114.5 34.5
q-125 0 -268 -47l-35 344q185 54 367 54zM498 293q84 0 84 196v9q-32 4 -60 4q-40 0 -62 -27.5t-22 -77.5q0 -45 17 -74.5t43 -29.5zM711 -371h-418v291h418v-291z" />
    <glyph glyph-name="uni1EAE" unicode="&#x1eae;" horiz-adv-x="1239" 
d="M596 2138l299 -39l-180 -237l-226 10zM618 1509q-172 0 -257 75t-85 228l281 9q0 -90 61 -90q62 0 62 90l281 -9q0 -153 -84.5 -228t-258.5 -75zM1245 0h-465l-32 201h-263l-34 -201h-459l338 1434h581zM614 956l-79 -471h165l-75 471h-11z" />
    <glyph glyph-name="uni1EAF" unicode="&#x1eaf;" horiz-adv-x="1069" 
d="M496 1860l299 -39l-181 -238l-225 10zM518 1231q-172 0 -257 75t-85 228l281 8q0 -90 61 -90q62 0 62 90l280 -8q0 -153 -84 -228t-258 -75zM496 1180q265 0 391.5 -136t126.5 -366v-678h-432v143q-38 -83 -105 -126.5t-145 -43.5q-147 0 -229.5 91.5t-82.5 275.5
q0 167 96 255.5t285 88.5q99 0 181 -6v14q0 68 -35.5 102.5t-114.5 34.5q-125 0 -268 -47l-35 344q185 54 367 54zM498 293q84 0 84 196v9q-32 4 -60 4q-40 0 -62 -27.5t-22 -77.5q0 -45 17 -74.5t43 -29.5z" />
    <glyph glyph-name="uni1EB0" unicode="&#x1eb0;" horiz-adv-x="1239" 
d="M641 2138l109 -264l-226 -12l-180 237zM621 1516q-345 0 -345 305l281 6q0 -88 64 -88q59 0 59 88l281 -6q0 -154 -84 -229.5t-256 -75.5zM1245 0h-465l-32 201h-263l-34 -201h-459l338 1434h581zM614 956l-79 -471h165l-75 471h-11z" />
    <glyph glyph-name="uni1EB1" unicode="&#x1eb1;" horiz-adv-x="1069" 
d="M541 1858l108 -263l-225 -12l-180 238zM520 1237q-344 0 -344 305l281 6q0 -88 63 -88q60 0 60 88l280 -6q0 -155 -84 -230t-256 -75zM496 1180q265 0 391.5 -136t126.5 -366v-678h-432v143q-38 -83 -105 -126.5t-145 -43.5q-147 0 -229.5 91.5t-82.5 275.5
q0 167 96 255.5t285 88.5q99 0 181 -6v14q0 68 -35.5 102.5t-114.5 34.5q-125 0 -268 -47l-35 344q185 54 367 54zM498 293q84 0 84 196v9q-32 4 -60 4q-40 0 -62 -27.5t-22 -77.5q0 -45 17 -74.5t43 -29.5z" />
    <glyph glyph-name="uni1EB2" unicode="&#x1eb2;" horiz-adv-x="1239" 
d="M553 1962q0 30 -25 40t-63 -9l-25 145q87 46 164 46.5t121.5 -39t44.5 -105.5q0 -56 -30.5 -113t-82.5 -102l-151 53q47 44 47 84zM618 1511q-342 0 -342 306l281 6q0 -88 61 -88q62 0 62 88l281 -6q0 -306 -343 -306zM1245 0h-465l-32 201h-263l-34 -201h-459l338 1434
h581zM614 956l-79 -471h165l-75 471h-11z" />
    <glyph glyph-name="uni1EB3" unicode="&#x1eb3;" horiz-adv-x="1069" 
d="M453 1681q0 29 -25 39.5t-63 -8.5l-25 143q87 46 164.5 46.5t121.5 -39t44 -105.5q0 -55 -30.5 -112.5t-82.5 -102.5l-151 53q47 44 47 86zM518 1231q-172 0 -257 75t-85 228l281 8q0 -90 61 -90q62 0 62 90l280 -8q0 -153 -84 -228t-258 -75zM496 1180q265 0 391.5 -136
t126.5 -366v-678h-432v143q-38 -83 -105 -126.5t-145 -43.5q-147 0 -229.5 91.5t-82.5 275.5q0 167 96 255.5t285 88.5q99 0 181 -6v14q0 68 -35.5 102.5t-114.5 34.5q-125 0 -268 -47l-35 344q185 54 367 54zM498 293q84 0 84 196v9q-32 4 -60 4q-40 0 -62 -27.5t-22 -77.5
q0 -45 17 -74.5t43 -29.5z" />
    <glyph glyph-name="uni1EB4" unicode="&#x1eb4;" horiz-adv-x="1239" 
d="M520 1855l-170 31q-3 101 38.5 159t117.5 58q44 0 100.5 -18.5t71.5 -18.5q39 0 39 48l170 -31q3 -101 -38 -158t-116 -57q-45 0 -103.5 17.5t-72.5 17.5q-16 0 -26.5 -12t-10.5 -36zM618 1511q-342 0 -342 306l281 6q0 -88 61 -88q62 0 62 88l281 -6q0 -306 -343 -306z
M1245 0h-465l-32 201h-263l-34 -201h-459l338 1434h581zM614 956l-79 -471h165l-75 471h-11z" />
    <glyph glyph-name="uni1EB5" unicode="&#x1eb5;" horiz-adv-x="1069" 
d="M422 1575l-170 31q-3 100 38.5 157.5t117.5 57.5q44 0 100.5 -17.5t71.5 -17.5q38 0 38 47l170 -31q3 -101 -37.5 -159t-115.5 -58q-45 0 -103.5 18.5t-72.5 18.5q-16 0 -26.5 -12.5t-10.5 -34.5zM520 1231q-172 0 -257 75t-85 228l281 8q0 -90 61 -90q62 0 62 90l280 -8
q0 -153 -84 -228t-258 -75zM496 1180q265 0 391.5 -136t126.5 -366v-678h-432v143q-38 -83 -105 -126.5t-145 -43.5q-147 0 -229.5 91.5t-82.5 275.5q0 167 96 255.5t285 88.5q99 0 181 -6v14q0 68 -35.5 102.5t-114.5 34.5q-125 0 -268 -47l-35 344q185 54 367 54zM498 293
q84 0 84 196v9q-32 4 -60 4q-40 0 -62 -27.5t-22 -77.5q0 -45 17 -74.5t43 -29.5z" />
    <glyph glyph-name="uni1EB6" unicode="&#x1eb6;" horiz-adv-x="1239" 
d="M618 1505q-342 0 -342 305l281 7q0 -88 61 -88q62 0 62 88l281 -7q0 -153 -84.5 -229t-258.5 -76zM748 201h-263l-34 -201h-459l338 1434h581l334 -1434h-465zM700 485l-75 471h-11l-79 -471h165zM829 -371h-417v291h417v-291z" />
    <glyph glyph-name="uni1EB7" unicode="&#x1eb7;" horiz-adv-x="1069" 
d="M520 1231q-172 0 -257 75t-85 228l281 8q0 -90 61 -90q62 0 62 90l280 -8q0 -153 -84 -228t-258 -75zM496 1180q265 0 391.5 -136t126.5 -366v-678h-432v143q-38 -83 -105 -126.5t-145 -43.5q-147 0 -229.5 91.5t-82.5 275.5q0 167 96 255.5t285 88.5q99 0 181 -6v14
q0 68 -35.5 102.5t-114.5 34.5q-125 0 -268 -47l-35 344q185 54 367 54zM498 293q84 0 84 196v9q-32 4 -60 4q-40 0 -62 -27.5t-22 -77.5q0 -45 17 -74.5t43 -29.5zM711 -371h-418v291h418v-291z" />
    <glyph glyph-name="uni1EB8" unicode="&#x1eb8;" horiz-adv-x="1005" 
d="M520 541v-154h453v-387h-901v1434h889v-387h-441v-150h367v-356h-367zM731 -371h-418v291h418v-291z" />
    <glyph glyph-name="uni1EB9" unicode="&#x1eb9;" horiz-adv-x="1064" 
d="M999 469h-544q13 -81 53.5 -117.5t109.5 -36.5q123 0 248 58l70 -312q-75 -42 -172.5 -66t-194.5 -24q-242 0 -390 164t-148 443q0 272 141.5 436t392.5 164q222 0 345.5 -140.5t123.5 -373.5q0 -88 -35 -195zM451 666l176 2q-2 90 -22 133t-64 43t-64.5 -43.5
t-25.5 -134.5zM754 -373h-418v291h418v-291z" />
    <glyph glyph-name="uni1EBA" unicode="&#x1eba;" horiz-adv-x="1005" 
d="M455 1657q0 37 -31 49.5t-78 -10.5l-31 180q81 43 158 54t132 -8t88.5 -63.5t33.5 -105.5q0 -67 -38 -138t-101 -130l-191 65q58 55 58 107zM520 541v-154h453v-387h-901v1434h889v-387h-441v-150h367v-356h-367z" />
    <glyph glyph-name="uni1EBB" unicode="&#x1ebb;" horiz-adv-x="1064" 
d="M475 1372q0 37 -30.5 49.5t-77.5 -10.5l-31 180q81 43 158 54t132 -8t88.5 -63.5t33.5 -105.5q0 -67 -38 -138t-102 -130l-190 66q57 54 57 106zM999 469h-544q13 -81 53.5 -117.5t109.5 -36.5q123 0 248 58l70 -312q-75 -42 -172.5 -66t-194.5 -24q-242 0 -390 164
t-148 443q0 272 141.5 436t392.5 164q222 0 345.5 -140.5t123.5 -373.5q0 -88 -35 -195zM451 666l176 2q-2 90 -22 133t-64 43t-64.5 -43.5t-25.5 -134.5z" />
    <glyph glyph-name="uni1EBC" unicode="&#x1ebc;" horiz-adv-x="1005" 
d="M408 1509l-193 39q-2 124 44 194t132 70q50 0 114 -21.5t79 -21.5q45 0 45 60l190 -39q3 -125 -42.5 -195.5t-131.5 -70.5q-50 0 -114.5 21.5t-79.5 21.5q-19 0 -31 -15t-12 -43zM520 541v-154h453v-387h-901v1434h889v-387h-441v-150h367v-356h-367z" />
    <glyph glyph-name="uni1EBD" unicode="&#x1ebd;" horiz-adv-x="1064" 
d="M428 1225l-192 39q-2 124 44.5 195t131.5 71q50 0 113.5 -21.5t78.5 -21.5q45 0 45 57l191 -39q3 -125 -42.5 -195.5t-131.5 -70.5q-50 0 -115 21.5t-80 21.5q-43 0 -43 -57zM999 469h-544q13 -81 53.5 -117.5t109.5 -36.5q123 0 248 58l70 -312q-75 -42 -172.5 -66
t-194.5 -24q-242 0 -390 164t-148 443q0 272 141.5 436t392.5 164q222 0 345.5 -140.5t123.5 -373.5q0 -88 -35 -195zM451 666l176 2q-2 90 -22 133t-64 43t-64.5 -43.5t-25.5 -134.5z" />
    <glyph glyph-name="uni1EBE" unicode="&#x1ebe;" horiz-adv-x="1005" 
d="M813 1716l121 199l231 -70l-176 -168zM561 1516l-41 116l-43 -116l-305 18l152 301h391l151 -301zM887 541h-367v-154h453v-387h-901v1434h889v-387h-441v-150h367v-356z" />
    <glyph glyph-name="uni1EBF" unicode="&#x1ebf;" horiz-adv-x="1064" 
d="M952 1630l234 -71l-176 -166l-176 37zM582 1231l-43 119l-41 -119l-305 18l149 301h393l150 -301zM565 1178q222 0 345.5 -140.5t123.5 -373.5q0 -88 -35 -195h-544q13 -81 53.5 -117.5t109.5 -36.5q123 0 248 58l70 -312q-75 -42 -172.5 -66t-194.5 -24q-242 0 -390 164
t-148 443q0 272 141.5 436t392.5 164zM451 666l176 2q-2 90 -22 133t-64 43t-64.5 -43.5t-25.5 -134.5z" />
    <glyph glyph-name="uni1EC0" unicode="&#x1ec0;" horiz-adv-x="1005" 
d="M150 1958l120 -201l-178 -37l-176 166zM518 1642l-43 -118l-303 18l150 303h391l151 -303l-303 -18zM520 541v-154h453v-387h-901v1434h889v-387h-441v-150h367v-356h-367z" />
    <glyph glyph-name="uni1EC1" unicode="&#x1ec1;" horiz-adv-x="1064" 
d="M170 1663l121 -199l-176 -39l-176 168zM541 1348l-43 -117l-303 18l149 303h391l152 -303l-305 -18zM999 469h-544q13 -81 53.5 -117.5t109.5 -36.5q123 0 248 58l70 -312q-75 -42 -172.5 -66t-194.5 -24q-242 0 -390 164t-148 443q0 272 141.5 436t392.5 164
q222 0 345.5 -140.5t123.5 -373.5q0 -88 -35 -195zM451 666l176 2q-2 90 -22 133t-64 43t-64.5 -43.5t-25.5 -134.5z" />
    </font>
</defs>
</svg>
