<?xml version="1.0" standalone="no"?>
<!DOCTYPE svg PUBLIC "-//W3C//DTD SVG 1.1//EN" "http://www.w3.org/Graphics/SVG/1.1/DTD/svg11.dtd" >
<svg xmlns="http://www.w3.org/2000/svg" xmlns:xlink="http://www.w3.org/1999/xlink" version="1.1">
<metadata>
Created by FontForge 20170731 at Mon Aug 16 22:14:58 2021
 By Aleksey,,,
Copyright (c) 2020 by Ligature srl. All rights reserved.
</metadata>
<defs>
<font id="EastmanCondensedTrial-Extrabold" horiz-adv-x="0" >
  <font-face 
    font-family="Eastman Condensed Trial Exbold"
    font-weight="750"
    font-stretch="condensed"
    units-per-em="2048"
    panose-1="0 0 8 6 0 0 0 0 0 0"
    ascent="1638"
    descent="-410"
    x-height="1139"
    cap-height="1434"
    bbox="-1411 -506 2664 2269"
    underline-thickness="217"
    underline-position="-626"
    unicode-range="U+0020-F8FF"
  />
<missing-glyph horiz-adv-x="1257" 
 />
    <glyph glyph-name=".notdef" horiz-adv-x="1257" 
 />
    <glyph glyph-name=".null" 
 />
    <glyph glyph-name="nonmarkingreturn" horiz-adv-x="682" 
 />
    <glyph glyph-name="space" unicode=" " horiz-adv-x="555" 
 />
    <glyph glyph-name="exclam" unicode="!" horiz-adv-x="591" 
d="M121 924v510h364v-508l-59 -461h-246zM104 0v344h379v-344h-379z" />
    <glyph glyph-name="quotedbl" unicode="&#x22;" horiz-adv-x="727" 
d="M344 1511l-35 -426h-215l-35 426h285zM668 1511l-35 -426h-215l-35 426h285z" />
    <glyph glyph-name="numbersign" unicode="#" horiz-adv-x="1536" 
d="M1477 1067v-279h-246l-68 -245h209v-281h-289l-65 -237h-338l65 237h-200l-66 -237h-338l66 237h-148v281h228l67 245h-190v279h268l72 254h338l-72 -254h201l71 254h338l-71 -254h168zM625 543h200l68 245h-201z" />
    <glyph glyph-name="dollar" unicode="$" horiz-adv-x="956" 
d="M928 393q0 -154 -85.5 -258t-234.5 -143v-146h-248v127q-168 11 -323 78l41 320q66 -32 152.5 -53t154.5 -21q145 0 145 111q0 47 -37.5 86.5t-119.5 93.5q-328 171 -328 438q0 162 84 269.5t231 146.5v153h248v-139q162 -18 269 -63l-41 -326q-144 66 -263 66
q-131 0 -131 -107q0 -49 38.5 -91.5t119.5 -92.5q100 -52 169 -110.5t114 -146t45 -192.5z" />
    <glyph glyph-name="percent" unicode="%" horiz-adv-x="1673" 
d="M346 717q-152 0 -233.5 98.5t-81.5 282.5q0 183 81.5 282t233.5 99t234 -99t82 -282q0 -184 -82 -282.5t-234 -98.5zM670 0h-271l607 1434h268zM346 928q68 0 68 168t-68 168q-67 0 -67 -166q0 -170 67 -170zM1325 -14q-152 0 -233.5 98.5t-81.5 282.5q0 183 81.5 282
t233.5 99t233.5 -99t81.5 -282q0 -184 -81.5 -282.5t-233.5 -98.5zM1325 197q68 0 68 168q0 167 -68 167t-68 -165q0 -170 68 -170z" />
    <glyph glyph-name="ampersand" unicode="&#x26;" horiz-adv-x="1271" 
d="M997 901h267v-215h-142q3 -241 -98 -420q78 -32 154 -26l2 -244q-160 -17 -336 78q-146 -97 -342 -97q-212 0 -327.5 119.5t-115.5 335.5q0 152 71 272t177 193q-6 55 -6 111q1 212 109 331t299 119q161 0 260.5 -84.5t99.5 -232.5q0 -117 -72 -240zM827 416
q54 108 54 270h-154v215q68 79 68 178q0 45 -25 72t-70 27q-57 0 -82.5 -43t-25.5 -129q0 -146 65 -308.5t170 -281.5zM330 449q0 -99 51 -157.5t143 -58.5q53 0 103 13q-164 172 -250 385q-47 -77 -47 -182z" />
    <glyph glyph-name="quotesingle" unicode="'" horiz-adv-x="405" 
d="M344 1511l-35 -426h-215l-35 426h285z" />
    <glyph glyph-name="parenleft" unicode="(" horiz-adv-x="808" 
d="M784 -190l-254 -195q-231 185 -351 427t-120 533q0 288 120.5 532.5t350.5 426.5l254 -195q-171 -162 -257.5 -357t-86.5 -407q0 -439 344 -765z" />
    <glyph glyph-name="parenright" unicode=")" horiz-adv-x="808" 
d="M25 1339l254 195q230 -184 350.5 -427.5t120.5 -533.5q0 -288 -120.5 -532t-350.5 -426l-254 195q344 326 344 763q0 440 -344 766z" />
    <glyph glyph-name="asterisk" unicode="*" horiz-adv-x="940" 
d="M694 1024l-76 -6l56 -49l137 -160l-205 -145l-108 176l-29 69l-29 -69l-110 -176l-203 145l137 160l58 49l-76 6l-201 49l76 238l192 -80l64 -39l-17 76l-14 205h250l-14 -205l-19 -74l64 37l190 80l78 -238z" />
    <glyph glyph-name="plus" unicode="+" horiz-adv-x="751" 
d="M522 797h205v-281h-205v-201h-295v201h-202v281h202v198h295v-198z" />
    <glyph glyph-name="comma" unicode="," horiz-adv-x="587" 
d="M184 -322l-88 140q71 47 102 84.5t31 97.5h-125v344h361q19 -95 23.5 -174.5t-2.5 -139t-28 -109t-46.5 -84.5t-64.5 -65.5t-76 -51t-87 -42.5z" />
    <glyph glyph-name="hyphen" unicode="-" horiz-adv-x="645" 
d="M621 623v-295h-596v295h596z" />
    <glyph glyph-name="period" unicode="." horiz-adv-x="587" 
d="M104 0v344h379v-344h-379z" />
    <glyph glyph-name="slash" unicode="/" horiz-adv-x="1091" 
d="M354 -197h-352l735 1651h353z" />
    <glyph glyph-name="zero" unicode="0" horiz-adv-x="2742" 
d="M1628 946h995v-395h-2568v395h996q8 114 90.5 192.5t197.5 78.5t198 -78.5t91 -192.5zM1165 1120h348q-78 68 -174 68q-99 0 -174 -68zM1194 760h346q59 72 59 166q0 99 -65 174zM1487 1092h-350q-60 -73 -60 -166q0 -99 68 -174zM1784 621q57 0 96 37t39 94q0 55 -39 92
t-96 37t-95 -37t-38 -92q0 -57 38 -94t95 -37zM242 803h57v71h-197v-71h60v-176h80v176zM410 698l30 -71h84l-43 94q29 25 29 65q0 38 -27.5 63t-66.5 25h-103v-247h80v71h17zM537 627h77v247h-77v-247zM793 666l10 -39h86l-84 247h-92l-84 -247h84l10 39h70zM903 627h168
v67h-88v180h-80v-247zM2091 627h82v247h-80v-131l-76 131h-82v-247h80l-2 121zM2198 627h167v67h-88v180h-79v-247zM2490 627v98l84 149h-92l-33 -73l-30 73h-95l86 -149v-98h80zM1784 809q25 0 40 -16t15 -41q0 -26 -15 -43t-40 -17q-23 0 -39 17t-16 43q0 25 16 41t39 16z
M393 807h21q6 0 11 -6.5t5 -14.5q0 -9 -5 -15.5t-11 -6.5h-21v43zM739 731l17 60h2l16 -60h-35zM1513 731h-348q75 -65 174 -65t174 65zM1044 387v-27q24 -14 54 -14q23 0 38 12.5t15 34.5q0 28 -47 45q-12 4 -17.5 6.5t-10.5 7.5t-5 13q0 22 29 22q24 0 41 -14v27
q-20 10 -41 10q-24 0 -38.5 -12t-14.5 -33q0 -14 7 -23.5t14.5 -13.5t23.5 -10q34 -9 34 -25q0 -24 -28 -24q-29 0 -54 18zM1227 428q0 -35 23.5 -58.5t58.5 -23.5q34 0 58 23.5t24 58.5q0 34 -24 58t-58 24q-35 0 -58.5 -24t-23.5 -58zM1552 344v162h-24v-111l-101 113h-12
v-160h25v107l100 -111h12zM156 506h-103v-158h25v60h67v22h-67v53h78v23zM176 506v-96q0 -28 18 -46t46 -18q29 0 47 18t18 46v96h-24v-96q0 -17 -12 -29t-29 -12t-28 11t-11 30v96h-25zM360 506h-24v-158h96v23h-72v135zM479 506h-24v-158h98v23h-74v135zM700 348l66 158
h-29l-45 -117l-45 117h-29l66 -158h16zM889 506h-103v-158h103v23h-78v47h68v20h-68v45h78v23zM977 406l27 -58h28l-31 64q25 14 25 43q0 22 -14.5 36.5t-36.5 14.5h-60v-158h25v58h37zM1200 506h-24v-158h24v158zM1364 428q0 -26 -15.5 -42.5t-39.5 -16.5q-25 0 -41.5 16.5
t-16.5 42.5q0 25 16.5 41t41.5 16q23 0 39 -16t16 -41zM1001 455q0 -12 -7.5 -20.5t-18.5 -8.5h-35v57h35q11 0 18.5 -8t7.5 -20zM2550 375l51 49l-51 49l-17 -14l27 -23h-938v-24h938l-27 -23zM1001 195q0 -51 35 -85t86 -34q52 0 86.5 34t34.5 85q0 50 -34.5 83t-86.5 33
q-51 0 -86 -33.5t-35 -82.5zM1671 172v-76q33 -20 78 -20q40 0 65 20t25 56q0 54 -74 71q-2 1 -7 2q-20 8 -21 15q0 8 22 8q36 0 66 -23v70q-37 16 -66 16q-42 0 -67 -18t-25 -51q0 -29 16 -45t50 -27q4 -2 11.5 -4t11.5 -3t7.5 -4t3.5 -7q0 -13 -18 -13q-24 0 -78 33z
M1933 195q0 -51 34.5 -85t84.5 -34q25 0 53 14l2 72q-21 -21 -51 -21q-22 0 -36.5 15.5t-14.5 38.5q0 22 14.5 36.5t36.5 14.5q20 0 45 -15v68q-21 12 -47 12q-51 0 -86 -33.5t-35 -82.5zM2114 195q0 -51 35 -85t87 -34q51 0 86 34t35 85q0 49 -35 82.5t-86 33.5
q-52 0 -87 -33t-35 -83zM55 242h74l-84 -160h195v63h-78l84 160h-191v-63zM422 305h-162v-223h164v61h-92v21h78v61h-78v19h90v61zM432 242h53v-160h72v160h53v63h-178v-63zM670 117h63l8 -35h78l-76 223h-81l-76 -223h73zM993 305h-162v-223h72v70h76v59h-76v33h90v61z
M1473 82v223h-72v-119l-68 119h-73v-223h71l-2 108l70 -108h74zM1485 242h53v-160h72v160h51v63h-176v-63zM2443 305h-71v-223h71v88l29 -55h51l29 55v-88h69v223h-71l-53 -102zM1171 195q0 -23 -13.5 -38.5t-35.5 -15.5t-35.5 15.5t-13.5 38.5q0 22 13.5 36.5t35.5 14.5
t35.5 -14.5t13.5 -36.5zM2286 195q0 -23 -14.5 -38.5t-35.5 -15.5q-22 0 -36.5 15.5t-14.5 38.5q0 22 14.5 36.5t36.5 14.5q20 0 35 -15t15 -36zM702 229l15 -53h-31l14 53h2zM1849 111q0 -14 10 -24.5t27 -10.5q15 0 25 10.5t10 24.5t-10 23t-25 9q-17 0 -27 -9t-10 -23z
" />
    <glyph glyph-name="one" unicode="1" horiz-adv-x="2668" 
d="M1628 946h995v-395h-2568v395h996q8 114 90.5 192.5t197.5 78.5t198 -78.5t91 -192.5zM1165 1120h348q-78 68 -174 68q-99 0 -174 -68zM1194 760h346q59 72 59 166q0 99 -65 174zM1487 1092h-350q-60 -73 -60 -166q0 -99 68 -174zM1784 621q57 0 96 37t39 94q0 55 -39 92
t-96 37t-95 -37t-38 -92q0 -57 38 -94t95 -37zM242 803h57v71h-197v-71h60v-176h80v176zM410 698l30 -71h84l-43 94q29 25 29 65q0 38 -27.5 63t-66.5 25h-103v-247h80v71h17zM537 627h77v247h-77v-247zM793 666l10 -39h86l-84 247h-92l-84 -247h84l10 39h70zM903 627h168
v67h-88v180h-80v-247zM2091 627h82v247h-80v-131l-76 131h-82v-247h80l-2 121zM2198 627h167v67h-88v180h-79v-247zM2490 627v98l84 149h-92l-33 -73l-30 73h-95l86 -149v-98h80zM1784 809q25 0 40 -16t15 -41q0 -26 -15 -43t-40 -17q-23 0 -39 17t-16 43q0 25 16 41t39 16z
M393 807h21q6 0 11 -6.5t5 -14.5q0 -9 -5 -15.5t-11 -6.5h-21v43zM739 731l17 60h2l16 -60h-35zM1513 731h-348q75 -65 174 -65t174 65zM1044 387v-27q24 -14 54 -14q23 0 38 12.5t15 34.5q0 28 -47 45q-12 4 -17.5 6.5t-10.5 7.5t-5 13q0 22 29 22q24 0 41 -14v27
q-20 10 -41 10q-24 0 -38.5 -12t-14.5 -33q0 -14 7 -23.5t14.5 -13.5t23.5 -10q34 -9 34 -25q0 -24 -28 -24q-29 0 -54 18zM1227 428q0 -35 23.5 -58.5t58.5 -23.5q34 0 58 23.5t24 58.5q0 34 -24 58t-58 24q-35 0 -58.5 -24t-23.5 -58zM1552 344v162h-24v-111l-101 113h-12
v-160h25v107l100 -111h12zM156 506h-103v-158h25v60h67v22h-67v53h78v23zM176 506v-96q0 -28 18 -46t46 -18q29 0 47 18t18 46v96h-24v-96q0 -17 -12 -29t-29 -12t-28 11t-11 30v96h-25zM360 506h-24v-158h96v23h-72v135zM479 506h-24v-158h98v23h-74v135zM700 348l66 158
h-29l-45 -117l-45 117h-29l66 -158h16zM889 506h-103v-158h103v23h-78v47h68v20h-68v45h78v23zM977 406l27 -58h28l-31 64q25 14 25 43q0 22 -14.5 36.5t-36.5 14.5h-60v-158h25v58h37zM1200 506h-24v-158h24v158zM1364 428q0 -26 -15.5 -42.5t-39.5 -16.5q-25 0 -41.5 16.5
t-16.5 42.5q0 25 16.5 41t41.5 16q23 0 39 -16t16 -41zM1001 455q0 -12 -7.5 -20.5t-18.5 -8.5h-35v57h35q11 0 18.5 -8t7.5 -20zM2550 375l51 49l-51 49l-17 -14l27 -23h-938v-24h938l-27 -23zM1001 195q0 -51 35 -85t86 -34q52 0 86.5 34t34.5 85q0 50 -34.5 83t-86.5 33
q-51 0 -86 -33.5t-35 -82.5zM1671 172v-76q33 -20 78 -20q40 0 65 20t25 56q0 54 -74 71q-2 1 -7 2q-20 8 -21 15q0 8 22 8q36 0 66 -23v70q-37 16 -66 16q-42 0 -67 -18t-25 -51q0 -29 16 -45t50 -27q4 -2 11.5 -4t11.5 -3t7.5 -4t3.5 -7q0 -13 -18 -13q-24 0 -78 33z
M1933 195q0 -51 34.5 -85t84.5 -34q25 0 53 14l2 72q-21 -21 -51 -21q-22 0 -36.5 15.5t-14.5 38.5q0 22 14.5 36.5t36.5 14.5q20 0 45 -15v68q-21 12 -47 12q-51 0 -86 -33.5t-35 -82.5zM2114 195q0 -51 35 -85t87 -34q51 0 86 34t35 85q0 49 -35 82.5t-86 33.5
q-52 0 -87 -33t-35 -83zM55 242h74l-84 -160h195v63h-78l84 160h-191v-63zM422 305h-162v-223h164v61h-92v21h78v61h-78v19h90v61zM432 242h53v-160h72v160h53v63h-178v-63zM670 117h63l8 -35h78l-76 223h-81l-76 -223h73zM993 305h-162v-223h72v70h76v59h-76v33h90v61z
M1473 82v223h-72v-119l-68 119h-73v-223h71l-2 108l70 -108h74zM1485 242h53v-160h72v160h51v63h-176v-63zM2443 305h-71v-223h71v88l29 -55h51l29 55v-88h69v223h-71l-53 -102zM1171 195q0 -23 -13.5 -38.5t-35.5 -15.5t-35.5 15.5t-13.5 38.5q0 22 13.5 36.5t35.5 14.5
t35.5 -14.5t13.5 -36.5zM2286 195q0 -23 -14.5 -38.5t-35.5 -15.5q-22 0 -36.5 15.5t-14.5 38.5q0 22 14.5 36.5t36.5 14.5q20 0 35 -15t15 -36zM702 229l15 -53h-31l14 53h2zM1849 111q0 -14 10 -24.5t27 -10.5q15 0 25 10.5t10 24.5t-10 23t-25 9q-17 0 -27 -9t-10 -23z
" />
    <glyph glyph-name="two" unicode="2" horiz-adv-x="2668" 
d="M1628 946h995v-395h-2568v395h996q8 114 90.5 192.5t197.5 78.5t198 -78.5t91 -192.5zM1165 1120h348q-78 68 -174 68q-99 0 -174 -68zM1194 760h346q59 72 59 166q0 99 -65 174zM1487 1092h-350q-60 -73 -60 -166q0 -99 68 -174zM1784 621q57 0 96 37t39 94q0 55 -39 92
t-96 37t-95 -37t-38 -92q0 -57 38 -94t95 -37zM242 803h57v71h-197v-71h60v-176h80v176zM410 698l30 -71h84l-43 94q29 25 29 65q0 38 -27.5 63t-66.5 25h-103v-247h80v71h17zM537 627h77v247h-77v-247zM793 666l10 -39h86l-84 247h-92l-84 -247h84l10 39h70zM903 627h168
v67h-88v180h-80v-247zM2091 627h82v247h-80v-131l-76 131h-82v-247h80l-2 121zM2198 627h167v67h-88v180h-79v-247zM2490 627v98l84 149h-92l-33 -73l-30 73h-95l86 -149v-98h80zM1784 809q25 0 40 -16t15 -41q0 -26 -15 -43t-40 -17q-23 0 -39 17t-16 43q0 25 16 41t39 16z
M393 807h21q6 0 11 -6.5t5 -14.5q0 -9 -5 -15.5t-11 -6.5h-21v43zM739 731l17 60h2l16 -60h-35zM1513 731h-348q75 -65 174 -65t174 65zM1044 387v-27q24 -14 54 -14q23 0 38 12.5t15 34.5q0 28 -47 45q-12 4 -17.5 6.5t-10.5 7.5t-5 13q0 22 29 22q24 0 41 -14v27
q-20 10 -41 10q-24 0 -38.5 -12t-14.5 -33q0 -14 7 -23.5t14.5 -13.5t23.5 -10q34 -9 34 -25q0 -24 -28 -24q-29 0 -54 18zM1227 428q0 -35 23.5 -58.5t58.5 -23.5q34 0 58 23.5t24 58.5q0 34 -24 58t-58 24q-35 0 -58.5 -24t-23.5 -58zM1552 344v162h-24v-111l-101 113h-12
v-160h25v107l100 -111h12zM156 506h-103v-158h25v60h67v22h-67v53h78v23zM176 506v-96q0 -28 18 -46t46 -18q29 0 47 18t18 46v96h-24v-96q0 -17 -12 -29t-29 -12t-28 11t-11 30v96h-25zM360 506h-24v-158h96v23h-72v135zM479 506h-24v-158h98v23h-74v135zM700 348l66 158
h-29l-45 -117l-45 117h-29l66 -158h16zM889 506h-103v-158h103v23h-78v47h68v20h-68v45h78v23zM977 406l27 -58h28l-31 64q25 14 25 43q0 22 -14.5 36.5t-36.5 14.5h-60v-158h25v58h37zM1200 506h-24v-158h24v158zM1364 428q0 -26 -15.5 -42.5t-39.5 -16.5q-25 0 -41.5 16.5
t-16.5 42.5q0 25 16.5 41t41.5 16q23 0 39 -16t16 -41zM1001 455q0 -12 -7.5 -20.5t-18.5 -8.5h-35v57h35q11 0 18.5 -8t7.5 -20zM2550 375l51 49l-51 49l-17 -14l27 -23h-938v-24h938l-27 -23zM1001 195q0 -51 35 -85t86 -34q52 0 86.5 34t34.5 85q0 50 -34.5 83t-86.5 33
q-51 0 -86 -33.5t-35 -82.5zM1671 172v-76q33 -20 78 -20q40 0 65 20t25 56q0 54 -74 71q-2 1 -7 2q-20 8 -21 15q0 8 22 8q36 0 66 -23v70q-37 16 -66 16q-42 0 -67 -18t-25 -51q0 -29 16 -45t50 -27q4 -2 11.5 -4t11.5 -3t7.5 -4t3.5 -7q0 -13 -18 -13q-24 0 -78 33z
M1933 195q0 -51 34.5 -85t84.5 -34q25 0 53 14l2 72q-21 -21 -51 -21q-22 0 -36.5 15.5t-14.5 38.5q0 22 14.5 36.5t36.5 14.5q20 0 45 -15v68q-21 12 -47 12q-51 0 -86 -33.5t-35 -82.5zM2114 195q0 -51 35 -85t87 -34q51 0 86 34t35 85q0 49 -35 82.5t-86 33.5
q-52 0 -87 -33t-35 -83zM55 242h74l-84 -160h195v63h-78l84 160h-191v-63zM422 305h-162v-223h164v61h-92v21h78v61h-78v19h90v61zM432 242h53v-160h72v160h53v63h-178v-63zM670 117h63l8 -35h78l-76 223h-81l-76 -223h73zM993 305h-162v-223h72v70h76v59h-76v33h90v61z
M1473 82v223h-72v-119l-68 119h-73v-223h71l-2 108l70 -108h74zM1485 242h53v-160h72v160h51v63h-176v-63zM2443 305h-71v-223h71v88l29 -55h51l29 55v-88h69v223h-71l-53 -102zM1171 195q0 -23 -13.5 -38.5t-35.5 -15.5t-35.5 15.5t-13.5 38.5q0 22 13.5 36.5t35.5 14.5
t35.5 -14.5t13.5 -36.5zM2286 195q0 -23 -14.5 -38.5t-35.5 -15.5q-22 0 -36.5 15.5t-14.5 38.5q0 22 14.5 36.5t36.5 14.5q20 0 35 -15t15 -36zM702 229l15 -53h-31l14 53h2zM1849 111q0 -14 10 -24.5t27 -10.5q15 0 25 10.5t10 24.5t-10 23t-25 9q-17 0 -27 -9t-10 -23z
" />
    <glyph glyph-name="three" unicode="3" horiz-adv-x="2668" 
d="M1628 946h995v-395h-2568v395h996q8 114 90.5 192.5t197.5 78.5t198 -78.5t91 -192.5zM1165 1120h348q-78 68 -174 68q-99 0 -174 -68zM1194 760h346q59 72 59 166q0 99 -65 174zM1487 1092h-350q-60 -73 -60 -166q0 -99 68 -174zM1784 621q57 0 96 37t39 94q0 55 -39 92
t-96 37t-95 -37t-38 -92q0 -57 38 -94t95 -37zM242 803h57v71h-197v-71h60v-176h80v176zM410 698l30 -71h84l-43 94q29 25 29 65q0 38 -27.5 63t-66.5 25h-103v-247h80v71h17zM537 627h77v247h-77v-247zM793 666l10 -39h86l-84 247h-92l-84 -247h84l10 39h70zM903 627h168
v67h-88v180h-80v-247zM2091 627h82v247h-80v-131l-76 131h-82v-247h80l-2 121zM2198 627h167v67h-88v180h-79v-247zM2490 627v98l84 149h-92l-33 -73l-30 73h-95l86 -149v-98h80zM1784 809q25 0 40 -16t15 -41q0 -26 -15 -43t-40 -17q-23 0 -39 17t-16 43q0 25 16 41t39 16z
M393 807h21q6 0 11 -6.5t5 -14.5q0 -9 -5 -15.5t-11 -6.5h-21v43zM739 731l17 60h2l16 -60h-35zM1513 731h-348q75 -65 174 -65t174 65zM1044 387v-27q24 -14 54 -14q23 0 38 12.5t15 34.5q0 28 -47 45q-12 4 -17.5 6.5t-10.5 7.5t-5 13q0 22 29 22q24 0 41 -14v27
q-20 10 -41 10q-24 0 -38.5 -12t-14.5 -33q0 -14 7 -23.5t14.5 -13.5t23.5 -10q34 -9 34 -25q0 -24 -28 -24q-29 0 -54 18zM1227 428q0 -35 23.5 -58.5t58.5 -23.5q34 0 58 23.5t24 58.5q0 34 -24 58t-58 24q-35 0 -58.5 -24t-23.5 -58zM1552 344v162h-24v-111l-101 113h-12
v-160h25v107l100 -111h12zM156 506h-103v-158h25v60h67v22h-67v53h78v23zM176 506v-96q0 -28 18 -46t46 -18q29 0 47 18t18 46v96h-24v-96q0 -17 -12 -29t-29 -12t-28 11t-11 30v96h-25zM360 506h-24v-158h96v23h-72v135zM479 506h-24v-158h98v23h-74v135zM700 348l66 158
h-29l-45 -117l-45 117h-29l66 -158h16zM889 506h-103v-158h103v23h-78v47h68v20h-68v45h78v23zM977 406l27 -58h28l-31 64q25 14 25 43q0 22 -14.5 36.5t-36.5 14.5h-60v-158h25v58h37zM1200 506h-24v-158h24v158zM1364 428q0 -26 -15.5 -42.5t-39.5 -16.5q-25 0 -41.5 16.5
t-16.5 42.5q0 25 16.5 41t41.5 16q23 0 39 -16t16 -41zM1001 455q0 -12 -7.5 -20.5t-18.5 -8.5h-35v57h35q11 0 18.5 -8t7.5 -20zM2550 375l51 49l-51 49l-17 -14l27 -23h-938v-24h938l-27 -23zM1001 195q0 -51 35 -85t86 -34q52 0 86.5 34t34.5 85q0 50 -34.5 83t-86.5 33
q-51 0 -86 -33.5t-35 -82.5zM1671 172v-76q33 -20 78 -20q40 0 65 20t25 56q0 54 -74 71q-2 1 -7 2q-20 8 -21 15q0 8 22 8q36 0 66 -23v70q-37 16 -66 16q-42 0 -67 -18t-25 -51q0 -29 16 -45t50 -27q4 -2 11.5 -4t11.5 -3t7.5 -4t3.5 -7q0 -13 -18 -13q-24 0 -78 33z
M1933 195q0 -51 34.5 -85t84.5 -34q25 0 53 14l2 72q-21 -21 -51 -21q-22 0 -36.5 15.5t-14.5 38.5q0 22 14.5 36.5t36.5 14.5q20 0 45 -15v68q-21 12 -47 12q-51 0 -86 -33.5t-35 -82.5zM2114 195q0 -51 35 -85t87 -34q51 0 86 34t35 85q0 49 -35 82.5t-86 33.5
q-52 0 -87 -33t-35 -83zM55 242h74l-84 -160h195v63h-78l84 160h-191v-63zM422 305h-162v-223h164v61h-92v21h78v61h-78v19h90v61zM432 242h53v-160h72v160h53v63h-178v-63zM670 117h63l8 -35h78l-76 223h-81l-76 -223h73zM993 305h-162v-223h72v70h76v59h-76v33h90v61z
M1473 82v223h-72v-119l-68 119h-73v-223h71l-2 108l70 -108h74zM1485 242h53v-160h72v160h51v63h-176v-63zM2443 305h-71v-223h71v88l29 -55h51l29 55v-88h69v223h-71l-53 -102zM1171 195q0 -23 -13.5 -38.5t-35.5 -15.5t-35.5 15.5t-13.5 38.5q0 22 13.5 36.5t35.5 14.5
t35.5 -14.5t13.5 -36.5zM2286 195q0 -23 -14.5 -38.5t-35.5 -15.5q-22 0 -36.5 15.5t-14.5 38.5q0 22 14.5 36.5t36.5 14.5q20 0 35 -15t15 -36zM702 229l15 -53h-31l14 53h2zM1849 111q0 -14 10 -24.5t27 -10.5q15 0 25 10.5t10 24.5t-10 23t-25 9q-17 0 -27 -9t-10 -23z
" />
    <glyph glyph-name="four" unicode="4" horiz-adv-x="2668" 
d="M1628 946h995v-395h-2568v395h996q8 114 90.5 192.5t197.5 78.5t198 -78.5t91 -192.5zM1165 1120h348q-78 68 -174 68q-99 0 -174 -68zM1194 760h346q59 72 59 166q0 99 -65 174zM1487 1092h-350q-60 -73 -60 -166q0 -99 68 -174zM1784 621q57 0 96 37t39 94q0 55 -39 92
t-96 37t-95 -37t-38 -92q0 -57 38 -94t95 -37zM242 803h57v71h-197v-71h60v-176h80v176zM410 698l30 -71h84l-43 94q29 25 29 65q0 38 -27.5 63t-66.5 25h-103v-247h80v71h17zM537 627h77v247h-77v-247zM793 666l10 -39h86l-84 247h-92l-84 -247h84l10 39h70zM903 627h168
v67h-88v180h-80v-247zM2091 627h82v247h-80v-131l-76 131h-82v-247h80l-2 121zM2198 627h167v67h-88v180h-79v-247zM2490 627v98l84 149h-92l-33 -73l-30 73h-95l86 -149v-98h80zM1784 809q25 0 40 -16t15 -41q0 -26 -15 -43t-40 -17q-23 0 -39 17t-16 43q0 25 16 41t39 16z
M393 807h21q6 0 11 -6.5t5 -14.5q0 -9 -5 -15.5t-11 -6.5h-21v43zM739 731l17 60h2l16 -60h-35zM1513 731h-348q75 -65 174 -65t174 65zM1044 387v-27q24 -14 54 -14q23 0 38 12.5t15 34.5q0 28 -47 45q-12 4 -17.5 6.5t-10.5 7.5t-5 13q0 22 29 22q24 0 41 -14v27
q-20 10 -41 10q-24 0 -38.5 -12t-14.5 -33q0 -14 7 -23.5t14.5 -13.5t23.5 -10q34 -9 34 -25q0 -24 -28 -24q-29 0 -54 18zM1227 428q0 -35 23.5 -58.5t58.5 -23.5q34 0 58 23.5t24 58.5q0 34 -24 58t-58 24q-35 0 -58.5 -24t-23.5 -58zM1552 344v162h-24v-111l-101 113h-12
v-160h25v107l100 -111h12zM156 506h-103v-158h25v60h67v22h-67v53h78v23zM176 506v-96q0 -28 18 -46t46 -18q29 0 47 18t18 46v96h-24v-96q0 -17 -12 -29t-29 -12t-28 11t-11 30v96h-25zM360 506h-24v-158h96v23h-72v135zM479 506h-24v-158h98v23h-74v135zM700 348l66 158
h-29l-45 -117l-45 117h-29l66 -158h16zM889 506h-103v-158h103v23h-78v47h68v20h-68v45h78v23zM977 406l27 -58h28l-31 64q25 14 25 43q0 22 -14.5 36.5t-36.5 14.5h-60v-158h25v58h37zM1200 506h-24v-158h24v158zM1364 428q0 -26 -15.5 -42.5t-39.5 -16.5q-25 0 -41.5 16.5
t-16.5 42.5q0 25 16.5 41t41.5 16q23 0 39 -16t16 -41zM1001 455q0 -12 -7.5 -20.5t-18.5 -8.5h-35v57h35q11 0 18.5 -8t7.5 -20zM2550 375l51 49l-51 49l-17 -14l27 -23h-938v-24h938l-27 -23zM1001 195q0 -51 35 -85t86 -34q52 0 86.5 34t34.5 85q0 50 -34.5 83t-86.5 33
q-51 0 -86 -33.5t-35 -82.5zM1671 172v-76q33 -20 78 -20q40 0 65 20t25 56q0 54 -74 71q-2 1 -7 2q-20 8 -21 15q0 8 22 8q36 0 66 -23v70q-37 16 -66 16q-42 0 -67 -18t-25 -51q0 -29 16 -45t50 -27q4 -2 11.5 -4t11.5 -3t7.5 -4t3.5 -7q0 -13 -18 -13q-24 0 -78 33z
M1933 195q0 -51 34.5 -85t84.5 -34q25 0 53 14l2 72q-21 -21 -51 -21q-22 0 -36.5 15.5t-14.5 38.5q0 22 14.5 36.5t36.5 14.5q20 0 45 -15v68q-21 12 -47 12q-51 0 -86 -33.5t-35 -82.5zM2114 195q0 -51 35 -85t87 -34q51 0 86 34t35 85q0 49 -35 82.5t-86 33.5
q-52 0 -87 -33t-35 -83zM55 242h74l-84 -160h195v63h-78l84 160h-191v-63zM422 305h-162v-223h164v61h-92v21h78v61h-78v19h90v61zM432 242h53v-160h72v160h53v63h-178v-63zM670 117h63l8 -35h78l-76 223h-81l-76 -223h73zM993 305h-162v-223h72v70h76v59h-76v33h90v61z
M1473 82v223h-72v-119l-68 119h-73v-223h71l-2 108l70 -108h74zM1485 242h53v-160h72v160h51v63h-176v-63zM2443 305h-71v-223h71v88l29 -55h51l29 55v-88h69v223h-71l-53 -102zM1171 195q0 -23 -13.5 -38.5t-35.5 -15.5t-35.5 15.5t-13.5 38.5q0 22 13.5 36.5t35.5 14.5
t35.5 -14.5t13.5 -36.5zM2286 195q0 -23 -14.5 -38.5t-35.5 -15.5q-22 0 -36.5 15.5t-14.5 38.5q0 22 14.5 36.5t36.5 14.5q20 0 35 -15t15 -36zM702 229l15 -53h-31l14 53h2zM1849 111q0 -14 10 -24.5t27 -10.5q15 0 25 10.5t10 24.5t-10 23t-25 9q-17 0 -27 -9t-10 -23z
" />
    <glyph glyph-name="five" unicode="5" horiz-adv-x="2668" 
d="M1628 946h995v-395h-2568v395h996q8 114 90.5 192.5t197.5 78.5t198 -78.5t91 -192.5zM1165 1120h348q-78 68 -174 68q-99 0 -174 -68zM1194 760h346q59 72 59 166q0 99 -65 174zM1487 1092h-350q-60 -73 -60 -166q0 -99 68 -174zM1784 621q57 0 96 37t39 94q0 55 -39 92
t-96 37t-95 -37t-38 -92q0 -57 38 -94t95 -37zM242 803h57v71h-197v-71h60v-176h80v176zM410 698l30 -71h84l-43 94q29 25 29 65q0 38 -27.5 63t-66.5 25h-103v-247h80v71h17zM537 627h77v247h-77v-247zM793 666l10 -39h86l-84 247h-92l-84 -247h84l10 39h70zM903 627h168
v67h-88v180h-80v-247zM2091 627h82v247h-80v-131l-76 131h-82v-247h80l-2 121zM2198 627h167v67h-88v180h-79v-247zM2490 627v98l84 149h-92l-33 -73l-30 73h-95l86 -149v-98h80zM1784 809q25 0 40 -16t15 -41q0 -26 -15 -43t-40 -17q-23 0 -39 17t-16 43q0 25 16 41t39 16z
M393 807h21q6 0 11 -6.5t5 -14.5q0 -9 -5 -15.5t-11 -6.5h-21v43zM739 731l17 60h2l16 -60h-35zM1513 731h-348q75 -65 174 -65t174 65zM1044 387v-27q24 -14 54 -14q23 0 38 12.5t15 34.5q0 28 -47 45q-12 4 -17.5 6.5t-10.5 7.5t-5 13q0 22 29 22q24 0 41 -14v27
q-20 10 -41 10q-24 0 -38.5 -12t-14.5 -33q0 -14 7 -23.5t14.5 -13.5t23.5 -10q34 -9 34 -25q0 -24 -28 -24q-29 0 -54 18zM1227 428q0 -35 23.5 -58.5t58.5 -23.5q34 0 58 23.5t24 58.5q0 34 -24 58t-58 24q-35 0 -58.5 -24t-23.5 -58zM1552 344v162h-24v-111l-101 113h-12
v-160h25v107l100 -111h12zM156 506h-103v-158h25v60h67v22h-67v53h78v23zM176 506v-96q0 -28 18 -46t46 -18q29 0 47 18t18 46v96h-24v-96q0 -17 -12 -29t-29 -12t-28 11t-11 30v96h-25zM360 506h-24v-158h96v23h-72v135zM479 506h-24v-158h98v23h-74v135zM700 348l66 158
h-29l-45 -117l-45 117h-29l66 -158h16zM889 506h-103v-158h103v23h-78v47h68v20h-68v45h78v23zM977 406l27 -58h28l-31 64q25 14 25 43q0 22 -14.5 36.5t-36.5 14.5h-60v-158h25v58h37zM1200 506h-24v-158h24v158zM1364 428q0 -26 -15.5 -42.5t-39.5 -16.5q-25 0 -41.5 16.5
t-16.5 42.5q0 25 16.5 41t41.5 16q23 0 39 -16t16 -41zM1001 455q0 -12 -7.5 -20.5t-18.5 -8.5h-35v57h35q11 0 18.5 -8t7.5 -20zM2550 375l51 49l-51 49l-17 -14l27 -23h-938v-24h938l-27 -23zM1001 195q0 -51 35 -85t86 -34q52 0 86.5 34t34.5 85q0 50 -34.5 83t-86.5 33
q-51 0 -86 -33.5t-35 -82.5zM1671 172v-76q33 -20 78 -20q40 0 65 20t25 56q0 54 -74 71q-2 1 -7 2q-20 8 -21 15q0 8 22 8q36 0 66 -23v70q-37 16 -66 16q-42 0 -67 -18t-25 -51q0 -29 16 -45t50 -27q4 -2 11.5 -4t11.5 -3t7.5 -4t3.5 -7q0 -13 -18 -13q-24 0 -78 33z
M1933 195q0 -51 34.5 -85t84.5 -34q25 0 53 14l2 72q-21 -21 -51 -21q-22 0 -36.5 15.5t-14.5 38.5q0 22 14.5 36.5t36.5 14.5q20 0 45 -15v68q-21 12 -47 12q-51 0 -86 -33.5t-35 -82.5zM2114 195q0 -51 35 -85t87 -34q51 0 86 34t35 85q0 49 -35 82.5t-86 33.5
q-52 0 -87 -33t-35 -83zM55 242h74l-84 -160h195v63h-78l84 160h-191v-63zM422 305h-162v-223h164v61h-92v21h78v61h-78v19h90v61zM432 242h53v-160h72v160h53v63h-178v-63zM670 117h63l8 -35h78l-76 223h-81l-76 -223h73zM993 305h-162v-223h72v70h76v59h-76v33h90v61z
M1473 82v223h-72v-119l-68 119h-73v-223h71l-2 108l70 -108h74zM1485 242h53v-160h72v160h51v63h-176v-63zM2443 305h-71v-223h71v88l29 -55h51l29 55v-88h69v223h-71l-53 -102zM1171 195q0 -23 -13.5 -38.5t-35.5 -15.5t-35.5 15.5t-13.5 38.5q0 22 13.5 36.5t35.5 14.5
t35.5 -14.5t13.5 -36.5zM2286 195q0 -23 -14.5 -38.5t-35.5 -15.5q-22 0 -36.5 15.5t-14.5 38.5q0 22 14.5 36.5t36.5 14.5q20 0 35 -15t15 -36zM702 229l15 -53h-31l14 53h2zM1849 111q0 -14 10 -24.5t27 -10.5q15 0 25 10.5t10 24.5t-10 23t-25 9q-17 0 -27 -9t-10 -23z
" />
    <glyph glyph-name="six" unicode="6" horiz-adv-x="2668" 
d="M1628 946h995v-395h-2568v395h996q8 114 90.5 192.5t197.5 78.5t198 -78.5t91 -192.5zM1165 1120h348q-78 68 -174 68q-99 0 -174 -68zM1194 760h346q59 72 59 166q0 99 -65 174zM1487 1092h-350q-60 -73 -60 -166q0 -99 68 -174zM1784 621q57 0 96 37t39 94q0 55 -39 92
t-96 37t-95 -37t-38 -92q0 -57 38 -94t95 -37zM242 803h57v71h-197v-71h60v-176h80v176zM410 698l30 -71h84l-43 94q29 25 29 65q0 38 -27.5 63t-66.5 25h-103v-247h80v71h17zM537 627h77v247h-77v-247zM793 666l10 -39h86l-84 247h-92l-84 -247h84l10 39h70zM903 627h168
v67h-88v180h-80v-247zM2091 627h82v247h-80v-131l-76 131h-82v-247h80l-2 121zM2198 627h167v67h-88v180h-79v-247zM2490 627v98l84 149h-92l-33 -73l-30 73h-95l86 -149v-98h80zM1784 809q25 0 40 -16t15 -41q0 -26 -15 -43t-40 -17q-23 0 -39 17t-16 43q0 25 16 41t39 16z
M393 807h21q6 0 11 -6.5t5 -14.5q0 -9 -5 -15.5t-11 -6.5h-21v43zM739 731l17 60h2l16 -60h-35zM1513 731h-348q75 -65 174 -65t174 65zM1044 387v-27q24 -14 54 -14q23 0 38 12.5t15 34.5q0 28 -47 45q-12 4 -17.5 6.5t-10.5 7.5t-5 13q0 22 29 22q24 0 41 -14v27
q-20 10 -41 10q-24 0 -38.5 -12t-14.5 -33q0 -14 7 -23.5t14.5 -13.5t23.5 -10q34 -9 34 -25q0 -24 -28 -24q-29 0 -54 18zM1227 428q0 -35 23.5 -58.5t58.5 -23.5q34 0 58 23.5t24 58.5q0 34 -24 58t-58 24q-35 0 -58.5 -24t-23.5 -58zM1552 344v162h-24v-111l-101 113h-12
v-160h25v107l100 -111h12zM156 506h-103v-158h25v60h67v22h-67v53h78v23zM176 506v-96q0 -28 18 -46t46 -18q29 0 47 18t18 46v96h-24v-96q0 -17 -12 -29t-29 -12t-28 11t-11 30v96h-25zM360 506h-24v-158h96v23h-72v135zM479 506h-24v-158h98v23h-74v135zM700 348l66 158
h-29l-45 -117l-45 117h-29l66 -158h16zM889 506h-103v-158h103v23h-78v47h68v20h-68v45h78v23zM977 406l27 -58h28l-31 64q25 14 25 43q0 22 -14.5 36.5t-36.5 14.5h-60v-158h25v58h37zM1200 506h-24v-158h24v158zM1364 428q0 -26 -15.5 -42.5t-39.5 -16.5q-25 0 -41.5 16.5
t-16.5 42.5q0 25 16.5 41t41.5 16q23 0 39 -16t16 -41zM1001 455q0 -12 -7.5 -20.5t-18.5 -8.5h-35v57h35q11 0 18.5 -8t7.5 -20zM2550 375l51 49l-51 49l-17 -14l27 -23h-938v-24h938l-27 -23zM1001 195q0 -51 35 -85t86 -34q52 0 86.5 34t34.5 85q0 50 -34.5 83t-86.5 33
q-51 0 -86 -33.5t-35 -82.5zM1671 172v-76q33 -20 78 -20q40 0 65 20t25 56q0 54 -74 71q-2 1 -7 2q-20 8 -21 15q0 8 22 8q36 0 66 -23v70q-37 16 -66 16q-42 0 -67 -18t-25 -51q0 -29 16 -45t50 -27q4 -2 11.5 -4t11.5 -3t7.5 -4t3.5 -7q0 -13 -18 -13q-24 0 -78 33z
M1933 195q0 -51 34.5 -85t84.5 -34q25 0 53 14l2 72q-21 -21 -51 -21q-22 0 -36.5 15.5t-14.5 38.5q0 22 14.5 36.5t36.5 14.5q20 0 45 -15v68q-21 12 -47 12q-51 0 -86 -33.5t-35 -82.5zM2114 195q0 -51 35 -85t87 -34q51 0 86 34t35 85q0 49 -35 82.5t-86 33.5
q-52 0 -87 -33t-35 -83zM55 242h74l-84 -160h195v63h-78l84 160h-191v-63zM422 305h-162v-223h164v61h-92v21h78v61h-78v19h90v61zM432 242h53v-160h72v160h53v63h-178v-63zM670 117h63l8 -35h78l-76 223h-81l-76 -223h73zM993 305h-162v-223h72v70h76v59h-76v33h90v61z
M1473 82v223h-72v-119l-68 119h-73v-223h71l-2 108l70 -108h74zM1485 242h53v-160h72v160h51v63h-176v-63zM2443 305h-71v-223h71v88l29 -55h51l29 55v-88h69v223h-71l-53 -102zM1171 195q0 -23 -13.5 -38.5t-35.5 -15.5t-35.5 15.5t-13.5 38.5q0 22 13.5 36.5t35.5 14.5
t35.5 -14.5t13.5 -36.5zM2286 195q0 -23 -14.5 -38.5t-35.5 -15.5q-22 0 -36.5 15.5t-14.5 38.5q0 22 14.5 36.5t36.5 14.5q20 0 35 -15t15 -36zM702 229l15 -53h-31l14 53h2zM1849 111q0 -14 10 -24.5t27 -10.5q15 0 25 10.5t10 24.5t-10 23t-25 9q-17 0 -27 -9t-10 -23z
" />
    <glyph glyph-name="seven" unicode="7" horiz-adv-x="2668" 
d="M1628 946h995v-395h-2568v395h996q8 114 90.5 192.5t197.5 78.5t198 -78.5t91 -192.5zM1165 1120h348q-78 68 -174 68q-99 0 -174 -68zM1194 760h346q59 72 59 166q0 99 -65 174zM1487 1092h-350q-60 -73 -60 -166q0 -99 68 -174zM1784 621q57 0 96 37t39 94q0 55 -39 92
t-96 37t-95 -37t-38 -92q0 -57 38 -94t95 -37zM242 803h57v71h-197v-71h60v-176h80v176zM410 698l30 -71h84l-43 94q29 25 29 65q0 38 -27.5 63t-66.5 25h-103v-247h80v71h17zM537 627h77v247h-77v-247zM793 666l10 -39h86l-84 247h-92l-84 -247h84l10 39h70zM903 627h168
v67h-88v180h-80v-247zM2091 627h82v247h-80v-131l-76 131h-82v-247h80l-2 121zM2198 627h167v67h-88v180h-79v-247zM2490 627v98l84 149h-92l-33 -73l-30 73h-95l86 -149v-98h80zM1784 809q25 0 40 -16t15 -41q0 -26 -15 -43t-40 -17q-23 0 -39 17t-16 43q0 25 16 41t39 16z
M393 807h21q6 0 11 -6.5t5 -14.5q0 -9 -5 -15.5t-11 -6.5h-21v43zM739 731l17 60h2l16 -60h-35zM1513 731h-348q75 -65 174 -65t174 65zM1044 387v-27q24 -14 54 -14q23 0 38 12.5t15 34.5q0 28 -47 45q-12 4 -17.5 6.5t-10.5 7.5t-5 13q0 22 29 22q24 0 41 -14v27
q-20 10 -41 10q-24 0 -38.5 -12t-14.5 -33q0 -14 7 -23.5t14.5 -13.5t23.5 -10q34 -9 34 -25q0 -24 -28 -24q-29 0 -54 18zM1227 428q0 -35 23.5 -58.5t58.5 -23.5q34 0 58 23.5t24 58.5q0 34 -24 58t-58 24q-35 0 -58.5 -24t-23.5 -58zM1552 344v162h-24v-111l-101 113h-12
v-160h25v107l100 -111h12zM156 506h-103v-158h25v60h67v22h-67v53h78v23zM176 506v-96q0 -28 18 -46t46 -18q29 0 47 18t18 46v96h-24v-96q0 -17 -12 -29t-29 -12t-28 11t-11 30v96h-25zM360 506h-24v-158h96v23h-72v135zM479 506h-24v-158h98v23h-74v135zM700 348l66 158
h-29l-45 -117l-45 117h-29l66 -158h16zM889 506h-103v-158h103v23h-78v47h68v20h-68v45h78v23zM977 406l27 -58h28l-31 64q25 14 25 43q0 22 -14.5 36.5t-36.5 14.5h-60v-158h25v58h37zM1200 506h-24v-158h24v158zM1364 428q0 -26 -15.5 -42.5t-39.5 -16.5q-25 0 -41.5 16.5
t-16.5 42.5q0 25 16.5 41t41.5 16q23 0 39 -16t16 -41zM1001 455q0 -12 -7.5 -20.5t-18.5 -8.5h-35v57h35q11 0 18.5 -8t7.5 -20zM2550 375l51 49l-51 49l-17 -14l27 -23h-938v-24h938l-27 -23zM1001 195q0 -51 35 -85t86 -34q52 0 86.5 34t34.5 85q0 50 -34.5 83t-86.5 33
q-51 0 -86 -33.5t-35 -82.5zM1671 172v-76q33 -20 78 -20q40 0 65 20t25 56q0 54 -74 71q-2 1 -7 2q-20 8 -21 15q0 8 22 8q36 0 66 -23v70q-37 16 -66 16q-42 0 -67 -18t-25 -51q0 -29 16 -45t50 -27q4 -2 11.5 -4t11.5 -3t7.5 -4t3.5 -7q0 -13 -18 -13q-24 0 -78 33z
M1933 195q0 -51 34.5 -85t84.5 -34q25 0 53 14l2 72q-21 -21 -51 -21q-22 0 -36.5 15.5t-14.5 38.5q0 22 14.5 36.5t36.5 14.5q20 0 45 -15v68q-21 12 -47 12q-51 0 -86 -33.5t-35 -82.5zM2114 195q0 -51 35 -85t87 -34q51 0 86 34t35 85q0 49 -35 82.5t-86 33.5
q-52 0 -87 -33t-35 -83zM55 242h74l-84 -160h195v63h-78l84 160h-191v-63zM422 305h-162v-223h164v61h-92v21h78v61h-78v19h90v61zM432 242h53v-160h72v160h53v63h-178v-63zM670 117h63l8 -35h78l-76 223h-81l-76 -223h73zM993 305h-162v-223h72v70h76v59h-76v33h90v61z
M1473 82v223h-72v-119l-68 119h-73v-223h71l-2 108l70 -108h74zM1485 242h53v-160h72v160h51v63h-176v-63zM2443 305h-71v-223h71v88l29 -55h51l29 55v-88h69v223h-71l-53 -102zM1171 195q0 -23 -13.5 -38.5t-35.5 -15.5t-35.5 15.5t-13.5 38.5q0 22 13.5 36.5t35.5 14.5
t35.5 -14.5t13.5 -36.5zM2286 195q0 -23 -14.5 -38.5t-35.5 -15.5q-22 0 -36.5 15.5t-14.5 38.5q0 22 14.5 36.5t36.5 14.5q20 0 35 -15t15 -36zM702 229l15 -53h-31l14 53h2zM1849 111q0 -14 10 -24.5t27 -10.5q15 0 25 10.5t10 24.5t-10 23t-25 9q-17 0 -27 -9t-10 -23z
" />
    <glyph glyph-name="eight" unicode="8" horiz-adv-x="2668" 
d="M1628 946h995v-395h-2568v395h996q8 114 90.5 192.5t197.5 78.5t198 -78.5t91 -192.5zM1165 1120h348q-78 68 -174 68q-99 0 -174 -68zM1194 760h346q59 72 59 166q0 99 -65 174zM1487 1092h-350q-60 -73 -60 -166q0 -99 68 -174zM1784 621q57 0 96 37t39 94q0 55 -39 92
t-96 37t-95 -37t-38 -92q0 -57 38 -94t95 -37zM242 803h57v71h-197v-71h60v-176h80v176zM410 698l30 -71h84l-43 94q29 25 29 65q0 38 -27.5 63t-66.5 25h-103v-247h80v71h17zM537 627h77v247h-77v-247zM793 666l10 -39h86l-84 247h-92l-84 -247h84l10 39h70zM903 627h168
v67h-88v180h-80v-247zM2091 627h82v247h-80v-131l-76 131h-82v-247h80l-2 121zM2198 627h167v67h-88v180h-79v-247zM2490 627v98l84 149h-92l-33 -73l-30 73h-95l86 -149v-98h80zM1784 809q25 0 40 -16t15 -41q0 -26 -15 -43t-40 -17q-23 0 -39 17t-16 43q0 25 16 41t39 16z
M393 807h21q6 0 11 -6.5t5 -14.5q0 -9 -5 -15.5t-11 -6.5h-21v43zM739 731l17 60h2l16 -60h-35zM1513 731h-348q75 -65 174 -65t174 65zM1044 387v-27q24 -14 54 -14q23 0 38 12.5t15 34.5q0 28 -47 45q-12 4 -17.5 6.5t-10.5 7.5t-5 13q0 22 29 22q24 0 41 -14v27
q-20 10 -41 10q-24 0 -38.5 -12t-14.5 -33q0 -14 7 -23.5t14.5 -13.5t23.5 -10q34 -9 34 -25q0 -24 -28 -24q-29 0 -54 18zM1227 428q0 -35 23.5 -58.5t58.5 -23.5q34 0 58 23.5t24 58.5q0 34 -24 58t-58 24q-35 0 -58.5 -24t-23.5 -58zM1552 344v162h-24v-111l-101 113h-12
v-160h25v107l100 -111h12zM156 506h-103v-158h25v60h67v22h-67v53h78v23zM176 506v-96q0 -28 18 -46t46 -18q29 0 47 18t18 46v96h-24v-96q0 -17 -12 -29t-29 -12t-28 11t-11 30v96h-25zM360 506h-24v-158h96v23h-72v135zM479 506h-24v-158h98v23h-74v135zM700 348l66 158
h-29l-45 -117l-45 117h-29l66 -158h16zM889 506h-103v-158h103v23h-78v47h68v20h-68v45h78v23zM977 406l27 -58h28l-31 64q25 14 25 43q0 22 -14.5 36.5t-36.5 14.5h-60v-158h25v58h37zM1200 506h-24v-158h24v158zM1364 428q0 -26 -15.5 -42.5t-39.5 -16.5q-25 0 -41.5 16.5
t-16.5 42.5q0 25 16.5 41t41.5 16q23 0 39 -16t16 -41zM1001 455q0 -12 -7.5 -20.5t-18.5 -8.5h-35v57h35q11 0 18.5 -8t7.5 -20zM2550 375l51 49l-51 49l-17 -14l27 -23h-938v-24h938l-27 -23zM1001 195q0 -51 35 -85t86 -34q52 0 86.5 34t34.5 85q0 50 -34.5 83t-86.5 33
q-51 0 -86 -33.5t-35 -82.5zM1671 172v-76q33 -20 78 -20q40 0 65 20t25 56q0 54 -74 71q-2 1 -7 2q-20 8 -21 15q0 8 22 8q36 0 66 -23v70q-37 16 -66 16q-42 0 -67 -18t-25 -51q0 -29 16 -45t50 -27q4 -2 11.5 -4t11.5 -3t7.5 -4t3.5 -7q0 -13 -18 -13q-24 0 -78 33z
M1933 195q0 -51 34.5 -85t84.5 -34q25 0 53 14l2 72q-21 -21 -51 -21q-22 0 -36.5 15.5t-14.5 38.5q0 22 14.5 36.5t36.5 14.5q20 0 45 -15v68q-21 12 -47 12q-51 0 -86 -33.5t-35 -82.5zM2114 195q0 -51 35 -85t87 -34q51 0 86 34t35 85q0 49 -35 82.5t-86 33.5
q-52 0 -87 -33t-35 -83zM55 242h74l-84 -160h195v63h-78l84 160h-191v-63zM422 305h-162v-223h164v61h-92v21h78v61h-78v19h90v61zM432 242h53v-160h72v160h53v63h-178v-63zM670 117h63l8 -35h78l-76 223h-81l-76 -223h73zM993 305h-162v-223h72v70h76v59h-76v33h90v61z
M1473 82v223h-72v-119l-68 119h-73v-223h71l-2 108l70 -108h74zM1485 242h53v-160h72v160h51v63h-176v-63zM2443 305h-71v-223h71v88l29 -55h51l29 55v-88h69v223h-71l-53 -102zM1171 195q0 -23 -13.5 -38.5t-35.5 -15.5t-35.5 15.5t-13.5 38.5q0 22 13.5 36.5t35.5 14.5
t35.5 -14.5t13.5 -36.5zM2286 195q0 -23 -14.5 -38.5t-35.5 -15.5q-22 0 -36.5 15.5t-14.5 38.5q0 22 14.5 36.5t36.5 14.5q20 0 35 -15t15 -36zM702 229l15 -53h-31l14 53h2zM1849 111q0 -14 10 -24.5t27 -10.5q15 0 25 10.5t10 24.5t-10 23t-25 9q-17 0 -27 -9t-10 -23z
" />
    <glyph glyph-name="nine" unicode="9" horiz-adv-x="2668" 
d="M1628 946h995v-395h-2568v395h996q8 114 90.5 192.5t197.5 78.5t198 -78.5t91 -192.5zM1165 1120h348q-78 68 -174 68q-99 0 -174 -68zM1194 760h346q59 72 59 166q0 99 -65 174zM1487 1092h-350q-60 -73 -60 -166q0 -99 68 -174zM1784 621q57 0 96 37t39 94q0 55 -39 92
t-96 37t-95 -37t-38 -92q0 -57 38 -94t95 -37zM242 803h57v71h-197v-71h60v-176h80v176zM410 698l30 -71h84l-43 94q29 25 29 65q0 38 -27.5 63t-66.5 25h-103v-247h80v71h17zM537 627h77v247h-77v-247zM793 666l10 -39h86l-84 247h-92l-84 -247h84l10 39h70zM903 627h168
v67h-88v180h-80v-247zM2091 627h82v247h-80v-131l-76 131h-82v-247h80l-2 121zM2198 627h167v67h-88v180h-79v-247zM2490 627v98l84 149h-92l-33 -73l-30 73h-95l86 -149v-98h80zM1784 809q25 0 40 -16t15 -41q0 -26 -15 -43t-40 -17q-23 0 -39 17t-16 43q0 25 16 41t39 16z
M393 807h21q6 0 11 -6.5t5 -14.5q0 -9 -5 -15.5t-11 -6.5h-21v43zM739 731l17 60h2l16 -60h-35zM1513 731h-348q75 -65 174 -65t174 65zM1044 387v-27q24 -14 54 -14q23 0 38 12.5t15 34.5q0 28 -47 45q-12 4 -17.5 6.5t-10.5 7.5t-5 13q0 22 29 22q24 0 41 -14v27
q-20 10 -41 10q-24 0 -38.5 -12t-14.5 -33q0 -14 7 -23.5t14.5 -13.5t23.5 -10q34 -9 34 -25q0 -24 -28 -24q-29 0 -54 18zM1227 428q0 -35 23.5 -58.5t58.5 -23.5q34 0 58 23.5t24 58.5q0 34 -24 58t-58 24q-35 0 -58.5 -24t-23.5 -58zM1552 344v162h-24v-111l-101 113h-12
v-160h25v107l100 -111h12zM156 506h-103v-158h25v60h67v22h-67v53h78v23zM176 506v-96q0 -28 18 -46t46 -18q29 0 47 18t18 46v96h-24v-96q0 -17 -12 -29t-29 -12t-28 11t-11 30v96h-25zM360 506h-24v-158h96v23h-72v135zM479 506h-24v-158h98v23h-74v135zM700 348l66 158
h-29l-45 -117l-45 117h-29l66 -158h16zM889 506h-103v-158h103v23h-78v47h68v20h-68v45h78v23zM977 406l27 -58h28l-31 64q25 14 25 43q0 22 -14.5 36.5t-36.5 14.5h-60v-158h25v58h37zM1200 506h-24v-158h24v158zM1364 428q0 -26 -15.5 -42.5t-39.5 -16.5q-25 0 -41.5 16.5
t-16.5 42.5q0 25 16.5 41t41.5 16q23 0 39 -16t16 -41zM1001 455q0 -12 -7.5 -20.5t-18.5 -8.5h-35v57h35q11 0 18.5 -8t7.5 -20zM2550 375l51 49l-51 49l-17 -14l27 -23h-938v-24h938l-27 -23zM1001 195q0 -51 35 -85t86 -34q52 0 86.5 34t34.5 85q0 50 -34.5 83t-86.5 33
q-51 0 -86 -33.5t-35 -82.5zM1671 172v-76q33 -20 78 -20q40 0 65 20t25 56q0 54 -74 71q-2 1 -7 2q-20 8 -21 15q0 8 22 8q36 0 66 -23v70q-37 16 -66 16q-42 0 -67 -18t-25 -51q0 -29 16 -45t50 -27q4 -2 11.5 -4t11.5 -3t7.5 -4t3.5 -7q0 -13 -18 -13q-24 0 -78 33z
M1933 195q0 -51 34.5 -85t84.5 -34q25 0 53 14l2 72q-21 -21 -51 -21q-22 0 -36.5 15.5t-14.5 38.5q0 22 14.5 36.5t36.5 14.5q20 0 45 -15v68q-21 12 -47 12q-51 0 -86 -33.5t-35 -82.5zM2114 195q0 -51 35 -85t87 -34q51 0 86 34t35 85q0 49 -35 82.5t-86 33.5
q-52 0 -87 -33t-35 -83zM55 242h74l-84 -160h195v63h-78l84 160h-191v-63zM422 305h-162v-223h164v61h-92v21h78v61h-78v19h90v61zM432 242h53v-160h72v160h53v63h-178v-63zM670 117h63l8 -35h78l-76 223h-81l-76 -223h73zM993 305h-162v-223h72v70h76v59h-76v33h90v61z
M1473 82v223h-72v-119l-68 119h-73v-223h71l-2 108l70 -108h74zM1485 242h53v-160h72v160h51v63h-176v-63zM2443 305h-71v-223h71v88l29 -55h51l29 55v-88h69v223h-71l-53 -102zM1171 195q0 -23 -13.5 -38.5t-35.5 -15.5t-35.5 15.5t-13.5 38.5q0 22 13.5 36.5t35.5 14.5
t35.5 -14.5t13.5 -36.5zM2286 195q0 -23 -14.5 -38.5t-35.5 -15.5q-22 0 -36.5 15.5t-14.5 38.5q0 22 14.5 36.5t36.5 14.5q20 0 35 -15t15 -36zM702 229l15 -53h-31l14 53h2zM1849 111q0 -14 10 -24.5t27 -10.5q15 0 25 10.5t10 24.5t-10 23t-25 9q-17 0 -27 -9t-10 -23z
" />
    <glyph glyph-name="colon" unicode=":" horiz-adv-x="587" 
d="M483 1139v-342h-379v342h379zM104 0v344h379v-344h-379z" />
    <glyph glyph-name="semicolon" unicode=";" horiz-adv-x="587" 
d="M485 795h-379v344h379v-344zM184 -322l-88 140q71 47 102 84.5t31 97.5h-125v344h361q19 -95 23.5 -174.5t-2.5 -139t-28 -109t-46.5 -84.5t-64.5 -65.5t-76 -51t-87 -42.5z" />
    <glyph glyph-name="less" unicode="&#x3c;" horiz-adv-x="851" 
d="M59 795l555 522l179 -195l-445 -407l445 -410l-175 -194l-559 524v160z" />
    <glyph glyph-name="equal" unicode="=" horiz-adv-x="645" 
d="M621 1081v-250h-596v250h596zM621 680v-250h-596v250h596z" />
    <glyph glyph-name="greater" unicode="&#x3e;" horiz-adv-x="851" 
d="M793 639l-555 -522l-179 194l445 408l-445 409l174 195l560 -524v-160z" />
    <glyph glyph-name="question" unicode="?" horiz-adv-x="856" 
d="M551 467h-268q-13 130 11 222t99 171q74 81 74 156q0 57 -33 85.5t-92 28.5q-102 0 -233 -79l-74 315q196 90 377 90q196 0 315 -99t119 -280q0 -55 -13 -102.5t-41 -91.5t-50 -70.5t-62 -69.5q-66 -76 -95.5 -134t-33.5 -142zM238 0v344h378v-344h-378z" />
    <glyph glyph-name="at" unicode="@" horiz-adv-x="1679" 
d="M905 1464q175 0 311.5 -53.5t224.5 -152t133.5 -234t45.5 -301.5q0 -87 -15 -172.5t-49 -165.5t-82 -140.5t-120 -97t-158 -36.5q-204 0 -260 165q-53 -78 -122.5 -120.5t-147.5 -42.5q-133 0 -205.5 100t-69.5 268q2 99 29.5 202.5t76 194.5t126.5 149t170 58
q128 0 198 -122l19 122l295 -16l-101 -633q-31 -176 60 -176q62 0 112 70t76.5 178.5t26.5 228.5q0 286 -155.5 436t-422.5 150q-142 0 -267.5 -57t-222 -161.5t-152.5 -267t-56 -360.5q0 -93 16 -173t56.5 -156t103.5 -130t163 -86.5t228 -33.5q64 0 127 8l-2 -139
q-86 -11 -131 -11q-155 2 -282.5 47t-222.5 132t-147.5 225t-52.5 317q0 215 62.5 398.5t173 313t268 202.5t342.5 73zM786 379q38 0 74 52.5t55.5 118.5t20.5 118q1 74 -24.5 112.5t-71.5 38.5q-33 0 -61 -32t-45 -81t-26.5 -99t-11.5 -93q-1 -66 22 -100.5t68 -34.5z" />
    <glyph glyph-name="A" unicode="A" horiz-adv-x="1200" 
d="M1194 0h-385l-45 223h-332l-47 -223h-381l358 1434h476zM596 1010l-109 -523h222l-107 523h-6z" />
    <glyph glyph-name="B" unicode="B" horiz-adv-x="1146" 
d="M868 743q112 -38 177 -126t65 -214q0 -190 -128.5 -296.5t-360.5 -106.5h-527v1434h512q218 0 340.5 -96t122.5 -277q0 -110 -53 -194t-148 -124zM555 1135h-96v-283h96q152 0 152 137q0 75 -36.5 110.5t-115.5 35.5zM459 299h123q82 0 121.5 36t39.5 111q0 148 -163 148
h-121v-295z" />
    <glyph glyph-name="C" unicode="C" horiz-adv-x="1026" 
d="M664 -27q-277 0 -441 194t-164 550q0 351 158.5 546t439.5 195q160 0 324 -86l-90 -319q-104 59 -209 59q-231 0 -231 -395q0 -200 60 -299t173 -99q108 0 211 64l94 -324q-142 -86 -325 -86z" />
    <glyph glyph-name="D" unicode="D" horiz-adv-x="1236" 
d="M578 0h-484v1434h484q282 0 440 -189t158 -524q0 -340 -157.5 -530.5t-440.5 -190.5zM469 1098v-762h90q229 0 229 383q0 379 -229 379h-90z" />
    <glyph glyph-name="E" unicode="E" horiz-adv-x="995" 
d="M467 573v-249h481v-324h-854v1434h842v-324h-469v-233h399v-304h-399z" />
    <glyph glyph-name="F" unicode="F" horiz-adv-x="952" 
d="M922 1434v-326h-453v-307h399v-309h-399v-492h-375v1434h828z" />
    <glyph glyph-name="G" unicode="G" horiz-adv-x="1153" 
d="M672 518v281h418v-676q-210 -150 -453 -150q-271 0 -424.5 194.5t-153.5 547.5q0 356 166 550.5t441 194.5q175 0 348 -80l-88 -333q-122 69 -236 69q-124 0 -186 -98t-62 -305q0 -195 53 -301.5t152 -106.5q55 0 107 25v188h-82z" />
    <glyph glyph-name="H" unicode="H" horiz-adv-x="1236" 
d="M762 879v555h379v-1434h-379v547h-287v-547h-381v1434h381v-555h287z" />
    <glyph glyph-name="I" unicode="I" horiz-adv-x="565" 
d="M471 0h-377v1434h377v-1434z" />
    <glyph glyph-name="J" unicode="J" horiz-adv-x="821" 
d="M266 -27q-129 0 -260 58l68 319q77 -35 157 -35q142 0 142 201v594h-146v324h516v-940q0 -256 -128.5 -388.5t-348.5 -132.5z" />
    <glyph glyph-name="K" unicode="K" horiz-adv-x="1208" 
d="M813 727l381 -725h-416l-307 629v-631h-377l2 1434h377v-611l293 611h416z" />
    <glyph glyph-name="L" unicode="L" horiz-adv-x="907" 
d="M881 0h-787v1434h383v-1106h404v-328z" />
    <glyph glyph-name="M" unicode="M" horiz-adv-x="1415" 
d="M934 1434h360l60 -1434h-357l-30 678l-185 -678h-149l-184 678l-31 -678h-355l58 1434h356l230 -752z" />
    <glyph glyph-name="N" unicode="N" horiz-adv-x="1232" 
d="M461 0h-367v1434h344l334 -689v689h367v-1434h-332l-346 711v-711z" />
    <glyph glyph-name="O" unicode="O" horiz-adv-x="1251" 
d="M625 -27q-261 0 -413.5 194t-152.5 548q0 348 150.5 546.5t415.5 198.5q261 0 413 -193.5t152 -547.5q0 -348 -150 -547t-415 -199zM625 322q178 0 178 393q0 399 -178 399q-176 0 -176 -397q0 -395 176 -395z" />
    <glyph glyph-name="P" unicode="P" horiz-adv-x="1116" 
d="M557 1434q243 0 383.5 -137.5t140.5 -389.5q0 -247 -137 -389.5t-385 -142.5h-90v-375h-375v1434h463zM469 688h80q73 0 115.5 55.5t42.5 159.5q0 98 -42 155.5t-116 57.5h-80v-428z" />
    <glyph glyph-name="Q" unicode="Q" horiz-adv-x="1257" 
d="M1274 295v-295q-125 0 -332 -12.5t-299 -14.5h-18h-2q-260 2 -412 195.5t-152 546.5q0 348 150.5 546.5t415.5 198.5q261 0 413 -193.5t152 -547.5q0 -279 -96 -463q65 44 180 39zM449 717q0 -395 176 -395q178 0 178 393q0 399 -178 399q-176 0 -176 -397z" />
    <glyph glyph-name="R" unicode="R" horiz-adv-x="1126" 
d="M1110 0h-397l-181 424h-63v-424h-375v1434h471q241 0 380.5 -131.5t139.5 -372.5q0 -146 -53.5 -255.5t-154.5 -172.5zM555 1116h-86v-381h86q74 0 116 49t42 142q0 88 -41.5 139t-116.5 51z" />
    <glyph glyph-name="S" unicode="S" horiz-adv-x="956" 
d="M440 -29q-217 0 -403 80l41 320q66 -32 152.5 -53t154.5 -21q145 0 145 111q0 47 -37.5 86.5t-119.5 93.5q-328 171 -328 438q0 202 130 318t343 116q197 0 359 -67l-41 -326q-144 66 -263 66q-131 0 -131 -107q0 -49 38.5 -91.5t119.5 -92.5q100 -52 169 -110.5
t114 -146t45 -192.5q0 -195 -134.5 -308.5t-353.5 -113.5z" />
    <glyph glyph-name="T" unicode="T" horiz-adv-x="972" 
d="M25 1434h923v-336h-274v-1098h-377v1098h-272v336z" />
    <glyph glyph-name="U" unicode="U" horiz-adv-x="1163" 
d="M582 -27q-234 0 -369 132t-135 358v971h377v-969q0 -83 32.5 -125.5t94.5 -42.5q63 0 97 42.5t34 125.5v969h372v-971q0 -226 -134.5 -358t-368.5 -132z" />
    <glyph glyph-name="V" unicode="V" horiz-adv-x="1155" 
d="M807 0h-457l-342 1434h387l183 -988h2l184 988h383z" />
    <glyph glyph-name="W" unicode="W" horiz-adv-x="1677" 
d="M1130 479l156 955h383l-303 -1434h-395l-131 698l-135 -698h-394l-303 1434h385l156 -955l143 955h293z" />
    <glyph glyph-name="X" unicode="X" horiz-adv-x="1171" 
d="M850 727l307 -727h-409l-164 479l-158 -479h-412l299 727l-278 707h407l142 -449l139 449h407z" />
    <glyph glyph-name="Y" unicode="Y" horiz-adv-x="1093" 
d="M700 1434h396l-361 -988v-446h-377v446l-360 988h395l156 -607z" />
    <glyph glyph-name="Z" unicode="Z" horiz-adv-x="976" 
d="M936 0h-895v246l426 852h-412v336h871v-246l-424 -852h434v-336z" />
    <glyph glyph-name="bracketleft" unicode="[" horiz-adv-x="720" 
d="M698 -375h-639v1897h639v-291h-247v-1315h247v-291z" />
    <glyph glyph-name="backslash" unicode="\" horiz-adv-x="1091" 
d="M354 1454l736 -1651h-353l-735 1651h352z" />
    <glyph glyph-name="bracketright" unicode="]" horiz-adv-x="720" 
d="M25 1522h637v-1897h-637v291h245v1315h-245v291z" />
    <glyph glyph-name="asciicircum" unicode="^" horiz-adv-x="913" 
d="M455 1112l-125 -498l-322 17l258 801h379l260 -801l-319 -17z" />
    <glyph glyph-name="underscore" unicode="_" horiz-adv-x="849" 
d="M817 -70v-172h-821v172h821z" />
    <glyph glyph-name="grave" unicode="`" horiz-adv-x="565" 
d="M504 1251l-232 -16l-213 278l312 52z" />
    <glyph glyph-name="a" unicode="a" horiz-adv-x="1011" 
d="M467 1165q241 0 355 -124.5t114 -346.5v-694h-358v135q-39 -80 -103.5 -120t-144.5 -40q-138 0 -218.5 92t-80.5 271q0 165 90.5 255.5t271.5 90.5q75 0 185 -8v31q0 82 -39 120.5t-123 38.5q-128 0 -250 -51l-33 293q162 57 334 57zM463 256q54 0 84.5 57t30.5 174v11
q-41 6 -91 6q-110 0 -110 -127q0 -57 23.5 -89t62.5 -32z" />
    <glyph glyph-name="b" unicode="b" horiz-adv-x="1112" 
d="M690 -25q-152 0 -246 121v-96h-358v1511h358v-469q96 123 242 123q174 0 277.5 -157t103.5 -435q0 -281 -102.5 -439.5t-274.5 -158.5zM578 291q122 0 122 282q0 135 -32.5 205t-89.5 70q-34 0 -60.5 -25.5t-42 -67t-23.5 -89t-8 -97.5q0 -115 34.5 -196.5t99.5 -81.5z
" />
    <glyph glyph-name="c" unicode="c" horiz-adv-x="835" 
d="M553 -27q-236 0 -372 159.5t-136 436.5q0 275 137.5 435.5t368.5 160.5q139 0 264 -67l-86 -299q-79 47 -149 47q-78 0 -125 -71.5t-47 -203.5q0 -135 46 -206.5t126 -71.5q77 0 151 43l84 -295q-128 -68 -262 -68z" />
    <glyph glyph-name="d" unicode="d" horiz-adv-x="1114" 
d="M426 -25q-172 0 -274.5 158.5t-102.5 439.5q0 278 102.5 435t276.5 157q149 0 242 -123v469h360v-1511h-360v96q-94 -121 -244 -121zM539 291q63 0 97 76.5t34 195.5q0 134 -34 209.5t-97 75.5q-58 0 -91.5 -70t-33.5 -205q0 -282 125 -282z" />
    <glyph glyph-name="e" unicode="e" horiz-adv-x="1015" 
d="M938 469h-537q13 -103 58 -151t123 -48q125 0 237 62l64 -273q-144 -84 -340 -84q-228 0 -363 159.5t-135 436.5q0 269 129.5 430.5t360.5 161.5q203 0 319.5 -136.5t116.5 -360.5q0 -92 -33 -197zM399 664h232q0 210 -111 210q-109 0 -121 -210z" />
    <glyph glyph-name="f" unicode="f" horiz-adv-x="720" 
d="M594 1290q-41 0 -61.5 -27t-20.5 -89v-35h195v-297h-195v-842h-360v842h-117v297h117v45q0 197 97 301t277 104q128 0 230 -30l-37 -283q-49 14 -125 14z" />
    <glyph glyph-name="g" unicode="g" horiz-adv-x="1011" 
d="M467 303h121q418 3 418 -309q0 -173 -136.5 -271t-390.5 -98q-420 0 -420 289q0 111 117 197q-106 50 -106 182q0 59 31.5 110.5t80.5 88.5q-114 102 -114 288q0 178 117.5 281.5t320.5 103.5q121 0 194 -37l228 82l65 -229l-108 -25q61 -75 61 -176q0 -183 -113.5 -288
t-324.5 -105q-52 0 -98 6q-19 -27 -19 -45q0 -45 76 -45zM506 913q-41 0 -62.5 -34.5t-21.5 -96.5q0 -143 84 -143q43 0 65.5 36.5t22.5 104.5q0 61 -23 97t-65 36zM508 -117q133 0 133 109q0 46 -30 67t-91 21h-88q-35 -47 -35 -96q0 -101 111 -101z" />
    <glyph glyph-name="h" unicode="h" horiz-adv-x="1083" 
d="M709 1165q146 0 223.5 -102t77.5 -303v-760h-361v698q0 138 -88 138q-43 0 -74 -37.5t-43 -108.5v-690h-358v1511h358v-505q43 74 110.5 116.5t154.5 42.5z" />
    <glyph glyph-name="i" unicode="i" horiz-adv-x="524" 
d="M442 1235h-370v274h370v-274zM442 0h-360v1139h360v-1139z" />
    <glyph glyph-name="j" unicode="j" horiz-adv-x="532" 
d="M449 1235h-371v274h371v-274zM-47 -360l4 272h61q72 0 72 119v1108h361v-1100q0 -216 -96.5 -315t-280.5 -99q-55 0 -121 15z" />
    <glyph glyph-name="k" unicode="k" horiz-adv-x="1075" 
d="M760 575l307 -575h-399l-224 461v-461h-358v1511h358v-823l220 451h399z" />
    <glyph glyph-name="l" unicode="l" horiz-adv-x="530" 
d="M444 0h-358v1511h358v-1511z" />
    <glyph glyph-name="m" unicode="m" horiz-adv-x="1599" 
d="M1231 1165q293 0 293 -391v-774h-359v707q0 131 -75 131q-40 0 -68.5 -33.5t-38.5 -97.5v-707h-360v707q0 131 -74 131q-41 0 -70.5 -37t-38.5 -107v-694h-358v1139h358v-101q96 127 250 127q188 0 256 -164q49 76 123 120t162 44z" />
    <glyph glyph-name="n" unicode="n" horiz-adv-x="1079" 
d="M705 1165q146 0 223.5 -102t77.5 -303v-760h-361v698q0 138 -88 138q-35 0 -66 -29.5t-51 -83.5v-723h-358v1139h358v-140q43 77 111 121.5t154 44.5z" />
    <glyph glyph-name="o" unicode="o" horiz-adv-x="1077" 
d="M537 -27q-225 0 -358.5 158.5t-133.5 439.5q0 272 132.5 433t361.5 161q225 0 359 -157.5t134 -434.5q0 -275 -132.5 -437.5t-362.5 -162.5zM539 295q61 0 95 70.5t34 205.5q0 133 -34.5 203t-96.5 70q-61 0 -95 -69t-34 -202q0 -136 34.5 -207t96.5 -71z" />
    <glyph glyph-name="p" unicode="p" horiz-adv-x="1107" 
d="M442 -352h-360v1491h360v-97q96 121 246 121q171 0 273 -158.5t102 -439.5q0 -278 -102.5 -435t-276.5 -157q-148 0 -242 121v-446zM573 291q59 0 92 69t33 205q0 281 -125 281q-63 0 -97 -78t-34 -201q0 -128 35.5 -202t95.5 -74z" />
    <glyph glyph-name="q" unicode="q" horiz-adv-x="1107" 
d="M1026 -352h-360v444q-97 -119 -242 -119q-174 0 -276.5 157t-102.5 435q0 280 103 439t274 159q148 0 244 -121v97h360v-1491zM535 291q34 0 60 25t41 67t22.5 89.5t7.5 98.5q0 118 -34.5 196.5t-96.5 78.5q-59 0 -91 -70t-32 -211q0 -136 32.5 -205t90.5 -69z" />
    <glyph glyph-name="r" unicode="r" horiz-adv-x="727" 
d="M639 1159q45 0 80 -14l-27 -354q-52 10 -104 10q-69 0 -107.5 -74.5t-38.5 -214.5v-512h-360v1139h360v-117q68 137 197 137z" />
    <glyph glyph-name="s" unicode="s" horiz-adv-x="825" 
d="M381 -25q-183 0 -348 60l45 299q126 -66 276 -66q84 0 84 68q0 33 -30.5 59.5t-104.5 63.5q-134 54 -199 134t-65 216q0 70 21 128.5t58.5 100t88 70.5t110 43t125.5 14q156 0 303 -57l-43 -297q-131 59 -235 59q-81 0 -84 -67q0 -35 31.5 -63t95.5 -56
q141 -63 212 -145.5t71 -212.5q-1 -163 -114.5 -257t-297.5 -94z" />
    <glyph glyph-name="t" unicode="t" horiz-adv-x="778" 
d="M481 -27q-173 0 -262.5 97.5t-89.5 289.5v482h-96v153l119 150l192 246h143v-252h240v-297h-240v-451q0 -98 80 -98q52 0 123 26l53 -292q-142 -54 -262 -54z" />
    <glyph glyph-name="u" unicode="u" horiz-adv-x="1081" 
d="M639 416v723h358v-1139h-358v139q-43 -77 -110.5 -121.5t-153.5 -44.5q-146 0 -223.5 102.5t-77.5 303.5v760h360v-699q0 -137 88 -137q35 0 66 29.5t51 83.5z" />
    <glyph glyph-name="v" unicode="v" horiz-adv-x="1054" 
d="M737 0h-418l-305 1139h371l141 -738h4l140 738h372z" />
    <glyph glyph-name="w" unicode="w" horiz-adv-x="1488" 
d="M987 426l113 713h370l-266 -1139h-352l-107 596l-108 -596h-352l-267 1139h371l113 -713l116 713h252z" />
    <glyph glyph-name="x" unicode="x" horiz-adv-x="1071" 
d="M776 569l285 -569h-389l-135 334l-138 -334h-389l283 575l-264 564h393l113 -316l114 316h389z" />
    <glyph glyph-name="y" unicode="y" horiz-adv-x="1054" 
d="M530 395l140 744h372l-315 -1139l-96 -350h-363l90 332l-22 -2l-322 1159h371l141 -744h4z" />
    <glyph glyph-name="z" unicode="z" horiz-adv-x="894" 
d="M854 0h-809v225l352 606h-340v308h789v-226l-352 -606h360v-307z" />
    <glyph glyph-name="braceleft" unicode="{" horiz-adv-x="804" 
d="M780 1520l2 -287q-116 -3 -158.5 -46.5t-37.5 -142.5q1 -26 5.5 -98t4.5 -112q1 -124 -62.5 -186t-185.5 -73v-4q122 -11 185.5 -72.5t62.5 -187.5q0 -37 -4.5 -110.5t-5.5 -100.5q-5 -97 37 -140.5t159 -47.5l-2 -287q-156 -4 -266.5 11.5t-175.5 49t-100.5 84
t-41 115.5t2.5 144q20 176 20 262q3 80 -47 116.5t-147 36.5v256q95 0 146 37.5t48 114.5q-2 105 -20 264q-8 79 -2.5 144.5t41 115.5t100 84t175.5 49.5t267 10.5z" />
    <glyph glyph-name="bar" unicode="|" horiz-adv-x="526" 
d="M430 1434v-1647h-336v1647h336z" />
    <glyph glyph-name="braceright" unicode="}" horiz-adv-x="804" 
d="M25 -371v287q116 3 157.5 45.5t38.5 140.5q-1 23 -4.5 66t-5.5 78.5t-2 66.5q-1 126 62.5 187.5t185.5 72.5v5q-122 11 -185.5 72.5t-62.5 187.5q0 29 2 64.5t5.5 79.5t4.5 67q3 97 -38.5 140.5t-157.5 47.5v287q156 4 267 -12t176 -49.5t100.5 -84t40.5 -116t-3 -144.5
q-19 -204 -20 -262q-3 -154 196 -154v-256q-199 0 -196 -149q4 -86 20 -264q8 -79 3 -144.5t-40.5 -115.5t-100.5 -84t-176 -49.5t-267 -10.5z" />
    <glyph glyph-name="asciitilde" unicode="~" horiz-adv-x="815" 
d="M227 1141l-202 37q0 106 61 168.5t162 62.5q65 0 156.5 -29.5t111.5 -29.5q31 0 51.5 21t20.5 56l203 -36q0 -107 -60.5 -170.5t-163.5 -63.5q-62 0 -154.5 30t-113.5 30q-32 0 -51 -21.5t-21 -54.5z" />
    <glyph glyph-name="uni00A0" unicode="&#xa0;" horiz-adv-x="555" 
 />
    <glyph glyph-name="exclamdown" unicode="&#xa1;" horiz-adv-x="591" 
d="M487 1139v-344h-378v344h378zM471 215v-512h-362v508l57 461h246z" />
    <glyph glyph-name="cent" unicode="&#xa2;" horiz-adv-x="886" 
d="M731 336l84 -295q-115 -62 -240 -68l-28 -278h-248l35 323q-137 62 -213 205t-76 346q0 244 109.5 399.5t298.5 188.5l30 289h248l-31 -301q49 -13 115 -47l-86 -299q-79 47 -149 47q-78 0 -125 -71.5t-47 -203.5q0 -135 46 -206.5t126 -71.5q77 0 151 43z" />
    <glyph glyph-name="sterling" unicode="&#xa3;" horiz-adv-x="1013" 
d="M520 559v-266h459v-297h-950v229l133 49v285h-131v172h131v178q0 264 124.5 405.5t352.5 141.5q149 0 301 -86l-106 -297q-79 45 -160 45q-154 0 -154 -207v-180h266v-172h-266z" />
    <glyph glyph-name="yen" unicode="&#xa5;" horiz-adv-x="1081" 
d="M309 571l-311 863h395l150 -596l145 596h395l-311 -863h137v-133h-182v-82h182v-131h-182v-225h-375v225h-178v131h178v82h-178v133h135z" />
    <glyph glyph-name="brokenbar" unicode="&#xa6;" horiz-adv-x="608" 
d="M473 1434v-652h-338v652h338zM473 481v-651h-338v651h338z" />
    <glyph glyph-name="section" unicode="&#xa7;" horiz-adv-x="933" 
d="M639 1188q19 -57 55.5 -133.5t70.5 -145t67 -146t53 -165.5t20 -174q0 -211 -138.5 -330t-358.5 -119q-157 0 -349 76l64 248q90 -39 178 -51q-22 67 -72 169t-90 183t-72 194t-32 220q0 211 137 327.5t358 116.5q162 0 349 -72l-62 -249q-90 39 -178 51zM526 276
q74 50 74 154q0 80 -24.5 174t-55 171t-62.5 184t-44 202q-74 -48 -74 -153q0 -80 24.5 -175t55 -172t62.5 -184t44 -201z" />
    <glyph glyph-name="dieresis" unicode="&#xa8;" horiz-adv-x="696" 
d="M303 1235h-242v274h242v-274zM635 1235h-242v274h242v-274z" />
    <glyph glyph-name="copyright" unicode="&#xa9;" horiz-adv-x="1415" 
d="M707 -20q-136 0 -255 51.5t-206 145t-137 232t-50 304.5q0 167 50 307t137 234t206 146t255 52q137 0 256 -52t206 -146t137 -234t50 -307q0 -166 -50 -304.5t-137 -232t-206 -145t-256 -51.5zM707 117q220 0 366 165t146 431q0 269 -145.5 435.5t-366.5 166.5
q-219 0 -363.5 -166.5t-144.5 -435.5q0 -266 144.5 -431t363.5 -165zM713 258q-177 0 -286.5 128t-109.5 335q0 206 110.5 333.5t291.5 127.5q222 0 332 -201l-197 -143q-48 67 -117 67q-57 0 -94 -50.5t-37 -131.5q0 -80 36.5 -134t92.5 -54q69 0 119 67l197 -143
q-110 -201 -338 -201z" />
    <glyph glyph-name="ordfeminine" unicode="&#xaa;" horiz-adv-x="612" 
d="M297 1538q138 0 204 -71.5t66 -192.5v-381h-211v63q-49 -77 -135 -77q-82 0 -129 56.5t-47 158.5q0 89 52 141.5t149 52.5q52 0 110 -8q0 82 -82 82q-79 0 -137 -33l-51 164q92 45 211 45zM295 1061q28 0 44.5 26.5t16.5 69.5v4q-21 6 -49 6q-55 0 -55 -55q0 -51 43 -51z
M565 631h-512v168h512v-168z" />
    <glyph glyph-name="guillemotleft" unicode="&#xab;" horiz-adv-x="1122" 
d="M590 168l-207 -107l-358 416v129l350 414l215 -105l-271 -374zM1098 168l-215 -107l-398 469v21l398 469l215 -105l-271 -374z" />
    <glyph glyph-name="logicalnot" unicode="&#xac;" horiz-adv-x="868" 
d="M25 578v294h819v-536h-293v242h-526z" />
    <glyph glyph-name="uni00AD" unicode="&#xad;" horiz-adv-x="645" 
d="M621 623v-295h-596v295h596z" />
    <glyph glyph-name="registered" unicode="&#xae;" horiz-adv-x="761" 
d="M381 1497q143 0 232 -107.5t89 -281.5q0 -173 -89 -281t-232 -108t-232.5 108t-89.5 281q0 174 89.5 281.5t232.5 107.5zM381 786q113 0 182.5 88.5t69.5 233.5t-69.5 234.5t-182.5 89.5t-182.5 -89.5t-69.5 -234.5t69.5 -233.5t182.5 -88.5zM494 1069l65 -151h-131
l-43 124h-27v-124h-118v419h147q75 0 119.5 -39t44.5 -108q0 -82 -57 -121zM385 1237h-27v-104h27q21 0 34 14t13 41q0 22 -12.5 35.5t-34.5 13.5z" />
    <glyph glyph-name="macron" unicode="&#xaf;" horiz-adv-x="737" 
d="M676 1257h-617v207h617v-207z" />
    <glyph glyph-name="degree" unicode="&#xb0;" horiz-adv-x="774" 
d="M385 807q-134 0 -230 96t-96 232q0 133 96 229t230 96q136 0 232 -95.5t96 -229.5q0 -136 -96.5 -232t-231.5 -96zM385 928q88 0 147.5 59.5t59.5 147.5q0 85 -60 144.5t-147 59.5q-85 0 -145 -59.5t-60 -144.5q0 -87 60 -147t145 -60z" />
    <glyph glyph-name="plusminus" unicode="&#xb1;" horiz-adv-x="751" 
d="M522 1137v-201h205v-279h-205v-200h-295v200h-202v279h202v201h295zM719 141h-688v254h688v-254z" />
    <glyph glyph-name="uni00B2" unicode="&#xb2;" horiz-adv-x="593" 
d="M561 913h-520v183q96 61 176 145q68 77 68 133q0 31 -23 47.5t-61 16.5q-44 0 -95 -33l-69 197q102 55 215 55q135 0 216 -65.5t81 -178.5q0 -119 -117 -233l-45 -45h174v-222z" />
    <glyph glyph-name="uni00B3" unicode="&#xb3;" horiz-adv-x="575" 
d="M260 901q-114 0 -229 45l49 197q61 -27 141 -27q66 0 66 55q0 23 -16.5 38t-47.5 16q-33 2 -92 2v121l123 120h-188v179h434l16 -160l-119 -125l19 -6q127 -52 127 -201q0 -124 -75.5 -189t-207.5 -65z" />
    <glyph glyph-name="acute" unicode="&#xb4;" horiz-adv-x="565" 
d="M504 1513l-211 -278l-234 16l134 314z" />
    <glyph glyph-name="uni00B5" unicode="&#xb5;" horiz-adv-x="1083" 
d="M641 412v727h358v-1139h-358v139q-81 -139 -215 -162l16 -327h-366l2 680q-2 14 -2 49v760h360v-699q0 -137 88 -137q35 0 67 29t50 80z" />
    <glyph glyph-name="paragraph" unicode="&#xb6;" horiz-adv-x="1308" 
d="M520 1434h260v-1680h-250v754h-8q-234 0 -360.5 121t-126.5 346q0 221 126 340t359 119zM961 -246v1680h251v-1680h-251z" />
    <glyph glyph-name="periodcentered" unicode="&#xb7;" horiz-adv-x="389" 
d="M43 481v277h305v-277h-305z" />
    <glyph glyph-name="cedilla" unicode="&#xb8;" horiz-adv-x="598" 
d="M373 16l-23 -77q74 -9 118 -48.5t44 -97.5q0 -78 -74.5 -121t-201.5 -43q-83 0 -150 13l31 141q46 -8 76 -8q65 0 65 37q0 52 -111 38l46 166h180z" />
    <glyph glyph-name="uni00B9" unicode="&#xb9;" horiz-adv-x="436" 
d="M31 1610l174 30h198v-727h-243v502l-99 -18z" />
    <glyph glyph-name="ordmasculine" unicode="&#xba;" horiz-adv-x="665" 
d="M334 874q-131 0 -210 87.5t-79 242.5q0 148 78 239t211 91q130 0 208.5 -87.5t78.5 -240.5q0 -149 -77.5 -240.5t-209.5 -91.5zM334 1063q33 0 53.5 37t20.5 104q0 65 -19.5 103.5t-54.5 38.5q-34 0 -55 -37t-21 -103t20.5 -104.5t55.5 -38.5zM596 627h-530v168h530v-168
z" />
    <glyph glyph-name="guillemotright" unicode="&#xbb;" horiz-adv-x="1122" 
d="M25 913l215 107l397 -469v-21l-397 -469l-215 105l270 375zM532 913l205 107l361 -416v-129l-350 -414l-216 105l271 375z" />
    <glyph glyph-name="onequarter" unicode="&#xbc;" horiz-adv-x="1402" 
d="M403 731h-243v502l-99 -19l-30 213l174 31h198v-727zM141 0l607 1434h268l-604 -1434h-271zM1315 731v-432h57v-182h-57v-117h-232v117h-286l-45 141l252 473h311zM989 299h101v229z" />
    <glyph glyph-name="onehalf" unicode="&#xbd;" horiz-adv-x="1312" 
d="M403 731h-243v502l-99 -19l-30 213l174 31h198v-727zM141 0l607 1434h268l-604 -1434h-271zM1108 221h174v-221h-520v182q93 60 176 146q68 77 68 133q0 31 -23 47t-61 16q-45 0 -95 -32l-69 196q102 55 215 55q135 0 216 -65t81 -178q0 -120 -117 -234z" />
    <glyph glyph-name="threequarters" unicode="&#xbe;" horiz-adv-x="1542" 
d="M260 717q-114 0 -229 45l49 196q59 -26 141 -26q66 0 66 55q0 23 -16.5 37.5t-47.5 15.5q-33 2 -92 2v121l123 121h-188v178h434l16 -159l-119 -125l19 -7q127 -52 127 -200q0 -124 -75.5 -189t-207.5 -65zM551 0h-270l606 1434h268zM1454 0h-231v117h-287l-45 141
l252 473h311v-432h57v-182h-57v-117zM1229 528l-101 -229h101v229z" />
    <glyph glyph-name="questiondown" unicode="&#xbf;" horiz-adv-x="858" 
d="M621 1139v-344h-379v344h379zM305 672h270q12 -131 -12 -222.5t-98 -170.5q-76 -87 -76 -158q0 -57 34 -85t93 -28q100 0 232 78l75 -315q-203 -90 -377 -90q-197 0 -316.5 99t-119.5 279q0 45 11 88t22.5 70t41 67.5t42 54.5t49.5 56q67 76 96.5 133.5t32.5 143.5z" />
    <glyph glyph-name="Agrave" unicode="&#xc0;" horiz-adv-x="1200" 
d="M584 1800l155 -274l-270 -15l-211 224zM1194 0h-385l-45 223h-332l-47 -223h-381l358 1434h476zM596 1010l-109 -523h222l-107 523h-6z" />
    <glyph glyph-name="Aacute" unicode="&#xc1;" horiz-adv-x="1200" 
d="M614 1802l324 -67l-211 -222l-270 15zM1194 0h-385l-45 223h-332l-47 -223h-381l358 1434h476zM596 1010l-109 -523h222l-107 523h-6z" />
    <glyph glyph-name="Acircumflex" unicode="&#xc2;" horiz-adv-x="1200" 
d="M653 1516l-53 124l-51 -124l-270 14l139 262h362l142 -262zM1194 0h-385l-45 223h-332l-47 -223h-381l358 1434h476zM596 1010l-109 -523h222l-107 523h-6z" />
    <glyph glyph-name="Atilde" unicode="&#xc3;" horiz-adv-x="1200" 
d="M483 1511l-166 33q-3 117 38.5 182.5t119.5 65.5q50 0 112.5 -25.5t78.5 -25.5q50 0 47 61l164 -30q3 -118 -38 -183t-118 -65q-50 0 -113.5 25.5t-81.5 25.5q-21 0 -32.5 -16.5t-10.5 -47.5zM1194 0h-385l-45 223h-332l-47 -223h-381l358 1434h476zM596 1010l-109 -523
h222l-107 523h-6z" />
    <glyph glyph-name="Adieresis" unicode="&#xc4;" horiz-adv-x="1200" 
d="M301 1780h264v-264h-264v264zM631 1780h264v-264h-264v264zM1194 0h-385l-45 223h-332l-47 -223h-381l358 1434h476zM596 1010l-109 -523h222l-107 523h-6z" />
    <glyph glyph-name="Aring" unicode="&#xc5;" horiz-adv-x="1200" 
d="M600 1464q-103 0 -171.5 64.5t-68.5 161.5q0 98 68.5 162.5t171.5 64.5q102 0 170 -64.5t68 -162.5q0 -97 -68.5 -161.5t-169.5 -64.5zM600 1763q-29 0 -48.5 -21t-19.5 -52t19.5 -50.5t48.5 -19.5q28 0 47 20t19 50q0 31 -19 52t-47 21zM1194 0h-385l-45 223h-332
l-47 -223h-381l358 1434h476zM596 1010l-109 -523h222l-107 523h-6z" />
    <glyph glyph-name="AE" unicode="&#xc6;" horiz-adv-x="1617" 
d="M1090 573v-249h481v-324h-854v256h-252l-76 -256h-385l428 1434h1127v-324h-469v-233h399v-304h-399zM711 1102l-164 -582h170v582h-6z" />
    <glyph glyph-name="Ccedilla" unicode="&#xc7;" horiz-adv-x="1026" 
d="M715 -25l-10 -36q74 -9 117.5 -48.5t43.5 -97.5q0 -78 -74.5 -121t-201.5 -43q-83 0 -150 13l31 141q46 -8 76 -8q65 0 65 37q0 52 -110 38l37 134q-224 42 -352 231t-128 502q0 351 158.5 546t439.5 195q160 0 324 -86l-90 -319q-104 59 -209 59q-231 0 -231 -395
q0 -200 60 -299t173 -99q108 0 211 64l94 -324q-120 -72 -274 -84z" />
    <glyph glyph-name="Egrave" unicode="&#xc8;" horiz-adv-x="995" 
d="M500 1800l155 -274l-270 -15l-211 224zM467 573v-249h481v-324h-854v1434h842v-324h-469v-233h399v-304h-399z" />
    <glyph glyph-name="Eacute" unicode="&#xc9;" horiz-adv-x="995" 
d="M530 1802l324 -67l-211 -222l-270 15zM467 573v-249h481v-324h-854v1434h842v-324h-469v-233h399v-304h-399z" />
    <glyph glyph-name="Ecircumflex" unicode="&#xca;" horiz-adv-x="995" 
d="M567 1516l-53 124l-51 -124l-270 14l139 262h362l142 -262zM467 573v-249h481v-324h-854v1434h842v-324h-469v-233h399v-304h-399z" />
    <glyph glyph-name="Edieresis" unicode="&#xcb;" horiz-adv-x="995" 
d="M217 1780h264v-264h-264v264zM547 1780h264v-264h-264v264zM467 573v-249h481v-324h-854v1434h842v-324h-469v-233h399v-304h-399z" />
    <glyph glyph-name="Igrave" unicode="&#xcc;" horiz-adv-x="565" 
d="M424 1526l-270 -15l-211 224l325 65zM471 0h-377v1434h377v-1434z" />
    <glyph glyph-name="Iacute" unicode="&#xcd;" horiz-adv-x="565" 
d="M623 1735l-211 -222l-271 15l158 274zM471 0h-377v1434h377v-1434z" />
    <glyph glyph-name="Icircumflex" unicode="&#xce;" horiz-adv-x="565" 
d="M336 1516l-53 124l-52 -124l-270 14l139 262h363l141 -262zM471 0h-377v1434h377v-1434z" />
    <glyph glyph-name="Idieresis" unicode="&#xcf;" horiz-adv-x="565" 
d="M250 1516h-264v264h264v-264zM580 1516h-265v264h265v-264zM471 0h-377v1434h377v-1434z" />
    <glyph glyph-name="Eth" unicode="&#xd0;" horiz-adv-x="1236" 
d="M94 1434h484q282 0 440 -189t158 -524q0 -340 -157.5 -530.5t-440.5 -190.5h-484v639h-67v164h67v631zM469 336h90q229 0 229 383q0 379 -229 379h-90v-295h197v-164h-197v-303z" />
    <glyph glyph-name="Ntilde" unicode="&#xd1;" horiz-adv-x="1232" 
d="M502 1511l-166 33q-3 117 38.5 182.5t119.5 65.5q50 0 112 -25.5t78 -25.5q50 0 47 61l164 -30q3 -118 -38 -183t-118 -65q-50 0 -113 25.5t-81 25.5q-21 0 -32.5 -16.5t-10.5 -47.5zM461 0h-367v1434h344l334 -689v689h367v-1434h-332l-346 711v-711z" />
    <glyph glyph-name="Ograve" unicode="&#xd2;" horiz-adv-x="1251" 
d="M766 1526l-270 -15l-211 224l325 65zM625 -27q-261 0 -413.5 194t-152.5 548q0 348 150.5 546.5t415.5 198.5q261 0 413 -193.5t152 -547.5q0 -348 -150 -547t-415 -199zM625 322q178 0 178 393q0 399 -178 399q-176 0 -176 -397q0 -395 176 -395z" />
    <glyph glyph-name="Oacute" unicode="&#xd3;" horiz-adv-x="1251" 
d="M965 1735l-211 -222l-271 15l158 274zM625 -27q-261 0 -413.5 194t-152.5 548q0 348 150.5 546.5t415.5 198.5q261 0 413 -193.5t152 -547.5q0 -348 -150 -547t-415 -199zM625 322q178 0 178 393q0 399 -178 399q-176 0 -176 -397q0 -395 176 -395z" />
    <glyph glyph-name="Ocircumflex" unicode="&#xd4;" horiz-adv-x="1251" 
d="M680 1516l-53 124l-52 -124l-270 14l139 262h363l141 -262zM625 1460q261 0 413 -193.5t152 -547.5q0 -348 -150 -547t-415 -199q-261 0 -413.5 194t-152.5 548q0 348 150.5 546.5t415.5 198.5zM625 322q178 0 178 393q0 399 -178 399q-176 0 -176 -397q0 -395 176 -395z
" />
    <glyph glyph-name="Otilde" unicode="&#xd5;" horiz-adv-x="1251" 
d="M510 1511l-166 33q-3 117 38.5 182.5t119.5 65.5q50 0 112 -25.5t78 -25.5q50 0 47 61l164 -30q3 -118 -37.5 -183t-117.5 -65q-50 0 -113.5 25.5t-81.5 25.5q-21 0 -32.5 -16.5t-10.5 -47.5zM625 -27q-261 0 -413.5 194t-152.5 548q0 348 150.5 546.5t415.5 198.5
q261 0 413 -193.5t152 -547.5q0 -348 -150 -547t-415 -199zM625 322q178 0 178 393q0 399 -178 399q-176 0 -176 -397q0 -395 176 -395z" />
    <glyph glyph-name="Odieresis" unicode="&#xd6;" horiz-adv-x="1251" 
d="M592 1516h-264v264h264v-264zM922 1516h-265v264h265v-264zM625 -27q-261 0 -413.5 194t-152.5 548q0 348 150.5 546.5t415.5 198.5q261 0 413 -193.5t152 -547.5q0 -348 -150 -547t-415 -199zM625 322q178 0 178 393q0 399 -178 399q-176 0 -176 -397q0 -395 176 -395z
" />
    <glyph glyph-name="multiply" unicode="&#xd7;" horiz-adv-x="749" 
d="M631 625l-119 -99l29 -112l-166 -2l-84 -70l-172 352l119 97l-29 114l172 4l80 66z" />
    <glyph glyph-name="Oslash" unicode="&#xd8;" horiz-adv-x="1251" 
d="M1145 1382l-90 -141q135 -193 135 -522q0 -348 -150 -547t-415 -199q-182 0 -314 97l-63 -101l-137 86l84 133q-136 198 -136 527q0 348 150.5 546.5t415.5 198.5q181 0 315 -96l66 104zM449 717q0 -47 4 -121l286 453q-44 65 -114 65q-176 0 -176 -397zM625 322
q178 0 178 393q0 47 -4 121l-287 -451q42 -63 113 -63z" />
    <glyph glyph-name="Ugrave" unicode="&#xd9;" horiz-adv-x="1163" 
d="M725 1526l-270 -15l-211 224l325 65zM582 -27q-234 0 -369 132t-135 358v971h377v-969q0 -83 32.5 -125.5t94.5 -42.5q63 0 97 42.5t34 125.5v969h372v-971q0 -226 -134.5 -358t-368.5 -132z" />
    <glyph glyph-name="Uacute" unicode="&#xda;" horiz-adv-x="1163" 
d="M924 1735l-211 -222l-271 15l158 274zM582 -27q-234 0 -369 132t-135 358v971h377v-969q0 -83 32.5 -125.5t94.5 -42.5q63 0 97 42.5t34 125.5v969h372v-971q0 -226 -134.5 -358t-368.5 -132z" />
    <glyph glyph-name="Ucircumflex" unicode="&#xdb;" horiz-adv-x="1163" 
d="M639 1516l-53 124l-51 -124l-271 14l139 262h363l141 -262zM713 465v969h372v-971q0 -226 -134.5 -358t-368.5 -132t-369 132t-135 358v971h377v-969q0 -83 32.5 -125.5t94.5 -42.5q63 0 97 42.5t34 125.5z" />
    <glyph glyph-name="Udieresis" unicode="&#xdc;" horiz-adv-x="1163" 
d="M551 1516h-264v264h264v-264zM881 1516h-265v264h265v-264zM582 -27q-234 0 -369 132t-135 358v971h377v-969q0 -83 32.5 -125.5t94.5 -42.5q63 0 97 42.5t34 125.5v969h372v-971q0 -226 -134.5 -358t-368.5 -132z" />
    <glyph glyph-name="Yacute" unicode="&#xdd;" horiz-adv-x="1093" 
d="M563 1802l324 -67l-211 -222l-270 15zM700 1434h396l-361 -988v-446h-377v446l-360 988h395l156 -607z" />
    <glyph glyph-name="Thorn" unicode="&#xde;" horiz-adv-x="1114" 
d="M469 1249h88q242 0 382 -137.5t140 -388.5q0 -247 -137 -390t-383 -143h-90v-190h-375v1434h375v-185zM469 504h80q72 0 115 57.5t43 159.5q0 98 -42.5 155.5t-115.5 57.5h-80v-430z" />
    <glyph glyph-name="germandbls" unicode="&#xdf;" horiz-adv-x="1122" 
d="M852 780q101 -27 166 -121t65 -235q0 -198 -111 -321t-276 -123q-106 0 -192 36l16 299q55 -20 92 -20q115 0 115 170q0 76 -33.5 119t-93.5 45q-45 0 -72 -6v239q64 12 100 70t36 137q0 75 -28 117.5t-75 42.5q-54 0 -85.5 -48.5t-31.5 -140.5v-1034l-358 -6v1042
q0 222 128 358t349 136q207 0 332 -118t125 -316q0 -108 -48.5 -195t-119.5 -127z" />
    <glyph glyph-name="agrave" unicode="&#xe0;" horiz-adv-x="1011" 
d="M479 1567l133 -314l-231 -16l-213 279zM467 1165q241 0 355 -124.5t114 -346.5v-694h-358v135q-39 -80 -103.5 -120t-144.5 -40q-138 0 -218.5 92t-80.5 271q0 165 90.5 255.5t271.5 90.5q75 0 185 -8v31q0 82 -39 120.5t-123 38.5q-128 0 -250 -51l-33 293
q162 57 334 57zM463 256q54 0 84.5 57t30.5 174v11q-41 6 -91 6q-110 0 -110 -127q0 -57 23.5 -89t62.5 -32z" />
    <glyph glyph-name="aacute" unicode="&#xe1;" horiz-adv-x="1011" 
d="M481 1567l312 -51l-211 -279l-234 16zM467 1165q241 0 355 -124.5t114 -346.5v-694h-358v135q-39 -80 -103.5 -120t-144.5 -40q-138 0 -218.5 92t-80.5 271q0 165 90.5 255.5t271.5 90.5q75 0 185 -8v31q0 82 -39 120.5t-123 38.5q-128 0 -250 -51l-33 293q162 57 334 57
zM463 256q54 0 84.5 57t30.5 174v11q-41 6 -91 6q-110 0 -110 -127q0 -57 23.5 -89t62.5 -32z" />
    <glyph glyph-name="acircumflex" unicode="&#xe2;" horiz-adv-x="1011" 
d="M539 1231l-52 137l-49 -137l-262 16l135 291h351l137 -291zM467 1165q241 0 355 -124.5t114 -346.5v-694h-358v135q-39 -80 -103.5 -120t-144.5 -40q-138 0 -218.5 92t-80.5 271q0 165 90.5 255.5t271.5 90.5q75 0 185 -8v31q0 82 -39 120.5t-123 38.5q-128 0 -250 -51
l-33 293q162 57 334 57zM463 256q54 0 84.5 57t30.5 174v11q-41 6 -91 6q-110 0 -110 -127q0 -57 23.5 -89t62.5 -32z" />
    <glyph glyph-name="atilde" unicode="&#xe3;" horiz-adv-x="1011" 
d="M373 1233l-166 33q-3 117 38.5 182t119.5 65q50 0 112 -25.5t78 -25.5q50 0 47 62l164 -31q3 -118 -38 -183t-118 -65q-50 0 -113 25.5t-81 25.5q-21 0 -32.5 -16.5t-10.5 -46.5zM467 1165q241 0 355 -124.5t114 -346.5v-694h-358v135q-39 -80 -103.5 -120t-144.5 -40
q-138 0 -218.5 92t-80.5 271q0 165 90.5 255.5t271.5 90.5q75 0 185 -8v31q0 82 -39 120.5t-123 38.5q-128 0 -250 -51l-33 293q162 57 334 57zM463 256q54 0 84.5 57t30.5 174v11q-41 6 -91 6q-110 0 -110 -127q0 -57 23.5 -89t62.5 -32z" />
    <glyph glyph-name="adieresis" unicode="&#xe4;" horiz-adv-x="1011" 
d="M201 1511h241v-274h-241v274zM532 1511h242v-274h-242v274zM467 1165q241 0 355 -124.5t114 -346.5v-694h-358v135q-39 -80 -103.5 -120t-144.5 -40q-138 0 -218.5 92t-80.5 271q0 165 90.5 255.5t271.5 90.5q75 0 185 -8v31q0 82 -39 120.5t-123 38.5q-128 0 -250 -51
l-33 293q162 57 334 57zM463 256q54 0 84.5 57t30.5 174v11q-41 6 -91 6q-110 0 -110 -127q0 -57 23.5 -89t62.5 -32z" />
    <glyph glyph-name="aring" unicode="&#xe5;" horiz-adv-x="1011" 
d="M487 1208q-103 0 -171 65t-68 163q0 97 68 161t171 64q102 0 170 -64t68 -161q0 -98 -68 -163t-170 -65zM487 1507q-29 0 -48 -20t-19 -51t19 -51.5t48 -20.5q28 0 47 20.5t19 51.5t-19 51t-47 20zM467 1165q241 0 355 -124.5t114 -346.5v-694h-358v135
q-39 -80 -103.5 -120t-144.5 -40q-138 0 -218.5 92t-80.5 271q0 165 90.5 255.5t271.5 90.5q75 0 185 -8v31q0 82 -39 120.5t-123 38.5q-128 0 -250 -51l-33 293q162 57 334 57zM463 256q54 0 84.5 57t30.5 174v11q-41 6 -91 6q-110 0 -110 -127q0 -57 23.5 -89t62.5 -32z
" />
    <glyph glyph-name="ae" unicode="&#xe6;" horiz-adv-x="1552" 
d="M1475 469h-537q13 -103 57.5 -151t122.5 -48q126 0 238 62l63 -273q-144 -84 -340 -84q-237 0 -372 170q-127 -172 -338 -172q-151 0 -242.5 97.5t-91.5 263.5q0 167 94 258.5t281 91.5q68 0 170 -8v14q0 89 -38.5 132.5t-123.5 43.5q-119 0 -246 -51l-47 293
q189 57 340 57q201 0 295 -112q122 110 311 110q203 0 319.5 -136.5t116.5 -360.5q0 -96 -32 -197zM936 664h231q0 210 -110 210q-109 0 -121 -210zM465 256q49 2 84.5 53.5t38.5 149.5q0 5 -1 15t-1 15l-6 -2v9q-44 6 -91 6q-108 0 -108 -123q0 -57 22 -90.5t62 -32.5z" />
    <glyph glyph-name="ccedilla" unicode="&#xe7;" horiz-adv-x="835" 
d="M731 336l84 -295q-105 -57 -217 -66l-10 -36q74 -9 118 -48.5t44 -97.5q0 -78 -75 -121t-202 -43q-82 0 -149 13l30 141q46 -8 76 -8q66 0 66 37q0 52 -111 38l37 138q-179 41 -278 193t-99 388q0 275 137.5 435.5t368.5 160.5q139 0 264 -67l-86 -299q-79 47 -149 47
q-78 0 -125 -71.5t-47 -203.5q0 -135 46 -206.5t126 -71.5q77 0 151 43z" />
    <glyph glyph-name="egrave" unicode="&#xe8;" horiz-adv-x="1015" 
d="M510 1565l133 -314l-231 -16l-213 278zM938 469h-537q13 -103 58 -151t123 -48q125 0 237 62l64 -273q-144 -84 -340 -84q-228 0 -363 159.5t-135 436.5q0 269 129.5 430.5t360.5 161.5q203 0 319.5 -136.5t116.5 -360.5q0 -92 -33 -197zM399 664h232q0 210 -111 210
q-109 0 -121 -210z" />
    <glyph glyph-name="eacute" unicode="&#xe9;" horiz-adv-x="1015" 
d="M512 1565l311 -52l-211 -278l-233 16zM938 469h-537q13 -103 58 -151t123 -48q125 0 237 62l64 -273q-144 -84 -340 -84q-228 0 -363 159.5t-135 436.5q0 269 129.5 430.5t360.5 161.5q203 0 319.5 -136.5t116.5 -360.5q0 -92 -33 -197zM399 664h232q0 210 -111 210
q-109 0 -121 -210z" />
    <glyph glyph-name="ecircumflex" unicode="&#xea;" horiz-adv-x="1015" 
d="M569 1229l-51 137l-49 -137l-262 16l135 291h350l137 -291zM938 469h-537q13 -103 58 -151t123 -48q125 0 237 62l64 -273q-144 -84 -340 -84q-228 0 -363 159.5t-135 436.5q0 269 129.5 430.5t360.5 161.5q203 0 319.5 -136.5t116.5 -360.5q0 -92 -33 -197zM399 664h232
q0 210 -111 210q-109 0 -121 -210z" />
    <glyph glyph-name="edieresis" unicode="&#xeb;" horiz-adv-x="1015" 
d="M231 1509h242v-274h-242v274zM563 1509h242v-274h-242v274zM938 469h-537q13 -103 58 -151t123 -48q125 0 237 62l64 -273q-144 -84 -340 -84q-228 0 -363 159.5t-135 436.5q0 269 129.5 430.5t360.5 161.5q203 0 319.5 -136.5t116.5 -360.5q0 -92 -33 -197zM399 664h232
q0 210 -111 210q-109 0 -121 -210z" />
    <glyph glyph-name="igrave" unicode="&#xec;" horiz-adv-x="524" 
d="M387 1251l-231 -16l-213 278l311 52zM442 0h-360v1139h360v-1139z" />
    <glyph glyph-name="iacute" unicode="&#xed;" horiz-adv-x="524" 
d="M567 1513l-211 -278l-233 16l133 314zM442 0h-360v1139h360v-1139z" />
    <glyph glyph-name="icircumflex" unicode="&#xee;" horiz-adv-x="524" 
d="M313 1229l-51 137l-49 -137l-262 16l135 291h350l137 -291zM442 0h-360v1139h360v-1139z" />
    <glyph glyph-name="idieresis" unicode="&#xef;" horiz-adv-x="524" 
d="M217 1235h-242v274h242v-274zM549 1235h-242v274h242v-274zM442 0h-360v1139h360v-1139z" />
    <glyph glyph-name="eth" unicode="&#xf0;" horiz-adv-x="1073" 
d="M850 1421l-66 -53q109 -115 169.5 -290t60.5 -392q0 -345 -128.5 -529t-375.5 -184q-215 0 -340 132.5t-125 375.5q0 221 112 359.5t302 138.5q98 0 170 -66q-28 147 -97 244l-114 -96l-84 108l98 82q-67 41 -143 52l137 235q139 -9 252 -82l86 74zM514 254q94 0 121 190
q-6 115 -40 177.5t-81 62.5t-77.5 -55t-30.5 -162q0 -106 30 -159.5t78 -53.5z" />
    <glyph glyph-name="ntilde" unicode="&#xf1;" horiz-adv-x="1079" 
d="M430 1231l-166 33q-3 117 38.5 182t119.5 65q50 0 112 -25.5t78 -25.5q50 0 47 62l164 -31q3 -118 -37.5 -183t-117.5 -65q-50 0 -113.5 25.5t-81.5 25.5q-21 0 -32.5 -16.5t-10.5 -46.5zM705 1165q146 0 223.5 -102t77.5 -303v-760h-361v698q0 138 -88 138
q-35 0 -66 -29.5t-51 -83.5v-723h-358v1139h358v-140q43 77 111 121.5t154 44.5z" />
    <glyph glyph-name="ograve" unicode="&#xf2;" horiz-adv-x="1077" 
d="M666 1251l-232 -16l-213 278l311 52zM537 -27q-225 0 -358.5 158.5t-133.5 439.5q0 272 132.5 433t361.5 161q225 0 359 -157.5t134 -434.5q0 -275 -132.5 -437.5t-362.5 -162.5zM539 295q61 0 95 70.5t34 205.5q0 133 -34.5 203t-96.5 70q-61 0 -95 -69t-34 -202
q0 -136 34.5 -207t96.5 -71z" />
    <glyph glyph-name="oacute" unicode="&#xf3;" horiz-adv-x="1077" 
d="M844 1513l-211 -278l-234 16l133 314zM537 -27q-225 0 -358.5 158.5t-133.5 439.5q0 272 132.5 433t361.5 161q225 0 359 -157.5t134 -434.5q0 -275 -132.5 -437.5t-362.5 -162.5zM539 295q61 0 95 70.5t34 205.5q0 133 -34.5 203t-96.5 70q-61 0 -95 -69t-34 -202
q0 -136 34.5 -207t96.5 -71z" />
    <glyph glyph-name="ocircumflex" unicode="&#xf4;" horiz-adv-x="1077" 
d="M592 1229l-51 137l-49 -137l-263 16l136 291h350l137 -291zM539 1165q225 0 359 -157.5t134 -434.5q0 -275 -132.5 -437.5t-362.5 -162.5q-225 0 -358.5 158.5t-133.5 439.5q0 272 132.5 433t361.5 161zM539 295q61 0 95 70.5t34 205.5q0 133 -34.5 203t-96.5 70
q-61 0 -95 -69t-34 -202q0 -136 34.5 -207t96.5 -71z" />
    <glyph glyph-name="otilde" unicode="&#xf5;" horiz-adv-x="1077" 
d="M424 1231l-166 33q-3 117 38.5 182t119.5 65q50 0 112 -25.5t78 -25.5q50 0 47 62l164 -31q3 -118 -37.5 -183t-117.5 -65q-50 0 -113.5 25.5t-81.5 25.5q-21 0 -32.5 -16.5t-10.5 -46.5zM537 -27q-225 0 -358.5 158.5t-133.5 439.5q0 272 132.5 433t361.5 161
q225 0 359 -157.5t134 -434.5q0 -275 -132.5 -437.5t-362.5 -162.5zM539 295q61 0 95 70.5t34 205.5q0 133 -34.5 203t-96.5 70q-61 0 -95 -69t-34 -202q0 -136 34.5 -207t96.5 -71z" />
    <glyph glyph-name="odieresis" unicode="&#xf6;" horiz-adv-x="1077" 
d="M494 1235h-242v274h242v-274zM825 1235h-241v274h241v-274zM537 -27q-225 0 -358.5 158.5t-133.5 439.5q0 272 132.5 433t361.5 161q225 0 359 -157.5t134 -434.5q0 -275 -132.5 -437.5t-362.5 -162.5zM539 295q61 0 95 70.5t34 205.5q0 133 -34.5 203t-96.5 70
q-61 0 -95 -69t-34 -202q0 -136 34.5 -207t96.5 -71z" />
    <glyph glyph-name="divide" unicode="&#xf7;" horiz-adv-x="729" 
d="M530 1198v-295h-325v295h325zM702 825v-262h-677v262h677zM207 188v295h325v-295h-325z" />
    <glyph glyph-name="oslash" unicode="&#xf8;" horiz-adv-x="1077" 
d="M1012 1075l-82 -110q102 -151 102 -392q0 -275 -132.5 -437.5t-362.5 -162.5q-159 0 -277 82l-63 -84l-131 97l79 108q-100 156 -100 395q0 272 132.5 433t361.5 161q155 0 274 -80l66 89zM408 573v-38l202 274q-30 35 -73 35q-61 0 -95 -69t-34 -202zM539 295
q61 0 95 70.5t34 205.5v37l-205 -276q30 -37 76 -37z" />
    <glyph glyph-name="ugrave" unicode="&#xf9;" horiz-adv-x="1081" 
d="M520 1565l133 -314l-231 -16l-213 278zM639 416v723h358v-1139h-358v139q-43 -77 -110.5 -121.5t-153.5 -44.5q-146 0 -223.5 102.5t-77.5 303.5v760h360v-699q0 -137 88 -137q35 0 66 29.5t51 83.5z" />
    <glyph glyph-name="uacute" unicode="&#xfa;" horiz-adv-x="1081" 
d="M520 1565l311 -52l-210 -278l-234 16zM639 416v723h358v-1139h-358v139q-43 -77 -110.5 -121.5t-153.5 -44.5q-146 0 -223.5 102.5t-77.5 303.5v760h360v-699q0 -137 88 -137q35 0 66 29.5t51 83.5z" />
    <glyph glyph-name="ucircumflex" unicode="&#xfb;" horiz-adv-x="1081" 
d="M580 1229l-52 137l-49 -137l-262 16l135 291h350l138 -291zM639 416v723h358v-1139h-358v139q-43 -77 -110.5 -121.5t-153.5 -44.5q-146 0 -223.5 102.5t-77.5 303.5v760h360v-699q0 -137 88 -137q35 0 66 29.5t51 83.5z" />
    <glyph glyph-name="udieresis" unicode="&#xfc;" horiz-adv-x="1081" 
d="M240 1509h241v-274h-241v274zM571 1509h242v-274h-242v274zM639 416v723h358v-1139h-358v139q-43 -77 -110.5 -121.5t-153.5 -44.5q-146 0 -223.5 102.5t-77.5 303.5v760h360v-699q0 -137 88 -137q35 0 66 29.5t51 83.5z" />
    <glyph glyph-name="yacute" unicode="&#xfd;" horiz-adv-x="1054" 
d="M522 1561l312 -52l-211 -278l-234 16zM530 395l140 744h372l-315 -1139l-96 -350h-363l90 332l-22 -2l-322 1159h371l141 -744h4z" />
    <glyph glyph-name="thorn" unicode="&#xfe;" horiz-adv-x="1112" 
d="M444 -352h-358v1863h358v-469q96 121 246 121q171 0 274 -159t103 -439q0 -278 -103.5 -435t-277.5 -157q-146 0 -242 121v-446zM578 291q57 0 89.5 69t32.5 205q0 281 -122 281q-65 0 -99.5 -78t-34.5 -201q0 -128 36 -202t98 -74z" />
    <glyph glyph-name="ydieresis" unicode="&#xff;" horiz-adv-x="1054" 
d="M242 1505h241v-274h-241v274zM573 1505h242v-274h-242v274zM530 395l140 744h372l-315 -1139l-96 -350h-363l90 332l-22 -2l-322 1159h371l141 -744h4z" />
    <glyph glyph-name="Amacron" unicode="&#x100;" horiz-adv-x="1200" 
d="M291 1745h616v-207h-616v207zM1194 0h-385l-45 223h-332l-47 -223h-381l358 1434h476zM596 1010l-109 -523h222l-107 523h-6z" />
    <glyph glyph-name="amacron" unicode="&#x101;" horiz-adv-x="1011" 
d="M180 1466h617v-206h-617v206zM467 1165q241 0 355 -124.5t114 -346.5v-694h-358v135q-39 -80 -103.5 -120t-144.5 -40q-138 0 -218.5 92t-80.5 271q0 165 90.5 255.5t271.5 90.5q75 0 185 -8v31q0 82 -39 120.5t-123 38.5q-128 0 -250 -51l-33 293q162 57 334 57z
M463 256q54 0 84.5 57t30.5 174v11q-41 6 -91 6q-110 0 -110 -127q0 -57 23.5 -89t62.5 -32z" />
    <glyph glyph-name="Abreve" unicode="&#x102;" horiz-adv-x="1200" 
d="M598 1501q-307 0 -307 295l241 6q0 -108 66 -108q68 0 68 108l239 -6q0 -295 -307 -295zM1194 0h-385l-45 223h-332l-47 -223h-381l358 1434h476zM596 1010l-109 -523h222l-107 523h-6z" />
    <glyph glyph-name="abreve" unicode="&#x103;" horiz-adv-x="1011" 
d="M487 1225q-307 0 -307 295l242 6q0 -109 65 -109q68 0 68 109l240 -6q0 -295 -308 -295zM467 1165q241 0 355 -124.5t114 -346.5v-694h-358v135q-39 -80 -103.5 -120t-144.5 -40q-138 0 -218.5 92t-80.5 271q0 165 90.5 255.5t271.5 90.5q75 0 185 -8v31q0 82 -39 120.5
t-123 38.5q-128 0 -250 -51l-33 293q162 57 334 57zM463 256q54 0 84.5 57t30.5 174v11q-41 6 -91 6q-110 0 -110 -127q0 -57 23.5 -89t62.5 -32z" />
    <glyph glyph-name="Aogonek" unicode="&#x104;" horiz-adv-x="1200" 
d="M1231 -197l18 -206q-150 -38 -250.5 -24.5t-151 64.5t-50.5 132q0 69 40 129t101 102h-129l-45 223h-332l-47 -223h-381l358 1434h476l356 -1434h-2q-86 -74 -86 -139q0 -82 125 -58zM596 1010l-109 -523h222l-107 523h-6z" />
    <glyph glyph-name="aogonek" unicode="&#x105;" horiz-adv-x="1011" 
d="M973 -197l18 -206q-150 -38 -250.5 -24.5t-151 64.5t-50.5 132q0 69 40 129t101 102h-102v135q-39 -80 -103.5 -120t-144.5 -40q-138 0 -218.5 92t-80.5 271q0 165 90.5 255.5t271.5 90.5q75 0 185 -8v31q0 82 -39 120.5t-123 38.5q-128 0 -250 -51l-33 293
q162 57 334 57q241 0 355 -124.5t114 -346.5v-694h-2q-86 -74 -86 -139q0 -82 125 -58zM463 256q54 0 84.5 57t30.5 174v11q-41 6 -91 6q-110 0 -110 -127q0 -57 23.5 -89t62.5 -32z" />
    <glyph glyph-name="Cacute" unicode="&#x106;" horiz-adv-x="1026" 
d="M975 1735l-211 -222l-270 15l157 274zM664 -27q-277 0 -441 194t-164 550q0 351 158.5 546t439.5 195q160 0 324 -86l-90 -319q-104 59 -209 59q-231 0 -231 -395q0 -200 60 -299t173 -99q108 0 211 64l94 -324q-142 -86 -325 -86z" />
    <glyph glyph-name="cacute" unicode="&#x107;" horiz-adv-x="835" 
d="M831 1513l-210 -278l-234 16l133 314zM553 -27q-236 0 -372 159.5t-136 436.5q0 275 137.5 435.5t368.5 160.5q139 0 264 -67l-86 -299q-79 47 -149 47q-78 0 -125 -71.5t-47 -203.5q0 -135 46 -206.5t126 -71.5q77 0 151 43l84 -295q-128 -68 -262 -68z" />
    <glyph glyph-name="Ccircumflex" unicode="&#x108;" horiz-adv-x="1026" 
d="M688 1516l-53 124l-51 -124l-271 14l140 262h362l141 -262zM895 383l94 -324q-142 -86 -325 -86q-277 0 -441 194t-164 550q0 351 158.5 546t439.5 195q160 0 324 -86l-90 -319q-104 59 -209 59q-231 0 -231 -395q0 -200 60 -299t173 -99q108 0 211 64z" />
    <glyph glyph-name="ccircumflex" unicode="&#x109;" horiz-adv-x="835" 
d="M578 1229l-52 137l-49 -137l-262 16l135 291h350l138 -291zM580 846q-78 0 -125 -71.5t-47 -203.5q0 -135 46 -206.5t126 -71.5q77 0 151 43l84 -295q-128 -68 -262 -68q-236 0 -372 159.5t-136 436.5q0 275 137.5 435.5t368.5 160.5q139 0 264 -67l-86 -299
q-79 47 -149 47z" />
    <glyph glyph-name="Cdotaccent" unicode="&#x10a;" horiz-adv-x="1026" 
d="M815 1518h-371v264h371v-264zM664 -27q-277 0 -441 194t-164 550q0 351 158.5 546t439.5 195q160 0 324 -86l-90 -319q-104 59 -209 59q-231 0 -231 -395q0 -200 60 -299t173 -99q108 0 211 64l94 -324q-142 -86 -325 -86z" />
    <glyph glyph-name="cdotaccent" unicode="&#x10b;" horiz-adv-x="835" 
d="M707 1235h-371v274h371v-274zM553 -27q-236 0 -372 159.5t-136 436.5q0 275 137.5 435.5t368.5 160.5q139 0 264 -67l-86 -299q-79 47 -149 47q-78 0 -125 -71.5t-47 -203.5q0 -135 46 -206.5t126 -71.5q77 0 151 43l84 -295q-128 -68 -262 -68z" />
    <glyph glyph-name="Ccaron" unicode="&#x10c;" horiz-adv-x="1026" 
d="M455 1526l-140 264l269 14l53 -127l51 127l266 -14l-139 -264h-360zM895 383l94 -324q-142 -86 -325 -86q-277 0 -441 194t-164 550q0 351 158.5 546t439.5 195q160 0 324 -86l-90 -319q-104 59 -209 59q-231 0 -231 -395q0 -200 60 -299t173 -99q108 0 211 64z" />
    <glyph glyph-name="ccaron" unicode="&#x10d;" horiz-adv-x="835" 
d="M350 1231l-135 285l262 18l49 -137l52 137l260 -18l-138 -285h-350zM580 846q-78 0 -125 -71.5t-47 -203.5q0 -135 46 -206.5t126 -71.5q77 0 151 43l84 -295q-128 -68 -262 -68q-236 0 -372 159.5t-136 436.5q0 275 137.5 435.5t368.5 160.5q139 0 264 -67l-86 -299
q-79 47 -149 47z" />
    <glyph glyph-name="Dcaron" unicode="&#x10e;" horiz-adv-x="1236" 
d="M330 1526l-140 264l269 14l53 -127l51 127l266 -14l-139 -264h-360zM94 1434h484q282 0 440 -189t158 -524q0 -340 -157.5 -530.5t-440.5 -190.5h-484v1434zM469 336h90q229 0 229 383q0 379 -229 379h-90v-762z" />
    <glyph glyph-name="dcaron" unicode="&#x10f;" horiz-adv-x="1114" 
d="M426 -25q-172 0 -274.5 158.5t-102.5 439.5q0 278 102.5 435t276.5 157q149 0 242 -123v469h360v-1511h-360v96q-94 -121 -244 -121zM1085 1133v378h218l-56 -378h-162zM539 291q63 0 97 76.5t34 195.5q0 134 -34 209.5t-97 75.5q-58 0 -91.5 -70t-33.5 -205
q0 -282 125 -282z" />
    <glyph glyph-name="Dcroat" unicode="&#x110;" horiz-adv-x="1236" 
d="M94 1434h484q282 0 440 -189t158 -524q0 -340 -157.5 -530.5t-440.5 -190.5h-484v639h-67v164h67v631zM469 336h90q229 0 229 383q0 379 -229 379h-90v-295h197v-164h-197v-303z" />
    <glyph glyph-name="dcroat" unicode="&#x111;" horiz-adv-x="1114" 
d="M1030 1384h88v-155h-88v-1229h-360v96q-94 -121 -244 -121q-172 0 -274.5 158.5t-102.5 439.5q0 278 102.5 435t276.5 157q149 0 242 -123v187h-164v155h164v127h360v-127zM539 291q63 0 97 76.5t34 195.5q0 134 -34 209.5t-97 75.5q-58 0 -91.5 -70t-33.5 -205
q0 -282 125 -282z" />
    <glyph glyph-name="Emacron" unicode="&#x112;" horiz-adv-x="995" 
d="M207 1745h616v-207h-616v207zM467 573v-249h481v-324h-854v1434h842v-324h-469v-233h399v-304h-399z" />
    <glyph glyph-name="emacron" unicode="&#x113;" horiz-adv-x="1015" 
d="M211 1464h616v-207h-616v207zM938 469h-537q13 -103 58 -151t123 -48q125 0 237 62l64 -273q-144 -84 -340 -84q-228 0 -363 159.5t-135 436.5q0 269 129.5 430.5t360.5 161.5q203 0 319.5 -136.5t116.5 -360.5q0 -92 -33 -197zM399 664h232q0 210 -111 210
q-109 0 -121 -210z" />
    <glyph glyph-name="Ebreve" unicode="&#x114;" horiz-adv-x="995" 
d="M512 1501q-307 0 -307 295l241 6q0 -108 66 -108q68 0 68 108l239 -6q0 -295 -307 -295zM467 573v-249h481v-324h-854v1434h842v-324h-469v-233h399v-304h-399z" />
    <glyph glyph-name="ebreve" unicode="&#x115;" horiz-adv-x="1015" 
d="M518 1223q-307 0 -307 295l242 6q0 -109 65 -109q68 0 68 109l239 -6q0 -295 -307 -295zM938 469h-537q13 -103 58 -151t123 -48q125 0 237 62l64 -273q-144 -84 -340 -84q-228 0 -363 159.5t-135 436.5q0 269 129.5 430.5t360.5 161.5q203 0 319.5 -136.5t116.5 -360.5
q0 -92 -33 -197zM399 664h232q0 210 -111 210q-109 0 -121 -210z" />
    <glyph glyph-name="Edotaccent" unicode="&#x116;" horiz-adv-x="995" 
d="M324 1782h370v-264h-370v264zM467 573v-249h481v-324h-854v1434h842v-324h-469v-233h399v-304h-399z" />
    <glyph glyph-name="edotaccent" unicode="&#x117;" horiz-adv-x="1015" 
d="M328 1509h370v-274h-370v274zM938 469h-537q13 -103 58 -151t123 -48q125 0 237 62l64 -273q-144 -84 -340 -84q-228 0 -363 159.5t-135 436.5q0 269 129.5 430.5t360.5 161.5q203 0 319.5 -136.5t116.5 -360.5q0 -92 -33 -197zM399 664h232q0 210 -111 210
q-109 0 -121 -210z" />
    <glyph glyph-name="Eogonek" unicode="&#x118;" horiz-adv-x="995" 
d="M987 -197l19 -206q-150 -38 -250.5 -24.5t-151.5 64.5t-51 132q0 69 40 129t101 102h-600v1434h842v-324h-469v-233h399v-304h-399v-249h481v-324q-86 -74 -86 -139q0 -82 125 -58z" />
    <glyph glyph-name="eogonek" unicode="&#x119;" horiz-adv-x="1015" 
d="M938 469h-537q13 -103 58 -151t123 -48q125 0 237 62l64 -273l-6 -4q-82 -70 -82 -135q0 -81 125 -57l18 -207q-150 -38 -250.5 -24.5t-151.5 64.5t-51 132q0 77 54 147q-226 2 -360 161t-134 435q0 269 129.5 430.5t360.5 161.5q203 0 319.5 -136.5t116.5 -360.5
q0 -92 -33 -197zM399 664h232q0 210 -111 210q-109 0 -121 -210z" />
    <glyph glyph-name="Ecaron" unicode="&#x11a;" horiz-adv-x="995" 
d="M334 1526l-139 264l268 14l53 -127l51 127l267 -14l-140 -264h-360zM467 573v-249h481v-324h-854v1434h842v-324h-469v-233h399v-304h-399z" />
    <glyph glyph-name="ecaron" unicode="&#x11b;" horiz-adv-x="1015" 
d="M342 1231l-135 285l262 18l49 -137l51 137l260 -18l-137 -285h-350zM938 469h-537q13 -103 58 -151t123 -48q125 0 237 62l64 -273q-144 -84 -340 -84q-228 0 -363 159.5t-135 436.5q0 269 129.5 430.5t360.5 161.5q203 0 319.5 -136.5t116.5 -360.5q0 -92 -33 -197z
M399 664h232q0 210 -111 210q-109 0 -121 -210z" />
    <glyph glyph-name="Gcircumflex" unicode="&#x11c;" horiz-adv-x="1153" 
d="M715 1516l-53 124l-52 -124l-270 14l139 262h363l141 -262zM672 518v281h418v-676q-210 -150 -453 -150q-271 0 -424.5 194.5t-153.5 547.5q0 356 166 550.5t441 194.5q175 0 348 -80l-88 -333q-122 69 -236 69q-124 0 -186 -98t-62 -305q0 -195 53 -301.5t152 -106.5
q55 0 107 25v188h-82z" />
    <glyph glyph-name="gcircumflex" unicode="&#x11d;" horiz-adv-x="1011" 
d="M555 1245l-51 137l-49 -137l-262 17l135 290h350l137 -290zM467 303h121q418 3 418 -309q0 -173 -136.5 -271t-390.5 -98q-420 0 -420 289q0 111 117 197q-106 50 -106 182q0 59 31.5 110.5t80.5 88.5q-114 102 -114 288q0 178 117.5 281.5t320.5 103.5q121 0 194 -37
l228 82l65 -229l-108 -25q61 -75 61 -176q0 -183 -113.5 -288t-324.5 -105q-52 0 -98 6q-19 -27 -19 -45q0 -45 76 -45zM506 913q-41 0 -62.5 -34.5t-21.5 -96.5q0 -143 84 -143q43 0 65.5 36.5t22.5 104.5q0 61 -23 97t-65 36zM508 -117q133 0 133 109q0 46 -30 67t-91 21
h-88q-35 -47 -35 -96q0 -101 111 -101z" />
    <glyph glyph-name="Gbreve" unicode="&#x11e;" horiz-adv-x="1153" 
d="M659 1501q-307 0 -307 295l242 6q0 -108 65 -108q68 0 68 108l240 -6q0 -295 -308 -295zM672 518v281h418v-676q-210 -150 -453 -150q-271 0 -424.5 194.5t-153.5 547.5q0 356 166 550.5t441 194.5q175 0 348 -80l-88 -333q-122 69 -236 69q-124 0 -186 -98t-62 -305
q0 -195 53 -301.5t152 -106.5q55 0 107 25v188h-82z" />
    <glyph glyph-name="gbreve" unicode="&#x11f;" horiz-adv-x="1011" 
d="M504 1239q-307 0 -307 295l241 6q0 -108 66 -108q67 0 67 108l240 -6q0 -295 -307 -295zM467 303h121q418 3 418 -309q0 -173 -136.5 -271t-390.5 -98q-420 0 -420 289q0 111 117 197q-106 50 -106 182q0 59 31.5 110.5t80.5 88.5q-114 102 -114 288q0 178 117.5 281.5
t320.5 103.5q121 0 194 -37l228 82l65 -229l-108 -25q61 -75 61 -176q0 -183 -113.5 -288t-324.5 -105q-52 0 -98 6q-19 -27 -19 -45q0 -45 76 -45zM506 913q-41 0 -62.5 -34.5t-21.5 -96.5q0 -143 84 -143q43 0 65.5 36.5t22.5 104.5q0 61 -23 97t-65 36zM508 -117
q133 0 133 109q0 46 -30 67t-91 21h-88q-35 -47 -35 -96q0 -101 111 -101z" />
    <glyph glyph-name="Gdotaccent" unicode="&#x120;" horiz-adv-x="1153" 
d="M471 1782h371v-264h-371v264zM672 518v281h418v-676q-210 -150 -453 -150q-271 0 -424.5 194.5t-153.5 547.5q0 356 166 550.5t441 194.5q175 0 348 -80l-88 -333q-122 69 -236 69q-124 0 -186 -98t-62 -305q0 -195 53 -301.5t152 -106.5q55 0 107 25v188h-82z" />
    <glyph glyph-name="gdotaccent" unicode="&#x121;" horiz-adv-x="1011" 
d="M311 1526h371v-275h-371v275zM467 303h121q418 3 418 -309q0 -173 -136.5 -271t-390.5 -98q-420 0 -420 289q0 111 117 197q-106 50 -106 182q0 59 31.5 110.5t80.5 88.5q-114 102 -114 288q0 178 117.5 281.5t320.5 103.5q121 0 194 -37l228 82l65 -229l-108 -25
q61 -75 61 -176q0 -183 -113.5 -288t-324.5 -105q-52 0 -98 6q-19 -27 -19 -45q0 -45 76 -45zM506 913q-41 0 -62.5 -34.5t-21.5 -96.5q0 -143 84 -143q43 0 65.5 36.5t22.5 104.5q0 61 -23 97t-65 36zM508 -117q133 0 133 109q0 46 -30 67t-91 21h-88q-35 -47 -35 -96
q0 -101 111 -101z" />
    <glyph glyph-name="uni0122" unicode="&#x122;" horiz-adv-x="1153" 
d="M672 518v281h418v-676q-210 -150 -453 -150q-271 0 -424.5 194.5t-153.5 547.5q0 356 166 550.5t441 194.5q175 0 348 -80l-88 -333q-122 69 -236 69q-124 0 -186 -98t-62 -305q0 -195 53 -301.5t152 -106.5q55 0 107 25v188h-82zM446 -264v188h281q87 -318 -215 -422
l-53 105q58 21 82 52.5t22 76.5h-117z" />
    <glyph glyph-name="uni0123" unicode="&#x123;" horiz-adv-x="1011" 
d="M651 1423v-188h-282q-22 74 -19 134.5t19 105t50 80t74.5 59t92.5 41.5l53 -105q-58 -21 -82 -51.5t-22 -75.5h116zM467 303h121q418 3 418 -309q0 -173 -136.5 -271t-390.5 -98q-420 0 -420 289q0 111 117 197q-106 50 -106 182q0 59 31.5 110.5t80.5 88.5
q-114 102 -114 288q0 178 117.5 281.5t320.5 103.5q121 0 194 -37l228 82l65 -229l-108 -25q61 -75 61 -176q0 -183 -113.5 -288t-324.5 -105q-52 0 -98 6q-19 -27 -19 -45q0 -45 76 -45zM506 913q-41 0 -62.5 -34.5t-21.5 -96.5q0 -143 84 -143q43 0 65.5 36.5t22.5 104.5
q0 61 -23 97t-65 36zM508 -117q133 0 133 109q0 46 -30 67t-91 21h-88q-35 -47 -35 -96q0 -101 111 -101z" />
    <glyph glyph-name="Hcircumflex" unicode="&#x124;" horiz-adv-x="1236" 
d="M672 1516l-54 124l-51 -124l-270 14l139 262h363l141 -262zM762 879v555h379v-1434h-379v547h-287v-547h-381v1434h381v-555h287z" />
    <glyph glyph-name="hcircumflex" unicode="&#x125;" horiz-adv-x="1083" 
d="M618 1561l-53 125l-51 -125l-270 14l139 262h362l142 -262zM709 1165q146 0 223.5 -102t77.5 -303v-760h-361v698q0 138 -88 138q-43 0 -74 -37.5t-43 -108.5v-690h-358v1511h358v-505q43 74 110.5 116.5t154.5 42.5z" />
    <glyph glyph-name="Hbar" unicode="&#x126;" horiz-adv-x="1236" 
d="M1141 1235h69v-178h-69v-1057h-379v547h-287v-547h-381v1057h-65v178h65v199h381v-199h287v199h379v-199zM475 879h287v178h-287v-178z" />
    <glyph glyph-name="hbar" unicode="&#x127;" horiz-adv-x="1083" 
d="M709 1165q146 0 223.5 -102t77.5 -303v-760h-361v698q0 138 -88 138q-43 0 -74 -37.5t-43 -108.5v-690h-358v1212h-104v156h104v143h358v-143h150v-156h-150v-206q43 74 110.5 116.5t154.5 42.5z" />
    <glyph glyph-name="Itilde" unicode="&#x128;" horiz-adv-x="565" 
d="M168 1511l-166 33q-3 117 38.5 182.5t119.5 65.5q50 0 112 -25.5t78 -25.5q50 0 47 61l164 -30q3 -118 -37.5 -183t-117.5 -65q-50 0 -113.5 25.5t-81.5 25.5q-21 0 -32.5 -16.5t-10.5 -47.5zM471 0h-377v1434h377v-1434z" />
    <glyph glyph-name="itilde" unicode="&#x129;" horiz-adv-x="524" 
d="M147 1231l-165 33q-3 117 38 182t119 65q50 0 112.5 -25.5t78.5 -25.5q50 0 47 62l164 -31q3 -118 -38 -183t-118 -65q-50 0 -113.5 25.5t-81.5 25.5q-21 0 -32.5 -16.5t-10.5 -46.5zM442 0h-360v1139h360v-1139z" />
    <glyph glyph-name="Imacron" unicode="&#x12a;" horiz-adv-x="565" 
d="M592 1538h-617v207h617v-207zM471 0h-377v1434h377v-1434z" />
    <glyph glyph-name="imacron" unicode="&#x12b;" horiz-adv-x="524" 
d="M571 1257h-616v207h616v-207zM442 0h-360v1139h360v-1139z" />
    <glyph glyph-name="Ibreve" unicode="&#x12c;" horiz-adv-x="565" 
d="M348 1802l240 -6q0 -295 -307 -295q-308 0 -308 295l242 6q0 -108 66 -108q67 0 67 108zM471 0h-377v1434h377v-1434z" />
    <glyph glyph-name="ibreve" unicode="&#x12d;" horiz-adv-x="524" 
d="M330 1524l239 -6q0 -295 -307 -295t-307 295l242 6q0 -109 65 -109q68 0 68 109zM442 0h-360v1139h360v-1139z" />
    <glyph glyph-name="Iogonek" unicode="&#x12e;" horiz-adv-x="565" 
d="M508 -197l18 -206q-150 -38 -250.5 -24.5t-151 64.5t-50.5 132q0 69 40 129t101 102h-121v1434h377v-1434h-2q-86 -74 -86 -139q0 -82 125 -58z" />
    <glyph glyph-name="iogonek" unicode="&#x12f;" horiz-adv-x="524" 
d="M72 1509h370v-274h-370v274zM481 -197l19 -206q-150 -38 -250.5 -24.5t-151.5 64.5t-51 132q0 69 40 129t101 102h-106v1139h360v-1139q-86 -74 -86 -139q0 -82 125 -58z" />
    <glyph glyph-name="Idotaccent" unicode="&#x130;" horiz-adv-x="565" 
d="M463 1518h-371v264h371v-264zM471 0h-377v1434h377v-1434z" />
    <glyph glyph-name="dotlessi" unicode="&#x131;" horiz-adv-x="524" 
d="M442 0h-360v1139h360v-1139z" />
    <glyph glyph-name="IJ" unicode="&#x132;" horiz-adv-x="1386" 
d="M471 0h-377v1434h377v-1434zM831 -27q-129 0 -260 58l68 319q77 -35 158 -35q141 0 141 201v594h-145v324h516v-940q0 -255 -128.5 -388t-349.5 -133z" />
    <glyph glyph-name="ij" unicode="&#x133;" horiz-adv-x="1056" 
d="M442 1235h-370v274h370v-274zM973 1235h-371v274h371v-274zM442 0h-360v1139h360v-1139zM477 -360l4 272h62q71 0 71 119v1108h361v-1100q0 -216 -96.5 -315t-280.5 -99q-55 0 -121 15z" />
    <glyph glyph-name="Jcircumflex" unicode="&#x134;" horiz-adv-x="821" 
d="M526 1516l-53 124l-51 -124l-270 14l139 262h362l142 -262zM373 1110h-146v324h516v-940q0 -256 -128.5 -388.5t-348.5 -132.5q-129 0 -260 58l68 319q77 -35 157 -35q142 0 142 201v594z" />
    <glyph glyph-name="jcircumflex" unicode="&#x135;" horiz-adv-x="532" 
d="M322 1229l-52 137l-49 -137l-262 16l135 291h350l138 -291zM90 31v1108h361v-1100q0 -216 -96.5 -315t-280.5 -99q-55 0 -121 15l4 272h61q72 0 72 119z" />
    <glyph glyph-name="uni0136" unicode="&#x136;" horiz-adv-x="1208" 
d="M1182 1434l-369 -707l381 -725h-416l-307 629v-631h-377l2 1434h377v-611l293 611h416zM471 -264v188h281q87 -318 -215 -422l-54 105q108 39 105 129h-117z" />
    <glyph glyph-name="uni0137" unicode="&#x137;" horiz-adv-x="1075" 
d="M668 0l-224 461v-461h-358v1511h358v-823l220 451h399l-303 -564l307 -575h-399zM389 -264v188h281q87 -318 -215 -422l-54 105q108 39 105 129h-117z" />
    <glyph glyph-name="kgreenlandic" unicode="&#x138;" horiz-adv-x="1075" 
d="M760 575l307 -575h-399l-224 461v-461h-358v1139h358v-451l220 451h399z" />
    <glyph glyph-name="Lacute" unicode="&#x139;" horiz-adv-x="907" 
d="M645 1735l-211 -222l-270 15l158 274zM881 0h-787v1434h383v-1106h404v-328z" />
    <glyph glyph-name="lacute" unicode="&#x13a;" horiz-adv-x="530" 
d="M614 1812l-211 -221l-270 15l158 274zM444 0h-358v1511h358v-1511z" />
    <glyph glyph-name="uni013B" unicode="&#x13b;" horiz-adv-x="907" 
d="M881 0h-787v1434h383v-1106h404v-328zM377 -498l-53 105q58 21 82 52.5t22 76.5h-117v188h281q87 -318 -215 -422z" />
    <glyph glyph-name="uni013C" unicode="&#x13c;" horiz-adv-x="530" 
d="M444 0h-358v1511h358v-1511zM190 -498l-53 105q108 39 105 129h-117v188h281q87 -318 -216 -422z" />
    <glyph glyph-name="Lcaron" unicode="&#x13d;" horiz-adv-x="907" 
d="M881 0h-787v1434h383v-1106h404v-328zM705 1055v379h266l-68 -379h-198z" />
    <glyph glyph-name="lcaron" unicode="&#x13e;" horiz-adv-x="530" 
d="M444 0h-358v1511h358v-1511zM518 1133v378h211l-53 -378h-158z" />
    <glyph glyph-name="Ldot" unicode="&#x13f;" horiz-adv-x="1218" 
d="M881 0h-787v1434h383v-1106h404v-328zM926 408v235h258v-235h-258z" />
    <glyph glyph-name="ldot" unicode="&#x140;" horiz-adv-x="813" 
d="M444 0h-358v1511h358v-1511zM561 350v201h223v-201h-223z" />
    <glyph glyph-name="Lslash" unicode="&#x141;" horiz-adv-x="907" 
d="M477 729v-401h404v-328h-787v553l-63 -29l-68 138l131 61v711h383v-535l62 29l67 -140z" />
    <glyph glyph-name="lslash" unicode="&#x142;" horiz-adv-x="530" 
d="M524 958l68 -139l-148 -67v-752h-358v588l-70 -33l-67 137l137 64v755h358v-589z" />
    <glyph glyph-name="Nacute" unicode="&#x143;" horiz-adv-x="1232" 
d="M956 1735l-211 -222l-270 15l158 274zM461 0h-367v1434h344l334 -689v689h367v-1434h-332l-346 711v-711z" />
    <glyph glyph-name="nacute" unicode="&#x144;" horiz-adv-x="1079" 
d="M539 1565l311 -52l-211 -278l-233 16zM705 1165q146 0 223.5 -102t77.5 -303v-760h-361v698q0 138 -88 138q-35 0 -66 -29.5t-51 -83.5v-723h-358v1139h358v-140q43 77 111 121.5t154 44.5z" />
    <glyph glyph-name="uni0145" unicode="&#x145;" horiz-adv-x="1232" 
d="M461 0h-367v1434h344l334 -689v689h367v-1434h-332l-346 711v-711zM535 -498l-54 105q108 39 105 129h-117v188h281q87 -318 -215 -422z" />
    <glyph glyph-name="uni0146" unicode="&#x146;" horiz-adv-x="1079" 
d="M705 1165q146 0 223.5 -102t77.5 -303v-760h-361v698q0 138 -88 138q-35 0 -66 -29.5t-51 -83.5v-723h-358v1139h358v-140q43 77 111 121.5t154 44.5zM395 -264v188h281q87 -318 -215 -422l-53 105q58 21 82 52.5t22 76.5h-117z" />
    <glyph glyph-name="Ncaron" unicode="&#x147;" horiz-adv-x="1232" 
d="M436 1526l-139 264l268 14l53 -127l52 127l266 -14l-139 -264h-361zM772 745v689h367v-1434h-332l-346 711v-711h-367v1434h344z" />
    <glyph glyph-name="ncaron" unicode="&#x148;" horiz-adv-x="1079" 
d="M369 1231l-136 285l263 18l49 -137l51 137l260 -18l-137 -285h-350zM705 1165q146 0 223.5 -102t77.5 -303v-760h-361v698q0 138 -88 138q-35 0 -66 -29.5t-51 -83.5v-723h-358v1139h358v-140q43 77 111 121.5t154 44.5z" />
    <glyph glyph-name="Eng" unicode="&#x14a;" horiz-adv-x="1232" 
d="M772 745v689h367v-1442q0 -167 -94 -265t-285 -98q-75 0 -158 27l27 299q32 -14 63 -14q78 0 78 92v43l-309 635v-711h-367v1434h344z" />
    <glyph glyph-name="eng" unicode="&#x14b;" horiz-adv-x="1075" 
d="M1006 760v-760h-2v-8q0 -167 -91.5 -266t-277.5 -99q-69 0 -154 29l25 299q32 -14 63 -14q35 0 55.5 23t20.5 69v665q0 138 -88 138q-35 0 -66 -29.5t-51 -83.5v-723h-358v1139h358v-140q43 77 111 121.5t154 44.5q146 0 223.5 -102t77.5 -303z" />
    <glyph glyph-name="Omacron" unicode="&#x14c;" horiz-adv-x="1251" 
d="M934 1538h-617v207h617v-207zM625 -27q-261 0 -413.5 194t-152.5 548q0 348 150.5 546.5t415.5 198.5q261 0 413 -193.5t152 -547.5q0 -348 -150 -547t-415 -199zM625 322q178 0 178 393q0 399 -178 399q-176 0 -176 -397q0 -395 176 -395z" />
    <glyph glyph-name="omacron" unicode="&#x14d;" horiz-adv-x="1077" 
d="M848 1257h-617v207h617v-207zM537 -27q-225 0 -358.5 158.5t-133.5 439.5q0 272 132.5 433t361.5 161q225 0 359 -157.5t134 -434.5q0 -275 -132.5 -437.5t-362.5 -162.5zM539 295q61 0 95 70.5t34 205.5q0 133 -34.5 203t-96.5 70q-61 0 -95 -69t-34 -202
q0 -136 34.5 -207t96.5 -71z" />
    <glyph glyph-name="Obreve" unicode="&#x14e;" horiz-adv-x="1251" 
d="M625 1501q-308 0 -308 295l242 6q0 -108 66 -108q67 0 67 108l240 -6q0 -295 -307 -295zM625 1460q261 0 413 -193.5t152 -547.5q0 -348 -150 -547t-415 -199q-261 0 -413.5 194t-152.5 548q0 348 150.5 546.5t415.5 198.5zM625 322q178 0 178 393q0 399 -178 399
q-176 0 -176 -397q0 -395 176 -395z" />
    <glyph glyph-name="obreve" unicode="&#x14f;" horiz-adv-x="1077" 
d="M539 1223q-308 0 -308 295l242 6q0 -109 66 -109q67 0 67 109l240 -6q0 -295 -307 -295zM539 1165q225 0 359 -157.5t134 -434.5q0 -275 -132.5 -437.5t-362.5 -162.5q-225 0 -358.5 158.5t-133.5 439.5q0 272 132.5 433t361.5 161zM539 295q61 0 95 70.5t34 205.5
q0 133 -34.5 203t-96.5 70q-61 0 -95 -69t-34 -202q0 -136 34.5 -207t96.5 -71z" />
    <glyph glyph-name="Ohungarumlaut" unicode="&#x150;" horiz-adv-x="1251" 
d="M723 1745l-174 -223l-258 16l115 274zM1112 1745l-172 -223l-260 16l115 274zM625 -27q-261 0 -413.5 194t-152.5 548q0 348 150.5 546.5t415.5 198.5q261 0 413 -193.5t152 -547.5q0 -348 -150 -547t-415 -199zM625 322q178 0 178 393q0 399 -178 399q-176 0 -176 -397
q0 -395 176 -395z" />
    <glyph glyph-name="ohungarumlaut" unicode="&#x151;" horiz-adv-x="1077" 
d="M633 1513l-166 -278l-223 16l86 314zM989 1513l-166 -278l-223 16l86 314zM537 -27q-225 0 -358.5 158.5t-133.5 439.5q0 272 132.5 433t361.5 161q225 0 359 -157.5t134 -434.5q0 -275 -132.5 -437.5t-362.5 -162.5zM539 295q61 0 95 70.5t34 205.5q0 133 -34.5 203
t-96.5 70q-61 0 -95 -69t-34 -202q0 -136 34.5 -207t96.5 -71z" />
    <glyph glyph-name="OE" unicode="&#x152;" horiz-adv-x="1742" 
d="M1214 324h482v-324h-846q-96 -27 -186 -27q-277 0 -441 194t-164 550q0 351 158.5 546t439.5 195q90 0 185 -28v4h841v-324h-469v-233h400v-304h-400v-249zM451 717q0 -200 60 -299t173 -99q80 0 158 35v723q-71 35 -160 35q-231 0 -231 -395z" />
    <glyph glyph-name="oe" unicode="&#x153;" horiz-adv-x="1656" 
d="M1579 469h-537q13 -103 58 -151t123 -48q125 0 237 62l64 -273q-144 -84 -340 -84t-324 119q-127 -121 -323 -121q-225 0 -358.5 158.5t-133.5 439.5q0 272 132.5 433t361.5 161q194 0 319 -116q123 114 318 114q203 0 319.5 -136.5t116.5 -360.5q0 -92 -33 -197z
M1040 664h232q0 210 -111 210q-109 0 -121 -210zM539 295q61 0 95 70.5t34 205.5q0 133 -34.5 203t-96.5 70q-61 0 -95 -69t-34 -202q0 -136 34.5 -207t96.5 -71z" />
    <glyph glyph-name="Racute" unicode="&#x154;" horiz-adv-x="1126" 
d="M586 1802l323 -67l-211 -222l-270 15zM1110 0h-397l-181 424h-63v-424h-375v1434h471q241 0 380.5 -131.5t139.5 -372.5q0 -146 -53.5 -255.5t-154.5 -172.5zM555 1116h-86v-381h86q74 0 116 49t42 142q0 88 -41.5 139t-116.5 51z" />
    <glyph glyph-name="racute" unicode="&#x155;" horiz-adv-x="727" 
d="M346 1565l311 -52l-211 -278l-233 16zM639 1159q45 0 80 -14l-27 -354q-52 10 -104 10q-69 0 -107.5 -74.5t-38.5 -214.5v-512h-360v1139h360v-117q68 137 197 137z" />
    <glyph glyph-name="uni0156" unicode="&#x156;" horiz-adv-x="1126" 
d="M532 424h-63v-424h-375v1434h471q241 0 380.5 -131.5t139.5 -372.5q0 -146 -53.5 -255.5t-154.5 -172.5l233 -502h-397zM555 1116h-86v-381h86q74 0 116 49t42 142q0 88 -41.5 139t-116.5 51zM426 -264v188h281q87 -318 -215 -422l-54 105q108 39 105 129h-117z" />
    <glyph glyph-name="uni0157" unicode="&#x157;" horiz-adv-x="727" 
d="M639 1159q45 0 80 -14l-27 -354q-52 10 -104 10q-69 0 -107.5 -74.5t-38.5 -214.5v-512h-360v1139h360v-117q68 137 197 137zM115 -264v188h280q87 -318 -215 -422l-53 105q58 21 82 52.5t22 76.5h-116z" />
    <glyph glyph-name="Rcaron" unicode="&#x158;" horiz-adv-x="1126" 
d="M389 1526l-139 264l268 14l53 -127l52 127l266 -14l-139 -264h-361zM1110 0h-397l-181 424h-63v-424h-375v1434h471q241 0 380.5 -131.5t139.5 -372.5q0 -146 -53.5 -255.5t-154.5 -172.5zM555 1116h-86v-381h86q74 0 116 49t42 142q0 88 -41.5 139t-116.5 51z" />
    <glyph glyph-name="rcaron" unicode="&#x159;" horiz-adv-x="727" 
d="M178 1231l-135 285l262 18l49 -137l52 137l260 -18l-138 -285h-350zM639 1159q45 0 80 -14l-27 -354q-52 10 -104 10q-69 0 -107.5 -74.5t-38.5 -214.5v-512h-360v1139h360v-117q68 137 197 137z" />
    <glyph glyph-name="Sacute" unicode="&#x15a;" horiz-adv-x="956" 
d="M852 1735l-211 -222l-270 15l157 274zM440 -29q-217 0 -403 80l41 320q66 -32 152.5 -53t154.5 -21q145 0 145 111q0 47 -37.5 86.5t-119.5 93.5q-328 171 -328 438q0 202 130 318t343 116q197 0 359 -67l-41 -326q-144 66 -263 66q-131 0 -131 -107q0 -49 38.5 -91.5
t119.5 -92.5q100 -52 169 -110.5t114 -146t45 -192.5q0 -195 -134.5 -308.5t-353.5 -113.5z" />
    <glyph glyph-name="sacute" unicode="&#x15b;" horiz-adv-x="825" 
d="M727 1513l-211 -278l-233 16l133 314zM381 -25q-183 0 -348 60l45 299q126 -66 276 -66q84 0 84 68q0 33 -30.5 59.5t-104.5 63.5q-134 54 -199 134t-65 216q0 70 21 128.5t58.5 100t88 70.5t110 43t125.5 14q156 0 303 -57l-43 -297q-131 59 -235 59q-81 0 -84 -67
q0 -35 31.5 -63t95.5 -56q141 -63 212 -145.5t71 -212.5q-1 -163 -114.5 -257t-297.5 -94z" />
    <glyph glyph-name="Scircumflex" unicode="&#x15c;" horiz-adv-x="956" 
d="M567 1516l-53 124l-51 -124l-270 14l139 262h362l142 -262zM600 842q100 -52 169 -110.5t114 -146t45 -192.5q0 -195 -134.5 -308.5t-353.5 -113.5q-217 0 -403 80l41 320q66 -32 152.5 -53t154.5 -21q145 0 145 111q0 47 -37.5 86.5t-119.5 93.5q-328 171 -328 438
q0 202 130 318t343 116q197 0 359 -67l-41 -326q-144 66 -263 66q-131 0 -131 -107q0 -49 38.5 -91.5t119.5 -92.5z" />
    <glyph glyph-name="scircumflex" unicode="&#x15d;" horiz-adv-x="825" 
d="M473 1229l-51 137l-49 -137l-262 16l135 291h350l137 -291zM510 684q141 -63 212 -145.5t71 -212.5q-1 -163 -114.5 -257t-297.5 -94q-183 0 -348 60l45 299q126 -66 276 -66q84 0 84 68q0 33 -30.5 59.5t-104.5 63.5q-134 54 -199 134t-65 216q0 70 21 128.5t58.5 100
t88 70.5t110 43t125.5 14q156 0 303 -57l-43 -297q-131 59 -235 59q-81 0 -84 -67q0 -35 31.5 -63t95.5 -56z" />
    <glyph glyph-name="Scedilla" unicode="&#x15e;" horiz-adv-x="956" 
d="M928 393q0 -169 -102.5 -277.5t-276.5 -135.5l-12 -41q74 -9 117.5 -48.5t43.5 -97.5q0 -78 -74.5 -121t-201.5 -43q-83 0 -150 13l31 141q46 -8 76 -8q65 0 65 37q0 52 -110 38l33 123q-180 12 -330 78l41 320q66 -32 152.5 -53t154.5 -21q145 0 145 111
q0 47 -37.5 86.5t-119.5 93.5q-328 171 -328 438q0 202 130 318t343 116q197 0 359 -67l-41 -326q-144 66 -263 66q-131 0 -131 -107q0 -49 38.5 -91.5t119.5 -92.5q100 -52 169 -110.5t114 -146t45 -192.5z" />
    <glyph glyph-name="scedilla" unicode="&#x15f;" horiz-adv-x="825" 
d="M793 326q-1 -135 -80.5 -223.5t-214.5 -116.5l-15 -47q74 -9 118 -48.5t44 -97.5q0 -78 -74.5 -121t-201.5 -43q-83 0 -150 13l31 141q46 -8 76 -8q65 0 65 37q0 52 -110 38l34 127q-141 5 -282 58l45 299q126 -66 276 -66q84 0 84 68q0 33 -30.5 59.5t-104.5 63.5
q-134 54 -199 134t-65 216q0 70 21 128.5t58.5 100t88 70.5t110 43t125.5 14q156 0 303 -57l-43 -297q-131 59 -235 59q-81 0 -84 -67q0 -35 31.5 -63t95.5 -56q141 -63 212 -145.5t71 -212.5z" />
    <glyph glyph-name="Scaron" unicode="&#x160;" horiz-adv-x="956" 
d="M332 1526l-139 264l268 14l53 -127l51 127l266 -14l-139 -264h-360zM600 842q100 -52 169 -110.5t114 -146t45 -192.5q0 -195 -134.5 -308.5t-353.5 -113.5q-217 0 -403 80l41 320q66 -32 152.5 -53t154.5 -21q145 0 145 111q0 47 -37.5 86.5t-119.5 93.5
q-328 171 -328 438q0 202 130 318t343 116q197 0 359 -67l-41 -326q-144 66 -263 66q-131 0 -131 -107q0 -49 38.5 -91.5t119.5 -92.5z" />
    <glyph glyph-name="scaron" unicode="&#x161;" horiz-adv-x="825" 
d="M246 1231l-135 285l262 18l49 -137l51 137l260 -18l-137 -285h-350zM510 684q141 -63 212 -145.5t71 -212.5q-1 -163 -114.5 -257t-297.5 -94q-183 0 -348 60l45 299q126 -66 276 -66q84 0 84 68q0 33 -30.5 59.5t-104.5 63.5q-134 54 -199 134t-65 216q0 70 21 128.5
t58.5 100t88 70.5t110 43t125.5 14q156 0 303 -57l-43 -297q-131 59 -235 59q-81 0 -84 -67q0 -35 31.5 -63t95.5 -56z" />
    <glyph glyph-name="uni0162" unicode="&#x162;" horiz-adv-x="972" 
d="M674 1098v-1098h-107l-18 -61q74 -9 118 -48.5t44 -97.5q0 -78 -75 -121t-202 -43q-82 0 -149 13l30 141q46 -8 76 -8q66 0 66 37q0 52 -111 38l41 150h-90v1098h-272v336h923v-336h-274z" />
    <glyph glyph-name="uni0163" unicode="&#x163;" horiz-adv-x="778" 
d="M461 -27l-10 -36q74 -9 117.5 -48.5t43.5 -97.5q0 -78 -74.5 -121t-201.5 -43q-83 0 -150 13l31 141q46 -8 76 -8q65 0 65 37q0 52 -110 38l45 166q-164 83 -164 346v482h-96v153l119 150l192 246h143v-252h240v-297h-240v-451q0 -98 80 -98q52 0 123 26l53 -292
q-142 -54 -262 -54h-20z" />
    <glyph glyph-name="Tcaron" unicode="&#x164;" horiz-adv-x="972" 
d="M307 1526l-139 264l268 14l53 -127l52 127l266 -14l-139 -264h-361zM25 1434h923v-336h-274v-1098h-377v1098h-272v336z" />
    <glyph glyph-name="tcaron" unicode="&#x165;" horiz-adv-x="778" 
d="M569 1198v379h267l-68 -379h-199zM481 -27q-173 0 -262.5 97.5t-89.5 289.5v482h-96v153l119 150l192 246h143v-252h240v-297h-240v-451q0 -98 80 -98q52 0 123 26l53 -292q-142 -54 -262 -54z" />
    <glyph glyph-name="Tbar" unicode="&#x166;" horiz-adv-x="972" 
d="M948 1434v-336h-274v-295h135v-164h-135v-639h-377v639h-127v164h127v295h-272v336h923z" />
    <glyph glyph-name="tbar" unicode="&#x167;" horiz-adv-x="778" 
d="M690 319l53 -292q-142 -54 -262 -54q-173 0 -262.5 97.5t-89.5 289.5v162h-119v156h119v164h-96v153l119 150l192 246h143v-252h240v-297h-240v-164h136v-156h-136v-131q0 -98 80 -98q52 0 123 26z" />
    <glyph glyph-name="Utilde" unicode="&#x168;" horiz-adv-x="1163" 
d="M469 1511l-166 33q-3 117 38.5 182.5t119.5 65.5q50 0 112 -25.5t78 -25.5q50 0 47 61l164 -30q3 -118 -37.5 -183t-117.5 -65q-50 0 -113.5 25.5t-81.5 25.5q-21 0 -32.5 -16.5t-10.5 -47.5zM582 -27q-234 0 -369 132t-135 358v971h377v-969q0 -83 32.5 -125.5
t94.5 -42.5q63 0 97 42.5t34 125.5v969h372v-971q0 -226 -134.5 -358t-368.5 -132z" />
    <glyph glyph-name="utilde" unicode="&#x169;" horiz-adv-x="1081" 
d="M412 1231l-166 33q-3 117 38 182t119 65q50 0 112.5 -25.5t78.5 -25.5q50 0 47 62l164 -31q3 -118 -38 -183t-118 -65q-50 0 -113 25.5t-81 25.5q-21 0 -32.5 -16.5t-10.5 -46.5zM639 416v723h358v-1139h-358v139q-43 -77 -110.5 -121.5t-153.5 -44.5
q-146 0 -223.5 102.5t-77.5 303.5v760h360v-699q0 -137 88 -137q35 0 66 29.5t51 83.5z" />
    <glyph glyph-name="Umacron" unicode="&#x16a;" horiz-adv-x="1163" 
d="M893 1538h-617v207h617v-207zM582 -27q-234 0 -369 132t-135 358v971h377v-969q0 -83 32.5 -125.5t94.5 -42.5q63 0 97 42.5t34 125.5v969h372v-971q0 -226 -134.5 -358t-368.5 -132z" />
    <glyph glyph-name="umacron" unicode="&#x16b;" horiz-adv-x="1081" 
d="M219 1464h617v-207h-617v207zM639 416v723h358v-1139h-358v139q-43 -77 -110.5 -121.5t-153.5 -44.5q-146 0 -223.5 102.5t-77.5 303.5v760h360v-699q0 -137 88 -137q35 0 66 29.5t51 83.5z" />
    <glyph glyph-name="Ubreve" unicode="&#x16c;" horiz-adv-x="1163" 
d="M584 1501q-308 0 -308 295l242 6q0 -108 66 -108q67 0 67 108l240 -6q0 -295 -307 -295zM713 465v969h372v-971q0 -226 -134.5 -358t-368.5 -132t-369 132t-135 358v971h377v-969q0 -83 32.5 -125.5t94.5 -42.5q63 0 97 42.5t34 125.5z" />
    <glyph glyph-name="ubreve" unicode="&#x16d;" horiz-adv-x="1081" 
d="M526 1223q-307 0 -307 295l242 6q0 -109 65 -109q68 0 68 109l240 -6q0 -295 -308 -295zM639 416v723h358v-1139h-358v139q-43 -77 -110.5 -121.5t-153.5 -44.5q-146 0 -223.5 102.5t-77.5 303.5v760h360v-699q0 -137 88 -137q35 0 66 29.5t51 83.5z" />
    <glyph glyph-name="Uring" unicode="&#x16e;" horiz-adv-x="1163" 
d="M586 1464q-103 0 -171.5 64.5t-68.5 161.5q0 98 68.5 162.5t171.5 64.5q102 0 169.5 -64.5t67.5 -162.5q0 -97 -68 -161.5t-169 -64.5zM586 1620q28 0 46.5 19.5t18.5 50.5t-18.5 52t-46.5 21q-29 0 -48.5 -21t-19.5 -52t19.5 -50.5t48.5 -19.5zM582 -27q-234 0 -369 132
t-135 358v971h377v-969q0 -83 32.5 -125.5t94.5 -42.5q63 0 97 42.5t34 125.5v969h372v-971q0 -226 -134.5 -358t-368.5 -132z" />
    <glyph glyph-name="uring" unicode="&#x16f;" horiz-adv-x="1081" 
d="M528 1206q-103 0 -171 65t-68 163q0 97 68 161t171 64q102 0 170 -64t68 -161q0 -98 -68 -163t-170 -65zM528 1505q-29 0 -48 -20t-19 -51t19 -51.5t48 -20.5q28 0 47 20.5t19 51.5t-19 51t-47 20zM639 416v723h358v-1139h-358v139q-43 -77 -110.5 -121.5t-153.5 -44.5
q-146 0 -223.5 102.5t-77.5 303.5v760h360v-699q0 -137 88 -137q35 0 66 29.5t51 83.5z" />
    <glyph glyph-name="Uhungarumlaut" unicode="&#x170;" horiz-adv-x="1163" 
d="M682 1745l-174 -223l-258 16l115 274zM1071 1745l-172 -223l-260 16l115 274zM582 -27q-234 0 -369 132t-135 358v971h377v-969q0 -83 32.5 -125.5t94.5 -42.5q63 0 97 42.5t34 125.5v969h372v-971q0 -226 -134.5 -358t-368.5 -132z" />
    <glyph glyph-name="uhungarumlaut" unicode="&#x171;" horiz-adv-x="1081" 
d="M317 1565l304 -52l-166 -278l-224 16zM977 1513l-166 -278l-223 16l86 314zM639 416v723h358v-1139h-358v139q-43 -77 -110.5 -121.5t-153.5 -44.5q-146 0 -223.5 102.5t-77.5 303.5v760h360v-699q0 -137 88 -137q35 0 66 29.5t51 83.5z" />
    <glyph glyph-name="Uogonek" unicode="&#x172;" horiz-adv-x="1163" 
d="M909 70q-65 -65 -65 -121q0 -82 125 -58l18 -206q-150 -38 -250.5 -24.5t-151 64.5t-50.5 132q0 60 32 116q-228 4 -358.5 135.5t-130.5 354.5v971h377v-969q0 -83 32.5 -125.5t94.5 -42.5q63 0 97 42.5t34 125.5v969h372v-971q0 -128 -45.5 -229t-130.5 -164z" />
    <glyph glyph-name="uogonek" unicode="&#x173;" horiz-adv-x="1081" 
d="M1036 -197l19 -206q-150 -38 -250.5 -24.5t-151.5 64.5t-51 132q0 69 40 129t101 102h-104v139q-43 -77 -110.5 -121.5t-153.5 -44.5q-146 0 -223.5 102.5t-77.5 303.5v760h360v-699q0 -137 88 -137q35 0 66 29.5t51 83.5v723h358v-1139q-86 -74 -86 -139q0 -82 125 -58z
" />
    <glyph glyph-name="Wcircumflex" unicode="&#x174;" horiz-adv-x="1677" 
d="M893 1516l-53 124l-52 -124l-270 14l139 262h363l141 -262zM1130 479l156 955h383l-303 -1434h-395l-131 698l-135 -698h-394l-303 1434h385l156 -955l143 955h293z" />
    <glyph glyph-name="wcircumflex" unicode="&#x175;" horiz-adv-x="1488" 
d="M801 1229l-51 137l-50 -137l-262 16l135 291h351l137 -291zM987 426l113 713h370l-266 -1139h-352l-107 596l-108 -596h-352l-267 1139h371l113 -713l116 713h252z" />
    <glyph glyph-name="Ycircumflex" unicode="&#x176;" horiz-adv-x="1093" 
d="M602 1516l-53 124l-51 -124l-271 14l140 262h362l141 -262zM700 1434h396l-361 -988v-446h-377v446l-360 988h395l156 -607z" />
    <glyph glyph-name="ycircumflex" unicode="&#x177;" horiz-adv-x="1054" 
d="M580 1225l-52 137l-49 -137l-262 16l135 291h350l138 -291zM530 395l140 744h372l-315 -1139l-96 -350h-363l90 332l-22 -2l-322 1159h371l141 -744h4z" />
    <glyph glyph-name="Ydieresis" unicode="&#x178;" horiz-adv-x="1093" 
d="M250 1780h264v-264h-264v264zM580 1780h264v-264h-264v264zM700 1434h396l-361 -988v-446h-377v446l-360 988h395l156 -607z" />
    <glyph glyph-name="Zacute" unicode="&#x179;" horiz-adv-x="976" 
d="M829 1735l-211 -222l-270 15l158 274zM936 0h-895v246l426 852h-412v336h871v-246l-424 -852h434v-336z" />
    <glyph glyph-name="zacute" unicode="&#x17a;" horiz-adv-x="894" 
d="M758 1513l-211 -278l-234 16l133 314zM854 0h-809v225l352 606h-340v308h789v-226l-352 -606h360v-307z" />
    <glyph glyph-name="Zdotaccent" unicode="&#x17b;" horiz-adv-x="976" 
d="M670 1518h-371v264h371v-264zM936 0h-895v246l426 852h-412v336h871v-246l-424 -852h434v-336z" />
    <glyph glyph-name="zdotaccent" unicode="&#x17c;" horiz-adv-x="894" 
d="M633 1235h-371v274h371v-274zM854 0h-809v225l352 606h-340v308h789v-226l-352 -606h360v-307z" />
    <glyph glyph-name="Zcaron" unicode="&#x17d;" horiz-adv-x="976" 
d="M309 1526l-139 264l268 14l54 -127l51 127l266 -14l-139 -264h-361zM926 1188l-424 -852h434v-336h-895v246l426 852h-412v336h871v-246z" />
    <glyph glyph-name="zcaron" unicode="&#x17e;" horiz-adv-x="894" 
d="M276 1231l-135 285l262 18l50 -137l51 137l260 -18l-137 -285h-351zM846 913l-352 -606h360v-307h-809v225l352 606h-340v308h789v-226z" />
    <glyph glyph-name="uni018F" unicode="&#x18f;" horiz-adv-x="1228" 
d="M565 1460q274 0 439 -201t165 -546q0 -342 -154.5 -542t-424.5 -200q-244 0 -387.5 184t-143.5 500q0 55 21 162h704q-12 150 -73.5 231.5t-165.5 81.5q-150 0 -275 -98l-133 287q81 66 192 103.5t236 37.5zM598 291q154 0 184 299h-346q8 -140 49 -219.5t113 -79.5z" />
    <glyph glyph-name="florin" unicode="&#x192;" horiz-adv-x="1116" 
d="M889 1294q-45 0 -72.5 -36.5t-40.5 -122.5h174v-285h-207l-45 -418q-29 -226 -133 -342.5t-276 -116.5q-142 0 -244 52l86 288q6 -2 18.5 -7t16.5 -6.5t13.5 -5t15 -4.5t14 -2.5t16 -2t17.5 -0.5q78 0 102 176l43 389h-151v285h182q28 235 126.5 351t280.5 116
q144 0 246 -48l-88 -286q-62 26 -94 26z" />
    <glyph glyph-name="uni019D" unicode="&#x19d;" horiz-adv-x="1232" 
d="M772 745v689h367v-1434h-332l-346 711v-136q10 -88 10 -303v-266q0 -165 -96 -263.5t-289 -98.5q-69 0 -162 26l27 299q35 -12 65 -12q66 0 78 66v1411h344z" />
    <glyph glyph-name="Ohorn" unicode="&#x1a0;" horiz-adv-x="1251" 
d="M883 1606l301 16q30 -101 20.5 -180.5t-46 -132.5t-95.5 -78q127 -194 127 -512q0 -348 -150 -547t-415 -199q-261 0 -413.5 194t-152.5 548q0 348 150.5 546.5t415.5 198.5q122 0 223 -43q35 5 43 45.5t-8 143.5zM625 322q178 0 178 393q0 399 -178 399
q-176 0 -176 -397q0 -395 176 -395z" />
    <glyph glyph-name="ohorn" unicode="&#x1a1;" horiz-adv-x="1077" 
d="M778 1315l301 16q30 -104 19.5 -185t-49.5 -134t-101 -76q84 -149 84 -363q0 -275 -132.5 -437.5t-362.5 -162.5q-225 0 -358.5 158.5t-133.5 439.5q0 272 132.5 433t361.5 161q109 0 202 -41q36 6 44.5 46.5t-7.5 144.5zM539 295q61 0 95 70.5t34 205.5q0 133 -34.5 203
t-96.5 70q-61 0 -95 -69t-34 -202q0 -136 34.5 -207t96.5 -71z" />
    <glyph glyph-name="Uhorn" unicode="&#x1af;" horiz-adv-x="1163" 
d="M899 1624l301 16q29 -99 20.5 -178t-43.5 -132t-92 -79v-788q0 -226 -134.5 -358t-368.5 -132t-369 132t-135 358v971h377v-969q0 -83 32.5 -125.5t94.5 -42.5q63 0 97 42.5t34 125.5v969h133q47 0 58.5 37t-5.5 153z" />
    <glyph glyph-name="uhorn" unicode="&#x1b0;" horiz-adv-x="1081" 
d="M850 1327l301 16q45 -159 -1 -267t-153 -136v-940h-358v139q-43 -77 -110.5 -121.5t-153.5 -44.5q-146 0 -223.5 102.5t-77.5 303.5v760h360v-699q0 -137 88 -137q35 0 66 29.5t51 83.5v723h180q32 8 39 48t-8 140z" />
    <glyph glyph-name="uni01CD" unicode="&#x1cd;" horiz-adv-x="1200" 
d="M418 1526l-139 264l268 14l53 -127l51 127l267 -14l-140 -264h-360zM1194 0h-385l-45 223h-332l-47 -223h-381l358 1434h476zM596 1010l-109 -523h222l-107 523h-6z" />
    <glyph glyph-name="uni01CE" unicode="&#x1ce;" horiz-adv-x="1011" 
d="M311 1233l-135 285l262 18l49 -137l52 137l260 -18l-137 -285h-351zM467 1165q241 0 355 -124.5t114 -346.5v-694h-358v135q-39 -80 -103.5 -120t-144.5 -40q-138 0 -218.5 92t-80.5 271q0 165 90.5 255.5t271.5 90.5q75 0 185 -8v31q0 82 -39 120.5t-123 38.5
q-128 0 -250 -51l-33 293q162 57 334 57zM463 256q54 0 84.5 57t30.5 174v11q-41 6 -91 6q-110 0 -110 -127q0 -57 23.5 -89t62.5 -32z" />
    <glyph glyph-name="uni01CF" unicode="&#x1cf;" horiz-adv-x="565" 
d="M100 1526l-139 264l268 14l54 -127l51 127l266 -14l-139 -264h-361zM471 0h-377v1434h377v-1434z" />
    <glyph glyph-name="uni01D0" unicode="&#x1d0;" horiz-adv-x="524" 
d="M86 1231l-135 285l262 18l49 -137l51 137l260 -18l-137 -285h-350zM442 0h-360v1139h360v-1139z" />
    <glyph glyph-name="uni01D1" unicode="&#x1d1;" horiz-adv-x="1251" 
d="M444 1526l-139 264l268 14l54 -127l51 127l266 -14l-139 -264h-361zM625 1460q261 0 413 -193.5t152 -547.5q0 -348 -150 -547t-415 -199q-261 0 -413.5 194t-152.5 548q0 348 150.5 546.5t415.5 198.5zM625 322q178 0 178 393q0 399 -178 399q-176 0 -176 -397
q0 -395 176 -395z" />
    <glyph glyph-name="uni01D2" unicode="&#x1d2;" horiz-adv-x="1077" 
d="M365 1231l-136 285l263 18l49 -137l51 137l260 -18l-137 -285h-350zM539 1165q225 0 359 -157.5t134 -434.5q0 -275 -132.5 -437.5t-362.5 -162.5q-225 0 -358.5 158.5t-133.5 439.5q0 272 132.5 433t361.5 161zM539 295q61 0 95 70.5t34 205.5q0 133 -34.5 203t-96.5 70
q-61 0 -95 -69t-34 -202q0 -136 34.5 -207t96.5 -71z" />
    <glyph glyph-name="uni01D3" unicode="&#x1d3;" horiz-adv-x="1163" 
d="M403 1526l-139 264l268 14l54 -127l51 127l266 -14l-139 -264h-361zM713 465v969h372v-971q0 -226 -134.5 -358t-368.5 -132t-369 132t-135 358v971h377v-969q0 -83 32.5 -125.5t94.5 -42.5q63 0 97 42.5t34 125.5z" />
    <glyph glyph-name="uni01D4" unicode="&#x1d4;" horiz-adv-x="1081" 
d="M352 1231l-135 285l262 18l49 -137l52 137l260 -18l-138 -285h-350zM639 416v723h358v-1139h-358v139q-43 -77 -110.5 -121.5t-153.5 -44.5q-146 0 -223.5 102.5t-77.5 303.5v760h360v-699q0 -137 88 -137q35 0 66 29.5t51 83.5z" />
    <glyph glyph-name="uni01D5" unicode="&#x1d5;" horiz-adv-x="1163" 
d="M895 1855h-616v207h616v-207zM551 1516h-264v264h264v-264zM881 1516h-265v264h265v-264zM582 -27q-234 0 -369 132t-135 358v971h377v-969q0 -83 32.5 -125.5t94.5 -42.5q63 0 97 42.5t34 125.5v969h372v-971q0 -226 -134.5 -358t-368.5 -132z" />
    <glyph glyph-name="uni01D6" unicode="&#x1d6;" horiz-adv-x="1081" 
d="M219 1808h617v-206h-617v206zM481 1509v-274h-241v274h241zM813 1509v-274h-242v274h242zM639 416v723h358v-1139h-358v139q-43 -77 -110.5 -121.5t-153.5 -44.5q-146 0 -223.5 102.5t-77.5 303.5v760h360v-699q0 -137 88 -137q35 0 66 29.5t51 83.5z" />
    <glyph glyph-name="uni01D7" unicode="&#x1d7;" horiz-adv-x="1163" 
d="M926 2052l-211 -221l-271 14l158 275zM551 1516h-264v264h264v-264zM881 1516h-265v264h265v-264zM582 -27q-234 0 -369 132t-135 358v971h377v-969q0 -83 32.5 -125.5t94.5 -42.5q63 0 97 42.5t34 125.5v969h372v-971q0 -226 -134.5 -358t-368.5 -132z" />
    <glyph glyph-name="uni01D8" unicode="&#x1d8;" horiz-adv-x="1081" 
d="M520 1909l311 -51l-210 -279l-234 16zM240 1509h241v-274h-241v274zM813 1235h-242v274h242v-274zM639 416v723h358v-1139h-358v139q-43 -77 -110.5 -121.5t-153.5 -44.5q-146 0 -223.5 102.5t-77.5 303.5v760h360v-699q0 -137 88 -137q35 0 66 29.5t51 83.5z" />
    <glyph glyph-name="uni01D9" unicode="&#x1d9;" horiz-adv-x="1163" 
d="M406 1843l-140 264l269 15l53 -127l51 127l266 -15l-139 -264h-360zM551 1516h-264v264h264v-264zM881 1516h-265v264h265v-264zM713 465v969h372v-971q0 -226 -134.5 -358t-368.5 -132t-369 132t-135 358v971h377v-969q0 -83 32.5 -125.5t94.5 -42.5q63 0 97 42.5
t34 125.5z" />
    <glyph glyph-name="uni01DA" unicode="&#x1da;" horiz-adv-x="1081" 
d="M352 1575l-135 285l262 18l49 -137l52 137l260 -18l-138 -285h-350zM481 1235h-241v274h241v-274zM813 1235h-242v274h242v-274zM639 416v723h358v-1139h-358v139q-43 -77 -110.5 -121.5t-153.5 -44.5q-146 0 -223.5 102.5t-77.5 303.5v760h360v-699q0 -137 88 -137
q35 0 66 29.5t51 83.5z" />
    <glyph glyph-name="uni01DB" unicode="&#x1db;" horiz-adv-x="1163" 
d="M727 1843l-270 -14l-211 223l325 66zM551 1516h-264v264h264v-264zM881 1516h-265v264h265v-264zM582 -27q-234 0 -369 132t-135 358v971h377v-969q0 -83 32.5 -125.5t94.5 -42.5q63 0 97 42.5t34 125.5v969h372v-971q0 -226 -134.5 -358t-368.5 -132z" />
    <glyph glyph-name="Gcaron" unicode="&#x1e6;" horiz-adv-x="1153" 
d="M479 1526l-139 264l268 14l54 -127l51 127l266 -14l-139 -264h-361zM672 518v281h418v-676q-210 -150 -453 -150q-271 0 -424.5 194.5t-153.5 547.5q0 356 166 550.5t441 194.5q175 0 348 -80l-88 -333q-122 69 -236 69q-124 0 -186 -98t-62 -305q0 -195 53 -301.5
t152 -106.5q55 0 107 25v188h-82z" />
    <glyph glyph-name="gcaron" unicode="&#x1e7;" horiz-adv-x="1011" 
d="M328 1247l-135 285l262 18l49 -137l51 137l260 -18l-137 -285h-350zM467 303h121q418 3 418 -309q0 -173 -136.5 -271t-390.5 -98q-420 0 -420 289q0 111 117 197q-106 50 -106 182q0 59 31.5 110.5t80.5 88.5q-114 102 -114 288q0 178 117.5 281.5t320.5 103.5
q121 0 194 -37l228 82l65 -229l-108 -25q61 -75 61 -176q0 -183 -113.5 -288t-324.5 -105q-52 0 -98 6q-19 -27 -19 -45q0 -45 76 -45zM506 913q-41 0 -62.5 -34.5t-21.5 -96.5q0 -143 84 -143q43 0 65.5 36.5t22.5 104.5q0 61 -23 97t-65 36zM508 -117q133 0 133 109
q0 46 -30 67t-91 21h-88q-35 -47 -35 -96q0 -101 111 -101z" />
    <glyph glyph-name="uni01EA" unicode="&#x1ea;" horiz-adv-x="1251" 
d="M866 -51q0 -82 125 -58l19 -206q-150 -38 -250.5 -24.5t-151.5 64.5t-51 132q0 58 33 116q-246 14 -388.5 207t-142.5 535q0 348 150.5 546.5t415.5 198.5q261 0 413 -193.5t152 -547.5q0 -234 -69.5 -403.5t-198.5 -256.5q-56 -59 -56 -110zM449 717q0 -395 176 -395
q178 0 178 393q0 399 -178 399q-176 0 -176 -397z" />
    <glyph glyph-name="uni01EB" unicode="&#x1eb;" horiz-adv-x="1077" 
d="M750 -63q0 -82 124 -58l19 -207q-150 -38 -250.5 -24.5t-151.5 64.5t-51 132q0 67 41 131q-201 21 -318.5 177.5t-117.5 418.5q0 272 132.5 433t361.5 161q225 0 359 -157.5t134 -434.5q0 -177 -57 -310.5t-162 -207.5q-63 -60 -63 -118zM408 573q0 -136 34.5 -207
t96.5 -71q61 0 95 70.5t34 205.5q0 133 -34.5 203t-96.5 70q-61 0 -95 -69t-34 -202z" />
    <glyph glyph-name="Aringacute" unicode="&#x1fa;" horiz-adv-x="1200" 
d="M621 2269l323 -67l-211 -222l-270 15zM600 1464q-103 0 -171.5 64.5t-68.5 161.5q0 98 68.5 162.5t171.5 64.5q102 0 170 -64.5t68 -162.5q0 -97 -68.5 -161.5t-169.5 -64.5zM600 1763q-29 0 -48.5 -21t-19.5 -52t19.5 -50.5t48.5 -19.5q28 0 47 20t19 50q0 31 -19 52
t-47 21zM1194 0h-385l-45 223h-332l-47 -223h-381l358 1434h476zM596 1010l-109 -523h222l-107 523h-6z" />
    <glyph glyph-name="aringacute" unicode="&#x1fb;" horiz-adv-x="1011" 
d="M481 2056l312 -51l-211 -279l-234 17zM487 1208q-103 0 -171 65t-68 163q0 97 68 161t171 64q102 0 170 -64t68 -161q0 -98 -68 -163t-170 -65zM487 1507q-29 0 -48 -20t-19 -51t19 -51.5t48 -20.5q28 0 47 20.5t19 51.5t-19 51t-47 20zM467 1165q241 0 355 -124.5
t114 -346.5v-694h-358v135q-39 -80 -103.5 -120t-144.5 -40q-138 0 -218.5 92t-80.5 271q0 165 90.5 255.5t271.5 90.5q75 0 185 -8v31q0 82 -39 120.5t-123 38.5q-128 0 -250 -51l-33 293q162 57 334 57zM463 256q54 0 84.5 57t30.5 174v11q-41 6 -91 6q-110 0 -110 -127
q0 -57 23.5 -89t62.5 -32z" />
    <glyph glyph-name="AEacute" unicode="&#x1fc;" horiz-adv-x="1617" 
d="M1010 1802l323 -67l-211 -222l-270 15zM1090 573v-249h481v-324h-854v256h-252l-76 -256h-385l428 1434h1127v-324h-469v-233h399v-304h-399zM711 1102l-164 -582h170v582h-6z" />
    <glyph glyph-name="aeacute" unicode="&#x1fd;" horiz-adv-x="1552" 
d="M766 1565l311 -52l-211 -278l-233 16zM1475 469h-537q13 -103 57.5 -151t122.5 -48q126 0 238 62l63 -273q-144 -84 -340 -84q-237 0 -372 170q-127 -172 -338 -172q-151 0 -242.5 97.5t-91.5 263.5q0 167 94 258.5t281 91.5q68 0 170 -8v14q0 89 -38.5 132.5
t-123.5 43.5q-119 0 -246 -51l-47 293q189 57 340 57q201 0 295 -112q122 110 311 110q203 0 319.5 -136.5t116.5 -360.5q0 -96 -32 -197zM936 664h231q0 210 -110 210q-109 0 -121 -210zM465 256q49 2 84.5 53.5t38.5 149.5q0 5 -1 15t-1 15l-6 -2v9q-44 6 -91 6
q-108 0 -108 -123q0 -57 22 -90.5t62 -32.5z" />
    <glyph glyph-name="oslashacute" unicode="&#x1ff;" horiz-adv-x="1077" 
d="M532 1565l312 -52l-211 -278l-234 16zM1012 1075l-82 -110q102 -151 102 -392q0 -275 -132.5 -437.5t-362.5 -162.5q-159 0 -277 82l-63 -84l-131 97l79 108q-100 156 -100 395q0 272 132.5 433t361.5 161q155 0 274 -80l66 89zM408 573v-38l202 274q-30 35 -73 35
q-61 0 -95 -69t-34 -202zM539 295q61 0 95 70.5t34 205.5v37l-205 -276q30 -37 76 -37z" />
    <glyph glyph-name="uni0218" unicode="&#x218;" horiz-adv-x="956" 
d="M440 -29q-217 0 -403 80l41 320q66 -32 152.5 -53t154.5 -21q145 0 145 111q0 47 -37.5 86.5t-119.5 93.5q-328 171 -328 438q0 202 130 318t343 116q197 0 359 -67l-41 -326q-144 66 -263 66q-131 0 -131 -107q0 -49 38.5 -91.5t119.5 -92.5q100 -52 169 -110.5
t114 -146t45 -192.5q0 -195 -134.5 -308.5t-353.5 -113.5zM391 -498l-53 105q58 21 82 52.5t22 76.5h-116v188h280q87 -318 -215 -422z" />
    <glyph glyph-name="uni0219" unicode="&#x219;" horiz-adv-x="825" 
d="M381 -25q-183 0 -348 60l45 299q126 -66 276 -66q84 0 84 68q0 33 -30.5 59.5t-104.5 63.5q-134 54 -199 134t-65 216q0 70 21 128.5t58.5 100t88 70.5t110 43t125.5 14q156 0 303 -57l-43 -297q-131 59 -235 59q-81 0 -84 -67q0 -35 31.5 -63t95.5 -56
q141 -63 212 -145.5t71 -212.5q-1 -163 -114.5 -257t-297.5 -94zM338 -498l-53 105q58 21 82 52.5t22 76.5h-117v188h281q87 -318 -215 -422z" />
    <glyph glyph-name="uni021A" unicode="&#x21a;" horiz-adv-x="972" 
d="M25 1434h923v-336h-274v-1098h-377v1098h-272v336zM338 -264v188h280q87 -318 -215 -422l-53 105q108 39 105 129h-117z" />
    <glyph glyph-name="uni021B" unicode="&#x21b;" horiz-adv-x="778" 
d="M481 -27q-173 0 -262.5 97.5t-89.5 289.5v482h-96v153l119 150l192 246h143v-252h240v-297h-240v-451q0 -98 80 -98q52 0 123 26l53 -292q-142 -54 -262 -54zM305 -500l-53 105q58 21 82 52.5t22 76.5h-116v188h280q87 -318 -215 -422z" />
    <glyph glyph-name="uni0232" unicode="&#x232;" horiz-adv-x="1093" 
d="M240 1745h616v-207h-616v207zM700 1434h396l-361 -988v-446h-377v446l-360 988h395l156 -607z" />
    <glyph glyph-name="uni0233" unicode="&#x233;" horiz-adv-x="1054" 
d="M221 1460h617v-207h-617v207zM530 395l140 744h372l-315 -1139l-96 -350h-363l90 332l-22 -2l-322 1159h371l141 -744h4z" />
    <glyph glyph-name="uni0237" unicode="&#x237;" horiz-adv-x="532" 
d="M-47 -360l4 272h61q72 0 72 119v1108h361v-1100q0 -216 -96.5 -315t-280.5 -99q-55 0 -121 15z" />
    <glyph glyph-name="uni0259" unicode="&#x259;" horiz-adv-x="1015" 
d="M473 1163q228 0 363 -159.5t135 -436.5q0 -269 -129.5 -430.5t-360.5 -161.5q-203 0 -319.5 136.5t-116.5 361.5q0 93 33 197h536q-13 103 -57.5 150.5t-122.5 47.5q-127 0 -237 -61l-64 272q144 84 340 84zM496 264q108 0 120 211h-231q0 -211 111 -211z" />
    <glyph glyph-name="uni0272" unicode="&#x272;" horiz-adv-x="1079" 
d="M705 1165q146 0 223.5 -102t77.5 -303v-760h-361v698q0 138 -88 138q-35 0 -66 -29.5t-51 -83.5v-279q2 -49 2 -172v-266q0 -165 -91.5 -263.5t-276.5 -98.5q-63 0 -156 26l27 299q35 -12 63 -12q62 0 74 66v1116h358v-140q43 77 111 121.5t154 44.5z" />
    <glyph glyph-name="uni02B0" unicode="&#x2b0;" horiz-adv-x="614" 
d="M406 1530q84 0 132 -62.5t48 -179.5v-399h-213v358q0 82 -51 82q-29 0 -47.5 -32t-18.5 -89v-319h-215v840h215v-275q57 76 150 76z" />
    <glyph glyph-name="circumflex" unicode="&#x2c6;" horiz-adv-x="741" 
d="M545 1536l137 -291l-260 -16l-51 137l-49 -137l-263 16l136 291h350z" />
    <glyph glyph-name="caron" unicode="&#x2c7;" horiz-adv-x="741" 
d="M371 1397l51 137l260 -18l-137 -285h-350l-136 285l263 18z" />
    <glyph glyph-name="breve" unicode="&#x2d8;" horiz-adv-x="733" 
d="M434 1524l240 -6q0 -295 -307 -295q-308 0 -308 295l242 6q0 -109 66 -109q67 0 67 109z" />
    <glyph glyph-name="dotaccent" unicode="&#x2d9;" horiz-adv-x="491" 
d="M432 1235h-373v274h373v-274z" />
    <glyph glyph-name="ring" unicode="&#x2da;" horiz-adv-x="595" 
d="M299 1206q-103 0 -171.5 65t-68.5 163q0 97 68.5 161t171.5 64q102 0 170 -64t68 -161q0 -98 -68 -163t-170 -65zM299 1362q28 0 47 20.5t19 51.5t-19 51t-47 20q-29 0 -48.5 -20t-19.5 -51t19.5 -51.5t48.5 -20.5z" />
    <glyph glyph-name="ogonek" unicode="&#x2db;" horiz-adv-x="671" 
d="M287 43l178 -43q-86 -74 -86 -139q0 -82 125 -58l18 -206q-150 -38 -250.5 -24.5t-151 64.5t-50.5 132q0 91 66.5 164t150.5 110z" />
    <glyph glyph-name="tilde" unicode="&#x2dc;" horiz-adv-x="684" 
d="M227 1231l-166 33q-3 117 38.5 182t119.5 65q50 0 112.5 -25.5t78.5 -25.5q50 0 47 62l164 -31q3 -118 -38 -183t-118 -65q-50 0 -113.5 25.5t-81.5 25.5q-21 0 -32.5 -16.5t-10.5 -46.5z" />
    <glyph glyph-name="hungarumlaut" unicode="&#x2dd;" horiz-adv-x="864" 
d="M449 1513l-166 -278l-224 16l86 314zM805 1513l-166 -278l-223 16l86 314z" />
    <glyph glyph-name="uni02E1" unicode="&#x2e1;" horiz-adv-x="292" 
d="M252 889h-211v850h211v-850z" />
    <glyph glyph-name="uni02E2" unicode="&#x2e2;" horiz-adv-x="487" 
d="M227 872q-105 0 -198 39l37 158q76 -33 137 -33q18 0 31.5 10t13.5 27q0 20 -15.5 35t-52.5 35q-74 29 -108.5 70t-34.5 112q0 98 63 152.5t162 54.5q43 0 95 -9.5t83 -23.5l-37 -164q-69 29 -122 29q-18 0 -27.5 -9.5t-9.5 -23.5q0 -20 13.5 -34.5t45.5 -32.5
q81 -38 119.5 -80t38.5 -115q0 -89 -65.5 -143t-168.5 -54z" />
    <glyph glyph-name="gravecomb" unicode="&#x300;" 
d="M-61 1251l-232 -16l-213 278l311 52z" />
    <glyph glyph-name="acutecomb" unicode="&#x301;" 
d="M-61 1513l-211 -278l-234 16l133 314z" />
    <glyph glyph-name="uni0302" unicode="&#x302;" 
d="M-197 1536l138 -291l-260 -16l-52 137l-49 -137l-262 16l135 291h350z" />
    <glyph glyph-name="tildecomb" unicode="&#x303;" 
d="M-455 1231l-166 33q-3 117 38.5 182t119.5 65q50 0 112.5 -25.5t78.5 -25.5q50 0 47 62l164 -31q3 -118 -38 -183t-118 -65q-50 0 -113.5 25.5t-81.5 25.5q-21 0 -32.5 -16.5t-10.5 -46.5z" />
    <glyph glyph-name="uni0304" unicode="&#x304;" 
d="M-41 1257h-616v207h616v-207z" />
    <glyph glyph-name="uni0306" unicode="&#x306;" 
d="M-299 1524l240 -6q0 -295 -308 -295q-307 0 -307 295l242 6q0 -109 65 -109q68 0 68 109z" />
    <glyph glyph-name="uni0307" unicode="&#x307;" 
d="M-66 1235h-370v274h370v-274z" />
    <glyph glyph-name="uni0308" unicode="&#x308;" 
d="M-393 1235h-242v274h242v-274zM-61 1235h-242v274h242v-274z" />
    <glyph glyph-name="hookabovecomb" unicode="&#x309;" 
d="M-195 1206l-149 74q57 42 57 92q0 35 -29 46t-69 -11l-29 158q92 51 176.5 51t134.5 -45.5t50 -122.5q0 -69 -39 -132t-103 -110z" />
    <glyph glyph-name="uni030A" unicode="&#x30a;" 
d="M-297 1206q-103 0 -171.5 65t-68.5 163q0 97 68.5 161t171.5 64q102 0 170 -64t68 -161q0 -98 -68 -163t-170 -65zM-297 1362q28 0 47 20.5t19 51.5t-19 51t-47 20q-29 0 -48.5 -20t-19.5 -51t19.5 -51.5t48.5 -20.5z" />
    <glyph glyph-name="uni030B" unicode="&#x30b;" 
d="M-416 1513l-166 -278l-223 16l86 314zM-59 1513l-166 -278l-224 16l87 314z" />
    <glyph glyph-name="uni030C" unicode="&#x30c;" 
d="M-367 1397l52 137l260 -18l-138 -285h-350l-135 285l262 18z" />
    <glyph glyph-name="uni0312" unicode="&#x312;" 
d="M-125 1638l53 -104q-58 -21 -82 -51.5t-22 -75.5h117v-188h-283q-16 61 -18.5 113.5t8.5 93.5t31 74.5t51 59.5t66.5 44.5t78.5 33.5z" />
    <glyph glyph-name="uni031B" unicode="&#x31b;" 
d="M-539 1112l31 158q47 0 58.5 37t-5.5 153l301 17q26 -99 20.5 -178t-43.5 -132t-92.5 -79.5t-126 -20.5t-143.5 45z" />
    <glyph glyph-name="dotbelowcomb" unicode="&#x323;" 
d="M-401 -360v274h350v-274h-350z" />
    <glyph glyph-name="uni0324" unicode="&#x324;" 
d="M-393 -395h-242v272h242v-272zM-61 -395h-242v272h242v-272z" />
    <glyph glyph-name="uni0326" unicode="&#x326;" 
d="M-324 -498l-53 105q108 39 105 129h-117v188h280q87 -318 -215 -422z" />
    <glyph glyph-name="uni0327" unicode="&#x327;" 
d="M-225 16l-23 -77q74 -9 118 -48.5t44 -97.5q0 -78 -74.5 -121t-201.5 -43q-83 0 -150 13l31 141q46 -8 75 -8q66 0 66 37q0 52 -111 38l45 166h181z" />
    <glyph glyph-name="uni0328" unicode="&#x328;" 
d="M-289 43l178 -43q-86 -74 -86 -139q0 -82 125 -58l19 -206q-150 -38 -250.5 -24.5t-151.5 64.5t-51 132q0 91 66.5 164t150.5 110z" />
    <glyph glyph-name="uni032E" unicode="&#x32e;" 
d="M-252 -66l199 -2q0 -225 -254 -225q-250 0 -250 225l197 2q0 -79 53 -79q55 0 55 79z" />
    <glyph glyph-name="uni0331" unicode="&#x331;" 
d="M-41 -311h-616v205h616v-205z" />
    <glyph glyph-name="uni0335" unicode="&#x335;" 
d="M-676 596v156h613v-156h-613z" />
    <glyph glyph-name="uni0336" unicode="&#x336;" 
d="M-1042 825v181h1011v-181h-1011z" />
    <glyph glyph-name="uni0337" unicode="&#x337;" 
d="M-676 547l-67 137l575 266l68 -139z" />
    <glyph glyph-name="uni0338" unicode="&#x338;" 
d="M-1012 -29l-131 97l813 1106l133 -99z" />
    <glyph glyph-name="tonos" unicode="&#x384;" horiz-adv-x="579" 
d="M532 1567l-118 -322h-207l22 322h303z" />
    <glyph glyph-name="dieresistonos" unicode="&#x385;" horiz-adv-x="1032" 
d="M649 1632l-104 -323h-150l21 323h233zM342 1235h-199v235h199v-235zM848 1235h-199v235h199v-235z" />
    <glyph glyph-name="Alphatonos" unicode="&#x386;" horiz-adv-x="1200" 
d="M4 1434h303l-119 -322h-206zM1194 0h-385l-49 233h-326l-49 -233h-381l373 1434h446zM598 999l-109 -507h218l-107 507h-2z" />
    <glyph glyph-name="Epsilontonos" unicode="&#x388;" horiz-adv-x="995" 
d="M-59 1112h-207l22 322h303zM467 573v-249h481v-324h-854v1434h842v-324h-469v-233h399v-304h-399z" />
    <glyph glyph-name="Etatonos" unicode="&#x389;" horiz-adv-x="1236" 
d="M-78 1112h-207l23 322h303zM762 879v555h379v-1434h-379v547h-287v-547h-381v1434h381v-555h287z" />
    <glyph glyph-name="Iotatonos" unicode="&#x38a;" horiz-adv-x="565" 
d="M41 1434l-119 -322h-207l23 322h303zM471 0h-377v1434h377v-1434z" />
    <glyph glyph-name="Omicrontonos" unicode="&#x38c;" horiz-adv-x="1251" 
d="M625 -27q-261 0 -413.5 194t-152.5 548q0 348 150.5 546.5t415.5 198.5q261 0 413 -193.5t152 -547.5q0 -348 -150 -547t-415 -199zM182 1434l-119 -322h-206l22 322h303zM625 322q178 0 178 393q0 399 -178 399q-176 0 -176 -397q0 -395 176 -395z" />
    <glyph glyph-name="Upsilontonos" unicode="&#x38e;" horiz-adv-x="1093" 
d="M-150 1112h-206l22 322h303zM700 1434h396l-361 -988v-446h-377v446l-360 988h395l156 -607z" />
    <glyph glyph-name="Omegatonos" unicode="&#x38f;" horiz-adv-x="1193" 
d="M1135 901q0 -87 -18.5 -168.5t-57.5 -160.5t-71 -132t-87 -133l211 27v-334h-481v272q18 109 51 226t52.5 203t19.5 173q0 112 -42 176t-116 64q-72 0 -114 -63t-42 -177q0 -88 18 -172.5t51.5 -204t53.5 -225.5v-272h-481v334l213 -27q-46 66 -71 104.5t-61.5 105
t-55.5 119t-33.5 123t-14.5 142.5q0 94 20 176.5t62.5 153t105 121.5t152.5 79.5t199 28.5q259 0 398 -155t139 -404zM-252 1112l23 322h303l-119 -322h-207z" />
    <glyph glyph-name="iotadieresistonos" unicode="&#x390;" horiz-adv-x="565" 
d="M414 1632l-105 -323h-149l20 323h234zM106 1235h-198v235h198v-235zM612 1235h-198v235h198v-235zM432 -27q-356 0 -356 385v781h358v-756q0 -41 18 -62.5t48 -21.5q5 0 15.5 1t16.5 1l25 -315q-70 -13 -125 -13z" />
    <glyph glyph-name="Alpha" unicode="&#x391;" horiz-adv-x="1200" 
d="M1194 0h-385l-49 233h-326l-49 -233h-381l373 1434h446zM598 999l-109 -507h218l-107 507h-2z" />
    <glyph glyph-name="Beta" unicode="&#x392;" horiz-adv-x="1146" 
d="M868 743q112 -38 177 -126t65 -214q0 -190 -128.5 -296.5t-360.5 -106.5h-527v1434h512q218 0 340.5 -96t122.5 -277q0 -110 -53 -194t-148 -124zM555 1135h-96v-283h96q152 0 152 137q0 75 -36.5 110.5t-115.5 35.5zM459 299h123q82 0 121.5 36t39.5 111q0 148 -163 148
h-121v-295z" />
    <glyph glyph-name="Gamma" unicode="&#x393;" horiz-adv-x="905" 
d="M94 0v1434h787v-328h-404v-1106h-383z" />
    <glyph glyph-name="uni0394" unicode="&#x394;" horiz-adv-x="1150" 
d="M354 1436h443l350 -1436h-1143zM571 993l-133 -714h273l-133 714h-7z" />
    <glyph glyph-name="Epsilon" unicode="&#x395;" horiz-adv-x="995" 
d="M467 573v-249h481v-324h-854v1434h842v-324h-469v-233h399v-304h-399z" />
    <glyph glyph-name="Zeta" unicode="&#x396;" horiz-adv-x="976" 
d="M936 0h-895v246l426 852h-412v336h871v-246l-424 -852h434v-336z" />
    <glyph glyph-name="Eta" unicode="&#x397;" horiz-adv-x="1236" 
d="M762 879v555h379v-1434h-379v547h-287v-547h-381v1434h381v-555h287z" />
    <glyph glyph-name="Theta" unicode="&#x398;" horiz-adv-x="1251" 
d="M625 -27q-261 0 -413.5 194t-152.5 548q0 348 150.5 546.5t415.5 198.5q261 0 413 -193.5t152 -547.5q0 -348 -150 -547t-415 -199zM625 322q178 0 178 393q0 399 -178 399q-176 0 -176 -397q0 -395 176 -395zM489 641v154l273 2v-156h-273z" />
    <glyph glyph-name="Iota" unicode="&#x399;" horiz-adv-x="565" 
d="M471 0h-377v1434h377v-1434z" />
    <glyph glyph-name="Kappa" unicode="&#x39a;" horiz-adv-x="1226" 
d="M1212 0h-407l-223 498l-113 -140v-358h-375v1434h375v-594l289 594h426l-373 -609z" />
    <glyph glyph-name="Lambda" unicode="&#x39b;" horiz-adv-x="1155" 
d="M8 0l354 1434h433l352 -1434h-383l-184 975h-2l-183 -975h-387z" />
    <glyph glyph-name="Mu" unicode="&#x39c;" horiz-adv-x="1415" 
d="M934 1434h360l60 -1434h-357l-30 678l-185 -678h-149l-184 678l-31 -678h-355l58 1434h356l230 -752z" />
    <glyph glyph-name="Nu" unicode="&#x39d;" horiz-adv-x="1220" 
d="M461 0h-367v1434h334l332 -682v682h366v-1434h-321l-344 705v-705z" />
    <glyph glyph-name="Xi" unicode="&#x39e;" horiz-adv-x="931" 
d="M879 1110l-828 2v322l828 -2v-322zM809 573l-686 2v295l686 -2v-295zM883 -2l-836 2v324l836 -2v-324z" />
    <glyph glyph-name="Omicron" unicode="&#x39f;" horiz-adv-x="1251" 
d="M625 -27q-261 0 -413.5 194t-152.5 548q0 348 150.5 546.5t415.5 198.5q261 0 413 -193.5t152 -547.5q0 -348 -150 -547t-415 -199zM625 322q178 0 178 393q0 399 -178 399q-176 0 -176 -397q0 -395 176 -395z" />
    <glyph glyph-name="Pi" unicode="&#x3a0;" horiz-adv-x="1204" 
d="M1110 1434v-1434h-375v1098h-266v-1098h-375v1434h1016z" />
    <glyph glyph-name="Rho" unicode="&#x3a1;" horiz-adv-x="1116" 
d="M557 1434q243 0 383.5 -137.5t140.5 -389.5q0 -247 -137 -389.5t-385 -142.5h-90v-375h-375v1434h463zM469 688h80q73 0 115.5 55.5t42.5 159.5q0 98 -42 155.5t-116 57.5h-80v-428z" />
    <glyph glyph-name="Sigma" unicode="&#x3a3;" horiz-adv-x="931" 
d="M885 0h-834v270l281 451l-285 442v271h827v-326h-428l236 -387l-236 -395h439v-326z" />
    <glyph glyph-name="Tau" unicode="&#x3a4;" horiz-adv-x="972" 
d="M25 1434h923v-336h-274v-1098h-377v1098h-272v336z" />
    <glyph glyph-name="Upsilon" unicode="&#x3a5;" horiz-adv-x="1093" 
d="M700 1434h396l-361 -988v-446h-377v446l-360 988h395l156 -607z" />
    <glyph glyph-name="Phi" unicode="&#x3a6;" horiz-adv-x="1560" 
d="M1501 719q0 -253 -145.5 -411.5t-390.5 -170.5v-137h-371v137q-243 10 -389 168t-146 410q0 164 64 292.5t186 205t285 83.5v138h371v-138q241 -11 388.5 -166.5t147.5 -410.5zM965 993v-553q71 8 112 79.5t41 195.5t-40 198t-113 80zM440 717q0 -123 41 -197t113 -80
v553q-70 -6 -112 -78.5t-42 -197.5z" />
    <glyph glyph-name="Chi" unicode="&#x3a7;" horiz-adv-x="1171" 
d="M850 727l307 -727h-409l-164 479l-158 -479h-412l299 727l-278 707h407l142 -449l139 449h407z" />
    <glyph glyph-name="Psi" unicode="&#x3a8;" horiz-adv-x="1433" 
d="M1006 846v588h350v-560q0 -211 -113.5 -334.5t-337.5 -136.5v-403h-377v403q-219 10 -334.5 132.5t-115.5 338.5v560h348v-586q0 -63 27.5 -96.5t74.5 -36.5v719h377v-719q46 3 73.5 36t27.5 95z" />
    <glyph glyph-name="uni03A9" unicode="&#x3a9;" horiz-adv-x="1193" 
d="M1135 901q0 -87 -18.5 -168.5t-57.5 -160.5t-71 -132t-87 -133l211 27v-334h-481v272q18 109 51 226t52.5 203t19.5 173q0 112 -42 176t-116 64q-72 0 -114 -63t-42 -177q0 -88 18 -172.5t51.5 -204t53.5 -225.5v-272h-481v334l213 -27q-46 66 -71 104.5t-61.5 105
t-55.5 119t-33.5 123t-14.5 142.5q0 94 20 176.5t62.5 153t105 121.5t152.5 79.5t199 28.5q259 0 398 -155t139 -404z" />
    <glyph glyph-name="Iotadieresis" unicode="&#x3aa;" horiz-adv-x="565" 
d="M238 1530h-242v274h242v-274zM569 1530h-241v274h241v-274zM471 0h-377v1434h377v-1434z" />
    <glyph glyph-name="Upsilondieresis" unicode="&#x3ab;" horiz-adv-x="1093" 
d="M260 1804h242v-274h-242v274zM592 1804h242v-274h-242v274zM700 1434h396l-361 -988v-446h-377v446l-360 988h395l156 -607z" />
    <glyph glyph-name="alphatonos" unicode="&#x3ac;" horiz-adv-x="1130" 
d="M463 1567h303l-119 -322h-207zM690 1139h359l-35 -572l35 -567h-359l-6 143q-101 -170 -260 -170q-173 0 -276 160.5t-103 431.5q0 276 102.5 437t274.5 161q161 0 262 -170zM535 287q57 0 94 78t37 202q0 126 -36.5 203.5t-94.5 77.5q-60 0 -91.5 -73.5t-31.5 -209.5
q0 -130 32.5 -204t90.5 -74z" />
    <glyph glyph-name="epsilontonos" unicode="&#x3ad;" horiz-adv-x="794" 
d="M659 1567l-118 -322h-207l22 322h303zM455 -27q-183 0 -301.5 96.5t-118.5 245.5q0 93 39.5 160.5t105.5 97.5q-63 30 -100 96t-37 152q0 152 118.5 245t299.5 93q163 0 303 -63l-68 -262q-81 40 -174 40q-58 0 -93.5 -25.5t-35.5 -66.5q0 -39 28.5 -62.5t82.5 -23.5h125
v-239h-119q-58 0 -89.5 -27.5t-31.5 -71.5q0 -41 36.5 -67.5t94.5 -26.5q44 0 99 13.5t90 33.5l67 -274q-157 -64 -321 -64z" />
    <glyph glyph-name="etatonos" unicode="&#x3ae;" horiz-adv-x="1079" 
d="M453 1567h303l-119 -322h-207zM705 1165q146 0 223.5 -102t77.5 -303v-1110h-361v1048q0 138 -88 138q-35 0 -66 -29.5t-51 -83.5v-723h-358v1139h358v-140q43 77 111 121.5t154 44.5z" />
    <glyph glyph-name="iotatonos" unicode="&#x3af;" horiz-adv-x="565" 
d="M471 1567l-119 -322h-207l23 322h303zM432 -27q-356 0 -356 385v781h358v-756q0 -41 18 -62.5t48 -21.5q5 0 15.5 1t16.5 1l25 -315q-70 -13 -125 -13z" />
    <glyph glyph-name="upsilondieresistonos" unicode="&#x3b0;" horiz-adv-x="1077" 
d="M688 1632l-104 -323h-150l21 323h233zM381 1235h-199v235h199v-235zM887 1235h-199v235h199v-235zM643 432v707h361v-699q0 -208 -123.5 -337.5t-339.5 -129.5q-208 0 -336.5 125t-128.5 342v699h358v-707q0 -60 28.5 -96.5t78.5 -36.5q46 0 74 36t28 97z" />
    <glyph glyph-name="alpha" unicode="&#x3b1;" horiz-adv-x="1130" 
d="M690 1139h359l-35 -572l35 -567h-359l-6 143q-101 -170 -260 -170q-173 0 -276 160.5t-103 431.5q0 276 102.5 437t274.5 161q161 0 262 -170zM535 287q57 0 94 78t37 202q0 126 -36.5 203.5t-94.5 77.5q-60 0 -91.5 -73.5t-31.5 -209.5q0 -130 32.5 -204t90.5 -74z" />
    <glyph glyph-name="beta" unicode="&#x3b2;" horiz-adv-x="1112" 
d="M444 -350h-358v1397q0 80 15 148.5t49 128.5t85 102t127.5 66t172.5 24q199 0 326.5 -114.5t127.5 -324.5q0 -80 -35 -164t-94 -129q81 -29 144 -123.5t63 -218.5q0 -220 -116.5 -344.5t-303.5 -124.5q-117 0 -203 52v-375zM444 1047v-709q65 -49 125 -49q59 0 96 44.5
t37 123.5q0 80 -30.5 126t-85.5 46h-92v262h38q39 0 63.5 40t27.5 111q3 70 -21 114t-70 44q-39 0 -63.5 -38.5t-24.5 -114.5z" />
    <glyph glyph-name="gamma" unicode="&#x3b3;" horiz-adv-x="1056" 
d="M670 1139h374l-335 -1104v-385h-359v379l-336 1110h375l137 -690h4z" />
    <glyph glyph-name="delta" unicode="&#x3b4;" horiz-adv-x="1034" 
d="M944 1221h-350q177 -164 287 -352.5t110 -385.5q0 -229 -127.5 -368.5t-347.5 -139.5q-213 0 -342 134t-129 372q0 97 29 183t79 150.5t103.5 111t116.5 84.5q-99 113 -213 204l6 302h778v-295zM516 291q51 0 81 49.5t30 138.5q0 143 -92 307q-67 -65 -97 -135t-30 -170
q0 -90 28 -140t80 -50z" />
    <glyph glyph-name="epsilon" unicode="&#x3b5;" horiz-adv-x="794" 
d="M455 -27q-183 0 -301.5 96.5t-118.5 245.5q0 93 39.5 160.5t105.5 97.5q-63 30 -100 96t-37 152q0 152 118.5 245t299.5 93q163 0 303 -63l-68 -262q-81 40 -174 40q-58 0 -93.5 -25.5t-35.5 -66.5q0 -39 28.5 -62.5t82.5 -23.5h125v-239h-119q-58 0 -89.5 -27.5
t-31.5 -71.5q0 -41 36.5 -67.5t94.5 -26.5q44 0 99 13.5t90 33.5l67 -274q-157 -64 -321 -64z" />
    <glyph glyph-name="zeta" unicode="&#x3b6;" horiz-adv-x="866" 
d="M625 270q82 -45 127.5 -83.5t72.5 -98t27 -143.5q0 -127 -66 -295h-305q64 148 64 213q0 63 -38.5 104.5t-127.5 87.5q-153 79 -230 188t-77 283q0 212 112.5 389.5t284.5 298.5h-369v297h682v-297q-165 -143 -255.5 -305.5t-90.5 -361.5q0 -93 45.5 -154t143.5 -123z
" />
    <glyph glyph-name="eta" unicode="&#x3b7;" horiz-adv-x="1079" 
d="M705 1165q146 0 223.5 -102t77.5 -303v-1110h-361v1048q0 138 -88 138q-35 0 -66 -29.5t-51 -83.5v-723h-358v1139h358v-140q43 77 111 121.5t154 44.5z" />
    <glyph glyph-name="theta" unicode="&#x3b8;" horiz-adv-x="1083" 
d="M543 1534q236 0 365.5 -203t129.5 -577q0 -369 -129.5 -576t-365.5 -207q-237 0 -367.5 204t-130.5 579q0 368 130 574t368 206zM541 1212q-63 0 -100.5 -104.5t-41.5 -296.5l213 61l70 -36q-6 178 -43 277t-98 99zM543 295q63 0 99 102.5t42 292.5l-223 -63l-60 30
q8 -172 45 -267t97 -95z" />
    <glyph glyph-name="iota" unicode="&#x3b9;" horiz-adv-x="565" 
d="M432 -27q-356 0 -356 385v781h358v-756q0 -41 18 -62.5t48 -21.5q5 0 15.5 1t16.5 1l25 -315q-70 -13 -125 -13z" />
    <glyph glyph-name="kappa" unicode="&#x3ba;" horiz-adv-x="1052" 
d="M1042 0h-393l-141 408h-68v-408h-358v1139h358v-416h68l119 416h391l-242 -533z" />
    <glyph glyph-name="lambda" unicode="&#x3bb;" horiz-adv-x="1005" 
d="M385 -4h-371l291 1094l-12 45q-16 64 -49 87t-84 23l4 268q164 13 261 -12t153 -93.5t90 -199.5l325 -1212h-372l-117 649z" />
    <glyph glyph-name="uni03BC" unicode="&#x3bc;" horiz-adv-x="1083" 
d="M641 412v727h358v-1139h-358v139q-81 -139 -215 -162l16 -327h-366l2 680q-2 14 -2 49v760h360v-699q0 -137 88 -137q35 0 67 29t50 80z" />
    <glyph glyph-name="nu" unicode="&#x3bd;" horiz-adv-x="1054" 
d="M737 0h-418l-305 1139h371l141 -738h4l140 738h372z" />
    <glyph glyph-name="xi" unicode="&#x3be;" horiz-adv-x="860" 
d="M770 -350h-303q59 125 59 194q0 61 -29.5 94t-131.5 91q-169 89 -244.5 188.5t-75.5 224.5q0 133 52.5 225.5t154.5 125.5q-97 46 -146 132.5t-49 196.5q0 189 126.5 301.5t314.5 112.5q171 0 317 -68l-74 -274q-87 41 -186 41q-70 0 -108.5 -41t-38.5 -107
q0 -74 42 -115.5t125 -41.5h119v-285h-133q-72 0 -110.5 -44t-38.5 -126q2 -62 40.5 -108t141.5 -105q130 -68 187 -141.5t57 -194.5q0 -130 -68 -276z" />
    <glyph glyph-name="omicron" unicode="&#x3bf;" horiz-adv-x="1077" 
d="M537 -27q-225 0 -358.5 158.5t-133.5 439.5q0 272 132.5 433t361.5 161q225 0 359 -157.5t134 -434.5q0 -275 -132.5 -437.5t-362.5 -162.5zM539 295q61 0 95 70.5t34 205.5q0 133 -34.5 203t-96.5 70q-61 0 -95 -69t-34 -202q0 -136 34.5 -207t96.5 -71z" />
    <glyph glyph-name="pi" unicode="&#x3c0;" horiz-adv-x="1073" 
d="M991 1139v-1141h-358v846h-193v-846h-358v1141h909z" />
    <glyph glyph-name="rho" unicode="&#x3c1;" horiz-adv-x="1103" 
d="M434 -350h-358v919q0 269 131.5 432.5t357.5 163.5q223 0 358.5 -158.5t135.5 -435.5q0 -264 -113.5 -430t-306.5 -166q-70 0 -129.5 35.5t-89.5 85.5zM436 571q0 -135 35 -208.5t96 -73.5q58 0 91.5 71t33.5 209q0 129 -34.5 204t-94.5 75q-58 0 -92.5 -71.5
t-34.5 -205.5z" />
    <glyph glyph-name="uni03C2" unicode="&#x3c2;" horiz-adv-x="874" 
d="M768 -350h-305q61 148 61 213q0 62 -30 93.5t-131 91.5q-7 5 -11 7q-109 65 -173 132t-99 165.5t-35 235.5q0 256 136 415.5t370 159.5q162 0 283 -90l-119 -274q-57 51 -133 51q-80 0 -127 -66t-47 -180q1 -115 40.5 -182t118.5 -119q78 -51 124 -87t81 -78.5t48.5 -88
t13.5 -106.5q0 -120 -66 -293z" />
    <glyph glyph-name="sigma" unicode="&#x3c3;" horiz-adv-x="1097" 
d="M1096 1137v-365q-43 0 -92 27q28 -106 28 -226q0 -275 -132.5 -437.5t-362.5 -162.5q-225 0 -358.5 158.5t-133.5 439.5q0 272 132.5 433t361.5 161q85 0 271.5 -14t285.5 -14zM539 295q61 0 95 70.5t34 205.5q0 133 -34.5 203t-96.5 70q-61 0 -95 -69t-34 -202
q0 -136 34.5 -207t96.5 -71z" />
    <glyph glyph-name="tau" unicode="&#x3c4;" horiz-adv-x="718" 
d="M684 1139v-295h-180v-461q0 -42 17.5 -63t47.5 -21q5 0 16 1t17 1l25 -315q-70 -13 -125 -13q-359 0 -359 385v486h-110v295h651z" />
    <glyph glyph-name="upsilon" unicode="&#x3c5;" horiz-adv-x="1077" 
d="M643 432v707h361v-699q0 -208 -123.5 -337.5t-339.5 -129.5q-208 0 -336.5 125t-128.5 342v699h358v-707q0 -60 28.5 -96.5t78.5 -36.5q46 0 74 36t28 97z" />
    <glyph glyph-name="phi" unicode="&#x3c6;" horiz-adv-x="1482" 
d="M1438 573q0 -264 -140.5 -424.5t-377.5 -166.5v-332h-359v332q-230 5 -373 160t-143 427q0 262 139.5 422t376.5 164v279h359v-279q231 -3 374.5 -158t143.5 -424zM408 571q0 -127 39 -198.5t114 -75.5v547q-153 -10 -153 -273zM920 844v-547q153 6 153 272
q0 127 -39 199t-114 76z" />
    <glyph glyph-name="chi" unicode="&#x3c7;" horiz-adv-x="1099" 
d="M788 403l297 -753h-385l-151 481l-150 -481h-385l293 751l-270 740h387l125 -445l125 445h387z" />
    <glyph glyph-name="psi" unicode="&#x3c8;" horiz-adv-x="1423" 
d="M983 471v668h358v-656q0 -222 -120 -339.5t-334 -129.5v-364h-357l2 364q-210 13 -333 130t-123 339v656h358v-668q0 -68 32.5 -108t90.5 -44l-2 820h305v-820q56 2 89.5 42t33.5 110z" />
    <glyph glyph-name="omega" unicode="&#x3c9;" horiz-adv-x="1456" 
d="M45 541q0 170 26.5 305t108.5 293h365q-81 -139 -109 -283.5t-28 -308.5q0 -264 81 -264q89 0 89 235v281h301v-281q0 -235 86 -235q84 0 84 264q0 161 -28.5 306t-109.5 286h363q83 -158 110 -291t27 -307q0 -258 -107 -413t-274 -155q-126 0 -206 70.5t-95 192.5
q-17 -123 -97 -193t-206 -70q-166 0 -273.5 153t-107.5 415z" />
    <glyph glyph-name="iotadieresis" unicode="&#x3ca;" horiz-adv-x="565" 
d="M213 1235h-242v274h242v-274zM545 1235h-242v274h242v-274zM432 -27q-356 0 -356 385v781h358v-756q0 -41 18 -62.5t48 -21.5q5 0 15.5 1t16.5 1l25 -315q-70 -13 -125 -13z" />
    <glyph glyph-name="upsilondieresis" unicode="&#x3cb;" horiz-adv-x="1077" 
d="M487 1235h-241v274h241v-274zM819 1235h-241v274h241v-274zM643 432v707h361v-699q0 -208 -123.5 -337.5t-339.5 -129.5q-208 0 -336.5 125t-128.5 342v699h358v-707q0 -60 28.5 -96.5t78.5 -36.5q46 0 74 36t28 97z" />
    <glyph glyph-name="omicrontonos" unicode="&#x3cc;" horiz-adv-x="1077" 
d="M750 1567l-119 -322h-207l22 322h304zM537 -27q-225 0 -358.5 158.5t-133.5 439.5q0 272 132.5 433t361.5 161q225 0 359 -157.5t134 -434.5q0 -275 -132.5 -437.5t-362.5 -162.5zM539 295q61 0 95 70.5t34 205.5q0 133 -34.5 203t-96.5 70q-61 0 -95 -69t-34 -202
q0 -136 34.5 -207t96.5 -71z" />
    <glyph glyph-name="upsilontonos" unicode="&#x3cd;" horiz-adv-x="1077" 
d="M745 1567l-118 -322h-207l22 322h303zM643 432v707h361v-699q0 -208 -123.5 -337.5t-339.5 -129.5q-208 0 -336.5 125t-128.5 342v699h358v-707q0 -60 28.5 -96.5t78.5 -36.5q46 0 74 36t28 97z" />
    <glyph glyph-name="omegatonos" unicode="&#x3ce;" horiz-adv-x="1456" 
d="M940 1567l-119 -322h-207l23 322h303zM45 541q0 170 26.5 305t108.5 293h365q-81 -139 -109 -283.5t-28 -308.5q0 -264 81 -264q89 0 89 235v281h301v-281q0 -235 86 -235q84 0 84 264q0 161 -28.5 306t-109.5 286h363q83 -158 110 -291t27 -307q0 -258 -107 -413
t-274 -155q-126 0 -206 70.5t-95 192.5q-17 -123 -97 -193t-206 -70q-166 0 -273.5 153t-107.5 415z" />
    <glyph glyph-name="uni0400" unicode="&#x400;" horiz-adv-x="995" 
d="M506 1862l133 -314l-231 -16l-213 278zM467 573v-249h481v-324h-854v1434h842v-324h-469v-233h399v-304h-399z" />
    <glyph glyph-name="uni0401" unicode="&#x401;" horiz-adv-x="995" 
d="M227 1804h242v-274h-242v274zM559 1804h242v-274h-242v274zM467 573v-249h481v-324h-854v1434h842v-324h-469v-233h399v-304h-399z" />
    <glyph glyph-name="uni0402" unicode="&#x402;" horiz-adv-x="1314" 
d="M895 915q170 0 265 -119.5t95 -336.5v-21q0 -220 -109.5 -342.5t-293.5 -122.5q-78 0 -158 27l37 285q27 -9 51 -9q95 0 95 162v17q0 71 -26 110t-75 39q-70 0 -137 -31v-573h-375v1122h-239v312h972v-312h-358v-256q139 49 256 49z" />
    <glyph glyph-name="uni0403" unicode="&#x403;" horiz-adv-x="905" 
d="M764 1808l-211 -278l-234 16l134 314zM94 0v1434h787v-328h-404v-1106h-383z" />
    <glyph glyph-name="uni0404" unicode="&#x404;" horiz-adv-x="1026" 
d="M895 383l94 -324q-142 -86 -325 -86q-277 0 -441 194t-164 550q0 351 158.5 546t439.5 195q160 0 324 -86l-90 -319q-104 59 -209 59q-185 0 -223 -258h342v-274h-342q40 -261 225 -261q108 0 211 64z" />
    <glyph glyph-name="uni0405" unicode="&#x405;" horiz-adv-x="956" 
d="M440 -29q-217 0 -403 80l41 320q66 -32 152.5 -53t154.5 -21q145 0 145 111q0 47 -37.5 86.5t-119.5 93.5q-328 171 -328 438q0 202 130 318t343 116q197 0 359 -67l-41 -326q-144 66 -263 66q-131 0 -131 -107q0 -49 38.5 -91.5t119.5 -92.5q100 -52 169 -110.5
t114 -146t45 -192.5q0 -195 -134.5 -308.5t-353.5 -113.5z" />
    <glyph glyph-name="uni0406" unicode="&#x406;" horiz-adv-x="565" 
d="M471 0h-377v1434h377v-1434z" />
    <glyph glyph-name="uni0407" unicode="&#x407;" horiz-adv-x="565" 
d="M238 1530h-242v274h242v-274zM569 1530h-241v274h241v-274zM471 0h-377v1434h377v-1434z" />
    <glyph glyph-name="uni0408" unicode="&#x408;" horiz-adv-x="821" 
d="M266 -27q-129 0 -260 58l68 319q77 -35 157 -35q142 0 142 201v594h-146v324h516v-940q0 -256 -128.5 -388.5t-348.5 -132.5z" />
    <glyph glyph-name="uni0409" unicode="&#x409;" horiz-adv-x="1734" 
d="M1104 1059h76q248 0 384 -142.5t136 -390.5q0 -252 -139.5 -389t-382.5 -137h-449v1122h-180l-12 -477q-5 -164 -26.5 -279.5t-60 -193t-100 -119.5t-139.5 -56t-186 -5v317q46 -7 74 19.5t44 106t19 224.5l22 775h920v-375zM1104 315h65q73 0 115.5 58t42.5 155
q0 103 -42.5 159t-115.5 56h-65v-428z" />
    <glyph glyph-name="uni040A" unicode="&#x40a;" horiz-adv-x="1763" 
d="M1114 956h103q238 0 373.5 -122.5t135.5 -354.5q0 -222 -133 -350.5t-376 -128.5h-482v618h-260v-618h-381v1434h381v-482h260v482h379v-478zM1114 309h92q72 0 111 43t39 121q0 79 -37.5 122.5t-112.5 43.5h-92v-330z" />
    <glyph glyph-name="uni040B" unicode="&#x40b;" horiz-adv-x="1339" 
d="M905 918q170 0 264.5 -108t94.5 -323v-487h-369v451q0 82 -30 114.5t-89 32.5q-70 0 -137 -29v-569h-375v1122h-239v312h972v-312h-358v-260q155 56 266 56z" />
    <glyph glyph-name="uni040C" unicode="&#x40c;" horiz-adv-x="1185" 
d="M614 1802l324 -67l-211 -222l-270 15zM1171 0h-409l-205 545h-88v-545h-375v1434h375v-566h94l178 566h418l-307 -691z" />
    <glyph glyph-name="uni040D" unicode="&#x40d;" horiz-adv-x="1220" 
d="M735 1548l-231 -16l-213 278l311 52zM1126 1434v-1434h-366v705l-344 -705h-322v1434h367v-682l332 682h333z" />
    <glyph glyph-name="uni040E" unicode="&#x40e;" horiz-adv-x="1042" 
d="M524 1518q-154 0 -230.5 72t-76.5 222l242 7q0 -109 65 -109q68 0 68 109l239 -7q0 -294 -307 -294zM655 1434h379l-334 -1115l-4 -10l-14 -53q-90 -279 -377 -279q-147 0 -235 56l73 311q75 -41 133 -41q44 0 60 43l-328 1088h383l131 -658h2z" />
    <glyph glyph-name="uni040F" unicode="&#x40f;" horiz-adv-x="1204" 
d="M735 1434h375v-1434h-322v-244h-368v244h-326v1434h375v-1098h266v1098z" />
    <glyph glyph-name="uni0410" unicode="&#x410;" horiz-adv-x="1200" 
d="M1194 0h-385l-45 223h-332l-47 -223h-381l358 1434h476zM596 1010l-109 -523h222l-107 523h-6z" />
    <glyph glyph-name="uni0411" unicode="&#x411;" horiz-adv-x="1148" 
d="M469 901l149 -2q133 -1 231 -38.5t154 -102.5t82.5 -145.5t26.5 -178.5q0 -191 -129.5 -312.5t-339.5 -121.5h-549v1434h871v-322h-496v-211zM469 305h113q71 0 113 40.5t42 125.5q0 77 -42.5 118.5t-112.5 41.5h-113v-326z" />
    <glyph glyph-name="uni0412" unicode="&#x412;" horiz-adv-x="1146" 
d="M868 743q112 -38 177 -126t65 -214q0 -190 -128.5 -296.5t-360.5 -106.5h-527v1434h512q218 0 340.5 -96t122.5 -277q0 -110 -53 -194t-148 -124zM555 1135h-96v-283h96q152 0 152 137q0 75 -36.5 110.5t-115.5 35.5zM459 299h123q82 0 121.5 36t39.5 111q0 148 -163 148
h-121v-295z" />
    <glyph glyph-name="uni0413" unicode="&#x413;" horiz-adv-x="905" 
d="M94 0v1434h787v-328h-404v-1106h-383z" />
    <glyph glyph-name="uni0414" unicode="&#x414;" horiz-adv-x="1374" 
d="M379 -246h-354v582h120q92 96 99 559l10 539h942v-1098h154v-582h-355v246h-616v-246zM541 336h280v784h-198l-5 -241q-8 -356 -77 -543z" />
    <glyph glyph-name="uni0415" unicode="&#x415;" horiz-adv-x="995" 
d="M467 573v-249h481v-324h-854v1434h842v-324h-469v-233h399v-304h-399z" />
    <glyph glyph-name="uni0416" unicode="&#x416;" horiz-adv-x="1726" 
d="M1712 0h-409l-201 545h-55v-545h-375v545h-54l-194 -545h-410l314 748l-301 686h417l172 -566h56v566h375v-566h57l178 566h418l-305 -686z" />
    <glyph glyph-name="uni0417" unicode="&#x417;" horiz-adv-x="966" 
d="M727 729q96 -32 150.5 -123t54.5 -215q0 -192 -148 -305t-376 -113q-207 0 -371 68l86 317q41 -23 104 -38t121 -15q79 0 129.5 37.5t50.5 101.5q0 75 -44 113.5t-119 38.5h-170v276h170q68 0 111.5 30t43.5 93q0 64 -48.5 98.5t-129.5 34.5q-118 0 -215 -53l-84 314
q161 69 358 69q224 0 371.5 -111t147.5 -298q0 -122 -50.5 -205.5t-142.5 -114.5z" />
    <glyph glyph-name="uni0418" unicode="&#x418;" horiz-adv-x="1220" 
d="M1126 1434v-1434h-366v705l-344 -705h-322v1434h367v-682l332 682h333z" />
    <glyph glyph-name="uni0419" unicode="&#x419;" horiz-adv-x="1220" 
d="M610 1518q-154 0 -230.5 72t-76.5 222l242 7q0 -109 65 -109q68 0 68 109l240 -7q0 -294 -308 -294zM461 752l332 682h333v-1434h-366v705l-344 -705h-322v1434h367v-682z" />
    <glyph glyph-name="uni041A" unicode="&#x41a;" horiz-adv-x="1185" 
d="M1171 0h-409l-205 545h-88v-545h-375v1434h375v-566h94l178 566h418l-307 -691z" />
    <glyph glyph-name="uni041B" unicode="&#x41b;" horiz-adv-x="1216" 
d="M25 -8v317q46 -7 74 19.5t44 106t19 224.5l22 775h938v-1434h-374v1122h-199l-12 -477q-5 -164 -26.5 -279.5t-60 -193t-100 -119.5t-139.5 -56t-186 -5z" />
    <glyph glyph-name="uni041C" unicode="&#x41c;" horiz-adv-x="1366" 
d="M684 825l254 609h334v-1434h-348v696l-183 -465h-116l-181 465v-696h-350v1434h338z" />
    <glyph glyph-name="uni041D" unicode="&#x41d;" horiz-adv-x="1236" 
d="M762 879v555h379v-1434h-379v547h-287v-547h-381v1434h381v-555h287z" />
    <glyph glyph-name="uni041E" unicode="&#x41e;" horiz-adv-x="1251" 
d="M625 -27q-261 0 -413.5 194t-152.5 548q0 348 150.5 546.5t415.5 198.5q261 0 413 -193.5t152 -547.5q0 -348 -150 -547t-415 -199zM625 322q178 0 178 393q0 399 -178 399q-176 0 -176 -397q0 -395 176 -395z" />
    <glyph glyph-name="uni041F" unicode="&#x41f;" horiz-adv-x="1204" 
d="M1110 1434v-1434h-375v1098h-266v-1098h-375v1434h1016z" />
    <glyph glyph-name="uni0420" unicode="&#x420;" horiz-adv-x="1116" 
d="M557 1434q243 0 383.5 -137.5t140.5 -389.5q0 -247 -137 -389.5t-385 -142.5h-90v-375h-375v1434h463zM469 688h80q73 0 115.5 55.5t42.5 159.5q0 98 -42 155.5t-116 57.5h-80v-428z" />
    <glyph glyph-name="uni0421" unicode="&#x421;" horiz-adv-x="1026" 
d="M664 -27q-277 0 -441 194t-164 550q0 351 158.5 546t439.5 195q160 0 324 -86l-90 -319q-104 59 -209 59q-231 0 -231 -395q0 -200 60 -299t173 -99q108 0 211 64l94 -324q-142 -86 -325 -86z" />
    <glyph glyph-name="uni0422" unicode="&#x422;" horiz-adv-x="972" 
d="M25 1434h923v-336h-274v-1098h-377v1098h-272v336z" />
    <glyph glyph-name="uni0423" unicode="&#x423;" horiz-adv-x="1042" 
d="M655 1434h379l-334 -1115l-4 -10l-14 -53q-90 -279 -377 -279q-147 0 -235 56l73 311q75 -41 133 -41q44 0 60 43l-328 1088h383l131 -658h2z" />
    <glyph glyph-name="uni0424" unicode="&#x424;" horiz-adv-x="1560" 
d="M1501 719q0 -253 -145.5 -411.5t-390.5 -170.5v-137h-371v137q-243 10 -389 168t-146 410q0 164 64 292.5t186 205t285 83.5v138h371v-138q241 -11 388.5 -166.5t147.5 -410.5zM965 993v-553q71 8 112 79.5t41 195.5t-40 198t-113 80zM440 717q0 -123 41 -197t113 -80
v553q-70 -6 -112 -78.5t-42 -197.5z" />
    <glyph glyph-name="uni0425" unicode="&#x425;" horiz-adv-x="1171" 
d="M850 727l307 -727h-409l-164 479l-158 -479h-412l299 727l-278 707h407l142 -449l139 449h407z" />
    <glyph glyph-name="uni0426" unicode="&#x426;" horiz-adv-x="1286" 
d="M909 0h-815v1434h375v-1098h266v1098h375v-1098h154v-582h-355v246z" />
    <glyph glyph-name="uni0427" unicode="&#x427;" horiz-adv-x="1198" 
d="M727 760v674h375v-1434h-375v465q-165 -64 -291 -64q-168 0 -263 116t-95 333v584h368v-549q0 -164 119 -164q96 0 162 39z" />
    <glyph glyph-name="uni0428" unicode="&#x428;" horiz-adv-x="1693" 
d="M1597 0h-1503v1434h375v-1100h190v1100h375v-1100h189v1100h374v-1434z" />
    <glyph glyph-name="uni0429" unicode="&#x429;" horiz-adv-x="1777" 
d="M1597 1434v-1098h156v-582h-354v246h-1305v1434h375v-1100h190v1100h375v-1100h189v1100h374z" />
    <glyph glyph-name="uni042A" unicode="&#x42a;" horiz-adv-x="1241" 
d="M586 1063h90q247 0 383.5 -144.5t136.5 -392.5q0 -252 -139.5 -389t-382.5 -137h-463v1100h-186v334h561v-371zM586 317h80q73 0 115 57.5t42 153.5q0 102 -42.5 158.5t-114.5 56.5h-80v-426z" />
    <glyph glyph-name="uni042B" unicode="&#x42b;" horiz-adv-x="1681" 
d="M471 1063h88q247 0 383.5 -144.5t136.5 -392.5q0 -252 -139.5 -389t-380.5 -137h-465v1434h377v-371zM1208 0v1434h377v-1434h-377zM471 317h78q74 0 116 57.5t42 153.5q0 103 -42.5 159t-115.5 56h-78v-426z" />
    <glyph glyph-name="uni042C" unicode="&#x42c;" horiz-adv-x="1114" 
d="M471 1063h88q247 0 383.5 -144.5t136.5 -392.5q0 -252 -139.5 -389t-380.5 -137h-465v1434h377v-371zM471 317h78q74 0 116 57.5t42 153.5q0 103 -42.5 159t-115.5 56h-78v-426z" />
    <glyph glyph-name="uni042D" unicode="&#x42d;" horiz-adv-x="1026" 
d="M369 1458q281 0 439.5 -195t158.5 -546q0 -356 -164 -550t-441 -194q-183 0 -325 86l94 324q103 -64 211 -64q188 0 225 265h-344v266h344q-35 262 -225 262q-103 0 -207 -59l-90 319q164 86 324 86z" />
    <glyph glyph-name="uni042E" unicode="&#x42e;" horiz-adv-x="1736" 
d="M1110 1460q261 0 414 -196.5t153 -544.5q0 -344 -151.5 -545t-415.5 -201q-229 0 -373 153.5t-176 432.5h-92v-559h-375v1434h375v-564h92q33 278 175.5 434t373.5 156zM1110 295q88 0 135 105t47 315q0 212 -47 318t-135 106q-87 0 -135.5 -106t-48.5 -316t48 -316
t136 -106z" />
    <glyph glyph-name="uni042F" unicode="&#x42f;" horiz-adv-x="1126" 
d="M1032 1434v-1434h-375v424h-67l-174 -424h-398l226 506q-99 63 -151 171.5t-52 252.5q0 241 140 372.5t382 131.5h469zM571 735h86v381h-86q-74 0 -115.5 -51t-41.5 -139q0 -93 41.5 -142t115.5 -49z" />
    <glyph glyph-name="uni0430" unicode="&#x430;" horiz-adv-x="1011" 
d="M467 1165q241 0 355 -124.5t114 -346.5v-694h-358v135q-39 -80 -103.5 -120t-144.5 -40q-138 0 -218.5 92t-80.5 271q0 165 90.5 255.5t271.5 90.5q75 0 185 -8v31q0 82 -39 120.5t-123 38.5q-128 0 -250 -51l-33 293q162 57 334 57zM463 256q54 0 84.5 57t30.5 174v11
q-41 6 -91 6q-110 0 -110 -127q0 -57 23.5 -89t62.5 -32z" />
    <glyph glyph-name="uni0431" unicode="&#x431;" horiz-adv-x="1067" 
d="M541 -25q-192 0 -322.5 139t-161.5 382q-12 77 -12 172q0 119 14.5 217t40 171t66 130.5t84.5 96.5t105 70t119.5 49.5t133.5 35.5q104 24 165 43t122 51l27 -305q-41 -26 -90 -44.5t-80 -26t-90 -19.5q-61 -14 -99 -30.5t-69.5 -47.5t-49 -78t-28.5 -119
q19 26 38.5 45.5t51 42t75 35t95.5 12.5q153 0 249.5 -139.5t96.5 -363.5q0 -236 -130.5 -377.5t-350.5 -141.5zM545 279q54 0 84 56.5t30 166.5q0 99 -29 157t-81 58q-57 0 -91 -57.5t-34 -155.5q0 -103 31.5 -164t89.5 -61z" />
    <glyph glyph-name="uni0432" unicode="&#x432;" horiz-adv-x="1019" 
d="M741 594q113 -26 173.5 -95t60.5 -171q0 -153 -109.5 -240.5t-312.5 -87.5h-471v1139h453q188 0 292.5 -76t104.5 -217q0 -90 -48 -155t-143 -97zM506 872h-72v-202h68q96 0 96 102q0 46 -23 73t-69 27zM434 266h90q103 0 103 105q0 104 -103 104h-90v-209z" />
    <glyph glyph-name="uni0433" unicode="&#x433;" horiz-adv-x="737" 
d="M82 -2v1141h645v-297h-287v-844h-358z" />
    <glyph glyph-name="uni0434" unicode="&#x434;" horiz-adv-x="1198" 
d="M1057 1139v-842h133v-498h-344v201h-494v-201h-344v498h76q78 65 86 276l16 566h871zM471 295h227v549h-166l-8 -248q-6 -191 -53 -301z" />
    <glyph glyph-name="uni0435" unicode="&#x435;" horiz-adv-x="1013" 
d="M952 471h-555q24 -205 176 -205q118 0 218 74l112 -248q-144 -117 -356 -117q-228 0 -365 161t-137 435q0 268 128 430t353 162q204 0 323.5 -145.5t119.5 -394.5q0 -59 -17 -152zM397 666h230q-6 211 -109 211q-106 0 -121 -211z" />
    <glyph glyph-name="uni0436" unicode="&#x436;" horiz-adv-x="1525" 
d="M1516 0h-394l-137 408h-45v-408h-354v408h-45l-138 -408h-393l262 616l-237 523h391l109 -406h51v406h354v-406h51l109 406h391l-238 -523z" />
    <glyph glyph-name="uni0437" unicode="&#x437;" horiz-adv-x="794" 
d="M342 -27q-165 0 -322 64l68 274q35 -20 90 -33.5t98 -13.5q58 0 95 26.5t37 67.5q0 44 -31.5 71.5t-89.5 27.5h-119v239h125q53 0 81.5 23.5t28.5 62.5q0 41 -35.5 66.5t-93.5 25.5q-93 0 -174 -40l-67 262q140 63 303 63q181 0 299.5 -93t118.5 -245q0 -86 -37.5 -152
t-100.5 -96q66 -30 106 -97.5t40 -160.5q0 -149 -118.5 -245.5t-301.5 -96.5z" />
    <glyph glyph-name="uni0438" unicode="&#x438;" horiz-adv-x="1087" 
d="M1006 1139v-1139h-359v473l-252 -473h-313v1139h358v-453l242 453h324z" />
    <glyph glyph-name="uni0439" unicode="&#x439;" horiz-adv-x="1087" 
d="M545 1223q-307 0 -307 295l241 6q0 -109 66 -109q67 0 67 109l240 -6q0 -295 -307 -295zM440 686l242 453h324v-1139h-359v473l-252 -473h-313v1139h358v-453z" />
    <glyph glyph-name="uni043A" unicode="&#x43a;" horiz-adv-x="1052" 
d="M1042 0h-393l-141 408h-68v-408h-358v1139h358v-416h68l119 416h391l-242 -533z" />
    <glyph glyph-name="uni043B" unicode="&#x43b;" horiz-adv-x="1069" 
d="M985 1137v-1137h-358v840h-142l-12 -377q-6 -274 -115 -391.5t-350 -73.5l2 281q60 -6 82 39.5t25 160.5l20 658h848z" />
    <glyph glyph-name="uni043C" unicode="&#x43c;" horiz-adv-x="1212" 
d="M606 748l168 391h356v-1139h-352v479l-133 -299h-78l-133 299v-479h-352v1139h356z" />
    <glyph glyph-name="uni043D" unicode="&#x43d;" horiz-adv-x="1075" 
d="M635 717v422h358v-1139h-358v434h-195v-434h-358v1139h358v-422h195z" />
    <glyph glyph-name="uni043E" unicode="&#x43e;" horiz-adv-x="1077" 
d="M537 -27q-225 0 -358.5 158.5t-133.5 439.5q0 272 132.5 433t361.5 161q225 0 359 -157.5t134 -434.5q0 -275 -132.5 -437.5t-362.5 -162.5zM539 295q61 0 95 70.5t34 205.5q0 133 -34.5 203t-96.5 70q-61 0 -95 -69t-34 -202q0 -136 34.5 -207t96.5 -71z" />
    <glyph glyph-name="uni043F" unicode="&#x43f;" horiz-adv-x="1073" 
d="M991 1139v-1141h-358v846h-193v-846h-358v1141h909z" />
    <glyph glyph-name="uni0440" unicode="&#x440;" horiz-adv-x="1107" 
d="M442 -352h-360v1491h360v-97q96 121 246 121q171 0 273 -158.5t102 -439.5q0 -278 -102.5 -435t-276.5 -157q-148 0 -242 121v-446zM573 291q59 0 92 69t33 205q0 281 -125 281q-63 0 -97 -78t-34 -201q0 -128 35.5 -202t95.5 -74z" />
    <glyph glyph-name="uni0441" unicode="&#x441;" horiz-adv-x="835" 
d="M553 -27q-236 0 -372 159.5t-136 436.5q0 275 137.5 435.5t368.5 160.5q139 0 264 -67l-86 -299q-79 47 -149 47q-78 0 -125 -71.5t-47 -203.5q0 -135 46 -206.5t126 -71.5q77 0 151 43l84 -295q-128 -68 -262 -68z" />
    <glyph glyph-name="uni0442" unicode="&#x442;" horiz-adv-x="851" 
d="M33 1139h786v-297h-215v-842h-358v842h-213v297z" />
    <glyph glyph-name="uni0443" unicode="&#x443;" horiz-adv-x="1054" 
d="M305 -377q-143 0 -244 43l52 266q74 -22 143 -22q95 0 121 100l6 23h-43l-326 1108h371l141 -711h4l140 711h372l-307 -1125q-55 -218 -152.5 -305.5t-277.5 -87.5z" />
    <glyph glyph-name="uni0444" unicode="&#x444;" horiz-adv-x="1482" 
d="M1438 573q0 -264 -140.5 -424.5t-377.5 -166.5v-332h-359v332q-230 5 -373 160t-143 427q0 262 139.5 422t376.5 164v279h359v-279q231 -3 374.5 -158t143.5 -424zM408 571q0 -127 39 -198.5t114 -75.5v547q-153 -10 -153 -273zM920 844v-547q153 6 153 272
q0 127 -39 199t-114 76z" />
    <glyph glyph-name="uni0445" unicode="&#x445;" horiz-adv-x="1071" 
d="M776 569l285 -569h-389l-135 334l-138 -334h-389l283 575l-264 564h393l113 -316l114 316h389z" />
    <glyph glyph-name="uni0446" unicode="&#x446;" horiz-adv-x="1136" 
d="M991 1135v-844h137v-498h-344v201h-702v1141h358v-846h193v846h358z" />
    <glyph glyph-name="uni0447" unicode="&#x447;" horiz-adv-x="1067" 
d="M627 678v457h358v-1135h-358v381q-137 -74 -262 -74q-140 0 -218.5 108.5t-78.5 307.5v412h358v-363q0 -65 24 -100t68 -35q58 0 109 41z" />
    <glyph glyph-name="uni0448" unicode="&#x448;" horiz-adv-x="1552" 
d="M1110 295v844h360v-1139h-1388v1139h358v-844h156v844h358v-844h156z" />
    <glyph glyph-name="uni0449" unicode="&#x449;" horiz-adv-x="1611" 
d="M1470 1139v-842h134v-498h-344v201h-1178v1139h358v-844h156v844h358v-844h156v844h360z" />
    <glyph glyph-name="uni044A" unicode="&#x44a;" horiz-adv-x="1110" 
d="M543 872h61q216 0 340.5 -116.5t124.5 -319.5t-123 -319.5t-342 -116.5h-420v858h-196v281h555v-267zM543 297h53q52 0 81.5 36.5t29.5 104.5t-29.5 106t-83.5 38h-51v-285z" />
    <glyph glyph-name="uni044B" unicode="&#x44b;" horiz-adv-x="1529" 
d="M440 872h62q215 0 340 -117t125 -319q0 -203 -123 -319.5t-342 -116.5h-420v1139h358v-267zM1087 0v1139h361v-1139h-361zM440 295h54q52 0 81 36.5t29 104.5t-29 106t-81 38h-54v-285z" />
    <glyph glyph-name="uni044C" unicode="&#x44c;" horiz-adv-x="997" 
d="M440 872h62q215 0 340 -117t125 -319q0 -203 -123 -319.5t-342 -116.5h-420v1139h358v-267zM440 295h54q52 0 81 36.5t29 104.5t-29 106t-81 38h-54v-285z" />
    <glyph glyph-name="uni044D" unicode="&#x44d;" horiz-adv-x="849" 
d="M293 1165q240 0 377 -161t137 -435t-137.5 -435t-378.5 -161q-155 0 -273 93l117 278q61 -51 139 -51q59 0 101 44t59 128h-254v215h252q-17 81 -58.5 123.5t-99.5 42.5q-72 0 -139 -51l-117 278q120 92 275 92z" />
    <glyph glyph-name="uni044E" unicode="&#x44e;" horiz-adv-x="1593" 
d="M1055 1165q223 0 358 -158t135 -434q0 -270 -133 -435t-362 -165q-190 0 -318.5 118t-161.5 331h-133v-422h-358v1139h358v-422h133q33 207 160 327.5t322 120.5zM1055 295q60 0 93.5 69.5t33.5 206.5q0 133 -33.5 203t-95.5 70q-60 0 -94.5 -69t-34.5 -202
q0 -135 34.5 -206.5t96.5 -71.5z" />
    <glyph glyph-name="uni044F" unicode="&#x44f;" horiz-adv-x="1009" 
d="M496 1139h430v-1139h-355v330h-53l-123 -330h-377l181 408q-154 104 -154 321q0 197 121.5 303.5t329.5 106.5zM504 588h67v256h-67q-52 0 -80.5 -32.5t-28.5 -90.5q0 -66 30 -99.5t79 -33.5z" />
    <glyph glyph-name="uni0450" unicode="&#x450;" horiz-adv-x="1015" 
d="M510 1565l133 -314l-231 -16l-213 278zM938 469h-537q13 -103 58 -151t123 -48q125 0 237 62l64 -273q-144 -84 -340 -84q-228 0 -363 159.5t-135 436.5q0 269 129.5 430.5t360.5 161.5q203 0 319.5 -136.5t116.5 -360.5q0 -92 -33 -197zM399 664h232q0 210 -111 210
q-109 0 -121 -210z" />
    <glyph glyph-name="uni0451" unicode="&#x451;" horiz-adv-x="1015" 
d="M231 1509h242v-274h-242v274zM563 1509h242v-274h-242v274zM938 469h-537q13 -103 58 -151t123 -48q125 0 237 62l64 -273q-144 -84 -340 -84q-228 0 -363 159.5t-135 436.5q0 269 129.5 430.5t360.5 161.5q203 0 319.5 -136.5t116.5 -360.5q0 -92 -33 -197zM399 664h232
q0 210 -111 210q-109 0 -121 -210z" />
    <glyph glyph-name="uni0452" unicode="&#x452;" horiz-adv-x="1187" 
d="M809 1165q146 0 223.5 -102t77.5 -303v-768q0 -166 -92.5 -265.5t-278.5 -99.5q-68 0 -153 29l26 299q28 -14 62 -14q76 0 76 92v665q0 138 -88 138q-43 0 -74 -39t-43 -113v-684h-359v1202h-123v184h123v125h359v-125h168v-184h-168v-196q43 75 110 117t154 42z" />
    <glyph glyph-name="uni0453" unicode="&#x453;" horiz-adv-x="737" 
d="M702 1513l-210 -278l-234 16l133 314zM82 -2v1141h645v-297h-287v-844h-358z" />
    <glyph glyph-name="uni0454" unicode="&#x454;" horiz-adv-x="835" 
d="M580 293q77 0 151 43l84 -295q-128 -68 -262 -68q-236 0 -372 159.5t-136 436.5q0 275 137.5 435.5t368.5 160.5q139 0 264 -67l-86 -299q-79 47 -149 47q-61 0 -103 -41.5t-59 -122.5h252v-213h-254q15 -86 58 -131t106 -45z" />
    <glyph glyph-name="uni0455" unicode="&#x455;" horiz-adv-x="825" 
d="M381 -25q-183 0 -348 60l45 299q126 -66 276 -66q84 0 84 68q0 33 -30.5 59.5t-104.5 63.5q-134 54 -199 134t-65 216q0 70 21 128.5t58.5 100t88 70.5t110 43t125.5 14q156 0 303 -57l-43 -297q-131 59 -235 59q-81 0 -84 -67q0 -35 31.5 -63t95.5 -56
q141 -63 212 -145.5t71 -212.5q-1 -163 -114.5 -257t-297.5 -94z" />
    <glyph glyph-name="uni0456" unicode="&#x456;" horiz-adv-x="524" 
d="M442 1235h-370v274h370v-274zM442 0h-360v1139h360v-1139z" />
    <glyph glyph-name="uni0457" unicode="&#x457;" horiz-adv-x="524" 
d="M217 1235h-242v274h242v-274zM549 1235h-242v274h242v-274zM442 0h-360v1139h360v-1139z" />
    <glyph glyph-name="uni0458" unicode="&#x458;" horiz-adv-x="532" 
d="M449 1235h-371v274h371v-274zM-47 -360l4 272h61q72 0 72 119v1108h361v-1100q0 -216 -96.5 -315t-280.5 -99q-55 0 -121 15z" />
    <glyph glyph-name="uni0459" unicode="&#x459;" horiz-adv-x="1533" 
d="M979 856h51q216 0 337.5 -113.5t121.5 -310.5q0 -204 -123 -318t-332 -114h-409v840h-140l-12 -371q-6 -273 -113 -385t-352 -86l2 281q60 -6 82 40.5t25 165.5l20 652h842v-281zM979 289h47q51 0 79 36.5t28 106.5q0 72 -28 110t-79 38h-47v-291z" />
    <glyph glyph-name="uni045A" unicode="&#x45a;" horiz-adv-x="1546" 
d="M993 803h47q212 0 336.5 -101.5t124.5 -285.5q0 -193 -118.5 -304.5t-335.5 -111.5h-412v514h-195v-514h-358v1139h358v-342h195v342h358v-336zM993 291h43q51 0 81 32t30 89q0 50 -29.5 79t-81.5 29h-43v-229z" />
    <glyph glyph-name="uni045B" unicode="&#x45b;" horiz-adv-x="1107" 
d="M733 1165q146 0 223.5 -102t77.5 -303v-760h-360v698q0 138 -88 138q-43 0 -74 -37.5t-43 -108.5v-690h-358v1202h-123v184h123v125h358v-125h168v-184h-168v-196q43 75 110 117t154 42z" />
    <glyph glyph-name="uni045C" unicode="&#x45c;" horiz-adv-x="1052" 
d="M524 1565l312 -52l-211 -278l-234 16zM1042 0h-393l-141 408h-68v-408h-358v1139h358v-416h68l119 416h391l-242 -533z" />
    <glyph glyph-name="uni045D" unicode="&#x45d;" horiz-adv-x="1087" 
d="M670 1251l-232 -16l-213 278l312 52zM1006 1139v-1139h-359v473l-252 -473h-313v1139h358v-453l242 453h324z" />
    <glyph glyph-name="uni045E" unicode="&#x45e;" horiz-adv-x="1054" 
d="M528 1223q-307 0 -307 295l242 6q0 -109 65 -109q68 0 68 109l240 -6q0 -295 -308 -295zM530 430l140 711h372l-307 -1125q-55 -218 -152.5 -305.5t-277.5 -87.5q-143 0 -244 43l52 266q74 -22 143 -22q95 0 121 100l6 23h-43l-326 1108h371l141 -711h4z" />
    <glyph glyph-name="uni045F" unicode="&#x45f;" horiz-adv-x="1073" 
d="M633 1139h358v-1139h-274v-250h-359v250h-276v1139h358v-844h193v844z" />
    <glyph glyph-name="uni0474" unicode="&#x474;" horiz-adv-x="1177" 
d="M799 0h-443l-348 1434h379l186 -967h13l98 571q40 208 161 320t312 112v-376q-57 -1 -93 -46.5t-52 -109.5z" />
    <glyph glyph-name="uni0474" unicode="&#x475;" horiz-adv-x="1177" 
d="M799 0h-443l-348 1434h379l186 -967h13l98 571q40 208 161 320t312 112v-376q-57 -1 -93 -46.5t-52 -109.5z" />
    <glyph glyph-name="uni0490" unicode="&#x490;" horiz-adv-x="905" 
d="M526 1434v227h355v-555h-404v-1106h-383v1434h432z" />
    <glyph glyph-name="uni0491" unicode="&#x491;" horiz-adv-x="737" 
d="M401 1139v207h326v-504h-287v-844h-358v1141h319z" />
    <glyph glyph-name="uni04D9" unicode="&#x4d9;" horiz-adv-x="1013" 
d="M467 1163q228 0 365 -161t137 -435q0 -268 -128.5 -430t-353.5 -162q-204 0 -323 146t-119 395q0 64 16 152h555q-24 204 -176 204q-119 0 -217 -73l-112 248q143 116 356 116zM496 262q105 0 120 211h-229q6 -211 109 -211z" />
    <glyph glyph-name="uni1E0C" unicode="&#x1e0c;" horiz-adv-x="1236" 
d="M578 0h-484v1434h484q282 0 440 -189t158 -524q0 -340 -157.5 -530.5t-440.5 -190.5zM469 1098v-762h90q229 0 229 383q0 379 -229 379h-90zM344 -360v274h350v-274h-350z" />
    <glyph glyph-name="uni1E0D" unicode="&#x1e0d;" horiz-adv-x="1114" 
d="M426 -25q-172 0 -274.5 158.5t-102.5 439.5q0 278 102.5 435t276.5 157q149 0 242 -123v469h360v-1511h-360v96q-94 -121 -244 -121zM539 291q63 0 97 76.5t34 195.5q0 134 -34 209.5t-97 75.5q-58 0 -91.5 -70t-33.5 -205q0 -282 125 -282zM399 -360v274h351v-274h-351z
" />
    <glyph glyph-name="uni1E0E" unicode="&#x1e0e;" horiz-adv-x="1236" 
d="M578 0h-484v1434h484q282 0 440 -189t158 -524q0 -340 -157.5 -530.5t-440.5 -190.5zM469 1098v-762h90q229 0 229 383q0 379 -229 379h-90zM827 -311h-616v205h616v-205z" />
    <glyph glyph-name="uni1E0F" unicode="&#x1e0f;" horiz-adv-x="1114" 
d="M426 -25q-172 0 -274.5 158.5t-102.5 439.5q0 278 102.5 435t276.5 157q149 0 242 -123v469h360v-1511h-360v96q-94 -121 -244 -121zM539 291q63 0 97 76.5t34 195.5q0 134 -34 209.5t-97 75.5q-58 0 -91.5 -70t-33.5 -205q0 -282 125 -282zM883 -311h-617v205h617v-205z
" />
    <glyph glyph-name="uni1E20" unicode="&#x1e20;" horiz-adv-x="1153" 
d="M354 1745h617v-207h-617v207zM672 518v281h418v-676q-210 -150 -453 -150q-271 0 -424.5 194.5t-153.5 547.5q0 356 166 550.5t441 194.5q175 0 348 -80l-88 -333q-122 69 -236 69q-124 0 -186 -98t-62 -305q0 -195 53 -301.5t152 -106.5q55 0 107 25v188h-82z" />
    <glyph glyph-name="uni1E21" unicode="&#x1e21;" horiz-adv-x="1011" 
d="M195 1481h616v-207h-616v207zM467 303h121q418 3 418 -309q0 -173 -136.5 -271t-390.5 -98q-420 0 -420 289q0 111 117 197q-106 50 -106 182q0 59 31.5 110.5t80.5 88.5q-114 102 -114 288q0 178 117.5 281.5t320.5 103.5q121 0 194 -37l228 82l65 -229l-108 -25
q61 -75 61 -176q0 -183 -113.5 -288t-324.5 -105q-52 0 -98 6q-19 -27 -19 -45q0 -45 76 -45zM506 913q-41 0 -62.5 -34.5t-21.5 -96.5q0 -143 84 -143q43 0 65.5 36.5t22.5 104.5q0 61 -23 97t-65 36zM508 -117q133 0 133 109q0 46 -30 67t-91 21h-88q-35 -47 -35 -96
q0 -101 111 -101z" />
    <glyph glyph-name="uni1E24" unicode="&#x1e24;" horiz-adv-x="1236" 
d="M762 879v555h379v-1434h-379v547h-287v-547h-381v1434h381v-555h287zM795 -360h-351v274h351v-274z" />
    <glyph glyph-name="uni1E25" unicode="&#x1e25;" horiz-adv-x="1083" 
d="M709 1165q146 0 223.5 -102t77.5 -303v-760h-361v698q0 138 -88 138q-43 0 -74 -37.5t-43 -108.5v-690h-358v1511h358v-505q43 74 110.5 116.5t154.5 42.5zM721 -360h-350v274h350v-274z" />
    <glyph glyph-name="uni1E2A" unicode="&#x1e2a;" horiz-adv-x="1236" 
d="M762 879v555h379v-1434h-379v547h-287v-547h-381v1434h381v-555h287zM616 -145q56 0 56 79l198 -2q0 -225 -254 -225q-249 0 -249 225l196 2q0 -79 53 -79z" />
    <glyph glyph-name="uni1E2B" unicode="&#x1e2b;" horiz-adv-x="1083" 
d="M709 1165q146 0 223.5 -102t77.5 -303v-760h-361v698q0 138 -88 138q-43 0 -74 -37.5t-43 -108.5v-690h-358v1511h358v-505q43 74 110.5 116.5t154.5 42.5zM545 -145q55 0 55 79l199 -2q0 -225 -254 -225q-250 0 -250 225l197 2q0 -79 53 -79z" />
    <glyph glyph-name="uni1E36" unicode="&#x1e36;" horiz-adv-x="907" 
d="M881 0h-787v1434h383v-1106h404v-328zM287 -360v274h350v-274h-350z" />
    <glyph glyph-name="uni1E37" unicode="&#x1e37;" horiz-adv-x="530" 
d="M444 0h-358v1511h358v-1511zM100 -360v274h351v-274h-351z" />
    <glyph glyph-name="uni1E38" unicode="&#x1e38;" horiz-adv-x="907" 
d="M614 1538h-616v207h616v-207zM881 0h-787v1434h383v-1106h404v-328zM287 -360v274h350v-274h-350z" />
    <glyph glyph-name="uni1E39" unicode="&#x1e39;" horiz-adv-x="530" 
d="M584 1616h-617v207h617v-207zM444 0h-358v1511h358v-1511zM100 -360v274h351v-274h-351z" />
    <glyph glyph-name="uni1E3A" unicode="&#x1e3a;" horiz-adv-x="907" 
d="M881 0h-787v1434h383v-1106h404v-328zM770 -311h-616v205h616v-205z" />
    <glyph glyph-name="uni1E3B" unicode="&#x1e3b;" horiz-adv-x="530" 
d="M444 0h-358v1511h358v-1511zM584 -311h-617v205h617v-205z" />
    <glyph glyph-name="uni1E42" unicode="&#x1e42;" horiz-adv-x="1415" 
d="M934 1434h360l60 -1434h-357l-30 678l-185 -678h-149l-184 678l-31 -678h-355l58 1434h356l230 -752zM885 -360h-350v274h350v-274z" />
    <glyph glyph-name="uni1E43" unicode="&#x1e43;" horiz-adv-x="1599" 
d="M1231 1165q293 0 293 -391v-774h-359v707q0 131 -75 131q-40 0 -68.5 -33.5t-38.5 -97.5v-707h-360v707q0 131 -74 131q-41 0 -70.5 -37t-38.5 -107v-694h-358v1139h358v-101q96 127 250 127q188 0 256 -164q49 76 123 120t162 44zM981 -360h-350v274h350v-274z" />
    <glyph glyph-name="uni1E44" unicode="&#x1e44;" horiz-adv-x="1232" 
d="M799 1518h-371v264h371v-264zM461 0h-367v1434h344l334 -689v689h367v-1434h-332l-346 711v-711z" />
    <glyph glyph-name="uni1E45" unicode="&#x1e45;" horiz-adv-x="1079" 
d="M354 1509h371v-274h-371v274zM705 1165q146 0 223.5 -102t77.5 -303v-760h-361v698q0 138 -88 138q-35 0 -66 -29.5t-51 -83.5v-723h-358v1139h358v-140q43 77 111 121.5t154 44.5z" />
    <glyph glyph-name="uni1E46" unicode="&#x1e46;" horiz-adv-x="1232" 
d="M461 0h-367v1434h344l334 -689v689h367v-1434h-332l-346 711v-711zM442 -360v274h351v-274h-351z" />
    <glyph glyph-name="uni1E47" unicode="&#x1e47;" horiz-adv-x="1079" 
d="M705 1165q146 0 223.5 -102t77.5 -303v-760h-361v698q0 138 -88 138q-35 0 -66 -29.5t-51 -83.5v-723h-358v1139h358v-140q43 77 111 121.5t154 44.5zM721 -360h-350v274h350v-274z" />
    <glyph glyph-name="uni1E48" unicode="&#x1e48;" horiz-adv-x="1232" 
d="M461 0h-367v1434h344l334 -689v689h367v-1434h-332l-346 711v-711zM926 -311h-617v205h617v-205z" />
    <glyph glyph-name="uni1E49" unicode="&#x1e49;" horiz-adv-x="1079" 
d="M705 1165q146 0 223.5 -102t77.5 -303v-760h-361v698q0 138 -88 138q-35 0 -66 -29.5t-51 -83.5v-723h-358v1139h358v-140q43 77 111 121.5t154 44.5zM854 -311h-616v205h616v-205z" />
    <glyph glyph-name="uni1E5A" unicode="&#x1e5a;" horiz-adv-x="1126" 
d="M532 424h-63v-424h-375v1434h471q241 0 380.5 -131.5t139.5 -372.5q0 -146 -53.5 -255.5t-154.5 -172.5l233 -502h-397zM555 1116h-86v-381h86q74 0 116 49t42 142q0 88 -41.5 139t-116.5 51zM752 -360h-351v274h351v-274z" />
    <glyph glyph-name="uni1E5B" unicode="&#x1e5b;" horiz-adv-x="727" 
d="M639 1159q45 0 80 -14l-27 -354q-52 10 -104 10q-69 0 -107.5 -74.5t-38.5 -214.5v-512h-360v1139h360v-117q68 137 197 137zM440 -360h-350v274h350v-274z" />
    <glyph glyph-name="uni1E5C" unicode="&#x1e5c;" horiz-adv-x="1126" 
d="M262 1745h617v-207h-617v207zM532 424h-63v-424h-375v1434h471q241 0 380.5 -131.5t139.5 -372.5q0 -146 -53.5 -255.5t-154.5 -172.5l233 -502h-397zM555 1116h-86v-381h86q74 0 116 49t42 142q0 88 -41.5 139t-116.5 51zM752 -360h-351v274h351v-274z" />
    <glyph glyph-name="uni1E5D" unicode="&#x1e5d;" horiz-adv-x="727" 
d="M45 1464h617v-207h-617v207zM639 1159q45 0 80 -14l-27 -354q-52 10 -104 10q-69 0 -107.5 -74.5t-38.5 -214.5v-512h-360v1139h360v-117q68 137 197 137zM440 -360h-350v274h350v-274z" />
    <glyph glyph-name="uni1E5E" unicode="&#x1e5e;" horiz-adv-x="1126" 
d="M532 424h-63v-424h-375v1434h471q241 0 380.5 -131.5t139.5 -372.5q0 -146 -53.5 -255.5t-154.5 -172.5l233 -502h-397zM555 1116h-86v-381h86q74 0 116 49t42 142q0 88 -41.5 139t-116.5 51zM885 -311h-617v205h617v-205z" />
    <glyph glyph-name="uni1E5F" unicode="&#x1e5f;" horiz-adv-x="727" 
d="M639 1159q45 0 80 -14l-27 -354q-52 10 -104 10q-69 0 -107.5 -74.5t-38.5 -214.5v-512h-360v1139h360v-117q68 137 197 137zM573 -311h-616v205h616v-205z" />
    <glyph glyph-name="uni1E60" unicode="&#x1e60;" horiz-adv-x="956" 
d="M692 1518h-370v264h370v-264zM440 -29q-217 0 -403 80l41 320q66 -32 152.5 -53t154.5 -21q145 0 145 111q0 47 -37.5 86.5t-119.5 93.5q-328 171 -328 438q0 202 130 318t343 116q197 0 359 -67l-41 -326q-144 66 -263 66q-131 0 -131 -107q0 -49 38.5 -91.5
t119.5 -92.5q100 -52 169 -110.5t114 -146t45 -192.5q0 -195 -134.5 -308.5t-353.5 -113.5z" />
    <glyph glyph-name="uni1E61" unicode="&#x1e61;" horiz-adv-x="825" 
d="M602 1235h-371v274h371v-274zM381 -25q-183 0 -348 60l45 299q126 -66 276 -66q84 0 84 68q0 33 -30.5 59.5t-104.5 63.5q-134 54 -199 134t-65 216q0 70 21 128.5t58.5 100t88 70.5t110 43t125.5 14q156 0 303 -57l-43 -297q-131 59 -235 59q-81 0 -84 -67
q0 -35 31.5 -63t95.5 -56q141 -63 212 -145.5t71 -212.5q-1 -163 -114.5 -257t-297.5 -94z" />
    <glyph glyph-name="uni1E62" unicode="&#x1e62;" horiz-adv-x="956" 
d="M440 -29q-217 0 -403 80l41 320q66 -32 152.5 -53t154.5 -21q145 0 145 111q0 47 -37.5 86.5t-119.5 93.5q-328 171 -328 438q0 202 130 318t343 116q197 0 359 -67l-41 -326q-144 66 -263 66q-131 0 -131 -107q0 -49 38.5 -91.5t119.5 -92.5q100 -52 169 -110.5
t114 -146t45 -192.5q0 -195 -134.5 -308.5t-353.5 -113.5zM301 -360v274h350v-274h-350z" />
    <glyph glyph-name="uni1E63" unicode="&#x1e63;" horiz-adv-x="825" 
d="M381 -25q-183 0 -348 60l45 299q126 -66 276 -66q84 0 84 68q0 33 -30.5 59.5t-104.5 63.5q-134 54 -199 134t-65 216q0 70 21 128.5t58.5 100t88 70.5t110 43t125.5 14q156 0 303 -57l-43 -297q-131 59 -235 59q-81 0 -84 -67q0 -35 31.5 -63t95.5 -56
q141 -63 212 -145.5t71 -212.5q-1 -163 -114.5 -257t-297.5 -94zM248 -360v274h350v-274h-350z" />
    <glyph glyph-name="uni1E6C" unicode="&#x1e6c;" horiz-adv-x="972" 
d="M25 1434h923v-336h-274v-1098h-377v1098h-272v336zM664 -360h-351v274h351v-274z" />
    <glyph glyph-name="uni1E6D" unicode="&#x1e6d;" horiz-adv-x="778" 
d="M481 -27q-173 0 -262.5 97.5t-89.5 289.5v482h-96v153l119 150l192 246h143v-252h240v-297h-240v-451q0 -98 80 -98q52 0 123 26l53 -292q-142 -54 -262 -54zM215 -362v274h350v-274h-350z" />
    <glyph glyph-name="uni1E6E" unicode="&#x1e6e;" horiz-adv-x="972" 
d="M25 1098v336h923v-336h-274v-1098h-377v1098h-272zM797 -311h-617v205h617v-205z" />
    <glyph glyph-name="uni1E6F" unicode="&#x1e6f;" horiz-adv-x="778" 
d="M481 -27q-173 0 -262.5 97.5t-89.5 289.5v482h-96v153l119 150l192 246h143v-252h240v-297h-240v-451q0 -98 80 -98q52 0 123 26l53 -292q-142 -54 -262 -54zM698 -313h-616v204h616v-204z" />
    <glyph glyph-name="Wgrave" unicode="&#x1e80;" horiz-adv-x="1677" 
d="M825 1800l156 -274l-270 -15l-211 224zM1130 479l156 955h383l-303 -1434h-395l-131 698l-135 -698h-394l-303 1434h385l156 -955l143 955h293z" />
    <glyph glyph-name="wgrave" unicode="&#x1e81;" horiz-adv-x="1488" 
d="M741 1565l133 -314l-231 -16l-213 278zM987 426l113 713h370l-266 -1139h-352l-107 596l-108 -596h-352l-267 1139h371l113 -713l116 713h252z" />
    <glyph glyph-name="Wacute" unicode="&#x1e82;" horiz-adv-x="1677" 
d="M856 1802l324 -67l-211 -222l-271 15zM1130 479l156 955h383l-303 -1434h-395l-131 698l-135 -698h-394l-303 1434h385l156 -955l143 955h293z" />
    <glyph glyph-name="wacute" unicode="&#x1e83;" horiz-adv-x="1488" 
d="M743 1565l312 -52l-211 -278l-234 16zM987 426l113 713h370l-266 -1139h-352l-107 596l-108 -596h-352l-267 1139h371l113 -713l116 713h252z" />
    <glyph glyph-name="Wdieresis" unicode="&#x1e84;" horiz-adv-x="1677" 
d="M543 1780h264v-264h-264v264zM872 1780h265v-264h-265v264zM1130 479l156 955h383l-303 -1434h-395l-131 698l-135 -698h-394l-303 1434h385l156 -955l143 955h293z" />
    <glyph glyph-name="wdieresis" unicode="&#x1e85;" horiz-adv-x="1488" 
d="M461 1509h241v-274h-241v274zM793 1509h241v-274h-241v274zM987 426l113 713h370l-266 -1139h-352l-107 596l-108 -596h-352l-267 1139h371l113 -713l116 713h252z" />
    <glyph glyph-name="uni1E8E" unicode="&#x1e8e;" horiz-adv-x="1093" 
d="M356 1782h371v-264h-371v264zM700 1434h396l-361 -988v-446h-377v446l-360 988h395l156 -607z" />
    <glyph glyph-name="uni1E8F" unicode="&#x1e8f;" horiz-adv-x="1054" 
d="M338 1505h371v-274h-371v274zM530 395l140 744h372l-315 -1139l-96 -350h-363l90 332l-22 -2l-322 1159h371l141 -744h4z" />
    <glyph glyph-name="uni1E92" unicode="&#x1e92;" horiz-adv-x="976" 
d="M936 0h-895v246l426 852h-412v336h871v-246l-424 -852h434v-336zM315 -360v274h351v-274h-351z" />
    <glyph glyph-name="uni1E93" unicode="&#x1e93;" horiz-adv-x="894" 
d="M854 0h-809v225l352 606h-340v308h789v-226l-352 -606h360v-307zM279 -360v274h350v-274h-350z" />
    <glyph glyph-name="uni1E97" unicode="&#x1e97;" horiz-adv-x="778" 
d="M332 1456h-242v275h242v-275zM664 1456h-242v275h242v-275zM481 -27q-173 0 -262.5 97.5t-89.5 289.5v482h-96v153l119 150l192 246h143v-252h240v-297h-240v-451q0 -98 80 -98q52 0 123 26l53 -292q-142 -54 -262 -54z" />
    <glyph glyph-name="uni1E9E" unicode="&#x1e9e;" horiz-adv-x="1271" 
d="M1118 1311l-90 -492q105 -57 161 -157t56 -230q0 -217 -117.5 -338t-330.5 -121q-146 0 -271 56l58 309q88 -45 172 -45q53 0 81.5 34.5t28.5 100.5q0 82 -57 123.5t-164 62.5l74 504q-86 25 -141 25q-59 0 -92 -46t-33 -130v-967h-375l2 985q0 225 129.5 349t370.5 124
q251 0 538 -147z" />
    <glyph glyph-name="uni1EA0" unicode="&#x1ea0;" horiz-adv-x="1200" 
d="M362 1434h476l356 -1434h-385l-45 223h-332l-47 -223h-381zM596 1010l-109 -523h222l-107 523h-6zM774 -360h-350v274h350v-274z" />
    <glyph glyph-name="uni1EA1" unicode="&#x1ea1;" horiz-adv-x="1011" 
d="M467 1165q241 0 355 -124.5t114 -346.5v-694h-358v135q-39 -80 -103.5 -120t-144.5 -40q-138 0 -218.5 92t-80.5 271q0 165 90.5 255.5t271.5 90.5q75 0 185 -8v31q0 82 -39 120.5t-123 38.5q-128 0 -250 -51l-33 293q162 57 334 57zM463 256q54 0 84.5 57t30.5 174v11
q-41 6 -91 6q-110 0 -110 -127q0 -57 23.5 -89t62.5 -32zM641 -360h-350v274h350v-274z" />
    <glyph glyph-name="uni1EA2" unicode="&#x1ea2;" horiz-adv-x="1200" 
d="M547 1667q0 35 -29 46t-69 -11l-29 158q92 51 176 51t134 -45.5t50 -122.5q0 -69 -39 -132t-102 -110l-150 74q58 43 58 92zM1194 0h-385l-45 223h-332l-47 -223h-381l358 1434h476zM596 1010l-109 -523h222l-107 523h-6z" />
    <glyph glyph-name="uni1EA3" unicode="&#x1ea3;" horiz-adv-x="1011" 
d="M436 1374q0 35 -29 46t-69 -11l-29 158q92 51 176.5 51t134.5 -45.5t50 -122.5q0 -69 -39 -132t-103 -110l-149 74q57 42 57 92zM467 1165q241 0 355 -124.5t114 -346.5v-694h-358v135q-39 -80 -103.5 -120t-144.5 -40q-138 0 -218.5 92t-80.5 271q0 165 90.5 255.5
t271.5 90.5q75 0 185 -8v31q0 82 -39 120.5t-123 38.5q-128 0 -250 -51l-33 293q162 57 334 57zM463 256q54 0 84.5 57t30.5 174v11q-41 6 -91 6q-110 0 -110 -127q0 -57 23.5 -89t62.5 -32z" />
    <glyph glyph-name="uni1EA4" unicode="&#x1ea4;" horiz-adv-x="1200" 
d="M989 1915l205 -74l-176 -164l-156 41zM649 1524l-49 141l-51 -141l-260 16l135 293h350l135 -293zM4 0l358 1434h476l356 -1434h-385l-45 223h-332l-47 -223h-381zM596 1010l-109 -523h222l-107 523h-6z" />
    <glyph glyph-name="uni1EA5" unicode="&#x1ea5;" horiz-adv-x="1011" 
d="M877 1622l206 -74l-178 -164l-155 41zM539 1231l-52 137l-49 -137l-262 16l135 291h351l137 -291zM467 1165q241 0 355 -124.5t114 -346.5v-694h-358v135q-39 -80 -103.5 -120t-144.5 -40q-138 0 -218.5 92t-80.5 271q0 165 90.5 255.5t271.5 90.5q75 0 185 -8v31
q0 82 -39 120.5t-123 38.5q-128 0 -250 -51l-33 293q162 57 334 57zM463 256q54 0 84.5 57t30.5 174v11q-41 6 -91 6q-110 0 -110 -127q0 -57 23.5 -89t62.5 -32z" />
    <glyph glyph-name="uni1EA6" unicode="&#x1ea6;" horiz-adv-x="1200" 
d="M258 1942l123 -201l-158 -35l-172 170zM594 1653l-49 -137l-262 16l137 291h350l135 -291l-260 -16zM1194 0h-385l-45 223h-332l-47 -223h-381l358 1434h476zM596 1010l-109 -523h222l-107 523h-6z" />
    <glyph glyph-name="uni1EA7" unicode="&#x1ea7;" horiz-adv-x="1011" 
d="M154 1657l120 -201l-157 -35l-172 170zM487 1368l-49 -137l-260 16l135 291h351l135 -291l-260 -16zM467 1165q241 0 355 -124.5t114 -346.5v-694h-358v135q-39 -80 -103.5 -120t-144.5 -40q-138 0 -218.5 92t-80.5 271q0 165 90.5 255.5t271.5 90.5q75 0 185 -8v31
q0 82 -39 120.5t-123 38.5q-128 0 -250 -51l-33 293q162 57 334 57zM463 256q54 0 84.5 57t30.5 174v11q-41 6 -91 6q-110 0 -110 -127q0 -57 23.5 -89t62.5 -32z" />
    <glyph glyph-name="uni1EA8" unicode="&#x1ea8;" horiz-adv-x="1200" 
d="M913 1776q0 25 -22 34t-51 -8l-21 117q106 56 186 28.5t80 -114.5q0 -101 -104 -180l-111 55q43 30 43 68zM649 1524l-51 137l-49 -137l-262 16l135 291h350l137 -291zM1194 0h-385l-45 223h-332l-47 -223h-381l358 1434h476zM596 1010l-109 -523h222l-107 523h-6z" />
    <glyph glyph-name="uni1EA9" unicode="&#x1ea9;" horiz-adv-x="1011" 
d="M803 1483q0 25 -22.5 34t-51.5 -8l-20 117q73 36 132 36.5t96.5 -33t37.5 -89.5q0 -100 -105 -180l-110 53q43 34 43 70zM539 1231l-52 137l-49 -137l-262 16l135 291h351l137 -291zM467 1165q241 0 355 -124.5t114 -346.5v-694h-358v135q-39 -80 -103.5 -120t-144.5 -40
q-138 0 -218.5 92t-80.5 271q0 165 90.5 255.5t271.5 90.5q75 0 185 -8v31q0 82 -39 120.5t-123 38.5q-128 0 -250 -51l-33 293q162 57 334 57zM463 256q54 0 84.5 57t30.5 174v11q-41 6 -91 6q-110 0 -110 -127q0 -57 23.5 -89t62.5 -32z" />
    <glyph glyph-name="uni1EAA" unicode="&#x1eaa;" horiz-adv-x="1200" 
d="M498 1858l-158 30q-3 106 36.5 166t112.5 60q47 0 107 -24t76 -24q45 0 45 58l155 -29q3 -107 -36 -166t-113 -59q-47 0 -107.5 23.5t-76.5 23.5q-44 0 -41 -59zM649 1520l-51 139l-49 -139l-262 18l137 291h350l135 -291zM1194 0h-385l-45 223h-332l-47 -223h-381
l358 1434h476zM596 1010l-109 -523h222l-107 523h-6z" />
    <glyph glyph-name="uni1EAB" unicode="&#x1eab;" horiz-adv-x="1011" 
d="M387 1565l-158 30q-3 106 37 166t113 60q47 0 106.5 -23.5t75.5 -23.5q45 0 45 57l156 -29q3 -107 -36.5 -166t-113.5 -59q-47 0 -107.5 23.5t-76.5 23.5q-44 0 -41 -59zM539 1227l-52 139l-49 -139l-262 18l137 291h351l135 -291zM467 1165q241 0 355 -124.5t114 -346.5
v-694h-358v135q-39 -80 -103.5 -120t-144.5 -40q-138 0 -218.5 92t-80.5 271q0 165 90.5 255.5t271.5 90.5q75 0 185 -8v31q0 82 -39 120.5t-123 38.5q-128 0 -250 -51l-33 293q162 57 334 57zM463 256q54 0 84.5 57t30.5 174v11q-41 6 -91 6q-110 0 -110 -127
q0 -57 23.5 -89t62.5 -32z" />
    <glyph glyph-name="uni1EAC" unicode="&#x1eac;" horiz-adv-x="1200" 
d="M653 1516l-53 124l-51 -124l-270 14l139 262h362l142 -262zM362 1434h476l356 -1434h-385l-45 223h-332l-47 -223h-381zM596 1010l-109 -523h222l-107 523h-6zM774 -360h-350v274h350v-274z" />
    <glyph glyph-name="uni1EAD" unicode="&#x1ead;" horiz-adv-x="1011" 
d="M539 1231l-52 137l-49 -137l-262 16l135 291h351l137 -291zM467 1165q241 0 355 -124.5t114 -346.5v-694h-358v135q-39 -80 -103.5 -120t-144.5 -40q-138 0 -218.5 92t-80.5 271q0 165 90.5 255.5t271.5 90.5q75 0 185 -8v31q0 82 -39 120.5t-123 38.5q-128 0 -250 -51
l-33 293q162 57 334 57zM463 256q54 0 84.5 57t30.5 174v11q-41 6 -91 6q-110 0 -110 -127q0 -57 23.5 -89t62.5 -32zM641 -360h-350v274h350v-274z" />
    <glyph glyph-name="uni1EAE" unicode="&#x1eae;" horiz-adv-x="1200" 
d="M600 2093l248 -41l-170 -221l-184 14zM598 1501q-307 0 -307 295l241 4q0 -106 66 -106q68 0 68 106l239 -4q0 -295 -307 -295zM1194 0h-385l-45 223h-332l-47 -223h-381l358 1434h476zM596 1010l-109 -523h222l-107 523h-6z" />
    <glyph glyph-name="uni1EAF" unicode="&#x1eaf;" horiz-adv-x="1011" 
d="M489 1819l248 -41l-170 -224l-184 15zM487 1225q-307 0 -307 295l242 6q0 -109 65 -109q68 0 68 109l240 -6q0 -295 -308 -295zM467 1165q241 0 355 -124.5t114 -346.5v-694h-358v135q-39 -80 -103.5 -120t-144.5 -40q-138 0 -218.5 92t-80.5 271q0 165 90.5 255.5
t271.5 90.5q75 0 185 -8v31q0 82 -39 120.5t-123 38.5q-128 0 -250 -51l-33 293q162 57 334 57zM463 256q54 0 84.5 57t30.5 174v11q-41 6 -91 6q-110 0 -110 -127q0 -57 23.5 -89t62.5 -32z" />
    <glyph glyph-name="uni1EB0" unicode="&#x1eb0;" horiz-adv-x="1200" 
d="M596 2093l106 -248l-186 -14l-168 223zM598 1505q-152 0 -229.5 75t-77.5 216l241 4q0 -102 66 -102t66 102l241 -4q0 -291 -307 -291zM1194 0h-385l-45 223h-332l-47 -223h-381l358 1434h476zM596 1010l-109 -523h222l-107 523h-6z" />
    <glyph glyph-name="uni1EB1" unicode="&#x1eb1;" horiz-adv-x="1011" 
d="M485 1819l107 -250l-186 -13l-168 224zM487 1229q-152 0 -229.5 75t-77.5 216l242 4q0 -103 65 -103q66 0 66 103l242 -4q0 -143 -78 -217t-230 -74zM467 1165q241 0 355 -124.5t114 -346.5v-694h-358v135q-39 -80 -103.5 -120t-144.5 -40q-138 0 -218.5 92t-80.5 271
q0 165 90.5 255.5t271.5 90.5q75 0 185 -8v31q0 82 -39 120.5t-123 38.5q-128 0 -250 -51l-33 293q162 57 334 57zM463 256q54 0 84.5 57t30.5 174v11q-41 6 -91 6q-110 0 -110 -127q0 -57 23.5 -89t62.5 -32z" />
    <glyph glyph-name="uni1EB2" unicode="&#x1eb2;" horiz-adv-x="1200" 
d="M551 1935q0 29 -24 39t-58 -8l-23 131q81 41 147 41.5t108 -37.5t42 -102q0 -111 -116 -201l-123 62q47 38 47 75zM598 1520q-307 0 -307 295l241 4q0 -107 66 -107q68 0 68 107l239 -4q0 -295 -307 -295zM1194 0h-385l-45 223h-332l-47 -223h-381l358 1434h476z
M596 1010l-109 -523h222l-107 523h-6z" />
    <glyph glyph-name="uni1EB3" unicode="&#x1eb3;" horiz-adv-x="1011" 
d="M440 1642q0 29 -24 38.5t-58 -9.5l-22 131q81 41 147 41.5t108 -37t42 -100.5q0 -57 -32 -109.5t-85 -91.5l-123 60q47 38 47 77zM487 1225q-307 0 -307 295l242 6q0 -109 65 -109q68 0 68 109l240 -6q0 -295 -308 -295zM467 1165q241 0 355 -124.5t114 -346.5v-694h-358
v135q-39 -80 -103.5 -120t-144.5 -40q-138 0 -218.5 92t-80.5 271q0 165 90.5 255.5t271.5 90.5q75 0 185 -8v31q0 82 -39 120.5t-123 38.5q-128 0 -250 -51l-33 293q162 57 334 57zM463 256q54 0 84.5 57t30.5 174v11q-41 6 -91 6q-110 0 -110 -127q0 -57 23.5 -89
t62.5 -32z" />
    <glyph glyph-name="uni1EB4" unicode="&#x1eb4;" horiz-adv-x="1200" 
d="M494 1849l-152 27q-3 97 35 152t110 55q46 0 104 -21.5t75 -21.5q43 0 43 51l151 -25q3 -98 -35 -152t-110 -54q-46 0 -104.5 21.5t-75.5 21.5q-19 0 -30.5 -14.5t-10.5 -39.5zM598 1520q-307 0 -307 295l241 4q0 -107 66 -107q68 0 68 107l239 -4q0 -295 -307 -295z
M1194 0h-385l-45 223h-332l-47 -223h-381l358 1434h476zM596 1010l-109 -523h222l-107 523h-6z" />
    <glyph glyph-name="uni1EB5" unicode="&#x1eb5;" horiz-adv-x="1011" 
d="M383 1554l-152 27q-3 98 35.5 152.5t110.5 54.5q46 0 103.5 -21.5t74.5 -21.5q43 0 43 53l152 -26q3 -98 -35.5 -152.5t-110.5 -54.5q-46 0 -104.5 21.5t-75.5 21.5q-19 0 -30.5 -14.5t-10.5 -39.5zM487 1225q-307 0 -307 295l242 6q0 -109 65 -109q68 0 68 109l240 -6
q0 -295 -308 -295zM467 1165q241 0 355 -124.5t114 -346.5v-694h-358v135q-39 -80 -103.5 -120t-144.5 -40q-138 0 -218.5 92t-80.5 271q0 165 90.5 255.5t271.5 90.5q75 0 185 -8v31q0 82 -39 120.5t-123 38.5q-128 0 -250 -51l-33 293q162 57 334 57zM463 256
q54 0 84.5 57t30.5 174v11q-41 6 -91 6q-110 0 -110 -127q0 -57 23.5 -89t62.5 -32z" />
    <glyph glyph-name="uni1EB6" unicode="&#x1eb6;" horiz-adv-x="1200" 
d="M598 1501q-307 0 -307 295l241 6q0 -108 66 -108q68 0 68 108l239 -6q0 -295 -307 -295zM362 1434h476l356 -1434h-385l-45 223h-332l-47 -223h-381zM596 1010l-109 -523h222l-107 523h-6zM774 -360h-350v274h350v-274z" />
    <glyph glyph-name="uni1EB7" unicode="&#x1eb7;" horiz-adv-x="1011" 
d="M487 1225q-307 0 -307 295l242 6q0 -109 65 -109q68 0 68 109l240 -6q0 -295 -308 -295zM467 1165q241 0 355 -124.5t114 -346.5v-694h-358v135q-39 -80 -103.5 -120t-144.5 -40q-138 0 -218.5 92t-80.5 271q0 165 90.5 255.5t271.5 90.5q75 0 185 -8v31q0 82 -39 120.5
t-123 38.5q-128 0 -250 -51l-33 293q162 57 334 57zM463 256q54 0 84.5 57t30.5 174v11q-41 6 -91 6q-110 0 -110 -127q0 -57 23.5 -89t62.5 -32zM641 -360h-350v274h350v-274z" />
    <glyph glyph-name="uni1EB8" unicode="&#x1eb8;" horiz-adv-x="995" 
d="M467 573v-249h481v-324h-854v1434h842v-324h-469v-233h399v-304h-399zM690 -360h-350v274h350v-274z" />
    <glyph glyph-name="uni1EB9" unicode="&#x1eb9;" horiz-adv-x="1015" 
d="M938 469h-537q13 -103 58 -151t123 -48q125 0 237 62l64 -273q-144 -84 -340 -84q-228 0 -363 159.5t-135 436.5q0 269 129.5 430.5t360.5 161.5q203 0 319.5 -136.5t116.5 -360.5q0 -92 -33 -197zM399 664h232q0 210 -111 210q-109 0 -121 -210zM700 -365h-350v275h350
v-275z" />
    <glyph glyph-name="uni1EBA" unicode="&#x1eba;" horiz-adv-x="995" 
d="M463 1667q0 35 -29 46t-69 -11l-29 158q92 51 176 51t134 -45.5t50 -122.5q0 -69 -39 -132t-102 -110l-149 74q57 42 57 92zM467 573v-249h481v-324h-854v1434h842v-324h-469v-233h399v-304h-399z" />
    <glyph glyph-name="uni1EBB" unicode="&#x1ebb;" horiz-adv-x="1015" 
d="M467 1372q0 35 -29 46t-69 -11l-29 158q92 51 176 51t134 -45.5t50 -122.5q0 -69 -39 -132t-102 -110l-149 74q57 42 57 92zM938 469h-537q13 -103 58 -151t123 -48q125 0 237 62l64 -273q-144 -84 -340 -84q-228 0 -363 159.5t-135 436.5q0 269 129.5 430.5t360.5 161.5
q203 0 319.5 -136.5t116.5 -360.5q0 -92 -33 -197zM399 664h232q0 210 -111 210q-109 0 -121 -210z" />
    <glyph glyph-name="uni1EBC" unicode="&#x1ebc;" horiz-adv-x="995" 
d="M399 1511l-166 33q-3 117 38.5 182.5t119.5 65.5q50 0 112.5 -25.5t78.5 -25.5q50 0 47 61l164 -30q3 -118 -38 -183t-118 -65q-50 0 -113.5 25.5t-81.5 25.5q-21 0 -32.5 -16.5t-10.5 -47.5zM467 573v-249h481v-324h-854v1434h842v-324h-469v-233h399v-304h-399z" />
    <glyph glyph-name="uni1EBD" unicode="&#x1ebd;" horiz-adv-x="1015" 
d="M403 1231l-165 33q-3 117 38 182t119 65q50 0 112.5 -25.5t78.5 -25.5q50 0 47 62l164 -31q3 -118 -38 -183t-118 -65q-50 0 -113.5 25.5t-81.5 25.5q-21 0 -32.5 -16.5t-10.5 -46.5zM938 469h-537q13 -103 58 -151t123 -48q125 0 237 62l64 -273q-144 -84 -340 -84
q-228 0 -363 159.5t-135 436.5q0 269 129.5 430.5t360.5 161.5q203 0 319.5 -136.5t116.5 -360.5q0 -92 -33 -197zM399 664h232q0 210 -111 210q-109 0 -121 -210z" />
    <glyph glyph-name="uni1EBE" unicode="&#x1ebe;" horiz-adv-x="995" 
d="M905 1915l205 -74l-176 -164l-156 41zM565 1524l-49 141l-51 -141l-260 16l135 293h350l135 -293zM866 573h-399v-249h481v-324h-854v1434h842v-324h-469v-233h399v-304z" />
    <glyph glyph-name="uni1EBF" unicode="&#x1ebf;" horiz-adv-x="1015" 
d="M907 1620l207 -74l-178 -164l-156 41zM569 1229l-51 137l-49 -137l-262 16l135 291h350l137 -291zM535 1163q203 0 319.5 -136.5t116.5 -360.5q0 -92 -33 -197h-537q13 -103 58 -151t123 -48q125 0 237 62l64 -273q-144 -84 -340 -84q-228 0 -363 159.5t-135 436.5
q0 269 129.5 430.5t360.5 161.5zM399 664h232q0 210 -111 210q-109 0 -121 -210z" />
    <glyph glyph-name="uni1EC0" unicode="&#x1ec0;" horiz-adv-x="995" 
d="M174 1942l123 -201l-158 -35l-172 170zM510 1653l-49 -137l-262 16l137 291h350l135 -291l-260 -16zM467 573v-249h481v-324h-854v1434h842v-324h-469v-233h399v-304h-399z" />
    <glyph glyph-name="uni1EC1" unicode="&#x1ec1;" horiz-adv-x="1015" 
d="M184 1655l121 -201l-158 -35l-172 170zM518 1366l-49 -137l-260 16l135 291h350l135 -291l-260 -16zM938 469h-537q13 -103 58 -151t123 -48q125 0 237 62l64 -273q-144 -84 -340 -84q-228 0 -363 159.5t-135 436.5q0 269 129.5 430.5t360.5 161.5q203 0 319.5 -136.5
t116.5 -360.5q0 -92 -33 -197zM399 664h232q0 210 -111 210q-109 0 -121 -210z" />
    <glyph glyph-name="uni1EC2" unicode="&#x1ec2;" horiz-adv-x="995" 
d="M829 1776q0 25 -22 34t-51 -8l-21 117q106 56 186 28.5t80 -114.5q0 -101 -104 -180l-111 55q43 30 43 68zM565 1524l-51 137l-49 -137l-262 16l135 291h350l137 -291zM866 573h-399v-249h481v-324h-854v1434h842v-324h-469v-233h399v-304z" />
    </font>
</defs>
</svg>
