<?xml version="1.0" standalone="no"?>
<!DOCTYPE svg PUBLIC "-//W3C//DTD SVG 1.1//EN" "http://www.w3.org/Graphics/SVG/1.1/DTD/svg11.dtd" >
<svg xmlns="http://www.w3.org/2000/svg" xmlns:xlink="http://www.w3.org/1999/xlink" version="1.1">
<metadata>
Created by FontForge 20170731 at Mon Aug 16 22:14:49 2021
 By Aleksey,,,
Copyright (c) 2020 by Ligature srl. All rights reserved.
</metadata>
<defs>
<font id="EastmanCondensedTrial-BoldItalic" horiz-adv-x="0" >
  <font-face 
    font-family="Eastman Condensed Trial"
    font-weight="700"
    font-style="italic"
    font-stretch="condensed"
    units-per-em="2048"
    panose-1="0 0 8 6 0 0 0 0 0 0"
    ascent="1638"
    descent="-410"
    x-height="1128"
    cap-height="1434"
    bbox="-1421 -492 2779 2253"
    underline-thickness="202"
    underline-position="-611"
    slope="-12"
    unicode-range="U+0020-F8FF"
  />
<missing-glyph horiz-adv-x="1275" 
 />
    <glyph glyph-name=".notdef" horiz-adv-x="1275" 
 />
    <glyph glyph-name=".null" 
 />
    <glyph glyph-name="nonmarkingreturn" horiz-adv-x="682" 
 />
    <glyph glyph-name="space" unicode=" " horiz-adv-x="528" 
 />
    <glyph glyph-name="exclam" unicode="!" horiz-adv-x="565" 
d="M211 883l117 553h297l-117 -549l-141 -441h-201zM0 0l61 291h324l-61 -291h-324z" />
    <glyph glyph-name="quotedbl" unicode="&#x22;" horiz-adv-x="698" 
d="M526 1511l-149 -403h-195l94 403h250zM836 1511l-152 -403h-195l97 403h250z" />
    <glyph glyph-name="numbersign" unicode="#" horiz-adv-x="1476" 
d="M1513 1044l-47 -227h-252l-135 -272h234l-49 -228h-295l-138 -280h-270l137 280h-239l-137 -280h-273l137 280h-174l49 228h238l133 272h-217l49 227h281l143 293h270l-143 -293h240l143 293h270l-143 -293h188zM569 545h240l135 272h-239z" />
    <glyph glyph-name="dollar" unicode="$" horiz-adv-x="937" 
d="M674 1182q-89 0 -141 -42.5t-52 -113.5q0 -56 34.5 -100.5t107.5 -96.5q243 -145 243 -372q0 -184 -113.5 -312t-299.5 -159l-29 -133h-203l27 127q-177 12 -307 77l94 269q63 -34 145 -55t150 -21q96 0 152.5 44t56.5 116q0 59 -34 103t-108 101q-76 47 -126.5 93.5
t-85.5 118t-35 157.5q0 179 112.5 307t298.5 160l29 137h203l-29 -135q142 -15 256 -74l-98 -268q-135 72 -248 72z" />
    <glyph glyph-name="percent" unicode="%" horiz-adv-x="1544" 
d="M369 754q-138 0 -192.5 94.5t-16.5 271.5q37 173 131.5 269t232.5 96t193 -95t18 -270q-37 -174 -132 -270t-234 -96zM459 0h-226l918 1434h225zM408 936q76 0 116 184q39 183 -39 183q-75 0 -116 -183q-38 -184 39 -184zM1094 -14q-138 0 -192.5 94.5t-16.5 271.5
q37 173 131.5 269t232.5 96t193 -95t18 -270q-37 -174 -132 -270t-234 -96zM1133 168q76 0 116 184q39 183 -39 183q-75 0 -116 -183q-38 -184 39 -184z" />
    <glyph glyph-name="ampersand" unicode="&#x26;" horiz-adv-x="1243" 
d="M1298 907l-43 -211h-139q-54 -260 -207 -446q71 -41 154 -35l-49 -217q-160 -14 -301 80q-157 -96 -342 -96q-208 0 -292 122.5t-40 333.5q33 156 131.5 277.5t224.5 195.5q5 47 19 103q47 206 169.5 324t301.5 118q151 0 220.5 -83t39.5 -222q-21 -104 -125 -244h278z
M770 389q90 117 133 307h-166l43 211q90 81 113 189q11 47 -8.5 73.5t-67.5 26.5q-60 0 -95.5 -47t-55.5 -137q-33 -155 -4 -327.5t108 -295.5zM283 453q-22 -108 16.5 -172t132.5 -64q63 0 125 19q-133 188 -160 432q-90 -93 -114 -215z" />
    <glyph glyph-name="quotesingle" unicode="'" horiz-adv-x="391" 
d="M526 1511l-149 -403h-195l94 403h250z" />
    <glyph glyph-name="parenleft" unicode="(" horiz-adv-x="753" 
d="M559 -221l-237 -156q-184 178 -249.5 420t-4.5 530q61 287 229.5 530.5t427.5 422.5l170 -158q-211 -163 -342.5 -365t-179.5 -430q-102 -467 186 -794z" />
    <glyph glyph-name="parenright" unicode=")" horiz-adv-x="751" 
d="M199 1368l237 158q184 -180 249.5 -422.5t2.5 -530.5q-61 -288 -229 -530.5t-428 -421.5l-170 158q420 323 524 794q97 468 -186 795z" />
    <glyph glyph-name="asterisk" unicode="*" horiz-adv-x="907" 
d="M764 1055l-96 -11l55 -63l96 -156l-188 -118l-72 170l-20 84l-58 -84l-145 -170l-139 118l163 156l82 63l-90 11l-184 51l102 192l172 -75l70 -45l2 92l33 200h201l-54 -200l-39 -92l90 45l205 75l21 -192z" />
    <glyph glyph-name="plus" unicode="+" horiz-adv-x="735" 
d="M528 766h222l-50 -229h-221l-45 -215h-237l45 215h-219l49 229h219l45 211h237z" />
    <glyph glyph-name="comma" unicode="," horiz-adv-x="563" 
d="M4 -297l-47 115q73 43 111 82.5t51 99.5h-119l61 291h310q-2 -111 -21.5 -198.5t-50 -147.5t-79 -107.5t-98.5 -77t-118 -57.5z" />
    <glyph glyph-name="hyphen" unicode="-" horiz-adv-x="643" 
d="M623 586l-52 -238h-589l51 238h590z" />
    <glyph glyph-name="period" unicode="." horiz-adv-x="563" 
d="M0 0l61 291h324l-61 -291h-324z" />
    <glyph glyph-name="slash" unicode="/" horiz-adv-x="1030" 
d="M119 -203h-283l1098 1657h283z" />
    <glyph glyph-name="zero" unicode="0" horiz-adv-x="2742" 
d="M1706 946h995v-395h-2568v395h995q8 114 91 192.5t198 78.5t198 -78.5t91 -192.5zM1243 1120h348q-78 68 -174 68q-99 0 -174 -68zM1272 760h346q59 72 59 166q0 99 -65 174zM1565 1092h-351q-59 -72 -59 -166q0 -99 68 -174zM1862 621q57 0 96 37t39 94q0 55 -39 92
t-96 37t-95 -37t-38 -92q0 -57 38 -94t95 -37zM319 803h58v71h-197v-71h60v-176h79v176zM487 698l31 -71h84l-43 94q29 25 29 65q0 38 -27.5 63t-66.5 25h-103v-247h80v71h16zM614 627h78v247h-78v-247zM870 666l11 -39h86l-84 247h-92l-84 -247h84l10 39h69zM981 627h168
v67h-88v180h-80v-247zM2169 627h82v247h-80v-131l-76 131h-82v-247h80l-2 121zM2275 627h168v67h-88v180h-80v-247zM2568 627v98l84 149h-92l-33 -73l-30 73h-95l86 -149v-98h80zM1862 809q25 0 40 -16t15 -41q0 -26 -15 -43t-40 -17q-24 0 -40 17t-16 43q0 24 16 40.5
t40 16.5zM471 807h21q6 0 11 -6.5t5 -14.5q0 -9 -5 -15.5t-11 -6.5h-21v43zM817 731l17 60h2l16 -60h-35zM1591 731h-348q75 -65 174 -65t174 65zM1122 387v-27q24 -14 54 -14q23 0 38 12.5t15 34.5q0 28 -47 45q-12 4 -17.5 6.5t-10.5 7.5t-5 13q0 22 29 22q24 0 41 -14v27
q-20 10 -41 10q-24 0 -39 -12t-15 -33q0 -14 7 -23.5t14.5 -13.5t23.5 -10q35 -9 35 -25q0 -24 -28 -24q-29 0 -54 18zM1305 428q0 -35 23 -58.5t58 -23.5q34 0 58 23.5t24 58.5q0 34 -24 58t-58 24q-35 0 -58 -24t-23 -58zM1630 344v162h-24v-111l-101 113h-12v-160h25v107
l100 -111h12zM233 506h-102v-158h25v60h67v22h-67v53h77v23zM254 506v-96q0 -28 17.5 -46t45.5 -18q29 0 47.5 18t18.5 46v96h-25v-96q0 -17 -12 -29t-29 -12t-27.5 11t-10.5 30v96h-25zM438 506h-24v-158h96v23h-72v135zM557 506h-25v-158h99v23h-74v135zM778 348l66 158
h-29l-45 -117l-45 117h-29l66 -158h16zM967 506h-103v-158h103v23h-78v47h67v20h-67v45h78v23zM1055 406l26 -58h29l-31 64q25 14 25 43q0 22 -14.5 36.5t-36.5 14.5h-60v-158h25v58h37zM1278 506h-25v-158h25v158zM1442 428q0 -26 -16 -42.5t-40 -16.5q-25 0 -41 16.5
t-16 42.5q0 25 16 41t41 16q24 0 40 -16.5t16 -40.5zM1079 455q0 -12 -7.5 -20.5t-18.5 -8.5h-35v57h35q11 0 18.5 -8t7.5 -20zM2628 375l51 49l-51 49l-17 -14l27 -23h-938v-24h938l-27 -23zM1079 195q0 -51 35 -85t86 -34q52 0 86.5 34t34.5 85q0 50 -34.5 83t-86.5 33
q-51 0 -86 -33.5t-35 -82.5zM1749 172v-76q33 -20 78 -20q40 0 65 20t25 56q0 54 -74 71q-2 1 -7 2q-20 8 -21 15q0 8 22 8q36 0 66 -23v70q-37 16 -66 16q-42 0 -67 -18t-25 -51q0 -29 15.5 -45t49.5 -27q4 -2 11.5 -4t12 -3t8 -4t3.5 -7q0 -13 -18 -13q-24 0 -78 33z
M2011 195q0 -51 34.5 -85t84.5 -34q25 0 53 14l2 72q-21 -21 -51 -21q-22 0 -36.5 15.5t-14.5 38.5q0 22 14.5 36.5t36.5 14.5q20 0 45 -15v68q-21 12 -47 12q-51 0 -86 -33.5t-35 -82.5zM2191 195q0 -51 35 -85t88 -34q51 0 86 34t35 85q0 49 -35 82.5t-86 33.5
q-52 0 -87.5 -33t-35.5 -83zM133 242h74l-84 -160h194v63h-77l84 160h-191v-63zM500 305h-162v-223h164v61h-92v21h77v61h-77v19h90v61zM510 242h53v-160h72v160h53v63h-178v-63zM748 117h63l8 -35h78l-76 223h-82l-75 -223h73zM1071 305h-162v-223h72v70h76v59h-76v33h90
v61zM1550 82v223h-71v-119l-68 119h-74v-223h72l-2 108l70 -108h73zM1563 242h53v-160h72v160h51v63h-176v-63zM2521 305h-72v-223h72v88l29 -55h51l29 55v-88h69v223h-71l-54 -102zM1249 195q0 -23 -13.5 -38.5t-35.5 -15.5t-35.5 15.5t-13.5 38.5q0 22 13.5 36.5
t35.5 14.5t35.5 -14.5t13.5 -36.5zM2363 195q0 -23 -14.5 -38.5t-34.5 -15.5q-22 0 -36.5 15.5t-14.5 38.5q0 22 14.5 36.5t36.5 14.5q20 0 34.5 -14.5t14.5 -36.5zM780 229l15 -53h-31l14 53h2zM1927 111q0 -14 10 -24.5t27 -10.5q15 0 25 10.5t10 24.5t-10 23t-25 9
q-17 0 -27 -9t-10 -23z" />
    <glyph glyph-name="one" unicode="1" horiz-adv-x="2854" 
d="M1706 946h995v-395h-2568v395h995q8 114 91 192.5t198 78.5t198 -78.5t91 -192.5zM1243 1120h348q-78 68 -174 68q-99 0 -174 -68zM1272 760h346q59 72 59 166q0 99 -65 174zM1565 1092h-351q-59 -72 -59 -166q0 -99 68 -174zM1862 621q57 0 96 37t39 94q0 55 -39 92
t-96 37t-95 -37t-38 -92q0 -57 38 -94t95 -37zM319 803h58v71h-197v-71h60v-176h79v176zM487 698l31 -71h84l-43 94q29 25 29 65q0 38 -27.5 63t-66.5 25h-103v-247h80v71h16zM614 627h78v247h-78v-247zM870 666l11 -39h86l-84 247h-92l-84 -247h84l10 39h69zM981 627h168
v67h-88v180h-80v-247zM2169 627h82v247h-80v-131l-76 131h-82v-247h80l-2 121zM2275 627h168v67h-88v180h-80v-247zM2568 627v98l84 149h-92l-33 -73l-30 73h-95l86 -149v-98h80zM1862 809q25 0 40 -16t15 -41q0 -26 -15 -43t-40 -17q-24 0 -40 17t-16 43q0 24 16 40.5
t40 16.5zM471 807h21q6 0 11 -6.5t5 -14.5q0 -9 -5 -15.5t-11 -6.5h-21v43zM817 731l17 60h2l16 -60h-35zM1591 731h-348q75 -65 174 -65t174 65zM1122 387v-27q24 -14 54 -14q23 0 38 12.5t15 34.5q0 28 -47 45q-12 4 -17.5 6.5t-10.5 7.5t-5 13q0 22 29 22q24 0 41 -14v27
q-20 10 -41 10q-24 0 -39 -12t-15 -33q0 -14 7 -23.5t14.5 -13.5t23.5 -10q35 -9 35 -25q0 -24 -28 -24q-29 0 -54 18zM1305 428q0 -35 23 -58.5t58 -23.5q34 0 58 23.5t24 58.5q0 34 -24 58t-58 24q-35 0 -58 -24t-23 -58zM1630 344v162h-24v-111l-101 113h-12v-160h25v107
l100 -111h12zM233 506h-102v-158h25v60h67v22h-67v53h77v23zM254 506v-96q0 -28 17.5 -46t45.5 -18q29 0 47.5 18t18.5 46v96h-25v-96q0 -17 -12 -29t-29 -12t-27.5 11t-10.5 30v96h-25zM438 506h-24v-158h96v23h-72v135zM557 506h-25v-158h99v23h-74v135zM778 348l66 158
h-29l-45 -117l-45 117h-29l66 -158h16zM967 506h-103v-158h103v23h-78v47h67v20h-67v45h78v23zM1055 406l26 -58h29l-31 64q25 14 25 43q0 22 -14.5 36.5t-36.5 14.5h-60v-158h25v58h37zM1278 506h-25v-158h25v158zM1442 428q0 -26 -16 -42.5t-40 -16.5q-25 0 -41 16.5
t-16 42.5q0 25 16 41t41 16q24 0 40 -16.5t16 -40.5zM1079 455q0 -12 -7.5 -20.5t-18.5 -8.5h-35v57h35q11 0 18.5 -8t7.5 -20zM2628 375l51 49l-51 49l-17 -14l27 -23h-938v-24h938l-27 -23zM1079 195q0 -51 35 -85t86 -34q52 0 86.5 34t34.5 85q0 50 -34.5 83t-86.5 33
q-51 0 -86 -33.5t-35 -82.5zM1749 172v-76q33 -20 78 -20q40 0 65 20t25 56q0 54 -74 71q-2 1 -7 2q-20 8 -21 15q0 8 22 8q36 0 66 -23v70q-37 16 -66 16q-42 0 -67 -18t-25 -51q0 -29 15.5 -45t49.5 -27q4 -2 11.5 -4t12 -3t8 -4t3.5 -7q0 -13 -18 -13q-24 0 -78 33z
M2011 195q0 -51 34.5 -85t84.5 -34q25 0 53 14l2 72q-21 -21 -51 -21q-22 0 -36.5 15.5t-14.5 38.5q0 22 14.5 36.5t36.5 14.5q20 0 45 -15v68q-21 12 -47 12q-51 0 -86 -33.5t-35 -82.5zM2191 195q0 -51 35 -85t88 -34q51 0 86 34t35 85q0 49 -35 82.5t-86 33.5
q-52 0 -87.5 -33t-35.5 -83zM133 242h74l-84 -160h194v63h-77l84 160h-191v-63zM500 305h-162v-223h164v61h-92v21h77v61h-77v19h90v61zM510 242h53v-160h72v160h53v63h-178v-63zM748 117h63l8 -35h78l-76 223h-82l-75 -223h73zM1071 305h-162v-223h72v70h76v59h-76v33h90
v61zM1550 82v223h-71v-119l-68 119h-74v-223h72l-2 108l70 -108h73zM1563 242h53v-160h72v160h51v63h-176v-63zM2521 305h-72v-223h72v88l29 -55h51l29 55v-88h69v223h-71l-54 -102zM1249 195q0 -23 -13.5 -38.5t-35.5 -15.5t-35.5 15.5t-13.5 38.5q0 22 13.5 36.5
t35.5 14.5t35.5 -14.5t13.5 -36.5zM2363 195q0 -23 -14.5 -38.5t-34.5 -15.5q-22 0 -36.5 15.5t-14.5 38.5q0 22 14.5 36.5t36.5 14.5q20 0 34.5 -14.5t14.5 -36.5zM780 229l15 -53h-31l14 53h2zM1927 111q0 -14 10 -24.5t27 -10.5q15 0 25 10.5t10 24.5t-10 23t-25 9
q-17 0 -27 -9t-10 -23z" />
    <glyph glyph-name="two" unicode="2" horiz-adv-x="2854" 
d="M1706 946h995v-395h-2568v395h995q8 114 91 192.5t198 78.5t198 -78.5t91 -192.5zM1243 1120h348q-78 68 -174 68q-99 0 -174 -68zM1272 760h346q59 72 59 166q0 99 -65 174zM1565 1092h-351q-59 -72 -59 -166q0 -99 68 -174zM1862 621q57 0 96 37t39 94q0 55 -39 92
t-96 37t-95 -37t-38 -92q0 -57 38 -94t95 -37zM319 803h58v71h-197v-71h60v-176h79v176zM487 698l31 -71h84l-43 94q29 25 29 65q0 38 -27.5 63t-66.5 25h-103v-247h80v71h16zM614 627h78v247h-78v-247zM870 666l11 -39h86l-84 247h-92l-84 -247h84l10 39h69zM981 627h168
v67h-88v180h-80v-247zM2169 627h82v247h-80v-131l-76 131h-82v-247h80l-2 121zM2275 627h168v67h-88v180h-80v-247zM2568 627v98l84 149h-92l-33 -73l-30 73h-95l86 -149v-98h80zM1862 809q25 0 40 -16t15 -41q0 -26 -15 -43t-40 -17q-24 0 -40 17t-16 43q0 24 16 40.5
t40 16.5zM471 807h21q6 0 11 -6.5t5 -14.5q0 -9 -5 -15.5t-11 -6.5h-21v43zM817 731l17 60h2l16 -60h-35zM1591 731h-348q75 -65 174 -65t174 65zM1122 387v-27q24 -14 54 -14q23 0 38 12.5t15 34.5q0 28 -47 45q-12 4 -17.5 6.5t-10.5 7.5t-5 13q0 22 29 22q24 0 41 -14v27
q-20 10 -41 10q-24 0 -39 -12t-15 -33q0 -14 7 -23.5t14.5 -13.5t23.5 -10q35 -9 35 -25q0 -24 -28 -24q-29 0 -54 18zM1305 428q0 -35 23 -58.5t58 -23.5q34 0 58 23.5t24 58.5q0 34 -24 58t-58 24q-35 0 -58 -24t-23 -58zM1630 344v162h-24v-111l-101 113h-12v-160h25v107
l100 -111h12zM233 506h-102v-158h25v60h67v22h-67v53h77v23zM254 506v-96q0 -28 17.5 -46t45.5 -18q29 0 47.5 18t18.5 46v96h-25v-96q0 -17 -12 -29t-29 -12t-27.5 11t-10.5 30v96h-25zM438 506h-24v-158h96v23h-72v135zM557 506h-25v-158h99v23h-74v135zM778 348l66 158
h-29l-45 -117l-45 117h-29l66 -158h16zM967 506h-103v-158h103v23h-78v47h67v20h-67v45h78v23zM1055 406l26 -58h29l-31 64q25 14 25 43q0 22 -14.5 36.5t-36.5 14.5h-60v-158h25v58h37zM1278 506h-25v-158h25v158zM1442 428q0 -26 -16 -42.5t-40 -16.5q-25 0 -41 16.5
t-16 42.5q0 25 16 41t41 16q24 0 40 -16.5t16 -40.5zM1079 455q0 -12 -7.5 -20.5t-18.5 -8.5h-35v57h35q11 0 18.5 -8t7.5 -20zM2628 375l51 49l-51 49l-17 -14l27 -23h-938v-24h938l-27 -23zM1079 195q0 -51 35 -85t86 -34q52 0 86.5 34t34.5 85q0 50 -34.5 83t-86.5 33
q-51 0 -86 -33.5t-35 -82.5zM1749 172v-76q33 -20 78 -20q40 0 65 20t25 56q0 54 -74 71q-2 1 -7 2q-20 8 -21 15q0 8 22 8q36 0 66 -23v70q-37 16 -66 16q-42 0 -67 -18t-25 -51q0 -29 15.5 -45t49.5 -27q4 -2 11.5 -4t12 -3t8 -4t3.5 -7q0 -13 -18 -13q-24 0 -78 33z
M2011 195q0 -51 34.5 -85t84.5 -34q25 0 53 14l2 72q-21 -21 -51 -21q-22 0 -36.5 15.5t-14.5 38.5q0 22 14.5 36.5t36.5 14.5q20 0 45 -15v68q-21 12 -47 12q-51 0 -86 -33.5t-35 -82.5zM2191 195q0 -51 35 -85t88 -34q51 0 86 34t35 85q0 49 -35 82.5t-86 33.5
q-52 0 -87.5 -33t-35.5 -83zM133 242h74l-84 -160h194v63h-77l84 160h-191v-63zM500 305h-162v-223h164v61h-92v21h77v61h-77v19h90v61zM510 242h53v-160h72v160h53v63h-178v-63zM748 117h63l8 -35h78l-76 223h-82l-75 -223h73zM1071 305h-162v-223h72v70h76v59h-76v33h90
v61zM1550 82v223h-71v-119l-68 119h-74v-223h72l-2 108l70 -108h73zM1563 242h53v-160h72v160h51v63h-176v-63zM2521 305h-72v-223h72v88l29 -55h51l29 55v-88h69v223h-71l-54 -102zM1249 195q0 -23 -13.5 -38.5t-35.5 -15.5t-35.5 15.5t-13.5 38.5q0 22 13.5 36.5
t35.5 14.5t35.5 -14.5t13.5 -36.5zM2363 195q0 -23 -14.5 -38.5t-34.5 -15.5q-22 0 -36.5 15.5t-14.5 38.5q0 22 14.5 36.5t36.5 14.5q20 0 34.5 -14.5t14.5 -36.5zM780 229l15 -53h-31l14 53h2zM1927 111q0 -14 10 -24.5t27 -10.5q15 0 25 10.5t10 24.5t-10 23t-25 9
q-17 0 -27 -9t-10 -23z" />
    <glyph glyph-name="three" unicode="3" horiz-adv-x="2854" 
d="M1706 946h995v-395h-2568v395h995q8 114 91 192.5t198 78.5t198 -78.5t91 -192.5zM1243 1120h348q-78 68 -174 68q-99 0 -174 -68zM1272 760h346q59 72 59 166q0 99 -65 174zM1565 1092h-351q-59 -72 -59 -166q0 -99 68 -174zM1862 621q57 0 96 37t39 94q0 55 -39 92
t-96 37t-95 -37t-38 -92q0 -57 38 -94t95 -37zM319 803h58v71h-197v-71h60v-176h79v176zM487 698l31 -71h84l-43 94q29 25 29 65q0 38 -27.5 63t-66.5 25h-103v-247h80v71h16zM614 627h78v247h-78v-247zM870 666l11 -39h86l-84 247h-92l-84 -247h84l10 39h69zM981 627h168
v67h-88v180h-80v-247zM2169 627h82v247h-80v-131l-76 131h-82v-247h80l-2 121zM2275 627h168v67h-88v180h-80v-247zM2568 627v98l84 149h-92l-33 -73l-30 73h-95l86 -149v-98h80zM1862 809q25 0 40 -16t15 -41q0 -26 -15 -43t-40 -17q-24 0 -40 17t-16 43q0 24 16 40.5
t40 16.5zM471 807h21q6 0 11 -6.5t5 -14.5q0 -9 -5 -15.5t-11 -6.5h-21v43zM817 731l17 60h2l16 -60h-35zM1591 731h-348q75 -65 174 -65t174 65zM1122 387v-27q24 -14 54 -14q23 0 38 12.5t15 34.5q0 28 -47 45q-12 4 -17.5 6.5t-10.5 7.5t-5 13q0 22 29 22q24 0 41 -14v27
q-20 10 -41 10q-24 0 -39 -12t-15 -33q0 -14 7 -23.5t14.5 -13.5t23.5 -10q35 -9 35 -25q0 -24 -28 -24q-29 0 -54 18zM1305 428q0 -35 23 -58.5t58 -23.5q34 0 58 23.5t24 58.5q0 34 -24 58t-58 24q-35 0 -58 -24t-23 -58zM1630 344v162h-24v-111l-101 113h-12v-160h25v107
l100 -111h12zM233 506h-102v-158h25v60h67v22h-67v53h77v23zM254 506v-96q0 -28 17.5 -46t45.5 -18q29 0 47.5 18t18.5 46v96h-25v-96q0 -17 -12 -29t-29 -12t-27.5 11t-10.5 30v96h-25zM438 506h-24v-158h96v23h-72v135zM557 506h-25v-158h99v23h-74v135zM778 348l66 158
h-29l-45 -117l-45 117h-29l66 -158h16zM967 506h-103v-158h103v23h-78v47h67v20h-67v45h78v23zM1055 406l26 -58h29l-31 64q25 14 25 43q0 22 -14.5 36.5t-36.5 14.5h-60v-158h25v58h37zM1278 506h-25v-158h25v158zM1442 428q0 -26 -16 -42.5t-40 -16.5q-25 0 -41 16.5
t-16 42.5q0 25 16 41t41 16q24 0 40 -16.5t16 -40.5zM1079 455q0 -12 -7.5 -20.5t-18.5 -8.5h-35v57h35q11 0 18.5 -8t7.5 -20zM2628 375l51 49l-51 49l-17 -14l27 -23h-938v-24h938l-27 -23zM1079 195q0 -51 35 -85t86 -34q52 0 86.5 34t34.5 85q0 50 -34.5 83t-86.5 33
q-51 0 -86 -33.5t-35 -82.5zM1749 172v-76q33 -20 78 -20q40 0 65 20t25 56q0 54 -74 71q-2 1 -7 2q-20 8 -21 15q0 8 22 8q36 0 66 -23v70q-37 16 -66 16q-42 0 -67 -18t-25 -51q0 -29 15.5 -45t49.5 -27q4 -2 11.5 -4t12 -3t8 -4t3.5 -7q0 -13 -18 -13q-24 0 -78 33z
M2011 195q0 -51 34.5 -85t84.5 -34q25 0 53 14l2 72q-21 -21 -51 -21q-22 0 -36.5 15.5t-14.5 38.5q0 22 14.5 36.5t36.5 14.5q20 0 45 -15v68q-21 12 -47 12q-51 0 -86 -33.5t-35 -82.5zM2191 195q0 -51 35 -85t88 -34q51 0 86 34t35 85q0 49 -35 82.5t-86 33.5
q-52 0 -87.5 -33t-35.5 -83zM133 242h74l-84 -160h194v63h-77l84 160h-191v-63zM500 305h-162v-223h164v61h-92v21h77v61h-77v19h90v61zM510 242h53v-160h72v160h53v63h-178v-63zM748 117h63l8 -35h78l-76 223h-82l-75 -223h73zM1071 305h-162v-223h72v70h76v59h-76v33h90
v61zM1550 82v223h-71v-119l-68 119h-74v-223h72l-2 108l70 -108h73zM1563 242h53v-160h72v160h51v63h-176v-63zM2521 305h-72v-223h72v88l29 -55h51l29 55v-88h69v223h-71l-54 -102zM1249 195q0 -23 -13.5 -38.5t-35.5 -15.5t-35.5 15.5t-13.5 38.5q0 22 13.5 36.5
t35.5 14.5t35.5 -14.5t13.5 -36.5zM2363 195q0 -23 -14.5 -38.5t-34.5 -15.5q-22 0 -36.5 15.5t-14.5 38.5q0 22 14.5 36.5t36.5 14.5q20 0 34.5 -14.5t14.5 -36.5zM780 229l15 -53h-31l14 53h2zM1927 111q0 -14 10 -24.5t27 -10.5q15 0 25 10.5t10 24.5t-10 23t-25 9
q-17 0 -27 -9t-10 -23z" />
    <glyph glyph-name="four" unicode="4" horiz-adv-x="2854" 
d="M1706 946h995v-395h-2568v395h995q8 114 91 192.5t198 78.5t198 -78.5t91 -192.5zM1243 1120h348q-78 68 -174 68q-99 0 -174 -68zM1272 760h346q59 72 59 166q0 99 -65 174zM1565 1092h-351q-59 -72 -59 -166q0 -99 68 -174zM1862 621q57 0 96 37t39 94q0 55 -39 92
t-96 37t-95 -37t-38 -92q0 -57 38 -94t95 -37zM319 803h58v71h-197v-71h60v-176h79v176zM487 698l31 -71h84l-43 94q29 25 29 65q0 38 -27.5 63t-66.5 25h-103v-247h80v71h16zM614 627h78v247h-78v-247zM870 666l11 -39h86l-84 247h-92l-84 -247h84l10 39h69zM981 627h168
v67h-88v180h-80v-247zM2169 627h82v247h-80v-131l-76 131h-82v-247h80l-2 121zM2275 627h168v67h-88v180h-80v-247zM2568 627v98l84 149h-92l-33 -73l-30 73h-95l86 -149v-98h80zM1862 809q25 0 40 -16t15 -41q0 -26 -15 -43t-40 -17q-24 0 -40 17t-16 43q0 24 16 40.5
t40 16.5zM471 807h21q6 0 11 -6.5t5 -14.5q0 -9 -5 -15.5t-11 -6.5h-21v43zM817 731l17 60h2l16 -60h-35zM1591 731h-348q75 -65 174 -65t174 65zM1122 387v-27q24 -14 54 -14q23 0 38 12.5t15 34.5q0 28 -47 45q-12 4 -17.5 6.5t-10.5 7.5t-5 13q0 22 29 22q24 0 41 -14v27
q-20 10 -41 10q-24 0 -39 -12t-15 -33q0 -14 7 -23.5t14.5 -13.5t23.5 -10q35 -9 35 -25q0 -24 -28 -24q-29 0 -54 18zM1305 428q0 -35 23 -58.5t58 -23.5q34 0 58 23.5t24 58.5q0 34 -24 58t-58 24q-35 0 -58 -24t-23 -58zM1630 344v162h-24v-111l-101 113h-12v-160h25v107
l100 -111h12zM233 506h-102v-158h25v60h67v22h-67v53h77v23zM254 506v-96q0 -28 17.5 -46t45.5 -18q29 0 47.5 18t18.5 46v96h-25v-96q0 -17 -12 -29t-29 -12t-27.5 11t-10.5 30v96h-25zM438 506h-24v-158h96v23h-72v135zM557 506h-25v-158h99v23h-74v135zM778 348l66 158
h-29l-45 -117l-45 117h-29l66 -158h16zM967 506h-103v-158h103v23h-78v47h67v20h-67v45h78v23zM1055 406l26 -58h29l-31 64q25 14 25 43q0 22 -14.5 36.5t-36.5 14.5h-60v-158h25v58h37zM1278 506h-25v-158h25v158zM1442 428q0 -26 -16 -42.5t-40 -16.5q-25 0 -41 16.5
t-16 42.5q0 25 16 41t41 16q24 0 40 -16.5t16 -40.5zM1079 455q0 -12 -7.5 -20.5t-18.5 -8.5h-35v57h35q11 0 18.5 -8t7.5 -20zM2628 375l51 49l-51 49l-17 -14l27 -23h-938v-24h938l-27 -23zM1079 195q0 -51 35 -85t86 -34q52 0 86.5 34t34.5 85q0 50 -34.5 83t-86.5 33
q-51 0 -86 -33.5t-35 -82.5zM1749 172v-76q33 -20 78 -20q40 0 65 20t25 56q0 54 -74 71q-2 1 -7 2q-20 8 -21 15q0 8 22 8q36 0 66 -23v70q-37 16 -66 16q-42 0 -67 -18t-25 -51q0 -29 15.5 -45t49.5 -27q4 -2 11.5 -4t12 -3t8 -4t3.5 -7q0 -13 -18 -13q-24 0 -78 33z
M2011 195q0 -51 34.5 -85t84.5 -34q25 0 53 14l2 72q-21 -21 -51 -21q-22 0 -36.5 15.5t-14.5 38.5q0 22 14.5 36.5t36.5 14.5q20 0 45 -15v68q-21 12 -47 12q-51 0 -86 -33.5t-35 -82.5zM2191 195q0 -51 35 -85t88 -34q51 0 86 34t35 85q0 49 -35 82.5t-86 33.5
q-52 0 -87.5 -33t-35.5 -83zM133 242h74l-84 -160h194v63h-77l84 160h-191v-63zM500 305h-162v-223h164v61h-92v21h77v61h-77v19h90v61zM510 242h53v-160h72v160h53v63h-178v-63zM748 117h63l8 -35h78l-76 223h-82l-75 -223h73zM1071 305h-162v-223h72v70h76v59h-76v33h90
v61zM1550 82v223h-71v-119l-68 119h-74v-223h72l-2 108l70 -108h73zM1563 242h53v-160h72v160h51v63h-176v-63zM2521 305h-72v-223h72v88l29 -55h51l29 55v-88h69v223h-71l-54 -102zM1249 195q0 -23 -13.5 -38.5t-35.5 -15.5t-35.5 15.5t-13.5 38.5q0 22 13.5 36.5
t35.5 14.5t35.5 -14.5t13.5 -36.5zM2363 195q0 -23 -14.5 -38.5t-34.5 -15.5q-22 0 -36.5 15.5t-14.5 38.5q0 22 14.5 36.5t36.5 14.5q20 0 34.5 -14.5t14.5 -36.5zM780 229l15 -53h-31l14 53h2zM1927 111q0 -14 10 -24.5t27 -10.5q15 0 25 10.5t10 24.5t-10 23t-25 9
q-17 0 -27 -9t-10 -23z" />
    <glyph glyph-name="five" unicode="5" horiz-adv-x="2854" 
d="M1706 946h995v-395h-2568v395h995q8 114 91 192.5t198 78.5t198 -78.5t91 -192.5zM1243 1120h348q-78 68 -174 68q-99 0 -174 -68zM1272 760h346q59 72 59 166q0 99 -65 174zM1565 1092h-351q-59 -72 -59 -166q0 -99 68 -174zM1862 621q57 0 96 37t39 94q0 55 -39 92
t-96 37t-95 -37t-38 -92q0 -57 38 -94t95 -37zM319 803h58v71h-197v-71h60v-176h79v176zM487 698l31 -71h84l-43 94q29 25 29 65q0 38 -27.5 63t-66.5 25h-103v-247h80v71h16zM614 627h78v247h-78v-247zM870 666l11 -39h86l-84 247h-92l-84 -247h84l10 39h69zM981 627h168
v67h-88v180h-80v-247zM2169 627h82v247h-80v-131l-76 131h-82v-247h80l-2 121zM2275 627h168v67h-88v180h-80v-247zM2568 627v98l84 149h-92l-33 -73l-30 73h-95l86 -149v-98h80zM1862 809q25 0 40 -16t15 -41q0 -26 -15 -43t-40 -17q-24 0 -40 17t-16 43q0 24 16 40.5
t40 16.5zM471 807h21q6 0 11 -6.5t5 -14.5q0 -9 -5 -15.5t-11 -6.5h-21v43zM817 731l17 60h2l16 -60h-35zM1591 731h-348q75 -65 174 -65t174 65zM1122 387v-27q24 -14 54 -14q23 0 38 12.5t15 34.5q0 28 -47 45q-12 4 -17.5 6.5t-10.5 7.5t-5 13q0 22 29 22q24 0 41 -14v27
q-20 10 -41 10q-24 0 -39 -12t-15 -33q0 -14 7 -23.5t14.5 -13.5t23.5 -10q35 -9 35 -25q0 -24 -28 -24q-29 0 -54 18zM1305 428q0 -35 23 -58.5t58 -23.5q34 0 58 23.5t24 58.5q0 34 -24 58t-58 24q-35 0 -58 -24t-23 -58zM1630 344v162h-24v-111l-101 113h-12v-160h25v107
l100 -111h12zM233 506h-102v-158h25v60h67v22h-67v53h77v23zM254 506v-96q0 -28 17.5 -46t45.5 -18q29 0 47.5 18t18.5 46v96h-25v-96q0 -17 -12 -29t-29 -12t-27.5 11t-10.5 30v96h-25zM438 506h-24v-158h96v23h-72v135zM557 506h-25v-158h99v23h-74v135zM778 348l66 158
h-29l-45 -117l-45 117h-29l66 -158h16zM967 506h-103v-158h103v23h-78v47h67v20h-67v45h78v23zM1055 406l26 -58h29l-31 64q25 14 25 43q0 22 -14.5 36.5t-36.5 14.5h-60v-158h25v58h37zM1278 506h-25v-158h25v158zM1442 428q0 -26 -16 -42.5t-40 -16.5q-25 0 -41 16.5
t-16 42.5q0 25 16 41t41 16q24 0 40 -16.5t16 -40.5zM1079 455q0 -12 -7.5 -20.5t-18.5 -8.5h-35v57h35q11 0 18.5 -8t7.5 -20zM2628 375l51 49l-51 49l-17 -14l27 -23h-938v-24h938l-27 -23zM1079 195q0 -51 35 -85t86 -34q52 0 86.5 34t34.5 85q0 50 -34.5 83t-86.5 33
q-51 0 -86 -33.5t-35 -82.5zM1749 172v-76q33 -20 78 -20q40 0 65 20t25 56q0 54 -74 71q-2 1 -7 2q-20 8 -21 15q0 8 22 8q36 0 66 -23v70q-37 16 -66 16q-42 0 -67 -18t-25 -51q0 -29 15.5 -45t49.5 -27q4 -2 11.5 -4t12 -3t8 -4t3.5 -7q0 -13 -18 -13q-24 0 -78 33z
M2011 195q0 -51 34.5 -85t84.5 -34q25 0 53 14l2 72q-21 -21 -51 -21q-22 0 -36.5 15.5t-14.5 38.5q0 22 14.5 36.5t36.5 14.5q20 0 45 -15v68q-21 12 -47 12q-51 0 -86 -33.5t-35 -82.5zM2191 195q0 -51 35 -85t88 -34q51 0 86 34t35 85q0 49 -35 82.5t-86 33.5
q-52 0 -87.5 -33t-35.5 -83zM133 242h74l-84 -160h194v63h-77l84 160h-191v-63zM500 305h-162v-223h164v61h-92v21h77v61h-77v19h90v61zM510 242h53v-160h72v160h53v63h-178v-63zM748 117h63l8 -35h78l-76 223h-82l-75 -223h73zM1071 305h-162v-223h72v70h76v59h-76v33h90
v61zM1550 82v223h-71v-119l-68 119h-74v-223h72l-2 108l70 -108h73zM1563 242h53v-160h72v160h51v63h-176v-63zM2521 305h-72v-223h72v88l29 -55h51l29 55v-88h69v223h-71l-54 -102zM1249 195q0 -23 -13.5 -38.5t-35.5 -15.5t-35.5 15.5t-13.5 38.5q0 22 13.5 36.5
t35.5 14.5t35.5 -14.5t13.5 -36.5zM2363 195q0 -23 -14.5 -38.5t-34.5 -15.5q-22 0 -36.5 15.5t-14.5 38.5q0 22 14.5 36.5t36.5 14.5q20 0 34.5 -14.5t14.5 -36.5zM780 229l15 -53h-31l14 53h2zM1927 111q0 -14 10 -24.5t27 -10.5q15 0 25 10.5t10 24.5t-10 23t-25 9
q-17 0 -27 -9t-10 -23z" />
    <glyph glyph-name="six" unicode="6" horiz-adv-x="2854" 
d="M1706 946h995v-395h-2568v395h995q8 114 91 192.5t198 78.5t198 -78.5t91 -192.5zM1243 1120h348q-78 68 -174 68q-99 0 -174 -68zM1272 760h346q59 72 59 166q0 99 -65 174zM1565 1092h-351q-59 -72 -59 -166q0 -99 68 -174zM1862 621q57 0 96 37t39 94q0 55 -39 92
t-96 37t-95 -37t-38 -92q0 -57 38 -94t95 -37zM319 803h58v71h-197v-71h60v-176h79v176zM487 698l31 -71h84l-43 94q29 25 29 65q0 38 -27.5 63t-66.5 25h-103v-247h80v71h16zM614 627h78v247h-78v-247zM870 666l11 -39h86l-84 247h-92l-84 -247h84l10 39h69zM981 627h168
v67h-88v180h-80v-247zM2169 627h82v247h-80v-131l-76 131h-82v-247h80l-2 121zM2275 627h168v67h-88v180h-80v-247zM2568 627v98l84 149h-92l-33 -73l-30 73h-95l86 -149v-98h80zM1862 809q25 0 40 -16t15 -41q0 -26 -15 -43t-40 -17q-24 0 -40 17t-16 43q0 24 16 40.5
t40 16.5zM471 807h21q6 0 11 -6.5t5 -14.5q0 -9 -5 -15.5t-11 -6.5h-21v43zM817 731l17 60h2l16 -60h-35zM1591 731h-348q75 -65 174 -65t174 65zM1122 387v-27q24 -14 54 -14q23 0 38 12.5t15 34.5q0 28 -47 45q-12 4 -17.5 6.5t-10.5 7.5t-5 13q0 22 29 22q24 0 41 -14v27
q-20 10 -41 10q-24 0 -39 -12t-15 -33q0 -14 7 -23.5t14.5 -13.5t23.5 -10q35 -9 35 -25q0 -24 -28 -24q-29 0 -54 18zM1305 428q0 -35 23 -58.5t58 -23.5q34 0 58 23.5t24 58.5q0 34 -24 58t-58 24q-35 0 -58 -24t-23 -58zM1630 344v162h-24v-111l-101 113h-12v-160h25v107
l100 -111h12zM233 506h-102v-158h25v60h67v22h-67v53h77v23zM254 506v-96q0 -28 17.5 -46t45.5 -18q29 0 47.5 18t18.5 46v96h-25v-96q0 -17 -12 -29t-29 -12t-27.5 11t-10.5 30v96h-25zM438 506h-24v-158h96v23h-72v135zM557 506h-25v-158h99v23h-74v135zM778 348l66 158
h-29l-45 -117l-45 117h-29l66 -158h16zM967 506h-103v-158h103v23h-78v47h67v20h-67v45h78v23zM1055 406l26 -58h29l-31 64q25 14 25 43q0 22 -14.5 36.5t-36.5 14.5h-60v-158h25v58h37zM1278 506h-25v-158h25v158zM1442 428q0 -26 -16 -42.5t-40 -16.5q-25 0 -41 16.5
t-16 42.5q0 25 16 41t41 16q24 0 40 -16.5t16 -40.5zM1079 455q0 -12 -7.5 -20.5t-18.5 -8.5h-35v57h35q11 0 18.5 -8t7.5 -20zM2628 375l51 49l-51 49l-17 -14l27 -23h-938v-24h938l-27 -23zM1079 195q0 -51 35 -85t86 -34q52 0 86.5 34t34.5 85q0 50 -34.5 83t-86.5 33
q-51 0 -86 -33.5t-35 -82.5zM1749 172v-76q33 -20 78 -20q40 0 65 20t25 56q0 54 -74 71q-2 1 -7 2q-20 8 -21 15q0 8 22 8q36 0 66 -23v70q-37 16 -66 16q-42 0 -67 -18t-25 -51q0 -29 15.5 -45t49.5 -27q4 -2 11.5 -4t12 -3t8 -4t3.5 -7q0 -13 -18 -13q-24 0 -78 33z
M2011 195q0 -51 34.5 -85t84.5 -34q25 0 53 14l2 72q-21 -21 -51 -21q-22 0 -36.5 15.5t-14.5 38.5q0 22 14.5 36.5t36.5 14.5q20 0 45 -15v68q-21 12 -47 12q-51 0 -86 -33.5t-35 -82.5zM2191 195q0 -51 35 -85t88 -34q51 0 86 34t35 85q0 49 -35 82.5t-86 33.5
q-52 0 -87.5 -33t-35.5 -83zM133 242h74l-84 -160h194v63h-77l84 160h-191v-63zM500 305h-162v-223h164v61h-92v21h77v61h-77v19h90v61zM510 242h53v-160h72v160h53v63h-178v-63zM748 117h63l8 -35h78l-76 223h-82l-75 -223h73zM1071 305h-162v-223h72v70h76v59h-76v33h90
v61zM1550 82v223h-71v-119l-68 119h-74v-223h72l-2 108l70 -108h73zM1563 242h53v-160h72v160h51v63h-176v-63zM2521 305h-72v-223h72v88l29 -55h51l29 55v-88h69v223h-71l-54 -102zM1249 195q0 -23 -13.5 -38.5t-35.5 -15.5t-35.5 15.5t-13.5 38.5q0 22 13.5 36.5
t35.5 14.5t35.5 -14.5t13.5 -36.5zM2363 195q0 -23 -14.5 -38.5t-34.5 -15.5q-22 0 -36.5 15.5t-14.5 38.5q0 22 14.5 36.5t36.5 14.5q20 0 34.5 -14.5t14.5 -36.5zM780 229l15 -53h-31l14 53h2zM1927 111q0 -14 10 -24.5t27 -10.5q15 0 25 10.5t10 24.5t-10 23t-25 9
q-17 0 -27 -9t-10 -23z" />
    <glyph glyph-name="seven" unicode="7" horiz-adv-x="2854" 
d="M1706 946h995v-395h-2568v395h995q8 114 91 192.5t198 78.5t198 -78.5t91 -192.5zM1243 1120h348q-78 68 -174 68q-99 0 -174 -68zM1272 760h346q59 72 59 166q0 99 -65 174zM1565 1092h-351q-59 -72 -59 -166q0 -99 68 -174zM1862 621q57 0 96 37t39 94q0 55 -39 92
t-96 37t-95 -37t-38 -92q0 -57 38 -94t95 -37zM319 803h58v71h-197v-71h60v-176h79v176zM487 698l31 -71h84l-43 94q29 25 29 65q0 38 -27.5 63t-66.5 25h-103v-247h80v71h16zM614 627h78v247h-78v-247zM870 666l11 -39h86l-84 247h-92l-84 -247h84l10 39h69zM981 627h168
v67h-88v180h-80v-247zM2169 627h82v247h-80v-131l-76 131h-82v-247h80l-2 121zM2275 627h168v67h-88v180h-80v-247zM2568 627v98l84 149h-92l-33 -73l-30 73h-95l86 -149v-98h80zM1862 809q25 0 40 -16t15 -41q0 -26 -15 -43t-40 -17q-24 0 -40 17t-16 43q0 24 16 40.5
t40 16.5zM471 807h21q6 0 11 -6.5t5 -14.5q0 -9 -5 -15.5t-11 -6.5h-21v43zM817 731l17 60h2l16 -60h-35zM1591 731h-348q75 -65 174 -65t174 65zM1122 387v-27q24 -14 54 -14q23 0 38 12.5t15 34.5q0 28 -47 45q-12 4 -17.5 6.5t-10.5 7.5t-5 13q0 22 29 22q24 0 41 -14v27
q-20 10 -41 10q-24 0 -39 -12t-15 -33q0 -14 7 -23.5t14.5 -13.5t23.5 -10q35 -9 35 -25q0 -24 -28 -24q-29 0 -54 18zM1305 428q0 -35 23 -58.5t58 -23.5q34 0 58 23.5t24 58.5q0 34 -24 58t-58 24q-35 0 -58 -24t-23 -58zM1630 344v162h-24v-111l-101 113h-12v-160h25v107
l100 -111h12zM233 506h-102v-158h25v60h67v22h-67v53h77v23zM254 506v-96q0 -28 17.5 -46t45.5 -18q29 0 47.5 18t18.5 46v96h-25v-96q0 -17 -12 -29t-29 -12t-27.5 11t-10.5 30v96h-25zM438 506h-24v-158h96v23h-72v135zM557 506h-25v-158h99v23h-74v135zM778 348l66 158
h-29l-45 -117l-45 117h-29l66 -158h16zM967 506h-103v-158h103v23h-78v47h67v20h-67v45h78v23zM1055 406l26 -58h29l-31 64q25 14 25 43q0 22 -14.5 36.5t-36.5 14.5h-60v-158h25v58h37zM1278 506h-25v-158h25v158zM1442 428q0 -26 -16 -42.5t-40 -16.5q-25 0 -41 16.5
t-16 42.5q0 25 16 41t41 16q24 0 40 -16.5t16 -40.5zM1079 455q0 -12 -7.5 -20.5t-18.5 -8.5h-35v57h35q11 0 18.5 -8t7.5 -20zM2628 375l51 49l-51 49l-17 -14l27 -23h-938v-24h938l-27 -23zM1079 195q0 -51 35 -85t86 -34q52 0 86.5 34t34.5 85q0 50 -34.5 83t-86.5 33
q-51 0 -86 -33.5t-35 -82.5zM1749 172v-76q33 -20 78 -20q40 0 65 20t25 56q0 54 -74 71q-2 1 -7 2q-20 8 -21 15q0 8 22 8q36 0 66 -23v70q-37 16 -66 16q-42 0 -67 -18t-25 -51q0 -29 15.5 -45t49.5 -27q4 -2 11.5 -4t12 -3t8 -4t3.5 -7q0 -13 -18 -13q-24 0 -78 33z
M2011 195q0 -51 34.5 -85t84.5 -34q25 0 53 14l2 72q-21 -21 -51 -21q-22 0 -36.5 15.5t-14.5 38.5q0 22 14.5 36.5t36.5 14.5q20 0 45 -15v68q-21 12 -47 12q-51 0 -86 -33.5t-35 -82.5zM2191 195q0 -51 35 -85t88 -34q51 0 86 34t35 85q0 49 -35 82.5t-86 33.5
q-52 0 -87.5 -33t-35.5 -83zM133 242h74l-84 -160h194v63h-77l84 160h-191v-63zM500 305h-162v-223h164v61h-92v21h77v61h-77v19h90v61zM510 242h53v-160h72v160h53v63h-178v-63zM748 117h63l8 -35h78l-76 223h-82l-75 -223h73zM1071 305h-162v-223h72v70h76v59h-76v33h90
v61zM1550 82v223h-71v-119l-68 119h-74v-223h72l-2 108l70 -108h73zM1563 242h53v-160h72v160h51v63h-176v-63zM2521 305h-72v-223h72v88l29 -55h51l29 55v-88h69v223h-71l-54 -102zM1249 195q0 -23 -13.5 -38.5t-35.5 -15.5t-35.5 15.5t-13.5 38.5q0 22 13.5 36.5
t35.5 14.5t35.5 -14.5t13.5 -36.5zM2363 195q0 -23 -14.5 -38.5t-34.5 -15.5q-22 0 -36.5 15.5t-14.5 38.5q0 22 14.5 36.5t36.5 14.5q20 0 34.5 -14.5t14.5 -36.5zM780 229l15 -53h-31l14 53h2zM1927 111q0 -14 10 -24.5t27 -10.5q15 0 25 10.5t10 24.5t-10 23t-25 9
q-17 0 -27 -9t-10 -23z" />
    <glyph glyph-name="eight" unicode="8" horiz-adv-x="2854" 
d="M1706 946h995v-395h-2568v395h995q8 114 91 192.5t198 78.5t198 -78.5t91 -192.5zM1243 1120h348q-78 68 -174 68q-99 0 -174 -68zM1272 760h346q59 72 59 166q0 99 -65 174zM1565 1092h-351q-59 -72 -59 -166q0 -99 68 -174zM1862 621q57 0 96 37t39 94q0 55 -39 92
t-96 37t-95 -37t-38 -92q0 -57 38 -94t95 -37zM319 803h58v71h-197v-71h60v-176h79v176zM487 698l31 -71h84l-43 94q29 25 29 65q0 38 -27.5 63t-66.5 25h-103v-247h80v71h16zM614 627h78v247h-78v-247zM870 666l11 -39h86l-84 247h-92l-84 -247h84l10 39h69zM981 627h168
v67h-88v180h-80v-247zM2169 627h82v247h-80v-131l-76 131h-82v-247h80l-2 121zM2275 627h168v67h-88v180h-80v-247zM2568 627v98l84 149h-92l-33 -73l-30 73h-95l86 -149v-98h80zM1862 809q25 0 40 -16t15 -41q0 -26 -15 -43t-40 -17q-24 0 -40 17t-16 43q0 24 16 40.5
t40 16.5zM471 807h21q6 0 11 -6.5t5 -14.5q0 -9 -5 -15.5t-11 -6.5h-21v43zM817 731l17 60h2l16 -60h-35zM1591 731h-348q75 -65 174 -65t174 65zM1122 387v-27q24 -14 54 -14q23 0 38 12.5t15 34.5q0 28 -47 45q-12 4 -17.5 6.5t-10.5 7.5t-5 13q0 22 29 22q24 0 41 -14v27
q-20 10 -41 10q-24 0 -39 -12t-15 -33q0 -14 7 -23.5t14.5 -13.5t23.5 -10q35 -9 35 -25q0 -24 -28 -24q-29 0 -54 18zM1305 428q0 -35 23 -58.5t58 -23.5q34 0 58 23.5t24 58.5q0 34 -24 58t-58 24q-35 0 -58 -24t-23 -58zM1630 344v162h-24v-111l-101 113h-12v-160h25v107
l100 -111h12zM233 506h-102v-158h25v60h67v22h-67v53h77v23zM254 506v-96q0 -28 17.5 -46t45.5 -18q29 0 47.5 18t18.5 46v96h-25v-96q0 -17 -12 -29t-29 -12t-27.5 11t-10.5 30v96h-25zM438 506h-24v-158h96v23h-72v135zM557 506h-25v-158h99v23h-74v135zM778 348l66 158
h-29l-45 -117l-45 117h-29l66 -158h16zM967 506h-103v-158h103v23h-78v47h67v20h-67v45h78v23zM1055 406l26 -58h29l-31 64q25 14 25 43q0 22 -14.5 36.5t-36.5 14.5h-60v-158h25v58h37zM1278 506h-25v-158h25v158zM1442 428q0 -26 -16 -42.5t-40 -16.5q-25 0 -41 16.5
t-16 42.5q0 25 16 41t41 16q24 0 40 -16.5t16 -40.5zM1079 455q0 -12 -7.5 -20.5t-18.5 -8.5h-35v57h35q11 0 18.5 -8t7.5 -20zM2628 375l51 49l-51 49l-17 -14l27 -23h-938v-24h938l-27 -23zM1079 195q0 -51 35 -85t86 -34q52 0 86.5 34t34.5 85q0 50 -34.5 83t-86.5 33
q-51 0 -86 -33.5t-35 -82.5zM1749 172v-76q33 -20 78 -20q40 0 65 20t25 56q0 54 -74 71q-2 1 -7 2q-20 8 -21 15q0 8 22 8q36 0 66 -23v70q-37 16 -66 16q-42 0 -67 -18t-25 -51q0 -29 15.5 -45t49.5 -27q4 -2 11.5 -4t12 -3t8 -4t3.5 -7q0 -13 -18 -13q-24 0 -78 33z
M2011 195q0 -51 34.5 -85t84.5 -34q25 0 53 14l2 72q-21 -21 -51 -21q-22 0 -36.5 15.5t-14.5 38.5q0 22 14.5 36.5t36.5 14.5q20 0 45 -15v68q-21 12 -47 12q-51 0 -86 -33.5t-35 -82.5zM2191 195q0 -51 35 -85t88 -34q51 0 86 34t35 85q0 49 -35 82.5t-86 33.5
q-52 0 -87.5 -33t-35.5 -83zM133 242h74l-84 -160h194v63h-77l84 160h-191v-63zM500 305h-162v-223h164v61h-92v21h77v61h-77v19h90v61zM510 242h53v-160h72v160h53v63h-178v-63zM748 117h63l8 -35h78l-76 223h-82l-75 -223h73zM1071 305h-162v-223h72v70h76v59h-76v33h90
v61zM1550 82v223h-71v-119l-68 119h-74v-223h72l-2 108l70 -108h73zM1563 242h53v-160h72v160h51v63h-176v-63zM2521 305h-72v-223h72v88l29 -55h51l29 55v-88h69v223h-71l-54 -102zM1249 195q0 -23 -13.5 -38.5t-35.5 -15.5t-35.5 15.5t-13.5 38.5q0 22 13.5 36.5
t35.5 14.5t35.5 -14.5t13.5 -36.5zM2363 195q0 -23 -14.5 -38.5t-34.5 -15.5q-22 0 -36.5 15.5t-14.5 38.5q0 22 14.5 36.5t36.5 14.5q20 0 34.5 -14.5t14.5 -36.5zM780 229l15 -53h-31l14 53h2zM1927 111q0 -14 10 -24.5t27 -10.5q15 0 25 10.5t10 24.5t-10 23t-25 9
q-17 0 -27 -9t-10 -23z" />
    <glyph glyph-name="nine" unicode="9" horiz-adv-x="2854" 
d="M1706 946h995v-395h-2568v395h995q8 114 91 192.5t198 78.5t198 -78.5t91 -192.5zM1243 1120h348q-78 68 -174 68q-99 0 -174 -68zM1272 760h346q59 72 59 166q0 99 -65 174zM1565 1092h-351q-59 -72 -59 -166q0 -99 68 -174zM1862 621q57 0 96 37t39 94q0 55 -39 92
t-96 37t-95 -37t-38 -92q0 -57 38 -94t95 -37zM319 803h58v71h-197v-71h60v-176h79v176zM487 698l31 -71h84l-43 94q29 25 29 65q0 38 -27.5 63t-66.5 25h-103v-247h80v71h16zM614 627h78v247h-78v-247zM870 666l11 -39h86l-84 247h-92l-84 -247h84l10 39h69zM981 627h168
v67h-88v180h-80v-247zM2169 627h82v247h-80v-131l-76 131h-82v-247h80l-2 121zM2275 627h168v67h-88v180h-80v-247zM2568 627v98l84 149h-92l-33 -73l-30 73h-95l86 -149v-98h80zM1862 809q25 0 40 -16t15 -41q0 -26 -15 -43t-40 -17q-24 0 -40 17t-16 43q0 24 16 40.5
t40 16.5zM471 807h21q6 0 11 -6.5t5 -14.5q0 -9 -5 -15.5t-11 -6.5h-21v43zM817 731l17 60h2l16 -60h-35zM1591 731h-348q75 -65 174 -65t174 65zM1122 387v-27q24 -14 54 -14q23 0 38 12.5t15 34.5q0 28 -47 45q-12 4 -17.5 6.5t-10.5 7.5t-5 13q0 22 29 22q24 0 41 -14v27
q-20 10 -41 10q-24 0 -39 -12t-15 -33q0 -14 7 -23.5t14.5 -13.5t23.5 -10q35 -9 35 -25q0 -24 -28 -24q-29 0 -54 18zM1305 428q0 -35 23 -58.5t58 -23.5q34 0 58 23.5t24 58.5q0 34 -24 58t-58 24q-35 0 -58 -24t-23 -58zM1630 344v162h-24v-111l-101 113h-12v-160h25v107
l100 -111h12zM233 506h-102v-158h25v60h67v22h-67v53h77v23zM254 506v-96q0 -28 17.5 -46t45.5 -18q29 0 47.5 18t18.5 46v96h-25v-96q0 -17 -12 -29t-29 -12t-27.5 11t-10.5 30v96h-25zM438 506h-24v-158h96v23h-72v135zM557 506h-25v-158h99v23h-74v135zM778 348l66 158
h-29l-45 -117l-45 117h-29l66 -158h16zM967 506h-103v-158h103v23h-78v47h67v20h-67v45h78v23zM1055 406l26 -58h29l-31 64q25 14 25 43q0 22 -14.5 36.5t-36.5 14.5h-60v-158h25v58h37zM1278 506h-25v-158h25v158zM1442 428q0 -26 -16 -42.5t-40 -16.5q-25 0 -41 16.5
t-16 42.5q0 25 16 41t41 16q24 0 40 -16.5t16 -40.5zM1079 455q0 -12 -7.5 -20.5t-18.5 -8.5h-35v57h35q11 0 18.5 -8t7.5 -20zM2628 375l51 49l-51 49l-17 -14l27 -23h-938v-24h938l-27 -23zM1079 195q0 -51 35 -85t86 -34q52 0 86.5 34t34.5 85q0 50 -34.5 83t-86.5 33
q-51 0 -86 -33.5t-35 -82.5zM1749 172v-76q33 -20 78 -20q40 0 65 20t25 56q0 54 -74 71q-2 1 -7 2q-20 8 -21 15q0 8 22 8q36 0 66 -23v70q-37 16 -66 16q-42 0 -67 -18t-25 -51q0 -29 15.5 -45t49.5 -27q4 -2 11.5 -4t12 -3t8 -4t3.5 -7q0 -13 -18 -13q-24 0 -78 33z
M2011 195q0 -51 34.5 -85t84.5 -34q25 0 53 14l2 72q-21 -21 -51 -21q-22 0 -36.5 15.5t-14.5 38.5q0 22 14.5 36.5t36.5 14.5q20 0 45 -15v68q-21 12 -47 12q-51 0 -86 -33.5t-35 -82.5zM2191 195q0 -51 35 -85t88 -34q51 0 86 34t35 85q0 49 -35 82.5t-86 33.5
q-52 0 -87.5 -33t-35.5 -83zM133 242h74l-84 -160h194v63h-77l84 160h-191v-63zM500 305h-162v-223h164v61h-92v21h77v61h-77v19h90v61zM510 242h53v-160h72v160h53v63h-178v-63zM748 117h63l8 -35h78l-76 223h-82l-75 -223h73zM1071 305h-162v-223h72v70h76v59h-76v33h90
v61zM1550 82v223h-71v-119l-68 119h-74v-223h72l-2 108l70 -108h73zM1563 242h53v-160h72v160h51v63h-176v-63zM2521 305h-72v-223h72v88l29 -55h51l29 55v-88h69v223h-71l-54 -102zM1249 195q0 -23 -13.5 -38.5t-35.5 -15.5t-35.5 15.5t-13.5 38.5q0 22 13.5 36.5
t35.5 14.5t35.5 -14.5t13.5 -36.5zM2363 195q0 -23 -14.5 -38.5t-34.5 -15.5q-22 0 -36.5 15.5t-14.5 38.5q0 22 14.5 36.5t36.5 14.5q20 0 34.5 -14.5t14.5 -36.5zM780 229l15 -53h-31l14 53h2zM1927 111q0 -14 10 -24.5t27 -10.5q15 0 25 10.5t10 24.5t-10 23t-25 9
q-17 0 -27 -9t-10 -23z" />
    <glyph glyph-name="colon" unicode=":" horiz-adv-x="563" 
d="M563 1130l-61 -292h-322l62 292h321zM0 0l61 291h324l-61 -291h-324z" />
    <glyph glyph-name="semicolon" unicode=";" horiz-adv-x="563" 
d="M502 838h-322l60 290h323zM4 -297l-47 115q73 43 111 82.5t51 99.5h-119l61 291h310q-2 -111 -21.5 -198.5t-50 -147.5t-79 -107.5t-98.5 -77t-118 -57.5z" />
    <glyph glyph-name="less" unicode="&#x3c;" horiz-adv-x="806" 
d="M113 780l632 498l113 -152l-530 -415l354 -412l-174 -152l-424 498z" />
    <glyph glyph-name="equal" unicode="=" horiz-adv-x="645" 
d="M719 1040l-45 -206h-588l45 206h588zM637 659l-45 -208h-588l45 208h588z" />
    <glyph glyph-name="greater" unicode="&#x3e;" horiz-adv-x="806" 
d="M758 653l-633 -497l-113 151l531 416l-355 412l174 151l424 -498z" />
    <glyph glyph-name="question" unicode="?" horiz-adv-x="823" 
d="M487 449h-231q19 134 68.5 230.5t144.5 174.5q54 49 87 92.5t44 97.5q15 68 -19.5 103t-105.5 35q-108 0 -260 -82l-8 264q213 92 381 92q185 0 275 -97t52 -274q-9 -43 -27.5 -83.5t-34.5 -67t-50.5 -64t-50 -52.5t-57.5 -54l-4 -4t-3.5 -3t-4 -3.5l-3.5 -3.5
q-83 -78 -125.5 -142t-67.5 -159zM125 0l59 291h324l-62 -291h-321z" />
    <glyph glyph-name="at" unicode="@" horiz-adv-x="1673" 
d="M1087 1454q139 0 246.5 -34t177.5 -98.5t109.5 -156t42 -207t-24.5 -251.5q-24 -113 -72.5 -218t-116 -189t-157 -134.5t-186.5 -50.5q-194 0 -211 164q-66 -78 -145 -121t-158 -43q-137 0 -189 100t-12 270q19 81 53 163t84 159t108 136.5t130.5 95.5t146.5 36
q141 0 179 -139l51 141l243 -12l-225 -616q-15 -40 -22 -69.5t-6 -54t14.5 -37t40.5 -12.5q85 0 167 130.5t120 310.5q61 281 -50.5 426t-373.5 145q-105 0 -208 -31.5t-202 -97.5t-181.5 -161t-147.5 -229t-99 -294q-19 -98 -20 -182.5t27.5 -153t81 -117.5t140.5 -76
t207 -28q59 0 119 8l-37 -166q-86 -8 -123 -8q-328 2 -481.5 187t-79.5 536q61 290 216.5 514t370 344.5t453.5 120.5zM731 344q46 0 100.5 53t94.5 124.5t55 133.5q22 96 -2.5 143.5t-85.5 47.5q-55 0 -107 -55.5t-84.5 -128.5t-50.5 -150q-43 -168 80 -168z" />
    <glyph glyph-name="A" unicode="A" horiz-adv-x="1163" 
d="M1028 0h-301l-6 244h-387l-109 -244h-329l677 1434h385zM700 1061l-256 -574h271z" />
    <glyph glyph-name="B" unicode="B" horiz-adv-x="1122" 
d="M856 741q90 -30 139 -96t49 -164q0 -65 -18 -129t-60.5 -128.5t-105.5 -113.5t-161.5 -79.5t-219.5 -30.5h-483l305 1434h434q188 0 297 -78.5t109 -225.5q0 -127 -73.5 -234.5t-211.5 -154.5zM477 840h125q59 0 104 20t70 52.5t37 69.5t12 77q0 117 -155 117h-121z
M352 258h142q126 0 188.5 65t62.5 152q0 65 -40 98t-115 33h-164z" />
    <glyph glyph-name="C" unicode="C" horiz-adv-x="1007" 
d="M535 -25q-216 0 -339.5 126.5t-123.5 351.5q0 130 29 266.5t91 269t148 236t211 167.5t270 64q171 0 314 -86l-134 -264q-91 65 -213 65q-74 0 -140.5 -49.5t-111.5 -126t-78.5 -169t-49 -180t-15.5 -157.5q0 -227 195 -227q138 0 256 68l22 -269q-70 -39 -159 -62.5
t-172 -23.5z" />
    <glyph glyph-name="D" unicode="D" horiz-adv-x="1204" 
d="M430 0h-434l305 1434h406q236 0 362.5 -122t126.5 -351q0 -130 -29 -262.5t-91 -258.5t-150 -223.5t-216.5 -157t-279.5 -59.5zM549 1161l-189 -889h99q82 0 153 49.5t117 124.5t79 166t47.5 173t14.5 147q0 113 -53 171t-155 58h-113z" />
    <glyph glyph-name="E" unicode="E" horiz-adv-x="989" 
d="M1098 1434l-58 -267h-493l-66 -307h430l-55 -256h-428l-72 -338h506l-57 -266h-809l305 1434h797z" />
    <glyph glyph-name="F" unicode="F" horiz-adv-x="944" 
d="M1087 1434l-57 -269h-481l-80 -377h426l-55 -260h-426l-113 -528h-305l305 1434h786z" />
    <glyph glyph-name="G" unicode="G" horiz-adv-x="1122" 
d="M760 537h-98l53 243h381l-146 -682q-226 -123 -436 -123t-326 126t-116 348q0 112 21.5 228.5t62.5 229.5t106 212.5t146 175t188.5 119.5t228.5 44q194 0 334 -80l-131 -274q-49 32 -112 51t-117 19q-81 0 -151 -48.5t-116 -124.5t-79.5 -170t-48.5 -184t-15 -168
q0 -106 45 -161.5t129 -55.5q74 0 146 31z" />
    <glyph glyph-name="H" unicode="H" horiz-adv-x="1212" 
d="M844 848l123 586h315l-305 -1434h-313l122 578h-354l-123 -578h-313l305 1434h313l-125 -586h355z" />
    <glyph glyph-name="I" unicode="I" horiz-adv-x="538" 
d="M303 0h-307l305 1434h305z" />
    <glyph glyph-name="J" unicode="J" horiz-adv-x="808" 
d="M143 -25q-127 0 -235 58l110 262q75 -37 164 -37q164 0 213 227l146 682h-162l57 267h465l-205 -963q-53 -246 -197 -371t-356 -125z" />
    <glyph glyph-name="K" unicode="K" horiz-adv-x="1140" 
d="M920 1434h370l-553 -715l260 -719h-329l-230 639l-135 -639h-305l305 1434h305l-123 -580z" />
    <glyph glyph-name="L" unicode="L" horiz-adv-x="894" 
d="M750 0h-754l305 1434h313l-247 -1166h440z" />
    <glyph glyph-name="M" unicode="M" horiz-adv-x="1382" 
d="M698 627l426 807h303l-243 -1434h-293l131 762l-389 -762h-123l-59 762l-199 -762h-293l367 1434h292z" />
    <glyph glyph-name="N" unicode="N" horiz-adv-x="1210" 
d="M293 0h-297l305 1434h277l235 -783l168 783h297l-303 -1434h-266l-244 805z" />
    <glyph glyph-name="O" unicode="O" horiz-adv-x="1220" 
d="M516 -25q-207 0 -324.5 123t-117.5 353q0 103 19.5 215t56.5 225t96.5 214.5t134 180.5t175.5 125.5t214 46.5q208 0 325 -121t117 -352q0 -103 -19.5 -215t-56.5 -225.5t-96.5 -215.5t-134 -181.5t-175.5 -126t-214 -46.5zM559 262q59 0 114 56t93.5 141.5t68 184
t44 186t14.5 145.5q0 98 -43 148.5t-123 50.5q-59 0 -114.5 -56t-94 -141.5t-68 -184.5t-43.5 -186.5t-14 -146.5q0 -96 43 -146.5t123 -50.5z" />
    <glyph glyph-name="P" unicode="P" horiz-adv-x="1069" 
d="M692 1434q199 0 313.5 -98.5t114.5 -280.5q0 -86 -21.5 -173.5t-70 -173.5t-118.5 -152t-176.5 -107t-235.5 -41h-111l-86 -408h-305l305 1434h391zM444 672h78q70 0 127 34.5t90 86.5t50.5 107.5t17.5 103.5q0 77 -40.5 121t-113.5 44h-102z" />
    <glyph glyph-name="Q" unicode="Q" horiz-adv-x="1222" 
d="M967 217q104 39 204 35l-55 -250q-105 0 -289.5 -11.5t-273.5 -13.5q-12 -2 -37 -2h-14h-17q-193 9 -302 132t-109 344q0 103 19.5 215t56.5 225t96.5 214.5t134 180.5t175.5 125.5t214 46.5q208 0 325 -121t117 -352q0 -193 -64 -404t-181 -364zM393 459
q0 -96 43 -146.5t123 -50.5q59 0 114 56t93.5 141.5t68 184t44 186t14.5 145.5q0 98 -43 148.5t-123 50.5q-59 0 -114.5 -56t-94 -141.5t-68 -184.5t-43.5 -186.5t-14 -146.5z" />
    <glyph glyph-name="R" unicode="R" horiz-adv-x="1087" 
d="M1124 1077q0 -81 -18.5 -160.5t-56 -156t-102.5 -141t-150 -103.5l137 -516h-322l-114 457h-101l-96 -457h-305l305 1434h393q201 0 315.5 -94t114.5 -263zM455 717h77q71 0 127 29.5t87.5 76t48 95.5t16.5 94q0 73 -40.5 115t-115.5 42h-104z" />
    <glyph glyph-name="S" unicode="S" horiz-adv-x="937" 
d="M340 -25q-230 0 -399 82l94 269q63 -34 145 -55t150 -21q96 0 152.5 44t56.5 116q0 59 -34 103t-108 101q-76 47 -126.5 93.5t-85.5 118t-35 157.5q0 205 145 340t373 135q192 0 352 -80l-98 -268q-135 72 -248 72q-89 0 -141 -42.5t-52 -113.5q0 -56 34.5 -100.5
t107.5 -96.5q243 -145 243 -372q0 -212 -147.5 -347t-378.5 -135z" />
    <glyph glyph-name="T" unicode="T" horiz-adv-x="937" 
d="M213 1434h883l-60 -273h-288l-246 -1161h-305l243 1161h-286z" />
    <glyph glyph-name="U" unicode="U" horiz-adv-x="1124" 
d="M446 -25q-83 0 -149.5 18t-111 51t-74 76.5t-42.5 97t-12.5 110.5t13.5 118l209 988h307l-211 -983q-10 -37 -8 -73t12.5 -64.5t39.5 -46t75 -17.5q78 0 132.5 51t75.5 150l209 983h306l-211 -988q-46 -220 -193.5 -345.5t-366.5 -125.5z" />
    <glyph glyph-name="V" unicode="V" horiz-adv-x="1110" 
d="M612 0h-348l-61 1434h305l10 -1020h4l428 1020h328z" />
    <glyph glyph-name="W" unicode="W" horiz-adv-x="1609" 
d="M1071 428l393 1006h314l-602 -1434h-336l16 799l-326 -799h-329l2 1434h305l-33 -1006l383 1006h248z" />
    <glyph glyph-name="X" unicode="X" horiz-adv-x="1110" 
d="M897 1434h346l-446 -703l172 -731h-324l-96 514l-297 -514h-350l475 729l-150 705h324l76 -478z" />
    <glyph glyph-name="Y" unicode="Y" horiz-adv-x="1024" 
d="M870 1434h332l-563 -994l-94 -440h-305l94 442l-141 992h313l53 -631z" />
    <glyph glyph-name="Z" unicode="Z" horiz-adv-x="960" 
d="M784 0h-847l40 197l664 964h-444l57 273h827l-43 -195l-661 -967h465z" />
    <glyph glyph-name="bracketleft" unicode="[" horiz-adv-x="673" 
d="M446 -369h-579l401 1885h580l-49 -234h-267l-303 -1417h269z" />
    <glyph glyph-name="backslash" unicode="\" horiz-adv-x="1046" 
d="M483 1454l394 -1657h-285l-391 1657h282z" />
    <glyph glyph-name="bracketright" unicode="]" horiz-adv-x="673" 
d="M229 1516h582l-401 -1885h-582l51 234h266l301 1417h-266z" />
    <glyph glyph-name="asciicircum" unicode="^" horiz-adv-x="884" 
d="M588 1198l-289 -577l-268 14l430 799h332l90 -799l-254 -14z" />
    <glyph glyph-name="underscore" unicode="_" horiz-adv-x="813" 
d="M686 -66l-68 -159h-780l66 159h782z" />
    <glyph glyph-name="grave" unicode="`" horiz-adv-x="516" 
d="M602 1280l-186 -35l-152 252l264 62z" />
    <glyph glyph-name="a" unicode="a" horiz-adv-x="1069" 
d="M768 1012l25 116h292l-239 -1128h-293l20 98q-118 -123 -270 -123q-131 0 -204.5 89t-73.5 251q0 91 20.5 199.5t64.5 221.5t103.5 205t146 151t183.5 59q157 0 225 -139zM440 240q70 0 129.5 70.5t92.5 203.5l20 90q9 48 7 98.5t-11 92.5t-36 69t-69 27q-43 0 -83 -40.5
t-68.5 -101.5t-49.5 -131.5t-31.5 -132t-10.5 -102.5q0 -143 110 -143z" />
    <glyph glyph-name="b" unicode="b" horiz-adv-x="1071" 
d="M532 -25q-164 0 -231 136l-22 -111h-295l321 1511h293l-100 -481q116 121 270 121q130 0 204.5 -88.5t74.5 -251.5q0 -90 -20.5 -198.5t-64.5 -221.5t-103 -205.5t-145 -151.5t-182 -59zM498 238q53 0 101 60t77 145t46 167t17 135q0 144 -112 144q-77 0 -135 -79
t-89 -220q-16 -93 -17 -171t27.5 -129.5t84.5 -51.5z" />
    <glyph glyph-name="c" unicode="c" horiz-adv-x="821" 
d="M412 -25q-179 0 -278 104.5t-99 291.5q0 104 24.5 212t76 209.5t122 181.5t170 128.5t213.5 48.5q151 0 258 -66l-125 -251q-73 51 -158 51q-67 0 -122.5 -48.5t-88.5 -122t-51 -151.5t-18 -145q0 -82 39.5 -128t109.5 -46q84 0 174 47l19 -248q-130 -68 -266 -68z" />
    <glyph glyph-name="d" unicode="d" horiz-adv-x="1073" 
d="M301 -25q-129 0 -201.5 89.5t-72.5 252.5q0 75 15 163.5t43 182.5t72.5 181t99.5 155.5t129 110t155 41.5q163 0 231 -131l105 491h292l-321 -1511h-293l23 100q-120 -125 -277 -125zM444 240q75 0 134 80t92 217q34 158 9.5 255t-104.5 97q-54 0 -102.5 -60.5
t-77.5 -145t-46 -167t-17 -135.5q0 -141 112 -141z" />
    <glyph glyph-name="e" unicode="e" horiz-adv-x="968" 
d="M870 471h-534q-4 -50 -4 -65q0 -173 151 -173q48 0 113 16.5t123 43.5l8 -238q-148 -80 -311 -80q-177 0 -280 107.5t-103 294.5q0 100 24.5 206.5t75 208t119 181.5t164 129t202.5 49q157 0 245.5 -90t88.5 -248q0 -152 -82 -342zM578 905q-60 0 -110.5 -68.5
t-86.5 -174.5h276q19 87 19 129q0 55 -26.5 84.5t-71.5 29.5z" />
    <glyph glyph-name="f" unicode="f" horiz-adv-x="673" 
d="M713 1307q-96 0 -125 -129l-10 -50h204l-51 -251h-207l-186 -877h-293l184 877h-116l51 251h119l16 78q76 355 399 355q126 0 211 -29l-84 -240q-52 15 -112 15z" />
    <glyph glyph-name="g" unicode="g" horiz-adv-x="1069" 
d="M287 -375q-182 0 -334 82l115 236q108 -68 229 -68q220 0 289 285q0 3 1 9t1 9q-121 -135 -277 -135q-131 0 -202.5 87.5t-71.5 242.5q0 128 38 265t102.5 251.5t162 188t205.5 73.5q158 0 225 -137l25 114h292l-192 -909q-61 -287 -216 -440.5t-392 -153.5zM451 289
q49 0 96 47t78 116t50 146t19 139q0 75 -30 116.5t-84 41.5q-64 0 -121.5 -85t-88 -192t-30.5 -190q0 -67 29 -103t82 -36z" />
    <glyph glyph-name="h" unicode="h" horiz-adv-x="1042" 
d="M764 1151q145 0 205.5 -103.5t19.5 -297.5l-160 -750h-292l155 731q32 154 -78 154q-54 0 -102.5 -42t-81.5 -122l-151 -721h-295l321 1511h293l-104 -497q111 137 270 137z" />
    <glyph glyph-name="i" unicode="i" horiz-adv-x="495" 
d="M535 1239h-306l56 258h305zM274 0h-292l239 1128h293z" />
    <glyph glyph-name="j" unicode="j" horiz-adv-x="507" 
d="M543 1239h-305l55 258h305zM-252 -342l62 229q24 -8 69 -8q88 0 117 139l235 1110h295l-239 -1128q-40 -187 -141 -277t-250 -90q-84 0 -148 25z" />
    <glyph glyph-name="k" unicode="k" horiz-adv-x="1001" 
d="M764 1128h338l-451 -569l213 -559h-311l-172 485l-102 -485h-295l321 1511h293l-178 -845z" />
    <glyph glyph-name="l" unicode="l" horiz-adv-x="501" 
d="M279 0h-295l321 1511h293z" />
    <glyph glyph-name="m" unicode="m" horiz-adv-x="1536" 
d="M1253 1151q147 0 209.5 -101t20.5 -300l-160 -750h-293l154 725q18 85 0.5 121.5t-64.5 36.5q-105 0 -166 -152l-153 -731h-295l153 725q33 158 -61 158q-51 0 -95.5 -41t-74.5 -119l-154 -723h-292l239 1128h293l-18 -88q97 111 239 111q190 0 230 -164q118 164 288 164
z" />
    <glyph glyph-name="n" unicode="n" horiz-adv-x="1038" 
d="M774 1151q144 0 199.5 -98.5t13.5 -292.5l-160 -760h-295l156 731q35 154 -78 154q-44 0 -93 -38.5t-85 -103.5l-158 -743h-292l239 1128h293l-29 -133q125 156 289 156z" />
    <glyph glyph-name="o" unicode="o" horiz-adv-x="1028" 
d="M401 -25q-177 0 -271.5 104.5t-94.5 295.5q0 80 16.5 167t48 174.5t82 165.5t114 139t149.5 96.5t182 35.5q177 0 271.5 -104t94.5 -293q0 -80 -16.5 -167t-48 -174.5t-82 -166.5t-114 -140t-149.5 -97t-182 -36zM455 242q53 0 100 57t76 138t46 160t17 132
q0 76 -32.5 117t-88.5 41q-52 0 -99 -56t-76.5 -135.5t-46.5 -159.5t-17 -135q0 -76 32 -117.5t89 -41.5z" />
    <glyph glyph-name="p" unicode="p" horiz-adv-x="1069" 
d="M201 -352h-293l315 1480h293l-20 -98q116 121 272 121q129 0 202.5 -88.5t73.5 -251.5q0 -91 -20.5 -199.5t-64 -221.5t-102.5 -205t-145.5 -151t-183.5 -59q-164 0 -229 134zM496 238q53 0 101 60t77 145t46 167t17 135q0 144 -110 144q-66 0 -126.5 -83t-93 -193
t-32.5 -203q0 -74 31.5 -123t89.5 -49z" />
    <glyph glyph-name="q" unicode="q" horiz-adv-x="1069" 
d="M770 -352h-293l96 450q-118 -123 -272 -123q-130 0 -203 89.5t-73 252.5q0 74 15 163t43 182.5t73 180.5t100 156t128.5 110.5t154.5 41.5q167 0 231 -131l25 108h292zM442 240q68 0 128 87.5t91 197.5t31 198q0 78 -31 122t-88 44q-53 0 -101.5 -60.5t-78 -145
t-46.5 -167t-17 -135.5q0 -71 29.5 -106t82.5 -35z" />
    <glyph glyph-name="r" unicode="r" horiz-adv-x="694" 
d="M719 1147q43 0 78 -12l-88 -304q-49 11 -95 11q-76 0 -135 -79.5t-92 -232.5l-113 -530h-292l239 1128h293l-25 -120q95 139 230 139z" />
    <glyph glyph-name="s" unicode="s" horiz-adv-x="804" 
d="M270 -23q-196 0 -340 66l86 248q127 -62 260 -62q63 0 102.5 29t39.5 78q2 38 -26.5 72.5t-94.5 74.5q-100 48 -152.5 113t-52.5 162q0 172 120.5 282.5t311.5 110.5q165 0 303 -61l-86 -250q-105 57 -221 57q-59 0 -95 -25t-36 -67q0 -44 28.5 -76.5t88.5 -64.5
q108 -54 158.5 -123t50.5 -176q0 -163 -123 -275.5t-322 -112.5z" />
    <glyph glyph-name="t" unicode="t" horiz-adv-x="763" 
d="M338 -25q-159 0 -217 92.5t-23 258.5l119 551h-106l30 139l131 127l224 227h118l-53 -242h244l-53 -251h-242l-113 -521q-22 -114 66 -114q51 0 133 28l-6 -245q-136 -50 -252 -50z" />
    <glyph glyph-name="u" unicode="u" horiz-adv-x="1040" 
d="M606 385l158 743h293l-240 -1128h-293l29 133q-125 -156 -289 -156q-144 0 -199.5 99t-13.5 293l160 759h295l-156 -731q-34 -153 78 -153q44 0 93 38t85 103z" />
    <glyph glyph-name="v" unicode="v" horiz-adv-x="1001" 
d="M559 0h-344l-74 1128h293l15 -772h4l329 772h318z" />
    <glyph glyph-name="w" unicode="w" horiz-adv-x="1433" 
d="M926 377l295 751h307l-506 -1128h-299l8 641l-256 -641h-301l-29 1128h297l-18 -751l291 751h231z" />
    <glyph glyph-name="x" unicode="x" horiz-adv-x="1009" 
d="M762 1128h325l-389 -561l174 -567h-313l-94 373l-240 -373h-327l417 582l-153 546h313l76 -340z" />
    <glyph glyph-name="y" unicode="y" horiz-adv-x="1001" 
d="M457 346l325 782h318l-557 -1128l-174 -350h-297l159 323h-6l-84 1155h297l15 -782h4z" />
    <glyph glyph-name="z" unicode="z" horiz-adv-x="856" 
d="M690 0h-760l37 182l533 690h-373l53 256h742l-39 -182l-533 -690h393z" />
    <glyph glyph-name="braceleft" unicode="{" horiz-adv-x="761" 
d="M936 1513l-49 -231q-131 -7 -184.5 -54.5t-69.5 -152.5q-6 -34 -18 -120t-21 -132q-48 -234 -299 -250v-2q243 -16 192 -249q-7 -35 -18.5 -76t-27.5 -95t-23 -79q-28 -106 6 -154t162 -55l-51 -232q-141 -1 -236 16t-147.5 47t-72 80.5t-13.5 107t32 134.5q7 24 22 72
t24.5 78.5t20.5 70.5t17 70q21 85 -25 123.5t-149 38.5l43 209q212 0 244 160q21 113 39 292q7 78 25.5 134t59.5 106.5t106.5 80.5t168 47t242.5 15z" />
    <glyph glyph-name="bar" unicode="|" horiz-adv-x="501" 
d="M569 1434l-348 -1641h-268l348 1641h268z" />
    <glyph glyph-name="braceright" unicode="}" horiz-adv-x="761" 
d="M-170 -367l49 232q131 7 184.5 54.5t69.5 152.5q6 34 18 120t21 132q48 233 299 249v2q-243 16 -192 250q7 35 18.5 76t27.5 95t23 79q28 106 -6 154t-162 55l51 232q141 1 236.5 -16t147.5 -47.5t71.5 -81t13.5 -107t-32 -134.5q-66 -205 -84 -290q-21 -85 25 -123.5
t149 -38.5l-43 -209q-212 0 -244 -160q-20 -111 -39 -293q-7 -78 -25.5 -134t-59.5 -106.5t-106.5 -80.5t-168 -47t-242.5 -15z" />
    <glyph glyph-name="asciitilde" unicode="~" horiz-adv-x="765" 
d="M317 1159l-157 33q25 95 92 151t158 56q60 0 140 -36t105 -36q33 0 61 23.5t40 60.5l155 -31q-26 -97 -91.5 -153t-155.5 -56q-47 0 -96 18t-88.5 36t-63.5 18q-33 0 -60 -23.5t-39 -60.5z" />
    <glyph glyph-name="uni00A0" unicode="&#xa0;" horiz-adv-x="528" 
 />
    <glyph glyph-name="exclamdown" unicode="&#xa1;" horiz-adv-x="565" 
d="M565 1128l-61 -292h-324l62 292h323zM354 244l-116 -551h-297l116 549l142 438h200z" />
    <glyph glyph-name="cent" unicode="&#xa2;" horiz-adv-x="870" 
d="M616 885q-67 0 -122.5 -48.5t-88.5 -122t-51 -151.5t-18 -145q0 -82 39.5 -128t109.5 -46q84 0 174 47l19 -248q-130 -68 -266 -68h-6l-87 -274h-202l100 317q-89 44 -135.5 134.5t-46.5 218.5q0 123 36.5 251t102.5 240t171.5 190.5t232.5 94.5l90 289h202l-94 -299
q66 -15 123 -52l-125 -251q-73 51 -158 51z" />
    <glyph glyph-name="sterling" unicode="&#xa3;" horiz-adv-x="993" 
d="M788 1180q-97 0 -155 -62.5t-86 -191.5l-41 -197h305l-35 -168h-307l-66 -315h490l-53 -248h-922l41 192l147 41l70 330h-145l35 168h145l41 191q55 259 203.5 397.5t365.5 138.5q140 0 269 -90l-140 -244q-76 58 -162 58z" />
    <glyph glyph-name="yen" unicode="&#xa5;" horiz-adv-x="1024" 
d="M315 578l-122 856h319l49 -641l322 641h319l-489 -856h145l-27 -136h-192l-18 -82h192l-29 -135h-190l-49 -225h-305l47 225h-189l27 135h190l19 82h-191l29 136h143z" />
    <glyph glyph-name="brokenbar" unicode="&#xa6;" horiz-adv-x="600" 
d="M618 1434l-135 -639h-270l137 639h268zM414 465l-135 -639h-271l137 639h269z" />
    <glyph glyph-name="section" unicode="&#xa7;" horiz-adv-x="874" 
d="M987 1389l-100 -220q-82 40 -160 52q2 -66 17 -149.5t32.5 -152t32 -159t14 -170.5t-19.5 -187q-29 -135 -109.5 -232.5t-193 -145.5t-244.5 -48q-149 0 -301 70l100 217q73 -36 160 -49q-2 66 -17 149.5t-32.5 151.5t-32 158.5t-14 170t19.5 185.5q43 203 193.5 314.5
t353.5 111.5q149 0 301 -67zM545 401q16 75 16.5 158t-9.5 153t-19.5 154t-14 161.5t7.5 176.5q-106 -47 -131 -170q-19 -92 -15.5 -197.5t18.5 -191t21.5 -197.5t-5.5 -217q105 45 131 170z" />
    <glyph glyph-name="dieresis" unicode="&#xa8;" horiz-adv-x="669" 
d="M416 1253h-203l53 258h205zM752 1253h-203l55 258h201z" />
    <glyph glyph-name="copyright" unicode="&#xa9;" horiz-adv-x="1415" 
d="M584 -20q-134 0 -241 52t-173 147.5t-88 231t14 302.5q47 220 168.5 390t286 259.5t344.5 89.5q136 0 243 -52t172 -148.5t86 -233t-16 -305.5q-46 -218 -166.5 -386.5t-284.5 -257.5t-345 -89zM612 123q216 0 393.5 163t233.5 427q57 269 -50.5 432.5t-324.5 163.5
q-215 0 -390.5 -163.5t-231.5 -432.5q-36 -181 -1 -312t133 -204.5t238 -73.5zM649 260q-170 0 -248 127t-34 334q43 205 176 332t309 127q202 0 272 -183l-194 -125q-40 68 -115 68q-68 0 -123.5 -59.5t-77.5 -157.5q-20 -97 9 -160t96 -63q78 0 145 67l142 -125
q-144 -182 -357 -182z" />
    <glyph glyph-name="ordfeminine" unicode="&#xaa;" horiz-adv-x="595" 
d="M496 1536q129 0 176.5 -69t21.5 -191l-78 -361h-192l12 62q-67 -74 -145 -74q-77 0 -110 53.5t-13 149.5q19 87 79 138.5t152 51.5q51 0 105 -8q19 88 -66 88q-73 0 -141 -30l-6 149q102 41 205 41zM393 1065q27 0 49.5 25.5t34.5 68.5l2 19q-18 6 -49 6q-54 0 -70 -62
q-9 -57 33 -57zM561 666h-481l35 155h481z" />
    <glyph glyph-name="guillemotleft" unicode="&#xab;" horiz-adv-x="1064" 
d="M473 156l-184 -86l-279 415l23 105l442 414l162 -84l-371 -383zM952 156l-198 -86l-295 456l4 21l489 457l162 -84l-371 -383z" />
    <glyph glyph-name="logicalnot" unicode="&#xac;" horiz-adv-x="872" 
d="M86 836h817l-8 -39l-96 -451h-236l53 252h-581z" />
    <glyph glyph-name="uni00AD" unicode="&#xad;" horiz-adv-x="643" 
d="M623 586l-52 -238h-589l51 238h590z" />
    <glyph glyph-name="registered" unicode="&#xae;" horiz-adv-x="751" 
d="M571 1489q139 0 203 -104.5t29 -274.5q-37 -170 -145 -274.5t-248 -104.5q-137 0 -201 105t-27 274q35 169 143.5 274t245.5 105zM743 1110q31 144 -20 233t-164 89q-111 0 -199.5 -89t-119.5 -233t20 -234t162 -90q113 0 201.5 89.5t119.5 234.5zM541 1337
q74 0 109 -37.5t20 -105.5q-18 -85 -90 -123l41 -153h-109l-27 133h-4h-35l-28 -133h-99l91 419h131zM489 1253l-26 -127h33q28 0 48.5 18t26.5 48q6 28 -7 44.5t-42 16.5h-33z" />
    <glyph glyph-name="macron" unicode="&#xaf;" horiz-adv-x="675" 
d="M756 1253h-545l39 177h543z" />
    <glyph glyph-name="degree" unicode="&#xb0;" horiz-adv-x="772" 
d="M438 815q-132 0 -205.5 95.5t-44.5 228.5q28 132 141.5 225.5t245.5 93.5q133 0 207.5 -93.5t46.5 -225.5q-28 -134 -143 -229t-248 -95zM461 918q93 0 170.5 64t97.5 157q19 91 -32.5 155t-143.5 64q-91 0 -168.5 -64t-97.5 -155q-20 -93 30.5 -157t143.5 -64z" />
    <glyph glyph-name="plusminus" unicode="&#xb1;" horiz-adv-x="735" 
d="M592 1065l-45 -213h221l-49 -229h-221l-45 -213h-238l45 213h-221l49 229h221l45 213h238zM614 160h-663l43 205h665z" />
    <glyph glyph-name="uni00B2" unicode="&#xb2;" horiz-adv-x="563" 
d="M606 952h-477l35 156q98 61 198 149q88 82 101 150q7 34 -14 53t-58 19q-50 0 -100 -35l-21 168q102 51 203 51q125 0 185.5 -59.5t37.5 -165.5q-22 -117 -161 -232q-47 -40 -78 -63h190z" />
    <glyph glyph-name="uni00B3" unicode="&#xb3;" horiz-adv-x="548" 
d="M332 940q-105 0 -203 45l78 168q25 -14 62.5 -22.5t64.5 -8.5q36 0 60 18.5t32 51.5q6 29 -8.5 47t-48.5 21h-88l24 106l154 135h-191l35 156h399l-16 -137l-154 -142q2 -1 7 -1.5t8.5 -1.5t5.5 -3q116 -45 86 -190q-24 -117 -106 -179.5t-201 -62.5z" />
    <glyph glyph-name="acute" unicode="&#xb4;" horiz-adv-x="516" 
d="M649 1497l-260 -252l-172 35l191 279z" />
    <glyph glyph-name="uni00B5" unicode="&#xb5;" horiz-adv-x="1044" 
d="M610 381l158 747h293l-240 -1128h-293l29 131q-127 -154 -289 -154h-14l-55 -327h-299l151 700q1 3 2 9.5t2 9.5l162 759h293l-156 -731q-32 -153 78 -153q45 0 93.5 36.5t84.5 100.5z" />
    <glyph glyph-name="paragraph" unicode="&#xb6;" horiz-adv-x="1257" 
d="M684 1434h236l-359 -1680h-201l166 783h-30q-223 0 -318 116t-49 334q46 217 189 332t366 115zM766 -246l356 1680h203l-356 -1680h-203z" />
    <glyph glyph-name="periodcentered" unicode="&#xb7;" horiz-adv-x="374" 
d="M72 659l53 248h272l-51 -248h-274z" />
    <glyph glyph-name="cedilla" unicode="&#xb8;" horiz-adv-x="587" 
d="M246 14l-43 -84q68 -12 99.5 -49.5t19.5 -91.5q-14 -71 -91.5 -113.5t-197.5 -42.5q-64 0 -137 15l57 133q42 -10 78 -10q64 0 73 36q5 26 -18 39.5t-84 10.5l78 157h166z" />
    <glyph glyph-name="uni00B9" unicode="&#xb9;" horiz-adv-x="411" 
d="M266 1620l168 29h168l-147 -697h-207l108 504l-106 -18z" />
    <glyph glyph-name="ordmasculine" unicode="&#xba;" horiz-adv-x="638" 
d="M393 901q-122 0 -177 84.5t-23 233.5q30 141 119.5 227t213.5 86q121 0 176 -83t23 -230q-30 -142 -120 -230t-212 -88zM430 1077q33 0 60 37t42 105q14 63 2.5 100t-45.5 37t-61.5 -35.5t-40.5 -101.5q-14 -65 -2.5 -103.5t45.5 -38.5zM588 664h-496l33 155h496z" />
    <glyph glyph-name="guillemotright" unicode="&#xbb;" horiz-adv-x="1067" 
d="M102 918l199 86l295 -457l-4 -21l-490 -458l-161 86l370 381zM582 918l184 86l278 -416l-22 -105l-442 -415l-160 86l368 381z" />
    <glyph glyph-name="onequarter" unicode="&#xbc;" horiz-adv-x="1302" 
d="M563 1464l-147 -696h-207l108 504l-106 -19l16 183l168 28h168zM-10 0l917 1434h226l-918 -1434h-225zM971 702h262l-90 -426h59l-33 -153h-59l-27 -123h-194l26 123h-286l-13 121zM827 276h123l54 256z" />
    <glyph glyph-name="onehalf" unicode="&#xbd;" horiz-adv-x="1208" 
d="M563 1464l-147 -696h-207l108 504l-106 -19l16 183l168 28h168zM-10 0l917 1434h226l-918 -1434h-225zM1139 485q-12 -62 -51 -116.5t-111 -114.5q-56 -48 -78 -64h191l-41 -190h-478l35 156q102 63 199 149q46 43 69.5 77.5t30.5 72.5q7 34 -13.5 52.5t-57.5 18.5
q-52 0 -101 -34l-20 167q104 52 202 52q125 0 186 -60t38 -166z" />
    <glyph glyph-name="threequarters" unicode="&#xbe;" horiz-adv-x="1439" 
d="M293 754q-105 0 -203 45l78 168q25 -14 62.5 -22.5t64.5 -8.5q36 0 60 18.5t32 51.5q13 61 -57 67h-88l24 107l154 135h-191l35 155h400l-17 -137l-153 -141q2 -1 6.5 -1.5t8 -1.5t5.5 -3q116 -45 86 -191q-24 -116 -106 -178.5t-201 -62.5zM352 0h-225l917 1434h226z
M1221 0h-195l27 123h-287l-12 121l354 458h262l-90 -426h59l-32 -153h-60zM1141 532l-176 -256h122z" />
    <glyph glyph-name="questiondown" unicode="&#xbf;" horiz-adv-x="835" 
d="M686 1126l-59 -290h-324l62 290h321zM324 680h231q-19 -136 -68.5 -233t-144.5 -175q-54 -49 -87 -92.5t-44 -97.5q-15 -68 19 -102.5t106 -34.5q108 0 260 82l8 -265q-216 -92 -381 -92q-185 0 -275 97t-52 274q7 33 19.5 64.5t22.5 53t34.5 52.5t33 43t42.5 45t39 37.5
t44 40.5q83 78 125.5 142t67.5 161z" />
    <glyph glyph-name="Agrave" unicode="&#xc0;" horiz-adv-x="1163" 
d="M807 1796l96 -260l-215 -12l-151 217zM1028 0h-301l-6 244h-387l-109 -244h-329l677 1434h385zM700 1061l-256 -574h271z" />
    <glyph glyph-name="Aacute" unicode="&#xc1;" horiz-adv-x="1163" 
d="M879 1796l247 -55l-243 -217l-209 12zM-104 0l677 1434h385l70 -1434h-301l-6 244h-387l-109 -244h-329zM700 1061l-256 -574h271z" />
    <glyph glyph-name="Acircumflex" unicode="&#xc2;" horiz-adv-x="1163" 
d="M866 1511l-24 148l-97 -148l-229 15l201 262h311l74 -262zM-104 0l677 1434h385l70 -1434h-301l-6 244h-387l-109 -244h-329zM700 1061l-256 -574h271z" />
    <glyph glyph-name="Atilde" unicode="&#xc3;" horiz-adv-x="1163" 
d="M711 1583q-22 0 -37.5 -17.5t-16.5 -47.5l-141 28q13 112 61.5 173t120.5 61q50 0 106.5 -28t72.5 -28q47 0 57 62l139 -23q-15 -113 -62 -174t-118 -61q-51 0 -108 27.5t-74 27.5zM-104 0l677 1434h385l70 -1434h-301l-6 244h-387l-109 -244h-329zM700 1061l-256 -574
h271z" />
    <glyph glyph-name="Adieresis" unicode="&#xc4;" horiz-adv-x="1163" 
d="M530 1765h236l-41 -247h-236zM797 1518l43 247h235l-43 -247h-235zM-104 0l677 1434h385l70 -1434h-301l-6 244h-387l-109 -244h-329zM700 1061l-256 -574h271z" />
    <glyph glyph-name="Aring" unicode="&#xc5;" horiz-adv-x="1163" 
d="M872 1888q95 0 146 -61.5t31 -153.5t-96 -152.5t-171 -60.5t-146 60.5t-32 152.5q20 92 96.5 153.5t171.5 61.5zM895 1673q7 32 -7.5 53t-43.5 21q-31 0 -56 -21t-32 -53q-6 -31 10 -51t45 -20q30 0 54 20.5t30 50.5zM-104 0l677 1434h385l70 -1434h-301l-6 244h-387
l-109 -244h-329zM700 1061l-256 -574h271z" />
    <glyph glyph-name="AE" unicode="&#xc6;" horiz-adv-x="1568" 
d="M1679 1434l-57 -267h-494l-65 -307h428l-53 -256h-428l-72 -338h506l-58 -266h-808l59 283h-272l-150 -283h-319l747 1434h1036zM819 1163l-332 -647h201l137 647h-6z" />
    <glyph glyph-name="Ccedilla" unicode="&#xc7;" horiz-adv-x="1007" 
d="M788 1171q-74 0 -140.5 -49.5t-111.5 -126t-78.5 -169t-49 -180t-15.5 -157.5q0 -227 195 -227q138 0 256 68l22 -269q-133 -75 -288 -84l-25 -49q68 -12 99.5 -49.5t19.5 -91.5q-14 -71 -91.5 -113.5t-197.5 -42.5q-64 0 -137 15l57 133q42 -10 78 -10q65 0 74 36
q5 25 -18.5 39t-84.5 11l66 131q-164 33 -255 154t-91 313q0 130 29 266.5t91 269t148 236t211 167.5t270 64q171 0 314 -86l-134 -264q-91 65 -213 65z" />
    <glyph glyph-name="Egrave" unicode="&#xc8;" horiz-adv-x="989" 
d="M733 1796l96 -260l-215 -12l-151 217zM1098 1434l-58 -267h-493l-66 -307h430l-55 -256h-428l-72 -338h506l-57 -266h-809l305 1434h797z" />
    <glyph glyph-name="Eacute" unicode="&#xc9;" horiz-adv-x="989" 
d="M805 1796l248 -55l-244 -217l-209 12zM1098 1434l-58 -267h-493l-66 -307h430l-55 -256h-428l-72 -338h506l-57 -266h-809l305 1434h797z" />
    <glyph glyph-name="Ecircumflex" unicode="&#xca;" horiz-adv-x="989" 
d="M793 1511l-25 148l-96 -148l-230 15l201 262h311l74 -262zM1098 1434l-58 -267h-493l-66 -307h430l-55 -256h-428l-72 -338h506l-57 -266h-809l305 1434h797z" />
    <glyph glyph-name="Edieresis" unicode="&#xcb;" horiz-adv-x="989" 
d="M457 1765h235l-41 -247h-235zM766 1765h235l-43 -247h-235zM1098 1434l-58 -267h-493l-66 -307h430l-55 -256h-428l-72 -338h506l-57 -266h-809l305 1434h797z" />
    <glyph glyph-name="Igrave" unicode="&#xcc;" horiz-adv-x="538" 
d="M590 1536l-215 -12l-152 217l271 55zM303 0h-307l305 1434h305z" />
    <glyph glyph-name="Iacute" unicode="&#xcd;" horiz-adv-x="538" 
d="M813 1741l-244 -217l-209 12l205 260zM303 0h-307l305 1434h305z" />
    <glyph glyph-name="Icircumflex" unicode="&#xce;" horiz-adv-x="538" 
d="M553 1511l-25 148l-96 -148l-229 15l200 262h312l73 -262zM303 0h-307l305 1434h305z" />
    <glyph glyph-name="Idieresis" unicode="&#xcf;" horiz-adv-x="538" 
d="M412 1518h-236l41 247h236zM719 1518h-236l43 247h236zM303 0h-307l305 1434h305z" />
    <glyph glyph-name="Eth" unicode="&#xd0;" horiz-adv-x="1204" 
d="M301 1434h406q236 0 362.5 -122t126.5 -351q0 -130 -29 -262.5t-91 -258.5t-150 -223.5t-216.5 -157t-279.5 -59.5h-434l137 641h-74l35 164h74zM360 272h99q82 0 153 49.5t117 124.5t79 166t47.5 173t14.5 147q0 113 -53 171t-155 58h-113l-76 -356h225l-34 -164h-226z
" />
    <glyph glyph-name="Ntilde" unicode="&#xd1;" horiz-adv-x="1210" 
d="M680 1518l-141 28q13 112 61.5 173t120.5 61q50 0 106 -28t72 -28q47 0 57 62l140 -23q-15 -113 -62.5 -174t-118.5 -61q-51 0 -108 27.5t-74 27.5q-22 0 -37 -17.5t-16 -47.5zM293 0h-297l305 1434h277l235 -783l168 783h297l-303 -1434h-266l-244 805z" />
    <glyph glyph-name="Ograve" unicode="&#xd2;" horiz-adv-x="1220" 
d="M932 1536l-215 -12l-152 217l271 55zM516 -25q-207 0 -324.5 123t-117.5 353q0 103 19.5 215t56.5 225t96.5 214.5t134 180.5t175.5 125.5t214 46.5q208 0 325 -121t117 -352q0 -103 -19.5 -215t-56.5 -225.5t-96.5 -215.5t-134 -181.5t-175.5 -126t-214 -46.5zM559 262
q59 0 114 56t93.5 141.5t68 184t44 186t14.5 145.5q0 98 -43 148.5t-123 50.5q-59 0 -114.5 -56t-94 -141.5t-68 -184.5t-43.5 -186.5t-14 -146.5q0 -96 43 -146.5t123 -50.5z" />
    <glyph glyph-name="Oacute" unicode="&#xd3;" horiz-adv-x="1220" 
d="M1155 1741l-244 -217l-209 12l205 260zM516 -25q-207 0 -324.5 123t-117.5 353q0 103 19.5 215t56.5 225t96.5 214.5t134 180.5t175.5 125.5t214 46.5q208 0 325 -121t117 -352q0 -103 -19.5 -215t-56.5 -225.5t-96.5 -215.5t-134 -181.5t-175.5 -126t-214 -46.5z
M559 262q59 0 114 56t93.5 141.5t68 184t44 186t14.5 145.5q0 98 -43 148.5t-123 50.5q-59 0 -114.5 -56t-94 -141.5t-68 -184.5t-43.5 -186.5t-14 -146.5q0 -96 43 -146.5t123 -50.5z" />
    <glyph glyph-name="Ocircumflex" unicode="&#xd4;" horiz-adv-x="1220" 
d="M895 1511l-25 148l-96 -148l-229 15l200 262h312l73 -262zM770 1458q208 0 325 -121t117 -352q0 -103 -19.5 -215t-56.5 -225.5t-96.5 -215.5t-134 -181.5t-175.5 -126t-214 -46.5q-207 0 -324.5 123t-117.5 353q0 103 19.5 215t56.5 225t96.5 214.5t134 180.5
t175.5 125.5t214 46.5zM559 262q59 0 114 56t93.5 141.5t68 184t44 186t14.5 145.5q0 98 -43 148.5t-123 50.5q-59 0 -114.5 -56t-94 -141.5t-68 -184.5t-43.5 -186.5t-14 -146.5q0 -96 43 -146.5t123 -50.5z" />
    <glyph glyph-name="Otilde" unicode="&#xd5;" horiz-adv-x="1220" 
d="M686 1518l-141 28q13 112 61.5 173t120.5 61q50 0 106 -28t72 -28q48 0 58 62l139 -23q-15 -113 -62 -174t-118 -61q-51 0 -108.5 27.5t-74.5 27.5q-22 0 -37 -17.5t-16 -47.5zM516 -25q-207 0 -324.5 123t-117.5 353q0 103 19.5 215t56.5 225t96.5 214.5t134 180.5
t175.5 125.5t214 46.5q208 0 325 -121t117 -352q0 -103 -19.5 -215t-56.5 -225.5t-96.5 -215.5t-134 -181.5t-175.5 -126t-214 -46.5zM559 262q59 0 114 56t93.5 141.5t68 184t44 186t14.5 145.5q0 98 -43 148.5t-123 50.5q-59 0 -114.5 -56t-94 -141.5t-68 -184.5
t-43.5 -186.5t-14 -146.5q0 -96 43 -146.5t123 -50.5z" />
    <glyph glyph-name="Odieresis" unicode="&#xd6;" horiz-adv-x="1220" 
d="M752 1518h-236l41 247h236zM1059 1518h-236l43 247h236zM516 -25q-207 0 -324.5 123t-117.5 353q0 103 19.5 215t56.5 225t96.5 214.5t134 180.5t175.5 125.5t214 46.5q208 0 325 -121t117 -352q0 -103 -19.5 -215t-56.5 -225.5t-96.5 -215.5t-134 -181.5t-175.5 -126
t-214 -46.5zM559 262q59 0 114 56t93.5 141.5t68 184t44 186t14.5 145.5q0 98 -43 148.5t-123 50.5q-59 0 -114.5 -56t-94 -141.5t-68 -184.5t-43.5 -186.5t-14 -146.5q0 -96 43 -146.5t123 -50.5z" />
    <glyph glyph-name="multiply" unicode="&#xd7;" horiz-adv-x="696" 
d="M588 913l-86 -323l-6 -4l55 -140l-180 -63l-43 109l-183 -103l86 324l7 4l-56 139l183 66l43 -111z" />
    <glyph glyph-name="Oslash" unicode="&#xd8;" horiz-adv-x="1220" 
d="M1186 1470l123 -86l-140 -163q43 -98 43 -236q0 -103 -19.5 -215t-56.5 -225.5t-96.5 -215.5t-134 -181.5t-175.5 -126t-214 -46.5q-196 0 -311 109l-96 -113l-121 86l131 154q-45 96 -45 240q0 103 19.5 215t56.5 225t96.5 214.5t134 180.5t175.5 125.5t214 46.5
q199 0 313 -108zM727 1174q-64 0 -123.5 -66t-99.5 -166.5t-67 -204t-38 -194.5l469 553q-41 78 -141 78zM559 262q64 0 122.5 65t99 164.5t67.5 201.5t39 194l-467 -549q40 -76 139 -76z" />
    <glyph glyph-name="Ugrave" unicode="&#xd9;" horiz-adv-x="1124" 
d="M885 1536l-215 -12l-152 217l270 55zM446 -25q-83 0 -149.5 18t-111 51t-74 76.5t-42.5 97t-12.5 110.5t13.5 118l209 988h307l-211 -983q-10 -37 -8 -73t12.5 -64.5t39.5 -46t75 -17.5q78 0 132.5 51t75.5 150l209 983h306l-211 -988q-46 -220 -193.5 -345.5
t-366.5 -125.5z" />
    <glyph glyph-name="Uacute" unicode="&#xda;" horiz-adv-x="1124" 
d="M1108 1741l-244 -217l-209 12l205 260zM446 -25q-83 0 -149.5 18t-111 51t-74 76.5t-42.5 97t-12.5 110.5t13.5 118l209 988h307l-211 -983q-10 -37 -8 -73t12.5 -64.5t39.5 -46t75 -17.5q78 0 132.5 51t75.5 150l209 983h306l-211 -988q-46 -220 -193.5 -345.5
t-366.5 -125.5z" />
    <glyph glyph-name="Ucircumflex" unicode="&#xdb;" horiz-adv-x="1124" 
d="M848 1511l-25 148l-96 -148l-229 15l200 262h312l73 -262zM702 451l209 983h306l-211 -988q-46 -220 -193.5 -345.5t-366.5 -125.5q-83 0 -149.5 18t-111 51t-74 76.5t-42.5 97t-12.5 110.5t13.5 118l209 988h307l-211 -983q-10 -37 -8 -73t12.5 -64.5t39.5 -46t75 -17.5
q78 0 132.5 51t75.5 150z" />
    <glyph glyph-name="Udieresis" unicode="&#xdc;" horiz-adv-x="1124" 
d="M705 1518h-236l41 247h235zM1012 1518h-236l43 247h236zM446 -25q-83 0 -149.5 18t-111 51t-74 76.5t-42.5 97t-12.5 110.5t13.5 118l209 988h307l-211 -983q-10 -37 -8 -73t12.5 -64.5t39.5 -46t75 -17.5q78 0 132.5 51t75.5 150l209 983h306l-211 -988
q-46 -220 -193.5 -345.5t-366.5 -125.5z" />
    <glyph glyph-name="Yacute" unicode="&#xdd;" horiz-adv-x="1024" 
d="M809 1796l248 -55l-244 -217l-209 12zM870 1434h332l-563 -994l-94 -440h-305l94 442l-141 992h313l53 -631z" />
    <glyph glyph-name="Thorn" unicode="&#xde;" horiz-adv-x="1067" 
d="M563 1233h107q193 0 300 -94t107 -271q0 -85 -21 -173.5t-70 -176.5t-118.5 -156.5t-176 -111.5t-234.5 -43h-113l-43 -207h-305l305 1434h305zM399 465h99q54 0 99.5 24.5t75.5 63t51 85.5t30.5 91t9.5 82q0 77 -40 120.5t-114 43.5h-102z" />
    <glyph glyph-name="germandbls" unicode="&#xdf;" horiz-adv-x="1087" 
d="M836 780q80 -21 128 -91.5t48 -176.5q0 -98 -30.5 -192t-86.5 -169.5t-142.5 -122t-189.5 -46.5q-144 0 -213 38l74 244q57 -26 113 -26q50 0 88.5 30t58.5 76t29.5 88.5t9.5 77.5q0 64 -35 98.5t-96 34.5q-49 0 -76 -8l45 215q103 20 167.5 118t64.5 199q0 51 -26 81
t-71 30q-67 0 -119 -58t-75 -163l-223 -1053l-295 -4l225 1057q45 219 186 349t350 130q160 0 253.5 -81.5t93.5 -223.5q0 -137 -71.5 -267.5t-184.5 -183.5z" />
    <glyph glyph-name="agrave" unicode="&#xe0;" horiz-adv-x="1069" 
d="M707 1559l73 -279l-186 -35l-152 252zM768 1012l25 116h292l-239 -1128h-293l20 98q-118 -123 -270 -123q-131 0 -204.5 89t-73.5 251q0 91 20.5 199.5t64.5 221.5t103.5 205t146 151t183.5 59q157 0 225 -139zM440 240q70 0 129.5 70.5t92.5 203.5l20 90q9 48 7 98.5
t-11 92.5t-36 69t-69 27q-43 0 -83 -40.5t-68.5 -101.5t-49.5 -131.5t-31.5 -132t-10.5 -102.5q0 -143 110 -143z" />
    <glyph glyph-name="aacute" unicode="&#xe1;" horiz-adv-x="1069" 
d="M756 1559l241 -62l-260 -252l-172 35zM768 1012l25 116h292l-239 -1128h-293l20 98q-118 -123 -270 -123q-131 0 -204.5 89t-73.5 251q0 91 20.5 199.5t64.5 221.5t103.5 205t146 151t183.5 59q157 0 225 -139zM440 240q70 0 129.5 70.5t92.5 203.5l20 90q9 48 7 98.5
t-11 92.5t-36 69t-69 27q-43 0 -83 -40.5t-68.5 -101.5t-49.5 -131.5t-31.5 -132t-10.5 -102.5q0 -143 110 -143z" />
    <glyph glyph-name="acircumflex" unicode="&#xe2;" horiz-adv-x="1069" 
d="M719 1229l-25 160l-90 -160l-219 16l193 287h294l72 -287zM768 1012l25 116h292l-239 -1128h-293l20 98q-118 -123 -270 -123q-131 0 -204.5 89t-73.5 251q0 91 20.5 199.5t64.5 221.5t103.5 205t146 151t183.5 59q157 0 225 -139zM440 240q70 0 129.5 70.5t92.5 203.5
l20 90q9 48 7 98.5t-11 92.5t-36 69t-69 27q-43 0 -83 -40.5t-68.5 -101.5t-49.5 -131.5t-31.5 -132t-10.5 -102.5q0 -143 110 -143z" />
    <glyph glyph-name="atilde" unicode="&#xe3;" horiz-adv-x="1069" 
d="M600 1300q-22 0 -37 -16.5t-16 -46.5l-141 27q13 112 61 172.5t121 60.5q50 0 106 -26.5t72 -26.5q48 0 57 61l140 -24q-15 -112 -62.5 -173t-118.5 -61q-52 0 -108.5 26.5t-73.5 26.5zM768 1012l25 116h292l-239 -1128h-293l20 98q-118 -123 -270 -123q-131 0 -204.5 89
t-73.5 251q0 91 20.5 199.5t64.5 221.5t103.5 205t146 151t183.5 59q157 0 225 -139zM440 240q70 0 129.5 70.5t92.5 203.5l20 90q9 48 7 98.5t-11 92.5t-36 69t-69 27q-43 0 -83 -40.5t-68.5 -101.5t-49.5 -131.5t-31.5 -132t-10.5 -102.5q0 -143 110 -143z" />
    <glyph glyph-name="adieresis" unicode="&#xe4;" horiz-adv-x="1069" 
d="M453 1511h202l-55 -258h-203zM788 1511h203l-55 -258h-203zM768 1012l25 116h292l-239 -1128h-293l20 98q-118 -123 -270 -123q-131 0 -204.5 89t-73.5 251q0 91 20.5 199.5t64.5 221.5t103.5 205t146 151t183.5 59q157 0 225 -139zM440 240q70 0 129.5 70.5t92.5 203.5
l20 90q9 48 7 98.5t-11 92.5t-36 69t-69 27q-43 0 -83 -40.5t-68.5 -101.5t-49.5 -131.5t-31.5 -132t-10.5 -102.5q0 -143 110 -143z" />
    <glyph glyph-name="aring" unicode="&#xe5;" horiz-adv-x="1069" 
d="M655 1200q-95 0 -145.5 61.5t-30.5 153.5q20 93 95.5 154t170.5 61t146 -61.5t31 -153.5t-96 -153.5t-171 -61.5zM631 1415q-6 -32 9 -52t44 -20q30 0 55 20t31 52t-9 53t-44 21q-31 0 -55.5 -21t-30.5 -53zM768 1012l25 116h292l-239 -1128h-293l20 98
q-118 -123 -270 -123q-131 0 -204.5 89t-73.5 251q0 91 20.5 199.5t64.5 221.5t103.5 205t146 151t183.5 59q157 0 225 -139zM440 240q70 0 129.5 70.5t92.5 203.5l20 90q9 48 7 98.5t-11 92.5t-36 69t-69 27q-43 0 -83 -40.5t-68.5 -101.5t-49.5 -131.5t-31.5 -132
t-10.5 -102.5q0 -143 110 -143z" />
    <glyph glyph-name="ae" unicode="&#xe6;" horiz-adv-x="1495" 
d="M1399 471h-535q-4 -50 -4 -65q0 -173 152 -173q109 0 235 60l8 -238q-148 -80 -311 -80q-119 0 -206 50t-132 141q-159 -191 -364 -191q-123 0 -192.5 67.5t-69.5 184.5q0 59 14 119t46.5 122t81 109t124 77t168.5 30q106 0 186 -12l4 22q41 209 -127 209
q-55 0 -120.5 -18t-114.5 -49l-27 231q165 84 352 84q198 0 267 -125q141 125 313 125q157 0 245.5 -90t88.5 -248q0 -152 -82 -342zM1106 905q-60 0 -110.5 -68.5t-86.5 -174.5h277q18 83 18 129q0 55 -26.5 84.5t-71.5 29.5zM356 221q66 0 124 64.5t87 191.5q0 2 1 6t1 6
q-48 11 -125 11q-81 0 -126.5 -64t-45.5 -135q0 -37 23 -58.5t61 -21.5z" />
    <glyph glyph-name="ccedilla" unicode="&#xe7;" horiz-adv-x="821" 
d="M616 885q-67 0 -122.5 -48.5t-88.5 -122t-51 -151.5t-18 -145q0 -82 39.5 -128t109.5 -46q84 0 174 47l19 -248q-104 -56 -219 -66l-25 -47q68 -12 99.5 -49.5t19.5 -91.5q-14 -71 -91.5 -113.5t-197.5 -42.5q-64 0 -137 15l57 133q42 -10 78 -10q65 0 74 36
q5 25 -18.5 39t-84.5 11l66 131q-127 31 -195.5 130t-68.5 253q0 104 24.5 212t76 209.5t122 181.5t170 128.5t213.5 48.5q151 0 258 -66l-125 -251q-73 51 -158 51z" />
    <glyph glyph-name="egrave" unicode="&#xe8;" horiz-adv-x="968" 
d="M680 1559l74 -279l-187 -35l-151 252zM870 471h-534q-4 -50 -4 -65q0 -173 151 -173q48 0 113 16.5t123 43.5l8 -238q-148 -80 -311 -80q-177 0 -280 107.5t-103 294.5q0 100 24.5 206.5t75 208t119 181.5t164 129t202.5 49q157 0 245.5 -90t88.5 -248q0 -152 -82 -342z
M578 905q-60 0 -110.5 -68.5t-86.5 -174.5h276q19 87 19 129q0 55 -26.5 84.5t-71.5 29.5z" />
    <glyph glyph-name="eacute" unicode="&#xe9;" horiz-adv-x="968" 
d="M731 1559l242 -62l-260 -252l-172 35zM618 1151q157 0 245.5 -90t88.5 -248q0 -152 -82 -342h-534q-4 -50 -4 -65q0 -173 151 -173q48 0 113 16.5t123 43.5l8 -238q-148 -80 -311 -80q-177 0 -280 107.5t-103 294.5q0 100 24.5 206.5t75 208t119 181.5t164 129t202.5 49z
M381 662h276q19 87 19 129q0 55 -26.5 84.5t-71.5 29.5q-60 0 -110.5 -68.5t-86.5 -174.5z" />
    <glyph glyph-name="ecircumflex" unicode="&#xea;" horiz-adv-x="968" 
d="M694 1229l-24 160l-90 -160l-220 16l193 287h295l72 -287zM870 471h-534q-4 -50 -4 -65q0 -173 151 -173q48 0 113 16.5t123 43.5l8 -238q-148 -80 -311 -80q-177 0 -280 107.5t-103 294.5q0 100 24.5 206.5t75 208t119 181.5t164 129t202.5 49q157 0 245.5 -90
t88.5 -248q0 -152 -82 -342zM578 905q-60 0 -110.5 -68.5t-86.5 -174.5h276q19 87 19 129q0 55 -26.5 84.5t-71.5 29.5z" />
    <glyph glyph-name="edieresis" unicode="&#xeb;" horiz-adv-x="968" 
d="M428 1511h203l-56 -258h-202zM764 1511h203l-56 -258h-202zM618 1151q157 0 245.5 -90t88.5 -248q0 -152 -82 -342h-534q-4 -50 -4 -65q0 -173 151 -173q48 0 113 16.5t123 43.5l8 -238q-148 -80 -311 -80q-177 0 -280 107.5t-103 294.5q0 100 24.5 206.5t75 208
t119 181.5t164 129t202.5 49zM381 662h276q19 87 19 129q0 55 -26.5 84.5t-71.5 29.5q-60 0 -110.5 -68.5t-86.5 -174.5z" />
    <glyph glyph-name="igrave" unicode="&#xec;" horiz-adv-x="495" 
d="M506 1280l-187 -35l-151 252l264 62zM274 0h-292l239 1128h293z" />
    <glyph glyph-name="iacute" unicode="&#xed;" horiz-adv-x="495" 
d="M723 1497l-260 -252l-172 35l190 279zM274 0h-292l239 1128h293z" />
    <glyph glyph-name="icircumflex" unicode="&#xee;" horiz-adv-x="495" 
d="M446 1229l-24 160l-90 -160l-219 16l192 287h295l72 -287zM274 0h-292l239 1128h293z" />
    <glyph glyph-name="idieresis" unicode="&#xef;" horiz-adv-x="495" 
d="M328 1253h-203l55 258h203zM664 1253h-203l55 258h203zM274 0h-292l239 1128h293z" />
    <glyph glyph-name="eth" unicode="&#xf0;" horiz-adv-x="1013" 
d="M979 1413l-74 -51q99 -148 99 -379q0 -81 -11.5 -172t-36.5 -189t-61 -190.5t-89 -176t-116.5 -145.5t-148 -98.5t-179.5 -36.5q-164 0 -255 88t-91 250q0 65 14 137.5t41 147.5t70.5 142.5t97 120.5t126 84.5t153.5 31.5q122 0 182 -117q9 70 9 117q0 133 -45 219
l-150 -104l-55 102l131 92q-62 47 -160 53l145 197q147 -3 252 -88l97 68zM412 211q111 0 202 268q5 106 -20 178t-80 72q-56 0 -105.5 -75.5t-74 -165t-23.5 -150.5q0 -61 27 -94t74 -33z" />
    <glyph glyph-name="ntilde" unicode="&#xf1;" horiz-adv-x="1038" 
d="M604 1300q-22 0 -37 -16.5t-16 -46.5l-141 27q13 112 61 172.5t121 60.5q50 0 106 -26.5t72 -26.5q48 0 57 61l140 -24q-15 -112 -62.5 -173t-118.5 -61q-52 0 -108.5 26.5t-73.5 26.5zM774 1151q144 0 199.5 -98.5t13.5 -292.5l-160 -760h-295l156 731q35 154 -78 154
q-44 0 -93 -38.5t-85 -103.5l-158 -743h-292l239 1128h293l-29 -133q125 156 289 156z" />
    <glyph glyph-name="ograve" unicode="&#xf2;" horiz-adv-x="1028" 
d="M774 1280l-186 -35l-152 252l264 62zM401 -25q-177 0 -271.5 104.5t-94.5 295.5q0 80 16.5 167t48 174.5t82 165.5t114 139t149.5 96.5t182 35.5q177 0 271.5 -104t94.5 -293q0 -80 -16.5 -167t-48 -174.5t-82 -166.5t-114 -140t-149.5 -97t-182 -36zM455 242
q53 0 100 57t76 138t46 160t17 132q0 76 -32.5 117t-88.5 41q-52 0 -99 -56t-76.5 -135.5t-46.5 -159.5t-17 -135q0 -76 32 -117.5t89 -41.5z" />
    <glyph glyph-name="oacute" unicode="&#xf3;" horiz-adv-x="1028" 
d="M991 1497l-260 -252l-172 35l191 279zM401 -25q-177 0 -271.5 104.5t-94.5 295.5q0 80 16.5 167t48 174.5t82 165.5t114 139t149.5 96.5t182 35.5q177 0 271.5 -104t94.5 -293q0 -80 -16.5 -167t-48 -174.5t-82 -166.5t-114 -140t-149.5 -97t-182 -36zM455 242
q53 0 100 57t76 138t46 160t17 132q0 76 -32.5 117t-88.5 41q-52 0 -99 -56t-76.5 -135.5t-46.5 -159.5t-17 -135q0 -76 32 -117.5t89 -41.5z" />
    <glyph glyph-name="ocircumflex" unicode="&#xf4;" horiz-adv-x="1028" 
d="M715 1229l-25 160l-90 -160l-219 16l192 287h295l72 -287zM627 1153q177 0 271.5 -104t94.5 -293q0 -80 -16.5 -167t-48 -174.5t-82 -166.5t-114 -140t-149.5 -97t-182 -36q-177 0 -271.5 104.5t-94.5 295.5q0 80 16.5 167t48 174.5t82 165.5t114 139t149.5 96.5
t182 35.5zM455 242q53 0 100 57t76 138t46 160t17 132q0 76 -32.5 117t-88.5 41q-52 0 -99 -56t-76.5 -135.5t-46.5 -159.5t-17 -135q0 -76 32 -117.5t89 -41.5z" />
    <glyph glyph-name="otilde" unicode="&#xf5;" horiz-adv-x="1028" 
d="M541 1237l-142 27q13 111 61.5 172t121.5 61q50 0 106 -26.5t72 -26.5q48 0 57 61l139 -24q-15 -112 -62 -173t-118 -61q-52 0 -108.5 26.5t-73.5 26.5q-22 0 -37 -16.5t-16 -46.5zM401 -25q-177 0 -271.5 104.5t-94.5 295.5q0 80 16.5 167t48 174.5t82 165.5t114 139
t149.5 96.5t182 35.5q177 0 271.5 -104t94.5 -293q0 -80 -16.5 -167t-48 -174.5t-82 -166.5t-114 -140t-149.5 -97t-182 -36zM455 242q53 0 100 57t76 138t46 160t17 132q0 76 -32.5 117t-88.5 41q-52 0 -99 -56t-76.5 -135.5t-46.5 -159.5t-17 -135q0 -76 32 -117.5
t89 -41.5z" />
    <glyph glyph-name="odieresis" unicode="&#xf6;" horiz-adv-x="1028" 
d="M594 1253h-203l55 258h203zM930 1253h-203l55 258h203zM401 -25q-177 0 -271.5 104.5t-94.5 295.5q0 80 16.5 167t48 174.5t82 165.5t114 139t149.5 96.5t182 35.5q177 0 271.5 -104t94.5 -293q0 -80 -16.5 -167t-48 -174.5t-82 -166.5t-114 -140t-149.5 -97t-182 -36z
M455 242q53 0 100 57t76 138t46 160t17 132q0 76 -32.5 117t-88.5 41q-52 0 -99 -56t-76.5 -135.5t-46.5 -159.5t-17 -135q0 -76 32 -117.5t89 -41.5z" />
    <glyph glyph-name="divide" unicode="&#xf7;" horiz-adv-x="720" 
d="M647 1161l-55 -258h-287l55 258h287zM743 807l-55 -217h-655l57 217h653zM170 238l55 260h287l-55 -260h-287z" />
    <glyph glyph-name="oslash" unicode="&#xf8;" horiz-adv-x="1028" 
d="M956 1169l115 -104l-108 -121q30 -79 30 -188q0 -80 -16.5 -167t-48 -174.5t-82 -166.5t-114 -140t-149.5 -97t-182 -36q-151 0 -247 80l-78 -86l-117 101l107 116q-31 82 -31 189q0 80 16.5 167t48 174.5t82 165.5t114 139t149.5 96.5t182 35.5q153 0 243 -78zM573 887
q-43 0 -83 -38t-68.5 -99t-48.5 -127t-31 -131l320 354q-30 41 -89 41zM455 242q44 0 84 39.5t68.5 102t48 128t30.5 129.5l-321 -354q31 -45 90 -45z" />
    <glyph glyph-name="ugrave" unicode="&#xf9;" horiz-adv-x="1040" 
d="M690 1559l74 -279l-186 -35l-152 252zM606 385l158 743h293l-240 -1128h-293l29 133q-125 -156 -289 -156q-144 0 -199.5 99t-13.5 293l160 759h295l-156 -731q-34 -153 78 -153q44 0 93 38t85 103z" />
    <glyph glyph-name="uacute" unicode="&#xfa;" horiz-adv-x="1040" 
d="M739 1559l242 -62l-260 -252l-172 35zM606 385l158 743h293l-240 -1128h-293l29 133q-125 -156 -289 -156q-144 0 -199.5 99t-13.5 293l160 759h295l-156 -731q-34 -153 78 -153q44 0 93 38t85 103z" />
    <glyph glyph-name="ucircumflex" unicode="&#xfb;" horiz-adv-x="1040" 
d="M705 1229l-25 160l-90 -160l-219 16l192 287h295l72 -287zM606 385l158 743h293l-240 -1128h-293l29 133q-125 -156 -289 -156q-144 0 -199.5 99t-13.5 293l160 759h295l-156 -731q-34 -153 78 -153q44 0 93 38t85 103z" />
    <glyph glyph-name="udieresis" unicode="&#xfc;" horiz-adv-x="1040" 
d="M436 1511h203l-55 -258h-203zM772 1511h203l-55 -258h-203zM606 385l158 743h293l-240 -1128h-293l29 133q-125 -156 -289 -156q-144 0 -199.5 99t-13.5 293l160 759h295l-156 -731q-34 -153 78 -153q44 0 93 38t85 103z" />
    <glyph glyph-name="yacute" unicode="&#xfd;" horiz-adv-x="1001" 
d="M737 1559l242 -62l-260 -252l-172 35zM457 346l325 782h318l-557 -1128l-174 -350h-297l159 323h-6l-84 1155h297l15 -782h4z" />
    <glyph glyph-name="thorn" unicode="&#xfe;" horiz-adv-x="1073" 
d="M205 -352h-295l397 1863h295l-102 -481q116 121 272 121q129 0 203 -89t74 -251q0 -91 -20.5 -199.5t-64 -221.5t-103 -205t-146 -151t-183.5 -59q-164 0 -229 134zM500 238q53 0 101 60t77 145t46 167t17 135q0 144 -110 144q-67 0 -127.5 -83t-92.5 -193t-32 -203
q0 -74 31.5 -123t89.5 -49z" />
    <glyph glyph-name="ydieresis" unicode="&#xff;" horiz-adv-x="1001" 
d="M434 1509h203l-55 -258h-203zM770 1509h203l-55 -258h-203zM457 346l325 782h318l-557 -1128l-174 -350h-297l159 323h-6l-84 1155h297l15 -782h4z" />
    <glyph glyph-name="Amacron" unicode="&#x100;" horiz-adv-x="1163" 
d="M510 1546l37 176h545l-37 -176h-545zM-104 0l677 1434h385l70 -1434h-301l-6 244h-387l-109 -244h-329zM700 1061l-256 -574h271z" />
    <glyph glyph-name="amacron" unicode="&#x101;" horiz-adv-x="1069" 
d="M424 1430h543l-37 -177h-545zM768 1012l25 116h292l-239 -1128h-293l20 98q-118 -123 -270 -123q-131 0 -204.5 89t-73.5 251q0 91 20.5 199.5t64.5 221.5t103.5 205t146 151t183.5 59q157 0 225 -139zM440 240q70 0 129.5 70.5t92.5 203.5l20 90q9 48 7 98.5t-11 92.5
t-36 69t-69 27q-43 0 -83 -40.5t-68.5 -101.5t-49.5 -131.5t-31.5 -132t-10.5 -102.5q0 -143 110 -143z" />
    <glyph glyph-name="Abreve" unicode="&#x102;" horiz-adv-x="1163" 
d="M778 1487q-274 0 -215 287l205 2q-26 -123 45 -123q70 0 96 123l205 -2q-62 -287 -336 -287zM-104 0l677 1434h385l70 -1434h-301l-6 244h-387l-109 -244h-329zM700 1061l-256 -574h271z" />
    <glyph glyph-name="abreve" unicode="&#x103;" horiz-adv-x="1069" 
d="M659 1219q-275 0 -215 286l207 2q-26 -123 43 -123q36 0 60 30t39 93l202 -2q-62 -286 -336 -286zM768 1012l25 116h292l-239 -1128h-293l20 98q-118 -123 -270 -123q-131 0 -204.5 89t-73.5 251q0 91 20.5 199.5t64.5 221.5t103.5 205t146 151t183.5 59q157 0 225 -139z
M440 240q70 0 129.5 70.5t92.5 203.5l20 90q9 48 7 98.5t-11 92.5t-36 69t-69 27q-43 0 -83 -40.5t-68.5 -101.5t-49.5 -131.5t-31.5 -132t-10.5 -102.5q0 -143 110 -143z" />
    <glyph glyph-name="Aogonek" unicode="&#x104;" horiz-adv-x="1163" 
d="M1028 0h-2q-110 -80 -125 -158q-8 -42 20 -61t95 -8l-21 -166q-205 -47 -297 3t-69 163q14 65 65.5 124t120.5 103h-88l-6 244h-387l-109 -244h-329l677 1434h385zM700 1061l-256 -574h271z" />
    <glyph glyph-name="aogonek" unicode="&#x105;" horiz-adv-x="1069" 
d="M1085 1128l-239 -1128q-110 -80 -125 -158q-8 -42 20 -61t95 -8l-21 -166q-205 -47 -297 3t-69 163q14 65 65.5 124t120.5 103h-82l20 98q-118 -123 -270 -123q-131 0 -204.5 89t-73.5 251q0 91 20.5 199.5t64.5 221.5t103.5 205t146 151t183.5 59q157 0 225 -139l25 116
h292zM440 240q70 0 129.5 70.5t92.5 203.5l20 90q9 48 7 98.5t-11 92.5t-36 69t-69 27q-43 0 -83 -40.5t-68.5 -101.5t-49.5 -131.5t-31.5 -132t-10.5 -102.5q0 -143 110 -143z" />
    <glyph glyph-name="Cacute" unicode="&#x106;" horiz-adv-x="1007" 
d="M1165 1741l-243 -217l-209 12l205 260zM535 -25q-216 0 -339.5 126.5t-123.5 351.5q0 130 29 266.5t91 269t148 236t211 167.5t270 64q171 0 314 -86l-134 -264q-91 65 -213 65q-74 0 -140.5 -49.5t-111.5 -126t-78.5 -169t-49 -180t-15.5 -157.5q0 -227 195 -227
q138 0 256 68l22 -269q-70 -39 -159 -62.5t-172 -23.5z" />
    <glyph glyph-name="cacute" unicode="&#x107;" horiz-adv-x="821" 
d="M979 1497l-260 -252l-172 35l190 279zM412 -25q-179 0 -278 104.5t-99 291.5q0 104 24.5 212t76 209.5t122 181.5t170 128.5t213.5 48.5q151 0 258 -66l-125 -251q-73 51 -158 51q-67 0 -122.5 -48.5t-88.5 -122t-51 -151.5t-18 -145q0 -82 39.5 -128t109.5 -46
q84 0 174 47l19 -248q-130 -68 -266 -68z" />
    <glyph glyph-name="Ccircumflex" unicode="&#x108;" horiz-adv-x="1007" 
d="M905 1511l-24 148l-97 -148l-229 15l201 262h311l74 -262zM72 453q0 130 29 266.5t91 269t148 236t211 167.5t270 64q171 0 314 -86l-134 -264q-91 65 -213 65q-74 0 -140.5 -49.5t-111.5 -126t-78.5 -169t-49 -180t-15.5 -157.5q0 -227 195 -227q138 0 256 68l22 -269
q-70 -39 -159 -62.5t-172 -23.5q-216 0 -339.5 126.5t-123.5 351.5z" />
    <glyph glyph-name="ccircumflex" unicode="&#x109;" horiz-adv-x="821" 
d="M700 1229l-24 160l-90 -160l-219 16l192 287h295l72 -287zM35 371q0 104 24.5 212t76 209.5t122 181.5t170 128.5t213.5 48.5q151 0 258 -66l-125 -251q-73 51 -158 51q-67 0 -122.5 -48.5t-88.5 -122t-51 -151.5t-18 -145q0 -82 39.5 -128t109.5 -46q84 0 174 47
l19 -248q-130 -68 -266 -68q-179 0 -278 104.5t-99 291.5z" />
    <glyph glyph-name="Cdotaccent" unicode="&#x10a;" horiz-adv-x="1007" 
d="M977 1522h-303l55 250h303zM535 -25q-216 0 -339.5 126.5t-123.5 351.5q0 130 29 266.5t91 269t148 236t211 167.5t270 64q171 0 314 -86l-134 -264q-91 65 -213 65q-74 0 -140.5 -49.5t-111.5 -126t-78.5 -169t-49 -180t-15.5 -157.5q0 -227 195 -227q138 0 256 68
l22 -269q-70 -39 -159 -62.5t-172 -23.5z" />
    <glyph glyph-name="cdotaccent" unicode="&#x10b;" horiz-adv-x="821" 
d="M788 1239h-305l56 258h305zM412 -25q-179 0 -278 104.5t-99 291.5q0 104 24.5 212t76 209.5t122 181.5t170 128.5t213.5 48.5q151 0 258 -66l-125 -251q-73 51 -158 51q-67 0 -122.5 -48.5t-88.5 -122t-51 -151.5t-18 -145q0 -82 39.5 -128t109.5 -46q84 0 174 47
l19 -248q-130 -68 -266 -68z" />
    <glyph glyph-name="Ccaron" unicode="&#x10c;" horiz-adv-x="1007" 
d="M672 1526l-84 256l233 14l31 -143l90 143l229 -14l-192 -256h-307zM72 453q0 130 29 266.5t91 269t148 236t211 167.5t270 64q171 0 314 -86l-134 -264q-91 65 -213 65q-74 0 -140.5 -49.5t-111.5 -126t-78.5 -169t-49 -180t-15.5 -157.5q0 -227 195 -227q138 0 256 68
l22 -269q-70 -39 -159 -62.5t-172 -23.5q-216 0 -339.5 126.5t-123.5 351.5z" />
    <glyph glyph-name="ccaron" unicode="&#x10d;" horiz-adv-x="821" 
d="M483 1223l-61 284l225 17l25 -160l92 160l217 -17l-184 -284h-314zM35 371q0 104 24.5 212t76 209.5t122 181.5t170 128.5t213.5 48.5q151 0 258 -66l-125 -251q-73 51 -158 51q-67 0 -122.5 -48.5t-88.5 -122t-51 -151.5t-18 -145q0 -82 39.5 -128t109.5 -46
q84 0 174 47l19 -248q-130 -68 -266 -68q-179 0 -278 104.5t-99 291.5z" />
    <glyph glyph-name="Dcaron" unicode="&#x10e;" horiz-adv-x="1204" 
d="M547 1526l-84 256l233 14l31 -143l90 143l230 -14l-193 -256h-307zM301 1434h406q236 0 362.5 -122t126.5 -351q0 -130 -29 -262.5t-91 -258.5t-150 -223.5t-216.5 -157t-279.5 -59.5h-434zM360 272h99q82 0 153 49.5t117 124.5t79 166t47.5 173t14.5 147q0 113 -53 171
t-155 58h-113z" />
    <glyph glyph-name="dcaron" unicode="&#x10f;" horiz-adv-x="1073" 
d="M301 -25q-129 0 -201.5 89.5t-72.5 252.5q0 75 15 163.5t43 182.5t72.5 181t99.5 155.5t129 110t155 41.5q163 0 231 -131l105 491h292l-321 -1511h-293l23 100q-120 -125 -277 -125zM1157 1147l72 364h207l-127 -364h-152zM444 240q75 0 134 80t92 217q34 158 9.5 255
t-104.5 97q-54 0 -102.5 -60.5t-77.5 -145t-46 -167t-17 -135.5q0 -141 112 -141z" />
    <glyph glyph-name="Dcroat" unicode="&#x110;" horiz-adv-x="1204" 
d="M301 1434h406q236 0 362.5 -122t126.5 -351q0 -130 -29 -262.5t-91 -258.5t-150 -223.5t-216.5 -157t-279.5 -59.5h-434l137 641h-74l35 164h74zM360 272h99q82 0 153 49.5t117 124.5t79 166t47.5 173t14.5 147q0 113 -53 171t-155 58h-113l-76 -356h225l-34 -164h-226z
" />
    <glyph glyph-name="dcroat" unicode="&#x111;" horiz-adv-x="1073" 
d="M1143 1389h84l-31 -156h-86l-262 -1233h-293l23 100q-120 -125 -277 -125q-129 0 -201.5 89.5t-72.5 252.5q0 75 15 163.5t43 182.5t72.5 181t99.5 155.5t129 110t155 41.5q163 0 231 -131l45 213h-186l33 153h186l27 125h292zM670 537q34 158 9.5 255t-104.5 97
q-54 0 -102.5 -60.5t-77.5 -145t-46 -167t-17 -135.5q0 -141 112 -141q75 0 134 80t92 217z" />
    <glyph glyph-name="Emacron" unicode="&#x112;" horiz-adv-x="989" 
d="M473 1722h545l-37 -176h-545zM1098 1434l-58 -267h-493l-66 -307h430l-55 -256h-428l-72 -338h506l-57 -266h-809l305 1434h797z" />
    <glyph glyph-name="emacron" unicode="&#x113;" horiz-adv-x="968" 
d="M399 1430h543l-37 -177h-545zM870 471h-534q-4 -50 -4 -65q0 -173 151 -173q48 0 113 16.5t123 43.5l8 -238q-148 -80 -311 -80q-177 0 -280 107.5t-103 294.5q0 100 24.5 206.5t75 208t119 181.5t164 129t202.5 49q157 0 245.5 -90t88.5 -248q0 -152 -82 -342zM578 905
q-60 0 -110.5 -68.5t-86.5 -174.5h276q19 87 19 129q0 55 -26.5 84.5t-71.5 29.5z" />
    <glyph glyph-name="Ebreve" unicode="&#x114;" horiz-adv-x="989" 
d="M705 1487q-275 0 -216 287l205 2q-26 -123 45 -123t97 123l204 -2q-62 -287 -335 -287zM1098 1434l-58 -267h-493l-66 -307h430l-55 -256h-428l-72 -338h506l-57 -266h-809l305 1434h797z" />
    <glyph glyph-name="ebreve" unicode="&#x115;" horiz-adv-x="968" 
d="M635 1219q-275 0 -215 286l207 2q-26 -123 43 -123q36 0 59.5 29.5t38.5 93.5l203 -2q-62 -286 -336 -286zM618 1151q157 0 245.5 -90t88.5 -248q0 -152 -82 -342h-534q-4 -50 -4 -65q0 -173 151 -173q48 0 113 16.5t123 43.5l8 -238q-148 -80 -311 -80
q-177 0 -280 107.5t-103 294.5q0 100 24.5 206.5t75 208t119 181.5t164 129t202.5 49zM381 662h276q19 87 19 129q0 55 -26.5 84.5t-71.5 29.5q-60 0 -110.5 -68.5t-86.5 -174.5z" />
    <glyph glyph-name="Edotaccent" unicode="&#x116;" horiz-adv-x="989" 
d="M616 1772h304l-56 -250h-303zM1098 1434l-58 -267h-493l-66 -307h430l-55 -256h-428l-72 -338h506l-57 -266h-809l305 1434h797z" />
    <glyph glyph-name="edotaccent" unicode="&#x117;" horiz-adv-x="968" 
d="M532 1497h306l-56 -258h-305zM870 471h-534q-4 -50 -4 -65q0 -173 151 -173q48 0 113 16.5t123 43.5l8 -238q-148 -80 -311 -80q-177 0 -280 107.5t-103 294.5q0 100 24.5 206.5t75 208t119 181.5t164 129t202.5 49q157 0 245.5 -90t88.5 -248q0 -152 -82 -342zM578 905
q-60 0 -110.5 -68.5t-86.5 -174.5h276q19 87 19 129q0 55 -26.5 84.5t-71.5 29.5z" />
    <glyph glyph-name="Eogonek" unicode="&#x118;" horiz-adv-x="989" 
d="M1098 1434l-58 -267h-493l-66 -307h430l-55 -256h-428l-72 -338h506l-57 -266q-110 -80 -125 -158q-8 -42 20 -61t95 -8l-21 -166q-205 -47 -297 3t-69 163q14 65 65.5 124t120.5 103h-598l305 1434h797z" />
    <glyph glyph-name="eogonek" unicode="&#x119;" horiz-adv-x="968" 
d="M870 471h-534q-4 -50 -4 -65q0 -173 151 -173q48 0 113 16.5t123 43.5l8 -238q-110 -80 -125 -157q-8 -42 20 -61.5t95 -8.5l-21 -166q-205 -47 -297 3t-69 163q17 76 88 147h-2q-177 0 -280 107.5t-103 294.5q0 100 24.5 206.5t75 208t119 181.5t164 129t202.5 49
q157 0 245.5 -90t88.5 -248q0 -152 -82 -342zM578 905q-60 0 -110.5 -68.5t-86.5 -174.5h276q19 87 19 129q0 55 -26.5 84.5t-71.5 29.5z" />
    <glyph glyph-name="Ecaron" unicode="&#x11a;" horiz-adv-x="989" 
d="M559 1526l-84 256l234 14l30 -143l90 143l230 -14l-193 -256h-307zM1098 1434l-58 -267h-493l-66 -307h430l-55 -256h-428l-72 -338h506l-57 -266h-809l305 1434h797z" />
    <glyph glyph-name="ecaron" unicode="&#x11b;" horiz-adv-x="968" 
d="M477 1223l-61 284l225 17l25 -160l92 160l217 -17l-184 -284h-314zM618 1151q157 0 245.5 -90t88.5 -248q0 -152 -82 -342h-534q-4 -50 -4 -65q0 -173 151 -173q48 0 113 16.5t123 43.5l8 -238q-148 -80 -311 -80q-177 0 -280 107.5t-103 294.5q0 100 24.5 206.5t75 208
t119 181.5t164 129t202.5 49zM381 662h276q19 87 19 129q0 55 -26.5 84.5t-71.5 29.5q-60 0 -110.5 -68.5t-86.5 -174.5z" />
    <glyph glyph-name="Gcircumflex" unicode="&#x11c;" horiz-adv-x="1122" 
d="M891 1511l-25 148l-96 -148l-229 15l200 262h312l73 -262zM760 537h-98l53 243h381l-146 -682q-226 -123 -436 -123t-326 126t-116 348q0 112 21.5 228.5t62.5 229.5t106 212.5t146 175t188.5 119.5t228.5 44q194 0 334 -80l-131 -274q-49 32 -112 51t-117 19
q-81 0 -151 -48.5t-116 -124.5t-79.5 -170t-48.5 -184t-15 -168q0 -106 45 -161.5t129 -55.5q74 0 146 31z" />
    <glyph glyph-name="gcircumflex" unicode="&#x11d;" horiz-adv-x="1069" 
d="M737 1229l-24 160l-90 -160l-220 16l193 287h295l72 -287zM770 1014l25 114h292l-192 -909q-61 -287 -216 -440.5t-392 -153.5q-182 0 -334 82l115 236q108 -68 229 -68q220 0 289 285q0 3 1 9t1 9q-121 -135 -277 -135q-131 0 -202.5 87.5t-71.5 242.5q0 128 38 265
t102.5 251.5t162 188t205.5 73.5q158 0 225 -137zM451 289q49 0 96 47t78 116t50 146t19 139q0 75 -30 116.5t-84 41.5q-64 0 -121.5 -85t-88 -192t-30.5 -190q0 -67 29 -103t82 -36z" />
    <glyph glyph-name="Gbreve" unicode="&#x11e;" horiz-adv-x="1122" 
d="M803 1487q-274 0 -215 287l205 2q-26 -123 45 -123q70 0 96 123l205 -2q-62 -287 -336 -287zM760 537h-98l53 243h381l-146 -682q-226 -123 -436 -123t-326 126t-116 348q0 112 21.5 228.5t62.5 229.5t106 212.5t146 175t188.5 119.5t228.5 44q194 0 334 -80l-131 -274
q-49 32 -112 51t-117 19q-81 0 -151 -48.5t-116 -124.5t-79.5 -170t-48.5 -184t-15 -168q0 -106 45 -161.5t129 -55.5q74 0 146 31z" />
    <glyph glyph-name="gbreve" unicode="&#x11f;" horiz-adv-x="1069" 
d="M678 1219q-275 0 -215 286l207 2q-26 -123 43 -123q36 0 59.5 29.5t38.5 93.5l203 -2q-62 -286 -336 -286zM770 1014l25 114h292l-192 -909q-61 -287 -216 -440.5t-392 -153.5q-182 0 -334 82l115 236q108 -68 229 -68q220 0 289 285q0 3 1 9t1 9q-121 -135 -277 -135
q-131 0 -202.5 87.5t-71.5 242.5q0 128 38 265t102.5 251.5t162 188t205.5 73.5q158 0 225 -137zM451 289q49 0 96 47t78 116t50 146t19 139q0 75 -30 116.5t-84 41.5q-64 0 -121.5 -85t-88 -192t-30.5 -190q0 -67 29 -103t82 -36z" />
    <glyph glyph-name="Gdotaccent" unicode="&#x120;" horiz-adv-x="1122" 
d="M715 1772h303l-55 -250h-304zM760 537h-98l53 243h381l-146 -682q-226 -123 -436 -123t-326 126t-116 348q0 112 21.5 228.5t62.5 229.5t106 212.5t146 175t188.5 119.5t228.5 44q194 0 334 -80l-131 -274q-49 32 -112 51t-117 19q-81 0 -151 -48.5t-116 -124.5
t-79.5 -170t-48.5 -184t-15 -168q0 -106 45 -161.5t129 -55.5q74 0 146 31z" />
    <glyph glyph-name="gdotaccent" unicode="&#x121;" horiz-adv-x="1069" 
d="M825 1239h-305l55 258h306zM287 -375q-182 0 -334 82l115 236q108 -68 229 -68q220 0 289 285q0 3 1 9t1 9q-121 -135 -277 -135q-131 0 -202.5 87.5t-71.5 242.5q0 128 38 265t102.5 251.5t162 188t205.5 73.5q158 0 225 -137l25 114h292l-192 -909
q-61 -287 -216 -440.5t-392 -153.5zM451 289q49 0 96 47t78 116t50 146t19 139q0 75 -30 116.5t-84 41.5q-64 0 -121.5 -85t-88 -192t-30.5 -190q0 -67 29 -103t82 -36z" />
    <glyph glyph-name="uni0122" unicode="&#x122;" horiz-adv-x="1122" 
d="M760 537h-98l53 243h381l-146 -682q-226 -123 -436 -123t-326 126t-116 348q0 112 21.5 228.5t62.5 229.5t106 212.5t146 175t188.5 119.5t228.5 44q194 0 334 -80l-131 -274q-49 32 -112 51t-117 19q-81 0 -151 -48.5t-116 -124.5t-79.5 -170t-48.5 -184t-15 -168
q0 -106 45 -161.5t129 -55.5q74 0 146 31zM319 -248l37 172h250q4 -87 -16 -155.5t-60.5 -116t-91 -78.5t-116.5 -53l-27 94q121 42 133 137h-109z" />
    <glyph glyph-name="uni0123" unicode="&#x123;" horiz-adv-x="1069" 
d="M844 1616l26 -92q-117 -44 -133 -138h107l-37 -174h-250q-3 87 17 156t61 116.5t92 79t117 52.5zM287 -375q-182 0 -334 82l115 236q108 -68 229 -68q220 0 289 285q0 3 1 9t1 9q-121 -135 -277 -135q-131 0 -202.5 87.5t-71.5 242.5q0 128 38 265t102.5 251.5t162 188
t205.5 73.5q158 0 225 -137l25 114h292l-192 -909q-61 -287 -216 -440.5t-392 -153.5zM451 289q49 0 96 47t78 116t50 146t19 139q0 75 -30 116.5t-84 41.5q-64 0 -121.5 -85t-88 -192t-30.5 -190q0 -67 29 -103t82 -36z" />
    <glyph glyph-name="Hcircumflex" unicode="&#x124;" horiz-adv-x="1212" 
d="M891 1511l-25 148l-96 -148l-229 15l200 262h312l73 -262zM844 848l123 586h315l-305 -1434h-313l122 578h-354l-123 -578h-313l305 1434h313l-125 -586h355z" />
    <glyph glyph-name="hcircumflex" unicode="&#x125;" horiz-adv-x="1042" 
d="M834 1554l-25 148l-96 -148l-230 15l201 262h311l74 -262zM764 1151q145 0 205.5 -103.5t19.5 -297.5l-160 -750h-292l155 731q32 154 -78 154q-54 0 -102.5 -42t-81.5 -122l-151 -721h-295l321 1511h293l-104 -497q111 137 270 137z" />
    <glyph glyph-name="Hbar" unicode="&#x126;" horiz-adv-x="1212" 
d="M1237 1223h68l-39 -174h-66l-223 -1049h-313l122 578h-354l-123 -578h-313l223 1049h-59l37 174h59l45 211h313l-45 -211h353l45 211h315zM489 848h355l41 201h-353z" />
    <glyph glyph-name="hbar" unicode="&#x127;" horiz-adv-x="1042" 
d="M764 1151q145 0 205.5 -103.5t19.5 -297.5l-160 -750h-292l155 731q32 154 -78 154q-54 0 -102.5 -42t-81.5 -122l-151 -721h-295l258 1208h-113l33 154h112l31 149h293l-31 -147h158l-31 -156h-159l-41 -194q111 137 270 137z" />
    <glyph glyph-name="Itilde" unicode="&#x128;" horiz-adv-x="538" 
d="M344 1518l-141 28q13 112 61.5 173t120.5 61q50 0 106 -28t72 -28q48 0 58 62l139 -23q-15 -113 -62 -174t-118 -61q-51 0 -108.5 27.5t-74.5 27.5q-22 0 -37 -17.5t-16 -47.5zM303 0h-307l305 1434h305z" />
    <glyph glyph-name="itilde" unicode="&#x129;" horiz-adv-x="495" 
d="M274 1237l-141 27q13 112 61 172.5t121 60.5q50 0 106.5 -26.5t72.5 -26.5q48 0 57 61l139 -24q-15 -112 -62 -173t-118 -61q-52 0 -108.5 26.5t-73.5 26.5q-23 0 -38 -16.5t-16 -46.5zM274 0h-292l239 1128h293z" />
    <glyph glyph-name="Imacron" unicode="&#x12a;" horiz-adv-x="538" 
d="M741 1546h-544l36 176h545zM303 0h-307l305 1434h305z" />
    <glyph glyph-name="imacron" unicode="&#x12b;" horiz-adv-x="495" 
d="M657 1253h-544l39 177h542zM274 0h-292l239 1128h293z" />
    <glyph glyph-name="Ibreve" unicode="&#x12c;" horiz-adv-x="538" 
d="M596 1776l205 -2q-62 -287 -336 -287t-215 287l205 2q-26 -123 45 -123q70 0 96 123zM303 0h-307l305 1434h305z" />
    <glyph glyph-name="ibreve" unicode="&#x12d;" horiz-adv-x="495" 
d="M520 1507l203 -2q-62 -286 -336 -286q-275 0 -215 286l207 2q-26 -123 43 -123q36 0 59.5 29.5t38.5 93.5zM274 0h-292l239 1128h293z" />
    <glyph glyph-name="Iogonek" unicode="&#x12e;" horiz-adv-x="538" 
d="M-4 0l305 1434h305l-303 -1434h-41q-110 -80 -125 -158q-8 -42 20 -61t95 -8l-21 -166q-205 -47 -297 3t-69 163q14 65 65.5 124t120.5 103h-55z" />
    <glyph glyph-name="iogonek" unicode="&#x12f;" horiz-adv-x="495" 
d="M229 1239l56 258h305l-55 -258h-306zM63 0h-81l239 1128h293l-240 -1128q-109 -79 -124 -158q-8 -42 19.5 -61t94.5 -8l-20 -166q-205 -47 -297.5 3t-69.5 163q14 65 65.5 124t120.5 103z" />
    <glyph glyph-name="Idotaccent" unicode="&#x130;" horiz-adv-x="538" 
d="M625 1522h-303l55 250h303zM303 0h-307l305 1434h305z" />
    <glyph glyph-name="dotlessi" unicode="&#x131;" horiz-adv-x="495" 
d="M274 0h-292l239 1128h293z" />
    <glyph glyph-name="IJ" unicode="&#x132;" horiz-adv-x="1347" 
d="M303 0h-307l305 1434h305zM682 -25q-128 0 -236 58l111 262q75 -37 164 -37q164 0 213 227l145 682h-161l57 267h465l-205 -963q-53 -246 -197 -371t-356 -125z" />
    <glyph glyph-name="ij" unicode="&#x133;" horiz-adv-x="1003" 
d="M535 1239h-306l56 258h305zM1038 1239h-305l55 258h306zM274 0h-292l239 1128h293zM244 -342l61 229q24 -8 70 -8q88 0 117 139l235 1110h295l-240 -1128q-40 -187 -141 -277t-250 -90q-83 0 -147 25z" />
    <glyph glyph-name="Jcircumflex" unicode="&#x134;" horiz-adv-x="808" 
d="M745 1511l-24 148l-96 -148l-230 15l201 262h311l74 -262zM541 1167h-162l57 267h465l-205 -963q-53 -246 -197 -371t-356 -125q-127 0 -235 58l110 262q75 -37 164 -37q164 0 213 227z" />
    <glyph glyph-name="jcircumflex" unicode="&#x135;" horiz-adv-x="507" 
d="M457 1229l-25 160l-90 -160l-219 16l192 287h295l72 -287zM-4 18l235 1110h295l-239 -1128q-40 -187 -141 -277t-250 -90q-84 0 -148 25l62 229q24 -8 69 -8q88 0 117 139z" />
    <glyph glyph-name="uni0136" unicode="&#x136;" horiz-adv-x="1140" 
d="M920 1434h370l-553 -715l260 -719h-329l-230 639l-135 -639h-305l305 1434h305l-123 -580zM289 -248l37 172h249q4 -87 -16 -155.5t-60.5 -116t-91 -78.5t-116.5 -53l-27 94q121 42 133 137h-108z" />
    <glyph glyph-name="uni0137" unicode="&#x137;" horiz-adv-x="1001" 
d="M764 1128h338l-451 -569l213 -559h-311l-172 485l-102 -485h-295l321 1511h293l-178 -845zM207 -248l37 172h250q4 -87 -16 -155.5t-61 -116t-91.5 -78.5t-116.5 -53l-27 94q121 42 133 137h-108z" />
    <glyph glyph-name="kgreenlandic" unicode="&#x138;" horiz-adv-x="1001" 
d="M764 1128h338l-451 -569l213 -559h-311l-172 487l-102 -487h-295l239 1128h293l-98 -462z" />
    <glyph glyph-name="Lacute" unicode="&#x139;" horiz-adv-x="894" 
d="M924 1741l-244 -217l-209 12l205 260zM750 0h-754l305 1434h313l-247 -1166h440z" />
    <glyph glyph-name="lacute" unicode="&#x13a;" horiz-adv-x="501" 
d="M817 1819l-244 -217l-208 12l204 260zM279 0h-295l321 1511h293z" />
    <glyph glyph-name="uni013B" unicode="&#x13b;" horiz-adv-x="894" 
d="M750 0h-754l305 1434h313l-247 -1166h440zM152 -479l-27 94q121 42 133 137h-108l36 172h250q4 -87 -16 -155.5t-60.5 -116t-91 -78.5t-116.5 -53z" />
    <glyph glyph-name="uni013C" unicode="&#x13c;" horiz-adv-x="501" 
d="M279 0h-295l321 1511h293zM-47 -479l-27 94q121 42 133 137h-108l37 172h250q4 -87 -16 -155.5t-61 -116t-91.5 -78.5t-116.5 -53z" />
    <glyph glyph-name="Lcaron" unicode="&#x13d;" horiz-adv-x="894" 
d="M750 0h-754l305 1434h313l-247 -1166h440zM803 1069l78 365h227l-139 -365h-166z" />
    <glyph glyph-name="lcaron" unicode="&#x13e;" horiz-adv-x="501" 
d="M279 0h-295l321 1511h293zM604 1147l70 364h205l-125 -364h-150z" />
    <glyph glyph-name="Ldot" unicode="&#x13f;" horiz-adv-x="1216" 
d="M750 0h-754l305 1434h313l-247 -1166h440zM938 610l47 230h254l-49 -230h-252z" />
    <glyph glyph-name="ldot" unicode="&#x140;" horiz-adv-x="770" 
d="M279 0h-295l321 1511h293zM553 473l37 176h196l-36 -176h-197z" />
    <glyph glyph-name="Lslash" unicode="&#x141;" horiz-adv-x="894" 
d="M461 711l-94 -443h440l-57 -268h-754l119 559l-76 -33l-39 136l152 65l149 707h313l-118 -557l75 32l37 -135z" />
    <glyph glyph-name="lslash" unicode="&#x142;" horiz-adv-x="501" 
d="M471 909l90 39l37 -135l-162 -72l-157 -741h-295l127 602l-82 -37l-39 135l157 68l158 743h293z" />
    <glyph glyph-name="Nacute" unicode="&#x143;" horiz-adv-x="1210" 
d="M1151 1741l-244 -217l-209 12l205 260zM293 0h-297l305 1434h277l235 -783l168 783h297l-303 -1434h-266l-244 805z" />
    <glyph glyph-name="nacute" unicode="&#x144;" horiz-adv-x="1038" 
d="M760 1559l241 -62l-260 -252l-172 35zM774 1151q144 0 199.5 -98.5t13.5 -292.5l-160 -760h-295l156 731q35 154 -78 154q-44 0 -93 -38.5t-85 -103.5l-158 -743h-292l239 1128h293l-29 -133q125 156 289 156z" />
    <glyph glyph-name="uni0145" unicode="&#x145;" horiz-adv-x="1210" 
d="M293 0h-297l305 1434h277l235 -783l168 783h297l-303 -1434h-266l-244 805zM303 -479l-27 94q122 43 134 137h-109l37 172h250q4 -87 -16 -155.5t-61 -116t-91.5 -78.5t-116.5 -53z" />
    <glyph glyph-name="uni0146" unicode="&#x146;" horiz-adv-x="1038" 
d="M774 1151q144 0 199.5 -98.5t13.5 -292.5l-160 -760h-295l156 731q35 154 -78 154q-44 0 -93 -38.5t-85 -103.5l-158 -743h-292l239 1128h293l-29 -133q125 156 289 156zM219 -248l37 172h250q4 -87 -16 -155.5t-61 -116t-91.5 -78.5t-116.5 -53l-26 94q121 42 133 137
h-109z" />
    <glyph glyph-name="Ncaron" unicode="&#x147;" horiz-adv-x="1210" 
d="M657 1526l-84 256l234 14l31 -143l90 143l229 -14l-192 -256h-308zM813 651l168 783h297l-303 -1434h-266l-244 805l-172 -805h-297l305 1434h277z" />
    <glyph glyph-name="ncaron" unicode="&#x148;" horiz-adv-x="1038" 
d="M506 1223l-62 284l226 17l24 -160l92 160l218 -17l-185 -284h-313zM774 1151q144 0 199.5 -98.5t13.5 -292.5l-160 -760h-295l156 731q35 154 -78 154q-44 0 -93 -38.5t-85 -103.5l-158 -743h-292l239 1128h293l-29 -133q125 156 289 156z" />
    <glyph glyph-name="Eng" unicode="&#x14a;" horiz-adv-x="1193" 
d="M1040 311l-65 -311l-4 -14q-35 -160 -138.5 -249t-271.5 -89q-65 0 -135 24l80 252q32 -14 63 -14q89 0 111 104l10 47l-225 744l-172 -805h-297l305 1434h277l235 -783l168 783h297l-236 -1110q0 -9 -2 -13z" />
    <glyph glyph-name="eng" unicode="&#x14b;" horiz-adv-x="1036" 
d="M774 1151q144 0 199.5 -98.5t13.5 -292.5l-86 -406l-12 -63l-15 -66l-47 -225l-4 -14q-35 -160 -136.5 -249t-266.5 -89q-66 0 -133 24l80 252q28 -14 61 -14q79 0 104 90l156 731q35 154 -78 154q-44 0 -93 -38.5t-85 -103.5l-158 -743h-292l239 1128h293l-29 -133
q125 156 289 156z" />
    <glyph glyph-name="Omacron" unicode="&#x14c;" horiz-adv-x="1220" 
d="M1083 1546h-544l36 176h545zM516 -25q-207 0 -324.5 123t-117.5 353q0 103 19.5 215t56.5 225t96.5 214.5t134 180.5t175.5 125.5t214 46.5q208 0 325 -121t117 -352q0 -103 -19.5 -215t-56.5 -225.5t-96.5 -215.5t-134 -181.5t-175.5 -126t-214 -46.5zM559 262
q59 0 114 56t93.5 141.5t68 184t44 186t14.5 145.5q0 98 -43 148.5t-123 50.5q-59 0 -114.5 -56t-94 -141.5t-68 -184.5t-43.5 -186.5t-14 -146.5q0 -96 43 -146.5t123 -50.5z" />
    <glyph glyph-name="omacron" unicode="&#x14d;" horiz-adv-x="1028" 
d="M924 1253h-545l39 177h543zM401 -25q-177 0 -271.5 104.5t-94.5 295.5q0 80 16.5 167t48 174.5t82 165.5t114 139t149.5 96.5t182 35.5q177 0 271.5 -104t94.5 -293q0 -80 -16.5 -167t-48 -174.5t-82 -166.5t-114 -140t-149.5 -97t-182 -36zM455 242q53 0 100 57t76 138
t46 160t17 132q0 76 -32.5 117t-88.5 41q-52 0 -99 -56t-76.5 -135.5t-46.5 -159.5t-17 -135q0 -76 32 -117.5t89 -41.5z" />
    <glyph glyph-name="Obreve" unicode="&#x14e;" horiz-adv-x="1220" 
d="M807 1487q-274 0 -215 287l205 2q-26 -123 45 -123q70 0 96 123l205 -2q-62 -287 -336 -287zM770 1458q208 0 325 -121t117 -352q0 -103 -19.5 -215t-56.5 -225.5t-96.5 -215.5t-134 -181.5t-175.5 -126t-214 -46.5q-207 0 -324.5 123t-117.5 353q0 103 19.5 215
t56.5 225t96.5 214.5t134 180.5t175.5 125.5t214 46.5zM559 262q59 0 114 56t93.5 141.5t68 184t44 186t14.5 145.5q0 98 -43 148.5t-123 50.5q-59 0 -114.5 -56t-94 -141.5t-68 -184.5t-43.5 -186.5t-14 -146.5q0 -96 43 -146.5t123 -50.5z" />
    <glyph glyph-name="obreve" unicode="&#x14f;" horiz-adv-x="1028" 
d="M655 1219q-275 0 -215 286l207 2q-26 -123 43 -123q36 0 59.5 29.5t38.5 93.5l203 -2q-62 -286 -336 -286zM627 1153q177 0 271.5 -104t94.5 -293q0 -80 -16.5 -167t-48 -174.5t-82 -166.5t-114 -140t-149.5 -97t-182 -36q-177 0 -271.5 104.5t-94.5 295.5q0 80 16.5 167
t48 174.5t82 165.5t114 139t149.5 96.5t182 35.5zM455 242q53 0 100 57t76 138t46 160t17 132q0 76 -32.5 117t-88.5 41q-52 0 -99 -56t-76.5 -135.5t-46.5 -159.5t-17 -135q0 -76 32 -117.5t89 -41.5z" />
    <glyph glyph-name="Ohungarumlaut" unicode="&#x150;" horiz-adv-x="1220" 
d="M944 1741l-215 -217l-203 14l174 260zM1278 1741l-213 -217l-203 14l174 260zM516 -25q-207 0 -324.5 123t-117.5 353q0 103 19.5 215t56.5 225t96.5 214.5t134 180.5t175.5 125.5t214 46.5q208 0 325 -121t117 -352q0 -103 -19.5 -215t-56.5 -225.5t-96.5 -215.5
t-134 -181.5t-175.5 -126t-214 -46.5zM559 262q59 0 114 56t93.5 141.5t68 184t44 186t14.5 145.5q0 98 -43 148.5t-123 50.5q-59 0 -114.5 -56t-94 -141.5t-68 -184.5t-43.5 -186.5t-14 -146.5q0 -96 43 -146.5t123 -50.5z" />
    <glyph glyph-name="ohungarumlaut" unicode="&#x151;" horiz-adv-x="1028" 
d="M791 1497l-226 -252l-168 35l158 279zM1116 1497l-225 -252l-168 35l158 279zM401 -25q-177 0 -271.5 104.5t-94.5 295.5q0 80 16.5 167t48 174.5t82 165.5t114 139t149.5 96.5t182 35.5q177 0 271.5 -104t94.5 -293q0 -80 -16.5 -167t-48 -174.5t-82 -166.5t-114 -140
t-149.5 -97t-182 -36zM455 242q53 0 100 57t76 138t46 160t17 132q0 76 -32.5 117t-88.5 41q-52 0 -99 -56t-76.5 -135.5t-46.5 -159.5t-17 -135q0 -76 32 -117.5t89 -41.5z" />
    <glyph glyph-name="OE" unicode="&#x152;" horiz-adv-x="1720" 
d="M1831 1434l-57 -267h-494l-66 -307h431l-56 -256h-428l-71 -338h505l-57 -266h-809l2 6q-102 -31 -196 -31q-216 0 -339.5 126.5t-123.5 351.5q0 130 29 266.5t91 269t148 236t211 167.5t270 64q104 0 211 -37l2 15h797zM588 262q109 0 207 43l174 821q-77 45 -181 45
q-74 0 -140.5 -49.5t-111.5 -126t-78.5 -169t-49 -180t-15.5 -157.5q0 -227 195 -227z" />
    <glyph glyph-name="oe" unicode="&#x153;" horiz-adv-x="1593" 
d="M1495 471h-534q-5 -63 -5 -65q0 -173 152 -173q109 0 235 60l9 -238q-148 -80 -312 -80q-197 0 -305 136q-146 -136 -334 -136q-177 0 -271.5 104.5t-94.5 295.5q0 80 16.5 167t48 174.5t82 165.5t114 139t149.5 96.5t182 35.5q201 0 295 -133q144 131 321 131
q157 0 245.5 -90t88.5 -248q0 -152 -82 -342zM1202 905q-60 0 -110 -68t-86 -175h276q18 83 18 129q0 55 -26.5 84.5t-71.5 29.5zM455 242q53 0 100 57t76 138t46 160t17 132q0 76 -32.5 117t-88.5 41q-52 0 -99 -56t-76.5 -135.5t-46.5 -159.5t-17 -135q0 -76 32 -117.5
t89 -41.5z" />
    <glyph glyph-name="Racute" unicode="&#x154;" horiz-adv-x="1087" 
d="M852 1796l248 -55l-244 -217l-209 12zM1124 1077q0 -81 -18.5 -160.5t-56 -156t-102.5 -141t-150 -103.5l137 -516h-322l-114 457h-101l-96 -457h-305l305 1434h393q201 0 315.5 -94t114.5 -263zM455 717h77q71 0 127 29.5t87.5 76t48 95.5t16.5 94q0 73 -40.5 115
t-115.5 42h-104z" />
    <glyph glyph-name="racute" unicode="&#x155;" horiz-adv-x="694" 
d="M569 1559l242 -62l-260 -252l-172 35zM514 1128l-25 -120q95 139 230 139q43 0 78 -12l-88 -304q-49 11 -95 11q-76 0 -135 -79.5t-92 -232.5l-113 -530h-292l239 1128h293z" />
    <glyph glyph-name="uni0156" unicode="&#x156;" horiz-adv-x="1087" 
d="M1124 1077q0 -81 -18.5 -160.5t-56 -156t-102.5 -141t-150 -103.5l137 -516h-322l-114 457h-101l-96 -457h-305l305 1434h393q201 0 315.5 -94t114.5 -263zM455 717h77q71 0 127 29.5t87.5 76t48 95.5t16.5 94q0 73 -40.5 115t-115.5 42h-104zM254 -248l37 172h250
q4 -87 -16 -155.5t-61 -116t-91.5 -78.5t-116.5 -53l-27 94q121 42 133 137h-108z" />
    <glyph glyph-name="uni0157" unicode="&#x157;" horiz-adv-x="694" 
d="M719 1147q43 0 78 -12l-88 -304q-49 11 -95 11q-76 0 -135 -79.5t-92 -232.5l-113 -530h-292l239 1128h293l-25 -120q95 139 230 139zM-57 -248l37 172h249q4 -87 -16 -155.5t-60.5 -116t-91 -78.5t-116.5 -53l-27 94q121 42 133 137h-108z" />
    <glyph glyph-name="Rcaron" unicode="&#x158;" horiz-adv-x="1087" 
d="M606 1526l-84 256l234 14l30 -143l91 143l229 -14l-193 -256h-307zM1124 1077q0 -81 -18.5 -160.5t-56 -156t-102.5 -141t-150 -103.5l137 -516h-322l-114 457h-101l-96 -457h-305l305 1434h393q201 0 315.5 -94t114.5 -263zM455 717h77q71 0 127 29.5t87.5 76t48 95.5
t16.5 94q0 73 -40.5 115t-115.5 42h-104z" />
    <glyph glyph-name="rcaron" unicode="&#x159;" horiz-adv-x="694" 
d="M317 1223l-61 284l225 17l25 -160l92 160l217 -17l-184 -284h-314zM514 1128l-25 -120q95 139 230 139q43 0 78 -12l-88 -304q-49 11 -95 11q-76 0 -135 -79.5t-92 -232.5l-113 -530h-292l239 1128h293z" />
    <glyph glyph-name="Sacute" unicode="&#x15a;" horiz-adv-x="937" 
d="M1030 1745l-244 -217l-208 12l204 260zM340 -25q-230 0 -399 82l94 269q63 -34 145 -55t150 -21q96 0 152.5 44t56.5 116q0 59 -34 103t-108 101q-76 47 -126.5 93.5t-85.5 118t-35 157.5q0 205 145 340t373 135q192 0 352 -80l-98 -268q-135 72 -248 72
q-89 0 -141 -42.5t-52 -113.5q0 -56 34.5 -100.5t107.5 -96.5q243 -145 243 -372q0 -212 -147.5 -347t-378.5 -135z" />
    <glyph glyph-name="sacute" unicode="&#x15b;" horiz-adv-x="804" 
d="M879 1497l-261 -252l-172 35l191 279zM270 -23q-196 0 -340 66l86 248q127 -62 260 -62q63 0 102.5 29t39.5 78q2 38 -26.5 72.5t-94.5 74.5q-100 48 -152.5 113t-52.5 162q0 172 120.5 282.5t311.5 110.5q165 0 303 -61l-86 -250q-105 57 -221 57q-59 0 -95 -25t-36 -67
q0 -44 28.5 -76.5t88.5 -64.5q108 -54 158.5 -123t50.5 -176q0 -163 -123 -275.5t-322 -112.5z" />
    <glyph glyph-name="Scircumflex" unicode="&#x15c;" horiz-adv-x="937" 
d="M770 1516l-25 147l-96 -147l-229 14l201 262h311l74 -262zM674 1182q-89 0 -141 -42.5t-52 -113.5q0 -56 34.5 -100.5t107.5 -96.5q243 -145 243 -372q0 -212 -147.5 -347t-378.5 -135q-230 0 -399 82l94 269q63 -34 145 -55t150 -21q96 0 152.5 44t56.5 116
q0 59 -34 103t-108 101q-76 47 -126.5 93.5t-85.5 118t-35 157.5q0 205 145 340t373 135q192 0 352 -80l-98 -268q-135 72 -248 72z" />
    <glyph glyph-name="scircumflex" unicode="&#x15d;" horiz-adv-x="804" 
d="M602 1229l-24 160l-91 -160l-219 16l193 287h295l71 -287zM92 758q0 172 120.5 282.5t311.5 110.5q165 0 303 -61l-86 -250q-105 57 -221 57q-59 0 -95 -25t-36 -67q0 -44 28.5 -76.5t88.5 -64.5q108 -54 158.5 -123t50.5 -176q0 -163 -123 -275.5t-322 -112.5
q-196 0 -340 66l86 248q127 -62 260 -62q63 0 102.5 29t39.5 78q2 38 -26.5 72.5t-94.5 74.5q-100 48 -152.5 113t-52.5 162z" />
    <glyph glyph-name="Scedilla" unicode="&#x15e;" horiz-adv-x="937" 
d="M674 1182q-89 0 -141 -42.5t-52 -113.5q0 -56 34.5 -100.5t107.5 -96.5q243 -145 243 -372q0 -192 -123.5 -323t-324.5 -154l-27 -50q68 -12 99.5 -49.5t19.5 -91.5q-14 -71 -91.5 -113.5t-197.5 -42.5q-64 0 -137 15l57 133q42 -10 78 -10q65 0 74 36q5 25 -18.5 39
t-84.5 11l60 123q-176 12 -309 77l94 269q63 -34 145 -55t150 -21q96 0 152.5 44t56.5 116q0 59 -34 103t-108 101q-76 47 -126.5 93.5t-85.5 118t-35 157.5q0 205 145 340t373 135q192 0 352 -80l-98 -268q-135 72 -248 72z" />
    <glyph glyph-name="scedilla" unicode="&#x15f;" horiz-adv-x="804" 
d="M520 897q-59 0 -95 -25t-36 -67q0 -44 28.5 -76.5t88.5 -64.5q108 -54 158.5 -123t50.5 -176q0 -144 -98.5 -250.5t-262.5 -130.5l-26 -54q67 -12 98.5 -49.5t19.5 -91.5q-14 -71 -91 -113.5t-197 -42.5q-65 0 -138 15l58 133q42 -10 78 -10q64 0 73 36q5 26 -18 39.5
t-84 10.5l61 125q-141 9 -258 61l86 248q127 -62 260 -62q63 0 102.5 29t39.5 78q2 38 -26.5 72.5t-94.5 74.5q-100 48 -152.5 113t-52.5 162q0 172 120.5 282.5t311.5 110.5q165 0 303 -61l-86 -250q-105 57 -221 57z" />
    <glyph glyph-name="Scaron" unicode="&#x160;" horiz-adv-x="937" 
d="M537 1530l-84 256l233 14l31 -143l90 143l229 -14l-192 -256h-307zM150 983q0 205 145 340t373 135q192 0 352 -80l-98 -268q-135 72 -248 72q-89 0 -141 -42.5t-52 -113.5q0 -56 34.5 -100.5t107.5 -96.5q243 -145 243 -372q0 -212 -147.5 -347t-378.5 -135
q-230 0 -399 82l94 269q63 -34 145 -55t150 -21q96 0 152.5 44t56.5 116q0 59 -34 103t-108 101q-76 47 -126.5 93.5t-85.5 118t-35 157.5z" />
    <glyph glyph-name="scaron" unicode="&#x161;" horiz-adv-x="804" 
d="M385 1223l-61 284l225 17l24 -160l93 160l217 -17l-185 -284h-313zM92 758q0 172 120.5 282.5t311.5 110.5q165 0 303 -61l-86 -250q-105 57 -221 57q-59 0 -95 -25t-36 -67q0 -44 28.5 -76.5t88.5 -64.5q108 -54 158.5 -123t50.5 -176q0 -163 -123 -275.5t-322 -112.5
q-196 0 -340 66l86 248q127 -62 260 -62q63 0 102.5 29t39.5 78q2 38 -26.5 72.5t-94.5 74.5q-100 48 -152.5 113t-52.5 162z" />
    <glyph glyph-name="uni0162" unicode="&#x162;" horiz-adv-x="937" 
d="M748 1161l-246 -1161h-72l-37 -70q68 -12 99.5 -49.5t19.5 -91.5q-14 -71 -91.5 -113.5t-197.5 -42.5q-64 0 -137 15l57 133q42 -10 78 -10q65 0 74 36q5 26 -18 39.5t-84 10.5l71 143h-67l243 1161h-286l59 273h883l-60 -273h-288z" />
    <glyph glyph-name="uni0163" unicode="&#x163;" horiz-adv-x="763" 
d="M752 877h-242l-113 -521q-22 -114 66 -114q51 0 133 28l-6 -245q-136 -50 -252 -50h-2l-27 -49q68 -12 99.5 -49.5t19.5 -91.5q-14 -71 -91.5 -113.5t-197.5 -42.5q-64 0 -137 15l57 133q42 -10 78 -10q65 0 74 36q5 26 -18 39.5t-84 10.5l77 155q-140 77 -88 318
l119 551h-106l30 139l131 127l224 227h118l-53 -242h244z" />
    <glyph glyph-name="Tcaron" unicode="&#x164;" horiz-adv-x="937" 
d="M522 1526l-84 256l234 14l30 -143l91 143l229 -14l-193 -256h-307zM213 1434h883l-60 -273h-288l-246 -1161h-305l243 1161h-286z" />
    <glyph glyph-name="tcaron" unicode="&#x165;" horiz-adv-x="763" 
d="M655 1182l78 364h228l-140 -364h-166zM338 -25q-159 0 -217 92.5t-23 258.5l119 551h-106l30 139l131 127l224 227h118l-53 -242h244l-53 -251h-242l-113 -521q-22 -114 66 -114q51 0 133 28l-6 -245q-136 -50 -252 -50z" />
    <glyph glyph-name="Tbar" unicode="&#x166;" horiz-adv-x="937" 
d="M1096 1434l-60 -273h-288l-76 -356h153l-34 -164h-154l-135 -641h-305l135 641h-146l35 164h146l73 356h-286l59 273h883z" />
    <glyph glyph-name="tbar" unicode="&#x167;" horiz-adv-x="763" 
d="M805 1128l-53 -251h-242l-41 -193h125l-31 -156h-129l-37 -172q-22 -114 66 -114q51 0 133 28l-6 -245q-136 -50 -252 -50q-159 0 -217 92.5t-23 258.5l43 202h-143l33 154h145l41 195h-106l30 139l131 127l224 227h118l-53 -242h244z" />
    <glyph glyph-name="Utilde" unicode="&#x168;" horiz-adv-x="1124" 
d="M639 1518l-141 28q13 112 61.5 173t120.5 61q50 0 106 -28t72 -28q47 0 57 62l140 -23q-15 -113 -62.5 -174t-118.5 -61q-51 0 -108 27.5t-74 27.5q-22 0 -37 -17.5t-16 -47.5zM446 -25q-83 0 -149.5 18t-111 51t-74 76.5t-42.5 97t-12.5 110.5t13.5 118l209 988h307
l-211 -983q-10 -37 -8 -73t12.5 -64.5t39.5 -46t75 -17.5q78 0 132.5 51t75.5 150l209 983h306l-211 -988q-46 -220 -193.5 -345.5t-366.5 -125.5z" />
    <glyph glyph-name="utilde" unicode="&#x169;" horiz-adv-x="1040" 
d="M584 1300q-23 0 -38 -16.5t-16 -46.5l-141 27q13 112 61 172.5t121 60.5q50 0 106.5 -26.5t72.5 -26.5q48 0 57 61l139 -24q-15 -112 -62 -173t-118 -61q-52 0 -108.5 26.5t-73.5 26.5zM606 385l158 743h293l-240 -1128h-293l29 133q-125 -156 -289 -156
q-144 0 -199.5 99t-13.5 293l160 759h295l-156 -731q-34 -153 78 -153q44 0 93 38t85 103z" />
    <glyph glyph-name="Umacron" unicode="&#x16a;" horiz-adv-x="1124" 
d="M1036 1546h-544l36 176h545zM446 -25q-83 0 -149.5 18t-111 51t-74 76.5t-42.5 97t-12.5 110.5t13.5 118l209 988h307l-211 -983q-10 -37 -8 -73t12.5 -64.5t39.5 -46t75 -17.5q78 0 132.5 51t75.5 150l209 983h306l-211 -988q-46 -220 -193.5 -345.5t-366.5 -125.5z" />
    <glyph glyph-name="umacron" unicode="&#x16b;" horiz-adv-x="1040" 
d="M408 1430h542l-37 -177h-544zM606 385l158 743h293l-240 -1128h-293l29 133q-125 -156 -289 -156q-144 0 -199.5 99t-13.5 293l160 759h295l-156 -731q-34 -153 78 -153q44 0 93 38t85 103z" />
    <glyph glyph-name="Ubreve" unicode="&#x16c;" horiz-adv-x="1124" 
d="M760 1487q-274 0 -215 287l205 2q-26 -123 45 -123q70 0 96 123l205 -2q-62 -287 -336 -287zM702 451l209 983h306l-211 -988q-46 -220 -193.5 -345.5t-366.5 -125.5q-83 0 -149.5 18t-111 51t-74 76.5t-42.5 97t-12.5 110.5t13.5 118l209 988h307l-211 -983
q-10 -37 -8 -73t12.5 -64.5t39.5 -46t75 -17.5q78 0 132.5 51t75.5 150z" />
    <glyph glyph-name="ubreve" unicode="&#x16d;" horiz-adv-x="1040" 
d="M643 1219q-275 0 -215 286l207 2q-26 -123 43 -123q36 0 59.5 29.5t38.5 93.5l203 -2q-62 -286 -336 -286zM606 385l158 743h293l-240 -1128h-293l29 133q-125 -156 -289 -156q-144 0 -199.5 99t-13.5 293l160 759h295l-156 -731q-34 -153 78 -153q44 0 93 38t85 103z
" />
    <glyph glyph-name="Uring" unicode="&#x16e;" horiz-adv-x="1124" 
d="M764 1460q-95 0 -146 60.5t-32 152.5q20 92 96.5 153.5t171.5 61.5t145.5 -61.5t30.5 -153.5t-95.5 -152.5t-170.5 -60.5zM793 1602q30 0 54 20.5t30 50.5q7 32 -8 53t-44 21q-31 0 -56 -21t-32 -53q-6 -31 10.5 -51t45.5 -20zM446 -25q-83 0 -149.5 18t-111 51t-74 76.5
t-42.5 97t-12.5 110.5t13.5 118l209 988h307l-211 -983q-10 -37 -8 -73t12.5 -64.5t39.5 -46t75 -17.5q78 0 132.5 51t75.5 150l209 983h306l-211 -988q-46 -220 -193.5 -345.5t-366.5 -125.5z" />
    <glyph glyph-name="uring" unicode="&#x16f;" horiz-adv-x="1040" 
d="M641 1200q-95 0 -145.5 61.5t-30.5 153.5q20 93 95.5 154t170.5 61t145.5 -61.5t30.5 -153.5q-20 -93 -95.5 -154t-170.5 -61zM616 1415q-6 -32 9.5 -52t44.5 -20q30 0 55 20t31 52t-9.5 53t-44.5 21q-31 0 -55.5 -21t-30.5 -53zM606 385l158 743h293l-240 -1128h-293
l29 133q-125 -156 -289 -156q-144 0 -199.5 99t-13.5 293l160 759h295l-156 -731q-34 -153 78 -153q44 0 93 38t85 103z" />
    <glyph glyph-name="Uhungarumlaut" unicode="&#x170;" horiz-adv-x="1124" 
d="M897 1741l-215 -217l-203 14l174 260zM1231 1741l-213 -217l-203 14l174 260zM446 -25q-83 0 -149.5 18t-111 51t-74 76.5t-42.5 97t-12.5 110.5t13.5 118l209 988h307l-211 -983q-10 -37 -8 -73t12.5 -64.5t39.5 -46t75 -17.5q78 0 132.5 51t75.5 150l209 983h306
l-211 -988q-46 -220 -193.5 -345.5t-366.5 -125.5z" />
    <glyph glyph-name="uhungarumlaut" unicode="&#x171;" horiz-adv-x="1040" 
d="M545 1559l235 -62l-225 -252l-168 35zM1106 1497l-225 -252l-168 35l157 279zM606 385l158 743h293l-240 -1128h-293l29 133q-125 -156 -289 -156q-144 0 -199.5 99t-13.5 293l160 759h295l-156 -731q-34 -153 78 -153q44 0 93 38t85 103z" />
    <glyph glyph-name="Uogonek" unicode="&#x172;" horiz-adv-x="1124" 
d="M702 451l209 983h306l-211 -988q-57 -271 -258 -391q-82 -72 -93 -133q-8 -42 20 -61t95 -8l-20 -166q-205 -47 -297.5 3t-69.5 163q14 64 66 122h-3q-83 0 -149.5 18t-111 51t-74 76.5t-42.5 97t-12.5 110.5t13.5 118l209 988h307l-211 -983q-10 -37 -8 -73t12.5 -64.5
t39.5 -46t75 -17.5q78 0 132.5 51t75.5 150z" />
    <glyph glyph-name="uogonek" unicode="&#x173;" horiz-adv-x="1040" 
d="M606 385l158 743h293l-240 -1128h-4q-110 -80 -125 -158q-8 -42 20 -61t95 -8l-21 -166q-205 -47 -297 3t-69 163q14 65 65.5 124t120.5 103h-78l29 133q-125 -156 -289 -156q-144 0 -199.5 99t-13.5 293l160 759h295l-156 -731q-34 -153 78 -153q44 0 93 38t85 103z" />
    <glyph glyph-name="Wcircumflex" unicode="&#x174;" horiz-adv-x="1609" 
d="M1092 1511l-25 148l-96 -148l-230 15l201 262h311l74 -262zM1071 428l393 1006h314l-602 -1434h-336l16 799l-326 -799h-329l2 1434h305l-33 -1006l383 1006h248z" />
    <glyph glyph-name="wcircumflex" unicode="&#x175;" horiz-adv-x="1433" 
d="M922 1229l-25 160l-90 -160l-219 16l192 287h295l72 -287zM926 377l295 751h307l-506 -1128h-299l8 641l-256 -641h-301l-29 1128h297l-18 -751l291 751h231z" />
    <glyph glyph-name="Ycircumflex" unicode="&#x176;" horiz-adv-x="1024" 
d="M797 1511l-25 148l-96 -148l-230 15l201 262h311l74 -262zM870 1434h332l-563 -994l-94 -440h-305l94 442l-141 992h313l53 -631z" />
    <glyph glyph-name="ycircumflex" unicode="&#x177;" horiz-adv-x="1001" 
d="M700 1227l-24 159l-90 -159l-219 16l192 287h295l72 -287zM457 346l325 782h318l-557 -1128l-174 -350h-297l159 323h-6l-84 1155h297l15 -782h4z" />
    <glyph glyph-name="Ydieresis" unicode="&#x178;" horiz-adv-x="1024" 
d="M461 1765h235l-41 -247h-235zM770 1765h236l-43 -247h-236zM870 1434h332l-563 -994l-94 -440h-305l94 442l-141 992h313l53 -631z" />
    <glyph glyph-name="Zacute" unicode="&#x179;" horiz-adv-x="960" 
d="M1024 1741l-244 -217l-209 12l205 260zM784 0h-847l40 197l664 964h-444l57 273h827l-43 -195l-661 -967h465z" />
    <glyph glyph-name="zacute" unicode="&#x17a;" horiz-adv-x="856" 
d="M907 1497l-260 -252l-172 35l191 279zM690 0h-760l37 182l533 690h-373l53 256h742l-39 -182l-533 -690h393z" />
    <glyph glyph-name="Zdotaccent" unicode="&#x17b;" horiz-adv-x="960" 
d="M836 1522h-304l56 250h303zM784 0h-847l40 197l664 964h-444l57 273h827l-43 -195l-661 -967h465z" />
    <glyph glyph-name="zdotaccent" unicode="&#x17c;" horiz-adv-x="856" 
d="M719 1239h-305l55 258h305zM690 0h-760l37 182l533 690h-373l53 256h742l-39 -182l-533 -690h393z" />
    <glyph glyph-name="Zcaron" unicode="&#x17d;" horiz-adv-x="960" 
d="M530 1526l-84 256l234 14l31 -143l90 143l229 -14l-192 -256h-308zM254 1434h827l-43 -195l-661 -967h465l-58 -272h-847l40 197l664 964h-444z" />
    <glyph glyph-name="zcaron" unicode="&#x17e;" horiz-adv-x="856" 
d="M414 1223l-62 284l226 17l24 -160l92 160l217 -17l-184 -284h-313zM180 1128h742l-39 -182l-533 -690h393l-53 -256h-760l37 182l533 690h-373z" />
    <glyph glyph-name="uni018F" unicode="&#x18f;" horiz-adv-x="1191" 
d="M737 1458q210 0 328.5 -132t118.5 -368q0 -99 -20.5 -208t-59 -220t-100 -210.5t-138 -177t-179 -123.5t-216.5 -46q-195 0 -302.5 122.5t-107.5 328.5q0 189 66 377h733q12 74 12 123q0 121 -54.5 189.5t-153.5 68.5q-160 0 -304 -103l-57 242q194 137 434 137zM526 242
q47 0 90 28.5t78 78.5t62.5 108.5t50.5 128.5h-426q-16 -98 -16 -150q0 -88 42.5 -141t118.5 -53z" />
    <glyph glyph-name="florin" unicode="&#x192;" horiz-adv-x="1075" 
d="M1014 1333q-53 0 -92.5 -43t-73.5 -145l-6 -19h184l-49 -229h-209l-158 -489q-72 -213 -189.5 -323t-275.5 -110q-120 0 -206 48l124 237q3 -1 13.5 -6t13 -6t11 -5t12 -4.5t11 -3t12.5 -3t12.5 -1t15.5 -0.5q92 0 162 197l149 469h-158l50 229h182l8 27
q74 217 186.5 325.5t276.5 108.5q125 0 209 -45l-123 -237q-55 28 -92 28z" />
    <glyph glyph-name="uni019D" unicode="&#x19d;" horiz-adv-x="1210" 
d="M813 651l168 783h297l-303 -1434h-266l-244 805l-94 -438l-6 -31l-72 -336h-2q-36 -158 -143 -247t-279 -89q-52 0 -137 25l82 252q30 -15 63 -15q90 0 115 107l61 274q38 170 60 246l188 881h277z" />
    <glyph glyph-name="Ohorn" unicode="&#x1a0;" horiz-adv-x="1220" 
d="M1094 1606l256 12q6 -140 -48.5 -237.5t-144.5 -131.5q55 -107 55 -264q0 -103 -19.5 -215t-56.5 -225.5t-96.5 -215.5t-134 -181.5t-175.5 -126t-214 -46.5q-207 0 -324.5 123t-117.5 353q0 103 19.5 215t56.5 225t96.5 214.5t134 180.5t175.5 125.5t214 46.5
q135 0 229 -49l2 2q44 -2 65.5 37.5t27.5 157.5zM559 262q59 0 114 56t93.5 141.5t68 184t44 186t14.5 145.5q0 98 -43 148.5t-123 50.5q-59 0 -114.5 -56t-94 -141.5t-68 -184.5t-43.5 -186.5t-14 -146.5q0 -96 43 -146.5t123 -50.5z" />
    <glyph glyph-name="ohorn" unicode="&#x1a1;" horiz-adv-x="1028" 
d="M901 1305l256 12q6 -141 -49 -239t-147 -132q32 -77 32 -190q0 -80 -16.5 -167t-48 -174.5t-82 -166.5t-114 -140t-149.5 -97t-182 -36q-177 0 -271.5 104.5t-94.5 295.5q0 80 16.5 167t48 174.5t82 165.5t114 139t149.5 96.5t182 35.5q113 0 192 -43q39 2 57.5 42.5
t24.5 152.5zM455 242q53 0 100 57t76 138t46 160t17 132q0 76 -32.5 117t-88.5 41q-52 0 -99 -56t-76.5 -135.5t-46.5 -159.5t-17 -135q0 -76 32 -117.5t89 -41.5z" />
    <glyph glyph-name="Uhorn" unicode="&#x1af;" horiz-adv-x="1124" 
d="M1174 1628l256 12q7 -162 -66 -267t-184 -118l-174 -809q-46 -220 -193.5 -345.5t-366.5 -125.5q-83 0 -149.5 18t-111 51t-74 76.5t-42.5 97t-12.5 110.5t13.5 118l209 988h307l-211 -983q-10 -37 -8 -73t12.5 -64.5t39.5 -46t75 -17.5q78 0 132.5 51t75.5 150l209 983
h181q39 2 57.5 42t24.5 152z" />
    <glyph glyph-name="uhorn" unicode="&#x1b0;" horiz-adv-x="1040" 
d="M1028 1323l256 12q7 -169 -70.5 -274t-195.5 -111l-201 -950h-293l29 133q-125 -156 -289 -156q-144 0 -199.5 99t-13.5 293l160 759h295l-156 -731q-34 -153 78 -153q44 0 93 38t85 103l158 743h182q39 2 57.5 42.5t24.5 152.5z" />
    <glyph glyph-name="uni01CD" unicode="&#x1cd;" horiz-adv-x="1163" 
d="M633 1526l-84 256l233 14l31 -143l90 143l230 -14l-193 -256h-307zM-104 0l677 1434h385l70 -1434h-301l-6 244h-387l-109 -244h-329zM700 1061l-256 -574h271z" />
    <glyph glyph-name="uni01CE" unicode="&#x1ce;" horiz-adv-x="1069" 
d="M504 1223l-62 284l226 17l24 -160l92 160l217 -17l-184 -284h-313zM768 1012l25 116h292l-239 -1128h-293l20 98q-118 -123 -270 -123q-131 0 -204.5 89t-73.5 251q0 91 20.5 199.5t64.5 221.5t103.5 205t146 151t183.5 59q157 0 225 -139zM440 240q70 0 129.5 70.5
t92.5 203.5l20 90q9 48 7 98.5t-11 92.5t-36 69t-69 27q-43 0 -83 -40.5t-68.5 -101.5t-49.5 -131.5t-31.5 -132t-10.5 -102.5q0 -143 110 -143z" />
    <glyph glyph-name="uni01CF" unicode="&#x1cf;" horiz-adv-x="538" 
d="M500 1653l90 143l229 -14l-192 -256h-308l-83 256l233 14zM303 0h-307l305 1434h305z" />
    <glyph glyph-name="uni01D0" unicode="&#x1d0;" horiz-adv-x="495" 
d="M418 1364l92 160l217 -17l-184 -284h-314l-61 284l225 17zM274 0h-292l239 1128h293z" />
    <glyph glyph-name="uni01D1" unicode="&#x1d1;" horiz-adv-x="1220" 
d="M662 1526l-84 256l233 14l31 -143l90 143l229 -14l-192 -256h-307zM770 1458q208 0 325 -121t117 -352q0 -103 -19.5 -215t-56.5 -225.5t-96.5 -215.5t-134 -181.5t-175.5 -126t-214 -46.5q-207 0 -324.5 123t-117.5 353q0 103 19.5 215t56.5 225t96.5 214.5t134 180.5
t175.5 125.5t214 46.5zM559 262q59 0 114 56t93.5 141.5t68 184t44 186t14.5 145.5q0 98 -43 148.5t-123 50.5q-59 0 -114.5 -56t-94 -141.5t-68 -184.5t-43.5 -186.5t-14 -146.5q0 -96 43 -146.5t123 -50.5z" />
    <glyph glyph-name="uni01D2" unicode="&#x1d2;" horiz-adv-x="1028" 
d="M498 1223l-62 284l226 17l24 -160l92 160l217 -17l-184 -284h-313zM627 1153q177 0 271.5 -104t94.5 -293q0 -80 -16.5 -167t-48 -174.5t-82 -166.5t-114 -140t-149.5 -97t-182 -36q-177 0 -271.5 104.5t-94.5 295.5q0 80 16.5 167t48 174.5t82 165.5t114 139t149.5 96.5
t182 35.5zM455 242q53 0 100 57t76 138t46 160t17 132q0 76 -32.5 117t-88.5 41q-52 0 -99 -56t-76.5 -135.5t-46.5 -159.5t-17 -135q0 -76 32 -117.5t89 -41.5z" />
    <glyph glyph-name="uni01D3" unicode="&#x1d3;" horiz-adv-x="1124" 
d="M614 1526l-84 256l234 14l31 -143l90 143l229 -14l-192 -256h-308zM702 451l209 983h306l-211 -988q-46 -220 -193.5 -345.5t-366.5 -125.5q-83 0 -149.5 18t-111 51t-74 76.5t-42.5 97t-12.5 110.5t13.5 118l209 988h307l-211 -983q-10 -37 -8 -73t12.5 -64.5t39.5 -46
t75 -17.5q78 0 132.5 51t75.5 150z" />
    <glyph glyph-name="uni01D4" unicode="&#x1d4;" horiz-adv-x="1040" 
d="M487 1223l-61 284l225 17l25 -160l92 160l217 -17l-184 -284h-314zM606 385l158 743h293l-240 -1128h-293l29 133q-125 -156 -289 -156q-144 0 -199.5 99t-13.5 293l160 759h295l-156 -731q-34 -153 78 -153q44 0 93 38t85 103z" />
    <glyph glyph-name="uni01D5" unicode="&#x1d5;" horiz-adv-x="1124" 
d="M1112 1884h-545l37 176h545zM705 1518h-236l41 247h235zM1012 1518h-236l43 247h236zM446 -25q-83 0 -149.5 18t-111 51t-74 76.5t-42.5 97t-12.5 110.5t13.5 118l209 988h307l-211 -983q-10 -37 -8 -73t12.5 -64.5t39.5 -46t75 -17.5q78 0 132.5 51t75.5 150l209 983
h306l-211 -988q-46 -220 -193.5 -345.5t-366.5 -125.5z" />
    <glyph glyph-name="uni01D6" unicode="&#x1d6;" horiz-adv-x="1040" 
d="M487 1798h543l-37 -176h-544zM436 1511h203l-55 -258h-203zM975 1511l-55 -258h-203l55 258h203zM606 385l158 743h293l-240 -1128h-293l29 133q-125 -156 -289 -156q-144 0 -199.5 99t-13.5 293l160 759h295l-156 -731q-34 -153 78 -153q44 0 93 38t85 103z" />
    <glyph glyph-name="uni01D7" unicode="&#x1d7;" horiz-adv-x="1124" 
d="M1184 2079l-244 -217l-209 12l205 260zM705 1518h-236l41 247h235zM1012 1518h-236l43 247h236zM446 -25q-83 0 -149.5 18t-111 51t-74 76.5t-42.5 97t-12.5 110.5t13.5 118l209 988h307l-211 -983q-10 -37 -8 -73t12.5 -64.5t39.5 -46t75 -17.5q78 0 132.5 51t75.5 150
l209 983h306l-211 -988q-46 -220 -193.5 -345.5t-366.5 -125.5z" />
    <glyph glyph-name="uni01D8" unicode="&#x1d8;" horiz-adv-x="1040" 
d="M817 1929l242 -61l-260 -252l-172 35zM436 1511h203l-55 -258h-203zM920 1253h-203l55 258h203zM606 385l158 743h293l-240 -1128h-293l29 133q-125 -156 -289 -156q-144 0 -199.5 99t-13.5 293l160 759h295l-156 -731q-34 -153 78 -153q44 0 93 38t85 103z" />
    <glyph glyph-name="uni01D9" unicode="&#x1d9;" horiz-adv-x="1124" 
d="M690 1864l-84 256l234 14l30 -143l91 143l229 -14l-193 -256h-307zM510 1765h235l-40 -247h-236zM1012 1518h-236l43 247h236zM702 451l209 983h306l-211 -988q-46 -220 -193.5 -345.5t-366.5 -125.5q-83 0 -149.5 18t-111 51t-74 76.5t-42.5 97t-12.5 110.5t13.5 118
l209 988h307l-211 -983q-10 -37 -8 -73t12.5 -64.5t39.5 -46t75 -17.5q78 0 132.5 51t75.5 150z" />
    <glyph glyph-name="uni01DA" unicode="&#x1da;" horiz-adv-x="1040" 
d="M565 1591l-61 285l225 16l25 -159l92 159l217 -16l-184 -285h-314zM436 1511h203l-55 -258h-203zM920 1253h-203l55 258h203zM606 385l158 743h293l-240 -1128h-293l29 133q-125 -156 -289 -156q-144 0 -199.5 99t-13.5 293l160 759h295l-156 -731q-34 -153 78 -153
q44 0 93 38t85 103z" />
    <glyph glyph-name="uni01DB" unicode="&#x1db;" horiz-adv-x="1124" 
d="M961 1874l-216 -12l-151 217l270 55zM705 1518h-236l41 247h235zM1012 1518h-236l43 247h236zM446 -25q-83 0 -149.5 18t-111 51t-74 76.5t-42.5 97t-12.5 110.5t13.5 118l209 988h307l-211 -983q-10 -37 -8 -73t12.5 -64.5t39.5 -46t75 -17.5q78 0 132.5 51t75.5 150
l209 983h306l-211 -988q-46 -220 -193.5 -345.5t-366.5 -125.5z" />
    <glyph glyph-name="Gcaron" unicode="&#x1e6;" horiz-adv-x="1122" 
d="M657 1526l-84 256l234 14l31 -143l90 143l229 -14l-192 -256h-308zM760 537h-98l53 243h381l-146 -682q-226 -123 -436 -123t-326 126t-116 348q0 112 21.5 228.5t62.5 229.5t106 212.5t146 175t188.5 119.5t228.5 44q194 0 334 -80l-131 -274q-49 32 -112 51t-117 19
q-81 0 -151 -48.5t-116 -124.5t-79.5 -170t-48.5 -184t-15 -168q0 -106 45 -161.5t129 -55.5q74 0 146 31z" />
    <glyph glyph-name="gcaron" unicode="&#x1e7;" horiz-adv-x="1069" 
d="M520 1223l-61 284l225 17l25 -160l92 160l217 -17l-184 -284h-314zM770 1014l25 114h292l-192 -909q-61 -287 -216 -440.5t-392 -153.5q-182 0 -334 82l115 236q108 -68 229 -68q220 0 289 285q0 3 1 9t1 9q-121 -135 -277 -135q-131 0 -202.5 87.5t-71.5 242.5
q0 128 38 265t102.5 251.5t162 188t205.5 73.5q158 0 225 -137zM451 289q49 0 96 47t78 116t50 146t19 139q0 75 -30 116.5t-84 41.5q-64 0 -121.5 -85t-88 -192t-30.5 -190q0 -67 29 -103t82 -36z" />
    <glyph glyph-name="uni01EA" unicode="&#x1ea;" horiz-adv-x="1220" 
d="M754 35q-59 -59 -68 -111q-8 -42 20 -61t95 -8l-21 -166q-205 -47 -297 3t-69 163q15 65 63 122q-190 11 -296.5 132.5t-106.5 341.5q0 103 19.5 215t56.5 225t96.5 214.5t134 180.5t175.5 125.5t214 46.5q208 0 325 -121t117 -352q0 -127 -29 -265.5t-83.5 -271.5
t-144.5 -244.5t-201 -168.5zM393 459q0 -96 43 -146.5t123 -50.5q59 0 114 56t93.5 141.5t68 184t44 186t14.5 145.5q0 98 -43 148.5t-123 50.5q-59 0 -114.5 -56t-94 -141.5t-68 -184.5t-43.5 -186.5t-14 -146.5z" />
    <glyph glyph-name="uni01EB" unicode="&#x1eb;" horiz-adv-x="1028" 
d="M649 45q-87 -74 -98 -137q-8 -42 20 -61.5t95 -8.5l-21 -166q-205 -47 -297 3t-69 163q17 74 79 139q-157 12 -240 116t-83 282q0 80 16.5 167t48 174.5t82 165.5t114 139t149.5 96.5t182 35.5q177 0 271.5 -104t94.5 -293q0 -125 -36.5 -258t-117 -259t-190.5 -194z
M573 887q-52 0 -99 -56t-76.5 -135.5t-46.5 -159.5t-17 -135q0 -76 32 -117.5t89 -41.5q53 0 100 57t76 138t46 160t17 132q0 76 -32.5 117t-88.5 41z" />
    <glyph glyph-name="Aringacute" unicode="&#x1fa;" horiz-adv-x="1163" 
d="M999 2253l248 -55l-243 -218l-209 13zM872 1888q95 0 146 -61.5t31 -153.5t-96 -152.5t-171 -60.5t-146 60.5t-32 152.5q20 92 96.5 153.5t171.5 61.5zM895 1673q7 32 -7.5 53t-43.5 21q-31 0 -56 -21t-32 -53q-6 -31 10 -51t45 -20q30 0 54 20.5t30 50.5zM-104 0
l677 1434h385l70 -1434h-301l-6 244h-387l-109 -244h-329zM700 1061l-256 -574h271z" />
    <glyph glyph-name="aringacute" unicode="&#x1fb;" horiz-adv-x="1069" 
d="M856 2032l242 -62l-260 -252l-172 35zM655 1200q-95 0 -145.5 61.5t-30.5 153.5q20 93 95.5 154t170.5 61t146 -61.5t31 -153.5t-96 -153.5t-171 -61.5zM631 1415q-6 -32 9 -52t44 -20q30 0 55 20t31 52t-9 53t-44 21q-31 0 -55.5 -21t-30.5 -53zM768 1012l25 116h292
l-239 -1128h-293l20 98q-118 -123 -270 -123q-131 0 -204.5 89t-73.5 251q0 91 20.5 199.5t64.5 221.5t103.5 205t146 151t183.5 59q157 0 225 -139zM440 240q70 0 129.5 70.5t92.5 203.5l20 90q9 48 7 98.5t-11 92.5t-36 69t-69 27q-43 0 -83 -40.5t-68.5 -101.5
t-49.5 -131.5t-31.5 -132t-10.5 -102.5q0 -143 110 -143z" />
    <glyph glyph-name="AEacute" unicode="&#x1fc;" horiz-adv-x="1568" 
d="M1268 1796l248 -55l-244 -217l-209 12zM1679 1434l-57 -267h-494l-65 -307h428l-53 -256h-428l-72 -338h506l-58 -266h-808l59 283h-272l-150 -283h-319l747 1434h1036zM819 1163l-332 -647h201l137 647h-6z" />
    <glyph glyph-name="aeacute" unicode="&#x1fd;" horiz-adv-x="1495" 
d="M985 1559l242 -62l-260 -252l-172 35zM1399 471h-535q-4 -50 -4 -65q0 -173 152 -173q109 0 235 60l8 -238q-148 -80 -311 -80q-119 0 -206 50t-132 141q-159 -191 -364 -191q-123 0 -192.5 67.5t-69.5 184.5q0 59 14 119t46.5 122t81 109t124 77t168.5 30q106 0 186 -12
l4 22q41 209 -127 209q-55 0 -120.5 -18t-114.5 -49l-27 231q165 84 352 84q198 0 267 -125q141 125 313 125q157 0 245.5 -90t88.5 -248q0 -152 -82 -342zM1106 905q-60 0 -110.5 -68.5t-86.5 -174.5h277q18 83 18 129q0 55 -26.5 84.5t-71.5 29.5zM356 221q66 0 124 64.5
t87 191.5q0 2 1 6t1 6q-48 11 -125 11q-81 0 -126.5 -64t-45.5 -135q0 -37 23 -58.5t61 -21.5z" />
    <glyph glyph-name="oslashacute" unicode="&#x1ff;" horiz-adv-x="1028" 
d="M750 1559l241 -62l-260 -252l-172 35zM956 1169l115 -104l-108 -121q30 -79 30 -188q0 -80 -16.5 -167t-48 -174.5t-82 -166.5t-114 -140t-149.5 -97t-182 -36q-151 0 -247 80l-78 -86l-117 101l107 116q-31 82 -31 189q0 80 16.5 167t48 174.5t82 165.5t114 139
t149.5 96.5t182 35.5q153 0 243 -78zM573 887q-43 0 -83 -38t-68.5 -99t-48.5 -127t-31 -131l320 354q-30 41 -89 41zM455 242q44 0 84 39.5t68.5 102t48 128t30.5 129.5l-321 -354q31 -45 90 -45z" />
    <glyph glyph-name="uni0218" unicode="&#x218;" horiz-adv-x="937" 
d="M340 -25q-230 0 -399 82l94 269q63 -34 145 -55t150 -21q96 0 152.5 44t56.5 116q0 59 -34 103t-108 101q-76 47 -126.5 93.5t-85.5 118t-35 157.5q0 205 145 340t373 135q192 0 352 -80l-98 -268q-135 72 -248 72q-89 0 -141 -42.5t-52 -113.5q0 -56 34.5 -100.5
t107.5 -96.5q243 -145 243 -372q0 -212 -147.5 -347t-378.5 -135zM164 -479l-27 94q121 42 133 137h-108l37 172h250q4 -87 -16 -155.5t-61 -116t-91.5 -78.5t-116.5 -53z" />
    <glyph glyph-name="uni0219" unicode="&#x219;" horiz-adv-x="804" 
d="M270 -23q-196 0 -340 66l86 248q127 -62 260 -62q63 0 102.5 29t39.5 78q2 38 -26.5 72.5t-94.5 74.5q-100 48 -152.5 113t-52.5 162q0 172 120.5 282.5t311.5 110.5q165 0 303 -61l-86 -250q-105 57 -221 57q-59 0 -95 -25t-36 -67q0 -44 28.5 -76.5t88.5 -64.5
q108 -54 158.5 -123t50.5 -176q0 -163 -123 -275.5t-322 -112.5zM100 -479l-26 94q121 42 133 137h-109l37 172h250q4 -87 -16 -155.5t-61 -116t-91.5 -78.5t-116.5 -53z" />
    <glyph glyph-name="uni021A" unicode="&#x21a;" horiz-adv-x="937" 
d="M213 1434h883l-60 -273h-288l-246 -1161h-305l243 1161h-286zM166 -248l37 172h250q4 -87 -16 -155.5t-61 -116t-91.5 -78.5t-116.5 -53l-27 94q121 42 133 137h-108z" />
    <glyph glyph-name="uni021B" unicode="&#x21b;" horiz-adv-x="763" 
d="M338 -25q-159 0 -217 92.5t-23 258.5l119 551h-106l30 139l131 127l224 227h118l-53 -242h244l-53 -251h-242l-113 -521q-22 -114 66 -114q51 0 133 28l-6 -245q-136 -50 -252 -50zM82 -483l-27 94q121 42 133 137h-108l37 172h250q4 -87 -16 -155.5t-61 -116
t-91.5 -78.5t-116.5 -53z" />
    <glyph glyph-name="uni0232" unicode="&#x232;" horiz-adv-x="1024" 
d="M477 1722h545l-37 -176h-545zM870 1434h332l-563 -994l-94 -440h-305l94 442l-141 992h313l53 -631z" />
    <glyph glyph-name="uni0233" unicode="&#x233;" horiz-adv-x="1001" 
d="M406 1427h542l-37 -176h-544zM457 346l325 782h318l-557 -1128l-174 -350h-297l159 323h-6l-84 1155h297l15 -782h4z" />
    <glyph glyph-name="uni0237" unicode="&#x237;" horiz-adv-x="507" 
d="M-252 -342l62 229q24 -8 69 -8q88 0 117 139l235 1110h295l-239 -1128q-40 -187 -141 -277t-250 -90q-84 0 -148 25z" />
    <glyph glyph-name="uni0259" unicode="&#x259;" horiz-adv-x="968" 
d="M553 1153q178 0 280.5 -107t102.5 -294q0 -83 -18 -171.5t-51 -175t-85 -164t-115 -136.5t-145 -93.5t-172 -34.5q-157 0 -245.5 90t-88.5 248q0 152 82 342h535q4 50 4 66q0 172 -152 172q-111 0 -235 -59l-8 237q148 80 311 80zM391 223q60 0 110.5 68.5t86.5 175.5
h-277q-18 -83 -18 -129q0 -55 26.5 -85t71.5 -30z" />
    <glyph glyph-name="uni0272" unicode="&#x272;" horiz-adv-x="1038" 
d="M774 1151q144 0 199.5 -98.5t13.5 -292.5l-160 -760h-295l156 731q35 154 -78 154q-44 0 -93 -38.5t-85 -103.5l-82 -383q-2 -18 -10 -53l-66 -307q-33 -158 -135 -247t-268 -89q-50 0 -131 25l78 252q30 -15 61 -15q87 0 109 107l43 198l190 897h293l-29 -133
q125 156 289 156z" />
    <glyph glyph-name="uni02B0" unicode="&#x2b0;" horiz-adv-x="591" 
d="M586 1528q83 0 117 -63.5t8 -178.5l-80 -379h-195l72 338q19 94 -33 94q-28 0 -51 -27.5t-37 -74.5l-70 -330h-196l170 807h198l-53 -254q68 68 150 68z" />
    <glyph glyph-name="circumflex" unicode="&#x2c6;" horiz-adv-x="690" 
d="M698 1532l72 -287l-225 -16l-25 160l-90 -160l-219 16l192 287h295z" />
    <glyph glyph-name="caron" unicode="&#x2c7;" horiz-adv-x="690" 
d="M514 1364l92 160l219 -17l-184 -284h-313l-62 284l226 17z" />
    <glyph glyph-name="breve" unicode="&#x2d8;" horiz-adv-x="681" 
d="M623 1507l202 -2q-62 -286 -336 -286q-275 0 -215 286l207 2q-26 -123 43 -123q36 0 60 30t39 93z" />
    <glyph glyph-name="dotaccent" unicode="&#x2d9;" horiz-adv-x="436" 
d="M514 1239h-305l55 258h303z" />
    <glyph glyph-name="ring" unicode="&#x2da;" horiz-adv-x="573" 
d="M424 1200q-95 0 -146 61.5t-32 153.5q20 92 96.5 153.5t171.5 61.5q96 0 146 -61.5t28 -153.5q-19 -92 -94.5 -153.5t-169.5 -61.5zM453 1343q30 0 54 20t30 52q7 32 -8 53t-44 21q-31 0 -56 -21t-32 -53q-6 -32 9.5 -52t46.5 -20z" />
    <glyph glyph-name="ogonek" unicode="&#x2db;" horiz-adv-x="632" 
d="M156 37l141 -37q-110 -80 -125 -158q-8 -42 20 -61t95 -8l-21 -166q-205 -47 -297 3t-69 163q19 83 94 154.5t162 109.5z" />
    <glyph glyph-name="tilde" unicode="&#x2dc;" horiz-adv-x="657" 
d="M354 1237l-141 27q13 112 61 172.5t121 60.5q50 0 106 -26.5t72 -26.5q49 0 58 61l139 -24q-15 -112 -62 -173t-118 -61q-52 0 -108.5 26.5t-73.5 26.5q-23 0 -38 -16.5t-16 -46.5z" />
    <glyph glyph-name="hungarumlaut" unicode="&#x2dd;" horiz-adv-x="802" 
d="M610 1497l-225 -252l-168 35l158 279zM936 1497l-225 -252l-168 35l157 279z" />
    <glyph glyph-name="uni02E1" unicode="&#x2e1;" horiz-adv-x="284" 
d="M311 907h-190l174 830h192z" />
    <glyph glyph-name="uni02E2" unicode="&#x2e2;" horiz-adv-x="483" 
d="M297 895q-104 0 -186 37l65 147q63 -32 131 -32q21 0 37.5 10t20.5 28q3 20 -10 35.5t-48 32.5q-65 29 -90.5 70t-11.5 108q21 94 92.5 146.5t167.5 52.5q42 0 90 -9.5t76 -23.5l-66 -151q-63 26 -114 26q-22 0 -36 -10t-16 -25q-4 -19 7.5 -32.5t42.5 -32.5
q69 -35 97.5 -78t14.5 -113q-19 -85 -91.5 -135.5t-172.5 -50.5z" />
    <glyph glyph-name="gravecomb" unicode="&#x300;" 
d="M86 1280l-186 -35l-152 252l264 62z" />
    <glyph glyph-name="acutecomb" unicode="&#x301;" 
d="M133 1497l-260 -252l-172 35l190 279z" />
    <glyph glyph-name="uni0302" unicode="&#x302;" 
d="M8 1532l72 -287l-225 -16l-25 160l-90 -160l-219 16l192 287h295z" />
    <glyph glyph-name="tildecomb" unicode="&#x303;" 
d="M-283 1237l-141 27q13 112 61 172.5t121 60.5q50 0 106.5 -26.5t72.5 -26.5q48 0 57 61l139 -24q-15 -112 -62 -173t-118 -61q-52 0 -108.5 26.5t-73.5 26.5q-23 0 -38 -16.5t-16 -46.5z" />
    <glyph glyph-name="uni0304" unicode="&#x304;" 
d="M80 1253h-545l39 177h543z" />
    <glyph glyph-name="uni0306" unicode="&#x306;" 
d="M-78 1507l203 -2q-62 -286 -336 -286q-275 0 -215 286l207 2q-26 -123 43 -123q36 0 59.5 29.5t38.5 93.5z" />
    <glyph glyph-name="uni0307" unicode="&#x307;" 
d="M78 1239h-305l55 258h305z" />
    <glyph glyph-name="uni0308" unicode="&#x308;" 
d="M-258 1253h-203l55 258h203zM78 1253h-203l55 258h203z" />
    <glyph glyph-name="hookabovecomb" unicode="&#x309;" 
d="M-53 1206l-123 62q40 31 60.5 53t27.5 49q6 34 -18.5 47t-69.5 -10l4 131q101 47 170.5 44.5t102.5 -45t18 -110.5q-25 -123 -172 -221z" />
    <glyph glyph-name="uni030A" unicode="&#x30a;" 
d="M-160 1200q-95 0 -145.5 61.5t-30.5 153.5q20 93 95.5 154t170.5 61t145.5 -61.5t30.5 -153.5q-20 -93 -95.5 -154t-170.5 -61zM-131 1343q30 0 55 20t31 52t-9 53t-44 21q-31 0 -55.5 -21t-30.5 -53t9 -52t44 -20z" />
    <glyph glyph-name="uni030B" unicode="&#x30b;" 
d="M-193 1497l-225 -252l-168 35l158 279zM133 1497l-225 -252l-168 35l158 279z" />
    <glyph glyph-name="uni030C" unicode="&#x30c;" 
d="M-174 1364l92 160l217 -17l-184 -284h-313l-62 284l225 17z" />
    <glyph glyph-name="uni0312" unicode="&#x312;" 
d="M106 1616l27 -92q-117 -44 -133 -138h106l-36 -174h-250q-10 311 286 404z" />
    <glyph glyph-name="uni031B" unicode="&#x31b;" 
d="M-377 1100l78 133q44 -2 65 37t27 157l256 13q3 -77 -13 -143.5t-46.5 -113.5t-73 -79t-90.5 -43.5t-101 -2t-102 41.5z" />
    <glyph glyph-name="dotbelowcomb" unicode="&#x323;" 
d="M-539 -340l56 258h280l-55 -258h-281z" />
    <glyph glyph-name="uni0324" unicode="&#x324;" 
d="M-606 -373h-203l55 256h203zM-270 -373h-201l53 256h203z" />
    <glyph glyph-name="uni0326" unicode="&#x326;" 
d="M-543 -479l-26 94q121 42 133 137h-109l37 172h250q4 -87 -16 -155.5t-61 -116t-91.5 -78.5t-116.5 -53z" />
    <glyph glyph-name="uni0327" unicode="&#x327;" 
d="M-342 14l-43 -84q68 -12 99.5 -49.5t19.5 -91.5q-14 -71 -91.5 -113.5t-197.5 -42.5q-64 0 -137 15l57 133q42 -10 78 -10q65 0 74 36q5 25 -18.5 39t-84.5 11l78 157h166z" />
    <glyph glyph-name="uni0328" unicode="&#x328;" 
d="M-375 37l142 -37q-110 -80 -125 -158q-8 -42 19.5 -61t94.5 -8l-20 -166q-205 -47 -297.5 3t-69.5 163q19 83 94 154.5t162 109.5z" />
    <glyph glyph-name="uni032E" unicode="&#x32e;" 
d="M-362 -66l176 -2q-53 -221 -291 -221q-235 0 -182 221l176 2q-23 -96 37 -96q32 0 52 23t32 73z" />
    <glyph glyph-name="uni0331" unicode="&#x331;" 
d="M-248 -297h-545l37 174h545z" />
    <glyph glyph-name="uni0335" unicode="&#x335;" 
d="M-629 600l33 154l563 2l-30 -156h-566z" />
    <glyph glyph-name="uni0336" unicode="&#x336;" 
d="M-905 813l33 174h938l-33 -174h-938z" />
    <glyph glyph-name="uni0337" unicode="&#x337;" 
d="M-651 537l-39 135l571 248l37 -136z" />
    <glyph glyph-name="uni0338" unicode="&#x338;" 
d="M-1122 -33l-117 101l997 1099l115 -104z" />
    <glyph glyph-name="tonos" unicode="&#x384;" horiz-adv-x="536" 
d="M668 1548l-166 -309h-174l88 309h252z" />
    <glyph glyph-name="dieresistonos" unicode="&#x385;" horiz-adv-x="940" 
d="M825 1624l-155 -309h-129l88 309h196zM455 1223h-168l47 227h170zM922 1223h-168l47 227h168z" />
    <glyph glyph-name="Alphatonos" unicode="&#x386;" horiz-adv-x="1163" 
d="M1028 0h-307l-6 256h-381l-117 -256h-321l692 1434h356zM242 1434h252l-166 -310h-174zM692 1047l-252 -555h267z" />
    <glyph glyph-name="Epsilontonos" unicode="&#x388;" horiz-adv-x="989" 
d="M10 1434h252l-166 -310h-174zM1098 1434l-58 -267h-493l-66 -307h430l-55 -256h-428l-72 -338h506l-57 -266h-809l305 1434h797z" />
    <glyph glyph-name="Etatonos" unicode="&#x389;" horiz-adv-x="1212" 
d="M-27 1434h252l-166 -310h-174zM844 848l123 586h315l-305 -1434h-313l122 578h-354l-123 -578h-313l305 1434h313l-125 -586h355z" />
    <glyph glyph-name="Iotatonos" unicode="&#x38a;" horiz-adv-x="538" 
d="M225 1434l-166 -310h-174l88 310h252zM303 0h-307l305 1434h305z" />
    <glyph glyph-name="Omicrontonos" unicode="&#x38c;" horiz-adv-x="1220" 
d="M516 -25q-207 0 -324.5 123t-117.5 353q0 103 19.5 215t56.5 225t96.5 214.5t134 180.5t175.5 125.5t214 46.5q208 0 325 -121t117 -352q0 -103 -19.5 -215t-56.5 -225.5t-96.5 -215.5t-134 -181.5t-175.5 -126t-214 -46.5zM225 1434l-166 -310h-174l88 310h252zM559 262
q59 0 114 56t93.5 141.5t68 184t44 186t14.5 145.5q0 98 -43 148.5t-123 50.5q-59 0 -114.5 -56t-94 -141.5t-68 -184.5t-43.5 -186.5t-14 -146.5q0 -96 43 -146.5t123 -50.5z" />
    <glyph glyph-name="Upsilontonos" unicode="&#x38e;" horiz-adv-x="1024" 
d="M6 1124h-174l88 310h252zM870 1434h332l-563 -994l-94 -440h-305l94 442l-141 992h313l53 -631z" />
    <glyph glyph-name="Omegatonos" unicode="&#x38f;" horiz-adv-x="1142" 
d="M762 1458q246 0 343.5 -154t41.5 -411q-19 -90 -52.5 -171.5t-94 -168.5t-94.5 -130.5t-115 -138.5q-17 -20 -25 -30l225 22l-57 -276h-442l49 231q41 88 111 211.5t114.5 220t67.5 203.5q30 145 -6 225t-128 80q-91 0 -160.5 -79.5t-99.5 -225.5q-18 -84 -20 -167.5
t5 -143t19 -155.5t17 -169l-49 -231h-441l60 276l217 -22q-72 170 -92 233q-64 206 -21 406q27 124 80 226t131 178.5t184.5 118.5t231.5 42zM-2 1434h252l-166 -310h-174z" />
    <glyph glyph-name="iotadieresistonos" unicode="&#x390;" horiz-adv-x="534" 
d="M606 1624l-155 -309h-129l88 309h196zM236 1223h-168l47 227h170zM702 1223h-167l47 227h168zM291 -25q-324 0 -250 344l172 809h293l-168 -788q-20 -96 55 -96h33l-33 -256q-63 -13 -102 -13z" />
    <glyph glyph-name="Alpha" unicode="&#x391;" horiz-adv-x="1163" 
d="M1028 0h-307l-6 256h-381l-117 -256h-321l692 1434h356zM692 1047l-252 -555h267z" />
    <glyph glyph-name="Beta" unicode="&#x392;" horiz-adv-x="1122" 
d="M856 741q90 -30 139 -96t49 -164q0 -65 -18 -129t-60.5 -128.5t-105.5 -113.5t-161.5 -79.5t-219.5 -30.5h-483l305 1434h434q188 0 297 -78.5t109 -225.5q0 -127 -73.5 -234.5t-211.5 -154.5zM477 840h125q59 0 104 20t70 52.5t37 69.5t12 77q0 117 -155 117h-121z
M352 258h142q126 0 188.5 65t62.5 152q0 65 -40 98t-115 33h-164z" />
    <glyph glyph-name="Gamma" unicode="&#x393;" horiz-adv-x="897" 
d="M-4 0l305 1434h754l-58 -269h-440l-248 -1165h-313z" />
    <glyph glyph-name="uni0394" unicode="&#x394;" horiz-adv-x="1107" 
d="M559 1436h363l51 -1436h-1077zM653 1044l-342 -798h348v798h-6z" />
    <glyph glyph-name="Epsilon" unicode="&#x395;" horiz-adv-x="989" 
d="M1098 1434l-58 -267h-493l-66 -307h430l-55 -256h-428l-72 -338h506l-57 -266h-809l305 1434h797z" />
    <glyph glyph-name="Zeta" unicode="&#x396;" horiz-adv-x="960" 
d="M784 0h-847l40 197l664 964h-444l57 273h827l-43 -195l-661 -967h465z" />
    <glyph glyph-name="Eta" unicode="&#x397;" horiz-adv-x="1212" 
d="M844 848l123 586h315l-305 -1434h-313l122 578h-354l-123 -578h-313l305 1434h313l-125 -586h355z" />
    <glyph glyph-name="Theta" unicode="&#x398;" horiz-adv-x="1220" 
d="M516 -25q-207 0 -324.5 123t-117.5 353q0 103 19.5 215t56.5 225t96.5 214.5t134 180.5t175.5 125.5t214 46.5q208 0 325 -121t117 -352q0 -103 -19.5 -215t-56.5 -225.5t-96.5 -215.5t-134 -181.5t-175.5 -126t-214 -46.5zM559 262q59 0 114 56t93.5 141.5t68 184
t44 186t14.5 145.5q0 98 -43 148.5t-123 50.5q-59 0 -114.5 -56t-94 -141.5t-68 -184.5t-43.5 -186.5t-14 -146.5q0 -96 43 -146.5t123 -50.5zM453 637l34 160h347l-33 -160h-348z" />
    <glyph glyph-name="Iota" unicode="&#x399;" horiz-adv-x="538" 
d="M303 0h-307l305 1434h305z" />
    <glyph glyph-name="Kappa" unicode="&#x39a;" horiz-adv-x="1169" 
d="M950 1434h348l-497 -603l225 -831h-324l-141 559l-182 -197l-78 -362h-305l305 1434h305l-133 -621z" />
    <glyph glyph-name="Lambda" unicode="&#x39b;" horiz-adv-x="1110" 
d="M-102 0l671 1434h342l62 -1434h-316l-2 1020h-4l-432 -1020h-321z" />
    <glyph glyph-name="Mu" unicode="&#x39c;" horiz-adv-x="1382" 
d="M698 627l426 807h303l-243 -1434h-293l131 762l-389 -762h-123l-59 762l-199 -762h-293l367 1434h292z" />
    <glyph glyph-name="Nu" unicode="&#x39d;" horiz-adv-x="1196" 
d="M293 0h-297l305 1434h262l238 -777l166 777h299l-305 -1434h-250l-248 801z" />
    <glyph glyph-name="Xi" unicode="&#x39e;" horiz-adv-x="929" 
d="M993 1167h-800l57 267h801zM807 602h-668l54 252l667 -2zM745 0h-802l57 266h803z" />
    <glyph glyph-name="Omicron" unicode="&#x39f;" horiz-adv-x="1220" 
d="M516 -25q-207 0 -324.5 123t-117.5 353q0 103 19.5 215t56.5 225t96.5 214.5t134 180.5t175.5 125.5t214 46.5q208 0 325 -121t117 -352q0 -103 -19.5 -215t-56.5 -225.5t-96.5 -215.5t-134 -181.5t-175.5 -126t-214 -46.5zM559 262q59 0 114 56t93.5 141.5t68 184
t44 186t14.5 145.5q0 98 -43 148.5t-123 50.5q-59 0 -114.5 -56t-94 -141.5t-68 -184.5t-43.5 -186.5t-14 -146.5q0 -96 43 -146.5t123 -50.5z" />
    <glyph glyph-name="Pi" unicode="&#x3a0;" horiz-adv-x="1177" 
d="M1245 1434l-305 -1434h-305l248 1161h-334l-248 -1161h-305l305 1434h944z" />
    <glyph glyph-name="Rho" unicode="&#x3a1;" horiz-adv-x="1069" 
d="M692 1434q199 0 313.5 -98.5t114.5 -280.5q0 -86 -21.5 -173.5t-70 -173.5t-118.5 -152t-176.5 -107t-235.5 -41h-111l-86 -408h-305l305 1434h391zM444 672h78q70 0 127 34.5t90 86.5t50.5 107.5t17.5 103.5q0 77 -40.5 121t-113.5 44h-102z" />
    <glyph glyph-name="Sigma" unicode="&#x3a3;" horiz-adv-x="919" 
d="M737 0h-792l47 223l414 500l-205 487l47 224h786l-57 -267h-465l174 -444l-367 -457h476z" />
    <glyph glyph-name="Tau" unicode="&#x3a4;" horiz-adv-x="937" 
d="M213 1434h883l-60 -273h-288l-246 -1161h-305l243 1161h-286z" />
    <glyph glyph-name="Upsilon" unicode="&#x3a5;" horiz-adv-x="1024" 
d="M870 1434h332l-563 -994l-94 -440h-305l94 442l-141 992h313l53 -631z" />
    <glyph glyph-name="Phi" unicode="&#x3a6;" horiz-adv-x="1439" 
d="M1057 1434l-31 -142q230 -9 334.5 -160.5t46.5 -414.5q-55 -254 -221 -410t-404 -166l-30 -141h-303l30 141q-229 9 -333 162t-48 414q55 254 220.5 410t404.5 165l31 142h303zM412 717q-33 -146 -2 -234t120 -94l142 655q-90 -6 -158.5 -90.5t-101.5 -236.5zM1094 717
q32 146 1.5 233t-120.5 94l-141 -655q90 6 159 91t101 237z" />
    <glyph glyph-name="Chi" unicode="&#x3a7;" horiz-adv-x="1110" 
d="M897 1434h346l-446 -703l172 -731h-324l-96 514l-297 -514h-350l475 729l-150 705h324l76 -478z" />
    <glyph glyph-name="Psi" unicode="&#x3a8;" horiz-adv-x="1333" 
d="M1001 817l132 617h292l-127 -592q-42 -197 -173.5 -314t-338.5 -127l-86 -401h-305l86 401q-201 9 -286.5 124.5t-42.5 316.5l127 592h292l-131 -615q-17 -74 9 -116.5t86 -47.5l165 779h306l-166 -779q60 3 102 44.5t59 117.5z" />
    <glyph glyph-name="uni03A9" unicode="&#x3a9;" horiz-adv-x="1142" 
d="M762 1458q246 0 343.5 -154t41.5 -411q-19 -90 -52.5 -171.5t-94 -168.5t-94.5 -130.5t-115 -138.5q-17 -20 -25 -30l225 22l-57 -276h-442l49 231q41 88 111 211.5t114.5 220t67.5 203.5q30 145 -6 225t-128 80q-91 0 -160.5 -79.5t-99.5 -225.5q-18 -84 -20 -167.5
t5 -143t19 -155.5t17 -169l-49 -231h-441l60 276l217 -22q-72 170 -92 233q-64 206 -21 406q27 124 80 226t131 178.5t184.5 118.5t231.5 42z" />
    <glyph glyph-name="Iotadieresis" unicode="&#x3aa;" horiz-adv-x="538" 
d="M414 1559h-203l55 258h203zM750 1559h-203l55 258h203zM303 0h-307l305 1434h305z" />
    <glyph glyph-name="Upsilondieresis" unicode="&#x3ab;" horiz-adv-x="1024" 
d="M510 1817h203l-56 -258h-202zM846 1817h203l-56 -258h-202zM870 1434h332l-563 -994l-94 -440h-305l94 442l-141 992h313l53 -631z" />
    <glyph glyph-name="alphatonos" unicode="&#x3ac;" horiz-adv-x="1083" 
d="M645 1548h252l-166 -309h-174zM768 961l41 167h293l-148 -567l-90 -561h-295l29 164q-69 -95 -148.5 -142t-156.5 -47q-169 0 -233.5 156.5t-6.5 427.5q58 277 188.5 434.5t297.5 157.5q80 0 139.5 -47t89.5 -143zM436 233q69 0 134.5 89.5t97.5 232.5l2 10l2 8
q27 143 -1 231.5t-96 88.5q-72 0 -130.5 -87t-92.5 -245q-33 -154 -10.5 -241t94.5 -87z" />
    <glyph glyph-name="epsilontonos" unicode="&#x3ad;" horiz-adv-x="778" 
d="M803 1548l-166 -309h-174l88 309h252zM313 -23q-170 0 -260.5 94.5t-58.5 239.5q20 97 74 164t129 96q-58 30 -82 96t-6 152q32 148 161.5 239t298.5 91q149 0 277 -66l-105 -227q-77 49 -174 49q-68 0 -115.5 -32t-58.5 -82q-11 -51 17 -81t88 -30h131l-43 -209h-127
q-64 0 -109.5 -35.5t-56.5 -89.5q-12 -51 23.5 -84t105.5 -33q51 0 110 15.5t99 38.5l6 -240q-151 -66 -324 -66z" />
    <glyph glyph-name="etatonos" unicode="&#x3ae;" horiz-adv-x="1038" 
d="M641 1548h252l-166 -309h-174zM774 1151q144 0 199.5 -98.5t13.5 -292.5l-160 -760l-75 -350h-293l76 350h-3l156 731q35 154 -78 154q-44 0 -93 -38.5t-85 -103.5l-158 -743h-292l239 1128h293l-29 -133q125 156 289 156z" />
    <glyph glyph-name="iotatonos" unicode="&#x3af;" horiz-adv-x="534" 
d="M612 1548l-166 -309h-174l88 309h252zM291 -25q-324 0 -250 344l172 809h293l-168 -788q-20 -96 55 -96h33l-33 -256q-63 -13 -102 -13z" />
    <glyph glyph-name="upsilondieresistonos" unicode="&#x3b0;" horiz-adv-x="1038" 
d="M872 1624l-155 -309h-129l88 309h196zM502 1223h-168l47 227h170zM969 1223h-168l47 227h168zM625 434l147 694h293l-145 -686q-46 -217 -185.5 -342t-339.5 -125q-194 0 -284.5 122t-42.5 345l145 686h293l-148 -694q-20 -92 5.5 -141t89.5 -49q61 0 106.5 48t65.5 142z
" />
    <glyph glyph-name="alpha" unicode="&#x3b1;" horiz-adv-x="1083" 
d="M768 961l41 167h293l-148 -567l-90 -561h-295l29 164q-69 -95 -148.5 -142t-156.5 -47q-169 0 -233.5 156.5t-6.5 427.5q58 277 188.5 434.5t297.5 157.5q80 0 139.5 -47t89.5 -143zM436 233q69 0 134.5 89.5t97.5 232.5l2 10l2 8q27 143 -1 231.5t-96 88.5
q-72 0 -130.5 -87t-92.5 -245q-33 -154 -10.5 -241t94.5 -87z" />
    <glyph glyph-name="beta" unicode="&#x3b2;" horiz-adv-x="1056" 
d="M205 -350h-295l301 1417q42 196 166.5 313t329.5 117q179 0 269.5 -107.5t49.5 -306.5q-18 -83 -70.5 -165t-119.5 -123q82 -26 124.5 -127.5t14.5 -233.5q-44 -212 -179 -334.5t-315 -122.5q-121 0 -194 60zM504 1067l-164 -772q62 -62 133 -62q72 0 128.5 57.5
t76.5 155.5q20 96 -5 154.5t-89 58.5h-105l49 226h45q46 0 87 47.5t61 126.5q20 77 0.5 127.5t-72.5 50.5q-48 0 -87 -42.5t-58 -127.5z" />
    <glyph glyph-name="gamma" unicode="&#x3b3;" horiz-adv-x="1001" 
d="M795 1128h305l-561 -1083l-84 -395h-295l84 395l-103 1083h305l19 -731h2z" />
    <glyph glyph-name="delta" unicode="&#x3b4;" horiz-adv-x="983" 
d="M367 1513h716l-51 -241h-381q56 -63 101.5 -131.5t85 -149t60.5 -163t27 -174t-14 -181.5q-48 -222 -195.5 -359t-348.5 -137q-197 0 -290 133t-44 361q70 333 450 557q-76 121 -184 238zM612 467q39 175 -37 373q-109 -83 -164.5 -164t-80.5 -207q-24 -106 0 -168.5
t92 -62.5q64 0 116.5 61.5t73.5 167.5z" />
    <glyph glyph-name="epsilon" unicode="&#x3b5;" horiz-adv-x="778" 
d="M313 -23q-170 0 -260.5 94.5t-58.5 239.5q20 97 74 164t129 96q-58 30 -82 96t-6 152q32 148 161.5 239t298.5 91q149 0 277 -66l-105 -227q-77 49 -174 49q-68 0 -115.5 -32t-58.5 -82q-11 -51 17 -81t88 -30h131l-43 -209h-127q-64 0 -109.5 -35.5t-56.5 -89.5
q-12 -51 23.5 -84t105.5 -33q51 0 110 15.5t99 38.5l6 -240q-151 -66 -324 -66z" />
    <glyph glyph-name="zeta" unicode="&#x3b6;" horiz-adv-x="815" 
d="M319 1511h631l-55 -245l2 -2q-434 -323 -522 -727q-20 -97 12.5 -164.5t122.5 -132.5q108 -67 147.5 -133t16.5 -179q-23 -112 -125 -278h-256q96 150 110 215q13 66 -14 107t-106 85q-141 84 -192 193t-15 276q24 111 80.5 219.5t134 202t163 171.5t181.5 145h-369z" />
    <glyph glyph-name="eta" unicode="&#x3b7;" horiz-adv-x="1038" 
d="M774 1151q144 0 199.5 -98.5t13.5 -292.5l-160 -760l-75 -350h-293l76 350h-3l156 731q35 154 -78 154q-44 0 -93 -38.5t-85 -103.5l-158 -743h-292l239 1128h293l-29 -133q125 156 289 156z" />
    <glyph glyph-name="theta" unicode="&#x3b8;" horiz-adv-x="1036" 
d="M725 1532q218 0 298 -204t1 -574q-78 -363 -244 -572t-387 -209q-219 0 -298.5 204.5t-0.5 576.5q76 360 242 569t389 209zM666 1266q-76 0 -146 -117.5t-123 -333.5l357 39q32 190 9 301t-97 111zM451 240q75 0 146.5 118t123.5 330l-356 -39q-32 -191 -10 -300t96 -109
z" />
    <glyph glyph-name="iota" unicode="&#x3b9;" horiz-adv-x="534" 
d="M291 -25q-324 0 -250 344l172 809h293l-168 -788q-20 -96 55 -96h33l-33 -256q-63 -13 -102 -13z" />
    <glyph glyph-name="kappa" unicode="&#x3ba;" horiz-adv-x="983" 
d="M741 1128h320l-359 -544l146 -584h-324l-73 432h-84l-93 -432h-292l239 1128h293l-92 -438h84z" />
    <glyph glyph-name="lambda" unicode="&#x3bb;" horiz-adv-x="962" 
d="M205 -2h-303l536 1100l-4 71q-3 64 -28.5 85.5t-75.5 21.5l51 231q194 12 271.5 -46t86.5 -226l82 -1237h-305l-4 702z" />
    <glyph glyph-name="uni03BC" unicode="&#x3bc;" horiz-adv-x="1044" 
d="M610 381l158 747h293l-240 -1128h-293l29 131q-127 -154 -289 -154h-14l-55 -327h-299l151 700q1 3 2 9.5t2 9.5l162 759h293l-156 -731q-32 -153 78 -153q45 0 93.5 36.5t84.5 100.5z" />
    <glyph glyph-name="nu" unicode="&#x3bd;" horiz-adv-x="1001" 
d="M559 0h-344l-74 1128h293l15 -772h4l329 772h318z" />
    <glyph glyph-name="xi" unicode="&#x3be;" horiz-adv-x="827" 
d="M530 -352h-249q91 128 104 196q12 60 -12.5 97.5t-110.5 89.5q-152 92 -206.5 190t-26.5 230q30 137 106 231.5t191 124.5q-88 39 -121.5 125.5t-9.5 202.5q38 179 178 290t321 111q147 0 273 -63l-107 -226q-82 43 -180 43q-76 0 -131 -49t-70 -125q-21 -90 14.5 -142
t122.5 -52h117l-51 -236h-129q-82 0 -139.5 -56t-77.5 -157q-17 -74 12 -127.5t123 -112.5q119 -70 161 -143.5t19 -181.5q-24 -115 -121 -260z" />
    <glyph glyph-name="omicron" unicode="&#x3bf;" horiz-adv-x="1028" 
d="M401 -25q-177 0 -271.5 104.5t-94.5 295.5q0 80 16.5 167t48 174.5t82 165.5t114 139t149.5 96.5t182 35.5q177 0 271.5 -104t94.5 -293q0 -80 -16.5 -167t-48 -174.5t-82 -166.5t-114 -140t-149.5 -97t-182 -36zM455 242q53 0 100 57t76 138t46 160t17 132
q0 76 -32.5 117t-88.5 41q-52 0 -99 -56t-76.5 -135.5t-46.5 -159.5t-17 -135q0 -76 32 -117.5t89 -41.5z" />
    <glyph glyph-name="pi" unicode="&#x3c0;" horiz-adv-x="1034" 
d="M1053 1128l-240 -1128h-295l189 885h-244l-189 -885h-292l239 1128h832z" />
    <glyph glyph-name="rho" unicode="&#x3c1;" horiz-adv-x="1060" 
d="M193 -350h-293l192 913q58 266 214.5 427t367.5 161q208 0 300.5 -156t33.5 -430q-56 -264 -197 -426t-324 -162q-83 0 -137 44.5t-67 103.5zM387 565q-33 -158 -7.5 -243.5t101.5 -85.5q72 0 132.5 85t93.5 242q32 149 7 239.5t-98 90.5q-72 0 -134 -86.5t-95 -241.5z
" />
    <glyph glyph-name="uni03C2" unicode="&#x3c2;" horiz-adv-x="847" 
d="M532 -350h-258q34 53 51.5 81t34.5 65.5t23 68.5q13 59 -15 97.5t-118 94.5q-53 37 -91 74.5t-66.5 84.5t-41 101.5t-11 123t18.5 151.5q54 250 212 404.5t378 154.5q70 0 138.5 -22.5t117.5 -63.5l-149 -227q-53 53 -140 53q-90 0 -160 -77.5t-98 -209.5
q-11 -55 -12 -100t6 -78.5t24 -63.5t36.5 -52t48.5 -46q130 -96 172.5 -168.5t21.5 -171.5q-23 -108 -123 -274z" />
    <glyph glyph-name="sigma" unicode="&#x3c3;" horiz-adv-x="1038" 
d="M1139 1126l-64 -292q-44 0 -90 24q8 -41 8 -102q0 -80 -16.5 -167t-48 -174.5t-82 -166.5t-114 -140t-149.5 -97t-182 -36q-177 0 -271.5 104.5t-94.5 295.5q0 80 16.5 167t48 174.5t82 165.5t114 139t149.5 96.5t182 35.5q37 0 53 -2q55 -2 211 -13.5t248 -11.5z
M455 242q53 0 100 57t76 138t46 160t17 132q0 76 -32.5 117t-88.5 41q-52 0 -99 -56t-76.5 -135.5t-46.5 -159.5t-17 -135q0 -76 32 -117.5t89 -41.5z" />
    <glyph glyph-name="tau" unicode="&#x3c4;" horiz-adv-x="706" 
d="M717 879h-195l-116 -539q-17 -96 55 -96h35l-33 -256q-63 -13 -105 -13q-320 0 -249 344l118 560h-114l51 249h604z" />
    <glyph glyph-name="upsilon" unicode="&#x3c5;" horiz-adv-x="1038" 
d="M625 434l147 694h293l-145 -686q-46 -217 -185.5 -342t-339.5 -125q-194 0 -284.5 122t-42.5 345l145 686h293l-148 -694q-20 -92 5.5 -141t89.5 -49q61 0 106.5 48t65.5 142z" />
    <glyph glyph-name="phi" unicode="&#x3c6;" horiz-adv-x="1372" 
d="M1018 1434l-62 -291q218 -3 320 -156.5t43 -419.5q-56 -262 -219.5 -420.5t-390.5 -162.5l-70 -332h-293l70 332q-219 3 -320.5 157t-42.5 424q56 259 221 417t390 161l61 291h293zM350 567q-33 -148 -1.5 -236t122.5 -89l137 645q-90 -3 -157.5 -85t-100.5 -235z
M1022 565q32 145 1.5 231.5t-122.5 90.5l-137 -645q90 3 157.5 85.5t100.5 237.5z" />
    <glyph glyph-name="chi" unicode="&#x3c7;" horiz-adv-x="1046" 
d="M801 1130h315l-432 -724l147 -756h-315l-76 524l-297 -524h-315l467 751l-127 729h317l56 -483z" />
    <glyph glyph-name="psi" unicode="&#x3c8;" horiz-adv-x="1345" 
d="M926 446l145 682h293l-143 -673q-44 -206 -180 -318.5t-343 -124.5l-77 -362h-291l78 362q-201 14 -291 125t-47 318l143 673h293l-146 -682q-17 -79 12.5 -128.5t100.5 -53.5l182 864h267l-183 -864q69 0 119.5 49.5t67.5 132.5z" />
    <glyph glyph-name="omega" unicode="&#x3c9;" horiz-adv-x="1390" 
d="M47 535q34 164 90.5 300t169.5 293h297q-187 -249 -260 -583q-65 -312 43 -312q56 0 97.5 68t72.5 207l57 274h256l-59 -276q-58 -273 51 -273q55 0 100 80.5t76 231.5q71 329 -12 583h297q45 -160 45.5 -301t-35.5 -292q-55 -256 -185 -408t-288 -152q-123 0 -184 69
t-49 194q-44 -125 -131.5 -194t-212.5 -69q-156 0 -223.5 149.5t-12.5 410.5z" />
    <glyph glyph-name="iotadieresis" unicode="&#x3ca;" horiz-adv-x="534" 
d="M324 1253h-203l55 258h203zM659 1253h-202l55 258h203zM291 -25q-324 0 -250 344l172 809h293l-168 -788q-20 -96 55 -96h33l-33 -256q-63 -13 -102 -13z" />
    <glyph glyph-name="upsilondieresis" unicode="&#x3cb;" horiz-adv-x="1038" 
d="M590 1253h-203l55 258h203zM926 1253h-203l55 258h203zM625 434l147 694h293l-145 -686q-46 -217 -185.5 -342t-339.5 -125q-194 0 -284.5 122t-42.5 345l145 686h293l-148 -694q-20 -92 5.5 -141t89.5 -49q61 0 106.5 48t65.5 142z" />
    <glyph glyph-name="omicrontonos" unicode="&#x3cc;" horiz-adv-x="1028" 
d="M885 1548l-166 -309h-174l88 309h252zM401 -25q-177 0 -271.5 104.5t-94.5 295.5q0 80 16.5 167t48 174.5t82 165.5t114 139t149.5 96.5t182 35.5q177 0 271.5 -104t94.5 -293q0 -80 -16.5 -167t-48 -174.5t-82 -166.5t-114 -140t-149.5 -97t-182 -36zM455 242
q53 0 100 57t76 138t46 160t17 132q0 76 -32.5 117t-88.5 41q-52 0 -99 -56t-76.5 -135.5t-46.5 -159.5t-17 -135q0 -76 32 -117.5t89 -41.5z" />
    <glyph glyph-name="upsilontonos" unicode="&#x3cd;" horiz-adv-x="1038" 
d="M879 1548l-166 -309h-174l88 309h252zM625 434l147 694h293l-145 -686q-46 -217 -185.5 -342t-339.5 -125q-194 0 -284.5 122t-42.5 345l145 686h293l-148 -694q-20 -92 5.5 -141t89.5 -49q61 0 106.5 48t65.5 142z" />
    <glyph glyph-name="omegatonos" unicode="&#x3ce;" horiz-adv-x="1390" 
d="M1065 1548l-166 -309h-174l88 309h252zM47 535q34 164 90.5 300t169.5 293h297q-187 -249 -260 -583q-65 -312 43 -312q56 0 97.5 68t72.5 207l57 274h256l-59 -276q-58 -273 51 -273q55 0 100 80.5t76 231.5q71 329 -12 583h297q45 -160 45.5 -301t-35.5 -292
q-55 -256 -185 -408t-288 -152q-123 0 -184 69t-49 194q-44 -125 -131.5 -194t-212.5 -69q-156 0 -223.5 149.5t-12.5 410.5z" />
    <glyph glyph-name="uni0400" unicode="&#x400;" horiz-adv-x="989" 
d="M760 1866l74 -279l-187 -35l-151 252zM1098 1434l-58 -267h-493l-66 -307h430l-55 -256h-428l-72 -338h506l-57 -266h-809l305 1434h797z" />
    <glyph glyph-name="uni0401" unicode="&#x401;" horiz-adv-x="989" 
d="M504 1817h205l-56 -258h-202zM842 1817h200l-53 -258h-203zM1098 1434l-58 -267h-493l-66 -307h430l-55 -256h-428l-72 -338h506l-57 -266h-809l305 1434h797z" />
    <glyph glyph-name="uni0402" unicode="&#x402;" horiz-adv-x="1245" 
d="M915 913q157 0 222.5 -116t21.5 -326l-4 -25q-50 -230 -178.5 -350.5t-312.5 -120.5q-62 0 -136 23l93 252q27 -8 61 -8q118 0 162 204l4 21q19 87 -1.5 133.5t-78.5 46.5q-84 0 -178 -41l-129 -606h-305l247 1176h-245l55 258h911l-55 -258h-358l-68 -318q153 55 272 55
z" />
    <glyph glyph-name="uni0403" unicode="&#x403;" horiz-adv-x="897" 
d="M981 1804l-260 -252l-172 35l190 279zM-4 0l305 1434h754l-58 -269h-440l-248 -1165h-313z" />
    <glyph glyph-name="uni0404" unicode="&#x404;" horiz-adv-x="1007" 
d="M788 1171q-107 0 -189.5 -92.5t-137.5 -240.5h385l-47 -238h-398q-8 -55 -8 -111q0 -227 195 -227q138 0 256 68l22 -269q-70 -39 -159 -62.5t-172 -23.5q-216 0 -339.5 126.5t-123.5 351.5q0 130 29 266.5t91 269t148 236t211 167.5t270 64q171 0 314 -86l-134 -264
q-91 65 -213 65z" />
    <glyph glyph-name="uni0405" unicode="&#x405;" horiz-adv-x="937" 
d="M340 -25q-230 0 -399 82l94 269q63 -34 145 -55t150 -21q96 0 152.5 44t56.5 116q0 59 -34 103t-108 101q-76 47 -126.5 93.5t-85.5 118t-35 157.5q0 205 145 340t373 135q192 0 352 -80l-98 -268q-135 72 -248 72q-89 0 -141 -42.5t-52 -113.5q0 -56 34.5 -100.5
t107.5 -96.5q243 -145 243 -372q0 -212 -147.5 -347t-378.5 -135z" />
    <glyph glyph-name="uni0406" unicode="&#x406;" horiz-adv-x="538" 
d="M303 0h-307l305 1434h305z" />
    <glyph glyph-name="uni0407" unicode="&#x407;" horiz-adv-x="538" 
d="M414 1559h-203l55 258h203zM750 1559h-203l55 258h203zM303 0h-307l305 1434h305z" />
    <glyph glyph-name="uni0408" unicode="&#x408;" horiz-adv-x="808" 
d="M143 -25q-127 0 -235 58l110 262q75 -37 164 -37q164 0 213 227l146 682h-162l57 267h465l-205 -963q-53 -246 -197 -371t-356 -125z" />
    <glyph glyph-name="uni0409" unicode="&#x409;" horiz-adv-x="1665" 
d="M1139 1026h92q235 0 335 -138.5t50 -377.5q-52 -244 -212.5 -377t-389.5 -133h-400l250 1176h-237l-144 -594q-43 -179 -95.5 -296.5t-123.5 -186t-156 -92t-200 -13.5l55 264q71 -11 121 62t98 270l203 844h840zM1309 510q26 124 -12.5 190t-129.5 66h-84l-108 -508h86
q91 0 157 67.5t91 184.5z" />
    <glyph glyph-name="uni040A" unicode="&#x40a;" horiz-adv-x="1705" 
d="M1145 934h112q229 0 333 -120t57 -347q-46 -218 -199.5 -342.5t-386.5 -124.5h-428l139 657h-323l-140 -657h-313l305 1434h313l-106 -504h323l107 504h313zM1339 463q21 98 -16 152.5t-129 54.5h-104l-89 -410h105q91 0 151 52t82 151z" />
    <glyph glyph-name="uni040B" unicode="&#x40b;" horiz-adv-x="1275" 
d="M922 915q156 0 223.5 -102t25.5 -297l-108 -516h-301l102 483q18 84 -8 125t-90 41q-89 0 -176 -41l-129 -608h-305l247 1176h-245l55 258h911l-55 -258h-358l-68 -320q157 59 279 59z" />
    <glyph glyph-name="uni040C" unicode="&#x40c;" horiz-adv-x="1124" 
d="M868 1796l248 -55l-244 -217l-208 12zM934 1434h336l-453 -697l166 -737h-332l-110 575h-117l-123 -575h-305l305 1434h305l-127 -592h125z" />
    <glyph glyph-name="uni040D" unicode="&#x40d;" horiz-adv-x="1196" 
d="M922 1587l-187 -35l-151 252l264 62zM1266 1434l-305 -1434h-297l167 799l-577 -799h-258l305 1434h299l-166 -775l563 775h269z" />
    <glyph glyph-name="uni040E" unicode="&#x40e;" horiz-adv-x="1001" 
d="M709 1524q-275 0 -215 286l206 2q-26 -122 43 -122q37 0 60.5 29.5t38.5 92.5l202 -2q-62 -286 -335 -286zM852 1434h317l-585 -1155q-2 -3 -2 -5l-29 -59q-133 -238 -385 -238q-56 0 -112.5 14.5t-92.5 39.5l119 256q64 -41 127 -41q28 0 48 13t38 46l-94 1129h319
l12 -721h3z" />
    <glyph glyph-name="uni040F" unicode="&#x40f;" horiz-adv-x="1177" 
d="M692 272l248 1162h305l-305 -1434h-319l-52 -242h-301l51 242h-323l305 1434h305l-248 -1162h334z" />
    <glyph glyph-name="uni0410" unicode="&#x410;" horiz-adv-x="1163" 
d="M1028 0h-301l-6 244h-387l-109 -244h-329l677 1434h385zM700 1061l-256 -574h271z" />
    <glyph glyph-name="uni0411" unicode="&#x411;" horiz-adv-x="1114" 
d="M1112 1434l-57 -265h-504l-59 -272l170 -2q98 -2 172 -25.5t119.5 -65t71 -99t26 -127t-14.5 -148.5q-40 -193 -189.5 -311.5t-357.5 -118.5h-493l305 1434h811zM586 659h-144l-86 -403h144q89 0 151.5 51t85.5 154q20 96 -20.5 147t-130.5 51z" />
    <glyph glyph-name="uni0412" unicode="&#x412;" horiz-adv-x="1122" 
d="M856 741q90 -30 139 -96t49 -164q0 -65 -18 -129t-60.5 -128.5t-105.5 -113.5t-161.5 -79.5t-219.5 -30.5h-483l305 1434h434q188 0 297 -78.5t109 -225.5q0 -127 -73.5 -234.5t-211.5 -154.5zM477 840h125q59 0 104 20t70 52.5t37 69.5t12 77q0 117 -155 117h-121z
M352 258h142q126 0 188.5 65t62.5 152q0 65 -40 98t-115 33h-164z" />
    <glyph glyph-name="uni0413" unicode="&#x413;" horiz-adv-x="897" 
d="M-4 0l305 1434h754l-58 -269h-440l-248 -1165h-313z" />
    <glyph glyph-name="uni0414" unicode="&#x414;" horiz-adv-x="1325" 
d="M150 -244h-293l108 516h131q128 124 242 619l127 543h864l-246 -1162h154l-111 -516h-292l51 244h-684zM422 272h356l191 899h-258l-64 -272q-102 -430 -225 -627z" />
    <glyph glyph-name="uni0415" unicode="&#x415;" horiz-adv-x="989" 
d="M1098 1434l-58 -267h-493l-66 -307h430l-55 -256h-428l-72 -338h506l-57 -266h-809l305 1434h797z" />
    <glyph glyph-name="uni0416" unicode="&#x416;" horiz-adv-x="1626" 
d="M1436 1434h336l-453 -697l166 -737h-332l-109 575h-81l-123 -575h-305l122 575h-73l-348 -575h-334l475 737l-152 697h336l76 -592h76l127 592h305l-127 -592h88z" />
    <glyph glyph-name="uni0417" unicode="&#x417;" horiz-adv-x="931" 
d="M977 1055q-26 -124 -95 -208t-167 -112q90 -31 124.5 -124t6.5 -224q-39 -189 -202 -300.5t-378 -111.5q-200 0 -340 70l125 266q39 -27 100.5 -43t124.5 -16q94 0 164 45t88 127q21 97 -23 145.5t-136 48.5h-172l51 242h174q85 0 145 37.5t78 122.5q17 76 -32.5 119
t-141.5 43q-126 0 -242 -58l-14 258q176 76 363 76q137 0 236 -47.5t144 -140t19 -215.5z" />
    <glyph glyph-name="uni0418" unicode="&#x418;" horiz-adv-x="1196" 
d="M1266 1434l-305 -1434h-297l167 799l-577 -799h-258l305 1434h299l-166 -775l563 775h269z" />
    <glyph glyph-name="uni0419" unicode="&#x419;" horiz-adv-x="1196" 
d="M803 1524q-275 0 -215 286l207 2q-26 -122 43 -122q36 0 59.5 29t38.5 93l203 -2q-62 -286 -336 -286zM434 659l563 775h269l-305 -1434h-297l167 799l-577 -799h-258l305 1434h299z" />
    <glyph glyph-name="uni041A" unicode="&#x41a;" horiz-adv-x="1124" 
d="M934 1434h336l-453 -697l166 -737h-332l-110 575h-117l-123 -575h-305l305 1434h305l-127 -592h125z" />
    <glyph glyph-name="uni041B" unicode="&#x41b;" horiz-adv-x="1177" 
d="M-92 -6l55 264q71 -11 121 62t98 270l203 844h860l-303 -1434h-305l248 1176h-256l-146 -594q-43 -179 -95.5 -296.5t-123.5 -186t-156 -92t-200 -13.5z" />
    <glyph glyph-name="uni041C" unicode="&#x41c;" horiz-adv-x="1331" 
d="M702 764l422 670h277l-305 -1434h-289l164 772l-324 -522h-96l-102 522l-164 -772h-289l305 1434h266z" />
    <glyph glyph-name="uni041D" unicode="&#x41d;" horiz-adv-x="1212" 
d="M844 848l123 586h315l-305 -1434h-313l122 578h-354l-123 -578h-313l305 1434h313l-125 -586h355z" />
    <glyph glyph-name="uni041E" unicode="&#x41e;" horiz-adv-x="1220" 
d="M516 -25q-207 0 -324.5 123t-117.5 353q0 103 19.5 215t56.5 225t96.5 214.5t134 180.5t175.5 125.5t214 46.5q208 0 325 -121t117 -352q0 -103 -19.5 -215t-56.5 -225.5t-96.5 -215.5t-134 -181.5t-175.5 -126t-214 -46.5zM559 262q59 0 114 56t93.5 141.5t68 184
t44 186t14.5 145.5q0 98 -43 148.5t-123 50.5q-59 0 -114.5 -56t-94 -141.5t-68 -184.5t-43.5 -186.5t-14 -146.5q0 -96 43 -146.5t123 -50.5z" />
    <glyph glyph-name="uni041F" unicode="&#x41f;" horiz-adv-x="1177" 
d="M1245 1434l-305 -1434h-305l248 1161h-334l-248 -1161h-305l305 1434h944z" />
    <glyph glyph-name="uni0420" unicode="&#x420;" horiz-adv-x="1069" 
d="M692 1434q199 0 313.5 -98.5t114.5 -280.5q0 -86 -21.5 -173.5t-70 -173.5t-118.5 -152t-176.5 -107t-235.5 -41h-111l-86 -408h-305l305 1434h391zM444 672h78q70 0 127 34.5t90 86.5t50.5 107.5t17.5 103.5q0 77 -40.5 121t-113.5 44h-102z" />
    <glyph glyph-name="uni0421" unicode="&#x421;" horiz-adv-x="1007" 
d="M535 -25q-216 0 -339.5 126.5t-123.5 351.5q0 130 29 266.5t91 269t148 236t211 167.5t270 64q171 0 314 -86l-134 -264q-91 65 -213 65q-74 0 -140.5 -49.5t-111.5 -126t-78.5 -169t-49 -180t-15.5 -157.5q0 -227 195 -227q138 0 256 68l22 -269q-70 -39 -159 -62.5
t-172 -23.5z" />
    <glyph glyph-name="uni0422" unicode="&#x422;" horiz-adv-x="937" 
d="M213 1434h883l-60 -273h-288l-246 -1161h-305l243 1161h-286z" />
    <glyph glyph-name="uni0423" unicode="&#x423;" horiz-adv-x="1001" 
d="M852 1434h317l-585 -1155q-2 -3 -2 -5l-29 -59q-133 -238 -385 -238q-56 0 -112.5 14.5t-92.5 39.5l119 256q64 -41 127 -41q28 0 48 13t38 46l-94 1129h319l12 -721h3z" />
    <glyph glyph-name="uni0424" unicode="&#x424;" horiz-adv-x="1439" 
d="M1057 1434l-31 -142q230 -9 334.5 -160.5t46.5 -414.5q-55 -254 -221 -410t-404 -166l-30 -141h-303l30 141q-229 9 -333 162t-48 414q55 254 220.5 410t404.5 165l31 142h303zM412 717q-33 -146 -2 -234t120 -94l142 655q-90 -6 -158.5 -90.5t-101.5 -236.5zM1094 717
q32 146 1.5 233t-120.5 94l-141 -655q90 6 159 91t101 237z" />
    <glyph glyph-name="uni0425" unicode="&#x425;" horiz-adv-x="1110" 
d="M897 1434h346l-446 -703l172 -731h-324l-96 514l-297 -514h-350l475 729l-150 705h324l76 -478z" />
    <glyph glyph-name="uni0426" unicode="&#x426;" horiz-adv-x="1241" 
d="M801 0h-805l305 1434h305l-248 -1162h336l246 1162h305l-246 -1162h152l-109 -516h-292z" />
    <glyph glyph-name="uni0427" unicode="&#x427;" horiz-adv-x="1140" 
d="M758 741l147 693h305l-305 -1434h-305l105 492q-164 -66 -306 -66q-155 0 -222 106t-25 302l127 600h301l-121 -568q-18 -85 7.5 -130.5t88.5 -45.5q106 0 203 51z" />
    <glyph glyph-name="uni0428" unicode="&#x428;" horiz-adv-x="1650" 
d="M1413 0h-1417l305 1434h305l-248 -1166h252l248 1166h305l-248 -1166h250l248 1166h305z" />
    <glyph glyph-name="uni0429" unicode="&#x429;" horiz-adv-x="1716" 
d="M1413 1434h305l-248 -1162h158l-110 -516h-293l51 244h-1280l305 1434h305l-248 -1166h252l248 1166h305l-248 -1166h250z" />
    <glyph glyph-name="uni042A" unicode="&#x42a;" horiz-adv-x="1181" 
d="M623 1030h110q235 0 335 -140t48 -380q-52 -244 -212.5 -377t-389.5 -133h-418l248 1163h-188l57 271h496zM809 510q26 124 -11.5 190t-129.5 66h-101l-108 -502h102q92 0 158.5 66.5t89.5 179.5z" />
    <glyph glyph-name="uni042B" unicode="&#x42b;" horiz-adv-x="1605" 
d="M522 1030h111q235 0 335 -140t48 -380q-52 -244 -212.5 -377t-389.5 -133h-418l305 1434h307zM1063 0l305 1434h305l-303 -1434h-307zM709 510q26 124 -12 190t-130 66h-100l-109 -502h103q92 0 158.5 66.5t89.5 179.5z" />
    <glyph glyph-name="uni042C" unicode="&#x42c;" horiz-adv-x="1067" 
d="M522 1030h111q235 0 335 -140t48 -380q-52 -244 -212.5 -377t-389.5 -133h-418l305 1434h307zM709 510q26 124 -12 190t-130 66h-100l-109 -502h103q92 0 158.5 66.5t89.5 179.5z" />
    <glyph glyph-name="uni042D" unicode="&#x42d;" horiz-adv-x="1009" 
d="M553 1456q263 0 375.5 -196t38.5 -543q-75 -356 -274.5 -549t-463.5 -193q-183 0 -301 86l138 269q86 -68 215 -68q109 0 193.5 84.5t137.5 255.5h-393l49 232h396q40 337 -191 337q-117 0 -235 -65l-19 264q179 86 334 86z" />
    <glyph glyph-name="uni042E" unicode="&#x42e;" horiz-adv-x="1667" 
d="M1255 1458q249 0 351 -196t28 -545q-72 -345 -256.5 -543.5t-437.5 -198.5q-223 0 -327.5 160t-69.5 451h-117l-125 -586h-305l305 1434h305l-125 -588h117q88 289 259.5 450.5t397.5 161.5zM1321 717q49 236 15.5 353.5t-138.5 117.5q-106 0 -190 -118.5t-136 -352.5
q-47 -236 -14 -352.5t139 -116.5q107 0 190.5 118t133.5 351z" />
    <glyph glyph-name="uni042F" unicode="&#x42f;" horiz-adv-x="1087" 
d="M1155 1434l-305 -1434h-305l96 457h-86l-309 -457h-332l356 514q-98 58 -132.5 169t-2.5 263q50 234 209 361t389 127h422zM590 717h108l97 452h-111q-93 0 -157 -59.5t-87 -165.5q-24 -113 16 -170t134 -57z" />
    <glyph glyph-name="uni0430" unicode="&#x430;" horiz-adv-x="1069" 
d="M768 1012l25 116h292l-239 -1128h-293l20 98q-118 -123 -270 -123q-131 0 -204.5 89t-73.5 251q0 91 20.5 199.5t64.5 221.5t103.5 205t146 151t183.5 59q157 0 225 -139zM440 240q70 0 129.5 70.5t92.5 203.5l20 90q9 48 7 98.5t-11 92.5t-36 69t-69 27q-43 0 -83 -40.5
t-68.5 -101.5t-49.5 -131.5t-31.5 -132t-10.5 -102.5q0 -143 110 -143z" />
    <glyph glyph-name="uni0431" unicode="&#x431;" horiz-adv-x="1013" 
d="M389 -23q-185 0 -276.5 134t-65.5 378q5 57 25 164q26 123 61.5 224t75 175.5t90 133.5t100.5 99t114 71t122.5 50t132.5 36q100 22 158.5 39.5t120.5 48.5l-27 -248q-42 -24 -90.5 -41.5t-75.5 -24t-92 -20.5q-140 -33 -210.5 -100t-127.5 -234q123 154 291 154
q153 0 217 -145t16 -369q-53 -243 -202.5 -384t-356.5 -141zM449 229q66 0 120 71.5t84 205.5q26 120 3.5 194t-91.5 74t-128.5 -74t-84.5 -192q-15 -79 -13.5 -141t29.5 -100t81 -38z" />
    <glyph glyph-name="uni0432" unicode="&#x432;" horiz-adv-x="964" 
d="M932 838q-19 -89 -79 -155.5t-153 -96.5q97 -25 140 -95t20 -174q-31 -148 -152 -232.5t-309 -84.5h-417l239 1128h402q176 0 257.5 -74.5t51.5 -215.5zM412 662h90q116 0 141 120q11 52 -10.5 82.5t-79.5 30.5h-92zM582 352q22 119 -97 119h-114l-49 -235h110
q124 0 150 116z" />
    <glyph glyph-name="uni0433" unicode="&#x433;" horiz-adv-x="722" 
d="M-18 -2l239 1130h604l-53 -247h-309l-189 -883h-292z" />
    <glyph glyph-name="uni0434" unicode="&#x434;" horiz-adv-x="1140" 
d="M1112 1128l-188 -882h131l-94 -443h-279l41 197h-547l-41 -197h-278l92 443h67q104 68 168 315l138 567h790zM344 246h287l137 639h-215l-72 -297q-54 -218 -137 -342z" />
    <glyph glyph-name="uni0435" unicode="&#x435;" horiz-adv-x="964" 
d="M332 481q-6 -41 -6 -67q0 -86 39.5 -133.5t117.5 -47.5q106 0 217 66l52 -215q-70 -52 -157.5 -80.5t-174.5 -28.5q-183 0 -284 107t-101 301q0 94 22.5 197.5t70.5 205.5t114 183t161.5 131.5t204.5 50.5q165 0 250.5 -90.5t85.5 -255.5q0 -161 -63 -324h-549zM565 907
q-59 0 -107 -66.5t-83 -170.5h278q13 66 13 110q0 127 -101 127z" />
    <glyph glyph-name="uni0436" unicode="&#x436;" horiz-adv-x="1417" 
d="M1176 1128h317l-350 -534l137 -594h-322l-71 432h-62l-92 -432h-289l93 432h-64l-254 -432h-321l389 596l-125 532h319l43 -430h68l92 430h289l-92 -430h69z" />
    <glyph glyph-name="uni0437" unicode="&#x437;" horiz-adv-x="770" 
d="M215 -23q-171 0 -295 66l109 240q31 -23 83 -38.5t103 -15.5q70 0 119 32.5t61 84.5q11 55 -19 90t-95 35h-125l43 209h131q61 0 101.5 30t51.5 81q11 50 -24 82t-103 32q-94 0 -194 -49l-8 227q158 66 305 66q167 0 259 -91t62 -239q-18 -86 -71 -152t-123 -96
q62 -29 88.5 -96t5.5 -164q-31 -145 -162 -239.5t-303 -94.5z" />
    <glyph glyph-name="uni0438" unicode="&#x438;" horiz-adv-x="1046" 
d="M1065 1128l-240 -1128h-293l115 539l-409 -539h-256l239 1128h293l-111 -522l398 522h264z" />
    <glyph glyph-name="uni0439" unicode="&#x439;" horiz-adv-x="1046" 
d="M664 1219q-275 0 -215 286l206 2q-26 -123 43 -123q36 0 60 30t39 93l202 -2q-62 -286 -335 -286zM403 606l398 522h264l-240 -1128h-293l115 539l-409 -539h-256l239 1128h293z" />
    <glyph glyph-name="uni043A" unicode="&#x43a;" horiz-adv-x="983" 
d="M741 1128h320l-359 -544l146 -584h-324l-73 432h-84l-93 -432h-292l239 1128h293l-92 -438h84z" />
    <glyph glyph-name="uni043B" unicode="&#x43b;" horiz-adv-x="1026" 
d="M1044 1126l-237 -1126h-295l188 883h-194l-105 -437q-61 -261 -178 -367.5t-325 -80.5l51 233q65 -6 98.5 44t65.5 188l161 663h770z" />
    <glyph glyph-name="uni043C" unicode="&#x43c;" horiz-adv-x="1167" 
d="M612 690l283 438h291l-240 -1128h-289l117 547l-235 -354h-66l-86 354l-117 -547h-288l239 1128h293z" />
    <glyph glyph-name="uni043D" unicode="&#x43d;" horiz-adv-x="1036" 
d="M668 690l92 438h295l-240 -1128h-293l94 451h-245l-97 -451h-292l239 1128h293l-92 -438h246z" />
    <glyph glyph-name="uni043E" unicode="&#x43e;" horiz-adv-x="1028" 
d="M401 -25q-177 0 -271.5 104.5t-94.5 295.5q0 80 16.5 167t48 174.5t82 165.5t114 139t149.5 96.5t182 35.5q177 0 271.5 -104t94.5 -293q0 -80 -16.5 -167t-48 -174.5t-82 -166.5t-114 -140t-149.5 -97t-182 -36zM455 242q53 0 100 57t76 138t46 160t17 132
q0 76 -32.5 117t-88.5 41q-52 0 -99 -56t-76.5 -135.5t-46.5 -159.5t-17 -135q0 -76 32 -117.5t89 -41.5z" />
    <glyph glyph-name="uni043F" unicode="&#x43f;" horiz-adv-x="1034" 
d="M1053 1128l-240 -1128h-295l189 885h-244l-189 -885h-292l239 1128h832z" />
    <glyph glyph-name="uni0440" unicode="&#x440;" horiz-adv-x="1069" 
d="M201 -352h-293l315 1480h293l-20 -98q116 121 272 121q129 0 202.5 -88.5t73.5 -251.5q0 -91 -20.5 -199.5t-64 -221.5t-102.5 -205t-145.5 -151t-183.5 -59q-164 0 -229 134zM496 238q53 0 101 60t77 145t46 167t17 135q0 144 -110 144q-66 0 -126.5 -83t-93 -193
t-32.5 -203q0 -74 31.5 -123t89.5 -49z" />
    <glyph glyph-name="uni0441" unicode="&#x441;" horiz-adv-x="821" 
d="M412 -25q-179 0 -278 104.5t-99 291.5q0 104 24.5 212t76 209.5t122 181.5t170 128.5t213.5 48.5q151 0 258 -66l-125 -251q-73 51 -158 51q-67 0 -122.5 -48.5t-88.5 -122t-51 -151.5t-18 -145q0 -82 39.5 -128t109.5 -46q84 0 174 47l19 -248q-130 -68 -266 -68z" />
    <glyph glyph-name="uni0442" unicode="&#x442;" horiz-adv-x="817" 
d="M164 1128h727l-51 -251h-219l-187 -877h-293l187 877h-217z" />
    <glyph glyph-name="uni0443" unicode="&#x443;" horiz-adv-x="1001" 
d="M88 -375q-127 0 -219 39l92 227q71 -22 135 -22q44 0 78 25t62 83l14 31h-21l-88 1120h295l17 -757h4l325 757h318l-570 -1171q-86 -179 -188.5 -255.5t-253.5 -76.5z" />
    <glyph glyph-name="uni0444" unicode="&#x444;" horiz-adv-x="1372" 
d="M1018 1434l-62 -291q218 -3 320 -156.5t43 -419.5q-56 -262 -219.5 -420.5t-390.5 -162.5l-70 -332h-293l70 332q-219 3 -320.5 157t-42.5 424q56 259 221 417t390 161l61 291h293zM350 567q-33 -148 -1.5 -236t122.5 -89l137 645q-90 -3 -157.5 -85t-100.5 -235z
M1022 565q32 145 1.5 231.5t-122.5 90.5l-137 -645q90 3 157.5 85.5t100.5 237.5z" />
    <glyph glyph-name="uni0445" unicode="&#x445;" horiz-adv-x="1009" 
d="M762 1128h325l-389 -561l174 -567h-313l-94 373l-240 -373h-327l417 582l-153 546h313l76 -340z" />
    <glyph glyph-name="uni0446" unicode="&#x446;" horiz-adv-x="1081" 
d="M758 1118h293l-189 -882h131l-94 -443h-278l41 197h-682l239 1128h293l-188 -885h245z" />
    <glyph glyph-name="uni0447" unicode="&#x447;" horiz-adv-x="1024" 
d="M645 639l105 487h292l-239 -1126h-293l84 391q-152 -76 -275 -76q-134 0 -189 104.5t-15 289.5l88 417h293l-82 -381q-15 -74 6 -116.5t76 -42.5q80 0 149 53z" />
    <glyph glyph-name="uni0448" unicode="&#x448;" horiz-adv-x="1472" 
d="M1010 246l188 882h293l-240 -1128h-1269l239 1128h293l-188 -882h196l187 882h292l-186 -882h195z" />
    <glyph glyph-name="uni0449" unicode="&#x449;" horiz-adv-x="1519" 
d="M1198 1128h293l-188 -882h131l-95 -443h-278l41 197h-1120l239 1128h293l-188 -882h196l187 882h292l-186 -882h195z" />
    <glyph glyph-name="uni044A" unicode="&#x44a;" horiz-adv-x="1071" 
d="M565 834h82q200 0 291 -112t51 -306q-43 -196 -180.5 -305t-339.5 -109h-373l193 903h-195l47 225h488zM692 418q17 82 -10 127t-94 45h-74l-74 -342h74q68 0 114.5 43.5t63.5 126.5z" />
    <glyph glyph-name="uni044B" unicode="&#x44b;" horiz-adv-x="1437" 
d="M451 834h79q202 0 292.5 -112.5t49.5 -305.5q-41 -197 -179 -306.5t-339 -109.5h-372l239 1128h293zM924 0l239 1128h293l-239 -1128h-293zM578 416q17 83 -10 127.5t-95 44.5h-74l-73 -342h73q67 0 113.5 44t65.5 126z" />
    <glyph glyph-name="uni044C" unicode="&#x44c;" horiz-adv-x="942" 
d="M451 834h79q202 0 292.5 -112.5t49.5 -305.5q-41 -197 -179 -306.5t-339 -109.5h-372l239 1128h293zM578 416q17 83 -10 127.5t-95 44.5h-74l-73 -342h73q67 0 113.5 44t65.5 126z" />
    <glyph glyph-name="uni044D" unicode="&#x44d;" horiz-adv-x="833" 
d="M418 1151q224 0 320 -157.5t38 -430.5q-60 -274 -222.5 -431t-387.5 -157q-142 0 -240 88l150 236q52 -55 137 -55q76 0 138.5 57t101.5 166h-289l43 205h289q6 103 -33 158t-111 55q-83 0 -164 -56l-51 236q134 86 281 86z" />
    <glyph glyph-name="uni044E" unicode="&#x44e;" horiz-adv-x="1515" 
d="M1128 1151q207 0 300 -156t34 -428q-56 -267 -213 -429.5t-370 -162.5q-182 0 -277.5 123t-75.5 342h-157l-95 -440h-292l239 1128h293l-94 -440h158q73 214 218.5 338.5t331.5 124.5zM1165 565q32 154 7 238t-101 84q-74 0 -135 -82t-94 -238q-33 -155 -7.5 -240
t101.5 -85q73 0 134 83t95 240z" />
    <glyph glyph-name="uni044F" unicode="&#x44f;" horiz-adv-x="964" 
d="M983 1128l-240 -1128h-290l73 346h-77l-222 -346h-311l274 406q-147 103 -98 329q41 189 175.5 291t328.5 102h387zM483 575h92l64 306h-92q-63 0 -107 -40t-59 -112q-17 -78 11.5 -116t90.5 -38z" />
    <glyph glyph-name="uni0450" unicode="&#x450;" horiz-adv-x="968" 
d="M680 1559l74 -279l-187 -35l-151 252zM870 471h-534q-4 -50 -4 -65q0 -173 151 -173q48 0 113 16.5t123 43.5l8 -238q-148 -80 -311 -80q-177 0 -280 107.5t-103 294.5q0 100 24.5 206.5t75 208t119 181.5t164 129t202.5 49q157 0 245.5 -90t88.5 -248q0 -152 -82 -342z
M578 905q-60 0 -110.5 -68.5t-86.5 -174.5h276q19 87 19 129q0 55 -26.5 84.5t-71.5 29.5z" />
    <glyph glyph-name="uni0451" unicode="&#x451;" horiz-adv-x="968" 
d="M426 1511h205l-56 -258h-202zM764 1511h201l-54 -258h-202zM618 1151q157 0 245.5 -90t88.5 -248q0 -152 -82 -342h-534q-4 -50 -4 -65q0 -173 151 -173q48 0 113 16.5t123 43.5l8 -238q-148 -80 -311 -80q-177 0 -280 107.5t-103 294.5q0 100 24.5 206.5t75 208
t119 181.5t164 129t202.5 49zM381 662h276q19 87 19 129q0 55 -26.5 84.5t-71.5 29.5q-60 0 -110.5 -68.5t-86.5 -174.5z" />
    <glyph glyph-name="uni0452" unicode="&#x452;" horiz-adv-x="1153" 
d="M868 1151q145 0 206 -103.5t20 -297.5l-160 -750l-4 -14q-35 -160 -137 -249t-267 -89q-66 0 -133 24l80 252q28 -14 62 -14q86 0 108 104l43 203l109 514q35 154 -76 154q-55 0 -105.5 -44t-81.5 -126l-151 -715h-293l254 1196h-125l41 195h125l27 120h292l-26 -120h178
l-41 -195h-178l-39 -182q114 137 272 137z" />
    <glyph glyph-name="uni0453" unicode="&#x453;" horiz-adv-x="722" 
d="M877 1497l-261 -252l-172 35l191 279zM-18 -2l239 1130h604l-53 -247h-309l-189 -883h-292z" />
    <glyph glyph-name="uni0454" unicode="&#x454;" horiz-adv-x="821" 
d="M616 885q-77 0 -134.5 -59t-94.5 -154h283l-39 -203h-293q-2 -18 -2 -51q0 -82 39.5 -128t109.5 -46q84 0 174 47l19 -248q-130 -68 -266 -68q-179 0 -278 104.5t-99 291.5q0 104 24.5 212t76 209.5t122 181.5t170 128.5t213.5 48.5q151 0 258 -66l-125 -251
q-73 51 -158 51z" />
    <glyph glyph-name="uni0455" unicode="&#x455;" horiz-adv-x="804" 
d="M270 -23q-196 0 -340 66l86 248q127 -62 260 -62q63 0 102.5 29t39.5 78q2 38 -26.5 72.5t-94.5 74.5q-100 48 -152.5 113t-52.5 162q0 172 120.5 282.5t311.5 110.5q165 0 303 -61l-86 -250q-105 57 -221 57q-59 0 -95 -25t-36 -67q0 -44 28.5 -76.5t88.5 -64.5
q108 -54 158.5 -123t50.5 -176q0 -163 -123 -275.5t-322 -112.5z" />
    <glyph glyph-name="uni0456" unicode="&#x456;" horiz-adv-x="495" 
d="M535 1239h-306l56 258h305zM274 0h-292l239 1128h293z" />
    <glyph glyph-name="uni0457" unicode="&#x457;" horiz-adv-x="495" 
d="M328 1253h-203l55 258h203zM664 1253h-203l55 258h203zM274 0h-292l239 1128h293z" />
    <glyph glyph-name="uni0458" unicode="&#x458;" horiz-adv-x="507" 
d="M543 1239h-305l55 258h305zM-252 -342l62 229q24 -8 69 -8q88 0 117 139l235 1110h295l-239 -1128q-40 -187 -141 -277t-250 -90q-84 0 -148 25z" />
    <glyph glyph-name="uni0459" unicode="&#x459;" horiz-adv-x="1464" 
d="M975 825h65q201 0 290.5 -110.5t49.5 -302.5q-42 -196 -179 -304t-333 -108h-358l188 883h-192l-105 -437q-60 -259 -176.5 -363.5t-326.5 -84.5l51 233q65 -6 98.5 44t65.5 188l161 663h764zM1090 414q17 86 -9 131t-94 45h-63l-74 -348h63q67 0 113 43.5t64 128.5z" />
    <glyph glyph-name="uni045A" unicode="&#x45a;" horiz-adv-x="1476" 
d="M977 768h67q194 0 287.5 -100t57.5 -273q-39 -183 -172.5 -289t-331.5 -106h-365l111 522h-246l-111 -522h-292l239 1128h293l-78 -364h246l78 364h293zM1098 391q12 62 -16.5 98.5t-92.5 36.5h-63l-60 -278h64q62 0 107.5 38t60.5 105z" />
    <glyph glyph-name="uni045B" unicode="&#x45b;" horiz-adv-x="1054" 
d="M776 1151q145 0 205.5 -103.5t19.5 -297.5l-159 -750h-293l156 731q32 154 -78 154q-55 0 -104.5 -43t-80.5 -125l-151 -717h-293l252 1196h-125l41 195h127l24 120h293l-24 -120h178l-41 -195h-180l-37 -182q111 137 270 137z" />
    <glyph glyph-name="uni045C" unicode="&#x45c;" horiz-adv-x="983" 
d="M733 1559l242 -62l-260 -252l-172 35zM741 1128h320l-359 -544l146 -584h-324l-73 432h-84l-93 -432h-292l239 1128h293l-92 -438h84z" />
    <glyph glyph-name="uni045D" unicode="&#x45d;" horiz-adv-x="1046" 
d="M782 1280l-186 -35l-152 252l265 62zM1065 1128l-240 -1128h-293l115 539l-409 -539h-256l239 1128h293l-111 -522l398 522h264z" />
    <glyph glyph-name="uni045E" unicode="&#x45e;" horiz-adv-x="1001" 
d="M643 1219q-275 0 -215 286l207 2q-26 -123 43 -123q36 0 59.5 29.5t38.5 93.5l203 -2q-62 -286 -336 -286zM457 371l325 757h318l-570 -1171q-86 -179 -188.5 -255.5t-253.5 -76.5q-127 0 -219 39l92 227q71 -22 135 -22q44 0 78 25t62 83l14 31h-21l-88 1120h295
l17 -757h4z" />
    <glyph glyph-name="uni045F" unicode="&#x45f;" horiz-adv-x="1034" 
d="M760 1128h293l-240 -1128h-270l-54 -248h-292l53 248h-268l239 1128h293l-188 -884h245z" />
    <glyph glyph-name="uni0474" unicode="&#x474;" horiz-adv-x="1134" 
d="M614 0h-360l-51 1434h307l8 -1024h10l275 663q82 189 208.5 289t286.5 100l-63 -303q-97 0 -174 -158z" />
    <glyph glyph-name="uni0474" unicode="&#x475;" horiz-adv-x="1134" 
d="M614 0h-360l-51 1434h307l8 -1024h10l275 663q82 189 208.5 289t286.5 100l-63 -303q-97 0 -174 -158z" />
    <glyph glyph-name="uni0490" unicode="&#x490;" horiz-adv-x="897" 
d="M762 1434l49 225h293l-49 -225l-58 -269h-440l-248 -1165h-313l305 1434h461z" />
    <glyph glyph-name="uni0491" unicode="&#x491;" horiz-adv-x="722" 
d="M868 1333l-43 -205l-39 -178l-10 -51l-4 -18h-309l-189 -883h-292l239 1130h338l43 205h266z" />
    <glyph glyph-name="uni04D9" unicode="&#x4d9;" horiz-adv-x="966" 
d="M545 1153q183 0 284 -107t101 -301q0 -94 -22.5 -197.5t-71 -205.5t-114.5 -183t-161.5 -131.5t-204.5 -50.5q-165 0 -250.5 91t-85.5 256q0 157 64 323h549q6 41 6 68q0 86 -40 133t-118 47q-106 0 -217 -66l-51 215q70 52 157.5 80.5t174.5 28.5zM399 221
q59 0 108 67.5t83 170.5h-279q-12 -61 -12 -111q0 -127 100 -127z" />
    <glyph glyph-name="uni1E0C" unicode="&#x1e0c;" horiz-adv-x="1204" 
d="M430 0h-434l305 1434h406q236 0 362.5 -122t126.5 -351q0 -130 -29 -262.5t-91 -258.5t-150 -223.5t-216.5 -157t-279.5 -59.5zM549 1161l-189 -889h99q82 0 153 49.5t117 124.5t79 166t47.5 173t14.5 147q0 113 -53 171t-155 58h-113zM180 -340l56 258h280l-55 -258
h-281z" />
    <glyph glyph-name="uni1E0D" unicode="&#x1e0d;" horiz-adv-x="1073" 
d="M301 -25q-129 0 -201.5 89.5t-72.5 252.5q0 75 15 163.5t43 182.5t72.5 181t99.5 155.5t129 110t155 41.5q163 0 231 -131l105 491h292l-321 -1511h-293l23 100q-120 -125 -277 -125zM444 240q75 0 134 80t92 217q34 158 9.5 255t-104.5 97q-54 0 -102.5 -60.5
t-77.5 -145t-46 -167t-17 -135.5q0 -141 112 -141zM205 -340l55 258h281l-56 -258h-280z" />
    <glyph glyph-name="uni1E0E" unicode="&#x1e0e;" horiz-adv-x="1204" 
d="M430 0h-434l305 1434h406q236 0 362.5 -122t126.5 -351q0 -130 -29 -262.5t-91 -258.5t-150 -223.5t-216.5 -157t-279.5 -59.5zM549 1161l-189 -889h99q82 0 153 49.5t117 124.5t79 166t47.5 173t14.5 147q0 113 -53 171t-155 58h-113zM602 -297h-545l37 174h545z" />
    <glyph glyph-name="uni1E0F" unicode="&#x1e0f;" horiz-adv-x="1073" 
d="M301 -25q-129 0 -201.5 89.5t-72.5 252.5q0 75 15 163.5t43 182.5t72.5 181t99.5 155.5t129 110t155 41.5q163 0 231 -131l105 491h292l-321 -1511h-293l23 100q-120 -125 -277 -125zM444 240q75 0 134 80t92 217q34 158 9.5 255t-104.5 97q-54 0 -102.5 -60.5
t-77.5 -145t-46 -167t-17 -135.5q0 -141 112 -141zM625 -297h-545l37 174h545z" />
    <glyph glyph-name="uni1E20" unicode="&#x1e20;" horiz-adv-x="1122" 
d="M571 1722h545l-37 -176h-544zM760 537h-98l53 243h381l-146 -682q-226 -123 -436 -123t-326 126t-116 348q0 112 21.5 228.5t62.5 229.5t106 212.5t146 175t188.5 119.5t228.5 44q194 0 334 -80l-131 -274q-49 32 -112 51t-117 19q-81 0 -151 -48.5t-116 -124.5
t-79.5 -170t-48.5 -184t-15 -168q0 -106 45 -161.5t129 -55.5q74 0 146 31z" />
    <glyph glyph-name="uni1E21" unicode="&#x1e21;" horiz-adv-x="1069" 
d="M948 1253h-545l39 177h543zM287 -375q-182 0 -334 82l115 236q108 -68 229 -68q220 0 289 285q0 3 1 9t1 9q-121 -135 -277 -135q-131 0 -202.5 87.5t-71.5 242.5q0 128 38 265t102.5 251.5t162 188t205.5 73.5q158 0 225 -137l25 114h292l-192 -909
q-61 -287 -216 -440.5t-392 -153.5zM451 289q49 0 96 47t78 116t50 146t19 139q0 75 -30 116.5t-84 41.5q-64 0 -121.5 -85t-88 -192t-30.5 -190q0 -67 29 -103t82 -36z" />
    <glyph glyph-name="uni1E24" unicode="&#x1e24;" horiz-adv-x="1212" 
d="M844 848l123 586h315l-305 -1434h-313l122 578h-354l-123 -578h-313l305 1434h313l-125 -586h355zM553 -340h-281l56 258h280z" />
    <glyph glyph-name="uni1E25" unicode="&#x1e25;" horiz-adv-x="1042" 
d="M764 1151q145 0 205.5 -103.5t19.5 -297.5l-160 -750h-292l155 731q32 154 -78 154q-54 0 -102.5 -42t-81.5 -122l-151 -721h-295l321 1511h293l-104 -497q111 137 270 137zM471 -340h-281l56 258h280z" />
    <glyph glyph-name="uni1E2A" unicode="&#x1e2a;" horiz-adv-x="1212" 
d="M844 848l123 586h315l-305 -1434h-313l122 578h-354l-123 -578h-313l305 1434h313l-125 -586h355zM492 -162q32 0 51.5 23t31.5 73l177 -2q-53 -221 -291 -221q-235 0 -182 221l176 2q-23 -96 37 -96z" />
    <glyph glyph-name="uni1E2B" unicode="&#x1e2b;" horiz-adv-x="1042" 
d="M764 1151q145 0 205.5 -103.5t19.5 -297.5l-160 -750h-292l155 731q32 154 -78 154q-54 0 -102.5 -42t-81.5 -122l-151 -721h-295l321 1511h293l-104 -497q111 137 270 137zM410 -162q32 0 52 23t32 73l176 -2q-53 -221 -291 -221q-235 0 -182 221l176 2q-23 -96 37 -96z
" />
    <glyph glyph-name="uni1E36" unicode="&#x1e36;" horiz-adv-x="894" 
d="M750 0h-754l305 1434h313l-247 -1166h440zM121 -340l55 258h281l-56 -258h-280z" />
    <glyph glyph-name="uni1E37" unicode="&#x1e37;" horiz-adv-x="501" 
d="M279 0h-295l321 1511h293zM-78 -340l55 258h281l-55 -258h-281z" />
    <glyph glyph-name="uni1E38" unicode="&#x1e38;" horiz-adv-x="894" 
d="M852 1546h-545l37 176h545zM750 0h-754l305 1434h313l-247 -1166h440zM121 -340l55 258h281l-56 -258h-280z" />
    <glyph glyph-name="uni1E39" unicode="&#x1e39;" horiz-adv-x="501" 
d="M745 1624h-544l37 176h544zM279 0h-295l321 1511h293zM-78 -340l55 258h281l-55 -258h-281z" />
    <glyph glyph-name="uni1E3A" unicode="&#x1e3a;" horiz-adv-x="894" 
d="M750 0h-754l305 1434h313l-247 -1166h440zM543 -297h-545l37 174h545z" />
    <glyph glyph-name="uni1E3B" unicode="&#x1e3b;" horiz-adv-x="501" 
d="M279 0h-295l321 1511h293zM342 -297h-545l37 174h545z" />
    <glyph glyph-name="uni1E42" unicode="&#x1e42;" horiz-adv-x="1382" 
d="M698 627l426 807h303l-243 -1434h-293l131 762l-389 -762h-123l-59 762l-199 -762h-293l367 1434h292zM639 -340h-281l56 258h280z" />
    <glyph glyph-name="uni1E43" unicode="&#x1e43;" horiz-adv-x="1536" 
d="M1253 1151q147 0 209.5 -101t20.5 -300l-160 -750h-293l154 725q18 85 0.5 121.5t-64.5 36.5q-105 0 -166 -152l-153 -731h-295l153 725q33 158 -61 158q-51 0 -95.5 -41t-74.5 -119l-154 -723h-292l239 1128h293l-18 -88q97 111 239 111q190 0 230 -164q118 164 288 164
zM717 -340h-281l56 258h280z" />
    <glyph glyph-name="uni1E44" unicode="&#x1e44;" horiz-adv-x="1210" 
d="M963 1522h-304l56 250h303zM293 0h-297l305 1434h277l235 -783l168 783h297l-303 -1434h-266l-244 805z" />
    <glyph glyph-name="uni1E45" unicode="&#x1e45;" horiz-adv-x="1038" 
d="M561 1497h305l-55 -258h-305zM774 1151q144 0 199.5 -98.5t13.5 -292.5l-160 -760h-295l156 731q35 154 -78 154q-44 0 -93 -38.5t-85 -103.5l-158 -743h-292l239 1128h293l-29 -133q125 156 289 156z" />
    <glyph glyph-name="uni1E46" unicode="&#x1e46;" horiz-adv-x="1210" 
d="M293 0h-297l305 1434h277l235 -783l168 783h297l-303 -1434h-266l-244 805zM272 -340l56 258h280l-55 -258h-281z" />
    <glyph glyph-name="uni1E47" unicode="&#x1e47;" horiz-adv-x="1038" 
d="M774 1151q144 0 199.5 -98.5t13.5 -292.5l-160 -760h-295l156 731q35 154 -78 154q-44 0 -93 -38.5t-85 -103.5l-158 -743h-292l239 1128h293l-29 -133q125 156 289 156zM471 -340h-281l56 258h280z" />
    <glyph glyph-name="uni1E48" unicode="&#x1e48;" horiz-adv-x="1210" 
d="M293 0h-297l305 1434h277l235 -783l168 783h297l-303 -1434h-266l-244 805zM694 -297h-544l36 174h545z" />
    <glyph glyph-name="uni1E49" unicode="&#x1e49;" horiz-adv-x="1038" 
d="M774 1151q144 0 199.5 -98.5t13.5 -292.5l-160 -760h-295l156 731q35 154 -78 154q-44 0 -93 -38.5t-85 -103.5l-158 -743h-292l239 1128h293l-29 -133q125 156 289 156zM612 -297h-544l36 174h545z" />
    <glyph glyph-name="uni1E5A" unicode="&#x1e5a;" horiz-adv-x="1087" 
d="M1124 1077q0 -81 -18.5 -160.5t-56 -156t-102.5 -141t-150 -103.5l137 -516h-322l-114 457h-101l-96 -457h-305l305 1434h393q201 0 315.5 -94t114.5 -263zM455 717h77q71 0 127 29.5t87.5 76t48 95.5t16.5 94q0 73 -40.5 115t-115.5 42h-104zM506 -340h-281l56 258h280z
" />
    <glyph glyph-name="uni1E5B" unicode="&#x1e5b;" horiz-adv-x="694" 
d="M719 1147q43 0 78 -12l-88 -304q-49 11 -95 11q-76 0 -135 -79.5t-92 -232.5l-113 -530h-292l239 1128h293l-25 -120q95 139 230 139zM195 -340h-281l55 258h281z" />
    <glyph glyph-name="uni1E5C" unicode="&#x1e5c;" horiz-adv-x="1087" 
d="M520 1722h545l-37 -176h-545zM1124 1077q0 -81 -18.5 -160.5t-56 -156t-102.5 -141t-150 -103.5l137 -516h-322l-114 457h-101l-96 -457h-305l305 1434h393q201 0 315.5 -94t114.5 -263zM455 717h77q71 0 127 29.5t87.5 76t48 95.5t16.5 94q0 73 -40.5 115t-115.5 42
h-104zM506 -340h-281l56 258h280z" />
    <glyph glyph-name="uni1E5D" unicode="&#x1e5d;" horiz-adv-x="694" 
d="M240 1430h542l-37 -177h-544zM719 1147q43 0 78 -12l-88 -304q-49 11 -95 11q-76 0 -135 -79.5t-92 -232.5l-113 -530h-292l239 1128h293l-25 -120q95 139 230 139zM195 -340h-281l55 258h281z" />
    <glyph glyph-name="uni1E5E" unicode="&#x1e5e;" horiz-adv-x="1087" 
d="M1124 1077q0 -81 -18.5 -160.5t-56 -156t-102.5 -141t-150 -103.5l137 -516h-322l-114 457h-101l-96 -457h-305l305 1434h393q201 0 315.5 -94t114.5 -263zM455 717h77q71 0 127 29.5t87.5 76t48 95.5t16.5 94q0 73 -40.5 115t-115.5 42h-104zM645 -297h-545l37 174h545z
" />
    <glyph glyph-name="uni1E5F" unicode="&#x1e5f;" horiz-adv-x="694" 
d="M719 1147q43 0 78 -12l-88 -304q-49 11 -95 11q-76 0 -135 -79.5t-92 -232.5l-113 -530h-292l239 1128h293l-25 -120q95 139 230 139zM336 -297h-545l37 174h545z" />
    <glyph glyph-name="uni1E60" unicode="&#x1e60;" horiz-adv-x="937" 
d="M842 1526h-303l55 250h303zM340 -25q-230 0 -399 82l94 269q63 -34 145 -55t150 -21q96 0 152.5 44t56.5 116q0 59 -34 103t-108 101q-76 47 -126.5 93.5t-85.5 118t-35 157.5q0 205 145 340t373 135q192 0 352 -80l-98 -268q-135 72 -248 72q-89 0 -141 -42.5
t-52 -113.5q0 -56 34.5 -100.5t107.5 -96.5q243 -145 243 -372q0 -212 -147.5 -347t-378.5 -135z" />
    <glyph glyph-name="uni1E61" unicode="&#x1e61;" horiz-adv-x="804" 
d="M690 1239h-305l55 258h305zM270 -23q-196 0 -340 66l86 248q127 -62 260 -62q63 0 102.5 29t39.5 78q2 38 -26.5 72.5t-94.5 74.5q-100 48 -152.5 113t-52.5 162q0 172 120.5 282.5t311.5 110.5q165 0 303 -61l-86 -250q-105 57 -221 57q-59 0 -95 -25t-36 -67
q0 -44 28.5 -76.5t88.5 -64.5q108 -54 158.5 -123t50.5 -176q0 -163 -123 -275.5t-322 -112.5z" />
    <glyph glyph-name="uni1E62" unicode="&#x1e62;" horiz-adv-x="937" 
d="M340 -25q-230 0 -399 82l94 269q63 -34 145 -55t150 -21q96 0 152.5 44t56.5 116q0 59 -34 103t-108 101q-76 47 -126.5 93.5t-85.5 118t-35 157.5q0 205 145 340t373 135q192 0 352 -80l-98 -268q-135 72 -248 72q-89 0 -141 -42.5t-52 -113.5q0 -56 34.5 -100.5
t107.5 -96.5q243 -145 243 -372q0 -212 -147.5 -347t-378.5 -135zM133 -340l55 258h281l-55 -258h-281z" />
    <glyph glyph-name="uni1E63" unicode="&#x1e63;" horiz-adv-x="804" 
d="M270 -23q-196 0 -340 66l86 248q127 -62 260 -62q63 0 102.5 29t39.5 78q2 38 -26.5 72.5t-94.5 74.5q-100 48 -152.5 113t-52.5 162q0 172 120.5 282.5t311.5 110.5q165 0 303 -61l-86 -250q-105 57 -221 57q-59 0 -95 -25t-36 -67q0 -44 28.5 -76.5t88.5 -64.5
q108 -54 158.5 -123t50.5 -176q0 -163 -123 -275.5t-322 -112.5zM70 -340l55 258h281l-56 -258h-280z" />
    <glyph glyph-name="uni1E6C" unicode="&#x1e6c;" horiz-adv-x="937" 
d="M213 1434h883l-60 -273h-288l-246 -1161h-305l243 1161h-286zM418 -340h-281l56 258h280z" />
    <glyph glyph-name="uni1E6D" unicode="&#x1e6d;" horiz-adv-x="763" 
d="M338 -25q-159 0 -217 92.5t-23 258.5l119 551h-106l30 139l131 127l224 227h118l-53 -242h244l-53 -251h-242l-113 -521q-22 -114 66 -114q51 0 133 28l-6 -245q-136 -50 -252 -50zM51 -344l55 258h281l-55 -258h-281z" />
    <glyph glyph-name="uni1E6E" unicode="&#x1e6e;" horiz-adv-x="937" 
d="M213 1434h883l-60 -273h-288l-246 -1161h-305l243 1161h-286zM557 -297h-545l37 174h545z" />
    <glyph glyph-name="uni1E6F" unicode="&#x1e6f;" horiz-adv-x="763" 
d="M338 -25q-159 0 -217 92.5t-23 258.5l119 551h-106l30 139l131 127l224 227h118l-53 -242h244l-53 -251h-242l-113 -521q-22 -114 66 -114q51 0 133 28l-6 -245q-136 -50 -252 -50zM473 -301h-545l37 174h545z" />
    <glyph glyph-name="Wgrave" unicode="&#x1e80;" horiz-adv-x="1609" 
d="M1030 1796l96 -260l-215 -12l-151 217zM1071 428l393 1006h314l-602 -1434h-336l16 799l-326 -799h-329l2 1434h305l-33 -1006l383 1006h248z" />
    <glyph glyph-name="wgrave" unicode="&#x1e81;" horiz-adv-x="1433" 
d="M907 1559l74 -279l-186 -35l-152 252zM926 377l295 751h307l-506 -1128h-299l8 641l-256 -641h-301l-29 1128h297l-18 -751l291 751h231z" />
    </font>
</defs>
</svg>
