<?xml version="1.0" standalone="no"?>
<!DOCTYPE svg PUBLIC "-//W3C//DTD SVG 1.1//EN" "http://www.w3.org/Graphics/SVG/1.1/DTD/svg11.dtd" >
<svg xmlns="http://www.w3.org/2000/svg" xmlns:xlink="http://www.w3.org/1999/xlink" version="1.1">
<metadata>
Created by FontForge 20170731 at Mon Aug 16 22:15:01 2021
 By Aleksey,,,
Copyright (c) 2020 by Ligature srl. All rights reserved.
</metadata>
<defs>
<font id="EastmanCondensedTrial-ExtralightItalic" horiz-adv-x="0" >
  <font-face 
    font-family="Eastman Condensed Trial Exlight"
    font-weight="200"
    font-style="italic"
    font-stretch="condensed"
    units-per-em="2048"
    panose-1="0 0 3 6 0 0 0 0 0 0"
    ascent="1638"
    descent="-410"
    x-height="1092"
    cap-height="1434"
    bbox="-1311 -420 2818 2093"
    underline-thickness="40"
    underline-position="-450"
    slope="-12"
    unicode-range="U+0020-F8FF"
  />
<missing-glyph horiz-adv-x="1259" 
 />
    <glyph glyph-name=".notdef" horiz-adv-x="1259" 
 />
    <glyph glyph-name=".null" 
 />
    <glyph glyph-name="nonmarkingreturn" horiz-adv-x="682" 
 />
    <glyph glyph-name="space" unicode=" " horiz-adv-x="407" 
 />
    <glyph glyph-name="exclam" unicode="!" horiz-adv-x="399" 
d="M217 735l148 701h45l-148 -701l-82 -360h-33zM31 0l22 102h105l-23 -102h-104z" />
    <glyph glyph-name="quotedbl" unicode="&#x22;" horiz-adv-x="479" 
d="M383 1511l-102 -325h-35l90 325h47zM575 1511l-102 -325h-35l90 325h47z" />
    <glyph glyph-name="numbersign" unicode="#" horiz-adv-x="1323" 
d="M1303 961l-9 -39h-272l-182 -377h309l-8 -39h-320l-205 -428h-43l205 428h-372l-205 -428h-43l204 428h-262l9 39h272l180 377h-307l8 39h318l204 428h43l-204 -428h374l205 428h43l-205 -428h263zM424 545h373l182 377h-375z" />
    <glyph glyph-name="dollar" unicode="$" horiz-adv-x="886" 
d="M922 1370l-17 -45q-110 77 -260 80l-139 -645q60 -36 100 -66.5t77 -72.5t55 -95.5t18 -119.5q0 -107 -51 -200t-147.5 -153t-217.5 -67l-18 -90h-37l18 88q-193 0 -330 90l21 41q127 -86 317 -86h2l150 702q-63 42 -101 72t-74 71.5t-52.5 90t-16.5 108.5
q0 143 113 256.5t284 120.5l27 129h39l-29 -129q153 -6 269 -80zM266 1079q0 -52 13.5 -93t43 -77t63 -63.5t87.5 -63.5l133 623q-143 -10 -241.5 -106t-98.5 -220zM709 401q0 60 -15 107.5t-47 84.5t-65.5 63t-85.5 57l-146 -682q158 13 258.5 120t100.5 250z" />
    <glyph glyph-name="percent" unicode="%" horiz-adv-x="1054" 
d="M309 887q-84 0 -114.5 79.5t-1.5 219.5q30 138 92.5 218.5t148.5 80.5q84 0 114 -78.5t1 -220.5q-29 -136 -92 -217.5t-148 -81.5zM315 924q65 0 116.5 70.5t78.5 191.5q26 118 5 190t-87 72q-67 0 -118.5 -70t-76.5 -192q-27 -117 -6 -189.5t88 -72.5zM117 0h-43
l936 1434h41zM705 -8q-85 0 -115.5 79.5t-1.5 219.5q30 138 92.5 218.5t148.5 80.5q84 0 114 -78.5t1 -220.5q-29 -136 -91.5 -217.5t-147.5 -81.5zM711 29q65 0 116 70t78 192q26 119 5 190.5t-87 71.5q-67 0 -118 -69.5t-76 -192.5q-27 -117 -6 -189.5t88 -72.5z" />
    <glyph glyph-name="ampersand" unicode="&#x26;" horiz-adv-x="1251" 
d="M1241 770h-207q-27 -181 -98.5 -341.5t-181.5 -270.5q103 -119 237 -119l-10 -41q-146 -3 -264 125q-162 -139 -369 -139q-179 0 -243 119.5t-21 320.5q40 192 157 335t275 208q8 59 25 141q32 155 116.5 247.5t194.5 92.5q93 0 134 -66t13 -194q-18 -81 -69 -180.5
t-129 -196.5h450zM584 1108q-54 -264 -12.5 -516.5t157.5 -405.5q102 102 170.5 255.5t93.5 328.5h-250l11 41q81 92 133.5 191t68.5 180q24 105 -9 163t-109 58q-88 0 -156.5 -77.5t-97.5 -217.5zM358 25q185 0 334 127q-103 129 -152 336.5t-28 437.5
q-138 -65 -242.5 -193t-142.5 -309q-22 -118 -9 -207t74.5 -140.5t165.5 -51.5z" />
    <glyph glyph-name="quotesingle" unicode="'" horiz-adv-x="286" 
d="M383 1511l-102 -325h-35l90 325h47z" />
    <glyph glyph-name="parenleft" unicode="(" horiz-adv-x="577" 
d="M358 -324l-36 -28q-162 163 -215 399t8 524q61 287 215 524t383 400l26 -29q-224 -159 -372 -389t-207 -506q-59 -275 -8.5 -505.5t206.5 -389.5z" />
    <glyph glyph-name="parenright" unicode=")" horiz-adv-x="577" 
d="M231 1468l37 29q162 -163 215 -399.5t-8 -524.5q-62 -287 -216 -524.5t-384 -398.5l-25 28q224 160 373 389t207 506q59 275 7.5 505t-206.5 390z" />
    <glyph glyph-name="asterisk" unicode="*" horiz-adv-x="813" 
d="M684 1161l-137 -35l61 -104l80 -148l-39 -22l-74 149l-49 113l-96 -113l-137 -149l-27 22l142 148l104 104l-121 35l-162 56l19 36l162 -59l112 -45l23 131l37 182h39l-41 -182l-31 -131l129 45l188 59l4 -36z" />
    <glyph glyph-name="plus" unicode="+" horiz-adv-x="612" 
d="M360 713h252l-10 -41h-250l-53 -250h-39l51 250h-250l9 41h252l51 250h41z" />
    <glyph glyph-name="comma" unicode="," horiz-adv-x="399" 
d="M-18 -209l-13 27q116 72 127 182h-65l22 102h103q-4 -226 -174 -311z" />
    <glyph glyph-name="hyphen" unicode="-" horiz-adv-x="604" 
d="M551 463l-8 -41h-535l8 41h535z" />
    <glyph glyph-name="period" unicode="." horiz-adv-x="399" 
d="M31 0l22 102h105l-23 -102h-104z" />
    <glyph glyph-name="slash" unicode="/" horiz-adv-x="872" 
d="M-94 -223h-45l1132 1677h45z" />
    <glyph glyph-name="zero" unicode="0" horiz-adv-x="2742" 
d="M1745 946h995v-395h-2568v395h995q8 114 91 192.5t198 78.5t198 -78.5t91 -192.5zM1282 1120h348q-78 68 -174 68q-99 0 -174 -68zM1311 760h346q59 72 59 166q0 99 -65 174zM1604 1092h-351q-59 -72 -59 -166q0 -99 68 -174zM1901 621q57 0 96 37t39 94q0 55 -39 92
t-96 37t-95.5 -37t-38.5 -92q0 -57 38.5 -94t95.5 -37zM358 803h58v71h-197v-71h60v-176h79v176zM526 698l31 -71h84l-43 94q29 25 29 65q0 38 -28 63t-67 25h-102v-247h80v71h16zM653 627h78v247h-78v-247zM909 666l11 -39h86l-84 247h-93l-84 -247h84l11 39h69zM1020 627
h168v67h-88v180h-80v-247zM2208 627h82v247h-80v-131l-76 131h-82v-247h80l-2 121zM2314 627h168v67h-88v180h-80v-247zM2607 627v98l84 149h-92l-33 -73l-31 73h-94l86 -149v-98h80zM1901 809q25 0 40 -16t15 -41q0 -26 -15 -43t-40 -17q-24 0 -40 17t-16 43
q0 24 16.5 40.5t39.5 16.5zM510 807h20q6 0 11.5 -7t5.5 -14q0 -9 -5.5 -15.5t-11.5 -6.5h-20v43zM856 731l16 60h2l17 -60h-35zM1630 731h-348q75 -65 174 -65t174 65zM1161 387v-27q25 -14 53 -14q23 0 38.5 12.5t15.5 34.5q0 28 -47 45q-12 4 -17.5 6.5t-10.5 7.5t-5 13
q0 22 29 22q23 0 40 -14v27q-20 10 -40 10q-24 0 -39 -12t-15 -33q0 -14 7 -23.5t14.5 -13.5t23.5 -10q35 -9 35 -25q0 -24 -29 -24q-28 0 -53 18zM1343 428q0 -35 23.5 -58.5t58.5 -23.5q34 0 58 23.5t24 58.5q0 34 -24 58t-58 24q-35 0 -58.5 -24t-23.5 -58zM1669 344v162
h-24v-111l-101 113h-12v-160h24v107l101 -111h12zM272 506h-102v-158h25v60h67v22h-67v53h77v23zM293 506v-96q0 -28 17.5 -46t45.5 -18q29 0 47.5 18t18.5 46v96h-25v-96q0 -17 -12 -29t-29 -12t-28 11t-11 30v96h-24zM477 506h-24v-158h96v23h-72v135zM596 506h-25v-158
h99v23h-74v135zM817 348l66 158h-29l-45 -117l-45 117h-29l66 -158h16zM1006 506h-103v-158h103v23h-78v47h67v20h-67v45h78v23zM1094 406l26 -58h29l-31 64q25 14 25 43q0 22 -14.5 36.5t-36.5 14.5h-60v-158h25v58h37zM1317 506h-25v-158h25v158zM1481 428
q0 -26 -16 -42.5t-40 -16.5q-25 0 -41 16.5t-16 42.5q0 25 16 41t41 16q23 0 39.5 -16.5t16.5 -40.5zM1118 455q0 -12 -7.5 -20.5t-18.5 -8.5h-35v57h35q11 0 18.5 -8t7.5 -20zM2666 375l52 49l-52 49l-16 -14l27 -23h-938v-24h938l-27 -23zM1118 195q0 -51 35 -85t86 -34
q52 0 86.5 34t34.5 85q0 50 -34.5 83t-86.5 33q-51 0 -86 -33.5t-35 -82.5zM1788 172v-76q33 -20 78 -20q40 0 65 20t25 56q0 54 -74 71q-3 1 -6.5 2t-5.5 1.5t-4.5 1.5t-4 1.5t-3 1.5t-2.5 1.5t-1.5 2t-1 2.5t-0.5 3q0 8 23 8q36 0 66 -23v70q-37 16 -66 16q-42 0 -67 -18
t-25 -51q0 -29 15.5 -45t49.5 -27q4 -2 11.5 -4t12 -3t8 -4t3.5 -7q0 -13 -18 -13q-24 0 -78 33zM2050 195q0 -51 34.5 -85t84.5 -34q25 0 53 14l2 72q-21 -21 -51 -21q-22 0 -36.5 15.5t-14.5 38.5q0 22 14.5 36.5t36.5 14.5q20 0 45 -15v68q-21 12 -47 12q-51 0 -86 -33.5
t-35 -82.5zM2230 195q0 -51 35 -85t88 -34q51 0 86 34t35 85q0 49 -35 82.5t-86 33.5q-52 0 -87.5 -33t-35.5 -83zM172 242h74l-84 -160h194v63h-77l83 160h-190v-63zM539 305h-162v-223h164v61h-92v21h77v61h-77v19h90v61zM549 242h53v-160h72v160h53v63h-178v-63zM786 117
h64l8 -35h78l-76 223h-82l-76 -223h74zM1110 305h-162v-223h72v70h76v59h-76v33h90v61zM1589 82v223h-71v-119l-68 119h-74v-223h72l-2 108l70 -108h73zM1602 242h53v-160h71v160h52v63h-176v-63zM2560 305h-72v-223h72v88l29 -55h51l29 55v-88h69v223h-72l-53 -102z
M1288 195q0 -23 -13.5 -38.5t-35.5 -15.5t-35.5 15.5t-13.5 38.5q0 22 13.5 36.5t35.5 14.5t35.5 -14.5t13.5 -36.5zM2402 195q0 -23 -14.5 -38.5t-34.5 -15.5q-22 0 -36.5 15.5t-14.5 38.5q0 22 14.5 36.5t36.5 14.5q20 0 34.5 -14.5t14.5 -36.5zM819 229l15 -53h-31l14 53
h2zM1966 111q0 -14 10 -24.5t27 -10.5q15 0 25 10.5t10 24.5t-10 23t-25 9q-17 0 -27 -9t-10 -23z" />
    <glyph glyph-name="one" unicode="1" horiz-adv-x="2924" 
d="M1745 946h995v-395h-2568v395h995q8 114 91 192.5t198 78.5t198 -78.5t91 -192.5zM1282 1120h348q-78 68 -174 68q-99 0 -174 -68zM1311 760h346q59 72 59 166q0 99 -65 174zM1604 1092h-351q-59 -72 -59 -166q0 -99 68 -174zM1901 621q57 0 96 37t39 94q0 55 -39 92
t-96 37t-95.5 -37t-38.5 -92q0 -57 38.5 -94t95.5 -37zM358 803h58v71h-197v-71h60v-176h79v176zM526 698l31 -71h84l-43 94q29 25 29 65q0 38 -28 63t-67 25h-102v-247h80v71h16zM653 627h78v247h-78v-247zM909 666l11 -39h86l-84 247h-93l-84 -247h84l11 39h69zM1020 627
h168v67h-88v180h-80v-247zM2208 627h82v247h-80v-131l-76 131h-82v-247h80l-2 121zM2314 627h168v67h-88v180h-80v-247zM2607 627v98l84 149h-92l-33 -73l-31 73h-94l86 -149v-98h80zM1901 809q25 0 40 -16t15 -41q0 -26 -15 -43t-40 -17q-24 0 -40 17t-16 43
q0 24 16.5 40.5t39.5 16.5zM510 807h20q6 0 11.5 -7t5.5 -14q0 -9 -5.5 -15.5t-11.5 -6.5h-20v43zM856 731l16 60h2l17 -60h-35zM1630 731h-348q75 -65 174 -65t174 65zM1161 387v-27q25 -14 53 -14q23 0 38.5 12.5t15.5 34.5q0 28 -47 45q-12 4 -17.5 6.5t-10.5 7.5t-5 13
q0 22 29 22q23 0 40 -14v27q-20 10 -40 10q-24 0 -39 -12t-15 -33q0 -14 7 -23.5t14.5 -13.5t23.5 -10q35 -9 35 -25q0 -24 -29 -24q-28 0 -53 18zM1343 428q0 -35 23.5 -58.5t58.5 -23.5q34 0 58 23.5t24 58.5q0 34 -24 58t-58 24q-35 0 -58.5 -24t-23.5 -58zM1669 344v162
h-24v-111l-101 113h-12v-160h24v107l101 -111h12zM272 506h-102v-158h25v60h67v22h-67v53h77v23zM293 506v-96q0 -28 17.5 -46t45.5 -18q29 0 47.5 18t18.5 46v96h-25v-96q0 -17 -12 -29t-29 -12t-28 11t-11 30v96h-24zM477 506h-24v-158h96v23h-72v135zM596 506h-25v-158
h99v23h-74v135zM817 348l66 158h-29l-45 -117l-45 117h-29l66 -158h16zM1006 506h-103v-158h103v23h-78v47h67v20h-67v45h78v23zM1094 406l26 -58h29l-31 64q25 14 25 43q0 22 -14.5 36.5t-36.5 14.5h-60v-158h25v58h37zM1317 506h-25v-158h25v158zM1481 428
q0 -26 -16 -42.5t-40 -16.5q-25 0 -41 16.5t-16 42.5q0 25 16 41t41 16q23 0 39.5 -16.5t16.5 -40.5zM1118 455q0 -12 -7.5 -20.5t-18.5 -8.5h-35v57h35q11 0 18.5 -8t7.5 -20zM2666 375l52 49l-52 49l-16 -14l27 -23h-938v-24h938l-27 -23zM1118 195q0 -51 35 -85t86 -34
q52 0 86.5 34t34.5 85q0 50 -34.5 83t-86.5 33q-51 0 -86 -33.5t-35 -82.5zM1788 172v-76q33 -20 78 -20q40 0 65 20t25 56q0 54 -74 71q-3 1 -6.5 2t-5.5 1.5t-4.5 1.5t-4 1.5t-3 1.5t-2.5 1.5t-1.5 2t-1 2.5t-0.5 3q0 8 23 8q36 0 66 -23v70q-37 16 -66 16q-42 0 -67 -18
t-25 -51q0 -29 15.5 -45t49.5 -27q4 -2 11.5 -4t12 -3t8 -4t3.5 -7q0 -13 -18 -13q-24 0 -78 33zM2050 195q0 -51 34.5 -85t84.5 -34q25 0 53 14l2 72q-21 -21 -51 -21q-22 0 -36.5 15.5t-14.5 38.5q0 22 14.5 36.5t36.5 14.5q20 0 45 -15v68q-21 12 -47 12q-51 0 -86 -33.5
t-35 -82.5zM2230 195q0 -51 35 -85t88 -34q51 0 86 34t35 85q0 49 -35 82.5t-86 33.5q-52 0 -87.5 -33t-35.5 -83zM172 242h74l-84 -160h194v63h-77l83 160h-190v-63zM539 305h-162v-223h164v61h-92v21h77v61h-77v19h90v61zM549 242h53v-160h72v160h53v63h-178v-63zM786 117
h64l8 -35h78l-76 223h-82l-76 -223h74zM1110 305h-162v-223h72v70h76v59h-76v33h90v61zM1589 82v223h-71v-119l-68 119h-74v-223h72l-2 108l70 -108h73zM1602 242h53v-160h71v160h52v63h-176v-63zM2560 305h-72v-223h72v88l29 -55h51l29 55v-88h69v223h-72l-53 -102z
M1288 195q0 -23 -13.5 -38.5t-35.5 -15.5t-35.5 15.5t-13.5 38.5q0 22 13.5 36.5t35.5 14.5t35.5 -14.5t13.5 -36.5zM2402 195q0 -23 -14.5 -38.5t-34.5 -15.5q-22 0 -36.5 15.5t-14.5 38.5q0 22 14.5 36.5t36.5 14.5q20 0 34.5 -14.5t14.5 -36.5zM819 229l15 -53h-31l14 53
h2zM1966 111q0 -14 10 -24.5t27 -10.5q15 0 25 10.5t10 24.5t-10 23t-25 9q-17 0 -27 -9t-10 -23z" />
    <glyph glyph-name="two" unicode="2" horiz-adv-x="2924" 
d="M1745 946h995v-395h-2568v395h995q8 114 91 192.5t198 78.5t198 -78.5t91 -192.5zM1282 1120h348q-78 68 -174 68q-99 0 -174 -68zM1311 760h346q59 72 59 166q0 99 -65 174zM1604 1092h-351q-59 -72 -59 -166q0 -99 68 -174zM1901 621q57 0 96 37t39 94q0 55 -39 92
t-96 37t-95.5 -37t-38.5 -92q0 -57 38.5 -94t95.5 -37zM358 803h58v71h-197v-71h60v-176h79v176zM526 698l31 -71h84l-43 94q29 25 29 65q0 38 -28 63t-67 25h-102v-247h80v71h16zM653 627h78v247h-78v-247zM909 666l11 -39h86l-84 247h-93l-84 -247h84l11 39h69zM1020 627
h168v67h-88v180h-80v-247zM2208 627h82v247h-80v-131l-76 131h-82v-247h80l-2 121zM2314 627h168v67h-88v180h-80v-247zM2607 627v98l84 149h-92l-33 -73l-31 73h-94l86 -149v-98h80zM1901 809q25 0 40 -16t15 -41q0 -26 -15 -43t-40 -17q-24 0 -40 17t-16 43
q0 24 16.5 40.5t39.5 16.5zM510 807h20q6 0 11.5 -7t5.5 -14q0 -9 -5.5 -15.5t-11.5 -6.5h-20v43zM856 731l16 60h2l17 -60h-35zM1630 731h-348q75 -65 174 -65t174 65zM1161 387v-27q25 -14 53 -14q23 0 38.5 12.5t15.5 34.5q0 28 -47 45q-12 4 -17.5 6.5t-10.5 7.5t-5 13
q0 22 29 22q23 0 40 -14v27q-20 10 -40 10q-24 0 -39 -12t-15 -33q0 -14 7 -23.5t14.5 -13.5t23.5 -10q35 -9 35 -25q0 -24 -29 -24q-28 0 -53 18zM1343 428q0 -35 23.5 -58.5t58.5 -23.5q34 0 58 23.5t24 58.5q0 34 -24 58t-58 24q-35 0 -58.5 -24t-23.5 -58zM1669 344v162
h-24v-111l-101 113h-12v-160h24v107l101 -111h12zM272 506h-102v-158h25v60h67v22h-67v53h77v23zM293 506v-96q0 -28 17.5 -46t45.5 -18q29 0 47.5 18t18.5 46v96h-25v-96q0 -17 -12 -29t-29 -12t-28 11t-11 30v96h-24zM477 506h-24v-158h96v23h-72v135zM596 506h-25v-158
h99v23h-74v135zM817 348l66 158h-29l-45 -117l-45 117h-29l66 -158h16zM1006 506h-103v-158h103v23h-78v47h67v20h-67v45h78v23zM1094 406l26 -58h29l-31 64q25 14 25 43q0 22 -14.5 36.5t-36.5 14.5h-60v-158h25v58h37zM1317 506h-25v-158h25v158zM1481 428
q0 -26 -16 -42.5t-40 -16.5q-25 0 -41 16.5t-16 42.5q0 25 16 41t41 16q23 0 39.5 -16.5t16.5 -40.5zM1118 455q0 -12 -7.5 -20.5t-18.5 -8.5h-35v57h35q11 0 18.5 -8t7.5 -20zM2666 375l52 49l-52 49l-16 -14l27 -23h-938v-24h938l-27 -23zM1118 195q0 -51 35 -85t86 -34
q52 0 86.5 34t34.5 85q0 50 -34.5 83t-86.5 33q-51 0 -86 -33.5t-35 -82.5zM1788 172v-76q33 -20 78 -20q40 0 65 20t25 56q0 54 -74 71q-3 1 -6.5 2t-5.5 1.5t-4.5 1.5t-4 1.5t-3 1.5t-2.5 1.5t-1.5 2t-1 2.5t-0.5 3q0 8 23 8q36 0 66 -23v70q-37 16 -66 16q-42 0 -67 -18
t-25 -51q0 -29 15.5 -45t49.5 -27q4 -2 11.5 -4t12 -3t8 -4t3.5 -7q0 -13 -18 -13q-24 0 -78 33zM2050 195q0 -51 34.5 -85t84.5 -34q25 0 53 14l2 72q-21 -21 -51 -21q-22 0 -36.5 15.5t-14.5 38.5q0 22 14.5 36.5t36.5 14.5q20 0 45 -15v68q-21 12 -47 12q-51 0 -86 -33.5
t-35 -82.5zM2230 195q0 -51 35 -85t88 -34q51 0 86 34t35 85q0 49 -35 82.5t-86 33.5q-52 0 -87.5 -33t-35.5 -83zM172 242h74l-84 -160h194v63h-77l83 160h-190v-63zM539 305h-162v-223h164v61h-92v21h77v61h-77v19h90v61zM549 242h53v-160h72v160h53v63h-178v-63zM786 117
h64l8 -35h78l-76 223h-82l-76 -223h74zM1110 305h-162v-223h72v70h76v59h-76v33h90v61zM1589 82v223h-71v-119l-68 119h-74v-223h72l-2 108l70 -108h73zM1602 242h53v-160h71v160h52v63h-176v-63zM2560 305h-72v-223h72v88l29 -55h51l29 55v-88h69v223h-72l-53 -102z
M1288 195q0 -23 -13.5 -38.5t-35.5 -15.5t-35.5 15.5t-13.5 38.5q0 22 13.5 36.5t35.5 14.5t35.5 -14.5t13.5 -36.5zM2402 195q0 -23 -14.5 -38.5t-34.5 -15.5q-22 0 -36.5 15.5t-14.5 38.5q0 22 14.5 36.5t36.5 14.5q20 0 34.5 -14.5t14.5 -36.5zM819 229l15 -53h-31l14 53
h2zM1966 111q0 -14 10 -24.5t27 -10.5q15 0 25 10.5t10 24.5t-10 23t-25 9q-17 0 -27 -9t-10 -23z" />
    <glyph glyph-name="three" unicode="3" horiz-adv-x="2924" 
d="M1745 946h995v-395h-2568v395h995q8 114 91 192.5t198 78.5t198 -78.5t91 -192.5zM1282 1120h348q-78 68 -174 68q-99 0 -174 -68zM1311 760h346q59 72 59 166q0 99 -65 174zM1604 1092h-351q-59 -72 -59 -166q0 -99 68 -174zM1901 621q57 0 96 37t39 94q0 55 -39 92
t-96 37t-95.5 -37t-38.5 -92q0 -57 38.5 -94t95.5 -37zM358 803h58v71h-197v-71h60v-176h79v176zM526 698l31 -71h84l-43 94q29 25 29 65q0 38 -28 63t-67 25h-102v-247h80v71h16zM653 627h78v247h-78v-247zM909 666l11 -39h86l-84 247h-93l-84 -247h84l11 39h69zM1020 627
h168v67h-88v180h-80v-247zM2208 627h82v247h-80v-131l-76 131h-82v-247h80l-2 121zM2314 627h168v67h-88v180h-80v-247zM2607 627v98l84 149h-92l-33 -73l-31 73h-94l86 -149v-98h80zM1901 809q25 0 40 -16t15 -41q0 -26 -15 -43t-40 -17q-24 0 -40 17t-16 43
q0 24 16.5 40.5t39.5 16.5zM510 807h20q6 0 11.5 -7t5.5 -14q0 -9 -5.5 -15.5t-11.5 -6.5h-20v43zM856 731l16 60h2l17 -60h-35zM1630 731h-348q75 -65 174 -65t174 65zM1161 387v-27q25 -14 53 -14q23 0 38.5 12.5t15.5 34.5q0 28 -47 45q-12 4 -17.5 6.5t-10.5 7.5t-5 13
q0 22 29 22q23 0 40 -14v27q-20 10 -40 10q-24 0 -39 -12t-15 -33q0 -14 7 -23.5t14.5 -13.5t23.5 -10q35 -9 35 -25q0 -24 -29 -24q-28 0 -53 18zM1343 428q0 -35 23.5 -58.5t58.5 -23.5q34 0 58 23.5t24 58.5q0 34 -24 58t-58 24q-35 0 -58.5 -24t-23.5 -58zM1669 344v162
h-24v-111l-101 113h-12v-160h24v107l101 -111h12zM272 506h-102v-158h25v60h67v22h-67v53h77v23zM293 506v-96q0 -28 17.5 -46t45.5 -18q29 0 47.5 18t18.5 46v96h-25v-96q0 -17 -12 -29t-29 -12t-28 11t-11 30v96h-24zM477 506h-24v-158h96v23h-72v135zM596 506h-25v-158
h99v23h-74v135zM817 348l66 158h-29l-45 -117l-45 117h-29l66 -158h16zM1006 506h-103v-158h103v23h-78v47h67v20h-67v45h78v23zM1094 406l26 -58h29l-31 64q25 14 25 43q0 22 -14.5 36.5t-36.5 14.5h-60v-158h25v58h37zM1317 506h-25v-158h25v158zM1481 428
q0 -26 -16 -42.5t-40 -16.5q-25 0 -41 16.5t-16 42.5q0 25 16 41t41 16q23 0 39.5 -16.5t16.5 -40.5zM1118 455q0 -12 -7.5 -20.5t-18.5 -8.5h-35v57h35q11 0 18.5 -8t7.5 -20zM2666 375l52 49l-52 49l-16 -14l27 -23h-938v-24h938l-27 -23zM1118 195q0 -51 35 -85t86 -34
q52 0 86.5 34t34.5 85q0 50 -34.5 83t-86.5 33q-51 0 -86 -33.5t-35 -82.5zM1788 172v-76q33 -20 78 -20q40 0 65 20t25 56q0 54 -74 71q-3 1 -6.5 2t-5.5 1.5t-4.5 1.5t-4 1.5t-3 1.5t-2.5 1.5t-1.5 2t-1 2.5t-0.5 3q0 8 23 8q36 0 66 -23v70q-37 16 -66 16q-42 0 -67 -18
t-25 -51q0 -29 15.5 -45t49.5 -27q4 -2 11.5 -4t12 -3t8 -4t3.5 -7q0 -13 -18 -13q-24 0 -78 33zM2050 195q0 -51 34.5 -85t84.5 -34q25 0 53 14l2 72q-21 -21 -51 -21q-22 0 -36.5 15.5t-14.5 38.5q0 22 14.5 36.5t36.5 14.5q20 0 45 -15v68q-21 12 -47 12q-51 0 -86 -33.5
t-35 -82.5zM2230 195q0 -51 35 -85t88 -34q51 0 86 34t35 85q0 49 -35 82.5t-86 33.5q-52 0 -87.5 -33t-35.5 -83zM172 242h74l-84 -160h194v63h-77l83 160h-190v-63zM539 305h-162v-223h164v61h-92v21h77v61h-77v19h90v61zM549 242h53v-160h72v160h53v63h-178v-63zM786 117
h64l8 -35h78l-76 223h-82l-76 -223h74zM1110 305h-162v-223h72v70h76v59h-76v33h90v61zM1589 82v223h-71v-119l-68 119h-74v-223h72l-2 108l70 -108h73zM1602 242h53v-160h71v160h52v63h-176v-63zM2560 305h-72v-223h72v88l29 -55h51l29 55v-88h69v223h-72l-53 -102z
M1288 195q0 -23 -13.5 -38.5t-35.5 -15.5t-35.5 15.5t-13.5 38.5q0 22 13.5 36.5t35.5 14.5t35.5 -14.5t13.5 -36.5zM2402 195q0 -23 -14.5 -38.5t-34.5 -15.5q-22 0 -36.5 15.5t-14.5 38.5q0 22 14.5 36.5t36.5 14.5q20 0 34.5 -14.5t14.5 -36.5zM819 229l15 -53h-31l14 53
h2zM1966 111q0 -14 10 -24.5t27 -10.5q15 0 25 10.5t10 24.5t-10 23t-25 9q-17 0 -27 -9t-10 -23z" />
    <glyph glyph-name="four" unicode="4" horiz-adv-x="2924" 
d="M1745 946h995v-395h-2568v395h995q8 114 91 192.5t198 78.5t198 -78.5t91 -192.5zM1282 1120h348q-78 68 -174 68q-99 0 -174 -68zM1311 760h346q59 72 59 166q0 99 -65 174zM1604 1092h-351q-59 -72 -59 -166q0 -99 68 -174zM1901 621q57 0 96 37t39 94q0 55 -39 92
t-96 37t-95.5 -37t-38.5 -92q0 -57 38.5 -94t95.5 -37zM358 803h58v71h-197v-71h60v-176h79v176zM526 698l31 -71h84l-43 94q29 25 29 65q0 38 -28 63t-67 25h-102v-247h80v71h16zM653 627h78v247h-78v-247zM909 666l11 -39h86l-84 247h-93l-84 -247h84l11 39h69zM1020 627
h168v67h-88v180h-80v-247zM2208 627h82v247h-80v-131l-76 131h-82v-247h80l-2 121zM2314 627h168v67h-88v180h-80v-247zM2607 627v98l84 149h-92l-33 -73l-31 73h-94l86 -149v-98h80zM1901 809q25 0 40 -16t15 -41q0 -26 -15 -43t-40 -17q-24 0 -40 17t-16 43
q0 24 16.5 40.5t39.5 16.5zM510 807h20q6 0 11.5 -7t5.5 -14q0 -9 -5.5 -15.5t-11.5 -6.5h-20v43zM856 731l16 60h2l17 -60h-35zM1630 731h-348q75 -65 174 -65t174 65zM1161 387v-27q25 -14 53 -14q23 0 38.5 12.5t15.5 34.5q0 28 -47 45q-12 4 -17.5 6.5t-10.5 7.5t-5 13
q0 22 29 22q23 0 40 -14v27q-20 10 -40 10q-24 0 -39 -12t-15 -33q0 -14 7 -23.5t14.5 -13.5t23.5 -10q35 -9 35 -25q0 -24 -29 -24q-28 0 -53 18zM1343 428q0 -35 23.5 -58.5t58.5 -23.5q34 0 58 23.5t24 58.5q0 34 -24 58t-58 24q-35 0 -58.5 -24t-23.5 -58zM1669 344v162
h-24v-111l-101 113h-12v-160h24v107l101 -111h12zM272 506h-102v-158h25v60h67v22h-67v53h77v23zM293 506v-96q0 -28 17.5 -46t45.5 -18q29 0 47.5 18t18.5 46v96h-25v-96q0 -17 -12 -29t-29 -12t-28 11t-11 30v96h-24zM477 506h-24v-158h96v23h-72v135zM596 506h-25v-158
h99v23h-74v135zM817 348l66 158h-29l-45 -117l-45 117h-29l66 -158h16zM1006 506h-103v-158h103v23h-78v47h67v20h-67v45h78v23zM1094 406l26 -58h29l-31 64q25 14 25 43q0 22 -14.5 36.5t-36.5 14.5h-60v-158h25v58h37zM1317 506h-25v-158h25v158zM1481 428
q0 -26 -16 -42.5t-40 -16.5q-25 0 -41 16.5t-16 42.5q0 25 16 41t41 16q23 0 39.5 -16.5t16.5 -40.5zM1118 455q0 -12 -7.5 -20.5t-18.5 -8.5h-35v57h35q11 0 18.5 -8t7.5 -20zM2666 375l52 49l-52 49l-16 -14l27 -23h-938v-24h938l-27 -23zM1118 195q0 -51 35 -85t86 -34
q52 0 86.5 34t34.5 85q0 50 -34.5 83t-86.5 33q-51 0 -86 -33.5t-35 -82.5zM1788 172v-76q33 -20 78 -20q40 0 65 20t25 56q0 54 -74 71q-3 1 -6.5 2t-5.5 1.5t-4.5 1.5t-4 1.5t-3 1.5t-2.5 1.5t-1.5 2t-1 2.5t-0.5 3q0 8 23 8q36 0 66 -23v70q-37 16 -66 16q-42 0 -67 -18
t-25 -51q0 -29 15.5 -45t49.5 -27q4 -2 11.5 -4t12 -3t8 -4t3.5 -7q0 -13 -18 -13q-24 0 -78 33zM2050 195q0 -51 34.5 -85t84.5 -34q25 0 53 14l2 72q-21 -21 -51 -21q-22 0 -36.5 15.5t-14.5 38.5q0 22 14.5 36.5t36.5 14.5q20 0 45 -15v68q-21 12 -47 12q-51 0 -86 -33.5
t-35 -82.5zM2230 195q0 -51 35 -85t88 -34q51 0 86 34t35 85q0 49 -35 82.5t-86 33.5q-52 0 -87.5 -33t-35.5 -83zM172 242h74l-84 -160h194v63h-77l83 160h-190v-63zM539 305h-162v-223h164v61h-92v21h77v61h-77v19h90v61zM549 242h53v-160h72v160h53v63h-178v-63zM786 117
h64l8 -35h78l-76 223h-82l-76 -223h74zM1110 305h-162v-223h72v70h76v59h-76v33h90v61zM1589 82v223h-71v-119l-68 119h-74v-223h72l-2 108l70 -108h73zM1602 242h53v-160h71v160h52v63h-176v-63zM2560 305h-72v-223h72v88l29 -55h51l29 55v-88h69v223h-72l-53 -102z
M1288 195q0 -23 -13.5 -38.5t-35.5 -15.5t-35.5 15.5t-13.5 38.5q0 22 13.5 36.5t35.5 14.5t35.5 -14.5t13.5 -36.5zM2402 195q0 -23 -14.5 -38.5t-34.5 -15.5q-22 0 -36.5 15.5t-14.5 38.5q0 22 14.5 36.5t36.5 14.5q20 0 34.5 -14.5t14.5 -36.5zM819 229l15 -53h-31l14 53
h2zM1966 111q0 -14 10 -24.5t27 -10.5q15 0 25 10.5t10 24.5t-10 23t-25 9q-17 0 -27 -9t-10 -23z" />
    <glyph glyph-name="five" unicode="5" horiz-adv-x="2924" 
d="M1745 946h995v-395h-2568v395h995q8 114 91 192.5t198 78.5t198 -78.5t91 -192.5zM1282 1120h348q-78 68 -174 68q-99 0 -174 -68zM1311 760h346q59 72 59 166q0 99 -65 174zM1604 1092h-351q-59 -72 -59 -166q0 -99 68 -174zM1901 621q57 0 96 37t39 94q0 55 -39 92
t-96 37t-95.5 -37t-38.5 -92q0 -57 38.5 -94t95.5 -37zM358 803h58v71h-197v-71h60v-176h79v176zM526 698l31 -71h84l-43 94q29 25 29 65q0 38 -28 63t-67 25h-102v-247h80v71h16zM653 627h78v247h-78v-247zM909 666l11 -39h86l-84 247h-93l-84 -247h84l11 39h69zM1020 627
h168v67h-88v180h-80v-247zM2208 627h82v247h-80v-131l-76 131h-82v-247h80l-2 121zM2314 627h168v67h-88v180h-80v-247zM2607 627v98l84 149h-92l-33 -73l-31 73h-94l86 -149v-98h80zM1901 809q25 0 40 -16t15 -41q0 -26 -15 -43t-40 -17q-24 0 -40 17t-16 43
q0 24 16.5 40.5t39.5 16.5zM510 807h20q6 0 11.5 -7t5.5 -14q0 -9 -5.5 -15.5t-11.5 -6.5h-20v43zM856 731l16 60h2l17 -60h-35zM1630 731h-348q75 -65 174 -65t174 65zM1161 387v-27q25 -14 53 -14q23 0 38.5 12.5t15.5 34.5q0 28 -47 45q-12 4 -17.5 6.5t-10.5 7.5t-5 13
q0 22 29 22q23 0 40 -14v27q-20 10 -40 10q-24 0 -39 -12t-15 -33q0 -14 7 -23.5t14.5 -13.5t23.5 -10q35 -9 35 -25q0 -24 -29 -24q-28 0 -53 18zM1343 428q0 -35 23.5 -58.5t58.5 -23.5q34 0 58 23.5t24 58.5q0 34 -24 58t-58 24q-35 0 -58.5 -24t-23.5 -58zM1669 344v162
h-24v-111l-101 113h-12v-160h24v107l101 -111h12zM272 506h-102v-158h25v60h67v22h-67v53h77v23zM293 506v-96q0 -28 17.5 -46t45.5 -18q29 0 47.5 18t18.5 46v96h-25v-96q0 -17 -12 -29t-29 -12t-28 11t-11 30v96h-24zM477 506h-24v-158h96v23h-72v135zM596 506h-25v-158
h99v23h-74v135zM817 348l66 158h-29l-45 -117l-45 117h-29l66 -158h16zM1006 506h-103v-158h103v23h-78v47h67v20h-67v45h78v23zM1094 406l26 -58h29l-31 64q25 14 25 43q0 22 -14.5 36.5t-36.5 14.5h-60v-158h25v58h37zM1317 506h-25v-158h25v158zM1481 428
q0 -26 -16 -42.5t-40 -16.5q-25 0 -41 16.5t-16 42.5q0 25 16 41t41 16q23 0 39.5 -16.5t16.5 -40.5zM1118 455q0 -12 -7.5 -20.5t-18.5 -8.5h-35v57h35q11 0 18.5 -8t7.5 -20zM2666 375l52 49l-52 49l-16 -14l27 -23h-938v-24h938l-27 -23zM1118 195q0 -51 35 -85t86 -34
q52 0 86.5 34t34.5 85q0 50 -34.5 83t-86.5 33q-51 0 -86 -33.5t-35 -82.5zM1788 172v-76q33 -20 78 -20q40 0 65 20t25 56q0 54 -74 71q-3 1 -6.5 2t-5.5 1.5t-4.5 1.5t-4 1.5t-3 1.5t-2.5 1.5t-1.5 2t-1 2.5t-0.5 3q0 8 23 8q36 0 66 -23v70q-37 16 -66 16q-42 0 -67 -18
t-25 -51q0 -29 15.5 -45t49.5 -27q4 -2 11.5 -4t12 -3t8 -4t3.5 -7q0 -13 -18 -13q-24 0 -78 33zM2050 195q0 -51 34.5 -85t84.5 -34q25 0 53 14l2 72q-21 -21 -51 -21q-22 0 -36.5 15.5t-14.5 38.5q0 22 14.5 36.5t36.5 14.5q20 0 45 -15v68q-21 12 -47 12q-51 0 -86 -33.5
t-35 -82.5zM2230 195q0 -51 35 -85t88 -34q51 0 86 34t35 85q0 49 -35 82.5t-86 33.5q-52 0 -87.5 -33t-35.5 -83zM172 242h74l-84 -160h194v63h-77l83 160h-190v-63zM539 305h-162v-223h164v61h-92v21h77v61h-77v19h90v61zM549 242h53v-160h72v160h53v63h-178v-63zM786 117
h64l8 -35h78l-76 223h-82l-76 -223h74zM1110 305h-162v-223h72v70h76v59h-76v33h90v61zM1589 82v223h-71v-119l-68 119h-74v-223h72l-2 108l70 -108h73zM1602 242h53v-160h71v160h52v63h-176v-63zM2560 305h-72v-223h72v88l29 -55h51l29 55v-88h69v223h-72l-53 -102z
M1288 195q0 -23 -13.5 -38.5t-35.5 -15.5t-35.5 15.5t-13.5 38.5q0 22 13.5 36.5t35.5 14.5t35.5 -14.5t13.5 -36.5zM2402 195q0 -23 -14.5 -38.5t-34.5 -15.5q-22 0 -36.5 15.5t-14.5 38.5q0 22 14.5 36.5t36.5 14.5q20 0 34.5 -14.5t14.5 -36.5zM819 229l15 -53h-31l14 53
h2zM1966 111q0 -14 10 -24.5t27 -10.5q15 0 25 10.5t10 24.5t-10 23t-25 9q-17 0 -27 -9t-10 -23z" />
    <glyph glyph-name="six" unicode="6" horiz-adv-x="2924" 
d="M1745 946h995v-395h-2568v395h995q8 114 91 192.5t198 78.5t198 -78.5t91 -192.5zM1282 1120h348q-78 68 -174 68q-99 0 -174 -68zM1311 760h346q59 72 59 166q0 99 -65 174zM1604 1092h-351q-59 -72 -59 -166q0 -99 68 -174zM1901 621q57 0 96 37t39 94q0 55 -39 92
t-96 37t-95.5 -37t-38.5 -92q0 -57 38.5 -94t95.5 -37zM358 803h58v71h-197v-71h60v-176h79v176zM526 698l31 -71h84l-43 94q29 25 29 65q0 38 -28 63t-67 25h-102v-247h80v71h16zM653 627h78v247h-78v-247zM909 666l11 -39h86l-84 247h-93l-84 -247h84l11 39h69zM1020 627
h168v67h-88v180h-80v-247zM2208 627h82v247h-80v-131l-76 131h-82v-247h80l-2 121zM2314 627h168v67h-88v180h-80v-247zM2607 627v98l84 149h-92l-33 -73l-31 73h-94l86 -149v-98h80zM1901 809q25 0 40 -16t15 -41q0 -26 -15 -43t-40 -17q-24 0 -40 17t-16 43
q0 24 16.5 40.5t39.5 16.5zM510 807h20q6 0 11.5 -7t5.5 -14q0 -9 -5.5 -15.5t-11.5 -6.5h-20v43zM856 731l16 60h2l17 -60h-35zM1630 731h-348q75 -65 174 -65t174 65zM1161 387v-27q25 -14 53 -14q23 0 38.5 12.5t15.5 34.5q0 28 -47 45q-12 4 -17.5 6.5t-10.5 7.5t-5 13
q0 22 29 22q23 0 40 -14v27q-20 10 -40 10q-24 0 -39 -12t-15 -33q0 -14 7 -23.5t14.5 -13.5t23.5 -10q35 -9 35 -25q0 -24 -29 -24q-28 0 -53 18zM1343 428q0 -35 23.5 -58.5t58.5 -23.5q34 0 58 23.5t24 58.5q0 34 -24 58t-58 24q-35 0 -58.5 -24t-23.5 -58zM1669 344v162
h-24v-111l-101 113h-12v-160h24v107l101 -111h12zM272 506h-102v-158h25v60h67v22h-67v53h77v23zM293 506v-96q0 -28 17.5 -46t45.5 -18q29 0 47.5 18t18.5 46v96h-25v-96q0 -17 -12 -29t-29 -12t-28 11t-11 30v96h-24zM477 506h-24v-158h96v23h-72v135zM596 506h-25v-158
h99v23h-74v135zM817 348l66 158h-29l-45 -117l-45 117h-29l66 -158h16zM1006 506h-103v-158h103v23h-78v47h67v20h-67v45h78v23zM1094 406l26 -58h29l-31 64q25 14 25 43q0 22 -14.5 36.5t-36.5 14.5h-60v-158h25v58h37zM1317 506h-25v-158h25v158zM1481 428
q0 -26 -16 -42.5t-40 -16.5q-25 0 -41 16.5t-16 42.5q0 25 16 41t41 16q23 0 39.5 -16.5t16.5 -40.5zM1118 455q0 -12 -7.5 -20.5t-18.5 -8.5h-35v57h35q11 0 18.5 -8t7.5 -20zM2666 375l52 49l-52 49l-16 -14l27 -23h-938v-24h938l-27 -23zM1118 195q0 -51 35 -85t86 -34
q52 0 86.5 34t34.5 85q0 50 -34.5 83t-86.5 33q-51 0 -86 -33.5t-35 -82.5zM1788 172v-76q33 -20 78 -20q40 0 65 20t25 56q0 54 -74 71q-3 1 -6.5 2t-5.5 1.5t-4.5 1.5t-4 1.5t-3 1.5t-2.5 1.5t-1.5 2t-1 2.5t-0.5 3q0 8 23 8q36 0 66 -23v70q-37 16 -66 16q-42 0 -67 -18
t-25 -51q0 -29 15.5 -45t49.5 -27q4 -2 11.5 -4t12 -3t8 -4t3.5 -7q0 -13 -18 -13q-24 0 -78 33zM2050 195q0 -51 34.5 -85t84.5 -34q25 0 53 14l2 72q-21 -21 -51 -21q-22 0 -36.5 15.5t-14.5 38.5q0 22 14.5 36.5t36.5 14.5q20 0 45 -15v68q-21 12 -47 12q-51 0 -86 -33.5
t-35 -82.5zM2230 195q0 -51 35 -85t88 -34q51 0 86 34t35 85q0 49 -35 82.5t-86 33.5q-52 0 -87.5 -33t-35.5 -83zM172 242h74l-84 -160h194v63h-77l83 160h-190v-63zM539 305h-162v-223h164v61h-92v21h77v61h-77v19h90v61zM549 242h53v-160h72v160h53v63h-178v-63zM786 117
h64l8 -35h78l-76 223h-82l-76 -223h74zM1110 305h-162v-223h72v70h76v59h-76v33h90v61zM1589 82v223h-71v-119l-68 119h-74v-223h72l-2 108l70 -108h73zM1602 242h53v-160h71v160h52v63h-176v-63zM2560 305h-72v-223h72v88l29 -55h51l29 55v-88h69v223h-72l-53 -102z
M1288 195q0 -23 -13.5 -38.5t-35.5 -15.5t-35.5 15.5t-13.5 38.5q0 22 13.5 36.5t35.5 14.5t35.5 -14.5t13.5 -36.5zM2402 195q0 -23 -14.5 -38.5t-34.5 -15.5q-22 0 -36.5 15.5t-14.5 38.5q0 22 14.5 36.5t36.5 14.5q20 0 34.5 -14.5t14.5 -36.5zM819 229l15 -53h-31l14 53
h2zM1966 111q0 -14 10 -24.5t27 -10.5q15 0 25 10.5t10 24.5t-10 23t-25 9q-17 0 -27 -9t-10 -23z" />
    <glyph glyph-name="seven" unicode="7" horiz-adv-x="2924" 
d="M1745 946h995v-395h-2568v395h995q8 114 91 192.5t198 78.5t198 -78.5t91 -192.5zM1282 1120h348q-78 68 -174 68q-99 0 -174 -68zM1311 760h346q59 72 59 166q0 99 -65 174zM1604 1092h-351q-59 -72 -59 -166q0 -99 68 -174zM1901 621q57 0 96 37t39 94q0 55 -39 92
t-96 37t-95.5 -37t-38.5 -92q0 -57 38.5 -94t95.5 -37zM358 803h58v71h-197v-71h60v-176h79v176zM526 698l31 -71h84l-43 94q29 25 29 65q0 38 -28 63t-67 25h-102v-247h80v71h16zM653 627h78v247h-78v-247zM909 666l11 -39h86l-84 247h-93l-84 -247h84l11 39h69zM1020 627
h168v67h-88v180h-80v-247zM2208 627h82v247h-80v-131l-76 131h-82v-247h80l-2 121zM2314 627h168v67h-88v180h-80v-247zM2607 627v98l84 149h-92l-33 -73l-31 73h-94l86 -149v-98h80zM1901 809q25 0 40 -16t15 -41q0 -26 -15 -43t-40 -17q-24 0 -40 17t-16 43
q0 24 16.5 40.5t39.5 16.5zM510 807h20q6 0 11.5 -7t5.5 -14q0 -9 -5.5 -15.5t-11.5 -6.5h-20v43zM856 731l16 60h2l17 -60h-35zM1630 731h-348q75 -65 174 -65t174 65zM1161 387v-27q25 -14 53 -14q23 0 38.5 12.5t15.5 34.5q0 28 -47 45q-12 4 -17.5 6.5t-10.5 7.5t-5 13
q0 22 29 22q23 0 40 -14v27q-20 10 -40 10q-24 0 -39 -12t-15 -33q0 -14 7 -23.5t14.5 -13.5t23.5 -10q35 -9 35 -25q0 -24 -29 -24q-28 0 -53 18zM1343 428q0 -35 23.5 -58.5t58.5 -23.5q34 0 58 23.5t24 58.5q0 34 -24 58t-58 24q-35 0 -58.5 -24t-23.5 -58zM1669 344v162
h-24v-111l-101 113h-12v-160h24v107l101 -111h12zM272 506h-102v-158h25v60h67v22h-67v53h77v23zM293 506v-96q0 -28 17.5 -46t45.5 -18q29 0 47.5 18t18.5 46v96h-25v-96q0 -17 -12 -29t-29 -12t-28 11t-11 30v96h-24zM477 506h-24v-158h96v23h-72v135zM596 506h-25v-158
h99v23h-74v135zM817 348l66 158h-29l-45 -117l-45 117h-29l66 -158h16zM1006 506h-103v-158h103v23h-78v47h67v20h-67v45h78v23zM1094 406l26 -58h29l-31 64q25 14 25 43q0 22 -14.5 36.5t-36.5 14.5h-60v-158h25v58h37zM1317 506h-25v-158h25v158zM1481 428
q0 -26 -16 -42.5t-40 -16.5q-25 0 -41 16.5t-16 42.5q0 25 16 41t41 16q23 0 39.5 -16.5t16.5 -40.5zM1118 455q0 -12 -7.5 -20.5t-18.5 -8.5h-35v57h35q11 0 18.5 -8t7.5 -20zM2666 375l52 49l-52 49l-16 -14l27 -23h-938v-24h938l-27 -23zM1118 195q0 -51 35 -85t86 -34
q52 0 86.5 34t34.5 85q0 50 -34.5 83t-86.5 33q-51 0 -86 -33.5t-35 -82.5zM1788 172v-76q33 -20 78 -20q40 0 65 20t25 56q0 54 -74 71q-3 1 -6.5 2t-5.5 1.5t-4.5 1.5t-4 1.5t-3 1.5t-2.5 1.5t-1.5 2t-1 2.5t-0.5 3q0 8 23 8q36 0 66 -23v70q-37 16 -66 16q-42 0 -67 -18
t-25 -51q0 -29 15.5 -45t49.5 -27q4 -2 11.5 -4t12 -3t8 -4t3.5 -7q0 -13 -18 -13q-24 0 -78 33zM2050 195q0 -51 34.5 -85t84.5 -34q25 0 53 14l2 72q-21 -21 -51 -21q-22 0 -36.5 15.5t-14.5 38.5q0 22 14.5 36.5t36.5 14.5q20 0 45 -15v68q-21 12 -47 12q-51 0 -86 -33.5
t-35 -82.5zM2230 195q0 -51 35 -85t88 -34q51 0 86 34t35 85q0 49 -35 82.5t-86 33.5q-52 0 -87.5 -33t-35.5 -83zM172 242h74l-84 -160h194v63h-77l83 160h-190v-63zM539 305h-162v-223h164v61h-92v21h77v61h-77v19h90v61zM549 242h53v-160h72v160h53v63h-178v-63zM786 117
h64l8 -35h78l-76 223h-82l-76 -223h74zM1110 305h-162v-223h72v70h76v59h-76v33h90v61zM1589 82v223h-71v-119l-68 119h-74v-223h72l-2 108l70 -108h73zM1602 242h53v-160h71v160h52v63h-176v-63zM2560 305h-72v-223h72v88l29 -55h51l29 55v-88h69v223h-72l-53 -102z
M1288 195q0 -23 -13.5 -38.5t-35.5 -15.5t-35.5 15.5t-13.5 38.5q0 22 13.5 36.5t35.5 14.5t35.5 -14.5t13.5 -36.5zM2402 195q0 -23 -14.5 -38.5t-34.5 -15.5q-22 0 -36.5 15.5t-14.5 38.5q0 22 14.5 36.5t36.5 14.5q20 0 34.5 -14.5t14.5 -36.5zM819 229l15 -53h-31l14 53
h2zM1966 111q0 -14 10 -24.5t27 -10.5q15 0 25 10.5t10 24.5t-10 23t-25 9q-17 0 -27 -9t-10 -23z" />
    <glyph glyph-name="eight" unicode="8" horiz-adv-x="2924" 
d="M1745 946h995v-395h-2568v395h995q8 114 91 192.5t198 78.5t198 -78.5t91 -192.5zM1282 1120h348q-78 68 -174 68q-99 0 -174 -68zM1311 760h346q59 72 59 166q0 99 -65 174zM1604 1092h-351q-59 -72 -59 -166q0 -99 68 -174zM1901 621q57 0 96 37t39 94q0 55 -39 92
t-96 37t-95.5 -37t-38.5 -92q0 -57 38.5 -94t95.5 -37zM358 803h58v71h-197v-71h60v-176h79v176zM526 698l31 -71h84l-43 94q29 25 29 65q0 38 -28 63t-67 25h-102v-247h80v71h16zM653 627h78v247h-78v-247zM909 666l11 -39h86l-84 247h-93l-84 -247h84l11 39h69zM1020 627
h168v67h-88v180h-80v-247zM2208 627h82v247h-80v-131l-76 131h-82v-247h80l-2 121zM2314 627h168v67h-88v180h-80v-247zM2607 627v98l84 149h-92l-33 -73l-31 73h-94l86 -149v-98h80zM1901 809q25 0 40 -16t15 -41q0 -26 -15 -43t-40 -17q-24 0 -40 17t-16 43
q0 24 16.5 40.5t39.5 16.5zM510 807h20q6 0 11.5 -7t5.5 -14q0 -9 -5.5 -15.5t-11.5 -6.5h-20v43zM856 731l16 60h2l17 -60h-35zM1630 731h-348q75 -65 174 -65t174 65zM1161 387v-27q25 -14 53 -14q23 0 38.5 12.5t15.5 34.5q0 28 -47 45q-12 4 -17.5 6.5t-10.5 7.5t-5 13
q0 22 29 22q23 0 40 -14v27q-20 10 -40 10q-24 0 -39 -12t-15 -33q0 -14 7 -23.5t14.5 -13.5t23.5 -10q35 -9 35 -25q0 -24 -29 -24q-28 0 -53 18zM1343 428q0 -35 23.5 -58.5t58.5 -23.5q34 0 58 23.5t24 58.5q0 34 -24 58t-58 24q-35 0 -58.5 -24t-23.5 -58zM1669 344v162
h-24v-111l-101 113h-12v-160h24v107l101 -111h12zM272 506h-102v-158h25v60h67v22h-67v53h77v23zM293 506v-96q0 -28 17.5 -46t45.5 -18q29 0 47.5 18t18.5 46v96h-25v-96q0 -17 -12 -29t-29 -12t-28 11t-11 30v96h-24zM477 506h-24v-158h96v23h-72v135zM596 506h-25v-158
h99v23h-74v135zM817 348l66 158h-29l-45 -117l-45 117h-29l66 -158h16zM1006 506h-103v-158h103v23h-78v47h67v20h-67v45h78v23zM1094 406l26 -58h29l-31 64q25 14 25 43q0 22 -14.5 36.5t-36.5 14.5h-60v-158h25v58h37zM1317 506h-25v-158h25v158zM1481 428
q0 -26 -16 -42.5t-40 -16.5q-25 0 -41 16.5t-16 42.5q0 25 16 41t41 16q23 0 39.5 -16.5t16.5 -40.5zM1118 455q0 -12 -7.5 -20.5t-18.5 -8.5h-35v57h35q11 0 18.5 -8t7.5 -20zM2666 375l52 49l-52 49l-16 -14l27 -23h-938v-24h938l-27 -23zM1118 195q0 -51 35 -85t86 -34
q52 0 86.5 34t34.5 85q0 50 -34.5 83t-86.5 33q-51 0 -86 -33.5t-35 -82.5zM1788 172v-76q33 -20 78 -20q40 0 65 20t25 56q0 54 -74 71q-3 1 -6.5 2t-5.5 1.5t-4.5 1.5t-4 1.5t-3 1.5t-2.5 1.5t-1.5 2t-1 2.5t-0.5 3q0 8 23 8q36 0 66 -23v70q-37 16 -66 16q-42 0 -67 -18
t-25 -51q0 -29 15.5 -45t49.5 -27q4 -2 11.5 -4t12 -3t8 -4t3.5 -7q0 -13 -18 -13q-24 0 -78 33zM2050 195q0 -51 34.5 -85t84.5 -34q25 0 53 14l2 72q-21 -21 -51 -21q-22 0 -36.5 15.5t-14.5 38.5q0 22 14.5 36.5t36.5 14.5q20 0 45 -15v68q-21 12 -47 12q-51 0 -86 -33.5
t-35 -82.5zM2230 195q0 -51 35 -85t88 -34q51 0 86 34t35 85q0 49 -35 82.5t-86 33.5q-52 0 -87.5 -33t-35.5 -83zM172 242h74l-84 -160h194v63h-77l83 160h-190v-63zM539 305h-162v-223h164v61h-92v21h77v61h-77v19h90v61zM549 242h53v-160h72v160h53v63h-178v-63zM786 117
h64l8 -35h78l-76 223h-82l-76 -223h74zM1110 305h-162v-223h72v70h76v59h-76v33h90v61zM1589 82v223h-71v-119l-68 119h-74v-223h72l-2 108l70 -108h73zM1602 242h53v-160h71v160h52v63h-176v-63zM2560 305h-72v-223h72v88l29 -55h51l29 55v-88h69v223h-72l-53 -102z
M1288 195q0 -23 -13.5 -38.5t-35.5 -15.5t-35.5 15.5t-13.5 38.5q0 22 13.5 36.5t35.5 14.5t35.5 -14.5t13.5 -36.5zM2402 195q0 -23 -14.5 -38.5t-34.5 -15.5q-22 0 -36.5 15.5t-14.5 38.5q0 22 14.5 36.5t36.5 14.5q20 0 34.5 -14.5t14.5 -36.5zM819 229l15 -53h-31l14 53
h2zM1966 111q0 -14 10 -24.5t27 -10.5q15 0 25 10.5t10 24.5t-10 23t-25 9q-17 0 -27 -9t-10 -23z" />
    <glyph glyph-name="nine" unicode="9" horiz-adv-x="2924" 
d="M1745 946h995v-395h-2568v395h995q8 114 91 192.5t198 78.5t198 -78.5t91 -192.5zM1282 1120h348q-78 68 -174 68q-99 0 -174 -68zM1311 760h346q59 72 59 166q0 99 -65 174zM1604 1092h-351q-59 -72 -59 -166q0 -99 68 -174zM1901 621q57 0 96 37t39 94q0 55 -39 92
t-96 37t-95.5 -37t-38.5 -92q0 -57 38.5 -94t95.5 -37zM358 803h58v71h-197v-71h60v-176h79v176zM526 698l31 -71h84l-43 94q29 25 29 65q0 38 -28 63t-67 25h-102v-247h80v71h16zM653 627h78v247h-78v-247zM909 666l11 -39h86l-84 247h-93l-84 -247h84l11 39h69zM1020 627
h168v67h-88v180h-80v-247zM2208 627h82v247h-80v-131l-76 131h-82v-247h80l-2 121zM2314 627h168v67h-88v180h-80v-247zM2607 627v98l84 149h-92l-33 -73l-31 73h-94l86 -149v-98h80zM1901 809q25 0 40 -16t15 -41q0 -26 -15 -43t-40 -17q-24 0 -40 17t-16 43
q0 24 16.5 40.5t39.5 16.5zM510 807h20q6 0 11.5 -7t5.5 -14q0 -9 -5.5 -15.5t-11.5 -6.5h-20v43zM856 731l16 60h2l17 -60h-35zM1630 731h-348q75 -65 174 -65t174 65zM1161 387v-27q25 -14 53 -14q23 0 38.5 12.5t15.5 34.5q0 28 -47 45q-12 4 -17.5 6.5t-10.5 7.5t-5 13
q0 22 29 22q23 0 40 -14v27q-20 10 -40 10q-24 0 -39 -12t-15 -33q0 -14 7 -23.5t14.5 -13.5t23.5 -10q35 -9 35 -25q0 -24 -29 -24q-28 0 -53 18zM1343 428q0 -35 23.5 -58.5t58.5 -23.5q34 0 58 23.5t24 58.5q0 34 -24 58t-58 24q-35 0 -58.5 -24t-23.5 -58zM1669 344v162
h-24v-111l-101 113h-12v-160h24v107l101 -111h12zM272 506h-102v-158h25v60h67v22h-67v53h77v23zM293 506v-96q0 -28 17.5 -46t45.5 -18q29 0 47.5 18t18.5 46v96h-25v-96q0 -17 -12 -29t-29 -12t-28 11t-11 30v96h-24zM477 506h-24v-158h96v23h-72v135zM596 506h-25v-158
h99v23h-74v135zM817 348l66 158h-29l-45 -117l-45 117h-29l66 -158h16zM1006 506h-103v-158h103v23h-78v47h67v20h-67v45h78v23zM1094 406l26 -58h29l-31 64q25 14 25 43q0 22 -14.5 36.5t-36.5 14.5h-60v-158h25v58h37zM1317 506h-25v-158h25v158zM1481 428
q0 -26 -16 -42.5t-40 -16.5q-25 0 -41 16.5t-16 42.5q0 25 16 41t41 16q23 0 39.5 -16.5t16.5 -40.5zM1118 455q0 -12 -7.5 -20.5t-18.5 -8.5h-35v57h35q11 0 18.5 -8t7.5 -20zM2666 375l52 49l-52 49l-16 -14l27 -23h-938v-24h938l-27 -23zM1118 195q0 -51 35 -85t86 -34
q52 0 86.5 34t34.5 85q0 50 -34.5 83t-86.5 33q-51 0 -86 -33.5t-35 -82.5zM1788 172v-76q33 -20 78 -20q40 0 65 20t25 56q0 54 -74 71q-3 1 -6.5 2t-5.5 1.5t-4.5 1.5t-4 1.5t-3 1.5t-2.5 1.5t-1.5 2t-1 2.5t-0.5 3q0 8 23 8q36 0 66 -23v70q-37 16 -66 16q-42 0 -67 -18
t-25 -51q0 -29 15.5 -45t49.5 -27q4 -2 11.5 -4t12 -3t8 -4t3.5 -7q0 -13 -18 -13q-24 0 -78 33zM2050 195q0 -51 34.5 -85t84.5 -34q25 0 53 14l2 72q-21 -21 -51 -21q-22 0 -36.5 15.5t-14.5 38.5q0 22 14.5 36.5t36.5 14.5q20 0 45 -15v68q-21 12 -47 12q-51 0 -86 -33.5
t-35 -82.5zM2230 195q0 -51 35 -85t88 -34q51 0 86 34t35 85q0 49 -35 82.5t-86 33.5q-52 0 -87.5 -33t-35.5 -83zM172 242h74l-84 -160h194v63h-77l83 160h-190v-63zM539 305h-162v-223h164v61h-92v21h77v61h-77v19h90v61zM549 242h53v-160h72v160h53v63h-178v-63zM786 117
h64l8 -35h78l-76 223h-82l-76 -223h74zM1110 305h-162v-223h72v70h76v59h-76v33h90v61zM1589 82v223h-71v-119l-68 119h-74v-223h72l-2 108l70 -108h73zM1602 242h53v-160h71v160h52v63h-176v-63zM2560 305h-72v-223h72v88l29 -55h51l29 55v-88h69v223h-72l-53 -102z
M1288 195q0 -23 -13.5 -38.5t-35.5 -15.5t-35.5 15.5t-13.5 38.5q0 22 13.5 36.5t35.5 14.5t35.5 -14.5t13.5 -36.5zM2402 195q0 -23 -14.5 -38.5t-34.5 -15.5q-22 0 -36.5 15.5t-14.5 38.5q0 22 14.5 36.5t36.5 14.5q20 0 34.5 -14.5t14.5 -36.5zM819 229l15 -53h-31l14 53
h2zM1966 111q0 -14 10 -24.5t27 -10.5q15 0 25 10.5t10 24.5t-10 23t-25 9q-17 0 -27 -9t-10 -23z" />
    <glyph glyph-name="colon" unicode=":" horiz-adv-x="401" 
d="M371 1096l-23 -103h-104l22 103h105zM33 0l22 102h105l-23 -102h-104z" />
    <glyph glyph-name="semicolon" unicode=";" horiz-adv-x="399" 
d="M348 993h-102l20 103h105zM-18 -209l-13 27q116 72 127 182h-65l22 102h103q-4 -226 -174 -311z" />
    <glyph glyph-name="less" unicode="&#x3c;" horiz-adv-x="741" 
d="M150 727l583 430l23 -31l-566 -415l388 -408l-31 -27l-404 429z" />
    <glyph glyph-name="equal" unicode="=" horiz-adv-x="606" 
d="M641 877l-8 -39h-535l8 39h535zM578 582l-9 -39h-534l8 39h535z" />
    <glyph glyph-name="greater" unicode="&#x3e;" horiz-adv-x="741" 
d="M664 707l-584 -431l-23 31l566 416l-387 407l30 27l404 -428z" />
    <glyph glyph-name="question" unicode="?" horiz-adv-x="745" 
d="M367 375h-39q15 95 55 176.5t82.5 131t109.5 112.5q44 43 68.5 69.5t56.5 66.5t52 81.5t30 87.5q30 145 -30 224t-191 79q-138 0 -313 -96l-2 41q175 100 329 100q150 0 218.5 -91t33.5 -253q-9 -44 -27 -85.5t-35 -70t-50 -65t-51 -54t-58 -55.5q-102 -95 -157 -181
t-82 -218zM217 0l25 102h104l-24 -102h-105z" />
    <glyph glyph-name="at" unicode="@" horiz-adv-x="1634" 
d="M1040 1421q161 0 277.5 -56t177 -157.5t76 -243.5t-24.5 -313q-47 -224 -156.5 -374t-236.5 -150q-56 0 -91 23.5t-46.5 63.5t-12 80t8.5 85q-73 -114 -172 -182t-195 -68q-123 0 -173.5 101t-12.5 266q50 221 184 371.5t287 150.5q103 0 157 -72.5t48 -200.5l98 279
l41 -2l-203 -580q-13 -39 -19 -80t-3.5 -88.5t32 -77.5t84.5 -30q98 0 196.5 131.5t143.5 351.5q38 164 24 299t-70 231t-164.5 148.5t-260.5 52.5q-113 0 -225 -35.5t-216.5 -108t-192 -174.5t-155 -243t-102.5 -305q-75 -356 72 -546t481 -193q57 0 88 4l-10 -41
q-62 -4 -88 -4q-351 2 -508 203.5t-76 576.5q45 212 142 385.5t223.5 286.5t274 174t298.5 61zM659 170q131 0 258 135t170 318q38 160 -8 256t-159 96q-134 0 -252 -134.5t-164 -336.5q-37 -153 5 -243.5t150 -90.5z" />
    <glyph glyph-name="A" unicode="A" horiz-adv-x="1052" 
d="M879 0h-45l-37 397h-600l-207 -397h-51l745 1434h59zM702 1376l-485 -936h576z" />
    <glyph glyph-name="B" unicode="B" horiz-adv-x="1030" 
d="M664 743q114 -19 175.5 -87t61.5 -181q0 -67 -17.5 -132t-57.5 -127.5t-97.5 -110t-144 -76.5t-191.5 -29h-348l305 1434h320q151 0 236 -70t85 -199q0 -89 -33 -173t-109.5 -154t-184.5 -95zM649 1391h-260l-135 -631h285q79 0 147 23t114.5 62t79.5 90t48.5 106.5
t15.5 111.5q0 238 -295 238zM102 43h287q96 0 175.5 25t132 66.5t89 97t52.5 114.5t16 121q0 121 -76 185.5t-231 64.5h-301z" />
    <glyph glyph-name="C" unicode="C" horiz-adv-x="970" 
d="M477 -16q-171 0 -268.5 115t-97.5 323q0 76 13.5 167t41 190t66.5 194.5t95 182t120.5 152t148 104t174.5 38.5q160 0 293 -92l-21 -41q-122 90 -278 90q-81 0 -156 -37t-134.5 -100t-111 -146t-88.5 -174.5t-63.5 -186t-39.5 -181t-13 -158.5q0 -184 83 -289.5
t238 -105.5q161 0 309 90l3 -45q-155 -90 -314 -90z" />
    <glyph glyph-name="D" unicode="D" horiz-adv-x="1130" 
d="M315 0h-270l305 1434h258q226 0 349.5 -120.5t123.5 -344.5q0 -106 -20.5 -216t-60.5 -219t-104.5 -205t-146.5 -169.5t-194 -116.5t-240 -43zM389 1393l-287 -1350h213q104 0 196.5 31t163.5 85t131 127.5t101 156.5t69.5 173t42 177.5t13.5 169.5q0 208 -109 319
t-315 111h-219z" />
    <glyph glyph-name="E" unicode="E" horiz-adv-x="937" 
d="M1024 1434l-8 -43h-627l-137 -641h547l-8 -43h-547l-142 -664h639l-10 -43h-686l305 1434h674z" />
    <glyph glyph-name="F" unicode="F" horiz-adv-x="854" 
d="M987 1434l-8 -43h-590l-143 -672h520l-8 -43h-522l-144 -676h-47l305 1434h637z" />
    <glyph glyph-name="G" unicode="G" horiz-adv-x="1069" 
d="M762 1407q-111 0 -210 -67t-168 -173t-120 -235.5t-75.5 -256.5t-24.5 -235q0 -194 85 -302.5t238 -108.5q164 0 330 116l115 525h-191l11 43h233l-127 -596q-188 -133 -375 -133q-172 0 -269 119t-97 337q0 81 13.5 173.5t41.5 190t67 190.5t94 176t119 145t146 98.5
t170 36.5q172 0 301 -92l-20 -41q-121 90 -287 90z" />
    <glyph glyph-name="H" unicode="H" horiz-adv-x="1097" 
d="M932 748l145 686h47l-305 -1434h-47l150 705h-680l-150 -705h-47l305 1434h47l-145 -686h680z" />
    <glyph glyph-name="I" unicode="I" horiz-adv-x="370" 
d="M92 0h-47l305 1434h47z" />
    <glyph glyph-name="J" unicode="J" horiz-adv-x="708" 
d="M152 -16q-125 0 -203 61l16 43q78 -61 195 -61q125 0 207.5 77.5t119.5 253.5l220 1033h-211l8 43h258l-230 -1074q-42 -200 -138 -288t-242 -88z" />
    <glyph glyph-name="K" unicode="K" horiz-adv-x="966" 
d="M92 0h-45l303 1434h47zM797 0h-54l-434 721l2 14l670 699h61l-682 -711z" />
    <glyph glyph-name="L" unicode="L" horiz-adv-x="806" 
d="M653 0h-608l305 1434h47l-295 -1391h562z" />
    <glyph glyph-name="M" unicode="M" horiz-adv-x="1341" 
d="M582 115l696 1319h49l-240 -1434h-45l215 1298l-684 -1296h-26l-144 1296l-337 -1298h-46l371 1434h43z" />
    <glyph glyph-name="N" unicode="N" horiz-adv-x="1116" 
d="M90 0h-45l305 1434h47l414 -1340l287 1340h45l-305 -1434h-47l-414 1341z" />
    <glyph glyph-name="O" unicode="O" horiz-adv-x="1155" 
d="M481 -16q-170 0 -267 120t-97 332q0 109 24 239.5t76 268t123.5 250t177.5 184.5t227 72q172 0 270.5 -119t98.5 -334q0 -76 -12.5 -165.5t-39 -187.5t-64 -192t-90.5 -179t-115.5 -149t-143 -102t-168.5 -38zM483 27q110 0 208 69.5t164.5 177.5t116 239t72.5 255
t23 225q0 194 -85 304t-239 110q-80 0 -153.5 -37t-130.5 -100t-106 -145.5t-83 -173.5t-58.5 -184t-36 -177.5t-11.5 -153.5q0 -188 84 -298.5t235 -110.5z" />
    <glyph glyph-name="P" unicode="P" horiz-adv-x="954" 
d="M598 1434q185 0 289 -85.5t104 -244.5q0 -78 -19.5 -156.5t-64.5 -155.5t-110 -136t-164 -95.5t-219 -36.5h-211l-111 -524h-47l305 1434h248zM213 569h199q108 0 198.5 32.5t151 85t102.5 122t61 142t19 145.5q0 139 -87.5 217t-256.5 78h-211z" />
    <glyph glyph-name="Q" unicode="Q" horiz-adv-x="1155" 
d="M1114 997q0 -115 -29 -255.5t-82.5 -281t-143 -259.5t-197.5 -174q292 14 366 14l-10 -41q-86 0 -266 -7.5t-258 -8.5h-13h-6h-16q-160 9 -251 128.5t-91 323.5q0 109 24 239.5t76 268t123.5 250t177.5 184.5t227 72q172 0 270.5 -119t98.5 -334zM164 436
q0 -188 84 -298.5t235 -110.5q110 0 208 69.5t164.5 177.5t116 239t72.5 255t23 225q0 194 -85 304t-239 110q-80 0 -153.5 -37t-130.5 -100t-106 -145.5t-83 -173.5t-58.5 -184t-36 -177.5t-11.5 -153.5z" />
    <glyph glyph-name="R" unicode="R" horiz-adv-x="983" 
d="M1001 1118q0 -68 -15 -135.5t-50 -135.5t-86.5 -122t-130 -94.5t-174.5 -55.5l227 -575h-51l-223 569q-23 -2 -70 -2h-215l-121 -567h-47l305 1434h250q188 0 294.5 -81.5t106.5 -234.5zM221 610h209q108 0 197.5 30.5t148.5 80.5t99.5 115.5t58.5 134t18 137.5
q0 134 -88 208.5t-258 74.5h-217z" />
    <glyph glyph-name="S" unicode="S" horiz-adv-x="886" 
d="M307 -16q-197 0 -334 90l21 41q127 -86 317 -86q173 0 285.5 110t112.5 262q0 64 -17.5 114t-55.5 89t-73 64t-96 61q-51 33 -83 57t-67 57t-54 64.5t-31.5 74t-12.5 91.5q0 70 31 138t84.5 121t132.5 85.5t168 32.5q165 0 287 -80l-17 -45q-113 80 -272 80
q-152 0 -259.5 -97.5t-107.5 -228.5q0 -55 14.5 -98.5t50 -81.5t70.5 -65t99 -70q62 -37 102.5 -67.5t78.5 -73.5t56.5 -96.5t18.5 -120.5q0 -83 -33 -160t-90.5 -135t-142.5 -92.5t-183 -34.5z" />
    <glyph glyph-name="T" unicode="T" horiz-adv-x="813" 
d="M223 1434h744l-9 -43h-348l-297 -1391h-47l297 1391h-348z" />
    <glyph glyph-name="U" unicode="U" horiz-adv-x="1046" 
d="M406 -16q-68 0 -122 17t-89.5 47.5t-59 70.5t-33 88t-8.5 98t12 103l218 1026h47l-219 -1024q-10 -59 -12 -114t15 -103.5t47 -85t83.5 -57.5t124.5 -21q156 0 272 102.5t154 278.5l217 1024h47l-219 -1024q-41 -196 -169 -311t-306 -115z" />
    <glyph glyph-name="V" unicode="V" horiz-adv-x="1019" 
d="M408 74l694 1360h49l-733 -1434h-49l-125 1434h47z" />
    <glyph glyph-name="W" unicode="W" horiz-adv-x="1478" 
d="M979 72l582 1362h49l-613 -1434h-61l-31 1329l-594 -1329h-59l-8 1434h47l4 -1362l606 1362h51z" />
    <glyph glyph-name="X" unicode="X" horiz-adv-x="913" 
d="M981 1436h55l-510 -705l217 -731h-47l-204 692l-500 -692h-55l532 733l-215 703h49l197 -668z" />
    <glyph glyph-name="Y" unicode="Y" horiz-adv-x="937" 
d="M1028 1434h53l-606 -963l-100 -471h-45l100 471l-197 963h48l184 -893z" />
    <glyph glyph-name="Z" unicode="Z" horiz-adv-x="901" 
d="M694 0h-727l6 31l961 1360h-655l8 43h717l-7 -29l-962 -1362h670z" />
    <glyph glyph-name="bracketleft" unicode="[" horiz-adv-x="528" 
d="M303 -348h-383l389 1843h385l-8 -41h-338l-375 -1761h338z" />
    <glyph glyph-name="backslash" unicode="\" horiz-adv-x="978" 
d="M313 1442l420 -1678h-45l-420 1678h45z" />
    <glyph glyph-name="bracketright" unicode="]" horiz-adv-x="528" 
d="M236 1495h385l-392 -1843h-383l7 41h340l374 1761h-340z" />
    <glyph glyph-name="asciicircum" unicode="^" horiz-adv-x="727" 
d="M545 1386l-430 -768l-43 9l452 807h56l108 -807l-41 -6z" />
    <glyph glyph-name="underscore" unicode="_" horiz-adv-x="618" 
d="M471 -102l-8 -39h-615l9 39h614z" />
    <glyph glyph-name="grave" unicode="`" horiz-adv-x="409" 
d="M457 1276l-31 -10l-121 200l51 23z" />
    <glyph glyph-name="a" unicode="a" horiz-adv-x="970" 
d="M825 766l70 326h45l-233 -1092h-45l63 299q-72 -147 -176 -231t-213 -84q-126 0 -199.5 94t-73.5 256q0 83 19 183.5t60 205.5t96.5 191t137 141t173.5 55q66 0 117.5 -28.5t84 -78t51 -109t23.5 -128.5zM348 27q128 0 251 142t175 361l4 17q13 64 15 133.5t-11 139
t-40 124.5t-76.5 89t-114.5 34q-83 0 -156.5 -52t-124.5 -133t-88.5 -179.5t-55 -191.5t-17.5 -169q0 -144 62 -229.5t177 -85.5z" />
    <glyph glyph-name="b" unicode="b" horiz-adv-x="978" 
d="M430 -16q-120 0 -194 94.5t-82 253.5l-72 -332h-43l321 1511h43l-151 -716q69 143 171 229t220 86q125 0 198.5 -95t73.5 -257q0 -85 -19.5 -186t-60.5 -205t-97 -189.5t-136.5 -139.5t-171.5 -54zM428 27q82 0 155.5 51.5t124 132t88 178.5t55 191.5t17.5 169.5
q0 145 -62.5 231t-176.5 86q-148 0 -267.5 -152t-160.5 -372q-12 -75 -14 -148t15 -140t45 -117.5t75 -80.5t106 -30z" />
    <glyph glyph-name="c" unicode="c" horiz-adv-x="778" 
d="M356 -16q-136 0 -214.5 94t-78.5 256q0 90 20.5 192.5t64.5 206.5t104.5 187.5t149 136.5t188.5 53q125 0 231 -70l-20 -39q-104 64 -215 64q-76 0 -144.5 -35.5t-119.5 -94.5t-92.5 -134t-67 -156.5t-39.5 -159.5t-14 -145q0 -143 65.5 -228t187.5 -85q119 0 248 75
l4 -43q-129 -75 -258 -75z" />
    <glyph glyph-name="d" unicode="d" horiz-adv-x="978" 
d="M336 -16q-127 0 -198.5 95t-71.5 255q0 85 19.5 186t60 205.5t96.5 190t137 140t172 54.5q119 0 193 -92t83 -250l158 743h45l-321 -1511h-45l61 293q-70 -141 -172.5 -225t-216.5 -84zM350 27q140 0 259.5 144t164.5 359q22 101 16.5 197.5t-29.5 172t-79 121.5t-131 46
q-82 0 -155 -52t-123.5 -133t-88 -179t-55.5 -191.5t-18 -169.5q0 -148 62.5 -231.5t176.5 -83.5z" />
    <glyph glyph-name="e" unicode="e" horiz-adv-x="870" 
d="M559 1110q123 0 194.5 -77.5t71.5 -215.5q0 -136 -53 -280h-639q-22 -110 -22 -193q0 -146 65 -231.5t189 -85.5q135 0 264 75v-43q-129 -75 -271 -75q-137 0 -214.5 95.5t-77.5 260.5q0 75 15 159.5t42.5 171t71 165.5t96.5 140t122.5 97.5t145.5 36.5zM143 578h598
q39 128 39 235q0 118 -58.5 186t-164.5 68q-77 0 -145.5 -42t-119.5 -113.5t-88.5 -155.5t-60.5 -178z" />
    <glyph glyph-name="f" unicode="f" horiz-adv-x="548" 
d="M637 1485q-86 0 -144.5 -60.5t-84.5 -177.5l-33 -155h282l-10 -41h-280l-224 -1051h-45l226 1051h-138l9 41h137l35 163q29 134 98.5 203.5t173.5 69.5q67 0 113 -19l-17 -41q-46 17 -98 17z" />
    <glyph glyph-name="g" unicode="g" horiz-adv-x="970" 
d="M260 -367q-150 0 -256 93l23 41q98 -91 237 -91q153 0 266.5 121.5t157.5 331.5l45 197q-77 -169 -183.5 -253.5t-225.5 -84.5q-126 0 -194.5 84.5t-68.5 238.5q0 130 37 270t100 258t159.5 194.5t203.5 76.5q117 0 187 -89.5t79 -242.5l66 314h45l-203 -961
q-50 -231 -176.5 -364.5t-298.5 -133.5zM342 31q74 0 145.5 45.5t126.5 120.5t97.5 167.5t65 190.5t22.5 184q0 148 -65 238t-173 90q-66 0 -128.5 -33.5t-111 -90.5t-89 -132t-67.5 -158t-41.5 -167.5t-14.5 -161.5q0 -140 60.5 -216.5t172.5 -76.5z" />
    <glyph glyph-name="h" unicode="h" horiz-adv-x="925" 
d="M629 1110q134 0 190 -99t17 -284l-156 -727h-45l156 727q35 166 -11 253t-164 87q-125 0 -232.5 -115t-170.5 -334l-131 -618h-43l321 1511h43l-147 -694q66 140 164 216.5t209 76.5z" />
    <glyph glyph-name="i" unicode="i" horiz-adv-x="339" 
d="M344 1253h-49l43 201h49zM76 0h-45l233 1092h45z" />
    <glyph glyph-name="j" unicode="j" horiz-adv-x="358" 
d="M362 1253h-49l43 201h50zM-236 -344l11 41q42 -6 63 -6q145 0 193 221l252 1180h45l-252 -1184q-56 -258 -242 -258q-46 0 -70 6z" />
    <glyph glyph-name="k" unicode="k" horiz-adv-x="825" 
d="M758 1092h61l-573 -525l403 -567h-55l-393 557l-119 -557h-43l321 1511h43l-196 -925z" />
    <glyph glyph-name="l" unicode="l" horiz-adv-x="354" 
d="M82 0h-43l321 1511h43z" />
    <glyph glyph-name="m" unicode="m" horiz-adv-x="1429" 
d="M1153 1110q124 0 174.5 -97.5t11.5 -281.5l-155 -731h-45l155 733q35 163 -4 248.5t-147 85.5q-111 0 -216.5 -114t-154.5 -291l-141 -662h-45l155 733q35 163 -4.5 248.5t-144.5 85.5q-110 0 -215.5 -114.5t-159.5 -288.5l-141 -664h-45l233 1092h45l-55 -265
q63 130 155 206.5t193 76.5q104 0 157.5 -74t41.5 -213q64 132 157.5 209.5t194.5 77.5z" />
    <glyph glyph-name="n" unicode="n" horiz-adv-x="917" 
d="M625 1110q134 0 187.5 -99t14.5 -284l-155 -727h-45l155 727q35 166 -10.5 253t-163.5 87q-115 0 -221 -108.5t-174 -313.5l-137 -645h-45l233 1092h45l-59 -283q64 143 163.5 222t211.5 79z" />
    <glyph glyph-name="o" unicode="o" horiz-adv-x="929" 
d="M365 -16q-137 0 -217 96.5t-80 263.5q0 71 13.5 152.5t39.5 168t68.5 165.5t95.5 142t125.5 100.5t154.5 37.5q137 0 218 -96.5t81 -263.5q0 -86 -19 -186t-60.5 -203t-98.5 -187t-141 -137t-180 -53zM373 27q83 0 157.5 50.5t125.5 130t89 176t56 189t18 168.5
q0 148 -69 236t-191 88q-72 0 -136.5 -35.5t-112 -95t-86 -134t-62.5 -154.5t-36.5 -155.5t-12.5 -138.5q0 -149 67 -237t193 -88z" />
    <glyph glyph-name="p" unicode="p" horiz-adv-x="974" 
d="M2 -350h-45l311 1442h45l-63 -291q68 141 170 225t217 84q126 0 199 -93.5t73 -260.5q0 -84 -19.5 -184.5t-60 -204.5t-96.5 -189.5t-137 -139.5t-172 -54q-127 0 -197.5 98t-76.5 250zM422 27q82 0 155.5 51.5t124 132t88 178.5t55 191.5t17.5 169.5q0 149 -62 233
t-175 84q-91 0 -176 -67.5t-143 -170.5t-93 -225.5t-35 -232.5q0 -96 26.5 -172.5t83 -124t134.5 -47.5z" />
    <glyph glyph-name="q" unicode="q" horiz-adv-x="972" 
d="M631 -350h-45l139 647q-68 -143 -170.5 -228t-218.5 -85q-126 0 -199.5 94t-73.5 256q0 83 19.5 183.5t60.5 205.5t96.5 191t137 141t172.5 55q119 0 194 -93.5t84 -250.5l70 326h45zM352 27q89 0 173.5 68.5t142.5 172t93.5 224t35.5 225.5q0 160 -66 255t-180 95
q-69 0 -132 -36.5t-110 -97t-85.5 -136.5t-62.5 -157.5t-37 -158t-13 -139.5q0 -145 63.5 -230t177.5 -85z" />
    <glyph glyph-name="r" unicode="r" horiz-adv-x="575" 
d="M586 1108q33 0 71 -10l-14 -47q-38 10 -70 10q-134 0 -230 -128.5t-146 -365.5l-121 -567h-45l233 1092h45l-53 -256q121 272 330 272z" />
    <glyph glyph-name="s" unicode="s" horiz-adv-x="722" 
d="M236 -16q-151 0 -269 65l17 43q110 -65 258 -65q135 0 219 82.5t84 197.5q0 87 -46 142.5t-143 105.5q-194 96 -194 252q0 126 86.5 213.5t240.5 87.5q131 0 230 -55l-17 -41q-83 53 -215 53t-206 -75t-74 -175q0 -73 43.5 -126.5t138.5 -104.5q103 -53 153 -116.5
t50 -158.5q0 -136 -99.5 -230.5t-256.5 -94.5z" />
    <glyph glyph-name="t" unicode="t" horiz-adv-x="632" 
d="M274 -16q-94 0 -128.5 63t-10.5 172l176 830h-131l8 34l101 11l94 209h27l-43 -211h278l-10 -43h-279l-176 -822q-19 -91 8 -145.5t101 -54.5q79 0 147 43l2 -43q-72 -43 -164 -43z" />
    <glyph glyph-name="u" unicode="u" horiz-adv-x="919" 
d="M705 446l137 646h45l-234 -1092h-45l60 283q-64 -143 -163.5 -222t-211.5 -79q-134 0 -188 99t-15 284l156 727h45l-156 -727q-35 -166 10.5 -253t163.5 -87q115 0 221.5 108t174.5 313z" />
    <glyph glyph-name="v" unicode="v" horiz-adv-x="874" 
d="M344 0h-49l-119 1092h45l111 -1031l549 1031h51z" />
    <glyph glyph-name="w" unicode="w" horiz-adv-x="1300" 
d="M827 66l480 1026h47l-510 -1092h-56l-40 1010l-463 -1010h-60l-45 1092h47l39 -1026l475 1026h50z" />
    <glyph glyph-name="x" unicode="x" horiz-adv-x="817" 
d="M809 1092h55l-424 -537l201 -555h-47l-188 522l-410 -522h-53l442 563l-197 529h48l184 -496z" />
    <glyph glyph-name="y" unicode="y" horiz-adv-x="874" 
d="M332 61l551 1031h49l-586 -1092l-186 -350h-49l184 346l-119 1096h45z" />
    <glyph glyph-name="z" unicode="z" horiz-adv-x="743" 
d="M559 0h-614l6 31l760 1020h-531l10 41h592l-6 -29l-764 -1020h557z" />
    <glyph glyph-name="braceleft" unicode="{" horiz-adv-x="602" 
d="M395 1178q6 59 18 100t37 80t64.5 64t102 44t149.5 29l-6 -41q-94 -11 -153.5 -32t-93.5 -58t-49 -79t-24 -111q-5 -40 -13.5 -119.5t-17 -146t-20.5 -124.5q-21 -95 -81.5 -146.5t-145.5 -64.5q81 -13 119.5 -65.5t17.5 -147.5q-11 -53 -30.5 -118t-46.5 -148t-38 -121
q-25 -84 -23.5 -140.5t54 -90.5t170.5 -49l-10 -41q-136 16 -198 56.5t-63.5 105t25.5 155.5q13 42 40 127t46 149t29 113q23 104 -32.5 150.5t-184.5 46.5l8 37q128 0 203 46t96 150q13 60 21.5 122t17 146.5t12.5 121.5z" />
    <glyph glyph-name="bar" unicode="|" horiz-adv-x="368" 
d="M393 1434l-344 -1620h-43l344 1620h43z" />
    <glyph glyph-name="braceright" unicode="}" horiz-adv-x="602" 
d="M360 788q-23 -104 32 -150t183 -46l-6 -37q-129 0 -203.5 -46.5t-97.5 -150.5q-10 -47 -18 -101t-12 -91.5t-10 -101t-9 -95.5q-8 -59 -19.5 -100t-36.5 -80t-64.5 -64t-101.5 -44t-149 -29l5 41q76 9 129.5 25.5t87.5 37.5t55 55.5t31 70.5t18 91q2 14 18 162.5
t31 226.5q21 95 82 146.5t148 64.5q-83 13 -121 65.5t-17 147.5q15 70 61 219t52 169q26 84 24.5 140.5t-54.5 90.5t-171 49l11 41q137 -16 199.5 -56.5t63.5 -105t-26 -155.5q-8 -25 -31 -97.5t-34.5 -109.5t-26.5 -91t-23 -92z" />
    <glyph glyph-name="asciitilde" unicode="~" horiz-adv-x="620" 
d="M211 1223l-29 16q64 129 172 129q35 0 68 -19t54.5 -41.5t51 -41.5t58.5 -19q78 0 141 113l27 -19q-64 -129 -172 -129q-32 0 -64 19t-54 41.5t-52.5 41.5t-59.5 19q-83 0 -141 -110z" />
    <glyph glyph-name="uni00A0" unicode="&#xa0;" horiz-adv-x="407" 
 />
    <glyph glyph-name="exclamdown" unicode="&#xa1;" horiz-adv-x="401" 
d="M369 1090l-23 -103h-104l22 103h105zM182 356l-147 -702h-45l147 700l82 363h35z" />
    <glyph glyph-name="cent" unicode="&#xa2;" horiz-adv-x="837" 
d="M821 1040l-20 -39q-74 48 -158 60l-162 -514h2l-164 -516q24 -4 43 -4q119 0 248 75l4 -43q-129 -75 -258 -75q-19 0 -51 4l-90 -285h-39l92 293q-97 28 -151 116.5t-54 221.5q0 90 20.5 192.5t64.5 206.5t104.5 187.5t149 136.5t188.5 53q23 0 33 -2l88 278h37l-91 -282
q85 -12 164 -64zM608 1065h-22q-76 0 -144.5 -35.5t-119.5 -94.5t-92.5 -134t-67 -156.5t-39.5 -159.5t-14 -145q0 -117 44.5 -196t129.5 -105z" />
    <glyph glyph-name="sterling" unicode="&#xa3;" horiz-adv-x="937" 
d="M770 1450q149 0 244 -119l-25 -41q-86 117 -229 117q-144 0 -245.5 -106.5t-145.5 -311.5l-74 -346h428l-10 -39h-426l-119 -563h620l-8 -41h-819l6 29l156 14l121 561h-197l10 39h195l72 338q50 236 166 352.5t280 116.5z" />
    <glyph glyph-name="yen" unicode="&#xa5;" horiz-adv-x="937" 
d="M424 510l-191 924h52l182 -893l563 893h51l-583 -924h239l-10 -35h-252l-35 -170h252l-8 -35h-252l-57 -270h-45l55 270h-248l8 35h248l37 170h-250l8 35h236z" />
    <glyph glyph-name="brokenbar" unicode="&#xa6;" horiz-adv-x="489" 
d="M455 1434l-127 -598h-41l125 598h43zM238 414l-127 -598h-43l127 598h43z" />
    <glyph glyph-name="section" unicode="&#xa7;" horiz-adv-x="743" 
d="M575 1409q-23 -110 -20 -226t21 -206.5t34 -201t20 -209.5t-22 -230q-36 -163 -146.5 -257.5t-246.5 -94.5q-125 0 -235 69l20 41q104 -67 223 -67q23 110 20 226t-21 206.5t-34 201t-20 209.5t22 230q36 163 147 257.5t247 94.5q118 0 235 -70l-20 -41q-106 68 -224 68z
M565 334q19 92 20.5 187.5t-10.5 173t-26 167t-25.5 169t-10 179t21.5 197.5q-108 -14 -191.5 -96t-110.5 -209q-23 -109 -20.5 -223.5t20 -204.5t33 -200.5t19.5 -210.5t-21 -234q108 14 191 96t110 209z" />
    <glyph glyph-name="dieresis" unicode="&#xa8;" horiz-adv-x="501" 
d="M307 1272h-43l43 201h41zM549 1272h-43l43 201h41z" />
    <glyph glyph-name="copyright" unicode="&#xa9;" horiz-adv-x="1363" 
d="M561 -18q-247 0 -366.5 199.5t-49.5 533.5q35 168 109 308.5t171 234t212.5 145t236.5 51.5q162 0 273 -89.5t150 -254t-7 -395.5q-35 -167 -109 -306t-171 -232t-212.5 -144t-236.5 -51zM569 18q231 0 423.5 190t260.5 507q67 321 -44 511.5t-343 190.5
q-152 0 -290.5 -83t-243.5 -244t-150 -375q-44 -218 -7.5 -373t140 -239.5t254.5 -84.5zM645 291q-132 0 -187.5 115t-13.5 315q40 192 144 309t241 117q105 0 172 -72l-28 -33q-61 64 -154 64q-114 0 -204 -103t-128 -282q-37 -174 7 -280.5t161 -106.5q94 0 183 65l14 -32
q-98 -76 -207 -76z" />
    <glyph glyph-name="ordfeminine" unicode="&#xaa;" horiz-adv-x="507" 
d="M463 1524q163 0 123 -195l-78 -364h-39l27 122q-30 -54 -78 -92.5t-103 -38.5q-63 0 -90 43.5t-10 120.5q15 76 64.5 120t123.5 44q64 0 129 -14l13 57q38 162 -94 162q-63 0 -123 -37l-4 35q72 37 139 37zM336 993q60 0 114 66t68 141l8 35q-56 16 -118 16
q-60 0 -101 -33.5t-53 -95.5q-14 -59 7.5 -94t74.5 -35zM481 831h-329l8 37h329z" />
    <glyph glyph-name="guillemotleft" unicode="&#xab;" horiz-adv-x="839" 
d="M332 113l-33 -19l-270 420l2 18l450 420l29 -22l-436 -410zM709 113l-35 -19l-273 422l5 14l452 422l29 -22l-436 -410z" />
    <glyph glyph-name="logicalnot" unicode="&#xac;" horiz-adv-x="876" 
d="M877 713v-6l-3 -15l-4 -20h-2l-61 -289h-41l63 289h-768l9 41h807z" />
    <glyph glyph-name="uni00AD" unicode="&#xad;" horiz-adv-x="604" 
d="M551 463l-8 -41h-535l8 41h535z" />
    <glyph glyph-name="registered" unicode="&#xae;" horiz-adv-x="768" 
d="M580 1464q123 0 178.5 -96.5t21.5 -251.5q-34 -158 -130.5 -254t-219.5 -96q-122 0 -177.5 96t-23.5 254q34 155 131 251.5t220 96.5zM752 1116q32 144 -18 233t-161 89t-198.5 -89t-118.5 -233q-31 -146 19 -234.5t161 -88.5t198 88.5t118 234.5zM541 1339
q66 0 96 -34.5t18 -96.5q-10 -49 -41 -80.5t-77 -42.5l63 -174h-31l-63 168h-23h-55l-37 -168h-29l91 428h88zM627 1208q9 48 -16 75.5t-79 27.5h-55l-45 -205h55q54 0 92 27.5t48 74.5z" />
    <glyph glyph-name="macron" unicode="&#xaf;" horiz-adv-x="628" 
d="M680 1298h-412l11 37h409z" />
    <glyph glyph-name="degree" unicode="&#xb0;" horiz-adv-x="817" 
d="M473 852q-124 0 -192.5 87t-42.5 212q26 124 132.5 211.5t229.5 87.5q125 0 194.5 -87.5t43.5 -211.5t-133 -211.5t-232 -87.5zM477 881q112 0 207.5 78.5t120.5 191.5q25 110 -38 190t-175 80q-110 0 -205.5 -79.5t-120.5 -190.5q-25 -112 37.5 -191t173.5 -79z" />
    <glyph glyph-name="plusminus" unicode="&#xb1;" horiz-adv-x="634" 
d="M428 973l-53 -250h260l-8 -39h-260l-54 -252h-41l54 252h-263l11 39h260l53 250h41zM541 324h-539l8 38h541z" />
    <glyph glyph-name="uni00B2" unicode="&#xb2;" horiz-adv-x="423" 
d="M481 1087h-309l6 29q112 90 217 195q64 64 94.5 110t40.5 97q12 56 -16.5 88t-83.5 32q-59 0 -123 -41l-6 37q74 41 145 41q70 0 106 -41t19 -114q-12 -60 -43.5 -109t-99.5 -115q-101 -98 -188 -170h252z" />
    <glyph glyph-name="uni00B3" unicode="&#xb3;" horiz-adv-x="428" 
d="M315 1079q-79 0 -135 43l17 33q55 -39 120 -39q63 0 108 40t60 110q12 63 -12.5 100t-79.5 37q-29 0 -67 -6l4 26l209 211h-236l8 35h279l-2 -27l-207 -212l35 2q68 -1 95.5 -46t12.5 -120q-19 -87 -75 -137t-134 -50z" />
    <glyph glyph-name="acute" unicode="&#xb4;" horiz-adv-x="409" 
d="M496 1466l-207 -200l-25 10l191 213z" />
    <glyph glyph-name="uni00B5" unicode="&#xb5;" horiz-adv-x="919" 
d="M702 440l142 652h45l-236 -1092h-45l60 279q-66 -140 -165 -218.5t-210 -78.5q-168 0 -209 151l-100 -485h-45l143 676q1 7 4 20.5t4 20.5l156 727h45l-156 -727q-35 -165 11 -252.5t163 -87.5q115 0 220 106t173 309z" />
    <glyph glyph-name="paragraph" unicode="&#xb6;" horiz-adv-x="1114" 
d="M639 1434h137l-356 -1680h-39l188 881h-96q-187 0 -264.5 102.5t-36.5 296.5q41 195 161 297.5t306 102.5zM745 -246l357 1680h37l-357 -1680h-37z" />
    <glyph glyph-name="periodcentered" unicode="&#xb7;" horiz-adv-x="276" 
d="M113 666l22 102h105l-25 -102h-102z" />
    <glyph glyph-name="cedilla" unicode="&#xb8;" horiz-adv-x="477" 
d="M121 4l-43 -84q74 -6 112 -44t25 -99q-11 -59 -66 -99t-143 -40q-68 0 -117 18l17 35q38 -19 104 -19q70 0 113 31t51 76q12 53 -29 83t-118 32l57 110h37z" />
    <glyph glyph-name="uni00B9" unicode="&#xb9;" horiz-adv-x="262" 
d="M291 1647l123 22h30l-125 -582h-38l116 543l-108 -20z" />
    <glyph glyph-name="ordmasculine" unicode="&#xba;" horiz-adv-x="561" 
d="M367 958q-87 0 -124 75.5t-10 205.5q28 129 96 207t156 78t125.5 -75.5t10.5 -207.5q-26 -128 -95 -205.5t-159 -77.5zM377 997q69 0 124.5 64.5t78.5 177.5q25 111 -2 178.5t-99 67.5q-69 0 -125 -65.5t-82 -180.5q-23 -109 5 -175.5t100 -66.5zM520 831h-354l6 37h356z
" />
    <glyph glyph-name="guillemotright" unicode="&#xbb;" horiz-adv-x="841" 
d="M123 940l35 21l272 -424l-2 -13l-453 -422l-30 21l438 412zM500 940l32 21l273 -420l-4 -19l-449 -420l-30 21l438 412z" />
    <glyph glyph-name="onequarter" unicode="&#xbc;" horiz-adv-x="862" 
d="M403 1477l-124 -582h-39l116 543l-108 -21l2 37l123 23h30zM-133 0l936 1434h41l-934 -1434h-43zM356 178l336 404h51l-86 -398h70l-8 -32h-70l-31 -152h-38l32 152h-254zM406 184h215l73 355z" />
    <glyph glyph-name="onehalf" unicode="&#xbd;" horiz-adv-x="802" 
d="M403 1477l-124 -582h-39l116 543l-108 -21l2 37l123 23h30zM-133 0l936 1434h41l-934 -1434h-43zM594 588q70 0 106 -41.5t19 -114.5q-12 -60 -43.5 -108t-100.5 -115q-101 -98 -188 -170h252l-10 -39h-310l7 29q117 94 217 194q64 64 94.5 110t40.5 97q12 56 -16.5 88.5
t-83.5 32.5q-59 0 -123 -41l-6 37q74 41 145 41z" />
    <glyph glyph-name="threequarters" unicode="&#xbe;" horiz-adv-x="1028" 
d="M274 887q-79 0 -135 43l17 33q55 -39 120 -39q63 0 108 39.5t60 109.5q12 63 -12.5 100t-79.5 37q-30 0 -67 -6l4 27l209 211h-236l8 35h279l-2 -27l-207 -213l35 2q68 -1 95.5 -46t12.5 -120q-19 -87 -75 -136.5t-134 -49.5zM76 0h-43l936 1434h41zM784 0h-39l33 152
h-254l-2 26l336 404h51l-86 -398h70l-8 -32h-70zM860 539l-289 -355h215z" />
    <glyph glyph-name="questiondown" unicode="&#xbf;" horiz-adv-x="751" 
d="M526 1092l-24 -103h-105l25 103h104zM377 717h39q-12 -72 -35.5 -134t-59.5 -113.5t-70 -89t-83 -83.5q-44 -43 -68.5 -69.5t-56.5 -66.5t-52 -81.5t-30 -87.5q-30 -145 29.5 -224t189.5 -79q145 0 316 98l2 -43q-175 -100 -332 -100q-148 0 -216.5 91t-33.5 253
q9 44 27 85.5t35 69.5t50.5 65t50.5 53.5t58 55.5q102 96 157.5 182t82.5 218z" />
    <glyph glyph-name="Agrave" unicode="&#xc0;" horiz-adv-x="1052" 
d="M664 1753l94 -209l-31 -8l-115 197zM879 0h-45l-37 397h-600l-207 -397h-51l745 1434h59zM702 1376l-485 -936h576z" />
    <glyph glyph-name="Aacute" unicode="&#xc1;" horiz-adv-x="1052" 
d="M903 1753l41 -20l-196 -197l-27 8zM-61 0l745 1434h59l136 -1434h-45l-37 397h-600l-207 -397h-51zM702 1376l-485 -936h576z" />
    <glyph glyph-name="Acircumflex" unicode="&#xc2;" horiz-adv-x="1052" 
d="M860 1761l94 -239l-45 -9l-88 216l-190 -216l-41 11l211 237h59zM-61 0l745 1434h59l136 -1434h-45l-37 397h-600l-207 -397h-51zM702 1376l-485 -936h576z" />
    <glyph glyph-name="Atilde" unicode="&#xc3;" horiz-adv-x="1052" 
d="M928 1690l35 -7q-15 -72 -52 -113.5t-84 -41.5q-28 0 -50.5 18.5t-34.5 41t-30 41t-38 18.5q-33 0 -58.5 -32.5t-37.5 -90.5l-35 6q15 73 51 114.5t86 41.5q27 0 49 -18.5t34.5 -41t30.5 -41t37 -18.5q33 0 59 32.5t38 90.5zM-61 0l745 1434h59l136 -1434h-45l-37 397
h-600l-207 -397h-51zM702 1376l-485 -936h576z" />
    <glyph glyph-name="Adieresis" unicode="&#xc4;" horiz-adv-x="1052" 
d="M651 1714h49l-41 -194h-49zM866 1714h49l-43 -194h-47zM-61 0l745 1434h59l136 -1434h-45l-37 397h-600l-207 -397h-51zM702 1376l-485 -936h576z" />
    <glyph glyph-name="Aring" unicode="&#xc5;" horiz-adv-x="1052" 
d="M788 1761q66 0 96.5 -45t16.5 -106q-13 -63 -61.5 -107.5t-114.5 -44.5t-97 44.5t-18 107.5q13 61 62.5 106t115.5 45zM866 1610q10 46 -11.5 81t-72.5 35q-52 0 -89.5 -35t-47.5 -81q-10 -48 12.5 -82.5t73.5 -34.5t88 35t47 82zM-61 0l745 1434h59l136 -1434h-45
l-37 397h-600l-207 -397h-51zM702 1376l-485 -936h576z" />
    <glyph glyph-name="AE" unicode="&#xc6;" horiz-adv-x="1441" 
d="M1528 1434l-8 -43h-627l-137 -641h549l-9 -43h-548l-142 -664h641l-10 -43h-686l86 408h-397l-250 -408h-51l880 1434h709zM844 1391l-580 -942h383l201 942h-4z" />
    <glyph glyph-name="Ccedilla" unicode="&#xc7;" horiz-adv-x="970" 
d="M764 1407q-81 0 -156 -37t-134.5 -100t-111 -146t-88.5 -174.5t-63.5 -186t-39.5 -181t-13 -158.5q0 -184 83 -289.5t238 -105.5q161 0 309 90l3 -45q-152 -87 -304 -90l-34 -68q74 -6 112 -44t25 -99q-11 -59 -66 -99.5t-143 -40.5q-66 0 -117 19l17 35q38 -19 104 -19
q70 0 113 31t51 76q12 53 -29.5 82.5t-118.5 31.5l50 95q-159 9 -249.5 123.5t-90.5 314.5q0 76 13.5 167t41 190t66.5 194.5t95 182t120.5 152t148 104t174.5 38.5q160 0 293 -92l-21 -41q-122 90 -278 90z" />
    <glyph glyph-name="Egrave" unicode="&#xc8;" horiz-adv-x="937" 
d="M633 1753l94 -209l-31 -8l-114 197zM1024 1434l-8 -43h-627l-137 -641h547l-8 -43h-547l-142 -664h639l-10 -43h-686l305 1434h674z" />
    <glyph glyph-name="Eacute" unicode="&#xc9;" horiz-adv-x="937" 
d="M872 1753l41 -20l-196 -197l-27 8zM1024 1434l-8 -43h-627l-137 -641h547l-8 -43h-547l-142 -664h639l-10 -43h-686l305 1434h674z" />
    <glyph glyph-name="Ecircumflex" unicode="&#xca;" horiz-adv-x="937" 
d="M879 1513l-88 216l-191 -216l-41 11l211 237h59l95 -239zM1024 1434l-8 -43h-627l-137 -641h547l-8 -43h-547l-142 -664h639l-10 -43h-686l305 1434h674z" />
    <glyph glyph-name="Edieresis" unicode="&#xcb;" horiz-adv-x="937" 
d="M621 1714h49l-41 -194h-49zM836 1714h49l-43 -194h-47zM1024 1434l-8 -43h-627l-137 -641h547l-8 -43h-547l-142 -664h639l-10 -43h-686l305 1434h674z" />
    <glyph glyph-name="Igrave" unicode="&#xcc;" horiz-adv-x="370" 
d="M418 1544l-31 -8l-115 197l52 20zM92 0h-47l305 1434h47z" />
    <glyph glyph-name="Iacute" unicode="&#xcd;" horiz-adv-x="370" 
d="M602 1733l-196 -197l-27 8l182 209zM92 0h-47l305 1434h47z" />
    <glyph glyph-name="Icircumflex" unicode="&#xce;" horiz-adv-x="370" 
d="M520 1761l94 -239l-45 -9l-88 216l-190 -216l-41 11l211 237h59zM92 0h-47l305 1434h47z" />
    <glyph glyph-name="Idieresis" unicode="&#xcf;" horiz-adv-x="370" 
d="M319 1520h-49l41 194h49zM532 1520h-47l41 194h49zM92 0h-47l305 1434h47z" />
    <glyph glyph-name="Eth" unicode="&#xd0;" horiz-adv-x="1130" 
d="M350 1434h258q226 0 349.5 -120.5t123.5 -344.5q0 -106 -20.5 -216t-60.5 -219t-104.5 -205t-146.5 -169.5t-194 -116.5t-240 -43h-270l150 698h-111l6 39h113zM102 43h213q104 0 196.5 31t163.5 85t131 127.5t101 156.5t69.5 173t42 177.5t13.5 169.5q0 208 -109 319
t-315 111h-219l-139 -656h321l-6 -39h-323z" />
    <glyph glyph-name="Ntilde" unicode="&#xd1;" horiz-adv-x="1116" 
d="M612 1524l-34 6q15 73 51 114.5t86 41.5q27 0 49 -18.5t34.5 -41t30.5 -41t37 -18.5q33 0 59 32.5t38 90.5l34 -7q-15 -72 -51.5 -113.5t-83.5 -41.5q-28 0 -50.5 18.5t-34.5 41t-30 41t-38 18.5q-33 0 -59 -32.5t-38 -90.5zM90 0h-45l305 1434h47l414 -1340l287 1340h45
l-305 -1434h-47l-414 1341z" />
    <glyph glyph-name="Ograve" unicode="&#xd2;" horiz-adv-x="1155" 
d="M809 1544l-31 -8l-114 197l51 20zM481 -16q-170 0 -267 120t-97 332q0 109 24 239.5t76 268t123.5 250t177.5 184.5t227 72q172 0 270.5 -119t98.5 -334q0 -76 -12.5 -165.5t-39 -187.5t-64 -192t-90.5 -179t-115.5 -149t-143 -102t-168.5 -38zM483 27q110 0 208 69.5
t164.5 177.5t116 239t72.5 255t23 225q0 194 -85 304t-239 110q-80 0 -153.5 -37t-130.5 -100t-106 -145.5t-83 -173.5t-58.5 -184t-36 -177.5t-11.5 -153.5q0 -188 84 -298.5t235 -110.5z" />
    <glyph glyph-name="Oacute" unicode="&#xd3;" horiz-adv-x="1155" 
d="M995 1733l-196 -197l-27 8l182 209zM481 -16q-170 0 -267 120t-97 332q0 109 24 239.5t76 268t123.5 250t177.5 184.5t227 72q172 0 270.5 -119t98.5 -334q0 -76 -12.5 -165.5t-39 -187.5t-64 -192t-90.5 -179t-115.5 -149t-143 -102t-168.5 -38zM483 27q110 0 208 69.5
t164.5 177.5t116 239t72.5 255t23 225q0 194 -85 304t-239 110q-80 0 -153.5 -37t-130.5 -100t-106 -145.5t-83 -173.5t-58.5 -184t-36 -177.5t-11.5 -153.5q0 -188 84 -298.5t235 -110.5z" />
    <glyph glyph-name="Ocircumflex" unicode="&#xd4;" horiz-adv-x="1155" 
d="M961 1513l-89 216l-190 -216l-41 11l211 237h59l95 -239zM745 1450q172 0 270.5 -119t98.5 -334q0 -76 -12.5 -165.5t-39 -187.5t-64 -192t-90.5 -179t-115.5 -149t-143 -102t-168.5 -38q-170 0 -267 120t-97 332q0 109 24 239.5t76 268t123.5 250t177.5 184.5t227 72z
M483 27q110 0 208 69.5t164.5 177.5t116 239t72.5 255t23 225q0 194 -85 304t-239 110q-80 0 -153.5 -37t-130.5 -100t-106 -145.5t-83 -173.5t-58.5 -184t-36 -177.5t-11.5 -153.5q0 -188 84 -298.5t235 -110.5z" />
    <glyph glyph-name="Otilde" unicode="&#xd5;" horiz-adv-x="1155" 
d="M631 1524l-35 6q15 73 51 114.5t86 41.5q27 0 49 -18.5t35 -41t31 -41t37 -18.5q33 0 58.5 32.5t37.5 90.5l35 -7q-15 -72 -51.5 -113.5t-83.5 -41.5q-28 0 -50.5 18.5t-35 41t-30.5 41t-38 18.5q-33 0 -58.5 -32.5t-37.5 -90.5zM481 -16q-170 0 -267 120t-97 332
q0 109 24 239.5t76 268t123.5 250t177.5 184.5t227 72q172 0 270.5 -119t98.5 -334q0 -76 -12.5 -165.5t-39 -187.5t-64 -192t-90.5 -179t-115.5 -149t-143 -102t-168.5 -38zM483 27q110 0 208 69.5t164.5 177.5t116 239t72.5 255t23 225q0 194 -85 304t-239 110
q-80 0 -153.5 -37t-130.5 -100t-106 -145.5t-83 -173.5t-58.5 -184t-36 -177.5t-11.5 -153.5q0 -188 84 -298.5t235 -110.5z" />
    <glyph glyph-name="Odieresis" unicode="&#xd6;" horiz-adv-x="1155" 
d="M713 1520h-49l41 194h49zM926 1520h-47l41 194h49zM481 -16q-170 0 -267 120t-97 332q0 109 24 239.5t76 268t123.5 250t177.5 184.5t227 72q172 0 270.5 -119t98.5 -334q0 -76 -12.5 -165.5t-39 -187.5t-64 -192t-90.5 -179t-115.5 -149t-143 -102t-168.5 -38zM483 27
q110 0 208 69.5t164.5 177.5t116 239t72.5 255t23 225q0 194 -85 304t-239 110q-80 0 -153.5 -37t-130.5 -100t-106 -145.5t-83 -173.5t-58.5 -184t-36 -177.5t-11.5 -153.5q0 -188 84 -298.5t235 -110.5z" />
    <glyph glyph-name="multiply" unicode="&#xd7;" horiz-adv-x="481" 
d="M279 723l229 158l-209 -185l141 -178l-34 -29l-142 179l-227 -160l207 186l-140 178l35 29z" />
    <glyph glyph-name="Oslash" unicode="&#xd8;" horiz-adv-x="1155" 
d="M1157 1438l29 -21l-125 -157q53 -106 53 -263q0 -76 -12.5 -165.5t-39 -187.5t-64 -192t-90.5 -179t-115.5 -149t-143 -102t-168.5 -38q-199 0 -293 157l-114 -145l-29 22l123 158q-51 108 -51 260q0 109 24 239.5t76 268t123.5 250t177.5 184.5t227 72q98 0 174.5 -40.5
t122.5 -117.5zM164 436q0 -129 39 -217l809 1032q-83 156 -269 156q-80 0 -153.5 -37t-130.5 -100t-106 -145.5t-83 -173.5t-58.5 -184t-36 -177.5t-11.5 -153.5zM1067 993q0 136 -39 224l-809 -1035q84 -155 264 -155q110 0 208 69.5t164.5 177.5t116 239t72.5 255t23 225z
" />
    <glyph glyph-name="Ugrave" unicode="&#xd9;" horiz-adv-x="1046" 
d="M756 1544l-31 -8l-115 197l52 20zM406 -16q-68 0 -122 17t-89.5 47.5t-59 70.5t-33 88t-8.5 98t12 103l218 1026h47l-219 -1024q-10 -59 -12 -114t15 -103.5t47 -85t83.5 -57.5t124.5 -21q156 0 272 102.5t154 278.5l217 1024h47l-219 -1024q-41 -196 -169 -311
t-306 -115z" />
    <glyph glyph-name="Uacute" unicode="&#xda;" horiz-adv-x="1046" 
d="M940 1733l-197 -197l-26 8l182 209zM406 -16q-68 0 -122 17t-89.5 47.5t-59 70.5t-33 88t-8.5 98t12 103l218 1026h47l-219 -1024q-10 -59 -12 -114t15 -103.5t47 -85t83.5 -57.5t124.5 -21q156 0 272 102.5t154 278.5l217 1024h47l-219 -1024q-41 -196 -169 -311
t-306 -115z" />
    <glyph glyph-name="Ucircumflex" unicode="&#xdb;" horiz-adv-x="1046" 
d="M907 1513l-88 216l-190 -216l-41 11l211 237h59l94 -239zM836 410l217 1024h47l-219 -1024q-41 -196 -169 -311t-306 -115q-68 0 -122 17t-89.5 47.5t-59 70.5t-33 88t-8.5 98t12 103l218 1026h47l-219 -1024q-10 -59 -12 -114t15 -103.5t47 -85t83.5 -57.5t124.5 -21
q156 0 272 102.5t154 278.5z" />
    <glyph glyph-name="Udieresis" unicode="&#xdc;" horiz-adv-x="1046" 
d="M657 1520h-49l41 194h49zM870 1520h-47l41 194h49zM406 -16q-68 0 -122 17t-89.5 47.5t-59 70.5t-33 88t-8.5 98t12 103l218 1026h47l-219 -1024q-10 -59 -12 -114t15 -103.5t47 -85t83.5 -57.5t124.5 -21q156 0 272 102.5t154 278.5l217 1024h47l-219 -1024
q-41 -196 -169 -311t-306 -115z" />
    <glyph glyph-name="Yacute" unicode="&#xdd;" horiz-adv-x="937" 
d="M846 1753l41 -20l-197 -197l-26 8zM1028 1434h53l-606 -963l-100 -471h-45l100 471l-197 963h48l184 -893z" />
    <glyph glyph-name="Thorn" unicode="&#xde;" horiz-adv-x="954" 
d="M342 1176h209q183 0 284 -84t101 -242q0 -65 -14 -131t-42.5 -132.5t-76 -123.5t-109.5 -101.5t-148.5 -70t-187.5 -25.5h-208l-58 -266h-47l305 1434h47zM158 309h207q108 0 197.5 32.5t148.5 86t100.5 123.5t59.5 143t18 146q0 139 -88 216t-256 77h-211z" />
    <glyph glyph-name="germandbls" unicode="&#xdf;" horiz-adv-x="962" 
d="M578 791q121 -11 189.5 -88t68.5 -205q0 -66 -15 -134.5t-48.5 -137.5t-81.5 -122t-120.5 -86.5t-158.5 -33.5q-125 0 -205 55l16 43q75 -57 191 -57q64 0 120 22t96 59.5t72 85t51 101t28.5 104.5t9.5 97q0 125 -69.5 194.5t-195.5 69.5q-13 0 -47.5 -3.5t-44.5 -6.5
l8 40q195 27 315 155.5t120 322.5q0 102 -52 160.5t-149 58.5q-128 0 -221.5 -94t-130.5 -263l-242 -1128h-43l240 1130q40 184 145.5 291t255.5 107q108 0 176 -67t68 -189q0 -71 -20.5 -142.5t-61 -138t-109 -120t-155.5 -80.5z" />
    <glyph glyph-name="agrave" unicode="&#xe0;" horiz-adv-x="970" 
d="M557 1489l100 -213l-30 -10l-121 200zM825 766l70 326h45l-233 -1092h-45l63 299q-72 -147 -176 -231t-213 -84q-126 0 -199.5 94t-73.5 256q0 83 19 183.5t60 205.5t96.5 191t137 141t173.5 55q66 0 117.5 -28.5t84 -78t51 -109t23.5 -128.5zM348 27q128 0 251 142
t175 361l4 17q13 64 15 133.5t-11 139t-40 124.5t-76.5 89t-114.5 34q-83 0 -156.5 -52t-124.5 -133t-88.5 -179.5t-55 -191.5t-17.5 -169q0 -144 62 -229.5t177 -85.5z" />
    <glyph glyph-name="aacute" unicode="&#xe1;" horiz-adv-x="970" 
d="M782 1489l41 -23l-207 -200l-24 10zM825 766l70 326h45l-233 -1092h-45l63 299q-72 -147 -176 -231t-213 -84q-126 0 -199.5 94t-73.5 256q0 83 19 183.5t60 205.5t96.5 191t137 141t173.5 55q66 0 117.5 -28.5t84 -78t51 -109t23.5 -128.5zM348 27q128 0 251 142
t175 361l4 17q13 64 15 133.5t-11 139t-40 124.5t-76.5 89t-114.5 34q-83 0 -156.5 -52t-124.5 -133t-88.5 -179.5t-55 -191.5t-17.5 -169q0 -144 62 -229.5t177 -85.5z" />
    <glyph glyph-name="acircumflex" unicode="&#xe2;" horiz-adv-x="970" 
d="M739 1217l-77 231l-175 -231l-36 10l190 254h53l86 -256zM825 766l70 326h45l-233 -1092h-45l63 299q-72 -147 -176 -231t-213 -84q-126 0 -199.5 94t-73.5 256q0 83 19 183.5t60 205.5t96.5 191t137 141t173.5 55q66 0 117.5 -28.5t84 -78t51 -109t23.5 -128.5zM348 27
q128 0 251 142t175 361l4 17q13 64 15 133.5t-11 139t-40 124.5t-76.5 89t-114.5 34q-83 0 -156.5 -52t-124.5 -133t-88.5 -179.5t-55 -191.5t-17.5 -169q0 -144 62 -229.5t177 -85.5z" />
    <glyph glyph-name="atilde" unicode="&#xe3;" horiz-adv-x="970" 
d="M561 1386q-33 0 -58.5 -32t-37.5 -90l-35 6q15 73 51 114t86 41q27 0 49 -18t35 -40t31 -40t37 -18q32 0 58 32t38 89l33 -5q-13 -73 -49.5 -115t-83.5 -42q-28 0 -50.5 18.5t-35 40.5t-30.5 40.5t-38 18.5zM825 766l70 326h45l-233 -1092h-45l63 299q-72 -147 -176 -231
t-213 -84q-126 0 -199.5 94t-73.5 256q0 83 19 183.5t60 205.5t96.5 191t137 141t173.5 55q66 0 117.5 -28.5t84 -78t51 -109t23.5 -128.5zM348 27q128 0 251 142t175 361l4 17q13 64 15 133.5t-11 139t-40 124.5t-76.5 89t-114.5 34q-83 0 -156.5 -52t-124.5 -133
t-88.5 -179.5t-55 -191.5t-17.5 -169q0 -144 62 -229.5t177 -85.5z" />
    <glyph glyph-name="adieresis" unicode="&#xe4;" horiz-adv-x="970" 
d="M522 1473h43l-43 -201h-43zM764 1473h43l-43 -201h-41zM825 766l70 326h45l-233 -1092h-45l63 299q-72 -147 -176 -231t-213 -84q-126 0 -199.5 94t-73.5 256q0 83 19 183.5t60 205.5t96.5 191t137 141t173.5 55q66 0 117.5 -28.5t84 -78t51 -109t23.5 -128.5zM348 27
q128 0 251 142t175 361l4 17q13 64 15 133.5t-11 139t-40 124.5t-76.5 89t-114.5 34q-83 0 -156.5 -52t-124.5 -133t-88.5 -179.5t-55 -191.5t-17.5 -169q0 -144 62 -229.5t177 -85.5z" />
    <glyph glyph-name="aring" unicode="&#xe5;" horiz-adv-x="970" 
d="M610 1202q-66 0 -96.5 45t-17.5 107q13 61 62.5 106t115.5 45t96 -44.5t16 -106.5q-13 -62 -61.5 -107t-114.5 -45zM530 1354q-10 -48 12.5 -82.5t73.5 -34.5t88.5 35t47.5 82q10 48 -12 82t-74 34t-89 -34.5t-47 -81.5zM825 766l70 326h45l-233 -1092h-45l63 299
q-72 -147 -176 -231t-213 -84q-126 0 -199.5 94t-73.5 256q0 83 19 183.5t60 205.5t96.5 191t137 141t173.5 55q66 0 117.5 -28.5t84 -78t51 -109t23.5 -128.5zM348 27q128 0 251 142t175 361l4 17q13 64 15 133.5t-11 139t-40 124.5t-76.5 89t-114.5 34q-83 0 -156.5 -52
t-124.5 -133t-88.5 -179.5t-55 -191.5t-17.5 -169q0 -144 62 -229.5t177 -85.5z" />
    <glyph glyph-name="ae" unicode="&#xe6;" horiz-adv-x="1427" 
d="M1118 1110q123 0 193.5 -77.5t70.5 -215.5q0 -124 -51 -280h-641q-22 -110 -22 -193q0 -145 65.5 -231t188.5 -86q135 0 264 75l2 -43q-132 -75 -273 -75q-136 0 -213 94t-79 258q-60 -144 -172 -248t-244 -104q-97 0 -151 60t-54 165q0 54 12 109t40.5 111t70 99
t107.5 70t147 27q160 0 280 -27q4 17 9 29l20 106q72 334 -196 334q-137 0 -250 -72l-6 39q128 76 262 76q77 0 129 -21.5t78.5 -62t35.5 -89.5t4 -112q68 129 163 207t210 78zM700 578h600q37 132 37 235q0 118 -58.5 186t-164.5 68q-77 0 -145.5 -42t-119.5 -113.5
t-88.5 -155.5t-60.5 -178zM221 27q90 0 177 66.5t147.5 167.5t87.5 214q4 24 16 80q-104 29 -270 29q-72 0 -130 -24t-94.5 -62t-61 -87.5t-34.5 -97.5t-10 -96q0 -190 172 -190z" />
    <glyph glyph-name="ccedilla" unicode="&#xe7;" horiz-adv-x="778" 
d="M586 1065q-76 0 -144.5 -35.5t-119.5 -94.5t-92.5 -134t-67 -156.5t-39.5 -159.5t-14 -145q0 -143 65.5 -228t187.5 -85q119 0 248 75l4 -43q-123 -72 -245 -75l-35 -68q74 -6 112 -44t25 -99q-11 -59 -66 -99.5t-143 -40.5q-66 0 -117 19l17 35q38 -19 104 -19
q70 0 113 31t51 76q12 53 -29 82.5t-118 31.5l49 95q-126 9 -197.5 102.5t-71.5 247.5q0 90 20.5 192.5t64.5 206.5t104.5 187.5t149 136.5t188.5 53q125 0 231 -70l-20 -39q-104 64 -215 64z" />
    <glyph glyph-name="egrave" unicode="&#xe8;" horiz-adv-x="870" 
d="M539 1489l100 -213l-31 -10l-121 200zM559 1110q123 0 194.5 -77.5t71.5 -215.5q0 -136 -53 -280h-639q-22 -110 -22 -193q0 -146 65 -231.5t189 -85.5q135 0 264 75v-43q-129 -75 -271 -75q-137 0 -214.5 95.5t-77.5 260.5q0 75 15 159.5t42.5 171t71 165.5t96.5 140
t122.5 97.5t145.5 36.5zM143 578h598q39 128 39 235q0 118 -58.5 186t-164.5 68q-77 0 -145.5 -42t-119.5 -113.5t-88.5 -155.5t-60.5 -178z" />
    <glyph glyph-name="eacute" unicode="&#xe9;" horiz-adv-x="870" 
d="M766 1489l41 -23l-207 -200l-25 10zM559 1110q123 0 194.5 -77.5t71.5 -215.5q0 -136 -53 -280h-639q-22 -110 -22 -193q0 -146 65 -231.5t189 -85.5q135 0 264 75v-43q-129 -75 -271 -75q-137 0 -214.5 95.5t-77.5 260.5q0 75 15 159.5t42.5 171t71 165.5t96.5 140
t122.5 97.5t145.5 36.5zM143 578h598q39 128 39 235q0 118 -58.5 186t-164.5 68q-77 0 -145.5 -42t-119.5 -113.5t-88.5 -155.5t-60.5 -178z" />
    <glyph glyph-name="ecircumflex" unicode="&#xea;" horiz-adv-x="870" 
d="M723 1217l-78 231l-174 -231l-37 10l191 254h53l86 -256zM559 1110q123 0 194.5 -77.5t71.5 -215.5q0 -136 -53 -280h-639q-22 -110 -22 -193q0 -146 65 -231.5t189 -85.5q135 0 264 75v-43q-129 -75 -271 -75q-137 0 -214.5 95.5t-77.5 260.5q0 75 15 159.5t42.5 171
t71 165.5t96.5 140t122.5 97.5t145.5 36.5zM143 578h598q39 128 39 235q0 118 -58.5 186t-164.5 68q-77 0 -145.5 -42t-119.5 -113.5t-88.5 -155.5t-60.5 -178z" />
    <glyph glyph-name="edieresis" unicode="&#xeb;" horiz-adv-x="870" 
d="M506 1473h43l-43 -201h-43zM748 1473h43l-43 -201h-41zM559 1110q123 0 194.5 -77.5t71.5 -215.5q0 -136 -53 -280h-639q-22 -110 -22 -193q0 -146 65 -231.5t189 -85.5q135 0 264 75v-43q-129 -75 -271 -75q-137 0 -214.5 95.5t-77.5 260.5q0 75 15 159.5t42.5 171
t71 165.5t96.5 140t122.5 97.5t145.5 36.5zM143 578h598q39 128 39 235q0 118 -58.5 186t-164.5 68q-77 0 -145.5 -42t-119.5 -113.5t-88.5 -155.5t-60.5 -178z" />
    <glyph glyph-name="igrave" unicode="&#xec;" horiz-adv-x="339" 
d="M358 1276l-30 -10l-121 200l51 23zM76 0h-45l233 1092h45z" />
    <glyph glyph-name="iacute" unicode="&#xed;" horiz-adv-x="339" 
d="M524 1466l-207 -200l-24 10l190 213zM76 0h-45l233 1092h45z" />
    <glyph glyph-name="icircumflex" unicode="&#xee;" horiz-adv-x="339" 
d="M395 1481l86 -256l-41 -8l-78 231l-174 -231l-36 10l190 254h53zM76 0h-45l233 1092h45z" />
    <glyph glyph-name="idieresis" unicode="&#xef;" horiz-adv-x="339" 
d="M223 1272h-43l43 201h43zM465 1272h-41l41 201h43zM76 0h-45l233 1092h45z" />
    <glyph glyph-name="eth" unicode="&#xf0;" horiz-adv-x="921" 
d="M913 1423l11 -28l-138 -70q86 -135 86 -332q0 -107 -21 -236.5t-67.5 -266.5t-110.5 -249.5t-159 -184.5t-205 -72q-122 0 -190 80.5t-68 224.5q0 75 17.5 163t55 180t89 167t126.5 122.5t161 47.5q85 0 144.5 -56.5t86.5 -144.5t31 -203q69 233 65 439q-6 184 -79 301
l-199 -101l-12 29l194 98q-58 78 -137 111.5t-154 23.5l23 39q75 10 159.5 -29t147.5 -124zM313 25q70 0 133.5 34t115 96t92.5 137.5t75 168.5q2 97 -9 178.5t-37 147.5t-73.5 103.5t-111.5 37.5q-75 0 -142 -45.5t-113 -116t-80.5 -156.5t-50.5 -167.5t-16 -147.5
q0 -126 56.5 -198t160.5 -72z" />
    <glyph glyph-name="ntilde" unicode="&#xf1;" horiz-adv-x="917" 
d="M571 1386q-33 0 -58.5 -32t-37.5 -90l-35 6q15 73 51.5 114t86.5 41q27 0 49 -18t34.5 -40t30.5 -40t37 -18q32 0 58 32t38 89l33 -5q-13 -73 -49.5 -115t-83.5 -42q-28 0 -50.5 18.5t-35 40.5t-30.5 40.5t-38 18.5zM625 1110q134 0 187.5 -99t14.5 -284l-155 -727h-45
l155 727q35 166 -10.5 253t-163.5 87q-115 0 -221 -108.5t-174 -313.5l-137 -645h-45l233 1092h45l-59 -283q64 143 163.5 222t211.5 79z" />
    <glyph glyph-name="ograve" unicode="&#xf2;" horiz-adv-x="929" 
d="M653 1276l-30 -10l-121 200l51 23zM365 -16q-137 0 -217 96.5t-80 263.5q0 71 13.5 152.5t39.5 168t68.5 165.5t95.5 142t125.5 100.5t154.5 37.5q137 0 218 -96.5t81 -263.5q0 -86 -19 -186t-60.5 -203t-98.5 -187t-141 -137t-180 -53zM373 27q83 0 157.5 50.5
t125.5 130t89 176t56 189t18 168.5q0 148 -69 236t-191 88q-72 0 -136.5 -35.5t-112 -95t-86 -134t-62.5 -154.5t-36.5 -155.5t-12.5 -138.5q0 -149 67 -237t193 -88z" />
    <glyph glyph-name="oacute" unicode="&#xf3;" horiz-adv-x="929" 
d="M819 1466l-207 -200l-24 10l190 213zM365 -16q-137 0 -217 96.5t-80 263.5q0 71 13.5 152.5t39.5 168t68.5 165.5t95.5 142t125.5 100.5t154.5 37.5q137 0 218 -96.5t81 -263.5q0 -86 -19 -186t-60.5 -203t-98.5 -187t-141 -137t-180 -53zM373 27q83 0 157.5 50.5
t125.5 130t89 176t56 189t18 168.5q0 148 -69 236t-191 88q-72 0 -136.5 -35.5t-112 -95t-86 -134t-62.5 -154.5t-36.5 -155.5t-12.5 -138.5q0 -149 67 -237t193 -88z" />
    <glyph glyph-name="ocircumflex" unicode="&#xf4;" horiz-adv-x="929" 
d="M735 1217l-78 231l-174 -231l-37 10l191 254h53l86 -256zM565 1110q137 0 218 -96.5t81 -263.5q0 -86 -19 -186t-60.5 -203t-98.5 -187t-141 -137t-180 -53q-137 0 -217 96.5t-80 263.5q0 71 13.5 152.5t39.5 168t68.5 165.5t95.5 142t125.5 100.5t154.5 37.5zM373 27
q83 0 157.5 50.5t125.5 130t89 176t56 189t18 168.5q0 148 -69 236t-191 88q-72 0 -136.5 -35.5t-112 -95t-86 -134t-62.5 -154.5t-36.5 -155.5t-12.5 -138.5q0 -149 67 -237t193 -88z" />
    <glyph glyph-name="otilde" unicode="&#xf5;" horiz-adv-x="929" 
d="M461 1264l-35 6q15 73 51 114t86 41q27 0 49 -18t35 -40t31 -40t37 -18q32 0 58 32t38 89l33 -5q-13 -73 -49.5 -115t-83.5 -42q-28 0 -50.5 18.5t-35 40.5t-30.5 40.5t-38 18.5q-33 0 -58.5 -32t-37.5 -90zM365 -16q-137 0 -217 96.5t-80 263.5q0 71 13.5 152.5
t39.5 168t68.5 165.5t95.5 142t125.5 100.5t154.5 37.5q137 0 218 -96.5t81 -263.5q0 -86 -19 -186t-60.5 -203t-98.5 -187t-141 -137t-180 -53zM373 27q83 0 157.5 50.5t125.5 130t89 176t56 189t18 168.5q0 148 -69 236t-191 88q-72 0 -136.5 -35.5t-112 -95t-86 -134
t-62.5 -154.5t-36.5 -155.5t-12.5 -138.5q0 -149 67 -237t193 -88z" />
    <glyph glyph-name="odieresis" unicode="&#xf6;" horiz-adv-x="929" 
d="M520 1272h-43l43 201h43zM762 1272h-41l41 201h43zM365 -16q-137 0 -217 96.5t-80 263.5q0 71 13.5 152.5t39.5 168t68.5 165.5t95.5 142t125.5 100.5t154.5 37.5q137 0 218 -96.5t81 -263.5q0 -86 -19 -186t-60.5 -203t-98.5 -187t-141 -137t-180 -53zM373 27
q83 0 157.5 50.5t125.5 130t89 176t56 189t18 168.5q0 148 -69 236t-191 88q-72 0 -136.5 -35.5t-112 -95t-86 -134t-62.5 -154.5t-36.5 -155.5t-12.5 -138.5q0 -149 67 -237t193 -88z" />
    <glyph glyph-name="divide" unicode="&#xf7;" horiz-adv-x="612" 
d="M465 1022l-23 -102h-104l24 102h103zM614 731l-8 -39h-538l8 39h538zM231 414l23 102h104l-24 -102h-103z" />
    <glyph glyph-name="oslash" unicode="&#xf8;" horiz-adv-x="929" 
d="M907 1108l27 -23l-111 -135q41 -80 41 -200q0 -86 -19 -186t-60.5 -203t-98.5 -187t-141 -137t-180 -53q-158 0 -238 125l-100 -123l-29 22l111 133q-41 84 -41 203q0 71 13.5 152.5t39.5 168t68.5 165.5t95.5 142t125.5 100.5t154.5 37.5q161 0 240 -127zM113 352
q0 -94 28 -170l631 762q-68 121 -213 121q-72 0 -136.5 -35.5t-112 -95t-86 -134t-62.5 -154.5t-36.5 -155.5t-12.5 -138.5zM819 741q0 95 -31 168l-628 -764q65 -118 213 -118q83 0 157.5 50.5t125.5 130t89 176t56 189t18 168.5z" />
    <glyph glyph-name="ugrave" unicode="&#xf9;" horiz-adv-x="919" 
d="M543 1489l100 -213l-31 -10l-120 200zM705 446l137 646h45l-234 -1092h-45l60 283q-64 -143 -163.5 -222t-211.5 -79q-134 0 -188 99t-15 284l156 727h45l-156 -727q-35 -166 10.5 -253t163.5 -87q115 0 221.5 108t174.5 313z" />
    <glyph glyph-name="uacute" unicode="&#xfa;" horiz-adv-x="919" 
d="M768 1489l41 -23l-207 -200l-24 10zM705 446l137 646h45l-234 -1092h-45l60 283q-64 -143 -163.5 -222t-211.5 -79q-134 0 -188 99t-15 284l156 727h45l-156 -727q-35 -166 10.5 -253t163.5 -87q115 0 221.5 108t174.5 313z" />
    <glyph glyph-name="ucircumflex" unicode="&#xfb;" horiz-adv-x="919" 
d="M725 1217l-78 231l-174 -231l-37 10l191 254h53l86 -256zM705 446l137 646h45l-234 -1092h-45l60 283q-64 -143 -163.5 -222t-211.5 -79q-134 0 -188 99t-15 284l156 727h45l-156 -727q-35 -166 10.5 -253t163.5 -87q115 0 221.5 108t174.5 313z" />
    <glyph glyph-name="udieresis" unicode="&#xfc;" horiz-adv-x="919" 
d="M510 1473h43l-43 -201h-43zM752 1473h43l-43 -201h-41zM705 446l137 646h45l-234 -1092h-45l60 283q-64 -143 -163.5 -222t-211.5 -79q-134 0 -188 99t-15 284l156 727h45l-156 -727q-35 -166 10.5 -253t163.5 -87q115 0 221.5 108t174.5 313z" />
    <glyph glyph-name="yacute" unicode="&#xfd;" horiz-adv-x="874" 
d="M752 1489l41 -23l-207 -200l-25 10zM332 61l551 1031h49l-586 -1092l-186 -350h-49l184 346l-119 1096h45z" />
    <glyph glyph-name="thorn" unicode="&#xfe;" horiz-adv-x="983" 
d="M8 -350h-43l402 1861h45l-154 -710q68 141 170 225t217 84q126 0 199.5 -93.5t73.5 -260.5q0 -84 -19.5 -184.5t-60.5 -204.5t-97 -189.5t-137.5 -139.5t-173.5 -54q-126 0 -196 98t-78 250zM430 27q82 0 155.5 51.5t124 132t88 178.5t55 191.5t17.5 169.5q0 149 -62 233
t-175 84q-91 0 -176 -67.5t-143 -170.5t-93 -225.5t-35 -232.5q0 -96 26.5 -172.5t83 -124t134.5 -47.5z" />
    <glyph glyph-name="ydieresis" unicode="&#xff;" horiz-adv-x="874" 
d="M492 1473h43l-43 -201h-43zM733 1473h43l-43 -201h-41zM332 61l551 1031h49l-586 -1092l-186 -350h-49l184 346l-119 1096h45z" />
    <glyph glyph-name="Amacron" unicode="&#x100;" horiz-adv-x="1052" 
d="M541 1585l8 37h412l-11 -37h-409zM-61 0l745 1434h59l136 -1434h-45l-37 397h-600l-207 -397h-51zM702 1376l-485 -936h576z" />
    <glyph glyph-name="amacron" unicode="&#x101;" horiz-adv-x="970" 
d="M432 1335h410l-8 -37h-412zM825 766l70 326h45l-233 -1092h-45l63 299q-72 -147 -176 -231t-213 -84q-126 0 -199.5 94t-73.5 256q0 83 19 183.5t60 205.5t96.5 191t137 141t173.5 55q66 0 117.5 -28.5t84 -78t51 -109t23.5 -128.5zM348 27q128 0 251 142t175 361l4 17
q13 64 15 133.5t-11 139t-40 124.5t-76.5 89t-114.5 34q-83 0 -156.5 -52t-124.5 -133t-88.5 -179.5t-55 -191.5t-17.5 -169q0 -144 62 -229.5t177 -85.5z" />
    <glyph glyph-name="Abreve" unicode="&#x102;" horiz-adv-x="1052" 
d="M723 1495q-77 0 -107.5 51.5t-9.5 155.5h39q-36 -172 86 -172q120 0 160 172h39q-22 -100 -75 -153.5t-132 -53.5zM-61 0l745 1434h59l136 -1434h-45l-37 397h-600l-207 -397h-51zM702 1376l-485 -936h576z" />
    <glyph glyph-name="abreve" unicode="&#x103;" horiz-adv-x="970" 
d="M616 1235q-159 0 -116 209h39q-19 -84 3 -128t83 -44q120 0 157 172h39q-20 -100 -73 -154.5t-132 -54.5zM825 766l70 326h45l-233 -1092h-45l63 299q-72 -147 -176 -231t-213 -84q-126 0 -199.5 94t-73.5 256q0 83 19 183.5t60 205.5t96.5 191t137 141t173.5 55
q66 0 117.5 -28.5t84 -78t51 -109t23.5 -128.5zM348 27q128 0 251 142t175 361l4 17q13 64 15 133.5t-11 139t-40 124.5t-76.5 89t-114.5 34q-83 0 -156.5 -52t-124.5 -133t-88.5 -179.5t-55 -191.5t-17.5 -169q0 -144 62 -229.5t177 -85.5z" />
    <glyph glyph-name="Aogonek" unicode="&#x104;" horiz-adv-x="1052" 
d="M700 -207q-14 -65 25 -93t127 -13l-4 -35q-112 -18 -161.5 18.5t-31.5 114.5q25 114 179 217l-37 395h-600l-207 -397h-51l745 1434h59l136 -1434q-77 -49 -123.5 -104t-55.5 -103zM702 1376l-485 -936h576z" />
    <glyph glyph-name="aogonek" unicode="&#x105;" horiz-adv-x="970" 
d="M940 1092l-233 -1092q-77 -49 -123.5 -104t-55.5 -103q-14 -65 25 -93t127 -13l-4 -35q-112 -18 -161.5 18.5t-31.5 114.5q25 115 179 217l63 297q-72 -147 -176 -231t-213 -84q-126 0 -199.5 94t-73.5 256q0 83 19 183.5t60 205.5t96.5 191t137 141t173.5 55
q66 0 117.5 -28.5t84 -78t51 -109t23.5 -128.5l70 326h45zM348 27q128 0 251 142t175 361l4 17q13 64 15 133.5t-11 139t-40 124.5t-76.5 89t-114.5 34q-83 0 -156.5 -52t-124.5 -133t-88.5 -179.5t-55 -191.5t-17.5 -169q0 -144 62 -229.5t177 -85.5z" />
    <glyph glyph-name="Cacute" unicode="&#x106;" horiz-adv-x="970" 
d="M1006 1731l-197 -197l-27 8l183 209zM477 -16q-171 0 -268.5 115t-97.5 323q0 76 13.5 167t41 190t66.5 194.5t95 182t120.5 152t148 104t174.5 38.5q160 0 293 -92l-21 -41q-122 90 -278 90q-81 0 -156 -37t-134.5 -100t-111 -146t-88.5 -174.5t-63.5 -186t-39.5 -181
t-13 -158.5q0 -184 83 -289.5t238 -105.5q161 0 309 90l3 -45q-155 -90 -314 -90z" />
    <glyph glyph-name="cacute" unicode="&#x107;" horiz-adv-x="778" 
d="M825 1464l-207 -200l-24 10l190 213zM356 -16q-136 0 -214.5 94t-78.5 256q0 90 20.5 192.5t64.5 206.5t104.5 187.5t149 136.5t188.5 53q125 0 231 -70l-20 -39q-104 64 -215 64q-76 0 -144.5 -35.5t-119.5 -94.5t-92.5 -134t-67 -156.5t-39.5 -159.5t-14 -145
q0 -143 65.5 -228t187.5 -85q119 0 248 75l4 -43q-129 -75 -258 -75z" />
    <glyph glyph-name="Ccircumflex" unicode="&#x108;" horiz-adv-x="970" 
d="M971 1511l-88 215l-191 -215l-41 11l211 237h60l94 -239zM764 1407q-81 0 -156 -37t-134.5 -100t-111 -146t-88.5 -174.5t-63.5 -186t-39.5 -181t-13 -158.5q0 -184 83 -289.5t238 -105.5q161 0 309 90l3 -45q-155 -90 -314 -90q-171 0 -268.5 115t-97.5 323
q0 76 13.5 167t41 190t66.5 194.5t95 182t120.5 152t148 104t174.5 38.5q160 0 293 -92l-21 -41q-122 90 -278 90z" />
    <glyph glyph-name="ccircumflex" unicode="&#x109;" horiz-adv-x="778" 
d="M741 1214l-77 232l-175 -232l-36 11l190 254h53l86 -256zM586 1065q-76 0 -144.5 -35.5t-119.5 -94.5t-92.5 -134t-67 -156.5t-39.5 -159.5t-14 -145q0 -143 65.5 -228t187.5 -85q119 0 248 75l4 -43q-129 -75 -258 -75q-136 0 -214.5 94t-78.5 256q0 90 20.5 192.5
t64.5 206.5t104.5 187.5t149 136.5t188.5 53q125 0 231 -70l-20 -39q-104 64 -215 64z" />
    <glyph glyph-name="Cdotaccent" unicode="&#x10a;" horiz-adv-x="970" 
d="M831 1532h-49l43 194h49zM477 -16q-171 0 -268.5 115t-97.5 323q0 76 13.5 167t41 190t66.5 194.5t95 182t120.5 152t148 104t174.5 38.5q160 0 293 -92l-21 -41q-122 90 -278 90q-81 0 -156 -37t-134.5 -100t-111 -146t-88.5 -174.5t-63.5 -186t-39.5 -181t-13 -158.5
q0 -184 83 -289.5t238 -105.5q161 0 309 90l3 -45q-155 -90 -314 -90z" />
    <glyph glyph-name="cdotaccent" unicode="&#x10b;" horiz-adv-x="778" 
d="M643 1251h-49l43 201h49zM356 -16q-136 0 -214.5 94t-78.5 256q0 90 20.5 192.5t64.5 206.5t104.5 187.5t149 136.5t188.5 53q125 0 231 -70l-20 -39q-104 64 -215 64q-76 0 -144.5 -35.5t-119.5 -94.5t-92.5 -134t-67 -156.5t-39.5 -159.5t-14 -145q0 -143 65.5 -228
t187.5 -85q119 0 248 75l4 -43q-129 -75 -258 -75z" />
    <glyph glyph-name="Ccaron" unicode="&#x10c;" horiz-adv-x="970" 
d="M768 1528l-104 219l41 10l100 -201l182 201l39 -10l-199 -219h-59zM764 1407q-81 0 -156 -37t-134.5 -100t-111 -146t-88.5 -174.5t-63.5 -186t-39.5 -181t-13 -158.5q0 -184 83 -289.5t238 -105.5q161 0 309 90l3 -45q-155 -90 -314 -90q-171 0 -268.5 115t-97.5 323
q0 76 13.5 167t41 190t66.5 194.5t95 182t120.5 152t148 104t174.5 38.5q160 0 293 -92l-21 -41q-122 90 -278 90z" />
    <glyph glyph-name="ccaron" unicode="&#x10d;" horiz-adv-x="778" 
d="M584 1219l-78 256l39 10l76 -232l174 232l34 -10l-188 -256h-57zM63 334q0 90 20.5 192.5t64.5 206.5t104.5 187.5t149 136.5t188.5 53q125 0 231 -70l-20 -39q-104 64 -215 64q-76 0 -144.5 -35.5t-119.5 -94.5t-92.5 -134t-67 -156.5t-39.5 -159.5t-14 -145
q0 -143 65.5 -228t187.5 -85q119 0 248 75l4 -43q-129 -75 -258 -75q-136 0 -214.5 94t-78.5 256z" />
    <glyph glyph-name="Dcaron" unicode="&#x10e;" horiz-adv-x="1130" 
d="M616 1530l-104 219l41 10l100 -200l183 200l38 -10l-198 -219h-60zM350 1434h258q226 0 349.5 -120.5t123.5 -344.5q0 -106 -20.5 -216t-60.5 -219t-104.5 -205t-146.5 -169.5t-194 -116.5t-240 -43h-270zM102 43h213q104 0 196.5 31t163.5 85t131 127.5t101 156.5
t69.5 173t42 177.5t13.5 169.5q0 208 -109 319t-315 111h-219z" />
    <glyph glyph-name="dcaron" unicode="&#x10f;" horiz-adv-x="978" 
d="M336 -16q-127 0 -198.5 95t-71.5 255q0 85 19.5 186t60 205.5t96.5 190t137 140t172 54.5q119 0 193 -92t83 -250l158 743h45l-321 -1511h-45l61 293q-70 -141 -172.5 -225t-216.5 -84zM1094 1163l73 348l45 -2l-86 -346h-32zM350 27q140 0 259.5 144t164.5 359
q22 101 16.5 197.5t-29.5 172t-79 121.5t-131 46q-82 0 -155 -52t-123.5 -133t-88 -179t-55.5 -191.5t-18 -169.5q0 -148 62.5 -231.5t176.5 -83.5z" />
    <glyph glyph-name="Dcroat" unicode="&#x110;" horiz-adv-x="1130" 
d="M350 1434h258q226 0 349.5 -120.5t123.5 -344.5q0 -106 -20.5 -216t-60.5 -219t-104.5 -205t-146.5 -169.5t-194 -116.5t-240 -43h-270l150 698h-111l6 39h113zM102 43h213q104 0 196.5 31t163.5 85t131 127.5t101 156.5t69.5 173t42 177.5t13.5 169.5q0 208 -109 319
t-315 111h-219l-139 -656h321l-6 -39h-323z" />
    <glyph glyph-name="dcroat" unicode="&#x111;" horiz-adv-x="978" 
d="M985 1298h121l-6 -38h-123l-268 -1260h-45l61 293q-70 -141 -172.5 -225t-216.5 -84q-127 0 -198.5 95t-71.5 255q0 85 19.5 186t60 205.5t96.5 190t137 140t172 54.5q119 0 193 -92t83 -250l105 492h-256l8 38h256l45 213h45zM774 530q22 101 16.5 197.5t-29.5 172
t-79 121.5t-131 46q-82 0 -155 -52t-123.5 -133t-88 -179t-55.5 -191.5t-18 -169.5q0 -148 62.5 -231.5t176.5 -83.5q140 0 259.5 144t164.5 359z" />
    <glyph glyph-name="Emacron" unicode="&#x112;" horiz-adv-x="937" 
d="M518 1622h412l-10 -37h-410zM1024 1434l-8 -43h-627l-137 -641h547l-8 -43h-547l-142 -664h639l-10 -43h-686l305 1434h674z" />
    <glyph glyph-name="emacron" unicode="&#x113;" horiz-adv-x="870" 
d="M416 1335h409l-8 -37h-411zM559 1110q123 0 194.5 -77.5t71.5 -215.5q0 -136 -53 -280h-639q-22 -110 -22 -193q0 -146 65 -231.5t189 -85.5q135 0 264 75v-43q-129 -75 -271 -75q-137 0 -214.5 95.5t-77.5 260.5q0 75 15 159.5t42.5 171t71 165.5t96.5 140t122.5 97.5
t145.5 36.5zM143 578h598q39 128 39 235q0 118 -58.5 186t-164.5 68q-77 0 -145.5 -42t-119.5 -113.5t-88.5 -155.5t-60.5 -178z" />
    <glyph glyph-name="Ebreve" unicode="&#x114;" horiz-adv-x="937" 
d="M692 1495q-77 0 -107.5 51.5t-9.5 155.5h39q-36 -172 86 -172q120 0 160 172h39q-22 -100 -75 -153.5t-132 -53.5zM1024 1434l-8 -43h-627l-137 -641h547l-8 -43h-547l-142 -664h639l-10 -43h-686l305 1434h674z" />
    <glyph glyph-name="ebreve" unicode="&#x115;" horiz-adv-x="870" 
d="M598 1235q-78 0 -108 52.5t-9 156.5h39q-19 -84 3 -128t83 -44q121 0 158 172h39q-20 -100 -73 -154.5t-132 -54.5zM559 1110q123 0 194.5 -77.5t71.5 -215.5q0 -136 -53 -280h-639q-22 -110 -22 -193q0 -146 65 -231.5t189 -85.5q135 0 264 75v-43q-129 -75 -271 -75
q-137 0 -214.5 95.5t-77.5 260.5q0 75 15 159.5t42.5 171t71 165.5t96.5 140t122.5 97.5t145.5 36.5zM143 578h598q39 128 39 235q0 118 -58.5 186t-164.5 68q-77 0 -145.5 -42t-119.5 -113.5t-88.5 -155.5t-60.5 -178z" />
    <glyph glyph-name="Edotaccent" unicode="&#x116;" horiz-adv-x="937" 
d="M731 1729h49l-43 -195h-49zM1024 1434l-8 -43h-627l-137 -641h547l-8 -43h-547l-142 -664h639l-10 -43h-686l305 1434h674z" />
    <glyph glyph-name="edotaccent" unicode="&#x117;" horiz-adv-x="870" 
d="M618 1454h50l-43 -201h-50zM559 1110q123 0 194.5 -77.5t71.5 -215.5q0 -136 -53 -280h-639q-22 -110 -22 -193q0 -146 65 -231.5t189 -85.5q135 0 264 75v-43q-129 -75 -271 -75q-137 0 -214.5 95.5t-77.5 260.5q0 75 15 159.5t42.5 171t71 165.5t96.5 140t122.5 97.5
t145.5 36.5zM143 578h598q39 128 39 235q0 118 -58.5 186t-164.5 68q-77 0 -145.5 -42t-119.5 -113.5t-88.5 -155.5t-60.5 -178z" />
    <glyph glyph-name="Eogonek" unicode="&#x118;" horiz-adv-x="937" 
d="M1024 1434l-8 -43h-627l-137 -641h547l-8 -43h-547l-142 -664h639l-10 -43h2q-77 -49 -123 -104t-55 -103q-14 -65 25 -93t127 -13l-5 -35q-111 -18 -160.5 18.5t-31.5 114.5q22 113 174 215h-639l305 1434h674z" />
    <glyph glyph-name="eogonek" unicode="&#x119;" horiz-adv-x="870" 
d="M559 1110q123 0 194.5 -77.5t71.5 -215.5q0 -136 -53 -280h-639q-22 -110 -22 -193q0 -146 65 -231.5t189 -85.5q135 0 264 75v-43q-19 -10 -25 -14h2q-77 -49 -123 -104t-55 -103q-14 -65 25 -93t127 -13l-5 -35q-111 -18 -160.5 18.5t-31.5 114.5q19 91 119 174
q-64 -20 -144 -20q-137 0 -214.5 95.5t-77.5 260.5q0 75 15 159.5t42.5 171t71 165.5t96.5 140t122.5 97.5t145.5 36.5zM143 578h598q39 128 39 235q0 118 -58.5 186t-164.5 68q-77 0 -145.5 -42t-119.5 -113.5t-88.5 -155.5t-60.5 -178z" />
    <glyph glyph-name="Ecaron" unicode="&#x11a;" horiz-adv-x="937" 
d="M674 1530l-105 219l41 10l101 -200l182 200l39 -10l-199 -219h-59zM1024 1434l-8 -43h-627l-137 -641h547l-8 -43h-547l-142 -664h639l-10 -43h-686l305 1434h674z" />
    <glyph glyph-name="ecaron" unicode="&#x11b;" horiz-adv-x="870" 
d="M565 1221l-78 256l39 10l76 -232l174 232l35 -10l-188 -256h-58zM559 1110q123 0 194.5 -77.5t71.5 -215.5q0 -136 -53 -280h-639q-22 -110 -22 -193q0 -146 65 -231.5t189 -85.5q135 0 264 75v-43q-129 -75 -271 -75q-137 0 -214.5 95.5t-77.5 260.5q0 75 15 159.5
t42.5 171t71 165.5t96.5 140t122.5 97.5t145.5 36.5zM143 578h598q39 128 39 235q0 118 -58.5 186t-164.5 68q-77 0 -145.5 -42t-119.5 -113.5t-88.5 -155.5t-60.5 -178z" />
    <glyph glyph-name="Gcircumflex" unicode="&#x11c;" horiz-adv-x="1069" 
d="M956 1513l-88 216l-190 -216l-41 11l211 237h59l94 -239zM762 1407q-111 0 -210 -67t-168 -173t-120 -235.5t-75.5 -256.5t-24.5 -235q0 -194 85 -302.5t238 -108.5q164 0 330 116l115 525h-191l11 43h233l-127 -596q-188 -133 -375 -133q-172 0 -269 119t-97 337
q0 81 13.5 173.5t41.5 190t67 190.5t94 176t119 145t146 98.5t170 36.5q172 0 301 -92l-20 -41q-121 90 -287 90z" />
    <glyph glyph-name="gcircumflex" unicode="&#x11d;" horiz-adv-x="970" 
d="M748 1217l-78 231l-174 -231l-37 10l190 254h53l86 -256zM827 778l66 314h45l-203 -961q-50 -231 -176.5 -364.5t-298.5 -133.5q-150 0 -256 93l23 41q98 -91 237 -91q153 0 266.5 121.5t157.5 331.5l45 197q-77 -169 -183.5 -253.5t-225.5 -84.5q-126 0 -194.5 84.5
t-68.5 238.5q0 130 37 270t100 258t159.5 194.5t203.5 76.5q117 0 187 -89.5t79 -242.5zM342 31q74 0 145.5 45.5t126.5 120.5t97.5 167.5t65 190.5t22.5 184q0 148 -65 238t-173 90q-66 0 -128.5 -33.5t-111 -90.5t-89 -132t-67.5 -158t-41.5 -167.5t-14.5 -161.5
q0 -140 60.5 -216.5t172.5 -76.5z" />
    <glyph glyph-name="Gbreve" unicode="&#x11e;" horiz-adv-x="1069" 
d="M770 1495q-77 0 -107.5 51.5t-9.5 155.5h39q-36 -172 86 -172q120 0 160 172h39q-22 -100 -75 -153.5t-132 -53.5zM762 1407q-111 0 -210 -67t-168 -173t-120 -235.5t-75.5 -256.5t-24.5 -235q0 -194 85 -302.5t238 -108.5q164 0 330 116l115 525h-191l11 43h233
l-127 -596q-188 -133 -375 -133q-172 0 -269 119t-97 337q0 81 13.5 173.5t41.5 190t67 190.5t94 176t119 145t146 98.5t170 36.5q172 0 301 -92l-20 -41q-121 90 -287 90z" />
    <glyph glyph-name="gbreve" unicode="&#x11f;" horiz-adv-x="970" 
d="M625 1235q-78 0 -108 52.5t-9 156.5h39q-19 -84 3 -128t83 -44q121 0 158 172h38q-20 -101 -72.5 -155t-131.5 -54zM827 778l66 314h45l-203 -961q-50 -231 -176.5 -364.5t-298.5 -133.5q-150 0 -256 93l23 41q98 -91 237 -91q153 0 266.5 121.5t157.5 331.5l45 197
q-77 -169 -183.5 -253.5t-225.5 -84.5q-126 0 -194.5 84.5t-68.5 238.5q0 130 37 270t100 258t159.5 194.5t203.5 76.5q117 0 187 -89.5t79 -242.5zM342 31q74 0 145.5 45.5t126.5 120.5t97.5 167.5t65 190.5t22.5 184q0 148 -65 238t-173 90q-66 0 -128.5 -33.5t-111 -90.5
t-89 -132t-67.5 -158t-41.5 -167.5t-14.5 -161.5q0 -140 60.5 -216.5t172.5 -76.5z" />
    <glyph glyph-name="Gdotaccent" unicode="&#x120;" horiz-adv-x="1069" 
d="M809 1729h49l-43 -195h-49zM762 1407q-111 0 -210 -67t-168 -173t-120 -235.5t-75.5 -256.5t-24.5 -235q0 -194 85 -302.5t238 -108.5q164 0 330 116l115 525h-191l11 43h233l-127 -596q-188 -133 -375 -133q-172 0 -269 119t-97 337q0 81 13.5 173.5t41.5 190t67 190.5
t94 176t119 145t146 98.5t170 36.5q172 0 301 -92l-20 -41q-121 90 -287 90z" />
    <glyph glyph-name="gdotaccent" unicode="&#x121;" horiz-adv-x="970" 
d="M651 1253h-49l43 201h49zM260 -367q-150 0 -256 93l23 41q98 -91 237 -91q153 0 266.5 121.5t157.5 331.5l45 197q-77 -169 -183.5 -253.5t-225.5 -84.5q-126 0 -194.5 84.5t-68.5 238.5q0 130 37 270t100 258t159.5 194.5t203.5 76.5q117 0 187 -89.5t79 -242.5l66 314
h45l-203 -961q-50 -231 -176.5 -364.5t-298.5 -133.5zM342 31q74 0 145.5 45.5t126.5 120.5t97.5 167.5t65 190.5t22.5 184q0 148 -65 238t-173 90q-66 0 -128.5 -33.5t-111 -90.5t-89 -132t-67.5 -158t-41.5 -167.5t-14.5 -161.5q0 -140 60.5 -216.5t172.5 -76.5z" />
    <glyph glyph-name="uni0122" unicode="&#x122;" horiz-adv-x="1069" 
d="M762 1407q-111 0 -210 -67t-168 -173t-120 -235.5t-75.5 -256.5t-24.5 -235q0 -194 85 -302.5t238 -108.5q164 0 330 116l115 525h-191l11 43h233l-127 -596q-188 -133 -375 -133q-172 0 -269 119t-97 337q0 81 13.5 173.5t41.5 190t67 190.5t94 176t119 145t146 98.5
t170 36.5q172 0 301 -92l-20 -41q-121 90 -287 90zM403 -180l15 98h104q10 -211 -157 -291l-15 31q55 32 85 69.5t34 92.5h-66z" />
    <glyph glyph-name="uni0123" unicode="&#x123;" horiz-adv-x="970" 
d="M725 1491l12 -27q-56 -35 -86.5 -72t-34.5 -92h64l-21 -94h-98q0 202 164 285zM260 -367q-150 0 -256 93l23 41q98 -91 237 -91q153 0 266.5 121.5t157.5 331.5l45 197q-77 -169 -183.5 -253.5t-225.5 -84.5q-126 0 -194.5 84.5t-68.5 238.5q0 130 37 270t100 258
t159.5 194.5t203.5 76.5q117 0 187 -89.5t79 -242.5l66 314h45l-203 -961q-50 -231 -176.5 -364.5t-298.5 -133.5zM342 31q74 0 145.5 45.5t126.5 120.5t97.5 167.5t65 190.5t22.5 184q0 148 -65 238t-173 90q-66 0 -128.5 -33.5t-111 -90.5t-89 -132t-67.5 -158
t-41.5 -167.5t-14.5 -161.5q0 -140 60.5 -216.5t172.5 -76.5z" />
    <glyph glyph-name="Hcircumflex" unicode="&#x124;" horiz-adv-x="1097" 
d="M932 1513l-88 216l-191 -216l-41 11l211 237h60l94 -239zM932 748l145 686h47l-305 -1434h-47l150 705h-680l-150 -705h-47l305 1434h47l-145 -686h680z" />
    <glyph glyph-name="hcircumflex" unicode="&#x125;" horiz-adv-x="925" 
d="M836 1786l94 -240l-45 -8l-88 215l-191 -215l-41 10l211 238h60zM629 1110q134 0 190 -99t17 -284l-156 -727h-45l156 727q35 166 -11 253t-164 87q-125 0 -232.5 -115t-170.5 -334l-131 -618h-43l321 1511h43l-147 -694q66 140 164 216.5t209 76.5z" />
    <glyph glyph-name="Hbar" unicode="&#x126;" horiz-adv-x="1097" 
d="M1065 1155h68l-11 -39h-65l-238 -1116h-47l150 705h-680l-150 -705h-47l238 1116h-64l10 39h62l59 279h47l-59 -279h680l59 279h47zM252 748h680l78 368h-680z" />
    <glyph glyph-name="hbar" unicode="&#x127;" horiz-adv-x="925" 
d="M629 1110q134 0 190 -99t17 -284l-156 -727h-45l156 727q35 166 -11 253t-164 87q-125 0 -232.5 -115t-170.5 -334l-131 -618h-43l266 1249h-127l8 39h127l47 223h43l-47 -223h252l-6 -39h-254l-92 -432q66 140 164 216.5t209 76.5z" />
    <glyph glyph-name="Itilde" unicode="&#x128;" horiz-adv-x="370" 
d="M238 1524l-35 6q15 73 51 114.5t86 41.5q27 0 49 -18.5t35 -41t31 -41t37 -18.5q33 0 58.5 32.5t37.5 90.5l35 -7q-15 -72 -52 -113.5t-84 -41.5q-28 0 -50.5 18.5t-34.5 41t-30 41t-38 18.5q-33 0 -58.5 -32.5t-37.5 -90.5zM92 0h-47l305 1434h47z" />
    <glyph glyph-name="itilde" unicode="&#x129;" horiz-adv-x="339" 
d="M164 1264l-35 6q15 73 51 114t86 41q27 0 49 -18t35 -40t31 -40t37 -18q32 0 58 32t38 89l33 -5q-13 -73 -49.5 -115t-83.5 -42q-28 0 -50.5 18.5t-35 40.5t-30.5 40.5t-38 18.5q-33 0 -58.5 -32t-37.5 -90zM76 0h-45l233 1092h45z" />
    <glyph glyph-name="Imacron" unicode="&#x12a;" horiz-adv-x="370" 
d="M610 1585h-409l8 37h412zM92 0h-47l305 1434h47z" />
    <glyph glyph-name="imacron" unicode="&#x12b;" horiz-adv-x="339" 
d="M535 1298h-412l10 37h410zM76 0h-45l233 1092h45z" />
    <glyph glyph-name="Ibreve" unicode="&#x12c;" horiz-adv-x="370" 
d="M551 1702h39q-22 -100 -75 -153.5t-132 -53.5q-77 0 -107.5 51.5t-9.5 155.5h39q-36 -172 86 -172q120 0 160 172zM92 0h-47l305 1434h47z" />
    <glyph glyph-name="ibreve" unicode="&#x12d;" horiz-adv-x="339" 
d="M481 1444h39q-20 -100 -73 -154.5t-132 -54.5q-159 0 -116 209h39q-19 -84 3 -128t83 -44q120 0 157 172zM76 0h-45l233 1092h45z" />
    <glyph glyph-name="Iogonek" unicode="&#x12e;" horiz-adv-x="370" 
d="M45 4l305 1430h47l-305 -1434h-4q-77 -49 -123 -104t-55 -103q-14 -65 24.5 -93t126.5 -13l-4 -35q-111 -18 -160.5 18.5t-31.5 114.5q25 116 180 219z" />
    <glyph glyph-name="iogonek" unicode="&#x12f;" horiz-adv-x="339" 
d="M295 1253l43 201h49l-43 -201h-49zM31 2l233 1090h45l-233 -1092q-77 -49 -123 -104t-55 -103q-14 -65 24.5 -93t126.5 -13l-4 -35q-111 -18 -160.5 18.5t-31.5 114.5q25 116 178 217z" />
    <glyph glyph-name="Idotaccent" unicode="&#x130;" horiz-adv-x="370" 
d="M428 1534h-49l43 195h49zM92 0h-47l305 1434h47z" />
    <glyph glyph-name="dotlessi" unicode="&#x131;" horiz-adv-x="339" 
d="M76 0h-45l233 1092h45z" />
    <glyph glyph-name="IJ" unicode="&#x132;" horiz-adv-x="1081" 
d="M92 0h-47l305 1434h47zM522 -16q-125 0 -203 61l17 43q78 -61 194 -61q125 0 208 78t120 253l219 1033h-211l8 43h259l-230 -1074q-42 -200 -138.5 -288t-242.5 -88z" />
    <glyph glyph-name="ij" unicode="&#x133;" horiz-adv-x="698" 
d="M344 1253h-49l43 201h49zM702 1253h-49l43 201h49zM76 0h-45l233 1092h45zM104 -344l11 41q42 -6 63 -6q145 0 193 221l252 1180h45l-252 -1184q-56 -258 -242 -258q-46 0 -70 6z" />
    <glyph glyph-name="Jcircumflex" unicode="&#x134;" horiz-adv-x="708" 
d="M748 1761l94 -239l-45 -9l-88 216l-191 -216l-41 11l211 237h60zM707 1391h-211l8 43h258l-230 -1074q-42 -200 -138 -288t-242 -88q-125 0 -203 61l16 43q78 -61 195 -61q125 0 207.5 77.5t119.5 253.5z" />
    <glyph glyph-name="jcircumflex" unicode="&#x135;" horiz-adv-x="358" 
d="M414 1481l86 -256l-41 -8l-78 231l-174 -231l-37 10l190 254h54zM31 -88l252 1180h45l-252 -1184q-56 -258 -242 -258q-46 0 -70 6l11 41q42 -6 63 -6q145 0 193 221z" />
    <glyph glyph-name="uni0136" unicode="&#x136;" horiz-adv-x="966" 
d="M92 0h-45l303 1434h47zM797 0h-54l-434 721l2 14l670 699h61l-682 -711zM272 -373l-14 31q55 32 85 69.5t34 92.5h-66l15 98h104q10 -211 -158 -291z" />
    <glyph glyph-name="uni0137" unicode="&#x137;" horiz-adv-x="825" 
d="M758 1092h61l-573 -525l403 -567h-55l-393 557l-119 -557h-43l321 1511h43l-196 -925zM225 -180l15 98h104q10 -211 -158 -291l-14 31q55 32 85 69.5t34 92.5h-66z" />
    <glyph glyph-name="kgreenlandic" unicode="&#x138;" horiz-adv-x="825" 
d="M758 1092h61l-573 -525l403 -567h-55l-391 555l-121 -555h-43l233 1092h45l-108 -504z" />
    <glyph glyph-name="Lacute" unicode="&#x139;" horiz-adv-x="806" 
d="M745 1733l-196 -197l-27 8l183 209zM653 0h-608l305 1434h47l-295 -1391h562z" />
    <glyph glyph-name="lacute" unicode="&#x13a;" horiz-adv-x="354" 
d="M610 1810l-196 -196l-27 8l182 209zM82 0h-43l321 1511h43z" />
    <glyph glyph-name="uni013B" unicode="&#x13b;" horiz-adv-x="806" 
d="M653 0h-608l305 1434h47l-295 -1391h562zM195 -373l-15 31q55 32 85 69.5t34 92.5h-66l15 98h104q10 -211 -157 -291z" />
    <glyph glyph-name="uni013C" unicode="&#x13c;" horiz-adv-x="354" 
d="M82 0h-43l321 1511h43zM-51 -373l-15 31q55 32 85 69.5t34 92.5h-65l14 98h104q10 -211 -157 -291z" />
    <glyph glyph-name="Lcaron" unicode="&#x13d;" horiz-adv-x="806" 
d="M653 0h-608l305 1434h47l-295 -1391h562zM768 1085l74 349l45 -2l-86 -347h-33z" />
    <glyph glyph-name="lcaron" unicode="&#x13e;" horiz-adv-x="354" 
d="M82 0h-43l321 1511h43zM471 1163l74 348l45 -2l-86 -346h-33z" />
    <glyph glyph-name="Ldot" unicode="&#x13f;" horiz-adv-x="1044" 
d="M653 0h-608l305 1434h47l-295 -1391h562zM881 666l22 102h105l-25 -102h-102z" />
    <glyph glyph-name="ldot" unicode="&#x140;" horiz-adv-x="555" 
d="M82 0h-43l321 1511h43zM436 481l17 74h73l-16 -74h-74z" />
    <glyph glyph-name="Lslash" unicode="&#x141;" horiz-adv-x="806" 
d="M242 702l-140 -659h562l-11 -43h-608l145 678l-129 -60l-8 33l146 68l151 715h47l-145 -691l151 72l9 -33z" />
    <glyph glyph-name="lslash" unicode="&#x142;" horiz-adv-x="354" 
d="M250 786l143 68l8 -33l-161 -76l-158 -745h-43l154 723l-142 -66l-8 33l158 74l159 747h43z" />
    <glyph glyph-name="Nacute" unicode="&#x143;" horiz-adv-x="1116" 
d="M977 1733l-197 -197l-26 8l182 209zM90 0h-45l305 1434h47l414 -1340l287 1340h45l-305 -1434h-47l-414 1341z" />
    <glyph glyph-name="nacute" unicode="&#x144;" horiz-adv-x="917" 
d="M795 1489l41 -23l-207 -200l-25 10zM625 1110q134 0 187.5 -99t14.5 -284l-155 -727h-45l155 727q35 166 -10.5 253t-163.5 87q-115 0 -221 -108.5t-174 -313.5l-137 -645h-45l233 1092h45l-59 -283q64 143 163.5 222t211.5 79z" />
    <glyph glyph-name="uni0145" unicode="&#x145;" horiz-adv-x="1116" 
d="M90 0h-45l305 1434h47l414 -1340l287 1340h45l-305 -1434h-47l-414 1341zM330 -373l-15 31q55 32 85 69.5t34 92.5h-65l14 98h104q10 -211 -157 -291z" />
    <glyph glyph-name="uni0146" unicode="&#x146;" horiz-adv-x="917" 
d="M625 1110q134 0 187.5 -99t14.5 -284l-155 -727h-45l155 727q35 166 -10.5 253t-163.5 87q-115 0 -221 -108.5t-174 -313.5l-137 -645h-45l233 1092h45l-59 -283q64 143 163.5 222t211.5 79zM295 -180l14 98h105q10 -211 -158 -291l-14 31q55 32 84.5 69.5t33.5 92.5h-65
z" />
    <glyph glyph-name="Ncaron" unicode="&#x147;" horiz-adv-x="1116" 
d="M739 1530l-104 219l41 10l100 -200l182 200l39 -10l-198 -219h-60zM811 94l287 1340h45l-305 -1434h-47l-414 1341l-287 -1341h-45l305 1434h47z" />
    <glyph glyph-name="ncaron" unicode="&#x148;" horiz-adv-x="917" 
d="M594 1221l-78 256l39 10l76 -232l174 232l35 -10l-189 -256h-57zM625 1110q134 0 187.5 -99t14.5 -284l-155 -727h-45l155 727q35 166 -10.5 253t-163.5 87q-115 0 -221 -108.5t-174 -313.5l-137 -645h-45l233 1092h45l-59 -283q64 143 163.5 222t211.5 79z" />
    <glyph glyph-name="Eng" unicode="&#x14a;" horiz-adv-x="1114" 
d="M1098 1434h45l-209 -985q-4 -18 -15.5 -71t-19.5 -91l-78 -369q-57 -266 -284 -266q-43 0 -82 24l16 43q31 -24 72 -24q187 0 233 227l17 78h-2l-414 1341l-287 -1341h-45l305 1434h47l414 -1340z" />
    <glyph glyph-name="eng" unicode="&#x14b;" horiz-adv-x="917" 
d="M625 1110q134 0 187.5 -99t14.5 -284l-47 -219q-8 -52 -45 -221l-78 -369q-57 -266 -284 -266q-43 0 -82 24l16 43q31 -24 72 -24q184 0 233 227l17 78h-2l155 727q35 166 -10.5 253t-163.5 87q-115 0 -221 -108.5t-174 -313.5l-137 -645h-45l233 1092h45l-59 -283
q64 143 163.5 222t211.5 79z" />
    <glyph glyph-name="Omacron" unicode="&#x14c;" horiz-adv-x="1155" 
d="M1001 1585h-409l8 37h412zM481 -16q-170 0 -267 120t-97 332q0 109 24 239.5t76 268t123.5 250t177.5 184.5t227 72q172 0 270.5 -119t98.5 -334q0 -76 -12.5 -165.5t-39 -187.5t-64 -192t-90.5 -179t-115.5 -149t-143 -102t-168.5 -38zM483 27q110 0 208 69.5
t164.5 177.5t116 239t72.5 255t23 225q0 194 -85 304t-239 110q-80 0 -153.5 -37t-130.5 -100t-106 -145.5t-83 -173.5t-58.5 -184t-36 -177.5t-11.5 -153.5q0 -188 84 -298.5t235 -110.5z" />
    <glyph glyph-name="omacron" unicode="&#x14d;" horiz-adv-x="929" 
d="M831 1298h-411l10 37h410zM365 -16q-137 0 -217 96.5t-80 263.5q0 71 13.5 152.5t39.5 168t68.5 165.5t95.5 142t125.5 100.5t154.5 37.5q137 0 218 -96.5t81 -263.5q0 -86 -19 -186t-60.5 -203t-98.5 -187t-141 -137t-180 -53zM373 27q83 0 157.5 50.5t125.5 130t89 176
t56 189t18 168.5q0 148 -69 236t-191 88q-72 0 -136.5 -35.5t-112 -95t-86 -134t-62.5 -154.5t-36.5 -155.5t-12.5 -138.5q0 -149 67 -237t193 -88z" />
    <glyph glyph-name="Obreve" unicode="&#x14e;" horiz-adv-x="1155" 
d="M774 1495q-77 0 -107.5 51.5t-9.5 155.5h39q-36 -172 86 -172q120 0 160 172h39q-22 -100 -75 -153.5t-132 -53.5zM745 1450q172 0 270.5 -119t98.5 -334q0 -76 -12.5 -165.5t-39 -187.5t-64 -192t-90.5 -179t-115.5 -149t-143 -102t-168.5 -38q-170 0 -267 120t-97 332
q0 109 24 239.5t76 268t123.5 250t177.5 184.5t227 72zM483 27q110 0 208 69.5t164.5 177.5t116 239t72.5 255t23 225q0 194 -85 304t-239 110q-80 0 -153.5 -37t-130.5 -100t-106 -145.5t-83 -173.5t-58.5 -184t-36 -177.5t-11.5 -153.5q0 -188 84 -298.5t235 -110.5z" />
    <glyph glyph-name="obreve" unicode="&#x14f;" horiz-adv-x="929" 
d="M612 1235q-159 0 -116 209h39q-19 -84 3 -128t83 -44q120 0 157 172h39q-20 -100 -73 -154.5t-132 -54.5zM565 1110q137 0 218 -96.5t81 -263.5q0 -86 -19 -186t-60.5 -203t-98.5 -187t-141 -137t-180 -53q-137 0 -217 96.5t-80 263.5q0 71 13.5 152.5t39.5 168
t68.5 165.5t95.5 142t125.5 100.5t154.5 37.5zM373 27q83 0 157.5 50.5t125.5 130t89 176t56 189t18 168.5q0 148 -69 236t-191 88q-72 0 -136.5 -35.5t-112 -95t-86 -134t-62.5 -154.5t-36.5 -155.5t-12.5 -138.5q0 -149 67 -237t193 -88z" />
    <glyph glyph-name="Ohungarumlaut" unicode="&#x150;" horiz-adv-x="1155" 
d="M862 1733l-194 -197l-27 8l180 209zM1071 1733l-194 -197l-27 8l180 209zM481 -16q-170 0 -267 120t-97 332q0 109 24 239.5t76 268t123.5 250t177.5 184.5t227 72q172 0 270.5 -119t98.5 -334q0 -76 -12.5 -165.5t-39 -187.5t-64 -192t-90.5 -179t-115.5 -149t-143 -102
t-168.5 -38zM483 27q110 0 208 69.5t164.5 177.5t116 239t72.5 255t23 225q0 194 -85 304t-239 110q-80 0 -153.5 -37t-130.5 -100t-106 -145.5t-83 -173.5t-58.5 -184t-36 -177.5t-11.5 -153.5q0 -188 84 -298.5t235 -110.5z" />
    <glyph glyph-name="ohungarumlaut" unicode="&#x151;" horiz-adv-x="929" 
d="M702 1466l-204 -200l-25 10l189 213zM920 1466l-205 -200l-25 10l189 213zM365 -16q-137 0 -217 96.5t-80 263.5q0 71 13.5 152.5t39.5 168t68.5 165.5t95.5 142t125.5 100.5t154.5 37.5q137 0 218 -96.5t81 -263.5q0 -86 -19 -186t-60.5 -203t-98.5 -187t-141 -137
t-180 -53zM373 27q83 0 157.5 50.5t125.5 130t89 176t56 189t18 168.5q0 148 -69 236t-191 88q-72 0 -136.5 -35.5t-112 -95t-86 -134t-62.5 -154.5t-36.5 -155.5t-12.5 -138.5q0 -149 67 -237t193 -88z" />
    <glyph glyph-name="OE" unicode="&#x152;" horiz-adv-x="1638" 
d="M1724 1432l-8 -43h-626l-136 -639h545l-8 -43h-547l-141 -666h639l-10 -43h-687l13 57q-139 -71 -281 -71q-171 0 -268.5 115t-97.5 323q0 76 13.5 167t41 190t66.5 194.5t95 182t120.5 152t148 104t174.5 38.5q149 0 268 -76l13 58h673zM768 106l260 1221
q-115 80 -264 80q-81 0 -156 -37t-134.5 -100t-111 -146t-88.5 -174.5t-63.5 -186t-39.5 -181t-13 -158.5q0 -184 83 -289.5t238 -105.5q151 0 289 77z" />
    <glyph glyph-name="oe" unicode="&#x153;" horiz-adv-x="1579" 
d="M1268 1110q123 0 194.5 -77.5t71.5 -215.5q0 -136 -53 -280h-639q-23 -115 -23 -193q0 -146 65 -231.5t189 -85.5q135 0 264 75v-43q-129 -75 -270 -75q-136 0 -213.5 94t-79.5 256q-68 -156 -171 -253t-238 -97q-137 0 -217 96.5t-80 263.5q0 71 13.5 152.5t39.5 168
t68.5 165.5t95.5 142t125.5 100.5t154.5 37.5q136 0 217 -95t82 -259q67 157 170.5 255.5t233.5 98.5zM852 578h598q39 128 39 235q0 118 -58.5 186t-164.5 68q-77 0 -145.5 -42t-119.5 -113.5t-88.5 -155.5t-60.5 -178zM373 27q83 0 157.5 50.5t125.5 130t89 176t56 189
t18 168.5q0 148 -69 236t-191 88q-72 0 -136.5 -35.5t-112 -95t-86 -134t-62.5 -154.5t-36.5 -155.5t-12.5 -138.5q0 -149 67 -237t193 -88z" />
    <glyph glyph-name="Racute" unicode="&#x154;" horiz-adv-x="983" 
d="M868 1753l41 -20l-196 -197l-27 8zM1001 1118q0 -68 -15 -135.5t-50 -135.5t-86.5 -122t-130 -94.5t-174.5 -55.5l227 -575h-51l-223 569q-23 -2 -70 -2h-215l-121 -567h-47l305 1434h250q188 0 294.5 -81.5t106.5 -234.5zM221 610h209q108 0 197.5 30.5t148.5 80.5
t99.5 115.5t58.5 134t18 137.5q0 134 -88 208.5t-258 74.5h-217z" />
    <glyph glyph-name="racute" unicode="&#x155;" horiz-adv-x="575" 
d="M575 1489l41 -23l-206 -200l-25 10zM586 1108q33 0 71 -10l-14 -47q-38 10 -70 10q-134 0 -230 -128.5t-146 -365.5l-121 -567h-45l233 1092h45l-53 -256q121 272 330 272z" />
    <glyph glyph-name="uni0156" unicode="&#x156;" horiz-adv-x="983" 
d="M1001 1118q0 -68 -15 -135.5t-50 -135.5t-86.5 -122t-130 -94.5t-174.5 -55.5l227 -575h-51l-223 569q-23 -2 -70 -2h-215l-121 -567h-47l305 1434h250q188 0 294.5 -81.5t106.5 -234.5zM221 610h209q108 0 197.5 30.5t148.5 80.5t99.5 115.5t58.5 134t18 137.5
q0 134 -88 208.5t-258 74.5h-217zM301 -180l14 98h105q10 -211 -158 -291l-14 31q55 32 85 69.5t34 92.5h-66z" />
    <glyph glyph-name="uni0157" unicode="&#x157;" horiz-adv-x="575" 
d="M586 1108q33 0 71 -10l-14 -47q-38 10 -70 10q-134 0 -230 -128.5t-146 -365.5l-121 -567h-45l233 1092h45l-53 -256q121 272 330 272zM-20 -180l14 98h104q10 -211 -157 -291l-15 31q55 32 85 69.5t34 92.5h-65z" />
    <glyph glyph-name="Rcaron" unicode="&#x158;" horiz-adv-x="983" 
d="M670 1530l-105 219l41 10l101 -200l182 200l39 -10l-199 -219h-59zM1001 1118q0 -68 -15 -135.5t-50 -135.5t-86.5 -122t-130 -94.5t-174.5 -55.5l227 -575h-51l-223 569q-23 -2 -70 -2h-215l-121 -567h-47l305 1434h250q188 0 294.5 -81.5t106.5 -234.5zM221 610h209
q108 0 197.5 30.5t148.5 80.5t99.5 115.5t58.5 134t18 137.5q0 134 -88 208.5t-258 74.5h-217z" />
    <glyph glyph-name="rcaron" unicode="&#x159;" horiz-adv-x="575" 
d="M377 1221l-78 256l39 10l76 -232l174 232l35 -10l-189 -256h-57zM586 1108q33 0 71 -10l-14 -47q-38 10 -70 10q-134 0 -230 -128.5t-146 -365.5l-121 -567h-45l233 1092h45l-53 -256q121 272 330 272z" />
    <glyph glyph-name="Sacute" unicode="&#x15a;" horiz-adv-x="886" 
d="M858 1735l-196 -197l-27 8l182 209zM307 -16q-197 0 -334 90l21 41q127 -86 317 -86q173 0 285.5 110t112.5 262q0 64 -17.5 114t-55.5 89t-73 64t-96 61q-51 33 -83 57t-67 57t-54 64.5t-31.5 74t-12.5 91.5q0 70 31 138t84.5 121t132.5 85.5t168 32.5q165 0 287 -80
l-17 -45q-113 80 -272 80q-152 0 -259.5 -97.5t-107.5 -228.5q0 -55 14.5 -98.5t50 -81.5t70.5 -65t99 -70q62 -37 102.5 -67.5t78.5 -73.5t56.5 -96.5t18.5 -120.5q0 -83 -33 -160t-90.5 -135t-142.5 -92.5t-183 -34.5z" />
    <glyph glyph-name="sacute" unicode="&#x15b;" horiz-adv-x="722" 
d="M717 1466l-207 -200l-25 10l191 213zM236 -16q-151 0 -269 65l17 43q110 -65 258 -65q135 0 219 82.5t84 197.5q0 87 -46 142.5t-143 105.5q-194 96 -194 252q0 126 86.5 213.5t240.5 87.5q131 0 230 -55l-17 -41q-83 53 -215 53t-206 -75t-74 -175q0 -73 43.5 -126.5
t138.5 -104.5q103 -53 153 -116.5t50 -158.5q0 -136 -99.5 -230.5t-256.5 -94.5z" />
    <glyph glyph-name="Scircumflex" unicode="&#x15c;" horiz-adv-x="886" 
d="M823 1516l-88 215l-190 -215l-41 10l211 237h59l94 -239zM633 1405q-152 0 -259.5 -97.5t-107.5 -228.5q0 -55 14.5 -98.5t50 -81.5t70.5 -65t99 -70q62 -37 102.5 -67.5t78.5 -73.5t56.5 -96.5t18.5 -120.5q0 -83 -33 -160t-90.5 -135t-142.5 -92.5t-183 -34.5
q-197 0 -334 90l21 41q127 -86 317 -86q173 0 285.5 110t112.5 262q0 64 -17.5 114t-55.5 89t-73 64t-96 61q-51 33 -83 57t-67 57t-54 64.5t-31.5 74t-12.5 91.5q0 70 31 138t84.5 121t132.5 85.5t168 32.5q165 0 287 -80l-17 -45q-113 80 -272 80z" />
    <glyph glyph-name="scircumflex" unicode="&#x15d;" horiz-adv-x="722" 
d="M633 1217l-78 231l-174 -231l-37 10l191 254h53l86 -256zM487 1065q-132 0 -206 -75t-74 -175q0 -73 43.5 -126.5t138.5 -104.5q103 -53 153 -116.5t50 -158.5q0 -136 -99.5 -230.5t-256.5 -94.5q-151 0 -269 65l17 43q110 -65 258 -65q135 0 219 82.5t84 197.5
q0 87 -46 142.5t-143 105.5q-194 96 -194 252q0 126 86.5 213.5t240.5 87.5q131 0 230 -55l-17 -41q-83 53 -215 53z" />
    <glyph glyph-name="Scedilla" unicode="&#x15e;" horiz-adv-x="886" 
d="M633 1405q-152 0 -259.5 -97.5t-107.5 -228.5q0 -55 14.5 -98.5t50 -81.5t70.5 -65t99 -70q62 -37 102.5 -67.5t78.5 -73.5t56.5 -96.5t18.5 -120.5q0 -167 -120.5 -291t-307.5 -131l-33 -64q74 -6 112 -44t25 -99q-11 -59 -66 -99t-143 -40q-68 0 -117 18l17 35
q38 -19 104 -19q70 0 113 31t51 76q12 53 -29 83t-118 32l47 90q-187 3 -318 90l21 41q127 -86 317 -86q173 0 285.5 110t112.5 262q0 64 -17.5 114t-55.5 89t-73 64t-96 61q-51 33 -83 57t-67 57t-54 64.5t-31.5 74t-12.5 91.5q0 70 31 138t84.5 121t132.5 85.5t168 32.5
q165 0 287 -80l-17 -45q-113 80 -272 80z" />
    <glyph glyph-name="scedilla" unicode="&#x15f;" horiz-adv-x="722" 
d="M487 1065q-132 0 -206 -75t-74 -175q0 -73 43.5 -126.5t138.5 -104.5q103 -53 153 -116.5t50 -158.5q0 -131 -93 -224.5t-241 -100.5l-33 -64q74 -6 112 -44t25 -99q-11 -59 -65.5 -99t-142.5 -40q-68 0 -117 18l16 35q38 -19 105 -19q70 0 113 31t51 76q12 53 -29.5 83
t-118.5 32l47 90q-142 3 -254 65l17 43q110 -65 258 -65q135 0 219 82.5t84 197.5q0 87 -46 142.5t-143 105.5q-194 96 -194 252q0 126 86.5 213.5t240.5 87.5q131 0 230 -55l-17 -41q-83 53 -215 53z" />
    <glyph glyph-name="Scaron" unicode="&#x160;" horiz-adv-x="886" 
d="M621 1532l-105 219l41 10l100 -200l183 200l39 -10l-199 -219h-59zM633 1405q-152 0 -259.5 -97.5t-107.5 -228.5q0 -55 14.5 -98.5t50 -81.5t70.5 -65t99 -70q62 -37 102.5 -67.5t78.5 -73.5t56.5 -96.5t18.5 -120.5q0 -83 -33 -160t-90.5 -135t-142.5 -92.5t-183 -34.5
q-197 0 -334 90l21 41q127 -86 317 -86q173 0 285.5 110t112.5 262q0 64 -17.5 114t-55.5 89t-73 64t-96 61q-51 33 -83 57t-67 57t-54 64.5t-31.5 74t-12.5 91.5q0 70 31 138t84.5 121t132.5 85.5t168 32.5q165 0 287 -80l-17 -45q-113 80 -272 80z" />
    <glyph glyph-name="scaron" unicode="&#x161;" horiz-adv-x="722" 
d="M477 1221l-78 256l39 10l76 -232l174 232l35 -10l-188 -256h-58zM162 807q0 126 86.5 213.5t240.5 87.5q131 0 230 -55l-17 -41q-83 53 -215 53t-206 -75t-74 -175q0 -73 43.5 -126.5t138.5 -104.5q103 -53 153 -116.5t50 -158.5q0 -136 -99.5 -230.5t-256.5 -94.5
q-151 0 -269 65l17 43q110 -65 258 -65q135 0 219 82.5t84 197.5q0 87 -46 142.5t-143 105.5q-194 96 -194 252z" />
    <glyph glyph-name="uni0162" unicode="&#x162;" horiz-adv-x="813" 
d="M610 1391l-297 -1391h-2l-41 -80q74 -6 112.5 -44t25.5 -99q-11 -59 -66 -99t-143 -40q-68 0 -117 18l16 35q38 -19 105 -19q70 0 113 31t51 76q12 53 -29.5 83t-118.5 32l55 106h-8l297 1391h-348l8 43h744l-9 -43h-348z" />
    <glyph glyph-name="uni0163" unicode="&#x163;" horiz-adv-x="632" 
d="M635 1049h-279l-176 -822q-19 -91 8 -145.5t101 -54.5q79 0 147 43l2 -43q-69 -40 -153 -43l-35 -70q74 -6 112 -44t25 -99q-11 -59 -66 -99.5t-143 -40.5q-66 0 -117 19l17 35q38 -19 104 -19q70 0 113 31t51 76q12 53 -29 82.5t-118 31.5l51 99q-81 7 -109 69t-6 164
l176 830h-131l8 34l101 11l94 209h27l-43 -211h278z" />
    <glyph glyph-name="Tcaron" unicode="&#x164;" horiz-adv-x="813" 
d="M586 1530l-105 219l41 10l101 -200l182 200l39 -10l-199 -219h-59zM223 1434h744l-9 -43h-348l-297 -1391h-47l297 1391h-348z" />
    <glyph glyph-name="tcaron" unicode="&#x165;" horiz-adv-x="632" 
d="M553 1161l74 348l45 -2l-86 -346h-33zM274 -16q-94 0 -128.5 63t-10.5 172l176 830h-131l8 34l101 11l94 209h27l-43 -211h278l-10 -43h-279l-176 -822q-19 -91 8 -145.5t101 -54.5q79 0 147 43l2 -43q-72 -43 -164 -43z" />
    <glyph glyph-name="Tbar" unicode="&#x166;" horiz-adv-x="813" 
d="M967 1434l-9 -43h-348l-139 -654h217l-6 -39h-219l-150 -698h-47l150 698h-215l6 39h217l139 654h-348l8 43h744z" />
    <glyph glyph-name="tbar" unicode="&#x167;" horiz-adv-x="632" 
d="M645 1092l-10 -43h-279l-92 -428h201l-6 -39h-203l-76 -355q-19 -91 8 -145.5t101 -54.5q79 0 147 43l2 -43q-72 -43 -164 -43q-94 0 -128.5 63t-10.5 172l78 363h-178l8 39h178l90 428h-131l8 34l101 11l94 209h27l-43 -211h278z" />
    <glyph glyph-name="Utilde" unicode="&#x168;" horiz-adv-x="1046" 
d="M575 1524l-34 6q15 73 51 114.5t86 41.5q27 0 49 -18.5t34.5 -41t30.5 -41t37 -18.5q33 0 59 32.5t38 90.5l35 -7q-15 -72 -52 -113.5t-84 -41.5q-28 0 -50.5 18.5t-34.5 41t-30 41t-38 18.5q-33 0 -59 -32.5t-38 -90.5zM406 -16q-68 0 -122 17t-89.5 47.5t-59 70.5
t-33 88t-8.5 98t12 103l218 1026h47l-219 -1024q-10 -59 -12 -114t15 -103.5t47 -85t83.5 -57.5t124.5 -21q156 0 272 102.5t154 278.5l217 1024h47l-219 -1024q-41 -196 -169 -311t-306 -115z" />
    <glyph glyph-name="utilde" unicode="&#x169;" horiz-adv-x="919" 
d="M547 1386q-33 0 -58.5 -32t-37.5 -90l-35 6q15 73 51 114t86 41q27 0 49 -18t35 -40t31 -40t37 -18q32 0 58 32t38 89l33 -5q-13 -73 -50 -115t-84 -42q-28 0 -50.5 18.5t-34.5 40.5t-30 40.5t-38 18.5zM705 446l137 646h45l-234 -1092h-45l60 283q-64 -143 -163.5 -222
t-211.5 -79q-134 0 -188 99t-15 284l156 727h45l-156 -727q-35 -166 10.5 -253t163.5 -87q115 0 221.5 108t174.5 313z" />
    <glyph glyph-name="Umacron" unicode="&#x16a;" horiz-adv-x="1046" 
d="M948 1585h-409l8 37h411zM406 -16q-68 0 -122 17t-89.5 47.5t-59 70.5t-33 88t-8.5 98t12 103l218 1026h47l-219 -1024q-10 -59 -12 -114t15 -103.5t47 -85t83.5 -57.5t124.5 -21q156 0 272 102.5t154 278.5l217 1024h47l-219 -1024q-41 -196 -169 -311t-306 -115z" />
    <glyph glyph-name="umacron" unicode="&#x16b;" horiz-adv-x="919" 
d="M420 1335h409l-8 -37h-411zM705 446l137 646h45l-234 -1092h-45l60 283q-64 -143 -163.5 -222t-211.5 -79q-134 0 -188 99t-15 284l156 727h45l-156 -727q-35 -166 10.5 -253t163.5 -87q115 0 221.5 108t174.5 313z" />
    <glyph glyph-name="Ubreve" unicode="&#x16c;" horiz-adv-x="1046" 
d="M721 1495q-77 0 -107.5 51.5t-9.5 155.5h39q-36 -172 86 -172q120 0 160 172h39q-22 -100 -75 -153.5t-132 -53.5zM836 410l217 1024h47l-219 -1024q-41 -196 -169 -311t-306 -115q-68 0 -122 17t-89.5 47.5t-59 70.5t-33 88t-8.5 98t12 103l218 1026h47l-219 -1024
q-10 -59 -12 -114t15 -103.5t47 -85t83.5 -57.5t124.5 -21q156 0 272 102.5t154 278.5z" />
    <glyph glyph-name="ubreve" unicode="&#x16d;" horiz-adv-x="919" 
d="M602 1235q-78 0 -108 52.5t-9 156.5h39q-19 -84 3 -128t83 -44q121 0 158 172h39q-20 -100 -73 -154.5t-132 -54.5zM705 446l137 646h45l-234 -1092h-45l60 283q-64 -143 -163.5 -222t-211.5 -79q-134 0 -188 99t-15 284l156 727h45l-156 -727q-35 -166 10.5 -253
t163.5 -87q115 0 221.5 108t174.5 313z" />
    <glyph glyph-name="Uring" unicode="&#x16e;" horiz-adv-x="1046" 
d="M721 1458q-66 0 -97 44.5t-18 107.5q13 61 62.5 106t115.5 45t96.5 -45t16.5 -106q-13 -63 -61.5 -107.5t-114.5 -44.5zM727 1493q51 0 88 35t47 82q10 46 -11.5 81t-72.5 35q-52 0 -89.5 -35t-47.5 -81q-10 -48 12.5 -82.5t73.5 -34.5zM406 -16q-68 0 -122 17
t-89.5 47.5t-59 70.5t-33 88t-8.5 98t12 103l218 1026h47l-219 -1024q-10 -59 -12 -114t15 -103.5t47 -85t83.5 -57.5t124.5 -21q156 0 272 102.5t154 278.5l217 1024h47l-219 -1024q-41 -196 -169 -311t-306 -115z" />
    <glyph glyph-name="uring" unicode="&#x16f;" horiz-adv-x="919" 
d="M596 1202q-66 0 -97 45t-18 107q13 61 62.5 106t115.5 45t96.5 -45t16.5 -106q-13 -62 -61.5 -107t-114.5 -45zM516 1354q-10 -48 12.5 -82.5t73.5 -34.5t88 35t47 82q10 48 -12 82t-74 34q-51 0 -88 -34.5t-47 -81.5zM705 446l137 646h45l-234 -1092h-45l60 283
q-64 -143 -163.5 -222t-211.5 -79q-134 0 -188 99t-15 284l156 727h45l-156 -727q-35 -166 10.5 -253t163.5 -87q115 0 221.5 108t174.5 313z" />
    <glyph glyph-name="Uhungarumlaut" unicode="&#x170;" horiz-adv-x="1046" 
d="M807 1733l-195 -197l-26 8l180 209zM1016 1733l-195 -197l-26 8l180 209zM406 -16q-68 0 -122 17t-89.5 47.5t-59 70.5t-33 88t-8.5 98t12 103l218 1026h47l-219 -1024q-10 -59 -12 -114t15 -103.5t47 -85t83.5 -57.5t124.5 -21q156 0 272 102.5t154 278.5l217 1024h47
l-219 -1024q-41 -196 -169 -311t-306 -115z" />
    <glyph glyph-name="uhungarumlaut" unicode="&#x171;" horiz-adv-x="919" 
d="M651 1489l41 -23l-205 -200l-24 10zM909 1466l-204 -200l-25 10l188 213zM705 446l137 646h45l-234 -1092h-45l60 283q-64 -143 -163.5 -222t-211.5 -79q-134 0 -188 99t-15 284l156 727h45l-156 -727q-35 -166 10.5 -253t163.5 -87q115 0 221.5 108t174.5 313z" />
    <glyph glyph-name="Uogonek" unicode="&#x172;" horiz-adv-x="1046" 
d="M836 410l217 1024h47l-219 -1024q-27 -131 -96.5 -228t-168.5 -149q-112 -84 -129 -172q-14 -65 25 -93.5t127 -13.5l-4 -35q-111 -18 -161 18.5t-32 115.5q15 75 90 147q-62 -16 -126 -16q-68 0 -122 17t-89.5 47.5t-59 70.5t-33 88t-8.5 98t12 103l218 1026h47
l-219 -1024q-10 -59 -12 -114t15 -103.5t47 -85t83.5 -57.5t124.5 -21q156 0 272 102.5t154 278.5z" />
    <glyph glyph-name="uogonek" unicode="&#x173;" horiz-adv-x="919" 
d="M887 1092l-234 -1092q-77 -49 -123 -104t-55 -103q-14 -65 25 -93t127 -13l-4 -35q-112 -18 -161.5 18.5t-31.5 114.5q25 116 178 217l60 281q-64 -143 -163.5 -222t-211.5 -79q-134 0 -188 99t-15 284l156 727h45l-156 -727q-35 -166 10.5 -253t163.5 -87
q115 0 221.5 108t174.5 313l137 646h45z" />
    <glyph glyph-name="Wcircumflex" unicode="&#x174;" horiz-adv-x="1478" 
d="M1122 1513l-88 216l-190 -216l-41 11l211 237h59l94 -239zM979 72l582 1362h49l-613 -1434h-61l-31 1329l-594 -1329h-59l-8 1434h47l4 -1362l606 1362h51z" />
    <glyph glyph-name="wcircumflex" unicode="&#x175;" horiz-adv-x="1300" 
d="M924 1217l-78 231l-174 -231l-37 10l190 254h54l86 -256zM827 66l480 1026h47l-510 -1092h-56l-40 1010l-463 -1010h-60l-45 1092h47l39 -1026l475 1026h50z" />
    <glyph glyph-name="Ycircumflex" unicode="&#x176;" horiz-adv-x="937" 
d="M852 1513l-88 216l-191 -216l-41 11l211 237h60l94 -239zM1028 1434h53l-606 -963l-100 -471h-45l100 471l-197 963h48l184 -893z" />
    <glyph glyph-name="ycircumflex" unicode="&#x177;" horiz-adv-x="874" 
d="M709 1217l-78 231l-174 -231l-37 10l190 254h54l86 -256zM332 61l551 1031h49l-586 -1092l-186 -350h-49l184 346l-119 1096h45z" />
    <glyph glyph-name="Ydieresis" unicode="&#x178;" horiz-adv-x="937" 
d="M596 1714h49l-41 -194h-49zM811 1714h49l-43 -194h-47zM1028 1434h53l-606 -963l-100 -471h-45l100 471l-197 963h48l184 -893z" />
    <glyph glyph-name="Zacute" unicode="&#x179;" horiz-adv-x="901" 
d="M868 1733l-196 -197l-27 8l182 209zM694 0h-727l6 31l961 1360h-655l8 43h717l-7 -29l-962 -1362h670z" />
    <glyph glyph-name="zacute" unicode="&#x17a;" horiz-adv-x="743" 
d="M725 1466l-207 -200l-24 10l190 213zM559 0h-614l6 31l760 1020h-531l10 41h592l-6 -29l-764 -1020h557z" />
    <glyph glyph-name="Zdotaccent" unicode="&#x17b;" horiz-adv-x="901" 
d="M692 1534h-49l43 195h49zM694 0h-727l6 31l961 1360h-655l8 43h717l-7 -29l-962 -1362h670z" />
    <glyph glyph-name="zdotaccent" unicode="&#x17c;" horiz-adv-x="743" 
d="M545 1253h-49l43 201h49zM559 0h-614l6 31l760 1020h-531l10 41h592l-6 -29l-764 -1020h557z" />
    <glyph glyph-name="Zcaron" unicode="&#x17d;" horiz-adv-x="901" 
d="M629 1530l-105 219l41 10l101 -200l182 200l39 -10l-199 -219h-59zM287 1434h717l-7 -29l-962 -1362h670l-11 -43h-727l6 31l961 1360h-655z" />
    <glyph glyph-name="zcaron" unicode="&#x17e;" horiz-adv-x="743" 
d="M485 1221l-77 256l38 10l76 -232l174 232l35 -10l-188 -256h-58zM190 1092h592l-6 -29l-764 -1020h557l-10 -43h-614l6 31l760 1020h-531z" />
    <glyph glyph-name="uni018F" unicode="&#x18f;" horiz-adv-x="1134" 
d="M715 1450q176 0 276.5 -121.5t100.5 -341.5q0 -108 -25 -238t-78.5 -265.5t-126.5 -246.5t-179.5 -182t-227.5 -71q-166 0 -259.5 113t-93.5 304q0 37 3 77t7 70.5t10 63t10.5 51t9.5 38.5t5 22h867q30 144 30 258q0 199 -89.5 312.5t-254.5 113.5q-195 0 -362 -129
l-8 43q171 129 385 129zM463 27q82 0 158 39t134 102.5t107.5 149.5t83.5 176t58 186h-820q-32 -166 -32 -274q0 -172 81 -275.5t230 -103.5z" />
    <glyph glyph-name="florin" unicode="&#x192;" horiz-adv-x="948" 
d="M950 1532q65 0 113 -31l-23 -39q-45 29 -100 29q-83 0 -145 -76t-119 -244l-27 -79h228l-9 -39h-231l-229 -705q-65 -194 -141.5 -278t-178.5 -84q-67 0 -115 32l25 37q40 -28 100 -28q79 0 144 75.5t123 245.5l229 705h-191l9 39h194l27 82q63 190 139 274t178 84z" />
    <glyph glyph-name="uni019D" unicode="&#x19d;" horiz-adv-x="1116" 
d="M811 94l287 1340h45l-305 -1434h-47l-414 1341l-203 -952q-3 -13 -8.5 -39.5t-7.5 -34.5l-78 -368q-58 -266 -287 -266q-46 0 -80 24l15 43q31 -24 71 -24q187 0 236 227l10 49l305 1434h47z" />
    <glyph glyph-name="Ohorn" unicode="&#x1a0;" horiz-adv-x="1155" 
d="M1130 1606l44 4q-4 -136 -48 -201t-122 -63q110 -119 110 -349q0 -76 -12.5 -165.5t-39 -187.5t-64 -192t-90.5 -179t-115.5 -149t-143 -102t-168.5 -38q-170 0 -267 120t-97 332q0 109 24 239.5t76 268t123.5 250t177.5 184.5t227 72q140 0 230 -78l6 10q33 -3 56.5 3
t44.5 28t33 70t15 123zM483 27q110 0 208 69.5t164.5 177.5t116 239t72.5 255t23 225q0 194 -85 304t-239 110q-80 0 -153.5 -37t-130.5 -100t-106 -145.5t-83 -173.5t-58.5 -184t-36 -177.5t-11.5 -153.5q0 -188 84 -298.5t235 -110.5z" />
    <glyph glyph-name="ohorn" unicode="&#x1a1;" horiz-adv-x="929" 
d="M907 1268l43 4q-9 -261 -162 -264q76 -95 76 -258q0 -86 -19 -186t-60.5 -203t-98.5 -187t-141 -137t-180 -53q-137 0 -217 96.5t-80 263.5q0 71 13.5 152.5t39.5 168t68.5 165.5t95.5 142t125.5 100.5t154.5 37.5q114 0 191 -68l2 2q33 -3 56.5 3t44.5 28t33 70t15 123z
M373 27q83 0 157.5 50.5t125.5 130t89 176t56 189t18 168.5q0 148 -69 236t-191 88q-72 0 -136.5 -35.5t-112 -95t-86 -134t-62.5 -154.5t-36.5 -155.5t-12.5 -138.5q0 -149 67 -237t193 -88z" />
    <glyph glyph-name="Uhorn" unicode="&#x1af;" horiz-adv-x="1046" 
d="M1229 1657l43 4q-4 -141 -50 -205t-130 -59l-211 -987q-41 -196 -169 -311t-306 -115q-68 0 -122 17t-89.5 47.5t-59 70.5t-33 88t-8.5 98t12 103l218 1026h47l-219 -1024q-10 -59 -12 -114t15 -103.5t47 -85t83.5 -57.5t124.5 -21q156 0 272 102.5t154 278.5l217 1024
h47v-2q28 0 48.5 9t38.5 32.5t28.5 69.5t13.5 114z" />
    <glyph glyph-name="uhorn" unicode="&#x1b0;" horiz-adv-x="919" 
d="M1022 1317l43 4q-4 -144 -51.5 -208t-134.5 -56l-226 -1057h-45l60 283q-64 -143 -163.5 -222t-211.5 -79q-134 0 -188 99t-15 284l156 727h45l-156 -727q-35 -166 10.5 -253t163.5 -87q115 0 221.5 108t174.5 313l137 646h28l2 2q34 -3 57 3t44.5 27.5t33.5 69.5t15 123
z" />
    <glyph glyph-name="uni01CD" unicode="&#x1cd;" horiz-adv-x="1052" 
d="M707 1530l-105 219l41 10l100 -200l183 200l39 -10l-199 -219h-59zM-61 0l745 1434h59l136 -1434h-45l-37 397h-600l-207 -397h-51zM702 1376l-485 -936h576z" />
    <glyph glyph-name="uni01CE" unicode="&#x1ce;" horiz-adv-x="970" 
d="M584 1221l-78 256l39 10l76 -232l174 232l34 -10l-188 -256h-57zM825 766l70 326h45l-233 -1092h-45l63 299q-72 -147 -176 -231t-213 -84q-126 0 -199.5 94t-73.5 256q0 83 19 183.5t60 205.5t96.5 191t137 141t173.5 55q66 0 117.5 -28.5t84 -78t51 -109t23.5 -128.5z
M348 27q128 0 251 142t175 361l4 17q13 64 15 133.5t-11 139t-40 124.5t-76.5 89t-114.5 34q-83 0 -156.5 -52t-124.5 -133t-88.5 -179.5t-55 -191.5t-17.5 -169q0 -144 62 -229.5t177 -85.5z" />
    <glyph glyph-name="uni01CF" unicode="&#x1cf;" horiz-adv-x="370" 
d="M401 1559l183 200l39 -10l-199 -219h-59l-105 219l41 10zM92 0h-47l305 1434h47z" />
    <glyph glyph-name="uni01D0" unicode="&#x1d0;" horiz-adv-x="339" 
d="M322 1255l174 232l34 -10l-188 -256h-57l-78 256l39 10zM76 0h-45l233 1092h45z" />
    <glyph glyph-name="uni01D1" unicode="&#x1d1;" horiz-adv-x="1155" 
d="M758 1530l-105 219l41 10l101 -200l182 200l39 -10l-199 -219h-59zM745 1450q172 0 270.5 -119t98.5 -334q0 -76 -12.5 -165.5t-39 -187.5t-64 -192t-90.5 -179t-115.5 -149t-143 -102t-168.5 -38q-170 0 -267 120t-97 332q0 109 24 239.5t76 268t123.5 250t177.5 184.5
t227 72zM483 27q110 0 208 69.5t164.5 177.5t116 239t72.5 255t23 225q0 194 -85 304t-239 110q-80 0 -153.5 -37t-130.5 -100t-106 -145.5t-83 -173.5t-58.5 -184t-36 -177.5t-11.5 -153.5q0 -188 84 -298.5t235 -110.5z" />
    <glyph glyph-name="uni01D2" unicode="&#x1d2;" horiz-adv-x="929" 
d="M580 1221l-78 256l39 10l75 -232l175 232l34 -10l-188 -256h-57zM565 1110q137 0 218 -96.5t81 -263.5q0 -86 -19 -186t-60.5 -203t-98.5 -187t-141 -137t-180 -53q-137 0 -217 96.5t-80 263.5q0 71 13.5 152.5t39.5 168t68.5 165.5t95.5 142t125.5 100.5t154.5 37.5z
M373 27q83 0 157.5 50.5t125.5 130t89 176t56 189t18 168.5q0 148 -69 236t-191 88q-72 0 -136.5 -35.5t-112 -95t-86 -134t-62.5 -154.5t-36.5 -155.5t-12.5 -138.5q0 -149 67 -237t193 -88z" />
    <glyph glyph-name="uni01D3" unicode="&#x1d3;" horiz-adv-x="1046" 
d="M702 1530l-104 219l41 10l100 -200l183 200l39 -10l-199 -219h-60zM836 410l217 1024h47l-219 -1024q-41 -196 -169 -311t-306 -115q-68 0 -122 17t-89.5 47.5t-59 70.5t-33 88t-8.5 98t12 103l218 1026h47l-219 -1024q-10 -59 -12 -114t15 -103.5t47 -85t83.5 -57.5
t124.5 -21q156 0 272 102.5t154 278.5z" />
    <glyph glyph-name="uni01D4" unicode="&#x1d4;" horiz-adv-x="919" 
d="M569 1221l-77 256l38 10l76 -232l174 232l35 -10l-188 -256h-58zM705 446l137 646h45l-234 -1092h-45l60 283q-64 -143 -163.5 -222t-211.5 -79q-134 0 -188 99t-15 284l156 727h45l-156 -727q-35 -166 10.5 -253t163.5 -87q115 0 221.5 108t174.5 313z" />
    <glyph glyph-name="uni01D5" unicode="&#x1d5;" horiz-adv-x="1046" 
d="M1020 1882h-410l8 37h412zM657 1520h-49l41 194h49zM870 1520h-47l41 194h49zM406 -16q-68 0 -122 17t-89.5 47.5t-59 70.5t-33 88t-8.5 98t12 103l218 1026h47l-219 -1024q-10 -59 -12 -114t15 -103.5t47 -85t83.5 -57.5t124.5 -21q156 0 272 102.5t154 278.5l217 1024
h47l-219 -1024q-41 -196 -169 -311t-306 -115z" />
    <glyph glyph-name="uni01D6" unicode="&#x1d6;" horiz-adv-x="919" 
d="M479 1638l10 37h410l-8 -37h-412zM467 1272l43 201h43l-43 -201h-43zM711 1272l41 201h43l-43 -201h-41zM705 446l137 646h45l-234 -1092h-45l60 283q-64 -143 -163.5 -222t-211.5 -79q-134 0 -188 99t-15 284l156 727h45l-156 -727q-35 -166 10.5 -253t163.5 -87
q115 0 221.5 108t174.5 313z" />
    <glyph glyph-name="uni01D7" unicode="&#x1d7;" horiz-adv-x="1046" 
d="M1014 2030l-197 -197l-26 8l182 209zM657 1520h-49l41 194h49zM870 1520h-47l41 194h49zM406 -16q-68 0 -122 17t-89.5 47.5t-59 70.5t-33 88t-8.5 98t12 103l218 1026h47l-219 -1024q-10 -59 -12 -114t15 -103.5t47 -85t83.5 -57.5t124.5 -21q156 0 272 102.5t154 278.5
l217 1024h47l-219 -1024q-41 -196 -169 -311t-306 -115z" />
    <glyph glyph-name="uni01D8" unicode="&#x1d8;" horiz-adv-x="919" 
d="M840 1829l41 -23l-207 -200l-25 10zM510 1473h43l-43 -201h-43zM795 1473l-43 -201h-41l41 201h43zM705 446l137 646h45l-234 -1092h-45l60 283q-64 -143 -163.5 -222t-211.5 -79q-134 0 -188 99t-15 284l156 727h45l-156 -727q-35 -166 10.5 -253t163.5 -87
q115 0 221.5 108t174.5 313z" />
    <glyph glyph-name="uni01D9" unicode="&#x1d9;" horiz-adv-x="1046" 
d="M774 1827l-104 219l41 10l100 -201l182 201l39 -10l-198 -219h-60zM649 1714h49l-41 -194h-49zM913 1714l-43 -194h-47l41 194h49zM836 410l217 1024h47l-219 -1024q-41 -196 -169 -311t-306 -115q-68 0 -122 17t-89.5 47.5t-59 70.5t-33 88t-8.5 98t12 103l218 1026h47
l-219 -1024q-10 -59 -12 -114t15 -103.5t47 -85t83.5 -57.5t124.5 -21q156 0 272 102.5t154 278.5z" />
    <glyph glyph-name="uni01DA" unicode="&#x1da;" horiz-adv-x="919" 
d="M641 1561l-78 256l39 10l76 -232l174 232l35 -10l-189 -256h-57zM510 1473h43l-43 -201h-43zM795 1473l-43 -201h-41l41 201h43zM705 446l137 646h45l-234 -1092h-45l60 283q-64 -143 -163.5 -222t-211.5 -79q-134 0 -188 99t-15 284l156 727h45l-156 -727
q-35 -166 10.5 -253t163.5 -87q115 0 221.5 108t174.5 313z" />
    <glyph glyph-name="uni01DB" unicode="&#x1db;" horiz-adv-x="1046" 
d="M827 1841l-30 -8l-115 197l51 20zM657 1520h-49l41 194h49zM870 1520h-47l41 194h49zM406 -16q-68 0 -122 17t-89.5 47.5t-59 70.5t-33 88t-8.5 98t12 103l218 1026h47l-219 -1024q-10 -59 -12 -114t15 -103.5t47 -85t83.5 -57.5t124.5 -21q156 0 272 102.5t154 278.5
l217 1024h47l-219 -1024q-41 -196 -169 -311t-306 -115z" />
    <glyph glyph-name="Gcaron" unicode="&#x1e6;" horiz-adv-x="1069" 
d="M752 1530l-105 219l41 10l100 -200l183 200l39 -10l-199 -219h-59zM762 1407q-111 0 -210 -67t-168 -173t-120 -235.5t-75.5 -256.5t-24.5 -235q0 -194 85 -302.5t238 -108.5q164 0 330 116l115 525h-191l11 43h233l-127 -596q-188 -133 -375 -133q-172 0 -269 119
t-97 337q0 81 13.5 173.5t41.5 190t67 190.5t94 176t119 145t146 98.5t170 36.5q172 0 301 -92l-20 -41q-121 90 -287 90z" />
    <glyph glyph-name="gcaron" unicode="&#x1e7;" horiz-adv-x="970" 
d="M592 1221l-78 256l39 10l76 -232l174 232l35 -10l-189 -256h-57zM827 778l66 314h45l-203 -961q-50 -231 -176.5 -364.5t-298.5 -133.5q-150 0 -256 93l23 41q98 -91 237 -91q153 0 266.5 121.5t157.5 331.5l45 197q-77 -169 -183.5 -253.5t-225.5 -84.5
q-126 0 -194.5 84.5t-68.5 238.5q0 130 37 270t100 258t159.5 194.5t203.5 76.5q117 0 187 -89.5t79 -242.5zM342 31q74 0 145.5 45.5t126.5 120.5t97.5 167.5t65 190.5t22.5 184q0 148 -65 238t-173 90q-66 0 -128.5 -33.5t-111 -90.5t-89 -132t-67.5 -158t-41.5 -167.5
t-14.5 -161.5q0 -140 60.5 -216.5t172.5 -76.5z" />
    <glyph glyph-name="uni01EA" unicode="&#x1ea;" horiz-adv-x="1155" 
d="M641 16q-108 -83 -125 -168q-14 -65 25 -93t127 -13l-4 -35q-112 -18 -161.5 18.5t-31.5 114.5q15 76 96 154q-48 -10 -86 -10q-170 0 -267 120t-97 332q0 109 24 239.5t76 268t123.5 250t177.5 184.5t227 72q172 0 270.5 -119t98.5 -334q0 -118 -30.5 -262t-86.5 -288
t-149.5 -263t-206.5 -168zM164 436q0 -188 84 -298.5t235 -110.5q110 0 208 69.5t164.5 177.5t116 239t72.5 255t23 225q0 194 -85 304t-239 110q-80 0 -153.5 -37t-130.5 -100t-106 -145.5t-83 -173.5t-58.5 -184t-36 -177.5t-11.5 -153.5z" />
    <glyph glyph-name="uni01EB" unicode="&#x1eb;" horiz-adv-x="929" 
d="M864 750q0 -84 -19.5 -183t-56 -198t-97 -186.5t-134.5 -137.5l2 -2q-77 -49 -123 -104t-55 -103q-14 -65 24.5 -93t126.5 -13l-4 -35q-111 -18 -160.5 18.5t-31.5 114.5q19 86 108 166q-42 -10 -79 -10q-137 0 -217 96.5t-80 263.5q0 71 13.5 152.5t39.5 168t68.5 165.5
t95.5 142t125.5 100.5t154.5 37.5q137 0 218 -96.5t81 -263.5zM373 27q83 0 157.5 50.5t125.5 130t89 176t56 189t18 168.5q0 148 -69 236t-191 88q-72 0 -136.5 -35.5t-112 -95t-86 -134t-62.5 -154.5t-36.5 -155.5t-12.5 -138.5q0 -149 67 -237t193 -88z" />
    <glyph glyph-name="Aringacute" unicode="&#x1fa;" horiz-adv-x="1052" 
d="M989 2093l41 -20l-196 -197l-27 8zM788 1761q66 0 96.5 -45t16.5 -106q-13 -63 -61.5 -107.5t-114.5 -44.5t-97 44.5t-18 107.5q13 61 62.5 106t115.5 45zM866 1610q10 46 -11.5 81t-72.5 35q-52 0 -89.5 -35t-47.5 -81q-10 -48 12.5 -82.5t73.5 -34.5t88 35t47 82z
M-61 0l745 1434h59l136 -1434h-45l-37 397h-600l-207 -397h-51zM702 1376l-485 -936h576z" />
    <glyph glyph-name="aringacute" unicode="&#x1fb;" horiz-adv-x="970" 
d="M864 1874l41 -23l-207 -200l-24 10zM610 1202q-66 0 -96.5 45t-17.5 107q13 61 62.5 106t115.5 45t96 -44.5t16 -106.5q-13 -62 -61.5 -107t-114.5 -45zM530 1354q-10 -48 12.5 -82.5t73.5 -34.5t88.5 35t47.5 82q10 48 -12 82t-74 34t-89 -34.5t-47 -81.5zM825 766
l70 326h45l-233 -1092h-45l63 299q-72 -147 -176 -231t-213 -84q-126 0 -199.5 94t-73.5 256q0 83 19 183.5t60 205.5t96.5 191t137 141t173.5 55q66 0 117.5 -28.5t84 -78t51 -109t23.5 -128.5zM348 27q128 0 251 142t175 361l4 17q13 64 15 133.5t-11 139t-40 124.5
t-76.5 89t-114.5 34q-83 0 -156.5 -52t-124.5 -133t-88.5 -179.5t-55 -191.5t-17.5 -169q0 -144 62 -229.5t177 -85.5z" />
    <glyph glyph-name="AEacute" unicode="&#x1fc;" horiz-adv-x="1441" 
d="M1331 1753l41 -20l-196 -197l-27 8zM1528 1434l-8 -43h-627l-137 -641h549l-9 -43h-548l-142 -664h641l-10 -43h-686l86 408h-397l-250 -408h-51l880 1434h709zM844 1391l-580 -942h383l201 942h-4z" />
    <glyph glyph-name="aeacute" unicode="&#x1fd;" horiz-adv-x="1427" 
d="M1024 1489l41 -23l-207 -200l-24 10zM1118 1110q123 0 193.5 -77.5t70.5 -215.5q0 -124 -51 -280h-641q-22 -110 -22 -193q0 -145 65.5 -231t188.5 -86q135 0 264 75l2 -43q-132 -75 -273 -75q-136 0 -213 94t-79 258q-60 -144 -172 -248t-244 -104q-97 0 -151 60
t-54 165q0 54 12 109t40.5 111t70 99t107.5 70t147 27q160 0 280 -27q4 17 9 29l20 106q72 334 -196 334q-137 0 -250 -72l-6 39q128 76 262 76q77 0 129 -21.5t78.5 -62t35.5 -89.5t4 -112q68 129 163 207t210 78zM700 578h600q37 132 37 235q0 118 -58.5 186t-164.5 68
q-77 0 -145.5 -42t-119.5 -113.5t-88.5 -155.5t-60.5 -178zM221 27q90 0 177 66.5t147.5 167.5t87.5 214q4 24 16 80q-104 29 -270 29q-72 0 -130 -24t-94.5 -62t-61 -87.5t-34.5 -97.5t-10 -96q0 -190 172 -190z" />
    <glyph glyph-name="oslashacute" unicode="&#x1ff;" horiz-adv-x="929" 
d="M778 1489l41 -23l-207 -200l-24 10zM907 1108l27 -23l-111 -135q41 -80 41 -200q0 -86 -19 -186t-60.5 -203t-98.5 -187t-141 -137t-180 -53q-158 0 -238 125l-100 -123l-29 22l111 133q-41 84 -41 203q0 71 13.5 152.5t39.5 168t68.5 165.5t95.5 142t125.5 100.5
t154.5 37.5q161 0 240 -127zM113 352q0 -94 28 -170l631 762q-68 121 -213 121q-72 0 -136.5 -35.5t-112 -95t-86 -134t-62.5 -154.5t-36.5 -155.5t-12.5 -138.5zM819 741q0 95 -31 168l-628 -764q65 -118 213 -118q83 0 157.5 50.5t125.5 130t89 176t56 189t18 168.5z" />
    <glyph glyph-name="uni0218" unicode="&#x218;" horiz-adv-x="886" 
d="M307 -16q-197 0 -334 90l21 41q127 -86 317 -86q173 0 285.5 110t112.5 262q0 64 -17.5 114t-55.5 89t-73 64t-96 61q-51 33 -83 57t-67 57t-54 64.5t-31.5 74t-12.5 91.5q0 70 31 138t84.5 121t132.5 85.5t168 32.5q165 0 287 -80l-17 -45q-113 80 -272 80
q-152 0 -259.5 -97.5t-107.5 -228.5q0 -55 14.5 -98.5t50 -81.5t70.5 -65t99 -70q62 -37 102.5 -67.5t78.5 -73.5t56.5 -96.5t18.5 -120.5q0 -83 -33 -160t-90.5 -135t-142.5 -92.5t-183 -34.5zM203 -373l-15 31q55 32 85 69.5t34 92.5h-65l14 98h104q10 -211 -157 -291z
" />
    <glyph glyph-name="uni0219" unicode="&#x219;" horiz-adv-x="722" 
d="M236 -16q-151 0 -269 65l17 43q110 -65 258 -65q135 0 219 82.5t84 197.5q0 87 -46 142.5t-143 105.5q-194 96 -194 252q0 126 86.5 213.5t240.5 87.5q131 0 230 -55l-17 -41q-83 53 -215 53t-206 -75t-74 -175q0 -73 43.5 -126.5t138.5 -104.5q103 -53 153 -116.5
t50 -158.5q0 -136 -99.5 -230.5t-256.5 -94.5zM133 -373l-14 31q55 32 85 69.5t34 92.5h-66l14 98h105q10 -211 -158 -291z" />
    <glyph glyph-name="uni021A" unicode="&#x21a;" horiz-adv-x="813" 
d="M223 1434h744l-9 -43h-348l-297 -1391h-47l297 1391h-348zM217 -180l14 98h105q10 -211 -158 -291l-14 31q55 32 85 69.5t34 92.5h-66z" />
    <glyph glyph-name="uni021B" unicode="&#x21b;" horiz-adv-x="632" 
d="M274 -16q-94 0 -128.5 63t-10.5 172l176 830h-131l8 34l101 11l94 209h27l-43 -211h278l-10 -43h-279l-176 -822q-19 -91 8 -145.5t101 -54.5q79 0 147 43l2 -43q-72 -43 -164 -43zM158 -379l-15 31q55 32 85 69.5t34 92.5h-65l14 98h104q10 -211 -157 -291z" />
    <glyph glyph-name="uni0232" unicode="&#x232;" horiz-adv-x="937" 
d="M492 1622h411l-10 -37h-410zM1028 1434h53l-606 -963l-100 -471h-45l100 471l-197 963h48l184 -893z" />
    <glyph glyph-name="uni0233" unicode="&#x233;" horiz-adv-x="874" 
d="M401 1335h410l-8 -37h-412zM332 61l551 1031h49l-586 -1092l-186 -350h-49l184 346l-119 1096h45z" />
    <glyph glyph-name="uni0237" unicode="&#x237;" horiz-adv-x="358" 
d="M-236 -344l11 41q42 -6 63 -6q145 0 193 221l252 1180h45l-252 -1184q-56 -258 -242 -258q-46 0 -70 6z" />
    <glyph glyph-name="uni0259" unicode="&#x259;" horiz-adv-x="870" 
d="M512 1108q137 0 215 -95.5t78 -260.5q0 -75 -15 -159.5t-43 -171t-71.5 -165.5t-96.5 -140t-122.5 -97.5t-145.5 -36.5q-123 0 -194.5 77t-71.5 215q0 137 53 281h639q23 115 23 193q0 146 -65 231.5t-189 85.5q-134 0 -264 -76v43q130 76 270 76zM313 25q77 0 145.5 42
t119.5 113.5t88.5 155.5t60.5 178h-598q-39 -128 -39 -235q0 -118 58.5 -186t164.5 -68z" />
    <glyph glyph-name="uni0272" unicode="&#x272;" horiz-adv-x="917" 
d="M625 1110q134 0 187.5 -99t14.5 -284l-155 -727h-45l155 727q35 166 -10.5 253t-163.5 87q-115 0 -221 -108.5t-174 -313.5l-137 -645h-2l-11 -53q-58 -266 -284 -266q-46 0 -80 24l14 43q31 -24 72 -24q187 0 233 227l78 364q32 141 41 179l127 598h45l-59 -283
q64 143 163.5 222t211.5 79z" />
    <glyph glyph-name="uni02B0" unicode="&#x2b0;" horiz-adv-x="450" 
d="M465 1524q67 0 95 -58.5t5 -162.5l-71 -334h-41l71 323q19 89 -1.5 141t-76.5 52q-59 0 -112 -63.5t-74 -166.5v2l-61 -288h-41l164 757h38l-67 -319q30 54 74.5 85.5t97.5 31.5z" />
    <glyph glyph-name="circumflex" unicode="&#x2c6;" horiz-adv-x="546" 
d="M496 1481l86 -256l-41 -8l-78 231l-174 -231l-37 10l190 254h54z" />
    <glyph glyph-name="caron" unicode="&#x2c7;" horiz-adv-x="542" 
d="M422 1255l176 232l35 -10l-191 -256h-55l-80 256l39 10z" />
    <glyph glyph-name="breve" unicode="&#x2d8;" horiz-adv-x="542" 
d="M582 1444h39q-20 -100 -73 -154.5t-132 -54.5q-78 0 -108 52.5t-9 156.5h39q-19 -84 3 -128t83 -44q121 0 158 172z" />
    <glyph glyph-name="dotaccent" unicode="&#x2d9;" horiz-adv-x="268" 
d="M309 1253h-49l43 201h49z" />
    <glyph glyph-name="ring" unicode="&#x2da;" horiz-adv-x="509" 
d="M395 1202q-66 0 -96.5 45t-17.5 107q13 61 62.5 106t115.5 45t96 -44.5t16 -106.5q-11 -61 -60.5 -106.5t-115.5 -45.5zM401 1237q51 0 88.5 35t47.5 82q10 48 -11.5 82t-72.5 34q-53 0 -90.5 -34.5t-47.5 -81.5q-10 -48 12.5 -82.5t73.5 -34.5z" />
    <glyph glyph-name="ogonek" unicode="&#x2db;" horiz-adv-x="428" 
d="M90 14l27 -14q-77 -49 -123 -104t-55 -103q-14 -65 24.5 -93t126.5 -13l-4 -35q-111 -18 -160.5 18.5t-31.5 114.5q25 123 196 229z" />
    <glyph glyph-name="tilde" unicode="&#x2dc;" horiz-adv-x="602" 
d="M297 1264l-35 6q15 73 51 114t86 41q27 0 49 -18t35 -40t31 -40t37 -18q32 0 58 32t38 89l33 -5q-13 -73 -49.5 -115t-83.5 -42q-28 0 -50.5 18.5t-35 40.5t-30.5 40.5t-38 18.5q-33 0 -58.5 -32t-37.5 -90z" />
    <glyph glyph-name="hungarumlaut" unicode="&#x2dd;" horiz-adv-x="624" 
d="M494 1466l-205 -200l-25 10l189 213zM711 1466l-205 -200l-25 10l189 213z" />
    <glyph glyph-name="uni02E1" unicode="&#x2e1;" horiz-adv-x="178" 
d="M197 969h-39l164 760h38z" />
    <glyph glyph-name="uni02E2" unicode="&#x2e2;" horiz-adv-x="393" 
d="M274 958q-75 0 -131 43l19 37q52 -43 119 -43q53 0 93.5 31t49.5 76q10 48 -11.5 79.5t-74.5 59.5q-60 29 -85 64.5t-13 87.5q13 63 61.5 101t114.5 38q65 0 112 -37l-16 -35q-44 35 -100 35q-49 0 -85.5 -28t-45.5 -72q-9 -41 13 -70t75 -57q60 -31 84.5 -69.5
t11.5 -96.5q-12 -62 -65 -103t-126 -41z" />
    <glyph glyph-name="gravecomb" unicode="&#x300;" 
d="M47 1276l-31 -10l-120 200l51 23z" />
    <glyph glyph-name="acutecomb" unicode="&#x301;" 
d="M86 1466l-207 -200l-24 10l190 213z" />
    <glyph glyph-name="uni0302" unicode="&#x302;" 
d="M-51 1481l86 -256l-41 -8l-78 231l-174 -231l-37 10l191 254h53z" />
    <glyph glyph-name="tildecomb" unicode="&#x303;" 
d="M-305 1264l-35 6q15 73 51 114t86 41q27 0 49 -18t35 -40t31 -40t37 -18q32 0 58 32t38 89l33 -5q-13 -73 -49.5 -115t-83.5 -42q-28 0 -50.5 18.5t-35 40.5t-30.5 40.5t-38 18.5q-33 0 -58.5 -32t-37.5 -90z" />
    <glyph glyph-name="uni0304" unicode="&#x304;" 
d="M51 1298h-411l10 37h409z" />
    <glyph glyph-name="uni0306" unicode="&#x306;" 
d="M43 1444h39q-20 -100 -73 -154.5t-132 -54.5q-78 0 -108 52.5t-9 156.5h39q-19 -84 3 -128t83 -44q121 0 158 172z" />
    <glyph glyph-name="uni0307" unicode="&#x307;" 
d="M39 1253h-49l43 201h49z" />
    <glyph glyph-name="uni0308" unicode="&#x308;" 
d="M-197 1272h-43l43 201h43zM45 1272h-41l41 201h43z" />
    <glyph glyph-name="hookabovecomb" unicode="&#x309;" 
d="M-74 1217l-20 20q101 64 114 131q11 52 -29 71t-106 -12l2 33q84 38 135 9.5t37 -95.5q-16 -80 -133 -157z" />
    <glyph glyph-name="uni030A" unicode="&#x30a;" 
d="M-113 1202q-66 0 -96.5 45t-17.5 107q13 61 62.5 106t115.5 45t96 -44.5t16 -106.5q-13 -62 -61.5 -107t-114.5 -45zM-106 1237q51 0 88 35t47 82q10 48 -12 82t-74 34t-89 -34.5t-47 -81.5t13 -82t74 -35z" />
    <glyph glyph-name="uni030B" unicode="&#x30b;" 
d="M-131 1466l-205 -200l-24 10l188 213zM86 1466l-205 -200l-24 10l188 213z" />
    <glyph glyph-name="uni030C" unicode="&#x30c;" 
d="M-119 1255l174 232l35 -10l-188 -256h-58l-77 256l38 10z" />
    <glyph glyph-name="uni0312" unicode="&#x312;" 
d="M74 1491l12 -27q-56 -35 -86.5 -72t-34.5 -92h64l-21 -94h-98q0 202 164 285z" />
    <glyph glyph-name="uni031B" unicode="&#x31b;" 
d="M-150 1069l19 33q34 -3 57 3t44 27.5t33 69.5t15 123l43 4q-4 -154 -58.5 -216.5t-152.5 -43.5z" />
    <glyph glyph-name="dotbelowcomb" unicode="&#x323;" 
d="M-338 -299l45 201h47l-43 -201h-49z" />
    <glyph glyph-name="uni0324" unicode="&#x324;" 
d="M-541 -338h-43l43 203h43zM-299 -338h-41l41 203h43z" />
    <glyph glyph-name="uni0326" unicode="&#x326;" 
d="M-356 -373l-15 31q55 32 85 69.5t34 92.5h-65l14 98h104q10 -211 -157 -291z" />
    <glyph glyph-name="uni0327" unicode="&#x327;" 
d="M-356 4l-43 -84q74 -6 112 -44t25 -99q-11 -59 -66 -99t-143 -40q-68 0 -117 18l17 35q38 -19 104 -19q70 0 113 31t51 76q12 53 -29.5 83t-118.5 32l58 110h37z" />
    <glyph glyph-name="uni0328" unicode="&#x328;" 
d="M-246 14l27 -14q-77 -49 -123 -104t-55 -103q-14 -65 24.5 -93t126.5 -13l-4 -35q-111 -18 -160.5 18.5t-31.5 114.5q25 123 196 229z" />
    <glyph glyph-name="uni032E" unicode="&#x32e;" 
d="M-285 -86h39q-20 -83 -72.5 -127.5t-130.5 -44.5q-76 0 -106.5 43t-9.5 129h39q-36 -143 86 -143q118 0 155 143z" />
    <glyph glyph-name="uni0331" unicode="&#x331;" 
d="M-276 -236h-412l8 37h412z" />
    <glyph glyph-name="uni0335" unicode="&#x335;" 
d="M-461 653l8 39h422l-6 -39h-424z" />
    <glyph glyph-name="uni0336" unicode="&#x336;" 
d="M-764 815l8 39h736l-9 -39h-735z" />
    <glyph glyph-name="uni0337" unicode="&#x337;" 
d="M-420 592l-8 33l350 163l8 -32z" />
    <glyph glyph-name="uni0338" unicode="&#x338;" 
d="M-1145 -14l-29 22l910 1100l26 -23z" />
    <glyph glyph-name="tonos" unicode="&#x384;" horiz-adv-x="311" 
d="M426 1487l-92 -260h-33l80 260h45z" />
    <glyph glyph-name="dieresistonos" unicode="&#x385;" horiz-adv-x="542" 
d="M582 1595l-90 -262h-31l80 262h41zM319 1176h-40l43 198h38zM621 1176h-39l41 198h41z" />
    <glyph glyph-name="Alphatonos" unicode="&#x386;" horiz-adv-x="1052" 
d="M879 0h-45l-39 403h-594l-211 -403h-51l747 1434h55zM365 1434h45l-91 -263h-32zM702 1370l-479 -924h568z" />
    <glyph glyph-name="Epsilontonos" unicode="&#x388;" horiz-adv-x="937" 
d="M1024 1434l-8 -43h-627l-137 -641h547l-8 -43h-547l-142 -664h639l-10 -43h-686l305 1434h674zM188 1434h45l-90 -263h-32z" />
    <glyph glyph-name="Etatonos" unicode="&#x389;" horiz-adv-x="1097" 
d="M932 748l145 686h47l-305 -1434h-47l150 705h-680l-150 -705h-47l305 1434h47l-145 -686h680zM182 1434h45l-90 -263h-33z" />
    <glyph glyph-name="Iotatonos" unicode="&#x38a;" horiz-adv-x="370" 
d="M92 0h-47l305 1434h47zM227 1434l-90 -263h-33l78 263h45z" />
    <glyph glyph-name="Omicrontonos" unicode="&#x38c;" horiz-adv-x="1155" 
d="M481 -16q-170 0 -267 120t-97 332q0 109 24 239.5t76 268t123.5 250t177.5 184.5t227 72q172 0 270.5 -119t98.5 -334q0 -76 -12.5 -165.5t-39 -187.5t-64 -192t-90.5 -179t-115.5 -149t-143 -102t-168.5 -38zM227 1434l-90 -263h-33l78 263h45zM483 27q110 0 208 69.5
t164.5 177.5t116 239t72.5 255t23 225q0 194 -85 304t-239 110q-80 0 -153.5 -37t-130.5 -100t-106 -145.5t-83 -173.5t-58.5 -184t-36 -177.5t-11.5 -153.5q0 -188 84 -298.5t235 -110.5z" />
    <glyph glyph-name="Upsilontonos" unicode="&#x38e;" horiz-adv-x="937" 
d="M121 1171h-33l78 263h45zM1028 1434h53l-606 -963l-100 -471h-45l100 471l-197 963h48l184 -893z" />
    <glyph glyph-name="Omegatonos" unicode="&#x38f;" horiz-adv-x="1089" 
d="M737 1450q196 0 284 -149.5t32 -413.5q-18 -88 -56.5 -181.5t-77 -165t-108.5 -173.5t-112.5 -158.5t-127.5 -167.5l269 2l-11 -43h-309l10 41q78 101 125.5 164.5t112.5 159.5t105 171t77.5 167.5t55.5 179.5q50 235 -24 378.5t-255 143.5q-175 0 -312 -138t-188 -384
q-18 -88 -20 -180t6.5 -168t32 -170t44.5 -160.5t56 -163.5l-10 -41h-311l10 43l266 -2q-37 109 -55 167t-43.5 159t-33.5 173.5t-6.5 165.5t19.5 181q54 252 203 407.5t352 155.5zM201 1434h45l-90 -263h-33z" />
    <glyph glyph-name="iotadieresistonos" unicode="&#x390;" horiz-adv-x="405" 
d="M416 1595l-90 -262h-31l80 262h41zM154 1176h-41l43 198h39zM455 1176h-39l41 198h41zM211 -16q-99 0 -138.5 57t-13.5 180l187 871h45l-185 -865q-24 -108 6.5 -154t108.5 -46q17 0 33 4l-4 -43q-12 -4 -39 -4z" />
    <glyph glyph-name="Alpha" unicode="&#x391;" horiz-adv-x="1052" 
d="M879 0h-45l-39 403h-594l-211 -403h-51l747 1434h55zM702 1370l-479 -924h568z" />
    <glyph glyph-name="Beta" unicode="&#x392;" horiz-adv-x="1030" 
d="M664 743q114 -19 175.5 -87t61.5 -181q0 -67 -17.5 -132t-57.5 -127.5t-97.5 -110t-144 -76.5t-191.5 -29h-348l305 1434h320q151 0 236 -70t85 -199q0 -89 -33 -173t-109.5 -154t-184.5 -95zM649 1391h-260l-135 -631h285q79 0 147 23t114.5 62t79.5 90t48.5 106.5
t15.5 111.5q0 238 -295 238zM102 43h287q96 0 175.5 25t132 66.5t89 97t52.5 114.5t16 121q0 121 -76 185.5t-231 64.5h-301z" />
    <glyph glyph-name="Gamma" unicode="&#x393;" horiz-adv-x="804" 
d="M45 0l305 1434h608l-8 -43h-561l-297 -1391h-47z" />
    <glyph glyph-name="uni0394" unicode="&#x394;" horiz-adv-x="1017" 
d="M672 1434h51l121 -1434h-905zM680 1358l-672 -1315h785z" />
    <glyph glyph-name="Epsilon" unicode="&#x395;" horiz-adv-x="937" 
d="M1024 1434l-8 -43h-627l-137 -641h547l-8 -43h-547l-142 -664h639l-10 -43h-686l305 1434h674z" />
    <glyph glyph-name="Zeta" unicode="&#x396;" horiz-adv-x="901" 
d="M694 0h-727l6 31l961 1360h-655l8 43h717l-7 -29l-962 -1362h670z" />
    <glyph glyph-name="Eta" unicode="&#x397;" horiz-adv-x="1097" 
d="M932 748l145 686h47l-305 -1434h-47l150 705h-680l-150 -705h-47l305 1434h47l-145 -686h680z" />
    <glyph glyph-name="Theta" unicode="&#x398;" horiz-adv-x="1155" 
d="M481 -16q-170 0 -267 120t-97 332q0 109 24 239.5t76 268t123.5 250t177.5 184.5t227 72q172 0 270.5 -119t98.5 -334q0 -76 -12.5 -165.5t-39 -187.5t-64 -192t-90.5 -179t-115.5 -149t-143 -102t-168.5 -38zM483 27q110 0 208 69.5t164.5 177.5t116 239t72.5 255
t23 225q0 194 -85 304t-239 110q-80 0 -153.5 -37t-130.5 -100t-106 -145.5t-83 -173.5t-58.5 -184t-36 -177.5t-11.5 -153.5q0 -188 84 -298.5t235 -110.5zM293 698l6 37h635l-8 -37h-633z" />
    <glyph glyph-name="Iota" unicode="&#x399;" horiz-adv-x="370" 
d="M92 0h-47l305 1434h47z" />
    <glyph glyph-name="Kappa" unicode="&#x39a;" horiz-adv-x="991" 
d="M1028 1434h55l-505 -605l243 -829h-49l-231 786l-377 -446l-72 -340h-47l305 1434h47l-215 -1008z" />
    <glyph glyph-name="Lambda" unicode="&#x39b;" horiz-adv-x="1019" 
d="M723 1434l123 -1434h-47l-117 1360l-694 -1360h-49l735 1434h49z" />
    <glyph glyph-name="Mu" unicode="&#x39c;" horiz-adv-x="1341" 
d="M582 115l696 1319h49l-240 -1434h-45l215 1298l-684 -1296h-26l-144 1296l-337 -1298h-46l371 1434h43z" />
    <glyph glyph-name="Nu" unicode="&#x39d;" horiz-adv-x="1103" 
d="M90 0h-45l305 1434h45l404 -1338l284 1338h45l-305 -1434h-43l-403 1339z" />
    <glyph glyph-name="Xi" unicode="&#x39e;" horiz-adv-x="886" 
d="M979 1391h-711l8 43h711zM752 707h-551l10 43h549zM682 0h-711l11 43h708z" />
    <glyph glyph-name="Omicron" unicode="&#x39f;" horiz-adv-x="1155" 
d="M481 -16q-170 0 -267 120t-97 332q0 109 24 239.5t76 268t123.5 250t177.5 184.5t227 72q172 0 270.5 -119t98.5 -334q0 -76 -12.5 -165.5t-39 -187.5t-64 -192t-90.5 -179t-115.5 -149t-143 -102t-168.5 -38zM483 27q110 0 208 69.5t164.5 177.5t116 239t72.5 255
t23 225q0 194 -85 304t-239 110q-80 0 -153.5 -37t-130.5 -100t-106 -145.5t-83 -173.5t-58.5 -184t-36 -177.5t-11.5 -153.5q0 -188 84 -298.5t235 -110.5z" />
    <glyph glyph-name="Pi" unicode="&#x3a0;" horiz-adv-x="1073" 
d="M1098 1434l-305 -1434h-45l296 1391h-655l-297 -1391h-47l305 1434h748z" />
    <glyph glyph-name="Rho" unicode="&#x3a1;" horiz-adv-x="954" 
d="M598 1434q185 0 289 -85.5t104 -244.5q0 -78 -19.5 -156.5t-64.5 -155.5t-110 -136t-164 -95.5t-219 -36.5h-211l-111 -524h-47l305 1434h248zM213 569h199q108 0 198.5 32.5t151 85t102.5 122t61 142t19 145.5q0 139 -87.5 217t-256.5 78h-211z" />
    <glyph glyph-name="Sigma" unicode="&#x3a3;" horiz-adv-x="868" 
d="M662 0h-689l9 39l522 694l-234 662l6 39h691l-9 -43h-639l232 -658l-518 -690h639z" />
    <glyph glyph-name="Tau" unicode="&#x3a4;" horiz-adv-x="813" 
d="M223 1434h744l-9 -43h-348l-297 -1391h-47l297 1391h-348z" />
    <glyph glyph-name="Upsilon" unicode="&#x3a5;" horiz-adv-x="937" 
d="M1028 1434h53l-606 -963l-100 -471h-45l100 471l-197 963h48l184 -893z" />
    <glyph glyph-name="Phi" unicode="&#x3a6;" horiz-adv-x="1193" 
d="M807 1434l-33 -156q214 -2 307.5 -151.5t38.5 -409.5q-55 -259 -212 -409.5t-373 -153.5v2l-33 -156h-45l32 154q-212 5 -305.5 155t-38.5 408q55 257 212.5 407.5t371.5 153.5l33 156h45zM1073 717q52 240 -31.5 378.5t-275.5 141.5l-223 -1040q196 5 337.5 142.5
t192.5 377.5zM193 717q-52 -237 31 -376t274 -144l223 1040q-195 -5 -336 -142.5t-192 -377.5z" />
    <glyph glyph-name="Chi" unicode="&#x3a7;" horiz-adv-x="913" 
d="M981 1436h55l-510 -705l217 -731h-47l-204 692l-500 -692h-55l532 733l-215 703h49l197 -668z" />
    <glyph glyph-name="Psi" unicode="&#x3a8;" horiz-adv-x="1071" 
d="M938 784l137 650h49l-137 -648q-39 -180 -158 -285t-305 -108l-84 -393h-47l84 393q-180 4 -255 108.5t-36 289.5l138 643h47l-138 -648q-35 -159 28 -252.5t224 -97.5l213 998h47l-213 -998q160 0 265 91t141 257z" />
    <glyph glyph-name="uni03A9" unicode="&#x3a9;" horiz-adv-x="1089" 
d="M737 1450q196 0 284 -149.5t32 -413.5q-18 -88 -56.5 -181.5t-77 -165t-108.5 -173.5t-112.5 -158.5t-127.5 -167.5l269 2l-11 -43h-309l10 41q78 101 125.5 164.5t112.5 159.5t105 171t77.5 167.5t55.5 179.5q50 235 -24 378.5t-255 143.5q-175 0 -312 -138t-188 -384
q-18 -88 -20 -180t6.5 -168t32 -170t44.5 -160.5t56 -163.5l-10 -41h-311l10 43l266 -2q-37 109 -55 167t-43.5 159t-33.5 173.5t-6.5 165.5t19.5 181q54 252 203 407.5t352 155.5z" />
    <glyph glyph-name="Iotadieresis" unicode="&#x3aa;" horiz-adv-x="370" 
d="M311 1614h-43l43 201h43zM553 1614h-41l41 201h43zM92 0h-47l305 1434h47z" />
    <glyph glyph-name="Upsilondieresis" unicode="&#x3ab;" horiz-adv-x="937" 
d="M596 1815h43l-43 -201h-43zM838 1815h43l-43 -201h-41zM1028 1434h53l-606 -963l-100 -471h-45l100 471l-197 963h48l184 -893z" />
    <glyph glyph-name="alphatonos" unicode="&#x3ac;" horiz-adv-x="983" 
d="M686 1487h45l-92 -260h-33zM825 758l82 334h45l-135 -545l-98 -547h-45l61 336q-74 -162 -186 -257t-230 -95q-159 0 -224 150t-9 413q54 254 182 408.5t289 154.5q117 0 190.5 -96t77.5 -256zM336 25q138 0 264.5 148.5t173.5 373.5t-16 372.5t-199 147.5
q-143 0 -258.5 -138.5t-167.5 -381.5q-51 -236 3.5 -379t199.5 -143z" />
    <glyph glyph-name="epsilontonos" unicode="&#x3ad;" horiz-adv-x="706" 
d="M635 1487l-92 -260h-33l80 260h45zM258 -16q-129 0 -196 85.5t-39 217.5q24 112 92 187t159 97q-76 20 -111 91t-13 167q27 131 125 206t233 75q65 0 126.5 -21t104.5 -55l-18 -41q-90 74 -217 74q-117 0 -202.5 -66.5t-108.5 -175.5q-23 -107 30.5 -171t159.5 -64h129
l-8 -39h-127q-112 0 -197.5 -73t-111.5 -189q-24 -118 35.5 -190t170.5 -72q146 0 267 79l2 -43q-51 -35 -129 -57t-156 -22z" />
    <glyph glyph-name="etatonos" unicode="&#x3ae;" horiz-adv-x="917" 
d="M682 1487h45l-92 -260h-33zM625 1110q134 0 187.5 -99t14.5 -284l-153 -719v-6l-76 -352h-45l74 350l155 727q35 166 -10.5 253t-163.5 87q-115 0 -221 -108.5t-174 -313.5l-137 -645h-45l233 1092h45l-59 -283q64 143 163.5 222t211.5 79z" />
    <glyph glyph-name="iotatonos" unicode="&#x3af;" horiz-adv-x="405" 
d="M399 1487l-92 -260h-33l80 260h45zM211 -16q-99 0 -138.5 57t-13.5 180l187 871h45l-185 -865q-24 -108 6.5 -154t108.5 -46q17 0 33 4l-4 -43q-12 -4 -39 -4z" />
    <glyph glyph-name="upsilondieresistonos" unicode="&#x3b0;" horiz-adv-x="899" 
d="M715 1595l-90 -262h-31l80 262h41zM453 1176h-41l43 198h39zM754 1176h-39l41 198h41zM690 383l152 709h45l-152 -709q-41 -190 -149.5 -294.5t-255.5 -104.5q-141 0 -209 102t-27 297l152 709h45l-152 -709q-36 -171 19 -263.5t182 -92.5q120 0 217 90.5t133 265.5z" />
    <glyph glyph-name="alpha" unicode="&#x3b1;" horiz-adv-x="983" 
d="M825 758l82 334h45l-135 -545l-98 -547h-45l61 336q-74 -162 -186 -257t-230 -95q-159 0 -224 150t-9 413q54 254 182 408.5t289 154.5q117 0 190.5 -96t77.5 -256zM336 25q138 0 264.5 148.5t173.5 373.5t-16 372.5t-199 147.5q-143 0 -258.5 -138.5t-167.5 -381.5
q-51 -236 3.5 -379t199.5 -143z" />
    <glyph glyph-name="beta" unicode="&#x3b2;" horiz-adv-x="897" 
d="M8 -350h-43l318 1495q33 156 121 249t212 93q122 0 175.5 -93t17.5 -259q-22 -100 -86 -189.5t-141 -120.5q125 -20 180 -131.5t18 -279.5q-40 -194 -159 -312t-283 -118q-147 0 -238 94zM328 1145l-217 -1016q44 -48 104.5 -76t126.5 -28q146 0 251 106t142 283
q36 169 -24 275t-197 106h-123l10 41h80q95 0 176 86t107 213q30 142 -11 225.5t-145 83.5q-100 0 -175 -78t-105 -221z" />
    <glyph glyph-name="gamma" unicode="&#x3b3;" horiz-adv-x="880" 
d="M889 1092h47l-574 -1014l-90 -428h-45l90 432l-141 1010h49l129 -949z" />
    <glyph glyph-name="delta" unicode="&#x3b4;" horiz-adv-x="858" 
d="M381 1511h518l-8 -41h-477q34 -42 65 -85t68.5 -100t68 -116.5t60.5 -127.5t49.5 -140t31.5 -146.5t10 -155.5t-19 -159q-41 -196 -161.5 -325t-277.5 -129q-154 0 -221.5 123.5t-24.5 326.5q31 150 97.5 267t165.5 211.5t260 205.5q-77 152 -221 348zM702 440
q65 302 -98 647q-236 -162 -343.5 -301.5t-151.5 -349.5q-22 -116 -9 -207t70 -146.5t147 -55.5q134 0 240.5 114.5t144.5 298.5z" />
    <glyph glyph-name="epsilon" unicode="&#x3b5;" horiz-adv-x="706" 
d="M258 -16q-129 0 -196 85.5t-39 217.5q24 112 92 187t159 97q-76 20 -111 91t-13 167q27 131 125 206t233 75q65 0 126.5 -21t104.5 -55l-18 -41q-90 74 -217 74q-117 0 -202.5 -66.5t-108.5 -175.5q-23 -107 30.5 -171t159.5 -64h129l-8 -39h-127q-112 0 -197.5 -73
t-111.5 -189q-24 -118 35.5 -190t170.5 -72q146 0 267 79l2 -43q-51 -35 -129 -57t-156 -22z" />
    <glyph glyph-name="zeta" unicode="&#x3b6;" horiz-adv-x="669" 
d="M352 1511h479l-12 -36l4 -7q-611 -563 -694 -964q-28 -128 12.5 -218t161.5 -161q138 -78 176 -128t17 -142q-9 -46 -36.5 -93t-74.5 -112h-45q34 45 51 69t36 61.5t26 69.5q18 82 -17.5 126t-165.5 114q-129 72 -173.5 170t-12.5 244q87 411 690 966h-430z" />
    <glyph glyph-name="eta" unicode="&#x3b7;" horiz-adv-x="917" 
d="M625 1110q134 0 187.5 -99t14.5 -284l-153 -719v-6l-76 -352h-45l74 350l155 727q35 166 -10.5 253t-163.5 87q-115 0 -221 -108.5t-174 -313.5l-137 -645h-45l233 1092h45l-59 -283q64 143 163.5 222t211.5 79z" />
    <glyph glyph-name="theta" unicode="&#x3b8;" horiz-adv-x="935" 
d="M676 1524q116 0 182.5 -92.5t75.5 -263.5t-41 -414q-47 -227 -127 -399.5t-188 -271.5t-228 -99q-117 0 -184 92.5t-76 263.5t41 414q47 227 127 399.5t188.5 271.5t229.5 99zM180 772h672q67 316 19 512.5t-205 196.5q-155 0 -284.5 -189.5t-201.5 -519.5zM358 27
q155 0 284.5 189t201.5 517h-672q-67 -317 -19 -511.5t205 -194.5z" />
    <glyph glyph-name="iota" unicode="&#x3b9;" horiz-adv-x="405" 
d="M211 -16q-99 0 -138.5 57t-13.5 180l187 871h45l-185 -865q-24 -108 6.5 -154t108.5 -46q17 0 33 4l-4 -43q-12 -4 -39 -4z" />
    <glyph glyph-name="kappa" unicode="&#x3ba;" horiz-adv-x="786" 
d="M772 1092h51l-397 -547l184 -545h-51l-176 524h-195l-112 -524h-45l233 1092h45l-112 -525h196z" />
    <glyph glyph-name="lambda" unicode="&#x3bb;" horiz-adv-x="866" 
d="M-10 0h-47l585 1098l-20 217q-10 83 -32 119t-73 36l9 41q71 1 99.5 -41t39.5 -141l137 -1329h-45l-106 1022z" />
    <glyph glyph-name="uni03BC" unicode="&#x3bc;" horiz-adv-x="919" 
d="M702 440l142 652h45l-236 -1092h-45l60 279q-66 -140 -165 -218.5t-210 -78.5q-168 0 -209 151l-100 -485h-45l143 676q1 7 4 20.5t4 20.5l156 727h45l-156 -727q-35 -165 11 -252.5t163 -87.5q115 0 220 106t173 309z" />
    <glyph glyph-name="nu" unicode="&#x3bd;" horiz-adv-x="874" 
d="M344 0h-49l-119 1092h45l111 -1031l549 1031h51z" />
    <glyph glyph-name="xi" unicode="&#x3be;" horiz-adv-x="716" 
d="M385 -352h-47q101 129 115 198q14 66 -25.5 115.5t-165.5 122.5q-137 82 -178 168.5t-12 228.5q35 156 116.5 257t198.5 122q-78 21 -108 105.5t0 226.5q30 144 127 240t223 96q127 0 219 -68l-21 -39q-87 66 -206 66q-105 0 -187 -82.5t-110 -212.5q-31 -145 12.5 -229
t150.5 -84h105l-8 -41h-119q-124 0 -217.5 -95t-128.5 -262q-29 -132 11 -212t163 -150q132 -74 175 -132t28 -137q-17 -75 -111 -202z" />
    <glyph glyph-name="omicron" unicode="&#x3bf;" horiz-adv-x="929" 
d="M365 -16q-137 0 -217 96.5t-80 263.5q0 71 13.5 152.5t39.5 168t68.5 165.5t95.5 142t125.5 100.5t154.5 37.5q137 0 218 -96.5t81 -263.5q0 -86 -19 -186t-60.5 -203t-98.5 -187t-141 -137t-180 -53zM373 27q83 0 157.5 50.5t125.5 130t89 176t56 189t18 168.5
q0 148 -69 236t-191 88q-72 0 -136.5 -35.5t-112 -95t-86 -134t-62.5 -154.5t-36.5 -155.5t-12.5 -138.5q0 -149 67 -237t193 -88z" />
    <glyph glyph-name="pi" unicode="&#x3c0;" horiz-adv-x="923" 
d="M893 1092l-234 -1092h-45l226 1051h-539l-225 -1051h-45l233 1092h629z" />
    <glyph glyph-name="rho" unicode="&#x3c1;" horiz-adv-x="960" 
d="M-16 -350h-45l190 897q55 254 188 408.5t304 154.5q168 0 238.5 -149.5t14.5 -411.5q-55 -256 -184 -410.5t-295 -154.5q-124 0 -196 93t-72 249zM174 547q-16 -76 -18 -150t12.5 -141t43 -118t77 -81t110.5 -30q143 0 260 138t170 382q50 234 -8 377t-209 143
q-148 0 -267 -138.5t-171 -381.5z" />
    <glyph glyph-name="uni03C2" unicode="&#x3c2;" horiz-adv-x="763" 
d="M406 -350h-48q95 130 111 200q6 29 7 49.5t-8 42t-20 36t-41 37.5t-58.5 42t-84.5 54q-234 167 -166 493q46 220 180.5 363t301.5 143q134 0 225 -88l-25 -39q-84 84 -207 84q-148 0 -267.5 -130t-162.5 -331q-33 -164 11.5 -279t142.5 -182q162 -104 199 -152t18 -138
q-16 -72 -108 -205z" />
    <glyph glyph-name="sigma" unicode="&#x3c3;" horiz-adv-x="954" 
d="M983 1092l-10 -43q-40 0 -79 3t-97.5 9t-77.5 8q70 -42 107.5 -124t37.5 -195q0 -86 -19 -186t-60.5 -203t-98.5 -187t-141 -137t-180 -53q-137 0 -217 96.5t-80 263.5q0 71 13.5 152.5t39.5 168t68.5 165.5t95.5 142t125.5 100.5t154.5 37.5h19q66 0 198 -9t201 -9z
M819 741q0 148 -69 236t-191 88q-72 0 -136.5 -35.5t-112 -95t-86 -134t-62.5 -154.5t-36.5 -155.5t-12.5 -138.5q0 -149 67 -237t193 -88q83 0 157.5 50.5t125.5 130t89 176t56 189t18 168.5z" />
    <glyph glyph-name="tau" unicode="&#x3c4;" horiz-adv-x="587" 
d="M610 1051h-227l-178 -824q-24 -107 7.5 -153.5t109.5 -46.5q12 0 32 4l-4 -43q-14 -4 -41 -4q-99 0 -137.5 57t-11.5 180l178 830h-156l8 41h428z" />
    <glyph glyph-name="upsilon" unicode="&#x3c5;" horiz-adv-x="899" 
d="M690 383l152 709h45l-152 -709q-41 -190 -149.5 -294.5t-255.5 -104.5q-141 0 -209 102t-27 297l152 709h45l-152 -709q-36 -171 19 -263.5t182 -92.5q120 0 217 90.5t133 265.5z" />
    <glyph glyph-name="phi" unicode="&#x3c6;" horiz-adv-x="1071" 
d="M745 1434l-69 -330q194 0 279 -147.5t30 -409.5q-55 -252 -202.5 -405t-344.5 -154l-71 -336h-43l71 336q-194 3 -279 151t-30 408q55 251 202 403.5t345 153.5l69 330h43zM131 547q-31 -154 -11 -268t94.5 -179.5t191.5 -66.5l217 1028q-174 -2 -307 -138t-185 -376z
M940 547q50 233 -23 373.5t-251 140.5l-217 -1028q174 0 306.5 136t184.5 378z" />
    <glyph glyph-name="chi" unicode="&#x3c7;" horiz-adv-x="839" 
d="M834 1092h49l-467 -707l174 -735h-49l-162 692l-461 -692h-49l489 731l-165 711h49l153 -664z" />
    <glyph glyph-name="psi" unicode="&#x3c8;" horiz-adv-x="1050" 
d="M829 408l146 684h45l-146 -684q-39 -177 -154 -279.5t-292 -105.5l-80 -373h-43l78 373q-169 5 -245.5 106t-37.5 279l146 684h45l-146 -684q-34 -155 31.5 -248t216.5 -94l219 1026h45l-219 -1026q150 2 253 91.5t138 250.5z" />
    <glyph glyph-name="omega" unicode="&#x3c9;" horiz-adv-x="1259" 
d="M74 487q62 288 274 605h47q-214 -326 -276 -605q-47 -221 -11.5 -340.5t152.5 -119.5q238 0 330 438l55 256h45l-55 -256q-47 -218 -13 -328t156 -110q117 0 203.5 119t134.5 341q56 265 -18 605h47q72 -337 16 -605q-53 -241 -152 -372t-233 -131q-228 0 -201 309
q-109 -309 -327 -309q-137 0 -181.5 130t7.5 373z" />
    <glyph glyph-name="iotadieresis" unicode="&#x3ca;" horiz-adv-x="405" 
d="M207 1272h-43l43 201h43zM449 1272h-41l41 201h43zM211 -16q-99 0 -138.5 57t-13.5 180l187 871h45l-185 -865q-24 -108 6.5 -154t108.5 -46q17 0 33 4l-4 -43q-12 -4 -39 -4z" />
    <glyph glyph-name="upsilondieresis" unicode="&#x3cb;" horiz-adv-x="899" 
d="M504 1272h-43l43 201h43zM745 1272h-40l40 201h43zM690 383l152 709h45l-152 -709q-41 -190 -149.5 -294.5t-255.5 -104.5q-141 0 -209 102t-27 297l152 709h45l-152 -709q-36 -171 19 -263.5t182 -92.5q120 0 217 90.5t133 265.5z" />
    <glyph glyph-name="omicrontonos" unicode="&#x3cc;" horiz-adv-x="929" 
d="M711 1487l-93 -260h-32l80 260h45zM365 -16q-137 0 -217 96.5t-80 263.5q0 71 13.5 152.5t39.5 168t68.5 165.5t95.5 142t125.5 100.5t154.5 37.5q137 0 218 -96.5t81 -263.5q0 -86 -19 -186t-60.5 -203t-98.5 -187t-141 -137t-180 -53zM373 27q83 0 157.5 50.5
t125.5 130t89 176t56 189t18 168.5q0 148 -69 236t-191 88q-72 0 -136.5 -35.5t-112 -95t-86 -134t-62.5 -154.5t-36.5 -155.5t-12.5 -138.5q0 -149 67 -237t193 -88z" />
    <glyph glyph-name="upsilontonos" unicode="&#x3cd;" horiz-adv-x="899" 
d="M696 1487l-92 -260h-33l80 260h45zM690 383l152 709h45l-152 -709q-41 -190 -149.5 -294.5t-255.5 -104.5q-141 0 -209 102t-27 297l152 709h45l-152 -709q-36 -171 19 -263.5t182 -92.5q120 0 217 90.5t133 265.5z" />
    <glyph glyph-name="omegatonos" unicode="&#x3ce;" horiz-adv-x="1259" 
d="M877 1487l-93 -260h-32l79 260h46zM74 487q62 288 274 605h47q-214 -326 -276 -605q-47 -221 -11.5 -340.5t152.5 -119.5q238 0 330 438l55 256h45l-55 -256q-47 -218 -13 -328t156 -110q117 0 203.5 119t134.5 341q56 265 -18 605h47q72 -337 16 -605
q-53 -241 -152 -372t-233 -131q-228 0 -201 309q-109 -309 -327 -309q-137 0 -181.5 130t7.5 373z" />
    <glyph glyph-name="uni0400" unicode="&#x400;" horiz-adv-x="937" 
d="M653 1831l101 -213l-31 -10l-121 200zM1024 1434l-8 -43h-627l-137 -641h547l-8 -43h-547l-142 -664h639l-10 -43h-686l305 1434h674z" />
    <glyph glyph-name="uni0401" unicode="&#x401;" horiz-adv-x="937" 
d="M621 1815h41l-41 -201h-43zM862 1815h41l-41 -201h-43zM1024 1434l-8 -43h-627l-137 -641h547l-8 -43h-547l-142 -664h639l-10 -43h-686l305 1434h674z" />
    <glyph glyph-name="uni0402" unicode="&#x402;" horiz-adv-x="1075" 
d="M754 915q133 0 187 -111t11 -319l-12 -55q-43 -208 -138.5 -326t-244.5 -118q-89 0 -149 45l18 45q62 -45 139 -45q86 0 153.5 56t109.5 144.5t69 210.5l8 43q39 178 -4.5 281.5t-165.5 103.5q-141 0 -313 -90l-166 -780h-45l297 1391h-293l8 43h740l-9 -43h-401
l-121 -564q168 88 322 88z" />
    <glyph glyph-name="uni0403" unicode="&#x403;" horiz-adv-x="804" 
d="M846 1808l-207 -200l-25 10l191 213zM45 0l305 1434h608l-8 -43h-561l-297 -1391h-47z" />
    <glyph glyph-name="uni0404" unicode="&#x404;" horiz-adv-x="970" 
d="M764 1407q-83 0 -159.5 -39t-137 -103.5t-112.5 -152t-88 -180t-62 -191.5h569l-8 -41h-571q-37 -151 -37 -276q0 -184 83 -289.5t238 -105.5q161 0 309 90l3 -45q-155 -90 -314 -90q-171 0 -268.5 115t-97.5 323q0 76 13.5 167t41 190t66.5 194.5t95 182t120.5 152
t148 104t174.5 38.5q160 0 293 -92l-21 -41q-122 90 -278 90z" />
    <glyph glyph-name="uni0405" unicode="&#x405;" horiz-adv-x="886" 
d="M307 -16q-197 0 -334 90l21 41q127 -86 317 -86q173 0 285.5 110t112.5 262q0 64 -17.5 114t-55.5 89t-73 64t-96 61q-51 33 -83 57t-67 57t-54 64.5t-31.5 74t-12.5 91.5q0 70 31 138t84.5 121t132.5 85.5t168 32.5q165 0 287 -80l-17 -45q-113 80 -272 80
q-152 0 -259.5 -97.5t-107.5 -228.5q0 -55 14.5 -98.5t50 -81.5t70.5 -65t99 -70q62 -37 102.5 -67.5t78.5 -73.5t56.5 -96.5t18.5 -120.5q0 -83 -33 -160t-90.5 -135t-142.5 -92.5t-183 -34.5z" />
    <glyph glyph-name="uni0406" unicode="&#x406;" horiz-adv-x="370" 
d="M92 0h-47l305 1434h47z" />
    <glyph glyph-name="uni0407" unicode="&#x407;" horiz-adv-x="370" 
d="M311 1614h-43l43 201h43zM553 1614h-41l41 201h43zM92 0h-47l305 1434h47z" />
    <glyph glyph-name="uni0408" unicode="&#x408;" horiz-adv-x="708" 
d="M152 -16q-125 0 -203 61l16 43q78 -61 195 -61q125 0 207.5 77.5t119.5 253.5l220 1033h-211l8 43h258l-230 -1074q-42 -200 -138 -288t-242 -88z" />
    <glyph glyph-name="uni0409" unicode="&#x409;" horiz-adv-x="1597" 
d="M961 909h180q223 0 319 -121.5t51 -334.5q-47 -217 -196.5 -335t-366.5 -118h-229l297 1391h-539l-178 -729q-94 -380 -175 -527t-206 -135l10 43q100 -12 168.5 123.5t157.5 499.5l186 768h631zM1464 451q42 200 -46.5 307.5t-284.5 107.5h-183l-176 -823h184
q201 0 333.5 109.5t172.5 298.5z" />
    <glyph glyph-name="uni040A" unicode="&#x40a;" horiz-adv-x="1603" 
d="M961 846h172q224 0 321.5 -110t54.5 -314q-43 -202 -186.5 -312t-368.5 -110h-219l170 799h-643l-170 -799h-47l305 1434h47l-127 -592h643l127 592h45zM1464 420q38 184 -49.5 283.5t-290.5 99.5h-174l-162 -760h177q202 0 330.5 97.5t168.5 279.5z" />
    <glyph glyph-name="uni040B" unicode="&#x40b;" horiz-adv-x="1093" 
d="M752 909q140 5 197.5 -81.5t21.5 -254.5l-123 -573h-45l121 569q32 149 -18 225.5t-173 71.5q-156 -5 -311 -92l-166 -774h-45l297 1391h-293l8 43h740l-9 -43h-401l-123 -570q150 83 322 88z" />
    <glyph glyph-name="uni040C" unicode="&#x40c;" horiz-adv-x="935" 
d="M852 1753l41 -20l-197 -197l-26 8zM989 1434h51l-510 -711l234 -723h-49l-226 694h-249l-148 -694h-47l305 1434h47l-147 -697h244z" />
    <glyph glyph-name="uni040D" unicode="&#x40d;" horiz-adv-x="1103" 
d="M811 1618l-31 -10l-121 200l52 23zM1128 1434l-305 -1434h-45l287 1339l-973 -1339h-47l305 1434h45l-282 -1338l968 1338h47z" />
    <glyph glyph-name="uni040E" unicode="&#x40e;" horiz-adv-x="862" 
d="M649 1575q-78 0 -108 52.5t-9 156.5h39q-19 -84 3 -128t83 -44q121 0 158 172h39q-20 -100 -73 -154.5t-132 -54.5zM408 434l538 1000h49l-585 -1086l-84 -162q-59 -105 -116.5 -148.5t-131.5 -43.5q-37 0 -68 11.5t-45 29.5l21 45q29 -43 102 -43q57 0 102 36.5
t95 125.5l82 159l-123 1076h49z" />
    <glyph glyph-name="uni040F" unicode="&#x40f;" horiz-adv-x="1073" 
d="M756 43l297 1391h45l-305 -1434h-351l-53 -244h-45l51 244h-350l305 1434h47l-297 -1391h656z" />
    <glyph glyph-name="uni0410" unicode="&#x410;" horiz-adv-x="1052" 
d="M879 0h-45l-37 397h-600l-207 -397h-51l745 1434h59zM702 1376l-485 -936h576z" />
    <glyph glyph-name="uni0411" unicode="&#x411;" horiz-adv-x="1019" 
d="M977 1434l-8 -43h-580l-123 -580l299 -2q197 0 281 -101.5t45 -287.5q-44 -204 -175 -312t-323 -108h-348l305 1434h627zM555 768h-299l-154 -725h287q178 0 297 97t160 284q34 165 -43 254.5t-248 89.5z" />
    <glyph glyph-name="uni0412" unicode="&#x412;" horiz-adv-x="1030" 
d="M664 743q114 -19 175.5 -87t61.5 -181q0 -67 -17.5 -132t-57.5 -127.5t-97.5 -110t-144 -76.5t-191.5 -29h-348l305 1434h320q151 0 236 -70t85 -199q0 -89 -33 -173t-109.5 -154t-184.5 -95zM649 1391h-260l-135 -631h285q79 0 147 23t114.5 62t79.5 90t48.5 106.5
t15.5 111.5q0 238 -295 238zM102 43h287q96 0 175.5 25t132 66.5t89 97t52.5 114.5t16 121q0 121 -76 185.5t-231 64.5h-301z" />
    <glyph glyph-name="uni0413" unicode="&#x413;" horiz-adv-x="804" 
d="M45 0l305 1434h608l-8 -43h-561l-297 -1391h-47z" />
    <glyph glyph-name="uni0414" unicode="&#x414;" horiz-adv-x="1069" 
d="M-88 -242h-45l61 285h92q64 60 153 288.5t183 635.5l111 467h627l-295 -1391h129l-62 -285h-45l51 242h-909zM78 43h676l284 1348h-536l-99 -424q-91 -390 -176 -622.5t-149 -301.5z" />
    <glyph glyph-name="uni0415" unicode="&#x415;" horiz-adv-x="937" 
d="M1024 1434l-8 -43h-627l-137 -641h547l-8 -43h-547l-142 -664h639l-10 -43h-686l305 1434h674z" />
    <glyph glyph-name="uni0416" unicode="&#x416;" horiz-adv-x="1368" 
d="M1421 1434h52l-510 -711l233 -723h-51l-225 694h-185l-147 -694h-45l147 694h-180l-522 -694h-51l540 721l-207 713h52l200 -697h178l148 697h45l-148 -697h181z" />
    <glyph glyph-name="uni0417" unicode="&#x417;" horiz-adv-x="854" 
d="M586 1450q165 0 249.5 -96.5t49.5 -263.5q-29 -134 -114.5 -222t-209.5 -110q118 -25 165.5 -131.5t14.5 -264.5q-38 -174 -167 -276t-298 -102q-86 0 -166 21.5t-133 60.5l23 47q53 -40 128 -63t153 -23q149 0 263.5 91.5t147.5 246.5q35 168 -31 270t-210 102h-183
l8 43h185q142 0 244.5 81.5t132.5 225.5q30 146 -46.5 233t-220.5 87q-165 0 -315 -86l-2 43q156 86 332 86z" />
    <glyph glyph-name="uni0418" unicode="&#x418;" horiz-adv-x="1103" 
d="M1128 1434l-305 -1434h-45l287 1339l-973 -1339h-47l305 1434h45l-282 -1338l968 1338h47z" />
    <glyph glyph-name="uni0419" unicode="&#x419;" horiz-adv-x="1103" 
d="M768 1577q-78 0 -108 52.5t-9 156.5h39q-19 -84 3 -128t83 -44q121 0 158 172h39q-20 -100 -73 -154.5t-132 -54.5zM113 96l968 1338h47l-305 -1434h-45l287 1339l-973 -1339h-47l305 1434h45z" />
    <glyph glyph-name="uni041A" unicode="&#x41a;" horiz-adv-x="935" 
d="M989 1434h51l-510 -711l234 -723h-49l-226 694h-249l-148 -694h-47l305 1434h47l-147 -697h244z" />
    <glyph glyph-name="uni041B" unicode="&#x41b;" horiz-adv-x="1077" 
d="M-82 0l10 43q100 -12 168.5 123.5t157.5 499.5l186 768h662l-305 -1434h-45l295 1391h-570l-178 -729q-94 -380 -175 -527t-206 -135z" />
    <glyph glyph-name="uni041C" unicode="&#x41c;" horiz-adv-x="1257" 
d="M590 379l653 1055h41l-305 -1434h-45l276 1296l-624 -1003h-23l-194 1003l-279 -1296h-45l305 1434h37z" />
    <glyph glyph-name="uni041D" unicode="&#x41d;" horiz-adv-x="1097" 
d="M932 748l145 686h47l-305 -1434h-47l150 705h-680l-150 -705h-47l305 1434h47l-145 -686h680z" />
    <glyph glyph-name="uni041E" unicode="&#x41e;" horiz-adv-x="1155" 
d="M481 -16q-170 0 -267 120t-97 332q0 109 24 239.5t76 268t123.5 250t177.5 184.5t227 72q172 0 270.5 -119t98.5 -334q0 -76 -12.5 -165.5t-39 -187.5t-64 -192t-90.5 -179t-115.5 -149t-143 -102t-168.5 -38zM483 27q110 0 208 69.5t164.5 177.5t116 239t72.5 255
t23 225q0 194 -85 304t-239 110q-80 0 -153.5 -37t-130.5 -100t-106 -145.5t-83 -173.5t-58.5 -184t-36 -177.5t-11.5 -153.5q0 -188 84 -298.5t235 -110.5z" />
    <glyph glyph-name="uni041F" unicode="&#x41f;" horiz-adv-x="1073" 
d="M1098 1434l-305 -1434h-45l296 1391h-655l-297 -1391h-47l305 1434h748z" />
    <glyph glyph-name="uni0420" unicode="&#x420;" horiz-adv-x="954" 
d="M598 1434q185 0 289 -85.5t104 -244.5q0 -78 -19.5 -156.5t-64.5 -155.5t-110 -136t-164 -95.5t-219 -36.5h-211l-111 -524h-47l305 1434h248zM213 569h199q108 0 198.5 32.5t151 85t102.5 122t61 142t19 145.5q0 139 -87.5 217t-256.5 78h-211z" />
    <glyph glyph-name="uni0421" unicode="&#x421;" horiz-adv-x="970" 
d="M477 -16q-171 0 -268.5 115t-97.5 323q0 76 13.5 167t41 190t66.5 194.5t95 182t120.5 152t148 104t174.5 38.5q160 0 293 -92l-21 -41q-122 90 -278 90q-81 0 -156 -37t-134.5 -100t-111 -146t-88.5 -174.5t-63.5 -186t-39.5 -181t-13 -158.5q0 -184 83 -289.5
t238 -105.5q161 0 309 90l3 -45q-155 -90 -314 -90z" />
    <glyph glyph-name="uni0422" unicode="&#x422;" horiz-adv-x="813" 
d="M223 1434h744l-9 -43h-348l-297 -1391h-47l297 1391h-348z" />
    <glyph glyph-name="uni0423" unicode="&#x423;" horiz-adv-x="862" 
d="M408 434l538 1000h49l-585 -1086l-84 -162q-59 -105 -116.5 -148.5t-131.5 -43.5q-37 0 -68 11.5t-45 29.5l21 45q29 -43 102 -43q57 0 102 36.5t95 125.5l82 159l-123 1076h49z" />
    <glyph glyph-name="uni0424" unicode="&#x424;" horiz-adv-x="1193" 
d="M807 1434l-33 -156q214 -2 307.5 -151.5t38.5 -409.5q-55 -259 -212 -409.5t-373 -153.5v2l-33 -156h-45l32 154q-212 5 -305.5 155t-38.5 408q55 257 212.5 407.5t371.5 153.5l33 156h45zM1073 717q52 240 -31.5 378.5t-275.5 141.5l-223 -1040q196 5 337.5 142.5
t192.5 377.5zM193 717q-52 -237 31 -376t274 -144l223 1040q-195 -5 -336 -142.5t-192 -377.5z" />
    <glyph glyph-name="uni0425" unicode="&#x425;" horiz-adv-x="913" 
d="M981 1436h55l-510 -705l217 -731h-47l-204 692l-500 -692h-55l532 733l-215 703h49l197 -668z" />
    <glyph glyph-name="uni0426" unicode="&#x426;" horiz-adv-x="1073" 
d="M877 0h-832l305 1434h47l-295 -1391h656l295 1391h45l-295 -1391h129l-62 -285h-45z" />
    <glyph glyph-name="uni0427" unicode="&#x427;" horiz-adv-x="956" 
d="M766 639l170 795h45l-305 -1434h-45l125 590q-153 -84 -338 -84q-139 0 -196.5 85t-22.5 253l125 590h45l-125 -588q-30 -147 20 -221t172 -74q176 0 330 88z" />
    <glyph glyph-name="uni0428" unicode="&#x428;" horiz-adv-x="1544" 
d="M1264 0h-1219l305 1434h47l-295 -1391h541l295 1391h45l-295 -1391h541l295 1391h45z" />
    <glyph glyph-name="uni0429" unicode="&#x429;" horiz-adv-x="1544" 
d="M1272 43h131l-62 -285h-45l52 242h-1303l305 1434h47l-295 -1391h541l295 1391h45l-295 -1391h541l295 1391h45z" />
    <glyph glyph-name="uni042A" unicode="&#x42a;" horiz-adv-x="1056" 
d="M371 909h209q223 0 318 -121t52 -335q-47 -217 -196.5 -335t-366.5 -118h-256l297 1391h-213l8 43h258zM903 451q42 200 -47 307.5t-287 107.5h-209l-176 -823h213q201 0 333.5 109.5t172.5 298.5z" />
    <glyph glyph-name="uni042B" unicode="&#x42b;" horiz-adv-x="1323" 
d="M287 909h209q222 0 317.5 -121.5t50.5 -334.5q-45 -217 -194.5 -335t-366.5 -118h-258l305 1434h47zM997 0l306 1434h47l-306 -1434h-47zM819 451q42 200 -47 307.5t-287 107.5h-209l-176 -823h213q200 0 333 109.5t173 298.5z" />
    <glyph glyph-name="uni042C" unicode="&#x42c;" horiz-adv-x="952" 
d="M287 909h209q222 0 317.5 -121.5t50.5 -334.5q-45 -217 -194.5 -335t-366.5 -118h-258l305 1434h47zM819 451q42 200 -47 307.5t-287 107.5h-209l-176 -823h213q200 0 333 109.5t173 298.5z" />
    <glyph glyph-name="uni042D" unicode="&#x42d;" horiz-adv-x="964" 
d="M567 1450q148 0 238.5 -94t110 -257.5t-24.5 -383.5q-72 -344 -247 -539.5t-388 -195.5q-162 0 -274 100l22 45q58 -51 118 -75.5t142 -24.5q130 0 246 86t201 238.5t129 350.5h-572l8 41h574q60 313 -21.5 488.5t-269.5 175.5q-85 0 -150 -23t-153 -75l-2 43
q90 55 158.5 77.5t154.5 22.5z" />
    <glyph glyph-name="uni042E" unicode="&#x42e;" horiz-adv-x="1521" 
d="M1135 1450q214 0 301 -194.5t14 -538.5q-71 -333 -240 -533t-387 -200q-210 0 -297 190t-18 528h-266l-150 -702h-47l305 1434h47l-147 -689h266q74 321 240.5 513t378.5 192zM1403 717q66 314 -9 502t-270 188q-191 0 -345 -183.5t-222 -506.5q-68 -314 5.5 -502
t268.5 -188q192 0 347.5 183t224.5 507z" />
    <glyph glyph-name="uni042F" unicode="&#x42f;" horiz-adv-x="983" 
d="M1008 1434l-306 -1434h-45l121 567h-215q-45 0 -65 2l-469 -569h-52l474 575q-166 29 -233 139.5t-30 286.5q44 209 190.5 321t364.5 112h265zM571 610h215l168 781h-219q-202 0 -332.5 -102.5t-169.5 -284.5q-39 -191 50.5 -292.5t287.5 -101.5z" />
    <glyph glyph-name="uni0430" unicode="&#x430;" horiz-adv-x="970" 
d="M825 766l70 326h45l-233 -1092h-45l63 299q-72 -147 -176 -231t-213 -84q-126 0 -199.5 94t-73.5 256q0 83 19 183.5t60 205.5t96.5 191t137 141t173.5 55q66 0 117.5 -28.5t84 -78t51 -109t23.5 -128.5zM348 27q128 0 251 142t175 361l4 17q13 64 15 133.5t-11 139
t-40 124.5t-76.5 89t-114.5 34q-83 0 -156.5 -52t-124.5 -133t-88.5 -179.5t-55 -191.5t-17.5 -169q0 -144 62 -229.5t177 -85.5z" />
    <glyph glyph-name="uni0431" unicode="&#x431;" horiz-adv-x="888" 
d="M340 -16q-162 0 -231.5 128.5t-34.5 358.5q2 18 12.5 73t11.5 62q28 131 62.5 238.5t71 185.5t81.5 140.5t87.5 103.5t96 72.5t100 50t105.5 35.5q9 2 41 10t41 10.5t33.5 10t37 12.5t31 13.5t36.5 18.5v-43q-24 -13 -53.5 -24.5t-49 -17t-60 -16t-57.5 -15.5
q-103 -28 -179 -73t-145 -127.5t-122.5 -214t-97.5 -321.5q62 146 175 241t230 95q151 0 212.5 -137t12.5 -369q-50 -233 -168 -367t-280 -134zM350 25q135 0 239 115.5t152 342.5q28 138 17 241.5t-67 163.5t-148 60q-82 0 -169.5 -64.5t-156 -174.5t-94.5 -234
q-14 -69 -16.5 -133t11 -122.5t41 -101t76.5 -68t115 -25.5z" />
    <glyph glyph-name="uni0432" unicode="&#x432;" horiz-adv-x="843" 
d="M776 819q-22 -103 -89.5 -171.5t-168.5 -90.5q109 -17 157 -90.5t25 -185.5q-28 -129 -134 -205t-261 -76h-274l233 1092h256q143 0 213 -72t43 -201zM197 573h219q123 0 207 63t108 177q24 109 -36.5 173.5t-196.5 64.5h-199zM657 287q23 114 -38.5 179.5t-196.5 65.5
h-234l-104 -489h223q138 0 231 63.5t119 180.5z" />
    <glyph glyph-name="uni0433" unicode="&#x433;" horiz-adv-x="649" 
d="M31 0l233 1092h465l-8 -41h-422l-223 -1051h-45z" />
    <glyph glyph-name="uni0434" unicode="&#x434;" horiz-adv-x="946" 
d="M694 41h109l-53 -252h-45l45 211h-787l-43 -211h-45l53 252h58q56 32 102 122.5t94 276.5l162 652h576zM47 41h602l217 1010h-489l-152 -613q-77 -309 -178 -397z" />
    <glyph glyph-name="uni0435" unicode="&#x435;" horiz-adv-x="866" 
d="M555 1110q123 0 190.5 -81t67.5 -228q0 -44 -5.5 -91.5t-11.5 -78t-13 -60t-7 -32.5h-643q-22 -110 -22 -191q0 -150 65.5 -235.5t190.5 -85.5q137 0 268 94l6 -39q-59 -46 -133.5 -72t-147.5 -26q-136 0 -215 94.5t-79 263.5q0 72 14 154.5t40.5 169t69 166t94.5 142
t122.5 99.5t148.5 37zM141 580h598q31 136 31 217q0 128 -54.5 199t-164.5 71q-76 0 -144.5 -42.5t-119 -114.5t-87 -155t-59.5 -175z" />
    <glyph glyph-name="uni0436" unicode="&#x436;" horiz-adv-x="1179" 
d="M1165 1092h52l-398 -547l185 -545h-52l-174 524h-170l-112 -524h-45l112 524h-168l-401 -524h-51l419 547l-165 545h51l153 -525h170l113 525h45l-113 -525h170z" />
    <glyph glyph-name="uni0437" unicode="&#x437;" horiz-adv-x="702" 
d="M209 -16q-77 0 -145 22.5t-105 56.5l21 43q36 -35 96 -57t133 -22q111 0 201 72t116 190q26 116 -28 189t-166 73h-127l8 39h127q106 0 186 61t103 166q23 111 -32.5 180.5t-172.5 69.5q-125 0 -250 -74l-2 41q131 76 264 76q132 0 199.5 -78t40.5 -211
q-22 -95 -85 -162.5t-151 -89.5q81 -23 118 -97t13 -185q-28 -132 -130.5 -217.5t-231.5 -85.5z" />
    <glyph glyph-name="uni0438" unicode="&#x438;" horiz-adv-x="923" 
d="M893 1092l-234 -1092h-45l213 999l-751 -999h-45l233 1092h45l-213 -996l750 996h47z" />
    <glyph glyph-name="uni0439" unicode="&#x439;" horiz-adv-x="923" 
d="M608 1235q-159 0 -116 209h38q-19 -84 3 -128t83 -44q121 0 158 172h39q-20 -100 -73 -154.5t-132 -54.5zM96 96l750 996h47l-234 -1092h-45l213 999l-751 -999h-45l233 1092h45z" />
    <glyph glyph-name="uni043A" unicode="&#x43a;" horiz-adv-x="786" 
d="M772 1092h51l-397 -547l184 -545h-51l-176 524h-195l-112 -524h-45l233 1092h45l-112 -525h196z" />
    <glyph glyph-name="uni043B" unicode="&#x43b;" horiz-adv-x="903" 
d="M872 1092l-233 -1092h-45l225 1051h-467l-159 -676q-51 -218 -111 -297.5t-162 -77.5l8 41q87 0 131 71.5t91 272.5l167 707h555z" />
    <glyph glyph-name="uni043C" unicode="&#x43c;" horiz-adv-x="1050" 
d="M479 319l500 773h43l-236 -1092h-43l207 971l-479 -738h-22l-166 738l-207 -971h-45l233 1092h41z" />
    <glyph glyph-name="uni043D" unicode="&#x43d;" horiz-adv-x="923" 
d="M737 575l111 517h45l-234 -1092h-45l115 532h-539l-114 -532h-45l233 1092h45l-110 -517h538z" />
    <glyph glyph-name="uni043E" unicode="&#x43e;" horiz-adv-x="929" 
d="M365 -16q-137 0 -217 96.5t-80 263.5q0 71 13.5 152.5t39.5 168t68.5 165.5t95.5 142t125.5 100.5t154.5 37.5q137 0 218 -96.5t81 -263.5q0 -86 -19 -186t-60.5 -203t-98.5 -187t-141 -137t-180 -53zM373 27q83 0 157.5 50.5t125.5 130t89 176t56 189t18 168.5
q0 148 -69 236t-191 88q-72 0 -136.5 -35.5t-112 -95t-86 -134t-62.5 -154.5t-36.5 -155.5t-12.5 -138.5q0 -149 67 -237t193 -88z" />
    <glyph glyph-name="uni043F" unicode="&#x43f;" horiz-adv-x="923" 
d="M893 1092l-234 -1092h-45l226 1051h-539l-225 -1051h-45l233 1092h629z" />
    <glyph glyph-name="uni0440" unicode="&#x440;" horiz-adv-x="974" 
d="M2 -350h-45l311 1442h45l-63 -291q68 141 170 225t217 84q126 0 199 -93.5t73 -260.5q0 -84 -19.5 -184.5t-60 -204.5t-96.5 -189.5t-137 -139.5t-172 -54q-127 0 -197.5 98t-76.5 250zM422 27q82 0 155.5 51.5t124 132t88 178.5t55 191.5t17.5 169.5q0 149 -62 233
t-175 84q-91 0 -176 -67.5t-143 -170.5t-93 -225.5t-35 -232.5q0 -96 26.5 -172.5t83 -124t134.5 -47.5z" />
    <glyph glyph-name="uni0441" unicode="&#x441;" horiz-adv-x="778" 
d="M356 -16q-136 0 -214.5 94t-78.5 256q0 90 20.5 192.5t64.5 206.5t104.5 187.5t149 136.5t188.5 53q125 0 231 -70l-20 -39q-104 64 -215 64q-76 0 -144.5 -35.5t-119.5 -94.5t-92.5 -134t-67 -156.5t-39.5 -159.5t-14 -145q0 -143 65.5 -228t187.5 -85q119 0 248 75
l4 -43q-129 -75 -258 -75z" />
    <glyph glyph-name="uni0442" unicode="&#x442;" horiz-adv-x="745" 
d="M190 1092h598l-10 -41h-276l-223 -1051h-46l224 1051h-277z" />
    <glyph glyph-name="uni0443" unicode="&#x443;" horiz-adv-x="874" 
d="M16 -367q-55 0 -114 25l20 41q48 -25 101 -25q56 0 105.5 47.5t109.5 157.5l59 109l-121 1104h45l115 -1029l545 1029h51l-647 -1219q-68 -127 -130.5 -183.5t-138.5 -56.5z" />
    <glyph glyph-name="uni0444" unicode="&#x444;" horiz-adv-x="1071" 
d="M745 1434l-69 -330q194 0 279 -147.5t30 -409.5q-55 -252 -202.5 -405t-344.5 -154l-71 -336h-43l71 336q-194 3 -279 151t-30 408q55 251 202 403.5t345 153.5l69 330h43zM131 547q-31 -154 -11 -268t94.5 -179.5t191.5 -66.5l217 1028q-174 -2 -307 -138t-185 -376z
M940 547q50 233 -23 373.5t-251 140.5l-217 -1028q174 0 306.5 136t184.5 378z" />
    <glyph glyph-name="uni0445" unicode="&#x445;" horiz-adv-x="817" 
d="M809 1092h55l-424 -537l201 -555h-47l-188 522l-410 -522h-53l442 563l-197 529h48l184 -496z" />
    <glyph glyph-name="uni0446" unicode="&#x446;" horiz-adv-x="919" 
d="M668 43h106l-51 -252h-45l45 211h-690l231 1092h45l-225 -1051h539l225 1051h45z" />
    <glyph glyph-name="uni0447" unicode="&#x447;" horiz-adv-x="890" 
d="M692 510l125 582h45l-235 -1092h-43l98 455q-159 -113 -315 -113q-130 0 -190.5 99t-24.5 270l81 381h46l-82 -379q-32 -153 20.5 -240.5t167.5 -87.5q82 0 162.5 34.5t144.5 90.5z" />
    <glyph glyph-name="uni0448" unicode="&#x448;" horiz-adv-x="1304" 
d="M1004 41l227 1051h43l-234 -1092h-1009l233 1092h45l-225 -1051h438l226 1051h45l-228 -1051h439z" />
    <glyph glyph-name="uni0449" unicode="&#x449;" horiz-adv-x="1300" 
d="M1049 41h108l-53 -252h-43l45 211h-1075l233 1092h45l-225 -1051h438l226 1051h45l-228 -1051h439l227 1051h43z" />
    <glyph glyph-name="uni044A" unicode="&#x44a;" horiz-adv-x="808" 
d="M238 698h165q182 0 260.5 -90.5t41.5 -259.5q-35 -168 -151.5 -258t-297.5 -90h-213l225 1053h-178l6 41h226zM659 348q32 149 -36.5 229t-229.5 80h-164l-133 -616h168q160 0 261.5 78.5t133.5 228.5z" />
    <glyph glyph-name="uni044B" unicode="&#x44b;" horiz-adv-x="1134" 
d="M225 698h164q183 0 260.5 -90.5t42.5 -259.5q-35 -168 -151.5 -258t-298.5 -90h-211l233 1092h45zM825 0l234 1092h45l-234 -1092h-45zM647 348q31 149 -37.5 228t-228.5 79h-166l-131 -614h168q160 0 261.5 78.5t133.5 228.5z" />
    <glyph glyph-name="uni044C" unicode="&#x44c;" horiz-adv-x="794" 
d="M225 698h164q183 0 260.5 -90.5t42.5 -259.5q-35 -168 -151.5 -258t-298.5 -90h-211l233 1092h45zM647 348q31 149 -37.5 228t-228.5 79h-166l-131 -614h168q160 0 261.5 78.5t133.5 228.5z" />
    <glyph glyph-name="uni044D" unicode="&#x44d;" horiz-adv-x="784" 
d="M420 1110q180 0 252 -154.5t18 -408.5q-56 -264 -193 -413.5t-313 -149.5q-135 0 -223 88l25 41q86 -86 204 -86q156 0 277 135.5t174 363.5h-463l6 39h465q47 234 -17.5 367t-217.5 133q-120 0 -242 -82l-8 39q131 88 256 88z" />
    <glyph glyph-name="uni044E" unicode="&#x44e;" horiz-adv-x="1277" 
d="M936 1110q169 0 240.5 -150t15.5 -411q-54 -256 -188 -410.5t-306 -154.5q-165 0 -236.5 145t-21.5 401h-252l-112 -530h-45l233 1092h45l-110 -519h252q58 243 188.5 390t296.5 147zM1147 547q50 235 -8.5 376.5t-210.5 141.5q-149 0 -267.5 -137t-171.5 -381
q-50 -235 9.5 -376.5t210.5 -141.5q148 0 266.5 137t171.5 381z" />
    <glyph glyph-name="uni044F" unicode="&#x44f;" horiz-adv-x="808" 
d="M559 1092h219l-233 -1092h-45l92 430h-172q-33 0 -47 2l-369 -432h-49l371 438q-123 25 -175 111t-24 215q33 155 150 241.5t282 86.5zM428 473h172l125 578h-176q-149 0 -249 -78t-128 -211q-30 -138 40 -213.5t216 -75.5z" />
    <glyph glyph-name="uni0450" unicode="&#x450;" horiz-adv-x="870" 
d="M539 1489l100 -213l-31 -10l-121 200zM559 1110q123 0 194.5 -77.5t71.5 -215.5q0 -136 -53 -280h-639q-22 -110 -22 -193q0 -146 65 -231.5t189 -85.5q135 0 264 75v-43q-129 -75 -271 -75q-137 0 -214.5 95.5t-77.5 260.5q0 75 15 159.5t42.5 171t71 165.5t96.5 140
t122.5 97.5t145.5 36.5zM143 578h598q39 128 39 235q0 118 -58.5 186t-164.5 68q-77 0 -145.5 -42t-119.5 -113.5t-88.5 -155.5t-60.5 -178z" />
    <glyph glyph-name="uni0451" unicode="&#x451;" horiz-adv-x="870" 
d="M506 1473h41l-41 -201h-43zM748 1473h40l-40 -201h-43zM559 1110q123 0 194.5 -77.5t71.5 -215.5q0 -136 -53 -280h-639q-22 -110 -22 -193q0 -146 65 -231.5t189 -85.5q135 0 264 75v-43q-129 -75 -271 -75q-137 0 -214.5 95.5t-77.5 260.5q0 75 15 159.5t42.5 171
t71 165.5t96.5 140t122.5 97.5t145.5 36.5zM143 578h598q39 128 39 235q0 118 -58.5 186t-164.5 68q-77 0 -145.5 -42t-119.5 -113.5t-88.5 -155.5t-60.5 -178z" />
    <glyph glyph-name="uni0452" unicode="&#x452;" horiz-adv-x="937" 
d="M639 1110q134 0 190 -99t17 -284l-55 -254q-3 -18 -8 -44t-14.5 -68t-16.5 -74l-78 -369q-57 -266 -285 -266q-46 0 -80 24l15 43q31 -24 71 -24q188 0 234 227l16 78l156 727q35 166 -10.5 253t-163.5 87q-119 0 -226.5 -109t-169.5 -315l-137 -643h-45l266 1253h-143
l8 43h146l45 215h45l-45 -215h245l-8 -43h-248l-90 -430q66 137 163 212t206 75z" />
    <glyph glyph-name="uni0453" unicode="&#x453;" horiz-adv-x="649" 
d="M735 1466l-207 -200l-24 10l190 213zM31 0l233 1092h465l-8 -41h-422l-223 -1051h-45z" />
    <glyph glyph-name="uni0454" unicode="&#x454;" horiz-adv-x="778" 
d="M586 1065q-85 0 -160 -43.5t-130 -116.5t-94 -158t-63 -180h461l-8 -41h-463q-20 -113 -20 -186q0 -143 65.5 -228t187.5 -85q119 0 248 75l4 -43q-129 -75 -258 -75q-136 0 -214.5 94t-78.5 256q0 90 20.5 192.5t64.5 206.5t104.5 187.5t149 136.5t188.5 53
q125 0 231 -70l-20 -39q-104 64 -215 64z" />
    <glyph glyph-name="uni0455" unicode="&#x455;" horiz-adv-x="722" 
d="M236 -16q-151 0 -269 65l17 43q110 -65 258 -65q135 0 219 82.5t84 197.5q0 87 -46 142.5t-143 105.5q-194 96 -194 252q0 126 86.5 213.5t240.5 87.5q131 0 230 -55l-17 -41q-83 53 -215 53t-206 -75t-74 -175q0 -73 43.5 -126.5t138.5 -104.5q103 -53 153 -116.5
t50 -158.5q0 -136 -99.5 -230.5t-256.5 -94.5z" />
    <glyph glyph-name="uni0456" unicode="&#x456;" horiz-adv-x="339" 
d="M344 1253h-49l43 201h49zM76 0h-45l233 1092h45z" />
    <glyph glyph-name="uni0457" unicode="&#x457;" horiz-adv-x="339" 
d="M223 1272h-43l43 201h43zM465 1272h-41l41 201h43zM76 0h-45l233 1092h45z" />
    <glyph glyph-name="uni0458" unicode="&#x458;" horiz-adv-x="358" 
d="M362 1253h-49l43 201h50zM-236 -344l11 41q42 -6 63 -6q145 0 193 221l252 1180h45l-252 -1184q-56 -258 -242 -258q-46 0 -70 6z" />
    <glyph glyph-name="uni0459" unicode="&#x459;" horiz-adv-x="1351" 
d="M782 698h140q182 0 260 -90.5t41 -259.5q-35 -169 -151 -258.5t-298 -89.5h-186l225 1051h-461l-159 -676q-51 -218 -111 -297.5t-162 -77.5l8 41q87 0 131 71.5t91 272.5l167 707h549zM1178 348q32 149 -37 229t-230 80h-137l-133 -616h143q160 0 261 78.5t133 228.5z
" />
    <glyph glyph-name="uni045A" unicode="&#x45a;" horiz-adv-x="1378" 
d="M799 655h145q171 0 252.5 -86t50.5 -229q-34 -164 -147 -252t-293 -88h-193l131 612h-538l-131 -612h-45l233 1092h45l-94 -437h539l94 437h45zM1202 340q26 124 -44.5 198t-221.5 74h-145l-123 -569h147q159 0 257.5 76.5t129.5 220.5z" />
    <glyph glyph-name="uni045B" unicode="&#x45b;" horiz-adv-x="925" 
d="M629 1110q134 0 190 -99t17 -284l-156 -727h-45l156 727q35 166 -11 253t-164 87q-125 0 -232.5 -115t-170.5 -334l-131 -618h-43l266 1253h-145l10 43h145l45 215h43l-45 -215h246l-8 -43h-248l-92 -436q66 140 164 216.5t209 76.5z" />
    <glyph glyph-name="uni045C" unicode="&#x45c;" horiz-adv-x="786" 
d="M709 1489l41 -23l-207 -200l-25 10zM772 1092h51l-397 -547l184 -545h-51l-176 524h-195l-112 -524h-45l233 1092h45l-112 -525h196z" />
    <glyph glyph-name="uni045D" unicode="&#x45d;" horiz-adv-x="923" 
d="M649 1276l-31 -10l-120 200l51 23zM893 1092l-234 -1092h-45l213 999l-751 -999h-45l233 1092h45l-213 -996l750 996h47z" />
    <glyph glyph-name="uni045E" unicode="&#x45e;" horiz-adv-x="874" 
d="M606 1235q-78 0 -108 52.5t-9 156.5h39q-19 -84 3 -128t83 -44q121 0 158 172h39q-20 -100 -73 -154.5t-132 -54.5zM336 63l545 1029h51l-647 -1219q-68 -127 -130.5 -183.5t-138.5 -56.5q-55 0 -114 25l20 41q48 -25 101 -25q56 0 105.5 47.5t109.5 157.5l59 109
l-121 1104h45z" />
    <glyph glyph-name="uni045F" unicode="&#x45f;" horiz-adv-x="923" 
d="M623 41l225 1051h45l-234 -1092h-290l-54 -244h-43l54 244h-295l233 1092h45l-225 -1051h539z" />
    <glyph glyph-name="uni0474" unicode="&#x474;" horiz-adv-x="1044" 
d="M420 0h-51l-125 1434h47l119 -1360l559 1130q124 246 239 246l-10 -45q-77 0 -188 -211z" />
    <glyph glyph-name="uni0474" unicode="&#x475;" horiz-adv-x="1044" 
d="M420 0h-51l-125 1434h47l119 -1360l559 1130q124 246 239 246l-10 -45q-77 0 -188 -211z" />
    <glyph glyph-name="uni0490" unicode="&#x490;" horiz-adv-x="804" 
d="M915 1434l54 249h45l-56 -249l-8 -43h-561l-297 -1391h-47l305 1434h565z" />
    <glyph glyph-name="uni0491" unicode="&#x491;" horiz-adv-x="649" 
d="M731 1292h43l-51 -233l-2 -8h-422l-223 -1051h-45l233 1092h424z" />
    <glyph glyph-name="uni04D9" unicode="&#x4d9;" horiz-adv-x="866" 
d="M506 1108q136 0 215.5 -94.5t79.5 -263.5q0 -72 -14 -154.5t-40.5 -169t-69 -166t-95 -142t-123 -99.5t-148.5 -37q-123 0 -190.5 81t-67.5 228q0 44 5.5 91.5t11.5 78t13 60t7 32.5h643q23 115 23 190q0 150 -65.5 236t-190.5 86q-138 0 -269 -94l-6 39q59 46 133.5 72
t147.5 26zM315 25q76 0 144.5 42.5t119 114.5t87 155t59.5 175h-598q-31 -136 -31 -217q0 -128 54.5 -199t164.5 -71z" />
    <glyph glyph-name="uni1E0C" unicode="&#x1e0c;" horiz-adv-x="1130" 
d="M315 0h-270l305 1434h258q226 0 349.5 -120.5t123.5 -344.5q0 -106 -20.5 -216t-60.5 -219t-104.5 -205t-146.5 -169.5t-194 -116.5t-240 -43zM389 1393l-287 -1350h213q104 0 196.5 31t163.5 85t131 127.5t101 156.5t69.5 173t42 177.5t13.5 169.5q0 208 -109 319
t-315 111h-219zM287 -299l45 201h47l-43 -201h-49z" />
    <glyph glyph-name="uni1E0D" unicode="&#x1e0d;" horiz-adv-x="978" 
d="M336 -16q-127 0 -198.5 95t-71.5 255q0 85 19.5 186t60 205.5t96.5 190t137 140t172 54.5q119 0 193 -92t83 -250l158 743h45l-321 -1511h-45l61 293q-70 -141 -172.5 -225t-216.5 -84zM350 27q140 0 259.5 144t164.5 359q22 101 16.5 197.5t-29.5 172t-79 121.5t-131 46
q-82 0 -155 -52t-123.5 -133t-88 -179t-55.5 -191.5t-18 -169.5q0 -148 62.5 -231.5t176.5 -83.5zM256 -295l45 201h47l-43 -201h-49z" />
    <glyph glyph-name="uni1E0E" unicode="&#x1e0e;" horiz-adv-x="1130" 
d="M315 0h-270l305 1434h258q226 0 349.5 -120.5t123.5 -344.5q0 -106 -20.5 -216t-60.5 -219t-104.5 -205t-146.5 -169.5t-194 -116.5t-240 -43zM389 1393l-287 -1350h213q104 0 196.5 31t163.5 85t131 127.5t101 156.5t69.5 173t42 177.5t13.5 169.5q0 208 -109 319
t-315 111h-219zM532 -236h-411l8 37h412z" />
    <glyph glyph-name="uni1E0F" unicode="&#x1e0f;" horiz-adv-x="978" 
d="M336 -16q-127 0 -198.5 95t-71.5 255q0 85 19.5 186t60 205.5t96.5 190t137 140t172 54.5q119 0 193 -92t83 -250l158 743h45l-321 -1511h-45l61 293q-70 -141 -172.5 -225t-216.5 -84zM350 27q140 0 259.5 144t164.5 359q22 101 16.5 197.5t-29.5 172t-79 121.5t-131 46
q-82 0 -155 -52t-123.5 -133t-88 -179t-55.5 -191.5t-18 -169.5q0 -148 62.5 -231.5t176.5 -83.5zM502 -231h-412l8 36h412z" />
    <glyph glyph-name="uni1E20" unicode="&#x1e20;" horiz-adv-x="1069" 
d="M596 1622h412l-11 -37h-409zM762 1407q-111 0 -210 -67t-168 -173t-120 -235.5t-75.5 -256.5t-24.5 -235q0 -194 85 -302.5t238 -108.5q164 0 330 116l115 525h-191l11 43h233l-127 -596q-188 -133 -375 -133q-172 0 -269 119t-97 337q0 81 13.5 173.5t41.5 190t67 190.5
t94 176t119 145t146 98.5t170 36.5q172 0 301 -92l-20 -41q-121 90 -287 90z" />
    <glyph glyph-name="uni1E21" unicode="&#x1e21;" horiz-adv-x="970" 
d="M844 1298h-412l10 37h410zM260 -367q-150 0 -256 93l23 41q98 -91 237 -91q153 0 266.5 121.5t157.5 331.5l45 197q-77 -169 -183.5 -253.5t-225.5 -84.5q-126 0 -194.5 84.5t-68.5 238.5q0 130 37 270t100 258t159.5 194.5t203.5 76.5q117 0 187 -89.5t79 -242.5l66 314
h45l-203 -961q-50 -231 -176.5 -364.5t-298.5 -133.5zM342 31q74 0 145.5 45.5t126.5 120.5t97.5 167.5t65 190.5t22.5 184q0 148 -65 238t-173 90q-66 0 -128.5 -33.5t-111 -90.5t-89 -132t-67.5 -158t-41.5 -167.5t-14.5 -161.5q0 -140 60.5 -216.5t172.5 -76.5z" />
    <glyph glyph-name="uni1E24" unicode="&#x1e24;" horiz-adv-x="1097" 
d="M932 748l145 686h47l-305 -1434h-47l150 705h-680l-150 -705h-47l305 1434h47l-145 -686h680zM393 -299h-49l45 201h47z" />
    <glyph glyph-name="uni1E25" unicode="&#x1e25;" horiz-adv-x="925" 
d="M629 1110q134 0 190 -99t17 -284l-156 -727h-45l156 727q35 166 -11 253t-164 87q-125 0 -232.5 -115t-170.5 -334l-131 -618h-43l321 1511h43l-147 -694q66 140 164 216.5t209 76.5zM324 -299h-50l45 201h48z" />
    <glyph glyph-name="uni1E2A" unicode="&#x1e2a;" horiz-adv-x="1097" 
d="M932 748l145 686h47l-305 -1434h-47l150 705h-680l-150 -705h-47l305 1434h47l-145 -686h680zM420 -229q118 0 155 143h39q-20 -83 -72 -127.5t-130 -44.5q-77 0 -107.5 43t-9.5 129h39q-36 -143 86 -143z" />
    </font>
</defs>
</svg>
