<?xml version="1.0" standalone="no"?>
<!DOCTYPE svg PUBLIC "-//W3C//DTD SVG 1.1//EN" "http://www.w3.org/Graphics/SVG/1.1/DTD/svg11.dtd" >
<svg xmlns="http://www.w3.org/2000/svg" xmlns:xlink="http://www.w3.org/1999/xlink" version="1.1">
<metadata>
Created by FontForge 20170731 at Mon Aug 16 22:14:52 2021
 By Aleksey,,,
Copyright (c) 2020 by Ligature srl. All rights reserved.
</metadata>
<defs>
<font id="EastmanCondensedTrial-Light" horiz-adv-x="950" >
  <font-face 
    font-family="Eastman Condensed Trial Light"
    font-weight="300"
    font-stretch="condensed"
    units-per-em="2048"
    panose-1="0 0 4 6 0 0 0 0 0 0"
    ascent="1638"
    descent="-410"
    x-height="1100"
    cap-height="1434"
    bbox="-1235 -422 2742 2103"
    underline-thickness="86"
    underline-position="-495"
    unicode-range="U+0020-F8FF"
  />
<missing-glyph horiz-adv-x="1269" 
 />
    <glyph glyph-name=".notdef" horiz-adv-x="1269" 
 />
    <glyph glyph-name=".null" horiz-adv-x="0" 
 />
    <glyph glyph-name="nonmarkingreturn" horiz-adv-x="682" 
 />
    <glyph glyph-name="space" unicode=" " horiz-adv-x="436" 
 />
    <glyph glyph-name="exclam" unicode="!" horiz-adv-x="442" 
d="M174 768v668h102v-668l-16 -377h-72zM143 0v145h154v-145h-154z" />
    <glyph glyph-name="quotedbl" unicode="&#x22;" horiz-adv-x="516" 
d="M201 1511l-11 -342h-77l-11 342h99zM414 1511l-11 -342h-77l-11 342h99z" />
    <glyph glyph-name="numbersign" unicode="#" horiz-adv-x="1361" 
d="M1260 979v-80h-269l-96 -354h293v-80h-314l-106 -395h-92l106 395h-344l-106 -395h-92l106 395h-244v80h265l94 354h-287v80h309l107 399h92l-107 -399h347l106 399h92l-106 -399h246zM459 545h344l96 354h-346z" />
    <glyph glyph-name="dollar" unicode="$" horiz-adv-x="897" 
d="M813 342q0 -151 -88.5 -244t-239.5 -114v-99h-73v95h-2q-181 0 -340 90l16 100q153 -90 317 -90h9v622q-149 79 -232.5 174.5t-83.5 225.5q0 149 86 240t230 106v131h73v-129q144 -6 283 -76l-16 -102q-134 75 -267 78v-574q76 -40 129.5 -78t101.5 -89.5t72.5 -118.5
t24.5 -148zM205 1102q0 -88 52 -153.5t155 -129.5v527q-96 -16 -151.5 -77.5t-55.5 -166.5zM485 662v-576q102 20 161 84t59 172q0 77 -30 138t-75 101t-115 81z" />
    <glyph glyph-name="percent" unicode="%" horiz-adv-x="1165" 
d="M258 860q-97 0 -150 82.5t-53 231.5q0 145 52.5 229t150.5 84q96 0 149.5 -82t53.5 -231q0 -144 -52.5 -229t-150.5 -85zM311 0h-84l627 1434h84zM258 930q58 0 90.5 65t32.5 179q0 111 -32 176t-91 65q-60 0 -91.5 -63t-31.5 -178q0 -113 31.5 -178.5t91.5 -65.5z
M909 -8q-97 0 -149.5 82t-52.5 231q0 145 52 229t150 84q96 0 149.5 -82t53.5 -231q0 -144 -52.5 -228.5t-150.5 -84.5zM909 61q58 0 90.5 64.5t32.5 179.5q0 111 -32 176.5t-91 65.5t-91 -63.5t-32 -178.5q0 -113 31.5 -178.5t91.5 -65.5z" />
    <glyph glyph-name="ampersand" unicode="&#x26;" horiz-adv-x="1245" 
d="M795 842h403v-92h-186q8 -166 -29 -315.5t-115 -256.5q118 -97 236 -94l-4 -86q-147 -6 -293 111q-135 -125 -328 -125q-188 0 -282.5 121t-94.5 325q0 181 84 318.5t217 205.5q-4 86 -4 127q2 170 73 269.5t198 99.5q108 0 169.5 -71t61.5 -199q0 -152 -106 -338z
M805 238q68 93 99.5 225.5t23.5 286.5h-230v92q55 79 84 163t29 156q0 88 -39.5 136.5t-107.5 48.5q-80 0 -125 -70.5t-45 -194.5q0 -228 87.5 -462.5t223.5 -380.5zM199 434q0 -162 72.5 -259t209.5 -97q153 0 260 90q-120 123 -206.5 307t-118.5 387q-217 -145 -217 -428z
" />
    <glyph glyph-name="quotesingle" unicode="'" horiz-adv-x="303" 
d="M201 1511l-11 -342h-77l-11 342h99z" />
    <glyph glyph-name="parenleft" unicode="(" horiz-adv-x="618" 
d="M586 -301l-68 -57q-202 166 -309 404.5t-107 524.5q0 287 107 525.5t309 404.5l68 -55q-187 -161 -285 -385t-98 -490t98 -488.5t285 -383.5z" />
    <glyph glyph-name="parenright" unicode=")" horiz-adv-x="618" 
d="M33 1446l69 55q200 -165 307 -403.5t107 -526.5q0 -286 -106.5 -523.5t-307.5 -405.5l-69 57q187 161 285 384.5t98 487.5q0 266 -98 490t-285 385z" />
    <glyph glyph-name="asterisk" unicode="*" horiz-adv-x="845" 
d="M582 1139l-125 -31l84 -94l114 -150l-61 -43l-105 154l-65 108l-68 -108l-104 -154l-62 43l115 150l84 94l-125 31l-178 53l20 70l179 -62l114 -47l-10 125l-2 186h74l-4 -186l-11 -125l115 47l178 62l21 -70zM422 1120h2v2z" />
    <glyph glyph-name="plus" unicode="+" horiz-adv-x="645" 
d="M362 719h248v-82h-248v-244h-81v244h-248v82h248v242h81v-242z" />
    <glyph glyph-name="comma" unicode="," horiz-adv-x="442" 
d="M160 -229l-31 47q104 76 94 182h-78v145h148q54 -270 -133 -374z" />
    <glyph glyph-name="hyphen" unicode="-" horiz-adv-x="616" 
d="M584 489v-83h-551v83h551z" />
    <glyph glyph-name="period" unicode="." horiz-adv-x="442" 
d="M143 0v145h154v-145h-154z" />
    <glyph glyph-name="slash" unicode="/" horiz-adv-x="903" 
d="M115 -219h-97l768 1673h99z" />
    <glyph glyph-name="zero" unicode="0" horiz-adv-x="2742" 
d="M1669 946h995v-395h-2568v395h996q8 114 90.5 192.5t197.5 78.5t198 -78.5t91 -192.5zM1206 1120h348q-78 68 -174 68q-99 0 -174 -68zM1235 760h346q59 72 59 166q0 99 -65 174zM1528 1092h-350q-60 -73 -60 -166q0 -99 68 -174zM1825 621q57 0 96 37t39 94q0 55 -39 92
t-96 37t-95 -37t-38 -92q0 -57 38 -94t95 -37zM283 803h57v71h-197v-71h60v-176h80v176zM451 698l30 -71h84l-43 94q29 25 29 65q0 38 -27.5 63t-66.5 25h-103v-247h80v71h17zM578 627h77v247h-77v-247zM834 666l10 -39h86l-84 247h-92l-84 -247h84l10 39h70zM944 627h168
v67h-88v180h-80v-247zM2132 627h82v247h-80v-131l-76 131h-82v-247h80l-2 121zM2238 627h168v67h-88v180h-80v-247zM2531 627v98l84 149h-92l-33 -73l-30 73h-95l86 -149v-98h80zM1825 809q25 0 40 -16t15 -41q0 -26 -15 -43t-40 -17q-24 0 -40 17t-16 43q0 24 16.5 40.5
t39.5 16.5zM434 807h21q6 0 11 -6.5t5 -14.5q0 -9 -5 -15.5t-11 -6.5h-21v43zM780 731l17 60h2l16 -60h-35zM1554 731h-348q75 -65 174 -65t174 65zM1085 387v-27q25 -14 54 -14q23 0 38 12.5t15 34.5q0 28 -47 45q-12 4 -17.5 6.5t-10.5 7.5t-5 13q0 22 29 22q23 0 41 -14
v27q-20 10 -41 10q-24 0 -39 -12t-15 -33q0 -14 7.5 -23.5t14.5 -13t24 -10.5q34 -9 34 -25q0 -24 -28 -24q-29 0 -54 18zM1268 428q0 -35 23.5 -58.5t58.5 -23.5q34 0 58 23.5t24 58.5q0 34 -24 58t-58 24q-35 0 -58.5 -24t-23.5 -58zM1593 344v162h-24v-111l-101 113h-12
v-160h25v107l100 -111h12zM197 506h-103v-158h25v60h67v22h-67v53h78v23zM217 506v-96q0 -28 18 -46t46 -18q29 0 47 18t18 46v96h-24v-96q0 -17 -12 -29t-29 -12t-28 11t-11 30v96h-25zM401 506h-24v-158h96v23h-72v135zM520 506h-24v-158h98v23h-74v135zM741 348l66 158
h-29l-45 -117l-45 117h-29l66 -158h16zM930 506h-103v-158h103v23h-78v47h68v20h-68v45h78v23zM1018 406l26 -58h29l-31 64q25 14 25 43q0 22 -14.5 36.5t-36.5 14.5h-60v-158h25v58h37zM1241 506h-24v-158h24v158zM1405 428q0 -26 -15.5 -42.5t-39.5 -16.5
q-25 0 -41.5 16.5t-16.5 42.5q0 25 16.5 41t41.5 16q23 0 39 -16t16 -41zM1042 455q0 -12 -7.5 -20.5t-18.5 -8.5h-35v57h35q11 0 18.5 -8t7.5 -20zM2591 375l51 49l-51 49l-17 -14l27 -23h-938v-24h938l-27 -23zM1042 195q0 -51 35 -85t86 -34q52 0 86.5 34t34.5 85
q0 50 -34.5 83t-86.5 33q-51 0 -86 -33.5t-35 -82.5zM1712 172v-76q33 -20 78 -20q40 0 65 20t25 56q0 54 -74 71q-2 1 -7 2q-20 8 -21 15q0 8 22 8q36 0 66 -23v70q-37 16 -66 16q-42 0 -67 -18t-25 -51q0 -29 16 -45t50 -27q4 -2 11.5 -4t11.5 -3t7.5 -4t3.5 -7
q0 -13 -18 -13q-24 0 -78 33zM1974 195q0 -51 34.5 -85t84.5 -34q25 0 53 14l2 72q-21 -21 -51 -21q-22 0 -36.5 15.5t-14.5 38.5q0 22 14.5 36.5t36.5 14.5q20 0 45 -15v68q-21 12 -47 12q-51 0 -86 -33.5t-35 -82.5zM2154 195q0 -51 35 -85t88 -34q51 0 86 34t35 85
q0 49 -35 82.5t-86 33.5q-52 0 -87.5 -33t-35.5 -83zM96 242h74l-84 -160h195v63h-78l84 160h-191v-63zM463 305h-162v-223h164v61h-92v21h78v61h-78v19h90v61zM473 242h53v-160h72v160h53v63h-178v-63zM711 117h63l8 -35h78l-76 223h-82l-75 -223h73zM1034 305h-162v-223
h72v70h76v59h-76v33h90v61zM1513 82v223h-71v-119l-68 119h-74v-223h72l-2 108l70 -108h73zM1526 242h53v-160h72v160h51v63h-176v-63zM2484 305h-71v-223h71v88l29 -55h51l29 55v-88h69v223h-71l-54 -102zM1212 195q0 -23 -13.5 -38.5t-35.5 -15.5t-35.5 15.5t-13.5 38.5
q0 22 13.5 36.5t35.5 14.5t35.5 -14.5t13.5 -36.5zM2327 195q0 -23 -14.5 -38.5t-35.5 -15.5q-22 0 -36.5 15.5t-14.5 38.5q0 22 14.5 36.5t36.5 14.5q21 0 35.5 -15t14.5 -36zM743 229l15 -53h-31l14 53h2zM1890 111q0 -14 10 -24.5t27 -10.5q15 0 25 10.5t10 24.5t-10 23
t-25 9q-17 0 -27 -9t-10 -23z" />
    <glyph glyph-name="one" unicode="1" horiz-adv-x="2750" 
d="M1669 946h995v-395h-2568v395h996q8 114 90.5 192.5t197.5 78.5t198 -78.5t91 -192.5zM1206 1120h348q-78 68 -174 68q-99 0 -174 -68zM1235 760h346q59 72 59 166q0 99 -65 174zM1528 1092h-350q-60 -73 -60 -166q0 -99 68 -174zM1825 621q57 0 96 37t39 94q0 55 -39 92
t-96 37t-95 -37t-38 -92q0 -57 38 -94t95 -37zM283 803h57v71h-197v-71h60v-176h80v176zM451 698l30 -71h84l-43 94q29 25 29 65q0 38 -27.5 63t-66.5 25h-103v-247h80v71h17zM578 627h77v247h-77v-247zM834 666l10 -39h86l-84 247h-92l-84 -247h84l10 39h70zM944 627h168
v67h-88v180h-80v-247zM2132 627h82v247h-80v-131l-76 131h-82v-247h80l-2 121zM2238 627h168v67h-88v180h-80v-247zM2531 627v98l84 149h-92l-33 -73l-30 73h-95l86 -149v-98h80zM1825 809q25 0 40 -16t15 -41q0 -26 -15 -43t-40 -17q-24 0 -40 17t-16 43q0 24 16.5 40.5
t39.5 16.5zM434 807h21q6 0 11 -6.5t5 -14.5q0 -9 -5 -15.5t-11 -6.5h-21v43zM780 731l17 60h2l16 -60h-35zM1554 731h-348q75 -65 174 -65t174 65zM1085 387v-27q25 -14 54 -14q23 0 38 12.5t15 34.5q0 28 -47 45q-12 4 -17.5 6.5t-10.5 7.5t-5 13q0 22 29 22q23 0 41 -14
v27q-20 10 -41 10q-24 0 -39 -12t-15 -33q0 -14 7.5 -23.5t14.5 -13t24 -10.5q34 -9 34 -25q0 -24 -28 -24q-29 0 -54 18zM1268 428q0 -35 23.5 -58.5t58.5 -23.5q34 0 58 23.5t24 58.5q0 34 -24 58t-58 24q-35 0 -58.5 -24t-23.5 -58zM1593 344v162h-24v-111l-101 113h-12
v-160h25v107l100 -111h12zM197 506h-103v-158h25v60h67v22h-67v53h78v23zM217 506v-96q0 -28 18 -46t46 -18q29 0 47 18t18 46v96h-24v-96q0 -17 -12 -29t-29 -12t-28 11t-11 30v96h-25zM401 506h-24v-158h96v23h-72v135zM520 506h-24v-158h98v23h-74v135zM741 348l66 158
h-29l-45 -117l-45 117h-29l66 -158h16zM930 506h-103v-158h103v23h-78v47h68v20h-68v45h78v23zM1018 406l26 -58h29l-31 64q25 14 25 43q0 22 -14.5 36.5t-36.5 14.5h-60v-158h25v58h37zM1241 506h-24v-158h24v158zM1405 428q0 -26 -15.5 -42.5t-39.5 -16.5
q-25 0 -41.5 16.5t-16.5 42.5q0 25 16.5 41t41.5 16q23 0 39 -16t16 -41zM1042 455q0 -12 -7.5 -20.5t-18.5 -8.5h-35v57h35q11 0 18.5 -8t7.5 -20zM2591 375l51 49l-51 49l-17 -14l27 -23h-938v-24h938l-27 -23zM1042 195q0 -51 35 -85t86 -34q52 0 86.5 34t34.5 85
q0 50 -34.5 83t-86.5 33q-51 0 -86 -33.5t-35 -82.5zM1712 172v-76q33 -20 78 -20q40 0 65 20t25 56q0 54 -74 71q-2 1 -7 2q-20 8 -21 15q0 8 22 8q36 0 66 -23v70q-37 16 -66 16q-42 0 -67 -18t-25 -51q0 -29 16 -45t50 -27q4 -2 11.5 -4t11.5 -3t7.5 -4t3.5 -7
q0 -13 -18 -13q-24 0 -78 33zM1974 195q0 -51 34.5 -85t84.5 -34q25 0 53 14l2 72q-21 -21 -51 -21q-22 0 -36.5 15.5t-14.5 38.5q0 22 14.5 36.5t36.5 14.5q20 0 45 -15v68q-21 12 -47 12q-51 0 -86 -33.5t-35 -82.5zM2154 195q0 -51 35 -85t88 -34q51 0 86 34t35 85
q0 49 -35 82.5t-86 33.5q-52 0 -87.5 -33t-35.5 -83zM96 242h74l-84 -160h195v63h-78l84 160h-191v-63zM463 305h-162v-223h164v61h-92v21h78v61h-78v19h90v61zM473 242h53v-160h72v160h53v63h-178v-63zM711 117h63l8 -35h78l-76 223h-82l-75 -223h73zM1034 305h-162v-223
h72v70h76v59h-76v33h90v61zM1513 82v223h-71v-119l-68 119h-74v-223h72l-2 108l70 -108h73zM1526 242h53v-160h72v160h51v63h-176v-63zM2484 305h-71v-223h71v88l29 -55h51l29 55v-88h69v223h-71l-54 -102zM1212 195q0 -23 -13.5 -38.5t-35.5 -15.5t-35.5 15.5t-13.5 38.5
q0 22 13.5 36.5t35.5 14.5t35.5 -14.5t13.5 -36.5zM2327 195q0 -23 -14.5 -38.5t-35.5 -15.5q-22 0 -36.5 15.5t-14.5 38.5q0 22 14.5 36.5t36.5 14.5q21 0 35.5 -15t14.5 -36zM743 229l15 -53h-31l14 53h2zM1890 111q0 -14 10 -24.5t27 -10.5q15 0 25 10.5t10 24.5t-10 23
t-25 9q-17 0 -27 -9t-10 -23z" />
    <glyph glyph-name="two" unicode="2" horiz-adv-x="2750" 
d="M1669 946h995v-395h-2568v395h996q8 114 90.5 192.5t197.5 78.5t198 -78.5t91 -192.5zM1206 1120h348q-78 68 -174 68q-99 0 -174 -68zM1235 760h346q59 72 59 166q0 99 -65 174zM1528 1092h-350q-60 -73 -60 -166q0 -99 68 -174zM1825 621q57 0 96 37t39 94q0 55 -39 92
t-96 37t-95 -37t-38 -92q0 -57 38 -94t95 -37zM283 803h57v71h-197v-71h60v-176h80v176zM451 698l30 -71h84l-43 94q29 25 29 65q0 38 -27.5 63t-66.5 25h-103v-247h80v71h17zM578 627h77v247h-77v-247zM834 666l10 -39h86l-84 247h-92l-84 -247h84l10 39h70zM944 627h168
v67h-88v180h-80v-247zM2132 627h82v247h-80v-131l-76 131h-82v-247h80l-2 121zM2238 627h168v67h-88v180h-80v-247zM2531 627v98l84 149h-92l-33 -73l-30 73h-95l86 -149v-98h80zM1825 809q25 0 40 -16t15 -41q0 -26 -15 -43t-40 -17q-24 0 -40 17t-16 43q0 24 16.5 40.5
t39.5 16.5zM434 807h21q6 0 11 -6.5t5 -14.5q0 -9 -5 -15.5t-11 -6.5h-21v43zM780 731l17 60h2l16 -60h-35zM1554 731h-348q75 -65 174 -65t174 65zM1085 387v-27q25 -14 54 -14q23 0 38 12.5t15 34.5q0 28 -47 45q-12 4 -17.5 6.5t-10.5 7.5t-5 13q0 22 29 22q23 0 41 -14
v27q-20 10 -41 10q-24 0 -39 -12t-15 -33q0 -14 7.5 -23.5t14.5 -13t24 -10.5q34 -9 34 -25q0 -24 -28 -24q-29 0 -54 18zM1268 428q0 -35 23.5 -58.5t58.5 -23.5q34 0 58 23.5t24 58.5q0 34 -24 58t-58 24q-35 0 -58.5 -24t-23.5 -58zM1593 344v162h-24v-111l-101 113h-12
v-160h25v107l100 -111h12zM197 506h-103v-158h25v60h67v22h-67v53h78v23zM217 506v-96q0 -28 18 -46t46 -18q29 0 47 18t18 46v96h-24v-96q0 -17 -12 -29t-29 -12t-28 11t-11 30v96h-25zM401 506h-24v-158h96v23h-72v135zM520 506h-24v-158h98v23h-74v135zM741 348l66 158
h-29l-45 -117l-45 117h-29l66 -158h16zM930 506h-103v-158h103v23h-78v47h68v20h-68v45h78v23zM1018 406l26 -58h29l-31 64q25 14 25 43q0 22 -14.5 36.5t-36.5 14.5h-60v-158h25v58h37zM1241 506h-24v-158h24v158zM1405 428q0 -26 -15.5 -42.5t-39.5 -16.5
q-25 0 -41.5 16.5t-16.5 42.5q0 25 16.5 41t41.5 16q23 0 39 -16t16 -41zM1042 455q0 -12 -7.5 -20.5t-18.5 -8.5h-35v57h35q11 0 18.5 -8t7.5 -20zM2591 375l51 49l-51 49l-17 -14l27 -23h-938v-24h938l-27 -23zM1042 195q0 -51 35 -85t86 -34q52 0 86.5 34t34.5 85
q0 50 -34.5 83t-86.5 33q-51 0 -86 -33.5t-35 -82.5zM1712 172v-76q33 -20 78 -20q40 0 65 20t25 56q0 54 -74 71q-2 1 -7 2q-20 8 -21 15q0 8 22 8q36 0 66 -23v70q-37 16 -66 16q-42 0 -67 -18t-25 -51q0 -29 16 -45t50 -27q4 -2 11.5 -4t11.5 -3t7.5 -4t3.5 -7
q0 -13 -18 -13q-24 0 -78 33zM1974 195q0 -51 34.5 -85t84.5 -34q25 0 53 14l2 72q-21 -21 -51 -21q-22 0 -36.5 15.5t-14.5 38.5q0 22 14.5 36.5t36.5 14.5q20 0 45 -15v68q-21 12 -47 12q-51 0 -86 -33.5t-35 -82.5zM2154 195q0 -51 35 -85t88 -34q51 0 86 34t35 85
q0 49 -35 82.5t-86 33.5q-52 0 -87.5 -33t-35.5 -83zM96 242h74l-84 -160h195v63h-78l84 160h-191v-63zM463 305h-162v-223h164v61h-92v21h78v61h-78v19h90v61zM473 242h53v-160h72v160h53v63h-178v-63zM711 117h63l8 -35h78l-76 223h-82l-75 -223h73zM1034 305h-162v-223
h72v70h76v59h-76v33h90v61zM1513 82v223h-71v-119l-68 119h-74v-223h72l-2 108l70 -108h73zM1526 242h53v-160h72v160h51v63h-176v-63zM2484 305h-71v-223h71v88l29 -55h51l29 55v-88h69v223h-71l-54 -102zM1212 195q0 -23 -13.5 -38.5t-35.5 -15.5t-35.5 15.5t-13.5 38.5
q0 22 13.5 36.5t35.5 14.5t35.5 -14.5t13.5 -36.5zM2327 195q0 -23 -14.5 -38.5t-35.5 -15.5q-22 0 -36.5 15.5t-14.5 38.5q0 22 14.5 36.5t36.5 14.5q21 0 35.5 -15t14.5 -36zM743 229l15 -53h-31l14 53h2zM1890 111q0 -14 10 -24.5t27 -10.5q15 0 25 10.5t10 24.5t-10 23
t-25 9q-17 0 -27 -9t-10 -23z" />
    <glyph glyph-name="three" unicode="3" horiz-adv-x="2750" 
d="M1669 946h995v-395h-2568v395h996q8 114 90.5 192.5t197.5 78.5t198 -78.5t91 -192.5zM1206 1120h348q-78 68 -174 68q-99 0 -174 -68zM1235 760h346q59 72 59 166q0 99 -65 174zM1528 1092h-350q-60 -73 -60 -166q0 -99 68 -174zM1825 621q57 0 96 37t39 94q0 55 -39 92
t-96 37t-95 -37t-38 -92q0 -57 38 -94t95 -37zM283 803h57v71h-197v-71h60v-176h80v176zM451 698l30 -71h84l-43 94q29 25 29 65q0 38 -27.5 63t-66.5 25h-103v-247h80v71h17zM578 627h77v247h-77v-247zM834 666l10 -39h86l-84 247h-92l-84 -247h84l10 39h70zM944 627h168
v67h-88v180h-80v-247zM2132 627h82v247h-80v-131l-76 131h-82v-247h80l-2 121zM2238 627h168v67h-88v180h-80v-247zM2531 627v98l84 149h-92l-33 -73l-30 73h-95l86 -149v-98h80zM1825 809q25 0 40 -16t15 -41q0 -26 -15 -43t-40 -17q-24 0 -40 17t-16 43q0 24 16.5 40.5
t39.5 16.5zM434 807h21q6 0 11 -6.5t5 -14.5q0 -9 -5 -15.5t-11 -6.5h-21v43zM780 731l17 60h2l16 -60h-35zM1554 731h-348q75 -65 174 -65t174 65zM1085 387v-27q25 -14 54 -14q23 0 38 12.5t15 34.5q0 28 -47 45q-12 4 -17.5 6.5t-10.5 7.5t-5 13q0 22 29 22q23 0 41 -14
v27q-20 10 -41 10q-24 0 -39 -12t-15 -33q0 -14 7.5 -23.5t14.5 -13t24 -10.5q34 -9 34 -25q0 -24 -28 -24q-29 0 -54 18zM1268 428q0 -35 23.5 -58.5t58.5 -23.5q34 0 58 23.5t24 58.5q0 34 -24 58t-58 24q-35 0 -58.5 -24t-23.5 -58zM1593 344v162h-24v-111l-101 113h-12
v-160h25v107l100 -111h12zM197 506h-103v-158h25v60h67v22h-67v53h78v23zM217 506v-96q0 -28 18 -46t46 -18q29 0 47 18t18 46v96h-24v-96q0 -17 -12 -29t-29 -12t-28 11t-11 30v96h-25zM401 506h-24v-158h96v23h-72v135zM520 506h-24v-158h98v23h-74v135zM741 348l66 158
h-29l-45 -117l-45 117h-29l66 -158h16zM930 506h-103v-158h103v23h-78v47h68v20h-68v45h78v23zM1018 406l26 -58h29l-31 64q25 14 25 43q0 22 -14.5 36.5t-36.5 14.5h-60v-158h25v58h37zM1241 506h-24v-158h24v158zM1405 428q0 -26 -15.5 -42.5t-39.5 -16.5
q-25 0 -41.5 16.5t-16.5 42.5q0 25 16.5 41t41.5 16q23 0 39 -16t16 -41zM1042 455q0 -12 -7.5 -20.5t-18.5 -8.5h-35v57h35q11 0 18.5 -8t7.5 -20zM2591 375l51 49l-51 49l-17 -14l27 -23h-938v-24h938l-27 -23zM1042 195q0 -51 35 -85t86 -34q52 0 86.5 34t34.5 85
q0 50 -34.5 83t-86.5 33q-51 0 -86 -33.5t-35 -82.5zM1712 172v-76q33 -20 78 -20q40 0 65 20t25 56q0 54 -74 71q-2 1 -7 2q-20 8 -21 15q0 8 22 8q36 0 66 -23v70q-37 16 -66 16q-42 0 -67 -18t-25 -51q0 -29 16 -45t50 -27q4 -2 11.5 -4t11.5 -3t7.5 -4t3.5 -7
q0 -13 -18 -13q-24 0 -78 33zM1974 195q0 -51 34.5 -85t84.5 -34q25 0 53 14l2 72q-21 -21 -51 -21q-22 0 -36.5 15.5t-14.5 38.5q0 22 14.5 36.5t36.5 14.5q20 0 45 -15v68q-21 12 -47 12q-51 0 -86 -33.5t-35 -82.5zM2154 195q0 -51 35 -85t88 -34q51 0 86 34t35 85
q0 49 -35 82.5t-86 33.5q-52 0 -87.5 -33t-35.5 -83zM96 242h74l-84 -160h195v63h-78l84 160h-191v-63zM463 305h-162v-223h164v61h-92v21h78v61h-78v19h90v61zM473 242h53v-160h72v160h53v63h-178v-63zM711 117h63l8 -35h78l-76 223h-82l-75 -223h73zM1034 305h-162v-223
h72v70h76v59h-76v33h90v61zM1513 82v223h-71v-119l-68 119h-74v-223h72l-2 108l70 -108h73zM1526 242h53v-160h72v160h51v63h-176v-63zM2484 305h-71v-223h71v88l29 -55h51l29 55v-88h69v223h-71l-54 -102zM1212 195q0 -23 -13.5 -38.5t-35.5 -15.5t-35.5 15.5t-13.5 38.5
q0 22 13.5 36.5t35.5 14.5t35.5 -14.5t13.5 -36.5zM2327 195q0 -23 -14.5 -38.5t-35.5 -15.5q-22 0 -36.5 15.5t-14.5 38.5q0 22 14.5 36.5t36.5 14.5q21 0 35.5 -15t14.5 -36zM743 229l15 -53h-31l14 53h2zM1890 111q0 -14 10 -24.5t27 -10.5q15 0 25 10.5t10 24.5t-10 23
t-25 9q-17 0 -27 -9t-10 -23z" />
    <glyph glyph-name="four" unicode="4" horiz-adv-x="2750" 
d="M1669 946h995v-395h-2568v395h996q8 114 90.5 192.5t197.5 78.5t198 -78.5t91 -192.5zM1206 1120h348q-78 68 -174 68q-99 0 -174 -68zM1235 760h346q59 72 59 166q0 99 -65 174zM1528 1092h-350q-60 -73 -60 -166q0 -99 68 -174zM1825 621q57 0 96 37t39 94q0 55 -39 92
t-96 37t-95 -37t-38 -92q0 -57 38 -94t95 -37zM283 803h57v71h-197v-71h60v-176h80v176zM451 698l30 -71h84l-43 94q29 25 29 65q0 38 -27.5 63t-66.5 25h-103v-247h80v71h17zM578 627h77v247h-77v-247zM834 666l10 -39h86l-84 247h-92l-84 -247h84l10 39h70zM944 627h168
v67h-88v180h-80v-247zM2132 627h82v247h-80v-131l-76 131h-82v-247h80l-2 121zM2238 627h168v67h-88v180h-80v-247zM2531 627v98l84 149h-92l-33 -73l-30 73h-95l86 -149v-98h80zM1825 809q25 0 40 -16t15 -41q0 -26 -15 -43t-40 -17q-24 0 -40 17t-16 43q0 24 16.5 40.5
t39.5 16.5zM434 807h21q6 0 11 -6.5t5 -14.5q0 -9 -5 -15.5t-11 -6.5h-21v43zM780 731l17 60h2l16 -60h-35zM1554 731h-348q75 -65 174 -65t174 65zM1085 387v-27q25 -14 54 -14q23 0 38 12.5t15 34.5q0 28 -47 45q-12 4 -17.5 6.5t-10.5 7.5t-5 13q0 22 29 22q23 0 41 -14
v27q-20 10 -41 10q-24 0 -39 -12t-15 -33q0 -14 7.5 -23.5t14.5 -13t24 -10.5q34 -9 34 -25q0 -24 -28 -24q-29 0 -54 18zM1268 428q0 -35 23.5 -58.5t58.5 -23.5q34 0 58 23.5t24 58.5q0 34 -24 58t-58 24q-35 0 -58.5 -24t-23.5 -58zM1593 344v162h-24v-111l-101 113h-12
v-160h25v107l100 -111h12zM197 506h-103v-158h25v60h67v22h-67v53h78v23zM217 506v-96q0 -28 18 -46t46 -18q29 0 47 18t18 46v96h-24v-96q0 -17 -12 -29t-29 -12t-28 11t-11 30v96h-25zM401 506h-24v-158h96v23h-72v135zM520 506h-24v-158h98v23h-74v135zM741 348l66 158
h-29l-45 -117l-45 117h-29l66 -158h16zM930 506h-103v-158h103v23h-78v47h68v20h-68v45h78v23zM1018 406l26 -58h29l-31 64q25 14 25 43q0 22 -14.5 36.5t-36.5 14.5h-60v-158h25v58h37zM1241 506h-24v-158h24v158zM1405 428q0 -26 -15.5 -42.5t-39.5 -16.5
q-25 0 -41.5 16.5t-16.5 42.5q0 25 16.5 41t41.5 16q23 0 39 -16t16 -41zM1042 455q0 -12 -7.5 -20.5t-18.5 -8.5h-35v57h35q11 0 18.5 -8t7.5 -20zM2591 375l51 49l-51 49l-17 -14l27 -23h-938v-24h938l-27 -23zM1042 195q0 -51 35 -85t86 -34q52 0 86.5 34t34.5 85
q0 50 -34.5 83t-86.5 33q-51 0 -86 -33.5t-35 -82.5zM1712 172v-76q33 -20 78 -20q40 0 65 20t25 56q0 54 -74 71q-2 1 -7 2q-20 8 -21 15q0 8 22 8q36 0 66 -23v70q-37 16 -66 16q-42 0 -67 -18t-25 -51q0 -29 16 -45t50 -27q4 -2 11.5 -4t11.5 -3t7.5 -4t3.5 -7
q0 -13 -18 -13q-24 0 -78 33zM1974 195q0 -51 34.5 -85t84.5 -34q25 0 53 14l2 72q-21 -21 -51 -21q-22 0 -36.5 15.5t-14.5 38.5q0 22 14.5 36.5t36.5 14.5q20 0 45 -15v68q-21 12 -47 12q-51 0 -86 -33.5t-35 -82.5zM2154 195q0 -51 35 -85t88 -34q51 0 86 34t35 85
q0 49 -35 82.5t-86 33.5q-52 0 -87.5 -33t-35.5 -83zM96 242h74l-84 -160h195v63h-78l84 160h-191v-63zM463 305h-162v-223h164v61h-92v21h78v61h-78v19h90v61zM473 242h53v-160h72v160h53v63h-178v-63zM711 117h63l8 -35h78l-76 223h-82l-75 -223h73zM1034 305h-162v-223
h72v70h76v59h-76v33h90v61zM1513 82v223h-71v-119l-68 119h-74v-223h72l-2 108l70 -108h73zM1526 242h53v-160h72v160h51v63h-176v-63zM2484 305h-71v-223h71v88l29 -55h51l29 55v-88h69v223h-71l-54 -102zM1212 195q0 -23 -13.5 -38.5t-35.5 -15.5t-35.5 15.5t-13.5 38.5
q0 22 13.5 36.5t35.5 14.5t35.5 -14.5t13.5 -36.5zM2327 195q0 -23 -14.5 -38.5t-35.5 -15.5q-22 0 -36.5 15.5t-14.5 38.5q0 22 14.5 36.5t36.5 14.5q21 0 35.5 -15t14.5 -36zM743 229l15 -53h-31l14 53h2zM1890 111q0 -14 10 -24.5t27 -10.5q15 0 25 10.5t10 24.5t-10 23
t-25 9q-17 0 -27 -9t-10 -23z" />
    <glyph glyph-name="five" unicode="5" horiz-adv-x="2750" 
d="M1669 946h995v-395h-2568v395h996q8 114 90.5 192.5t197.5 78.5t198 -78.5t91 -192.5zM1206 1120h348q-78 68 -174 68q-99 0 -174 -68zM1235 760h346q59 72 59 166q0 99 -65 174zM1528 1092h-350q-60 -73 -60 -166q0 -99 68 -174zM1825 621q57 0 96 37t39 94q0 55 -39 92
t-96 37t-95 -37t-38 -92q0 -57 38 -94t95 -37zM283 803h57v71h-197v-71h60v-176h80v176zM451 698l30 -71h84l-43 94q29 25 29 65q0 38 -27.5 63t-66.5 25h-103v-247h80v71h17zM578 627h77v247h-77v-247zM834 666l10 -39h86l-84 247h-92l-84 -247h84l10 39h70zM944 627h168
v67h-88v180h-80v-247zM2132 627h82v247h-80v-131l-76 131h-82v-247h80l-2 121zM2238 627h168v67h-88v180h-80v-247zM2531 627v98l84 149h-92l-33 -73l-30 73h-95l86 -149v-98h80zM1825 809q25 0 40 -16t15 -41q0 -26 -15 -43t-40 -17q-24 0 -40 17t-16 43q0 24 16.5 40.5
t39.5 16.5zM434 807h21q6 0 11 -6.5t5 -14.5q0 -9 -5 -15.5t-11 -6.5h-21v43zM780 731l17 60h2l16 -60h-35zM1554 731h-348q75 -65 174 -65t174 65zM1085 387v-27q25 -14 54 -14q23 0 38 12.5t15 34.5q0 28 -47 45q-12 4 -17.5 6.5t-10.5 7.5t-5 13q0 22 29 22q23 0 41 -14
v27q-20 10 -41 10q-24 0 -39 -12t-15 -33q0 -14 7.5 -23.5t14.5 -13t24 -10.5q34 -9 34 -25q0 -24 -28 -24q-29 0 -54 18zM1268 428q0 -35 23.5 -58.5t58.5 -23.5q34 0 58 23.5t24 58.5q0 34 -24 58t-58 24q-35 0 -58.5 -24t-23.5 -58zM1593 344v162h-24v-111l-101 113h-12
v-160h25v107l100 -111h12zM197 506h-103v-158h25v60h67v22h-67v53h78v23zM217 506v-96q0 -28 18 -46t46 -18q29 0 47 18t18 46v96h-24v-96q0 -17 -12 -29t-29 -12t-28 11t-11 30v96h-25zM401 506h-24v-158h96v23h-72v135zM520 506h-24v-158h98v23h-74v135zM741 348l66 158
h-29l-45 -117l-45 117h-29l66 -158h16zM930 506h-103v-158h103v23h-78v47h68v20h-68v45h78v23zM1018 406l26 -58h29l-31 64q25 14 25 43q0 22 -14.5 36.5t-36.5 14.5h-60v-158h25v58h37zM1241 506h-24v-158h24v158zM1405 428q0 -26 -15.5 -42.5t-39.5 -16.5
q-25 0 -41.5 16.5t-16.5 42.5q0 25 16.5 41t41.5 16q23 0 39 -16t16 -41zM1042 455q0 -12 -7.5 -20.5t-18.5 -8.5h-35v57h35q11 0 18.5 -8t7.5 -20zM2591 375l51 49l-51 49l-17 -14l27 -23h-938v-24h938l-27 -23zM1042 195q0 -51 35 -85t86 -34q52 0 86.5 34t34.5 85
q0 50 -34.5 83t-86.5 33q-51 0 -86 -33.5t-35 -82.5zM1712 172v-76q33 -20 78 -20q40 0 65 20t25 56q0 54 -74 71q-2 1 -7 2q-20 8 -21 15q0 8 22 8q36 0 66 -23v70q-37 16 -66 16q-42 0 -67 -18t-25 -51q0 -29 16 -45t50 -27q4 -2 11.5 -4t11.5 -3t7.5 -4t3.5 -7
q0 -13 -18 -13q-24 0 -78 33zM1974 195q0 -51 34.5 -85t84.5 -34q25 0 53 14l2 72q-21 -21 -51 -21q-22 0 -36.5 15.5t-14.5 38.5q0 22 14.5 36.5t36.5 14.5q20 0 45 -15v68q-21 12 -47 12q-51 0 -86 -33.5t-35 -82.5zM2154 195q0 -51 35 -85t88 -34q51 0 86 34t35 85
q0 49 -35 82.5t-86 33.5q-52 0 -87.5 -33t-35.5 -83zM96 242h74l-84 -160h195v63h-78l84 160h-191v-63zM463 305h-162v-223h164v61h-92v21h78v61h-78v19h90v61zM473 242h53v-160h72v160h53v63h-178v-63zM711 117h63l8 -35h78l-76 223h-82l-75 -223h73zM1034 305h-162v-223
h72v70h76v59h-76v33h90v61zM1513 82v223h-71v-119l-68 119h-74v-223h72l-2 108l70 -108h73zM1526 242h53v-160h72v160h51v63h-176v-63zM2484 305h-71v-223h71v88l29 -55h51l29 55v-88h69v223h-71l-54 -102zM1212 195q0 -23 -13.5 -38.5t-35.5 -15.5t-35.5 15.5t-13.5 38.5
q0 22 13.5 36.5t35.5 14.5t35.5 -14.5t13.5 -36.5zM2327 195q0 -23 -14.5 -38.5t-35.5 -15.5q-22 0 -36.5 15.5t-14.5 38.5q0 22 14.5 36.5t36.5 14.5q21 0 35.5 -15t14.5 -36zM743 229l15 -53h-31l14 53h2zM1890 111q0 -14 10 -24.5t27 -10.5q15 0 25 10.5t10 24.5t-10 23
t-25 9q-17 0 -27 -9t-10 -23z" />
    <glyph glyph-name="six" unicode="6" horiz-adv-x="2750" 
d="M1669 946h995v-395h-2568v395h996q8 114 90.5 192.5t197.5 78.5t198 -78.5t91 -192.5zM1206 1120h348q-78 68 -174 68q-99 0 -174 -68zM1235 760h346q59 72 59 166q0 99 -65 174zM1528 1092h-350q-60 -73 -60 -166q0 -99 68 -174zM1825 621q57 0 96 37t39 94q0 55 -39 92
t-96 37t-95 -37t-38 -92q0 -57 38 -94t95 -37zM283 803h57v71h-197v-71h60v-176h80v176zM451 698l30 -71h84l-43 94q29 25 29 65q0 38 -27.5 63t-66.5 25h-103v-247h80v71h17zM578 627h77v247h-77v-247zM834 666l10 -39h86l-84 247h-92l-84 -247h84l10 39h70zM944 627h168
v67h-88v180h-80v-247zM2132 627h82v247h-80v-131l-76 131h-82v-247h80l-2 121zM2238 627h168v67h-88v180h-80v-247zM2531 627v98l84 149h-92l-33 -73l-30 73h-95l86 -149v-98h80zM1825 809q25 0 40 -16t15 -41q0 -26 -15 -43t-40 -17q-24 0 -40 17t-16 43q0 24 16.5 40.5
t39.5 16.5zM434 807h21q6 0 11 -6.5t5 -14.5q0 -9 -5 -15.5t-11 -6.5h-21v43zM780 731l17 60h2l16 -60h-35zM1554 731h-348q75 -65 174 -65t174 65zM1085 387v-27q25 -14 54 -14q23 0 38 12.5t15 34.5q0 28 -47 45q-12 4 -17.5 6.5t-10.5 7.5t-5 13q0 22 29 22q23 0 41 -14
v27q-20 10 -41 10q-24 0 -39 -12t-15 -33q0 -14 7.5 -23.5t14.5 -13t24 -10.5q34 -9 34 -25q0 -24 -28 -24q-29 0 -54 18zM1268 428q0 -35 23.5 -58.5t58.5 -23.5q34 0 58 23.5t24 58.5q0 34 -24 58t-58 24q-35 0 -58.5 -24t-23.5 -58zM1593 344v162h-24v-111l-101 113h-12
v-160h25v107l100 -111h12zM197 506h-103v-158h25v60h67v22h-67v53h78v23zM217 506v-96q0 -28 18 -46t46 -18q29 0 47 18t18 46v96h-24v-96q0 -17 -12 -29t-29 -12t-28 11t-11 30v96h-25zM401 506h-24v-158h96v23h-72v135zM520 506h-24v-158h98v23h-74v135zM741 348l66 158
h-29l-45 -117l-45 117h-29l66 -158h16zM930 506h-103v-158h103v23h-78v47h68v20h-68v45h78v23zM1018 406l26 -58h29l-31 64q25 14 25 43q0 22 -14.5 36.5t-36.5 14.5h-60v-158h25v58h37zM1241 506h-24v-158h24v158zM1405 428q0 -26 -15.5 -42.5t-39.5 -16.5
q-25 0 -41.5 16.5t-16.5 42.5q0 25 16.5 41t41.5 16q23 0 39 -16t16 -41zM1042 455q0 -12 -7.5 -20.5t-18.5 -8.5h-35v57h35q11 0 18.5 -8t7.5 -20zM2591 375l51 49l-51 49l-17 -14l27 -23h-938v-24h938l-27 -23zM1042 195q0 -51 35 -85t86 -34q52 0 86.5 34t34.5 85
q0 50 -34.5 83t-86.5 33q-51 0 -86 -33.5t-35 -82.5zM1712 172v-76q33 -20 78 -20q40 0 65 20t25 56q0 54 -74 71q-2 1 -7 2q-20 8 -21 15q0 8 22 8q36 0 66 -23v70q-37 16 -66 16q-42 0 -67 -18t-25 -51q0 -29 16 -45t50 -27q4 -2 11.5 -4t11.5 -3t7.5 -4t3.5 -7
q0 -13 -18 -13q-24 0 -78 33zM1974 195q0 -51 34.5 -85t84.5 -34q25 0 53 14l2 72q-21 -21 -51 -21q-22 0 -36.5 15.5t-14.5 38.5q0 22 14.5 36.5t36.5 14.5q20 0 45 -15v68q-21 12 -47 12q-51 0 -86 -33.5t-35 -82.5zM2154 195q0 -51 35 -85t88 -34q51 0 86 34t35 85
q0 49 -35 82.5t-86 33.5q-52 0 -87.5 -33t-35.5 -83zM96 242h74l-84 -160h195v63h-78l84 160h-191v-63zM463 305h-162v-223h164v61h-92v21h78v61h-78v19h90v61zM473 242h53v-160h72v160h53v63h-178v-63zM711 117h63l8 -35h78l-76 223h-82l-75 -223h73zM1034 305h-162v-223
h72v70h76v59h-76v33h90v61zM1513 82v223h-71v-119l-68 119h-74v-223h72l-2 108l70 -108h73zM1526 242h53v-160h72v160h51v63h-176v-63zM2484 305h-71v-223h71v88l29 -55h51l29 55v-88h69v223h-71l-54 -102zM1212 195q0 -23 -13.5 -38.5t-35.5 -15.5t-35.5 15.5t-13.5 38.5
q0 22 13.5 36.5t35.5 14.5t35.5 -14.5t13.5 -36.5zM2327 195q0 -23 -14.5 -38.5t-35.5 -15.5q-22 0 -36.5 15.5t-14.5 38.5q0 22 14.5 36.5t36.5 14.5q21 0 35.5 -15t14.5 -36zM743 229l15 -53h-31l14 53h2zM1890 111q0 -14 10 -24.5t27 -10.5q15 0 25 10.5t10 24.5t-10 23
t-25 9q-17 0 -27 -9t-10 -23z" />
    <glyph glyph-name="seven" unicode="7" horiz-adv-x="2750" 
d="M1669 946h995v-395h-2568v395h996q8 114 90.5 192.5t197.5 78.5t198 -78.5t91 -192.5zM1206 1120h348q-78 68 -174 68q-99 0 -174 -68zM1235 760h346q59 72 59 166q0 99 -65 174zM1528 1092h-350q-60 -73 -60 -166q0 -99 68 -174zM1825 621q57 0 96 37t39 94q0 55 -39 92
t-96 37t-95 -37t-38 -92q0 -57 38 -94t95 -37zM283 803h57v71h-197v-71h60v-176h80v176zM451 698l30 -71h84l-43 94q29 25 29 65q0 38 -27.5 63t-66.5 25h-103v-247h80v71h17zM578 627h77v247h-77v-247zM834 666l10 -39h86l-84 247h-92l-84 -247h84l10 39h70zM944 627h168
v67h-88v180h-80v-247zM2132 627h82v247h-80v-131l-76 131h-82v-247h80l-2 121zM2238 627h168v67h-88v180h-80v-247zM2531 627v98l84 149h-92l-33 -73l-30 73h-95l86 -149v-98h80zM1825 809q25 0 40 -16t15 -41q0 -26 -15 -43t-40 -17q-24 0 -40 17t-16 43q0 24 16.5 40.5
t39.5 16.5zM434 807h21q6 0 11 -6.5t5 -14.5q0 -9 -5 -15.5t-11 -6.5h-21v43zM780 731l17 60h2l16 -60h-35zM1554 731h-348q75 -65 174 -65t174 65zM1085 387v-27q25 -14 54 -14q23 0 38 12.5t15 34.5q0 28 -47 45q-12 4 -17.5 6.5t-10.5 7.5t-5 13q0 22 29 22q23 0 41 -14
v27q-20 10 -41 10q-24 0 -39 -12t-15 -33q0 -14 7.5 -23.5t14.5 -13t24 -10.5q34 -9 34 -25q0 -24 -28 -24q-29 0 -54 18zM1268 428q0 -35 23.5 -58.5t58.5 -23.5q34 0 58 23.5t24 58.5q0 34 -24 58t-58 24q-35 0 -58.5 -24t-23.5 -58zM1593 344v162h-24v-111l-101 113h-12
v-160h25v107l100 -111h12zM197 506h-103v-158h25v60h67v22h-67v53h78v23zM217 506v-96q0 -28 18 -46t46 -18q29 0 47 18t18 46v96h-24v-96q0 -17 -12 -29t-29 -12t-28 11t-11 30v96h-25zM401 506h-24v-158h96v23h-72v135zM520 506h-24v-158h98v23h-74v135zM741 348l66 158
h-29l-45 -117l-45 117h-29l66 -158h16zM930 506h-103v-158h103v23h-78v47h68v20h-68v45h78v23zM1018 406l26 -58h29l-31 64q25 14 25 43q0 22 -14.5 36.5t-36.5 14.5h-60v-158h25v58h37zM1241 506h-24v-158h24v158zM1405 428q0 -26 -15.5 -42.5t-39.5 -16.5
q-25 0 -41.5 16.5t-16.5 42.5q0 25 16.5 41t41.5 16q23 0 39 -16t16 -41zM1042 455q0 -12 -7.5 -20.5t-18.5 -8.5h-35v57h35q11 0 18.5 -8t7.5 -20zM2591 375l51 49l-51 49l-17 -14l27 -23h-938v-24h938l-27 -23zM1042 195q0 -51 35 -85t86 -34q52 0 86.5 34t34.5 85
q0 50 -34.5 83t-86.5 33q-51 0 -86 -33.5t-35 -82.5zM1712 172v-76q33 -20 78 -20q40 0 65 20t25 56q0 54 -74 71q-2 1 -7 2q-20 8 -21 15q0 8 22 8q36 0 66 -23v70q-37 16 -66 16q-42 0 -67 -18t-25 -51q0 -29 16 -45t50 -27q4 -2 11.5 -4t11.5 -3t7.5 -4t3.5 -7
q0 -13 -18 -13q-24 0 -78 33zM1974 195q0 -51 34.5 -85t84.5 -34q25 0 53 14l2 72q-21 -21 -51 -21q-22 0 -36.5 15.5t-14.5 38.5q0 22 14.5 36.5t36.5 14.5q20 0 45 -15v68q-21 12 -47 12q-51 0 -86 -33.5t-35 -82.5zM2154 195q0 -51 35 -85t88 -34q51 0 86 34t35 85
q0 49 -35 82.5t-86 33.5q-52 0 -87.5 -33t-35.5 -83zM96 242h74l-84 -160h195v63h-78l84 160h-191v-63zM463 305h-162v-223h164v61h-92v21h78v61h-78v19h90v61zM473 242h53v-160h72v160h53v63h-178v-63zM711 117h63l8 -35h78l-76 223h-82l-75 -223h73zM1034 305h-162v-223
h72v70h76v59h-76v33h90v61zM1513 82v223h-71v-119l-68 119h-74v-223h72l-2 108l70 -108h73zM1526 242h53v-160h72v160h51v63h-176v-63zM2484 305h-71v-223h71v88l29 -55h51l29 55v-88h69v223h-71l-54 -102zM1212 195q0 -23 -13.5 -38.5t-35.5 -15.5t-35.5 15.5t-13.5 38.5
q0 22 13.5 36.5t35.5 14.5t35.5 -14.5t13.5 -36.5zM2327 195q0 -23 -14.5 -38.5t-35.5 -15.5q-22 0 -36.5 15.5t-14.5 38.5q0 22 14.5 36.5t36.5 14.5q21 0 35.5 -15t14.5 -36zM743 229l15 -53h-31l14 53h2zM1890 111q0 -14 10 -24.5t27 -10.5q15 0 25 10.5t10 24.5t-10 23
t-25 9q-17 0 -27 -9t-10 -23z" />
    <glyph glyph-name="eight" unicode="8" horiz-adv-x="2750" 
d="M1669 946h995v-395h-2568v395h996q8 114 90.5 192.5t197.5 78.5t198 -78.5t91 -192.5zM1206 1120h348q-78 68 -174 68q-99 0 -174 -68zM1235 760h346q59 72 59 166q0 99 -65 174zM1528 1092h-350q-60 -73 -60 -166q0 -99 68 -174zM1825 621q57 0 96 37t39 94q0 55 -39 92
t-96 37t-95 -37t-38 -92q0 -57 38 -94t95 -37zM283 803h57v71h-197v-71h60v-176h80v176zM451 698l30 -71h84l-43 94q29 25 29 65q0 38 -27.5 63t-66.5 25h-103v-247h80v71h17zM578 627h77v247h-77v-247zM834 666l10 -39h86l-84 247h-92l-84 -247h84l10 39h70zM944 627h168
v67h-88v180h-80v-247zM2132 627h82v247h-80v-131l-76 131h-82v-247h80l-2 121zM2238 627h168v67h-88v180h-80v-247zM2531 627v98l84 149h-92l-33 -73l-30 73h-95l86 -149v-98h80zM1825 809q25 0 40 -16t15 -41q0 -26 -15 -43t-40 -17q-24 0 -40 17t-16 43q0 24 16.5 40.5
t39.5 16.5zM434 807h21q6 0 11 -6.5t5 -14.5q0 -9 -5 -15.5t-11 -6.5h-21v43zM780 731l17 60h2l16 -60h-35zM1554 731h-348q75 -65 174 -65t174 65zM1085 387v-27q25 -14 54 -14q23 0 38 12.5t15 34.5q0 28 -47 45q-12 4 -17.5 6.5t-10.5 7.5t-5 13q0 22 29 22q23 0 41 -14
v27q-20 10 -41 10q-24 0 -39 -12t-15 -33q0 -14 7.5 -23.5t14.5 -13t24 -10.5q34 -9 34 -25q0 -24 -28 -24q-29 0 -54 18zM1268 428q0 -35 23.5 -58.5t58.5 -23.5q34 0 58 23.5t24 58.5q0 34 -24 58t-58 24q-35 0 -58.5 -24t-23.5 -58zM1593 344v162h-24v-111l-101 113h-12
v-160h25v107l100 -111h12zM197 506h-103v-158h25v60h67v22h-67v53h78v23zM217 506v-96q0 -28 18 -46t46 -18q29 0 47 18t18 46v96h-24v-96q0 -17 -12 -29t-29 -12t-28 11t-11 30v96h-25zM401 506h-24v-158h96v23h-72v135zM520 506h-24v-158h98v23h-74v135zM741 348l66 158
h-29l-45 -117l-45 117h-29l66 -158h16zM930 506h-103v-158h103v23h-78v47h68v20h-68v45h78v23zM1018 406l26 -58h29l-31 64q25 14 25 43q0 22 -14.5 36.5t-36.5 14.5h-60v-158h25v58h37zM1241 506h-24v-158h24v158zM1405 428q0 -26 -15.5 -42.5t-39.5 -16.5
q-25 0 -41.5 16.5t-16.5 42.5q0 25 16.5 41t41.5 16q23 0 39 -16t16 -41zM1042 455q0 -12 -7.5 -20.5t-18.5 -8.5h-35v57h35q11 0 18.5 -8t7.5 -20zM2591 375l51 49l-51 49l-17 -14l27 -23h-938v-24h938l-27 -23zM1042 195q0 -51 35 -85t86 -34q52 0 86.5 34t34.5 85
q0 50 -34.5 83t-86.5 33q-51 0 -86 -33.5t-35 -82.5zM1712 172v-76q33 -20 78 -20q40 0 65 20t25 56q0 54 -74 71q-2 1 -7 2q-20 8 -21 15q0 8 22 8q36 0 66 -23v70q-37 16 -66 16q-42 0 -67 -18t-25 -51q0 -29 16 -45t50 -27q4 -2 11.5 -4t11.5 -3t7.5 -4t3.5 -7
q0 -13 -18 -13q-24 0 -78 33zM1974 195q0 -51 34.5 -85t84.5 -34q25 0 53 14l2 72q-21 -21 -51 -21q-22 0 -36.5 15.5t-14.5 38.5q0 22 14.5 36.5t36.5 14.5q20 0 45 -15v68q-21 12 -47 12q-51 0 -86 -33.5t-35 -82.5zM2154 195q0 -51 35 -85t88 -34q51 0 86 34t35 85
q0 49 -35 82.5t-86 33.5q-52 0 -87.5 -33t-35.5 -83zM96 242h74l-84 -160h195v63h-78l84 160h-191v-63zM463 305h-162v-223h164v61h-92v21h78v61h-78v19h90v61zM473 242h53v-160h72v160h53v63h-178v-63zM711 117h63l8 -35h78l-76 223h-82l-75 -223h73zM1034 305h-162v-223
h72v70h76v59h-76v33h90v61zM1513 82v223h-71v-119l-68 119h-74v-223h72l-2 108l70 -108h73zM1526 242h53v-160h72v160h51v63h-176v-63zM2484 305h-71v-223h71v88l29 -55h51l29 55v-88h69v223h-71l-54 -102zM1212 195q0 -23 -13.5 -38.5t-35.5 -15.5t-35.5 15.5t-13.5 38.5
q0 22 13.5 36.5t35.5 14.5t35.5 -14.5t13.5 -36.5zM2327 195q0 -23 -14.5 -38.5t-35.5 -15.5q-22 0 -36.5 15.5t-14.5 38.5q0 22 14.5 36.5t36.5 14.5q21 0 35.5 -15t14.5 -36zM743 229l15 -53h-31l14 53h2zM1890 111q0 -14 10 -24.5t27 -10.5q15 0 25 10.5t10 24.5t-10 23
t-25 9q-17 0 -27 -9t-10 -23z" />
    <glyph glyph-name="nine" unicode="9" horiz-adv-x="2750" 
d="M1669 946h995v-395h-2568v395h996q8 114 90.5 192.5t197.5 78.5t198 -78.5t91 -192.5zM1206 1120h348q-78 68 -174 68q-99 0 -174 -68zM1235 760h346q59 72 59 166q0 99 -65 174zM1528 1092h-350q-60 -73 -60 -166q0 -99 68 -174zM1825 621q57 0 96 37t39 94q0 55 -39 92
t-96 37t-95 -37t-38 -92q0 -57 38 -94t95 -37zM283 803h57v71h-197v-71h60v-176h80v176zM451 698l30 -71h84l-43 94q29 25 29 65q0 38 -27.5 63t-66.5 25h-103v-247h80v71h17zM578 627h77v247h-77v-247zM834 666l10 -39h86l-84 247h-92l-84 -247h84l10 39h70zM944 627h168
v67h-88v180h-80v-247zM2132 627h82v247h-80v-131l-76 131h-82v-247h80l-2 121zM2238 627h168v67h-88v180h-80v-247zM2531 627v98l84 149h-92l-33 -73l-30 73h-95l86 -149v-98h80zM1825 809q25 0 40 -16t15 -41q0 -26 -15 -43t-40 -17q-24 0 -40 17t-16 43q0 24 16.5 40.5
t39.5 16.5zM434 807h21q6 0 11 -6.5t5 -14.5q0 -9 -5 -15.5t-11 -6.5h-21v43zM780 731l17 60h2l16 -60h-35zM1554 731h-348q75 -65 174 -65t174 65zM1085 387v-27q25 -14 54 -14q23 0 38 12.5t15 34.5q0 28 -47 45q-12 4 -17.5 6.5t-10.5 7.5t-5 13q0 22 29 22q23 0 41 -14
v27q-20 10 -41 10q-24 0 -39 -12t-15 -33q0 -14 7.5 -23.5t14.5 -13t24 -10.5q34 -9 34 -25q0 -24 -28 -24q-29 0 -54 18zM1268 428q0 -35 23.5 -58.5t58.5 -23.5q34 0 58 23.5t24 58.5q0 34 -24 58t-58 24q-35 0 -58.5 -24t-23.5 -58zM1593 344v162h-24v-111l-101 113h-12
v-160h25v107l100 -111h12zM197 506h-103v-158h25v60h67v22h-67v53h78v23zM217 506v-96q0 -28 18 -46t46 -18q29 0 47 18t18 46v96h-24v-96q0 -17 -12 -29t-29 -12t-28 11t-11 30v96h-25zM401 506h-24v-158h96v23h-72v135zM520 506h-24v-158h98v23h-74v135zM741 348l66 158
h-29l-45 -117l-45 117h-29l66 -158h16zM930 506h-103v-158h103v23h-78v47h68v20h-68v45h78v23zM1018 406l26 -58h29l-31 64q25 14 25 43q0 22 -14.5 36.5t-36.5 14.5h-60v-158h25v58h37zM1241 506h-24v-158h24v158zM1405 428q0 -26 -15.5 -42.5t-39.5 -16.5
q-25 0 -41.5 16.5t-16.5 42.5q0 25 16.5 41t41.5 16q23 0 39 -16t16 -41zM1042 455q0 -12 -7.5 -20.5t-18.5 -8.5h-35v57h35q11 0 18.5 -8t7.5 -20zM2591 375l51 49l-51 49l-17 -14l27 -23h-938v-24h938l-27 -23zM1042 195q0 -51 35 -85t86 -34q52 0 86.5 34t34.5 85
q0 50 -34.5 83t-86.5 33q-51 0 -86 -33.5t-35 -82.5zM1712 172v-76q33 -20 78 -20q40 0 65 20t25 56q0 54 -74 71q-2 1 -7 2q-20 8 -21 15q0 8 22 8q36 0 66 -23v70q-37 16 -66 16q-42 0 -67 -18t-25 -51q0 -29 16 -45t50 -27q4 -2 11.5 -4t11.5 -3t7.5 -4t3.5 -7
q0 -13 -18 -13q-24 0 -78 33zM1974 195q0 -51 34.5 -85t84.5 -34q25 0 53 14l2 72q-21 -21 -51 -21q-22 0 -36.5 15.5t-14.5 38.5q0 22 14.5 36.5t36.5 14.5q20 0 45 -15v68q-21 12 -47 12q-51 0 -86 -33.5t-35 -82.5zM2154 195q0 -51 35 -85t88 -34q51 0 86 34t35 85
q0 49 -35 82.5t-86 33.5q-52 0 -87.5 -33t-35.5 -83zM96 242h74l-84 -160h195v63h-78l84 160h-191v-63zM463 305h-162v-223h164v61h-92v21h78v61h-78v19h90v61zM473 242h53v-160h72v160h53v63h-178v-63zM711 117h63l8 -35h78l-76 223h-82l-75 -223h73zM1034 305h-162v-223
h72v70h76v59h-76v33h90v61zM1513 82v223h-71v-119l-68 119h-74v-223h72l-2 108l70 -108h73zM1526 242h53v-160h72v160h51v63h-176v-63zM2484 305h-71v-223h71v88l29 -55h51l29 55v-88h69v223h-71l-54 -102zM1212 195q0 -23 -13.5 -38.5t-35.5 -15.5t-35.5 15.5t-13.5 38.5
q0 22 13.5 36.5t35.5 14.5t35.5 -14.5t13.5 -36.5zM2327 195q0 -23 -14.5 -38.5t-35.5 -15.5q-22 0 -36.5 15.5t-14.5 38.5q0 22 14.5 36.5t36.5 14.5q21 0 35.5 -15t14.5 -36zM743 229l15 -53h-31l14 53h2zM1890 111q0 -14 10 -24.5t27 -10.5q15 0 25 10.5t10 24.5t-10 23
t-25 9q-17 0 -27 -9t-10 -23z" />
    <glyph glyph-name="colon" unicode=":" horiz-adv-x="442" 
d="M299 1104v-146h-154v146h154zM143 0v145h154v-145h-154z" />
    <glyph glyph-name="semicolon" unicode=";" horiz-adv-x="442" 
d="M301 958h-154v146h154v-146zM160 -229l-31 47q104 76 94 182h-78v145h148q54 -270 -133 -374z" />
    <glyph glyph-name="less" unicode="&#x3c;" horiz-adv-x="755" 
d="M102 739l496 441l53 -52l-463 -413l463 -414l-51 -51l-498 440v49z" />
    <glyph glyph-name="equal" unicode="=" horiz-adv-x="616" 
d="M584 913v-77h-551v77h551zM584 598v-76h-551v76h551z" />
    <glyph glyph-name="greater" unicode="&#x3e;" horiz-adv-x="753" 
d="M651 694l-495 -440l-54 51l465 414l-465 414l52 51l497 -441v-49z" />
    <glyph glyph-name="question" unicode="?" horiz-adv-x="757" 
d="M428 391h-88q-6 136 34.5 233.5t119.5 186.5q64 75 97.5 138t33.5 143q0 125 -68 192.5t-184 67.5q-130 0 -283 -95l-22 95q165 98 319 98q156 0 249 -92t93 -256q0 -56 -11.5 -102.5t-39.5 -91t-46 -67.5t-59 -71q-78 -94 -111.5 -174t-33.5 -205zM311 0v145h154v-145
h-154z" />
    <glyph glyph-name="at" unicode="@" horiz-adv-x="1654" 
d="M870 1427q327 0 504.5 -205.5t177.5 -557.5q0 -150 -38 -272t-110.5 -194.5t-166.5 -72.5q-103 0 -151.5 62t-55.5 157q-52 -103 -130 -161t-169 -58q-129 0 -202 101t-70 268q3 144 49 266t130.5 197t190.5 75q93 0 158.5 -59.5t91.5 -171.5l35 237l90 -4l-82 -585
q-7 -35 -4 -77t12.5 -79.5t40 -62.5t76.5 -25q91 0 154 126.5t63 332.5q0 318 -152 497.5t-440 179.5q-136 0 -257.5 -54t-217.5 -155.5t-152.5 -264.5t-56.5 -365q0 -330 171.5 -502t488.5 -174q59 0 94 4l-2 -88q-70 -4 -94 -4q-348 3 -546 200t-198 564q0 214 60.5 390.5
t165.5 292.5t244 179t298 63zM754 213q116 0 204 127.5t91 288.5q4 148 -56 231.5t-162 83.5q-121 0 -198 -126.5t-82 -311.5q-3 -138 51 -215.5t152 -77.5z" />
    <glyph glyph-name="A" unicode="A" horiz-adv-x="1075" 
d="M1028 0h-108l-103 348h-559l-102 -348h-109l426 1434h127zM537 1290l-248 -841h497z" />
    <glyph glyph-name="B" unicode="B" horiz-adv-x="1050" 
d="M672 741q133 -25 208.5 -119.5t75.5 -246.5q0 -173 -111.5 -274t-314.5 -101h-374v1434h348q185 0 293 -95t108 -268q0 -122 -60.5 -210t-172.5 -120zM487 1339h-229v-557h246q141 0 218 72t77 203q0 133 -81 207.5t-231 74.5zM258 94h258q159 0 247.5 75.5t88.5 215.5
q0 144 -85.5 223.5t-244.5 79.5h-264v-594z" />
    <glyph glyph-name="C" unicode="C" horiz-adv-x="978" 
d="M606 -20q-224 0 -364 193.5t-140 541.5q0 335 135 535t367 200q81 0 150.5 -22t146.5 -72l-27 -94q-68 47 -129 68.5t-139 21.5q-176 0 -283.5 -164.5t-107.5 -470.5q0 -293 105.5 -465t287.5 -172q143 0 271 92l26 -98q-131 -94 -299 -94z" />
    <glyph glyph-name="D" unicode="D" horiz-adv-x="1140" 
d="M459 0h-303v1434h303q277 0 428 -186t151 -531t-151 -531t-428 -186zM258 1341v-1247h197q227 0 349 161t122 462q0 302 -122 463t-351 161h-195z" />
    <glyph glyph-name="E" unicode="E" 
d="M258 684v-590h608v-94h-710v1434h696v-95h-594v-561h520v-94h-520z" />
    <glyph glyph-name="F" unicode="F" horiz-adv-x="876" 
d="M823 1434v-95h-565v-604h500v-92h-500v-643h-102v1434h667z" />
    <glyph glyph-name="G" unicode="G" horiz-adv-x="1069" 
d="M694 633v94h267v-606q-168 -139 -377 -139q-224 0 -353 191t-129 542q0 354 135 545.5t369 191.5q166 0 305 -90l-26 -96q-131 88 -275 88q-189 0 -292 -163t-103 -474q0 -308 98.5 -472.5t274.5 -164.5q153 0 270 94v459h-164z" />
    <glyph glyph-name="H" unicode="H" horiz-adv-x="1126" 
d="M862 770v664h109v-1434h-109v676h-600v-676h-106v1434h106v-664h600z" />
    <glyph glyph-name="I" unicode="I" horiz-adv-x="413" 
d="M258 0h-102v1434h102v-1434z" />
    <glyph glyph-name="J" unicode="J" horiz-adv-x="733" 
d="M272 -18q-122 0 -233 61l22 94q97 -57 211 -57q109 0 169.5 78.5t60.5 234.5v946h-201v95h305v-1043q0 -198 -90 -303.5t-244 -105.5z" />
    <glyph glyph-name="K" unicode="K" horiz-adv-x="999" 
d="M260 0h-104v1434h104v-1434zM952 0h-123l-540 721v10l495 703h123l-499 -707z" />
    <glyph glyph-name="L" unicode="L" horiz-adv-x="829" 
d="M797 0h-641v1434h106v-1340h535v-94z" />
    <glyph glyph-name="M" unicode="M" horiz-adv-x="1343" 
d="M1049 1434h104l66 -1434h-101l-53 1149l-371 -1147h-47l-368 1147l-54 -1149h-100l65 1434h107l375 -1174z" />
    <glyph glyph-name="N" unicode="N" horiz-adv-x="1138" 
d="M256 0h-100v1434h96l629 -1196v1196h102v-1434h-94l-633 1204v-1204z" />
    <glyph glyph-name="O" unicode="O" horiz-adv-x="1167" 
d="M584 -18q-222 0 -352 191.5t-130 543.5q0 343 129 539t353 196q222 0 351.5 -191.5t129.5 -543.5q0 -343 -128.5 -539t-352.5 -196zM584 82q171 0 269.5 163.5t98.5 471.5q0 299 -97.5 467t-270.5 168q-171 0 -270 -164t-99 -471q0 -299 98 -467t271 -168z" />
    <glyph glyph-name="P" unicode="P" horiz-adv-x="976" 
d="M446 1434q217 0 341 -121t124 -344q0 -218 -122 -343.5t-345 -125.5h-186v-500h-102v1434h290zM258 594h184q170 0 267.5 97t97.5 280q0 172 -95 270t-268 98h-186v-745z" />
    <glyph glyph-name="Q" unicode="Q" horiz-adv-x="1167" 
d="M848 76q224 18 305 16v-92q-88 0 -278 -9t-291 -9q-222 0 -352 191.5t-130 543.5q0 343 129 539t353 196q222 0 351.5 -191.5t129.5 -543.5q0 -223 -56 -387t-161 -254zM215 717q0 -299 98 -467t271 -168q171 0 269.5 163.5t98.5 471.5q0 299 -97.5 467t-270.5 168
q-171 0 -270 -164t-99 -471z" />
    <glyph glyph-name="R" unicode="R" horiz-adv-x="1001" 
d="M618 563l304 -563h-117l-295 545q-20 -2 -59 -2h-193v-543h-102v1434h297q220 0 342.5 -114.5t122.5 -330.5q0 -167 -76.5 -276.5t-223.5 -149.5zM258 637h191q173 0 268.5 90t95.5 262q0 165 -93.5 257.5t-268.5 92.5h-193v-702z" />
    <glyph glyph-name="S" unicode="S" horiz-adv-x="897" 
d="M410 -20q-181 0 -340 90l16 100q153 -90 317 -90q136 0 219 66t83 196q0 68 -21 122t-65 97t-88.5 72.5t-114.5 66.5q-151 79 -235.5 175t-84.5 227q0 164 102 256t269 92q152 0 301 -76l-16 -102q-138 78 -275 78q-124 0 -198 -62.5t-74 -185.5q0 -101 68.5 -173.5
t205.5 -148.5q77 -41 131 -79t103.5 -90.5t74.5 -119.5t25 -149q0 -169 -110.5 -265.5t-292.5 -96.5z" />
    <glyph glyph-name="T" unicode="T" horiz-adv-x="841" 
d="M33 1434h774v-95h-334v-1339h-104v1339h-336v95z" />
    <glyph glyph-name="U" unicode="U" horiz-adv-x="1056" 
d="M528 -18q-186 0 -293.5 117t-107.5 317v1018h104v-1016q0 -159 80 -250.5t217 -91.5t218 91.5t81 250.5v1016h103v-1018q0 -200 -107.5 -317t-294.5 -117z" />
    <glyph glyph-name="V" unicode="V" horiz-adv-x="1032" 
d="M578 0h-123l-408 1434h111l358 -1278l363 1278h106z" />
    <glyph glyph-name="W" unicode="W" horiz-adv-x="1497" 
d="M1081 174l265 1260h106l-309 -1434h-121l-272 1169l-273 -1169h-121l-309 1434h109l264 -1260l282 1260h95z" />
    <glyph glyph-name="X" unicode="X" horiz-adv-x="956" 
d="M541 735l368 -735h-112l-320 655l-315 -655h-115l365 733l-351 703h115l301 -623l301 623h113z" />
    <glyph glyph-name="Y" unicode="Y" horiz-adv-x="960" 
d="M815 1434h109l-392 -990v-444h-104v444l-391 990h110l334 -846z" />
    <glyph glyph-name="Z" unicode="Z" horiz-adv-x="884" 
d="M819 0h-758v68l631 1271h-616v95h745v-66l-633 -1274h631v-94z" />
    <glyph glyph-name="bracketleft" unicode="[" horiz-adv-x="563" 
d="M528 -352h-426v1851h426v-82h-321v-1687h321v-82z" />
    <glyph glyph-name="backslash" unicode="\" horiz-adv-x="903" 
d="M115 1450l770 -1673h-99l-768 1673h97z" />
    <glyph glyph-name="bracketright" unicode="]" horiz-adv-x="563" 
d="M33 1499h428v-1851h-428v82h323v1687h-323v82z" />
    <glyph glyph-name="asciicircum" unicode="^" horiz-adv-x="765" 
d="M385 1348l-250 -732l-88 11l275 805h124l273 -805l-88 -11z" />
    <glyph glyph-name="underscore" unicode="_" horiz-adv-x="665" 
d="M647 -88v-76h-651v76h651z" />
    <glyph glyph-name="grave" unicode="`" horiz-adv-x="421" 
d="M319 1262l-67 -11l-150 224l95 26z" />
    <glyph glyph-name="a" unicode="a" horiz-adv-x="847" 
d="M391 1118q168 0 250 -94.5t82 -294.5v-729h-98v231q-37 -108 -116 -178.5t-190 -70.5q-118 0 -188 88t-70 243q0 158 76.5 244t227.5 86q139 0 258 -22v110q0 155 -60.5 225t-181.5 70q-122 0 -229 -57l-15 92q114 57 254 57zM350 76q117 0 191 106.5t82 253.5v103
q-107 22 -238 22q-227 0 -227 -244q0 -116 51 -178.5t141 -62.5z" />
    <glyph glyph-name="b" unicode="b" horiz-adv-x="995" 
d="M559 -18q-102 0 -186.5 70t-126.5 192v-244h-101v1511h101v-657q43 124 125.5 194t185.5 70q162 0 257 -147t95 -420q0 -266 -94.5 -417.5t-255.5 -151.5zM532 74q125 0 200 123t75 354q0 224 -74.5 348.5t-200.5 124.5q-127 0 -206.5 -137.5t-79.5 -337.5
q0 -201 81.5 -338t204.5 -137z" />
    <glyph glyph-name="c" unicode="c" horiz-adv-x="790" 
d="M492 -18q-186 0 -296 150t-110 417q0 261 109.5 415t296.5 154q120 0 241 -74l-26 -90q-106 68 -211 68q-142 0 -226 -124.5t-84 -346.5q0 -219 83 -346t227 -127q109 0 213 67l24 -90q-116 -73 -241 -73z" />
    <glyph glyph-name="d" unicode="d" horiz-adv-x="999" 
d="M440 -18q-161 0 -255.5 151.5t-94.5 417.5q0 273 95 420t257 147q103 0 186 -70t126 -194v657h100v-1511h-100v244q-42 -122 -127 -192t-187 -70zM467 74q123 0 205 132.5t82 336.5q0 216 -79.5 348.5t-207.5 132.5q-126 0 -200 -124.5t-74 -348.5q0 -232 74.5 -354.5
t199.5 -122.5z" />
    <glyph glyph-name="e" unicode="e" horiz-adv-x="890" 
d="M788 516h-600q9 -210 87.5 -325t211.5 -115t242 74l21 -91q-115 -77 -273 -77q-180 0 -285.5 150.5t-105.5 418.5q0 257 100.5 412t276.5 155q158 0 251 -129t93 -340q0 -59 -19 -133zM188 602h517v10q8 184 -56 298t-186 114q-120 0 -194 -110.5t-81 -311.5z" />
    <glyph glyph-name="f" unicode="f" horiz-adv-x="573" 
d="M461 1436q-76 0 -117 -54t-41 -157v-125h262v-92h-262v-1008h-100v1008h-131v92h131v127q0 147 61.5 225t177.5 78q80 0 138 -21l-15 -90q-46 17 -104 17z" />
    <glyph glyph-name="g" unicode="g" horiz-adv-x="864" 
d="M330 221h184q144 0 225.5 -67.5t81.5 -190.5q0 -149 -104 -239.5t-291 -90.5q-158 0 -249 73t-91 208q0 68 36 128.5t99 102.5q-96 46 -96 174q0 53 26.5 98t71.5 70q-96 96 -96 277q0 163 82 258.5t229 95.5q88 0 144 -33l190 52l27 -78l-137 -37q90 -93 90 -258
q0 -163 -82.5 -259.5t-229.5 -96.5q-93 0 -155 36q-68 -44 -68 -108q0 -53 29 -84t84 -31zM438 1030q-101 0 -157 -68.5t-56 -195.5q0 -125 56 -197.5t157 -72.5t158 70t57 198q0 123 -56 194.5t-159 71.5zM432 -274q135 0 211 60.5t76 168.5q0 84 -57.5 129t-165.5 45h-193
h-12q-111 -87 -111 -203q0 -96 66 -148t186 -52z" />
    <glyph glyph-name="h" unicode="h" horiz-adv-x="948" 
d="M541 1118q135 0 209.5 -97t74.5 -284v-737h-100v737q0 142 -55.5 214.5t-155.5 72.5q-105 0 -177.5 -91.5t-90.5 -264.5v-668h-101v1511h101v-616q42 105 118.5 164t176.5 59z" />
    <glyph glyph-name="i" unicode="i" horiz-adv-x="378" 
d="M238 1249h-107v215h107v-215zM240 0h-101v1100h101v-1100z" />
    <glyph glyph-name="j" unicode="j" horiz-adv-x="395" 
d="M254 1249h-107v215h107v-215zM-37 -348l2 86h64q62 0 94.5 41.5t32.5 138.5v1182h100v-1184q0 -270 -213 -270q-46 0 -80 6z" />
    <glyph glyph-name="k" unicode="k" horiz-adv-x="858" 
d="M360 571l447 -571h-121l-440 563v-563h-101v1511h101v-931l393 520h123z" />
    <glyph glyph-name="l" unicode="l" horiz-adv-x="391" 
d="M246 0h-101v1511h101v-1511z" />
    <glyph glyph-name="m" unicode="m" horiz-adv-x="1443" 
d="M1059 1118q127 0 194.5 -95.5t67.5 -281.5v-741h-100v739q0 141 -49.5 213t-141.5 72q-96 0 -165.5 -91t-84.5 -239v-694h-100v739q0 285 -188 285q-97 0 -167 -94.5t-85 -243.5v-686h-101v1100h101v-205q41 104 113 163.5t165 59.5q206 0 250 -237q40 110 117 173.5
t174 63.5z" />
    <glyph glyph-name="n" unicode="n" horiz-adv-x="942" 
d="M532 1118q137 0 212 -97t75 -284v-737h-100v737q0 142 -55.5 214.5t-155.5 72.5q-96 0 -168.5 -85.5t-99.5 -244.5v-694h-101v1100h101v-221q40 112 116 175.5t176 63.5z" />
    <glyph glyph-name="o" unicode="o" 
d="M473 -18q-179 0 -283 150.5t-104 418.5q0 261 104 414t283 153t285 -150t106 -415q0 -263 -104.5 -417t-286.5 -154zM475 78q131 0 209 125t78 348q0 217 -78 345t-211 128q-131 0 -209 -125t-78 -348q0 -217 78 -345t211 -128z" />
    <glyph glyph-name="p" unicode="p" horiz-adv-x="989" 
d="M240 -350h-101v1450h101v-242q42 122 126.5 191t186.5 69q161 0 255.5 -151.5t94.5 -417.5q0 -273 -95 -420t-257 -147q-103 0 -185.5 70.5t-125.5 195.5v-598zM526 76q126 0 200.5 124.5t74.5 348.5q0 231 -75 354t-200 123q-123 0 -204.5 -133.5t-81.5 -343.5
q0 -212 80.5 -342.5t205.5 -130.5z" />
    <glyph glyph-name="q" unicode="q" horiz-adv-x="989" 
d="M850 -350h-100v596q-42 -124 -126 -194t-186 -70q-162 0 -257 147t-95 420q0 267 94 418t256 151q102 0 187 -69t127 -191v242h100v-1450zM463 76q89 0 156.5 73.5t99 180.5t31.5 225q0 206 -81.5 338.5t-205.5 132.5q-125 0 -200 -123t-75 -354q0 -224 74.5 -348.5
t200.5 -124.5z" />
    <glyph glyph-name="r" unicode="r" horiz-adv-x="598" 
d="M496 1116q31 0 73 -10l-10 -111q-34 11 -76 11q-120 0 -181.5 -114.5t-61.5 -330.5v-561h-101v1100h101v-207q68 223 256 223z" />
    <glyph glyph-name="s" unicode="s" horiz-adv-x="737" 
d="M346 -18q-136 0 -283 67l19 98q129 -71 262 -71q100 0 162 52.5t61 141.5q0 90 -55 149t-172 116q-126 56 -188 128t-62 175q0 129 83.5 204.5t221.5 75.5q115 0 236 -59l-17 -96q-104 61 -217 61q-95 0 -149.5 -48.5t-54.5 -131.5q0 -77 52 -133t161 -109
q135 -65 199.5 -142.5t64.5 -189.5q0 -130 -88.5 -209t-235.5 -79z" />
    <glyph glyph-name="t" unicode="t" horiz-adv-x="638" 
d="M401 -18q-103 0 -159 66t-56 190v770h-116v61l24 35l144 213h49v-217h266v-92h-266v-754q0 -79 34 -128.5t93 -49.5q82 0 143 39l21 -88q-79 -45 -177 -45z" />
    <glyph glyph-name="u" unicode="u" horiz-adv-x="942" 
d="M702 406v694h101v-1100h-101v221q-40 -112 -116 -175.5t-176 -63.5q-137 0 -212 96.5t-75 283.5v738h100v-738q0 -142 55.5 -214t155.5 -72q96 0 168.5 85.5t99.5 244.5z" />
    <glyph glyph-name="v" unicode="v" horiz-adv-x="872" 
d="M492 0h-111l-342 1100h104l291 -963h2l293 963h105z" />
    <glyph glyph-name="w" unicode="w" horiz-adv-x="1298" 
d="M924 158l229 942h104l-274 -1100h-113l-221 891l-221 -891h-111l-276 1100h106l228 -942l229 942h90z" />
    <glyph glyph-name="x" unicode="x" horiz-adv-x="860" 
d="M494 561l315 -561h-113l-266 485l-268 -485h-111l316 565l-301 535h112l252 -459l252 459h113z" />
    <glyph glyph-name="y" unicode="y" horiz-adv-x="872" 
d="M436 133l293 967h105l-342 -1100l-109 -350h-107l107 342l-344 1108h104l291 -967h2z" />
    <glyph glyph-name="z" unicode="z" horiz-adv-x="765" 
d="M705 0h-646v63l508 945h-495v92h622v-62l-508 -946h519v-92z" />
    <glyph glyph-name="braceleft" unicode="{" horiz-adv-x="636" 
d="M354 -6q-4 -48 -1 -86.5t16.5 -68t42 -51.5t75.5 -36.5t117 -23.5l-2 -80q-121 9 -196.5 35t-109.5 67.5t-44 99t0 130.5q3 41 11.5 121t13 140.5t4.5 106.5q1 100 -61.5 144.5t-186.5 44.5v73q124 0 186.5 44.5t61.5 144.5q0 56 -4.5 116.5t-13 135.5t-11.5 116
q-10 73 0 130.5t44 99t109.5 67.5t196.5 35l2 -82q-70 -8 -117 -22.5t-75.5 -36t-42 -51t-16.5 -68t1 -86.5q1 -15 14 -151.5t13 -208.5q1 -101 -52.5 -155.5t-146.5 -64.5q93 -10 146.5 -64t52.5 -157q0 -66 -13 -203t-14 -155z" />
    <glyph glyph-name="bar" unicode="|" horiz-adv-x="401" 
d="M246 1434v-1624h-90v1624h90z" />
    <glyph glyph-name="braceright" unicode="}" horiz-adv-x="636" 
d="M356 799q-1 -100 61.5 -144.5t186.5 -44.5v-73q-124 0 -186.5 -44.5t-61.5 -144.5q0 -56 4.5 -114t14 -139.5t12.5 -114.5q5 -59 2 -107t-23 -86.5t-59.5 -67t-106.5 -46.5t-165 -25l-2 82q70 8 117 22.5t75.5 36t42 51t16.5 68t-1 86.5q-1 15 -14 151.5t-13 208.5
q0 101 53.5 155.5t145.5 63.5q-92 9 -145.5 64t-53.5 158q0 66 13 203t14 155q4 48 1 86.5t-16.5 68t-42 51.5t-75.5 36.5t-117 23.5l2 80q98 -7 165 -25t106.5 -46.5t59.5 -67t23 -86.5t-2 -107q-3 -27 -12.5 -117.5t-14 -147t-4.5 -103.5z" />
    <glyph glyph-name="asciitilde" unicode="~" horiz-adv-x="649" 
d="M92 1208l-59 21q33 145 157 145q44 0 91.5 -27.5t90.5 -55t77 -27.5q77 0 108 106l59 -20q-16 -69 -55.5 -107.5t-101.5 -38.5q-33 0 -70 17.5t-64.5 38t-61.5 38t-62 17.5q-77 0 -109 -107z" />
    <glyph glyph-name="uni00A0" unicode="&#xa0;" horiz-adv-x="436" 
 />
    <glyph glyph-name="exclamdown" unicode="&#xa1;" horiz-adv-x="442" 
d="M297 1098v-144h-154v144h154zM268 330v-668h-102v668l14 377h72z" />
    <glyph glyph-name="cent" unicode="&#xa2;" horiz-adv-x="841" 
d="M496 78q109 0 213 67l24 -90q-116 -73 -241 -73q-27 0 -39 2l-29 -283h-76l31 297q-137 42 -215 185t-78 366q0 261 109.5 415t296.5 154h4l28 277h76l-29 -285q75 -14 162 -66l-26 -90q-75 50 -146 62l-49 -471l-49 -465q10 -2 33 -2zM186 551q0 -174 53 -292t150 -161
l47 451l49 473q-137 -5 -218 -129t-81 -342z" />
    <glyph glyph-name="sterling" unicode="&#xa3;" horiz-adv-x="948" 
d="M319 592v-502h590v-90h-841v68l151 20v504h-186v76h186v299q0 240 98.5 361.5t274.5 121.5q146 0 270 -111l-33 -86q-106 103 -233 103q-136 0 -206.5 -96.5t-70.5 -284.5v-307h402v-76h-402z" />
    <glyph glyph-name="yen" unicode="&#xa5;" horiz-adv-x="948" 
d="M397 532l-360 902h110l328 -830l326 830h110l-360 -902h211v-67h-236v-141h236v-68h-236v-256h-104v256h-236v68h236v141h-236v67h211z" />
    <glyph glyph-name="brokenbar" unicode="&#xa6;" horiz-adv-x="520" 
d="M305 1434v-607h-90v607h90zM305 424v-606h-90v606h90z" />
    <glyph glyph-name="section" unicode="&#xa7;" horiz-adv-x="778" 
d="M440 1364q5 -99 33 -205t64.5 -198.5t72 -187.5t60 -205t24.5 -218q0 -173 -98.5 -270.5t-249.5 -97.5q-128 0 -260 69l20 84q108 -57 218 -63q-5 99 -33 204.5t-64.5 198t-72 186.5t-60 204t-24.5 218q0 174 98 271.5t250 97.5q130 0 260 -68l-21 -86q-115 60 -217 66z
M399 76q93 17 147 89.5t54 180.5q0 102 -23.5 207.5t-57 198t-68 186t-59.5 204t-27 218.5q-93 -17 -147 -90t-54 -183q0 -101 23.5 -206.5t57 -198t68 -185.5t59.5 -203.5t27 -217.5z" />
    <glyph glyph-name="dieresis" unicode="&#xa8;" horiz-adv-x="518" 
d="M184 1251h-80v213h80v-213zM412 1251h-78v213h78v-213z" />
    <glyph glyph-name="copyright" unicode="&#xa9;" horiz-adv-x="1388" 
d="M694 -18q-125 0 -233.5 51.5t-188 145t-125 232t-45.5 304.5t45.5 305.5t125 233.5t188 146t233.5 52t233.5 -52t188 -146t125 -233.5t45.5 -305.5t-45.5 -304.5t-125 -232t-188 -145t-233.5 -51.5zM694 53q147 0 265 79t188 231t70 352q0 303 -149 485t-374 182
q-226 0 -373 -181.5t-147 -485.5q0 -301 147 -481.5t373 -180.5zM709 281q-141 0 -228.5 119t-87.5 321q0 195 87 315.5t233 120.5q132 0 219 -102l-58 -54q-70 64 -159 64q-103 0 -165.5 -92.5t-62.5 -251.5q0 -156 62 -252t168 -96q86 0 157 65l60 -53q-87 -104 -225 -104
z" />
    <glyph glyph-name="ordfeminine" unicode="&#xaa;" horiz-adv-x="542" 
d="M252 1290q70 0 123 -12v41q0 72 -28.5 105.5t-86.5 33.5q-63 0 -121 -33l-16 64q66 39 147 39q185 0 185 -215v-355h-80v97q-21 -46 -58 -76.5t-86 -30.5q-67 0 -104 44.5t-37 127.5q0 78 42 124t120 46zM260 1016q50 0 82.5 55.5t32.5 124.5v27q-51 14 -101 14t-78 -29
t-28 -82q0 -51 24 -80.5t68 -29.5zM90 793v69h367v-69h-367z" />
    <glyph glyph-name="guillemotleft" unicode="&#xab;" horiz-adv-x="890" 
d="M459 123l-60 -35l-366 420v37l358 418l68 -33l-336 -404zM856 123l-65 -35l-369 430v14l369 431l65 -33l-334 -404z" />
    <glyph glyph-name="logicalnot" unicode="&#xac;" horiz-adv-x="876" 
d="M33 655v84h811v-364h-82v280h-729z" />
    <glyph glyph-name="uni00AD" unicode="&#xad;" horiz-adv-x="616" 
d="M584 489v-83h-551v83h551z" />
    <glyph glyph-name="registered" unicode="&#xae;" horiz-adv-x="770" 
d="M385 1470q126 0 204.5 -98.5t78.5 -257.5t-78.5 -257.5t-204.5 -98.5t-204.5 98.5t-78.5 257.5t78.5 257.5t204.5 98.5zM385 791q110 0 179 89.5t69 233.5t-68.5 233t-179.5 89t-180.5 -89t-69.5 -233t69.5 -233.5t180.5 -89.5zM522 1206q0 -97 -86 -125l94 -168h-47
l-92 160h-18h-51v-160h-43v426h96q68 0 107.5 -35t39.5 -98zM322 1298v-186h51q49 0 76.5 25t27.5 69q0 42 -27.5 67t-74.5 25h-53z" />
    <glyph glyph-name="macron" unicode="&#xaf;" horiz-adv-x="645" 
d="M543 1288h-441v76h441v-76z" />
    <glyph glyph-name="degree" unicode="&#xb0;" horiz-adv-x="813" 
d="M406 844q-125 0 -214.5 89t-89.5 216q0 126 89.5 214.5t214.5 88.5q127 0 216 -88.5t89 -214.5q0 -127 -88.5 -216t-216.5 -89zM406 889q107 0 182.5 76.5t75.5 183.5q0 106 -75.5 182t-182.5 76t-184 -76t-77 -182q0 -107 77 -183.5t184 -76.5z" />
    <glyph glyph-name="plusminus" unicode="&#xb1;" horiz-adv-x="659" 
d="M371 1022v-242h254v-82h-254v-243h-82v243h-256v82h256v242h82zM616 283h-571v79h571v-79z" />
    <glyph glyph-name="uni00B2" unicode="&#xb2;" horiz-adv-x="458" 
d="M403 1059h-348v59q79 70 172 182q46 59 65 102t19 93q0 49 -32.5 78t-81.5 29q-58 0 -109 -39l-22 67q68 45 145 45q84 0 135 -45.5t51 -126.5q0 -61 -22.5 -111t-77.5 -114q-64 -76 -131 -143h237v-76z" />
    <glyph glyph-name="uni00B3" unicode="&#xb3;" horiz-adv-x="456" 
d="M213 1051q-90 0 -158 41l17 65q63 -37 129 -37q57 0 89 34.5t32 96.5q0 53 -28.5 85t-80.5 32q-26 3 -72 -4v47l154 193h-223v65h307l4 -55l-152 -195h33q66 -7 102.5 -52.5t36.5 -117.5q0 -94 -50.5 -146t-139.5 -52z" />
    <glyph glyph-name="acute" unicode="&#xb4;" horiz-adv-x="421" 
d="M319 1475l-149 -224l-68 11l123 239z" />
    <glyph glyph-name="uni00B5" unicode="&#xb5;" horiz-adv-x="946" 
d="M705 406v694h100v-1100h-100v217q-40 -110 -116.5 -172.5t-176.5 -62.5q-120 0 -193 73l6 -407h-102l2 678v36v738h100v-738q0 -142 55.5 -214t157.5 -72q95 0 167.5 86t99.5 244z" />
    <glyph glyph-name="paragraph" unicode="&#xb6;" horiz-adv-x="1146" 
d="M463 1434h160v-1680h-74v860h-82q-194 0 -297.5 105.5t-103.5 304.5q0 200 102 305t295 105zM918 -246v1680h73v-1680h-73z" />
    <glyph glyph-name="periodcentered" unicode="&#xb7;" horiz-adv-x="313" 
d="M86 537v139h145v-139h-145z" />
    <glyph glyph-name="cedilla" unicode="&#xb8;" horiz-adv-x="507" 
d="M272 8l-26 -88q73 -8 116.5 -45t43.5 -94q0 -62 -51.5 -102.5t-147.5 -40.5q-66 0 -125 18l16 61q40 -16 103 -16q57 0 86.5 25t29.5 61q0 44 -40.5 70.5t-112.5 27.5l35 123h73z" />
    <glyph glyph-name="uni00B9" unicode="&#xb9;" horiz-adv-x="301" 
d="M55 1642l127 25h64v-608h-78v532l-105 -20z" />
    <glyph glyph-name="ordmasculine" unicode="&#xba;" horiz-adv-x="589" 
d="M295 948q-94 0 -151.5 77.5t-57.5 211.5q0 131 56 210t153 79q94 0 151.5 -77t57.5 -210q0 -132 -56.5 -211.5t-152.5 -79.5zM297 1026q57 0 92 56t35 155q0 96 -34.5 153.5t-94.5 57.5q-58 0 -93.5 -56t-35.5 -155q0 -96 35 -153.5t96 -57.5zM489 791h-387v69h387v-69z
" />
    <glyph glyph-name="guillemotright" unicode="&#xbb;" horiz-adv-x="890" 
d="M33 932l67 33l369 -428v-17l-369 -430l-67 35l336 403zM432 932l60 33l364 -418v-37l-358 -420l-66 35l336 403z" />
    <glyph glyph-name="onequarter" unicode="&#xbc;" horiz-adv-x="966" 
d="M168 868v533l-105 -21l-8 72l127 25h64v-609h-78zM14 0l627 1434h84l-627 -1434h-84zM846 610v-403h65v-62h-65v-145h-76v145h-262l-14 50l249 415h103zM578 207h192v332z" />
    <glyph glyph-name="onehalf" unicode="&#xbd;" horiz-adv-x="894" 
d="M168 868v533l-105 -21l-8 72l127 25h64v-609h-78zM14 0l627 1434h84l-627 -1434h-84zM604 76h238v-76h-348v59q76 67 172 183q46 59 65 101.5t19 92.5q0 49 -33 78t-82 29q-58 0 -109 -39l-22 67q68 45 145 45q84 0 135.5 -45.5t51.5 -126.5q0 -60 -23 -110.5t-78 -114.5
q-65 -76 -131 -143z" />
    <glyph glyph-name="threequarters" unicode="&#xbe;" horiz-adv-x="1122" 
d="M213 860q-90 0 -158 41l17 66q63 -37 129 -37q57 0 89 34.5t32 96.5q0 53 -28.5 85t-80.5 32q-26 3 -72 -4v47l154 192h-223v66h307l4 -56l-152 -194h33q66 -7 102.5 -52.5t36.5 -117.5q0 -94 -50.5 -146.5t-139.5 -52.5zM254 0h-84l627 1434h84zM1001 0h-75v145h-262
l-15 50l250 415h102v-403h66v-62h-66v-145zM926 539l-193 -332h193v332z" />
    <glyph glyph-name="questiondown" unicode="&#xbf;" horiz-adv-x="759" 
d="M449 1100v-144h-154v144h154zM332 709h88q7 -135 -33.5 -232.5t-120.5 -187.5q-64 -75 -97.5 -138t-33.5 -143q0 -125 68 -192.5t186 -67.5q133 0 281 94l24 -94q-168 -98 -321 -98q-156 0 -248 92t-92 256q0 45 10 87.5t20 69t37.5 67t38.5 54t47 56.5q78 92 112 172.5
t34 204.5z" />
    <glyph glyph-name="Agrave" unicode="&#xc0;" horiz-adv-x="1075" 
d="M440 1761l140 -219l-72 -10l-162 203zM1028 0h-108l-103 348h-559l-102 -348h-109l426 1434h127zM537 1290l-248 -841h497z" />
    <glyph glyph-name="Aacute" unicode="&#xc1;" horiz-adv-x="1075" 
d="M633 1761l94 -26l-160 -203l-73 10zM1028 0h-108l-103 348h-559l-102 -348h-109l426 1434h127zM537 1290l-248 -841h497z" />
    <glyph glyph-name="Acircumflex" unicode="&#xc2;" horiz-adv-x="1075" 
d="M653 1526l-116 203l-117 -203l-90 10l139 240h135l137 -240zM1028 0h-108l-103 348h-559l-102 -348h-109l426 1434h127zM537 1290l-248 -841h497z" />
    <glyph glyph-name="Atilde" unicode="&#xc3;" horiz-adv-x="1075" 
d="M391 1528l-63 10q-1 84 28 130t82 46q28 0 55 -15.5t45 -34.5t40 -34.5t40 -15.5q31 0 48 27.5t16 76.5l61 -8q3 -84 -26 -130t-82 -46q-28 0 -55 15.5t-44.5 34.5t-39.5 34.5t-41 15.5q-31 0 -48 -28.5t-16 -77.5zM1028 0h-108l-103 348h-559l-102 -348h-109l426 1434
h127zM537 1290l-248 -841h497z" />
    <glyph glyph-name="Adieresis" unicode="&#xc4;" horiz-adv-x="1075" 
d="M367 1724h100v-204h-100v204zM604 1724h101v-204h-101v204zM1028 0h-108l-103 348h-559l-102 -348h-109l426 1434h127zM537 1290l-248 -841h497z" />
    <glyph glyph-name="Aring" unicode="&#xc5;" horiz-adv-x="1075" 
d="M537 1446q-73 0 -118.5 49t-45.5 119q0 68 45.5 117t118.5 49t118 -49t45 -117q0 -70 -45 -119t-118 -49zM537 1718q-45 0 -72 -31t-27 -73q0 -43 27 -74t72 -31t71.5 30.5t26.5 74.5q0 42 -26.5 73t-71.5 31zM1028 0h-108l-103 348h-559l-102 -348h-109l426 1434h127z
M537 1290l-248 -841h497z" />
    <glyph glyph-name="AE" unicode="&#xc6;" horiz-adv-x="1462" 
d="M770 684v-590h608v-94h-710v377h-367l-145 -377h-109l539 1434h778v-95h-594v-561h520v-94h-520zM664 1339l-332 -868h336v868h-4z" />
    <glyph glyph-name="Ccedilla" unicode="&#xc7;" horiz-adv-x="978" 
d="M633 -20l-19 -64q73 -8 116.5 -45t43.5 -94q0 -62 -52 -103t-147 -41q-61 0 -124 19l16 61q40 -16 102 -16q57 0 87 25t30 61q0 44 -41 70.5t-113 27.5l29 101q-206 21 -332.5 212t-126.5 521q0 335 135 535t367 200q81 0 150.5 -22t146.5 -72l-27 -94q-68 47 -129 68.5
t-139 21.5q-176 0 -283.5 -164.5t-107.5 -470.5q0 -293 105.5 -465t287.5 -172q143 0 271 92l26 -98q-118 -86 -272 -94z" />
    <glyph glyph-name="Egrave" unicode="&#xc8;" 
d="M401 1761l140 -219l-72 -10l-162 203zM258 684v-590h608v-94h-710v1434h696v-95h-594v-561h520v-94h-520z" />
    <glyph glyph-name="Eacute" unicode="&#xc9;" 
d="M594 1761l94 -26l-160 -203l-73 10zM258 684v-590h608v-94h-710v1434h696v-95h-594v-561h520v-94h-520z" />
    <glyph glyph-name="Ecircumflex" unicode="&#xca;" 
d="M614 1526l-116 203l-117 -203l-90 10l139 240h135l137 -240zM258 684v-590h608v-94h-710v1434h696v-95h-594v-561h520v-94h-520z" />
    <glyph glyph-name="Edieresis" unicode="&#xcb;" 
d="M328 1724h100v-204h-100v204zM565 1724h101v-204h-101v204zM258 684v-590h608v-94h-710v1434h696v-95h-594v-561h520v-94h-520z" />
    <glyph glyph-name="Igrave" unicode="&#xcc;" horiz-adv-x="413" 
d="M250 1542l-72 -10l-162 203l95 26zM258 0h-102v1434h102v-1434z" />
    <glyph glyph-name="Iacute" unicode="&#xcd;" horiz-adv-x="413" 
d="M397 1735l-159 -203l-74 10l139 219zM258 0h-102v1434h102v-1434z" />
    <glyph glyph-name="Icircumflex" unicode="&#xce;" horiz-adv-x="413" 
d="M274 1776l138 -240l-88 -10l-117 203l-117 -203l-90 10l139 240h135zM258 0h-102v1434h102v-1434z" />
    <glyph glyph-name="Idieresis" unicode="&#xcf;" horiz-adv-x="413" 
d="M137 1520h-100v204h100v-204zM375 1520h-101v204h101v-204zM258 0h-102v1434h102v-1434z" />
    <glyph glyph-name="Eth" unicode="&#xd0;" horiz-adv-x="1140" 
d="M156 1434h303q277 0 428 -186t151 -531t-151 -531t-428 -186h-303v682h-105v76h105v676zM258 94h197q227 0 349 161t122 462q0 302 -122 463t-351 161h-195v-583h301v-76h-301v-588z" />
    <glyph glyph-name="Ntilde" unicode="&#xd1;" horiz-adv-x="1138" 
d="M426 1528l-64 10q-1 84 28.5 130t82.5 46q28 0 55 -15.5t45 -34.5t40 -34.5t40 -15.5q31 0 48 27.5t16 76.5l61 -8q3 -84 -26 -130t-82 -46q-35 0 -68 25t-61.5 50t-51.5 25q-31 0 -47.5 -28.5t-15.5 -77.5zM256 0h-100v1434h96l629 -1196v1196h102v-1434h-94l-633 1204
v-1204z" />
    <glyph glyph-name="Ograve" unicode="&#xd2;" horiz-adv-x="1167" 
d="M627 1542l-72 -10l-162 203l94 26zM584 -18q-222 0 -352 191.5t-130 543.5q0 343 129 539t353 196q222 0 351.5 -191.5t129.5 -543.5q0 -343 -128.5 -539t-352.5 -196zM584 82q171 0 269.5 163.5t98.5 471.5q0 299 -97.5 467t-270.5 168q-171 0 -270 -164t-99 -471
q0 -299 98 -467t271 -168z" />
    <glyph glyph-name="Oacute" unicode="&#xd3;" horiz-adv-x="1167" 
d="M772 1735l-160 -203l-73 10l139 219zM584 -18q-222 0 -352 191.5t-130 543.5q0 343 129 539t353 196q222 0 351.5 -191.5t129.5 -543.5q0 -343 -128.5 -539t-352.5 -196zM584 82q171 0 269.5 163.5t98.5 471.5q0 299 -97.5 467t-270.5 168q-171 0 -270 -164t-99 -471
q0 -299 98 -467t271 -168z" />
    <glyph glyph-name="Ocircumflex" unicode="&#xd4;" horiz-adv-x="1167" 
d="M700 1526l-116 203l-117 -203l-90 10l139 240h135l137 -240zM584 1452q222 0 351.5 -191.5t129.5 -543.5q0 -343 -128.5 -539t-352.5 -196q-222 0 -352 191.5t-130 543.5q0 343 129 539t353 196zM584 82q171 0 269.5 163.5t98.5 471.5q0 299 -97.5 467t-270.5 168
q-171 0 -270 -164t-99 -471q0 -299 98 -467t271 -168z" />
    <glyph glyph-name="Otilde" unicode="&#xd5;" horiz-adv-x="1167" 
d="M438 1528l-63 10q-1 84 28 130t82 46q35 0 68.5 -25t62 -50t50.5 -25q31 0 47.5 27.5t15.5 76.5l62 -8q3 -84 -26.5 -130t-82.5 -46q-28 0 -55 15.5t-44.5 34.5t-39.5 34.5t-41 15.5q-31 0 -48 -28.5t-16 -77.5zM584 -18q-222 0 -352 191.5t-130 543.5q0 343 129 539
t353 196q222 0 351.5 -191.5t129.5 -543.5q0 -343 -128.5 -539t-352.5 -196zM584 82q171 0 269.5 163.5t98.5 471.5q0 299 -97.5 467t-270.5 168q-171 0 -270 -164t-99 -471q0 -299 98 -467t271 -168z" />
    <glyph glyph-name="Odieresis" unicode="&#xd6;" horiz-adv-x="1167" 
d="M514 1520h-100v204h100v-204zM752 1520h-101v204h101v-204zM584 -18q-222 0 -352 191.5t-130 543.5q0 343 129 539t353 196q222 0 351.5 -191.5t129.5 -543.5q0 -343 -128.5 -539t-352.5 -196zM584 82q171 0 269.5 163.5t98.5 471.5q0 299 -97.5 467t-270.5 168
q-171 0 -270 -164t-99 -471q0 -299 98 -467t271 -168z" />
    <glyph glyph-name="multiply" unicode="&#xd7;" horiz-adv-x="530" 
d="M319 684l179 -178l-60 -57l-176 176l-209 -140l158 191l-176 176l57 59l178 -178l207 139z" />
    <glyph glyph-name="Oslash" unicode="&#xd8;" horiz-adv-x="1167" 
d="M1038 1407l-94 -160q121 -191 121 -530q0 -343 -128.5 -539t-352.5 -196q-188 0 -308 135l-75 -127l-68 41l92 153q-123 192 -123 533q0 343 129 539t353 196q183 0 309 -135l78 133zM215 717q0 -255 74 -422l545 922q-94 135 -250 135q-171 0 -270 -164t-99 -471z
M584 82q171 0 269.5 163.5t98.5 471.5q0 258 -73 420l-545 -922q94 -133 250 -133z" />
    <glyph glyph-name="Ugrave" unicode="&#xd9;" horiz-adv-x="1056" 
d="M571 1542l-71 -10l-162 203l94 26zM528 -18q-186 0 -293.5 117t-107.5 317v1018h104v-1016q0 -159 80 -250.5t217 -91.5t218 91.5t81 250.5v1016h103v-1018q0 -200 -107.5 -317t-294.5 -117z" />
    <glyph glyph-name="Uacute" unicode="&#xda;" horiz-adv-x="1056" 
d="M719 1735l-160 -203l-74 10l140 219zM528 -18q-186 0 -293.5 117t-107.5 317v1018h104v-1016q0 -159 80 -250.5t217 -91.5t218 91.5t81 250.5v1016h103v-1018q0 -200 -107.5 -317t-294.5 -117z" />
    <glyph glyph-name="Ucircumflex" unicode="&#xdb;" horiz-adv-x="1056" 
d="M647 1526l-117 203l-116 -203l-90 10l139 240h135l137 -240zM827 418v1016h103v-1018q0 -200 -107.5 -317t-294.5 -117q-186 0 -293.5 117t-107.5 317v1018h104v-1016q0 -159 80 -250.5t217 -91.5t218 91.5t81 250.5z" />
    <glyph glyph-name="Udieresis" unicode="&#xdc;" horiz-adv-x="1056" 
d="M461 1520h-101v204h101v-204zM698 1520h-100v204h100v-204zM528 -18q-186 0 -293.5 117t-107.5 317v1018h104v-1016q0 -159 80 -250.5t217 -91.5t218 91.5t81 250.5v1016h103v-1018q0 -200 -107.5 -317t-294.5 -117z" />
    <glyph glyph-name="Yacute" unicode="&#xdd;" horiz-adv-x="960" 
d="M575 1761l95 -26l-160 -203l-74 10zM815 1434h109l-392 -990v-444h-104v444l-391 990h110l334 -846z" />
    <glyph glyph-name="Thorn" unicode="&#xde;" horiz-adv-x="976" 
d="M258 1188h188q217 0 341 -121t124 -344q0 -219 -122 -344t-345 -125h-186v-254h-102v1434h102v-246zM258 344h184q170 0 267.5 99t97.5 282q0 173 -95 273t-268 100h-186v-754z" />
    <glyph glyph-name="germandbls" unicode="&#xdf;" horiz-adv-x="985" 
d="M602 786q131 -21 211 -123.5t80 -261.5q0 -191 -95.5 -305t-258.5 -114q-102 0 -191 53l17 88q79 -49 161 -49q125 0 196 86.5t71 245.5q0 148 -78 234.5t-211 86.5q-48 0 -88 -10v86q131 8 216 103.5t85 248.5q0 126 -61.5 203.5t-166.5 77.5q-112 0 -177.5 -85.5
t-65.5 -240.5v-1110h-101v1112q0 192 91 305t253 113q148 0 238 -99t90 -270q0 -132 -58.5 -233.5t-156.5 -141.5z" />
    <glyph glyph-name="agrave" unicode="&#xe0;" horiz-adv-x="847" 
d="M319 1507l123 -239l-67 -11l-150 224zM391 1118q168 0 250 -94.5t82 -294.5v-729h-98v231q-37 -108 -116 -178.5t-190 -70.5q-118 0 -188 88t-70 243q0 158 76.5 244t227.5 86q139 0 258 -22v110q0 155 -60.5 225t-181.5 70q-122 0 -229 -57l-15 92q114 57 254 57z
M350 76q117 0 191 106.5t82 253.5v103q-107 22 -238 22q-227 0 -227 -244q0 -116 51 -178.5t141 -62.5z" />
    <glyph glyph-name="aacute" unicode="&#xe1;" horiz-adv-x="847" 
d="M487 1507l95 -26l-150 -224l-67 11zM391 1118q168 0 250 -94.5t82 -294.5v-729h-98v231q-37 -108 -116 -178.5t-190 -70.5q-118 0 -188 88t-70 243q0 158 76.5 244t227.5 86q139 0 258 -22v110q0 155 -60.5 225t-181.5 70q-122 0 -229 -57l-15 92q114 57 254 57zM350 76
q117 0 191 106.5t82 253.5v103q-107 22 -238 22q-227 0 -227 -244q0 -116 51 -178.5t141 -62.5z" />
    <glyph glyph-name="acircumflex" unicode="&#xe2;" horiz-adv-x="847" 
d="M510 1231l-107 219l-106 -219l-82 10l127 260h123l127 -260zM391 1118q168 0 250 -94.5t82 -294.5v-729h-98v231q-37 -108 -116 -178.5t-190 -70.5q-118 0 -188 88t-70 243q0 158 76.5 244t227.5 86q139 0 258 -22v110q0 155 -60.5 225t-181.5 70q-122 0 -229 -57l-15 92
q114 57 254 57zM350 76q117 0 191 106.5t82 253.5v103q-107 22 -238 22q-227 0 -227 -244q0 -116 51 -178.5t141 -62.5z" />
    <glyph glyph-name="atilde" unicode="&#xe3;" horiz-adv-x="847" 
d="M260 1270l-63 10q-1 84 28 130t82 46q28 0 55 -15.5t45 -34.5t40 -34.5t40 -15.5q31 0 48 27.5t16 76.5l61 -8q3 -84 -26 -131t-82 -47q-28 0 -55 16t-44.5 35t-39.5 35t-41 16q-31 0 -48 -28.5t-16 -77.5zM391 1118q168 0 250 -94.5t82 -294.5v-729h-98v231
q-37 -108 -116 -178.5t-190 -70.5q-118 0 -188 88t-70 243q0 158 76.5 244t227.5 86q139 0 258 -22v110q0 155 -60.5 225t-181.5 70q-122 0 -229 -57l-15 92q114 57 254 57zM350 76q117 0 191 106.5t82 253.5v103q-107 22 -238 22q-227 0 -227 -244q0 -116 51 -178.5
t141 -62.5z" />
    <glyph glyph-name="adieresis" unicode="&#xe4;" horiz-adv-x="847" 
d="M252 1470h80v-213h-80v213zM481 1470h78v-213h-78v213zM391 1118q168 0 250 -94.5t82 -294.5v-729h-98v231q-37 -108 -116 -178.5t-190 -70.5q-118 0 -188 88t-70 243q0 158 76.5 244t227.5 86q139 0 258 -22v110q0 155 -60.5 225t-181.5 70q-122 0 -229 -57l-15 92
q114 57 254 57zM350 76q117 0 191 106.5t82 253.5v103q-107 22 -238 22q-227 0 -227 -244q0 -116 51 -178.5t141 -62.5z" />
    <glyph glyph-name="aring" unicode="&#xe5;" horiz-adv-x="847" 
d="M406 1206q-73 0 -118.5 49t-45.5 117q0 70 45.5 119t118.5 49t118 -49t45 -119q0 -68 -45 -117t-118 -49zM406 1479q-45 0 -72 -31.5t-27 -75.5q0 -42 27 -72t72 -30t71.5 30t26.5 72q0 44 -26.5 75.5t-71.5 31.5zM391 1118q168 0 250 -94.5t82 -294.5v-729h-98v231
q-37 -108 -116 -178.5t-190 -70.5q-118 0 -188 88t-70 243q0 158 76.5 244t227.5 86q139 0 258 -22v110q0 155 -60.5 225t-181.5 70q-122 0 -229 -57l-15 92q114 57 254 57zM350 76q117 0 191 106.5t82 253.5v103q-107 22 -238 22q-227 0 -227 -244q0 -116 51 -178.5
t141 -62.5z" />
    <glyph glyph-name="ae" unicode="&#xe6;" horiz-adv-x="1433" 
d="M1331 516h-600q9 -210 87.5 -325t211.5 -115t242 74l20 -91q-115 -77 -272 -77q-120 0 -209 68.5t-135 197.5q-45 -118 -131.5 -192t-210.5 -74q-123 0 -194.5 88.5t-71.5 240.5q0 156 77.5 244t221.5 88q150 0 264 -27v5v98q0 159 -61 233t-181 74q-129 0 -229 -59
l-19 94q125 57 258 57q231 0 299 -213q48 103 126.5 158t181.5 55q158 0 251 -129t93 -340q0 -59 -19 -133zM731 602h516v10q8 185 -55.5 298.5t-185.5 113.5q-120 0 -194 -110.5t-81 -311.5zM352 78q83 0 147 54.5t97.5 139t36.5 183.5q-4 50 -4 77q-95 27 -236 27
q-110 0 -168.5 -62t-58.5 -180q0 -111 49.5 -175t136.5 -64z" />
    <glyph glyph-name="ccedilla" unicode="&#xe7;" horiz-adv-x="790" 
d="M709 145l24 -90q-108 -67 -221 -73l-18 -64q72 -8 115.5 -45t43.5 -94q0 -62 -51.5 -103t-146.5 -41q-62 0 -125 19l16 61q40 -16 103 -16q57 0 86.5 25t29.5 61q0 44 -40.5 70.5t-112.5 27.5l28 103q-164 21 -259 168.5t-95 394.5q0 261 109.5 415t296.5 154
q120 0 241 -74l-26 -90q-106 68 -211 68q-142 0 -226 -124.5t-84 -346.5q0 -219 83 -346t227 -127q109 0 213 67z" />
    <glyph glyph-name="egrave" unicode="&#xe8;" horiz-adv-x="890" 
d="M375 1501l123 -239l-68 -11l-149 224zM788 516h-600q9 -210 87.5 -325t211.5 -115t242 74l21 -91q-115 -77 -273 -77q-180 0 -285.5 150.5t-105.5 418.5q0 257 100.5 412t276.5 155q158 0 251 -129t93 -340q0 -59 -19 -133zM188 602h517v10q8 184 -56 298t-186 114
q-120 0 -194 -110.5t-81 -311.5z" />
    <glyph glyph-name="eacute" unicode="&#xe9;" horiz-adv-x="890" 
d="M543 1501l94 -26l-150 -224l-67 11zM788 516h-600q9 -210 87.5 -325t211.5 -115t242 74l21 -91q-115 -77 -273 -77q-180 0 -285.5 150.5t-105.5 418.5q0 257 100.5 412t276.5 155q158 0 251 -129t93 -340q0 -59 -19 -133zM188 602h517v10q8 184 -56 298t-186 114
q-120 0 -194 -110.5t-81 -311.5z" />
    <glyph glyph-name="ecircumflex" unicode="&#xea;" horiz-adv-x="890" 
d="M567 1225l-106 219l-107 -219l-82 10l127 260h123l127 -260zM788 516h-600q9 -210 87.5 -325t211.5 -115t242 74l21 -91q-115 -77 -273 -77q-180 0 -285.5 150.5t-105.5 418.5q0 257 100.5 412t276.5 155q158 0 251 -129t93 -340q0 -59 -19 -133zM188 602h517v10
q8 184 -56 298t-186 114q-120 0 -194 -110.5t-81 -311.5z" />
    <glyph glyph-name="edieresis" unicode="&#xeb;" horiz-adv-x="890" 
d="M307 1464h80v-213h-80v213zM537 1464h77v-213h-77v213zM788 516h-600q9 -210 87.5 -325t211.5 -115t242 74l21 -91q-115 -77 -273 -77q-180 0 -285.5 150.5t-105.5 418.5q0 257 100.5 412t276.5 155q158 0 251 -129t93 -340q0 -59 -19 -133zM188 602h517v10
q8 184 -56 298t-186 114q-120 0 -194 -110.5t-81 -311.5z" />
    <glyph glyph-name="igrave" unicode="&#xec;" horiz-adv-x="378" 
d="M225 1262l-67 -11l-150 224l94 26zM240 0h-101v1100h101v-1100z" />
    <glyph glyph-name="iacute" unicode="&#xed;" horiz-adv-x="378" 
d="M365 1475l-150 -224l-68 11l123 239zM240 0h-101v1100h101v-1100z" />
    <glyph glyph-name="icircumflex" unicode="&#xee;" horiz-adv-x="378" 
d="M248 1495l127 -260l-82 -10l-107 219l-106 -219l-82 10l127 260h123zM240 0h-101v1100h101v-1100z" />
    <glyph glyph-name="idieresis" unicode="&#xef;" horiz-adv-x="378" 
d="M115 1251h-80v213h80v-213zM342 1251h-78v213h78v-213zM240 0h-101v1100h101v-1100z" />
    <glyph glyph-name="eth" unicode="&#xf0;" horiz-adv-x="944" 
d="M774 1397l-104 -66q83 -114 127.5 -284t44.5 -379q0 -322 -107.5 -504t-298.5 -182q-161 0 -255.5 130.5t-94.5 362.5q0 222 92.5 359t249.5 137q108 0 189 -89t124 -251v35q-2 196 -40.5 355t-110.5 261l-168 -102l-33 49l162 100q-116 126 -279 111l33 73
q186 18 326 -135l110 70zM436 70q107 0 183.5 96t105.5 274q-30 206 -105.5 323.5t-181.5 117.5q-113 0 -182.5 -109.5t-69.5 -300.5q0 -184 67.5 -292.5t182.5 -108.5z" />
    <glyph glyph-name="ntilde" unicode="&#xf1;" horiz-adv-x="942" 
d="M342 1264l-63 10q-1 84 28 130t82 46q28 0 55 -15.5t45 -34.5t40 -34.5t40 -15.5q31 0 48 27.5t16 76.5l61 -8q3 -84 -26 -131t-82 -47q-28 0 -55 16t-44.5 35t-39.5 35t-41 16q-31 0 -48 -28.5t-16 -77.5zM532 1118q137 0 212 -97t75 -284v-737h-100v737
q0 142 -55.5 214.5t-155.5 72.5q-96 0 -168.5 -85.5t-99.5 -244.5v-694h-101v1100h101v-221q40 112 116 175.5t176 63.5z" />
    <glyph glyph-name="ograve" unicode="&#xf2;" 
d="M510 1262l-68 -11l-149 224l94 26zM473 -18q-179 0 -283 150.5t-104 418.5q0 261 104 414t283 153t285 -150t106 -415q0 -263 -104.5 -417t-286.5 -154zM475 78q131 0 209 125t78 348q0 217 -78 345t-211 128q-131 0 -209 -125t-78 -348q0 -217 78 -345t211 -128z" />
    <glyph glyph-name="oacute" unicode="&#xf3;" 
d="M649 1475l-149 -224l-68 11l123 239zM473 -18q-179 0 -283 150.5t-104 418.5q0 261 104 414t283 153t285 -150t106 -415q0 -263 -104.5 -417t-286.5 -154zM475 78q131 0 209 125t78 348q0 217 -78 345t-211 128q-131 0 -209 -125t-78 -348q0 -217 78 -345t211 -128z" />
    <glyph glyph-name="ocircumflex" unicode="&#xf4;" 
d="M580 1225l-107 219l-106 -219l-82 10l127 260h123l127 -260zM473 1118q179 0 285 -150t106 -415q0 -263 -104.5 -417t-286.5 -154q-179 0 -283 150.5t-104 418.5q0 261 104 414t283 153zM475 78q131 0 209 125t78 348q0 217 -78 345t-211 128q-131 0 -209 -125t-78 -348
q0 -217 78 -345t211 -128z" />
    <glyph glyph-name="otilde" unicode="&#xf5;" 
d="M328 1264l-64 10q-1 84 28.5 130t82.5 46q28 0 55 -15.5t45 -34.5t40 -34.5t40 -15.5q31 0 47.5 27.5t15.5 76.5l62 -8q3 -84 -26.5 -131t-82.5 -47q-28 0 -55 16t-44.5 35t-39.5 35t-41 16q-31 0 -47.5 -28.5t-15.5 -77.5zM473 -18q-179 0 -283 150.5t-104 418.5
q0 261 104 414t283 153t285 -150t106 -415q0 -263 -104.5 -417t-286.5 -154zM475 78q131 0 209 125t78 348q0 217 -78 345t-211 128q-131 0 -209 -125t-78 -348q0 -217 78 -345t211 -128z" />
    <glyph glyph-name="odieresis" unicode="&#xf6;" 
d="M399 1251h-80v213h80v-213zM627 1251h-78v213h78v-213zM473 -18q-179 0 -283 150.5t-104 418.5q0 261 104 414t283 153t285 -150t106 -415q0 -263 -104.5 -417t-286.5 -154zM475 78q131 0 209 125t78 348q0 217 -78 345t-211 128q-131 0 -209 -125t-78 -348
q0 -217 78 -345t211 -128z" />
    <glyph glyph-name="divide" unicode="&#xf7;" horiz-adv-x="634" 
d="M393 1053v-140h-147v140h147zM600 750v-80h-567v80h567zM248 375v141h149v-141h-149z" />
    <glyph glyph-name="oslash" unicode="&#xf8;" 
d="M852 1073l-80 -127q92 -147 92 -393q0 -263 -104.5 -417t-286.5 -154q-145 0 -244 102l-61 -100l-68 43l78 125q-92 150 -92 399q0 261 104 414t283 153q151 0 246 -102l65 102zM186 551q0 -180 56 -301l422 676q-76 98 -191 98q-131 0 -209 -125t-78 -348zM475 78
q131 0 209 125t78 348q0 174 -51 295l-424 -674q78 -94 188 -94z" />
    <glyph glyph-name="ugrave" unicode="&#xf9;" horiz-adv-x="942" 
d="M367 1501l122 -239l-67 -11l-150 224zM702 406v694h101v-1100h-101v221q-40 -112 -116 -175.5t-176 -63.5q-137 0 -212 96.5t-75 283.5v738h100v-738q0 -142 55.5 -214t155.5 -72q96 0 168.5 85.5t99.5 244.5z" />
    <glyph glyph-name="uacute" unicode="&#xfa;" horiz-adv-x="942" 
d="M532 1501l95 -26l-150 -224l-67 11zM702 406v694h101v-1100h-101v221q-40 -112 -116 -175.5t-176 -63.5q-137 0 -212 96.5t-75 283.5v738h100v-738q0 -142 55.5 -214t155.5 -72q96 0 168.5 85.5t99.5 244.5z" />
    <glyph glyph-name="ucircumflex" unicode="&#xfb;" horiz-adv-x="942" 
d="M557 1225l-106 219l-107 -219l-82 10l127 260h123l127 -260zM702 406v694h101v-1100h-101v221q-40 -112 -116 -175.5t-176 -63.5q-137 0 -212 96.5t-75 283.5v738h100v-738q0 -142 55.5 -214t155.5 -72q96 0 168.5 85.5t99.5 244.5z" />
    <glyph glyph-name="udieresis" unicode="&#xfc;" horiz-adv-x="942" 
d="M297 1464h80v-213h-80v213zM526 1464h78v-213h-78v213zM702 406v694h101v-1100h-101v221q-40 -112 -116 -175.5t-176 -63.5q-137 0 -212 96.5t-75 283.5v738h100v-738q0 -142 55.5 -214t155.5 -72q96 0 168.5 85.5t99.5 244.5z" />
    <glyph glyph-name="yacute" unicode="&#xfd;" horiz-adv-x="872" 
d="M518 1501l94 -26l-149 -224l-68 11zM436 133l293 967h105l-342 -1100l-109 -350h-107l107 342l-344 1108h104l291 -967h2z" />
    <glyph glyph-name="thorn" unicode="&#xfe;" horiz-adv-x="995" 
d="M246 -350h-101v1861h101v-653q42 122 126.5 191t186.5 69q161 0 255.5 -151.5t94.5 -417.5q0 -273 -95 -420t-257 -147q-103 0 -185.5 70.5t-125.5 195.5v-598zM532 76q126 0 200.5 124.5t74.5 348.5q0 231 -75 354t-200 123q-123 0 -204.5 -133.5t-81.5 -343.5
q0 -212 80.5 -342.5t205.5 -130.5z" />
    <glyph glyph-name="ydieresis" unicode="&#xff;" horiz-adv-x="872" 
d="M281 1464h79v-213h-79v213zM510 1464h78v-213h-78v213zM436 133l293 967h105l-342 -1100l-109 -350h-107l107 342l-344 1108h104l291 -967h2z" />
    <glyph glyph-name="Amacron" unicode="&#x100;" horiz-adv-x="1075" 
d="M315 1659h441v-76h-441v76zM1028 0h-108l-103 348h-559l-102 -348h-109l426 1434h127zM537 1290l-248 -841h497z" />
    <glyph glyph-name="amacron" unicode="&#x101;" horiz-adv-x="847" 
d="M186 1370h441v-76h-441v76zM391 1118q168 0 250 -94.5t82 -294.5v-729h-98v231q-37 -108 -116 -178.5t-190 -70.5q-118 0 -188 88t-70 243q0 158 76.5 244t227.5 86q139 0 258 -22v110q0 155 -60.5 225t-181.5 70q-122 0 -229 -57l-15 92q114 57 254 57zM350 76
q117 0 191 106.5t82 253.5v103q-107 22 -238 22q-227 0 -227 -244q0 -116 51 -178.5t141 -62.5z" />
    <glyph glyph-name="Abreve" unicode="&#x102;" horiz-adv-x="1075" 
d="M535 1497q-90 0 -138.5 56.5t-48.5 170.5h80q0 -161 107 -161q108 0 108 161h78q0 -111 -47 -169t-139 -58zM1028 0h-108l-103 348h-559l-102 -348h-109l426 1434h127zM537 1290l-248 -841h497z" />
    <glyph glyph-name="abreve" unicode="&#x103;" horiz-adv-x="847" 
d="M406 1235q-90 0 -138.5 57t-48.5 172h80q0 -161 107 -161q108 0 108 161h78q0 -229 -186 -229zM391 1118q168 0 250 -94.5t82 -294.5v-729h-98v231q-37 -108 -116 -178.5t-190 -70.5q-118 0 -188 88t-70 243q0 158 76.5 244t227.5 86q139 0 258 -22v110q0 155 -60.5 225
t-181.5 70q-122 0 -229 -57l-15 92q114 57 254 57zM350 76q117 0 191 106.5t82 253.5v103q-107 22 -238 22q-227 0 -227 -244q0 -116 51 -178.5t141 -62.5z" />
    <glyph glyph-name="Aogonek" unicode="&#x104;" horiz-adv-x="1075" 
d="M1065 -289l6 -69q-124 -25 -192 13t-68 128q0 119 125 217h-16l-103 348h-559l-102 -348h-109l426 1434h127l428 -1434h-2q-60 -45 -91.5 -97.5t-31.5 -97.5q0 -59 42.5 -83.5t119.5 -10.5zM537 1290l-248 -841h497z" />
    <glyph glyph-name="aogonek" unicode="&#x105;" horiz-adv-x="847" 
d="M762 -289l6 -69q-124 -25 -192 13t-68 128q0 119 125 217h-8v231q-37 -108 -116 -178.5t-190 -70.5q-118 0 -188 88t-70 243q0 158 76.5 244t227.5 86q139 0 258 -22v110q0 155 -60.5 225t-181.5 70q-122 0 -229 -57l-15 92q114 57 254 57q168 0 250 -94.5t82 -294.5
v-729q-60 -45 -91.5 -97.5t-31.5 -97.5q0 -59 42.5 -83.5t119.5 -10.5zM350 76q117 0 191 106.5t82 253.5v103q-107 22 -238 22q-227 0 -227 -244q0 -116 51 -178.5t141 -62.5z" />
    <glyph glyph-name="Cacute" unicode="&#x106;" horiz-adv-x="978" 
d="M786 1733l-159 -203l-74 10l139 219zM606 -20q-224 0 -364 193.5t-140 541.5q0 335 135 535t367 200q81 0 150.5 -22t146.5 -72l-27 -94q-68 47 -129 68.5t-139 21.5q-176 0 -283.5 -164.5t-107.5 -470.5q0 -293 105.5 -465t287.5 -172q143 0 271 92l26 -98
q-131 -94 -299 -94z" />
    <glyph glyph-name="cacute" unicode="&#x107;" horiz-adv-x="790" 
d="M655 1473l-149 -224l-68 11l123 239zM492 -18q-186 0 -296 150t-110 417q0 261 109.5 415t296.5 154q120 0 241 -74l-26 -90q-106 68 -211 68q-142 0 -226 -124.5t-84 -346.5q0 -219 83 -346t227 -127q109 0 213 67l24 -90q-116 -73 -241 -73z" />
    <glyph glyph-name="Ccircumflex" unicode="&#x108;" horiz-adv-x="978" 
d="M713 1524l-117 202l-117 -202l-90 10l139 240h136l137 -240zM879 172l26 -98q-131 -94 -299 -94q-224 0 -364 193.5t-140 541.5q0 335 135 535t367 200q81 0 150.5 -22t146.5 -72l-27 -94q-68 47 -129 68.5t-139 21.5q-176 0 -283.5 -164.5t-107.5 -470.5
q0 -293 105.5 -465t287.5 -172q143 0 271 92z" />
    <glyph glyph-name="ccircumflex" unicode="&#x109;" horiz-adv-x="790" 
d="M584 1223l-107 219l-106 -219l-82 10l127 260h123l127 -260zM496 78q109 0 213 67l24 -90q-116 -73 -241 -73q-186 0 -296 150t-110 417q0 261 109.5 415t296.5 154q120 0 241 -74l-26 -90q-106 68 -211 68q-142 0 -226 -124.5t-84 -346.5q0 -219 83 -346t227 -127z" />
    <glyph glyph-name="Cdotaccent" unicode="&#x10a;" horiz-adv-x="978" 
d="M645 1530h-106v207h106v-207zM606 -20q-224 0 -364 193.5t-140 541.5q0 335 135 535t367 200q81 0 150.5 -22t146.5 -72l-27 -94q-68 47 -129 68.5t-139 21.5q-176 0 -283.5 -164.5t-107.5 -470.5q0 -293 105.5 -465t287.5 -172q143 0 271 92l26 -98q-131 -94 -299 -94z
" />
    <glyph glyph-name="cdotaccent" unicode="&#x10b;" horiz-adv-x="790" 
d="M528 1247h-106v215h106v-215zM492 -18q-186 0 -296 150t-110 417q0 261 109.5 415t296.5 154q120 0 241 -74l-26 -90q-106 68 -211 68q-142 0 -226 -124.5t-84 -346.5q0 -219 83 -346t227 -127q109 0 213 67l24 -90q-116 -73 -241 -73z" />
    <glyph glyph-name="Ccaron" unicode="&#x10c;" horiz-adv-x="978" 
d="M528 1528l-139 227l88 10l117 -194l119 194l86 -10l-137 -227h-134zM879 172l26 -98q-131 -94 -299 -94q-224 0 -364 193.5t-140 541.5q0 335 135 535t367 200q81 0 150.5 -22t146.5 -72l-27 -94q-68 47 -129 68.5t-139 21.5q-176 0 -283.5 -164.5t-107.5 -470.5
q0 -293 105.5 -465t287.5 -172q143 0 271 92z" />
    <glyph glyph-name="ccaron" unicode="&#x10d;" horiz-adv-x="790" 
d="M418 1219l-127 262l82 12l106 -223l107 223l82 -12l-127 -262h-123zM496 78q109 0 213 67l24 -90q-116 -73 -241 -73q-186 0 -296 150t-110 417q0 261 109.5 415t296.5 154q120 0 241 -74l-26 -90q-106 68 -211 68q-142 0 -226 -124.5t-84 -346.5q0 -219 83 -346
t227 -127z" />
    <glyph glyph-name="Dcaron" unicode="&#x10e;" horiz-adv-x="1140" 
d="M383 1530l-139 227l88 10l117 -194l118 194l86 -10l-137 -227h-133zM156 1434h303q277 0 428 -186t151 -531t-151 -531t-428 -186h-303v1434zM258 94h197q227 0 349 161t122 462q0 302 -122 463t-351 161h-195v-1247z" />
    <glyph glyph-name="dcaron" unicode="&#x10f;" horiz-adv-x="999" 
d="M440 -18q-161 0 -255.5 151.5t-94.5 417.5q0 273 95 420t257 147q103 0 186 -70t126 -194v657h100v-1511h-100v244q-42 -122 -127 -192t-187 -70zM969 1178v333l88 -2l-25 -331h-63zM467 74q123 0 205 132.5t82 336.5q0 216 -79.5 348.5t-207.5 132.5q-126 0 -200 -124.5
t-74 -348.5q0 -232 74.5 -354.5t199.5 -122.5z" />
    <glyph glyph-name="Dcroat" unicode="&#x110;" horiz-adv-x="1140" 
d="M156 1434h303q277 0 428 -186t151 -531t-151 -531t-428 -186h-303v682h-105v76h105v676zM258 94h197q227 0 349 161t122 462q0 302 -122 463t-351 161h-195v-583h301v-76h-301v-588z" />
    <glyph glyph-name="dcroat" unicode="&#x111;" horiz-adv-x="999" 
d="M854 1307h111v-72h-111v-1235h-100v244q-42 -122 -127 -192t-187 -70q-161 0 -255.5 151.5t-94.5 417.5q0 273 95 420t257 147q103 0 186 -70t126 -194v381h-240v72h240v204h100v-204zM467 74q123 0 205 132.5t82 336.5q0 216 -79.5 348.5t-207.5 132.5
q-126 0 -200 -124.5t-74 -348.5q0 -232 74.5 -354.5t199.5 -122.5z" />
    <glyph glyph-name="Emacron" unicode="&#x112;" 
d="M276 1659h441v-76h-441v76zM258 684v-590h608v-94h-710v1434h696v-95h-594v-561h520v-94h-520z" />
    <glyph glyph-name="emacron" unicode="&#x113;" horiz-adv-x="890" 
d="M242 1364h440v-76h-440v76zM788 516h-600q9 -210 87.5 -325t211.5 -115t242 74l21 -91q-115 -77 -273 -77q-180 0 -285.5 150.5t-105.5 418.5q0 257 100.5 412t276.5 155q158 0 251 -129t93 -340q0 -59 -19 -133zM188 602h517v10q8 184 -56 298t-186 114
q-120 0 -194 -110.5t-81 -311.5z" />
    <glyph glyph-name="Ebreve" unicode="&#x114;" 
d="M498 1497q-90 0 -138.5 56.5t-48.5 170.5h80q0 -161 107 -161q108 0 108 161h78q0 -111 -47 -169t-139 -58zM258 684v-590h608v-94h-710v1434h696v-95h-594v-561h520v-94h-520z" />
    <glyph glyph-name="ebreve" unicode="&#x115;" horiz-adv-x="890" 
d="M463 1229q-90 0 -138.5 57t-48.5 172h80q0 -162 107 -162q108 0 108 162h78q0 -229 -186 -229zM788 516h-600q9 -210 87.5 -325t211.5 -115t242 74l21 -91q-115 -77 -273 -77q-180 0 -285.5 150.5t-105.5 418.5q0 257 100.5 412t276.5 155q158 0 251 -129t93 -340
q0 -59 -19 -133zM188 602h517v10q8 184 -56 298t-186 114q-120 0 -194 -110.5t-81 -311.5z" />
    <glyph glyph-name="Edotaccent" unicode="&#x116;" 
d="M440 1739h107v-207h-107v207zM258 684v-590h608v-94h-710v1434h696v-95h-594v-561h520v-94h-520z" />
    <glyph glyph-name="edotaccent" unicode="&#x117;" horiz-adv-x="890" 
d="M403 1464h107v-215h-107v215zM788 516h-600q9 -210 87.5 -325t211.5 -115t242 74l21 -91q-115 -77 -273 -77q-180 0 -285.5 150.5t-105.5 418.5q0 257 100.5 412t276.5 155q158 0 251 -129t93 -340q0 -59 -19 -133zM188 602h517v10q8 184 -56 298t-186 114
q-120 0 -194 -110.5t-81 -311.5z" />
    <glyph glyph-name="Eogonek" unicode="&#x118;" 
d="M905 -289l6 -69q-124 -25 -192 13t-68 128q0 119 125 217h-620v1434h696v-95h-594v-561h520v-94h-520v-590h608v-94q-60 -45 -91.5 -97.5t-31.5 -97.5q0 -59 42.5 -83.5t119.5 -10.5z" />
    <glyph glyph-name="eogonek" unicode="&#x119;" horiz-adv-x="890" 
d="M627 -135q0 -60 42 -84t119 -10l7 -70q-124 -25 -192 13t-68 128q0 80 57 152q-52 -12 -115 -12q-180 0 -285.5 150.5t-105.5 418.5q0 257 100.5 412t276.5 155q158 0 251 -129t93 -340q0 -59 -19 -133h-600q9 -210 87.5 -325t211.5 -115t242 74l21 -91
q-60 -45 -91.5 -97t-31.5 -97zM463 1024q-120 0 -194 -110.5t-81 -311.5h517v10q8 184 -56 298t-186 114z" />
    <glyph glyph-name="Ecaron" unicode="&#x11a;" 
d="M430 1530l-139 227l88 10l117 -194l118 194l86 -10l-137 -227h-133zM258 684v-590h608v-94h-710v1434h696v-95h-594v-561h520v-94h-520z" />
    <glyph glyph-name="ecaron" unicode="&#x11b;" horiz-adv-x="890" 
d="M399 1221l-127 262l82 12l107 -223l106 223l82 -12l-127 -262h-123zM788 516h-600q9 -210 87.5 -325t211.5 -115t242 74l21 -91q-115 -77 -273 -77q-180 0 -285.5 150.5t-105.5 418.5q0 257 100.5 412t276.5 155q158 0 251 -129t93 -340q0 -59 -19 -133zM188 602h517v10
q8 184 -56 298t-186 114q-120 0 -194 -110.5t-81 -311.5z" />
    <glyph glyph-name="Gcircumflex" unicode="&#x11c;" horiz-adv-x="1069" 
d="M725 1526l-117 203l-116 -203l-91 10l140 240h135l137 -240zM694 633v94h267v-606q-168 -139 -377 -139q-224 0 -353 191t-129 542q0 354 135 545.5t369 191.5q166 0 305 -90l-26 -96q-131 88 -275 88q-189 0 -292 -163t-103 -474q0 -308 98.5 -472.5t274.5 -164.5
q153 0 270 94v459h-164z" />
    <glyph glyph-name="gcircumflex" unicode="&#x11d;" horiz-adv-x="864" 
d="M551 1225l-107 219l-106 -219l-82 10l127 260h123l127 -260zM330 221h184q144 0 225.5 -67.5t81.5 -190.5q0 -149 -104 -239.5t-291 -90.5q-158 0 -249 73t-91 208q0 68 36 128.5t99 102.5q-96 46 -96 174q0 53 26.5 98t71.5 70q-96 96 -96 277q0 163 82 258.5t229 95.5
q88 0 144 -33l190 52l27 -78l-137 -37q90 -93 90 -258q0 -163 -82.5 -259.5t-229.5 -96.5q-93 0 -155 36q-68 -44 -68 -108q0 -53 29 -84t84 -31zM438 1030q-101 0 -157 -68.5t-56 -195.5q0 -125 56 -197.5t157 -72.5t158 70t57 198q0 123 -56 194.5t-159 71.5zM432 -274
q135 0 211 60.5t76 168.5q0 84 -57.5 129t-165.5 45h-193h-12q-111 -87 -111 -203q0 -96 66 -148t186 -52z" />
    <glyph glyph-name="Gbreve" unicode="&#x11e;" horiz-adv-x="1069" 
d="M606 1497q-186 0 -186 227h80q0 -161 106 -161q109 0 109 161h78q0 -111 -47.5 -169t-139.5 -58zM694 633v94h267v-606q-168 -139 -377 -139q-224 0 -353 191t-129 542q0 354 135 545.5t369 191.5q166 0 305 -90l-26 -96q-131 88 -275 88q-189 0 -292 -163t-103 -474
q0 -308 98.5 -472.5t274.5 -164.5q153 0 270 94v459h-164z" />
    <glyph glyph-name="gbreve" unicode="&#x11f;" horiz-adv-x="864" 
d="M446 1229q-90 0 -138 57t-48 172h80q0 -162 106 -162q109 0 109 162h78q0 -113 -47.5 -171t-139.5 -58zM330 221h184q144 0 225.5 -67.5t81.5 -190.5q0 -149 -104 -239.5t-291 -90.5q-158 0 -249 73t-91 208q0 68 36 128.5t99 102.5q-96 46 -96 174q0 53 26.5 98t71.5 70
q-96 96 -96 277q0 163 82 258.5t229 95.5q88 0 144 -33l190 52l27 -78l-137 -37q90 -93 90 -258q0 -163 -82.5 -259.5t-229.5 -96.5q-93 0 -155 36q-68 -44 -68 -108q0 -53 29 -84t84 -31zM438 1030q-101 0 -157 -68.5t-56 -195.5q0 -125 56 -197.5t157 -72.5t158 70t57 198
q0 123 -56 194.5t-159 71.5zM432 -274q135 0 211 60.5t76 168.5q0 84 -57.5 129t-165.5 45h-193h-12q-111 -87 -111 -203q0 -96 66 -148t186 -52z" />
    <glyph glyph-name="Gdotaccent" unicode="&#x120;" horiz-adv-x="1069" 
d="M551 1739h106v-207h-106v207zM694 633v94h267v-606q-168 -139 -377 -139q-224 0 -353 191t-129 542q0 354 135 545.5t369 191.5q166 0 305 -90l-26 -96q-131 88 -275 88q-189 0 -292 -163t-103 -474q0 -308 98.5 -472.5t274.5 -164.5q153 0 270 94v459h-164z" />
    <glyph glyph-name="gdotaccent" unicode="&#x121;" horiz-adv-x="864" 
d="M387 1464h107v-215h-107v215zM330 221h184q144 0 225.5 -67.5t81.5 -190.5q0 -149 -104 -239.5t-291 -90.5q-158 0 -249 73t-91 208q0 68 36 128.5t99 102.5q-96 46 -96 174q0 53 26.5 98t71.5 70q-96 96 -96 277q0 163 82 258.5t229 95.5q88 0 144 -33l190 52l27 -78
l-137 -37q90 -93 90 -258q0 -163 -82.5 -259.5t-229.5 -96.5q-93 0 -155 36q-68 -44 -68 -108q0 -53 29 -84t84 -31zM438 1030q-101 0 -157 -68.5t-56 -195.5q0 -125 56 -197.5t157 -72.5t158 70t57 198q0 123 -56 194.5t-159 71.5zM432 -274q135 0 211 60.5t76 168.5
q0 84 -57.5 129t-165.5 45h-193h-12q-111 -87 -111 -203q0 -96 66 -148t186 -52z" />
    <glyph glyph-name="uni0122" unicode="&#x122;" horiz-adv-x="1069" 
d="M694 633v94h267v-606q-168 -139 -377 -139q-224 0 -353 191t-129 542q0 354 135 545.5t369 191.5q166 0 305 -90l-26 -96q-131 88 -275 88q-189 0 -292 -163t-103 -474q0 -308 98.5 -472.5t274.5 -164.5q153 0 270 94v459h-164zM485 -205v131h156q54 -267 -145 -342
l-27 56q110 54 98 155h-82z" />
    <glyph glyph-name="uni0123" unicode="&#x123;" horiz-adv-x="864" 
d="M510 1321v-115h-135q-49 233 127 316l24 -43q-51 -31 -74 -68t-16 -90h74zM330 221h184q144 0 225.5 -67.5t81.5 -190.5q0 -149 -104 -239.5t-291 -90.5q-158 0 -249 73t-91 208q0 68 36 128.5t99 102.5q-96 46 -96 174q0 53 26.5 98t71.5 70q-96 96 -96 277
q0 163 82 258.5t229 95.5q88 0 144 -33l190 52l27 -78l-137 -37q90 -93 90 -258q0 -163 -82.5 -259.5t-229.5 -96.5q-93 0 -155 36q-68 -44 -68 -108q0 -53 29 -84t84 -31zM438 1030q-101 0 -157 -68.5t-56 -195.5q0 -125 56 -197.5t157 -72.5t158 70t57 198
q0 123 -56 194.5t-159 71.5zM432 -274q135 0 211 60.5t76 168.5q0 84 -57.5 129t-165.5 45h-193h-12q-111 -87 -111 -203q0 -96 66 -148t186 -52z" />
    <glyph glyph-name="Hcircumflex" unicode="&#x124;" horiz-adv-x="1126" 
d="M680 1526l-117 203l-117 -203l-90 10l140 240h135l137 -240zM862 770v664h109v-1434h-109v676h-600v-676h-106v1434h106v-664h600z" />
    <glyph glyph-name="hcircumflex" unicode="&#x125;" horiz-adv-x="948" 
d="M621 1554l-117 203l-117 -203l-90 11l139 239h135l138 -239zM541 1118q135 0 209.5 -97t74.5 -284v-737h-100v737q0 142 -55.5 214.5t-155.5 72.5q-105 0 -177.5 -91.5t-90.5 -264.5v-668h-101v1511h101v-616q42 105 118.5 164t176.5 59z" />
    <glyph glyph-name="Hbar" unicode="&#x126;" horiz-adv-x="1126" 
d="M971 1174h65v-80h-65v-1094h-109v676h-600v-676h-106v1094h-62v80h62v260h106v-260h600v260h109v-260zM262 770h600v324h-600v-324z" />
    <glyph glyph-name="hbar" unicode="&#x127;" horiz-adv-x="948" 
d="M541 1118q135 0 209.5 -97t74.5 -284v-737h-100v737q0 142 -55.5 214.5t-155.5 72.5q-105 0 -177.5 -91.5t-90.5 -264.5v-668h-101v1237h-122v72h122v202h101v-202h227v-72h-227v-342q42 105 118.5 164t176.5 59z" />
    <glyph glyph-name="Itilde" unicode="&#x128;" horiz-adv-x="413" 
d="M61 1528l-63 10q-1 84 28.5 130t82.5 46q28 0 55 -15.5t45 -34.5t40 -34.5t40 -15.5q31 0 47.5 27.5t15.5 76.5l62 -8q3 -84 -26.5 -130t-82.5 -46q-28 0 -55 15.5t-44.5 34.5t-39.5 34.5t-41 15.5q-31 0 -48 -28.5t-16 -77.5zM258 0h-102v1434h102v-1434z" />
    <glyph glyph-name="itilde" unicode="&#x129;" horiz-adv-x="378" 
d="M43 1264l-63 10q-1 84 28 130t82 46q28 0 55 -15.5t45 -34.5t40 -34.5t40 -15.5q31 0 48 27.5t16 76.5l61 -8q3 -84 -26 -131t-82 -47q-35 0 -68 25.5t-61.5 51t-51.5 25.5q-31 0 -47.5 -28.5t-15.5 -77.5zM240 0h-101v1100h101v-1100z" />
    <glyph glyph-name="Imacron" unicode="&#x12a;" horiz-adv-x="413" 
d="M426 1583h-440v76h440v-76zM258 0h-102v1434h102v-1434z" />
    <glyph glyph-name="imacron" unicode="&#x12b;" horiz-adv-x="378" 
d="M410 1288h-441v76h441v-76zM240 0h-101v1100h101v-1100z" />
    <glyph glyph-name="Ibreve" unicode="&#x12c;" horiz-adv-x="413" 
d="M315 1724h78q0 -111 -47 -169t-139 -58q-90 0 -138.5 56.5t-48.5 170.5h80q0 -161 107 -161q108 0 108 161zM258 0h-102v1434h102v-1434z" />
    <glyph glyph-name="ibreve" unicode="&#x12d;" horiz-adv-x="378" 
d="M297 1458h78q0 -113 -47.5 -171t-139.5 -58q-90 0 -138 57t-48 172h80q0 -162 106 -162q109 0 109 162zM240 0h-101v1100h101v-1100z" />
    <glyph glyph-name="Iogonek" unicode="&#x12e;" horiz-adv-x="413" 
d="M297 -289l6 -69q-124 -25 -192 13t-68 128q0 119 125 217h-12v1434h102v-1434q-60 -45 -91.5 -97.5t-31.5 -97.5q0 -59 42.5 -83.5t119.5 -10.5z" />
    <glyph glyph-name="iogonek" unicode="&#x12f;" horiz-adv-x="378" 
d="M131 1464h107v-215h-107v215zM279 -289l6 -69q-124 -25 -192 13t-68 128q0 119 125 217h-11v1100h101v-1100q-60 -45 -91.5 -97.5t-31.5 -97.5q0 -59 42.5 -83.5t119.5 -10.5z" />
    <glyph glyph-name="Idotaccent" unicode="&#x130;" horiz-adv-x="413" 
d="M256 1532h-106v207h106v-207zM258 0h-102v1434h102v-1434z" />
    <glyph glyph-name="dotlessi" unicode="&#x131;" horiz-adv-x="378" 
d="M240 0h-101v1100h101v-1100z" />
    <glyph glyph-name="IJ" unicode="&#x132;" horiz-adv-x="1148" 
d="M258 0h-102v1434h102v-1434zM686 -18q-122 0 -233 61l22 94q97 -57 211 -57q109 0 169 78.5t60 234.5v946h-200v95h305v-1043q0 -198 -90 -303.5t-244 -105.5z" />
    <glyph glyph-name="ij" unicode="&#x133;" horiz-adv-x="774" 
d="M238 1249h-107v215h107v-215zM633 1249h-107v215h107v-215zM240 0h-101v1100h101v-1100zM342 -348l2 86h64q62 0 94.5 41.5t32.5 138.5v1182h100v-1184q0 -270 -213 -270q-46 0 -80 6z" />
    <glyph glyph-name="Jcircumflex" unicode="&#x134;" horiz-adv-x="733" 
d="M541 1526l-117 203l-117 -203l-90 10l139 240h136l137 -240zM502 1339h-201v95h305v-1043q0 -198 -90 -303.5t-244 -105.5q-122 0 -233 61l22 94q97 -57 211 -57q109 0 169.5 78.5t60.5 234.5v946z" />
    <glyph glyph-name="jcircumflex" unicode="&#x135;" horiz-adv-x="395" 
d="M264 1495l127 -260l-82 -10l-106 219l-107 -219l-82 10l127 260h123zM156 -82v1182h100v-1184q0 -270 -213 -270q-46 0 -80 6l2 86h64q62 0 94.5 41.5t32.5 138.5z" />
    <glyph glyph-name="uni0136" unicode="&#x136;" horiz-adv-x="999" 
d="M260 0h-104v1434h104v-1434zM952 0h-123l-540 721v10l495 703h123l-499 -707zM440 -416l-26 56q110 54 98 155h-82v131h156q54 -267 -146 -342z" />
    <glyph glyph-name="uni0137" unicode="&#x137;" horiz-adv-x="858" 
d="M762 1100l-402 -529l447 -571h-121l-440 563v-563h-101v1511h101v-931l393 520h123zM360 -205v131h156q54 -267 -145 -342l-27 56q110 54 98 155h-82z" />
    <glyph glyph-name="kgreenlandic" unicode="&#x138;" horiz-adv-x="858" 
d="M360 571l447 -571h-121l-440 563v-563h-101v1100h101v-520l393 520h123z" />
    <glyph glyph-name="Lacute" unicode="&#x139;" horiz-adv-x="829" 
d="M440 1735l-159 -203l-74 10l139 219zM797 0h-641v1434h106v-1340h535v-94z" />
    <glyph glyph-name="lacute" unicode="&#x13a;" horiz-adv-x="391" 
d="M385 1812l-160 -202l-73 10l139 219zM246 0h-101v1511h101v-1511z" />
    <glyph glyph-name="uni013B" unicode="&#x13b;" horiz-adv-x="829" 
d="M797 0h-641v1434h106v-1340h535v-94zM365 -416l-27 56q110 54 98 155h-82v131h156q54 -267 -145 -342z" />
    <glyph glyph-name="uni013C" unicode="&#x13c;" horiz-adv-x="391" 
d="M246 0h-101v1511h101v-1511zM129 -416l-27 56q111 54 99 155h-82v131h155q54 -267 -145 -342z" />
    <glyph glyph-name="Lcaron" unicode="&#x13d;" horiz-adv-x="829" 
d="M797 0h-641v1434h106v-1340h535v-94zM666 1100v334l88 -2l-25 -332h-63z" />
    <glyph glyph-name="lcaron" unicode="&#x13e;" horiz-adv-x="391" 
d="M246 0h-101v1511h101v-1511zM369 1178v333l88 -2l-25 -331h-63z" />
    <glyph glyph-name="Ldot" unicode="&#x13f;" horiz-adv-x="1105" 
d="M797 0h-641v1434h106v-1340h535v-94zM879 537v139h145v-139h-145z" />
    <glyph glyph-name="ldot" unicode="&#x140;" horiz-adv-x="616" 
d="M246 0h-101v1511h101v-1511zM453 385v100h104v-100h-104z" />
    <glyph glyph-name="Lslash" unicode="&#x141;" horiz-adv-x="829" 
d="M262 698v-604h535v-94h-641v645l-103 -53l-33 63l136 70v709h106v-654l119 62l31 -66z" />
    <glyph glyph-name="lslash" unicode="&#x142;" horiz-adv-x="391" 
d="M360 881l31 -66l-145 -76v-739h-101v688l-112 -57l-33 63l145 76v741h101v-690z" />
    <glyph glyph-name="Nacute" unicode="&#x143;" horiz-adv-x="1138" 
d="M760 1735l-160 -203l-74 10l140 219zM256 0h-100v1434h96l629 -1196v1196h102v-1434h-94l-633 1204v-1204z" />
    <glyph glyph-name="nacute" unicode="&#x144;" horiz-adv-x="942" 
d="M567 1501l95 -26l-150 -224l-68 11zM532 1118q137 0 212 -97t75 -284v-737h-100v737q0 142 -55.5 214.5t-155.5 72.5q-96 0 -168.5 -85.5t-99.5 -244.5v-694h-101v1100h101v-221q40 112 116 175.5t176 63.5z" />
    <glyph glyph-name="uni0145" unicode="&#x145;" horiz-adv-x="1138" 
d="M256 0h-100v1434h96l629 -1196v1196h102v-1434h-94l-633 1204v-1204zM504 -416l-27 56q110 54 98 155h-81v131h155q54 -267 -145 -342z" />
    <glyph glyph-name="uni0146" unicode="&#x146;" horiz-adv-x="942" 
d="M532 1118q137 0 212 -97t75 -284v-737h-100v737q0 142 -55.5 214.5t-155.5 72.5q-96 0 -168.5 -85.5t-99.5 -244.5v-694h-101v1100h101v-221q40 112 116 175.5t176 63.5zM414 -205v131h155q54 -267 -145 -342l-27 56q111 54 99 155h-82z" />
    <glyph glyph-name="Ncaron" unicode="&#x147;" horiz-adv-x="1138" 
d="M504 1530l-139 227l88 10l116 -194l119 194l86 -10l-137 -227h-133zM881 238v1196h102v-1434h-94l-633 1204v-1204h-100v1434h96z" />
    <glyph glyph-name="ncaron" unicode="&#x148;" horiz-adv-x="942" 
d="M426 1221l-127 262l82 12l106 -223l107 223l82 -12l-127 -262h-123zM532 1118q137 0 212 -97t75 -284v-737h-100v737q0 142 -55.5 214.5t-155.5 72.5q-96 0 -168.5 -85.5t-99.5 -244.5v-694h-101v1100h101v-221q40 112 116 175.5t176 63.5z" />
    <glyph glyph-name="Eng" unicode="&#x14a;" horiz-adv-x="1138" 
d="M881 1434h102v-1434h-2v-63q0 -281 -248 -281q-41 0 -96 25l10 92q41 -23 76 -23q158 0 158 195v71l-625 1188v-1204h-100v1434h96l629 -1196v1196z" />
    <glyph glyph-name="eng" unicode="&#x14b;" horiz-adv-x="942" 
d="M532 1118q137 0 212 -97t75 -284v-800q0 -140 -64 -210.5t-186 -70.5q-42 0 -94 25l10 92q38 -23 74 -23q160 0 160 195v792q0 142 -55.5 214.5t-155.5 72.5q-96 0 -168.5 -85.5t-99.5 -244.5v-694h-101v1100h101v-221q40 112 116 175.5t176 63.5z" />
    <glyph glyph-name="Omacron" unicode="&#x14c;" horiz-adv-x="1167" 
d="M803 1583h-441v76h441v-76zM584 -18q-222 0 -352 191.5t-130 543.5q0 343 129 539t353 196q222 0 351.5 -191.5t129.5 -543.5q0 -343 -128.5 -539t-352.5 -196zM584 82q171 0 269.5 163.5t98.5 471.5q0 299 -97.5 467t-270.5 168q-171 0 -270 -164t-99 -471
q0 -299 98 -467t271 -168z" />
    <glyph glyph-name="omacron" unicode="&#x14d;" 
d="M694 1288h-440v76h440v-76zM473 -18q-179 0 -283 150.5t-104 418.5q0 261 104 414t283 153t285 -150t106 -415q0 -263 -104.5 -417t-286.5 -154zM475 78q131 0 209 125t78 348q0 217 -78 345t-211 128q-131 0 -209 -125t-78 -348q0 -217 78 -345t211 -128z" />
    <glyph glyph-name="Obreve" unicode="&#x14e;" horiz-adv-x="1167" 
d="M582 1497q-90 0 -138.5 56.5t-48.5 170.5h80q0 -161 107 -161q108 0 108 161h78q0 -111 -47 -169t-139 -58zM584 1452q222 0 351.5 -191.5t129.5 -543.5q0 -343 -128.5 -539t-352.5 -196q-222 0 -352 191.5t-130 543.5q0 343 129 539t353 196zM584 82q171 0 269.5 163.5
t98.5 471.5q0 299 -97.5 467t-270.5 168q-171 0 -270 -164t-99 -471q0 -299 98 -467t271 -168z" />
    <glyph glyph-name="obreve" unicode="&#x14f;" 
d="M475 1229q-90 0 -138 57t-48 172h80q0 -162 106 -162q109 0 109 162h78q0 -113 -47.5 -171t-139.5 -58zM473 1118q179 0 285 -150t106 -415q0 -263 -104.5 -417t-286.5 -154q-179 0 -283 150.5t-104 418.5q0 261 104 414t283 153zM475 78q131 0 209 125t78 348
q0 217 -78 345t-211 128q-131 0 -209 -125t-78 -348q0 -217 78 -345t211 -128z" />
    <glyph glyph-name="Ohungarumlaut" unicode="&#x150;" horiz-adv-x="1167" 
d="M627 1735l-154 -203l-72 10l131 219zM858 1735l-153 -203l-72 10l131 219zM584 -18q-222 0 -352 191.5t-130 543.5q0 343 129 539t353 196q222 0 351.5 -191.5t129.5 -543.5q0 -343 -128.5 -539t-352.5 -196zM584 82q171 0 269.5 163.5t98.5 471.5q0 299 -97.5 467
t-270.5 168q-171 0 -270 -164t-99 -471q0 -299 98 -467t271 -168z" />
    <glyph glyph-name="ohungarumlaut" unicode="&#x151;" 
d="M522 1475l-141 -224l-68 11l115 239zM762 1475l-141 -224l-68 11l115 239zM473 -18q-179 0 -283 150.5t-104 418.5q0 261 104 414t283 153t285 -150t106 -415q0 -263 -104.5 -417t-286.5 -154zM475 78q131 0 209 125t78 348q0 217 -78 345t-211 128q-131 0 -209 -125
t-78 -348q0 -217 78 -345t211 -128z" />
    <glyph glyph-name="OE" unicode="&#x152;" horiz-adv-x="1652" 
d="M961 684v-590h608v-94h-711v43q-111 -63 -252 -63q-224 0 -364 193.5t-140 541.5q0 335 135 535t367 200q132 0 254 -68v52h696v-95h-593v-561h520v-94h-520zM608 80q134 0 250 78v1114q-63 42 -120.5 61t-131.5 19q-176 0 -283.5 -164.5t-107.5 -470.5
q0 -293 105.5 -465t287.5 -172z" />
    <glyph glyph-name="oe" unicode="&#x153;" horiz-adv-x="1568" 
d="M1466 516h-600q9 -210 87.5 -325t211.5 -115t242 74l20 -91q-115 -77 -272 -77q-118 0 -206.5 66.5t-135.5 191.5q-46 -123 -133.5 -190.5t-206.5 -67.5q-179 0 -283 150.5t-104 418.5q0 261 104 414t283 153q117 0 205 -66t135 -190q47 122 130.5 189t197.5 67
q158 0 251 -129t93 -340q0 -59 -19 -133zM475 78q131 0 209 125t78 348q0 217 -78 345t-211 128q-131 0 -209 -125t-78 -348q0 -217 78 -345t211 -128zM866 602h516v10q8 185 -55.5 298.5t-185.5 113.5q-120 0 -194 -110.5t-81 -311.5z" />
    <glyph glyph-name="Racute" unicode="&#x154;" horiz-adv-x="1001" 
d="M598 1761l94 -26l-160 -203l-73 10zM618 563l304 -563h-117l-295 545q-20 -2 -59 -2h-193v-543h-102v1434h297q220 0 342.5 -114.5t122.5 -330.5q0 -167 -76.5 -276.5t-223.5 -149.5zM258 637h191q173 0 268.5 90t95.5 262q0 165 -93.5 257.5t-268.5 92.5h-193v-702z" />
    <glyph glyph-name="racute" unicode="&#x155;" horiz-adv-x="598" 
d="M358 1501l95 -26l-150 -224l-67 11zM496 1116q31 0 73 -10l-10 -111q-34 11 -76 11q-120 0 -181.5 -114.5t-61.5 -330.5v-561h-101v1100h101v-207q68 223 256 223z" />
    <glyph glyph-name="uni0156" unicode="&#x156;" horiz-adv-x="1001" 
d="M618 563l304 -563h-117l-295 545q-20 -2 -59 -2h-193v-543h-102v1434h297q220 0 342.5 -114.5t122.5 -330.5q0 -167 -76.5 -276.5t-223.5 -149.5zM258 637h191q173 0 268.5 90t95.5 262q0 165 -93.5 257.5t-268.5 92.5h-193v-702zM424 -205v131h156q54 -267 -146 -342
l-26 56q110 54 98 155h-82z" />
    <glyph glyph-name="uni0157" unicode="&#x157;" horiz-adv-x="598" 
d="M496 1116q31 0 73 -10l-10 -111q-34 11 -76 11q-120 0 -181.5 -114.5t-61.5 -330.5v-561h-101v1100h101v-207q68 223 256 223zM113 -205v131h155q54 -267 -145 -342l-27 56q111 54 99 155h-82z" />
    <glyph glyph-name="Rcaron" unicode="&#x158;" horiz-adv-x="1001" 
d="M434 1530l-139 227l88 10l117 -194l118 194l87 -10l-138 -227h-133zM618 563l304 -563h-117l-295 545q-20 -2 -59 -2h-193v-543h-102v1434h297q220 0 342.5 -114.5t122.5 -330.5q0 -167 -76.5 -276.5t-223.5 -149.5zM258 637h191q173 0 268.5 90t95.5 262
q0 165 -93.5 257.5t-268.5 92.5h-193v-702z" />
    <glyph glyph-name="rcaron" unicode="&#x159;" horiz-adv-x="598" 
d="M217 1221l-127 262l82 12l107 -223l106 223l82 -12l-127 -262h-123zM496 1116q31 0 73 -10l-10 -111q-34 11 -76 11q-120 0 -181.5 -114.5t-61.5 -330.5v-561h-101v1100h101v-207q68 223 256 223z" />
    <glyph glyph-name="Sacute" unicode="&#x15a;" horiz-adv-x="897" 
d="M647 1735l-160 -203l-73 10l139 219zM410 -20q-181 0 -340 90l16 100q153 -90 317 -90q136 0 219 66t83 196q0 68 -21 122t-65 97t-88.5 72.5t-114.5 66.5q-151 79 -235.5 175t-84.5 227q0 164 102 256t269 92q152 0 301 -76l-16 -102q-138 78 -275 78q-124 0 -198 -62.5
t-74 -185.5q0 -101 68.5 -173.5t205.5 -148.5q77 -41 131 -79t103.5 -90.5t74.5 -119.5t25 -149q0 -169 -110.5 -265.5t-292.5 -96.5z" />
    <glyph glyph-name="sacute" unicode="&#x15b;" horiz-adv-x="737" 
d="M545 1475l-150 -224l-67 11l123 239zM346 -18q-136 0 -283 67l19 98q129 -71 262 -71q100 0 162 52.5t61 141.5q0 90 -55 149t-172 116q-126 56 -188 128t-62 175q0 129 83.5 204.5t221.5 75.5q115 0 236 -59l-17 -96q-104 61 -217 61q-95 0 -149.5 -48.5t-54.5 -131.5
q0 -77 52 -133t161 -109q135 -65 199.5 -142.5t64.5 -189.5q0 -130 -88.5 -209t-235.5 -79z" />
    <glyph glyph-name="Scircumflex" unicode="&#x15c;" horiz-adv-x="897" 
d="M575 1526l-116 203l-117 -203l-90 10l139 240h135l138 -240zM479 780q77 -41 131 -79t103.5 -90.5t74.5 -119.5t25 -149q0 -169 -110.5 -265.5t-292.5 -96.5q-181 0 -340 90l16 100q153 -90 317 -90q136 0 219 66t83 196q0 68 -21 122t-65 97t-88.5 72.5t-114.5 66.5
q-151 79 -235.5 175t-84.5 227q0 164 102 256t269 92q152 0 301 -76l-16 -102q-138 78 -275 78q-124 0 -198 -62.5t-74 -185.5q0 -101 68.5 -173.5t205.5 -148.5z" />
    <glyph glyph-name="scircumflex" unicode="&#x15d;" horiz-adv-x="737" 
d="M473 1225l-106 219l-107 -219l-82 10l127 260h123l127 -260zM406 602q135 -65 199.5 -142.5t64.5 -189.5q0 -130 -88.5 -209t-235.5 -79q-136 0 -283 67l19 98q129 -71 262 -71q100 0 162 52.5t61 141.5q0 90 -55 149t-172 116q-126 56 -188 128t-62 175
q0 129 83.5 204.5t221.5 75.5q115 0 236 -59l-17 -96q-104 61 -217 61q-95 0 -149.5 -48.5t-54.5 -131.5q0 -77 52 -133t161 -109z" />
    <glyph glyph-name="Scedilla" unicode="&#x15e;" horiz-adv-x="897" 
d="M813 342q0 -154 -92.5 -248.5t-247.5 -109.5l-18 -64q72 -8 115.5 -45t43.5 -94q0 -62 -51.5 -102.5t-146.5 -40.5q-66 0 -125 18l16 61q40 -16 103 -16q57 0 86.5 25t29.5 61q0 44 -40.5 70.5t-112.5 27.5l26 95q-177 3 -329 90l16 100q153 -90 317 -90q136 0 219 66
t83 196q0 68 -21 122t-65 97t-88.5 72.5t-114.5 66.5q-151 79 -235.5 175t-84.5 227q0 164 102 256t269 92q152 0 301 -76l-16 -102q-138 78 -275 78q-124 0 -198 -62.5t-74 -185.5q0 -101 68.5 -173.5t205.5 -148.5q77 -41 131 -79t103.5 -90.5t74.5 -119.5t25 -149z" />
    <glyph glyph-name="scedilla" unicode="&#x15f;" horiz-adv-x="737" 
d="M670 270q0 -117 -72 -193t-195 -91l-20 -66q73 -8 116.5 -45t43.5 -94q0 -62 -51.5 -102.5t-147.5 -40.5q-66 0 -125 18l17 61q40 -16 102 -16q57 0 87 25t30 61q0 44 -41 70.5t-113 27.5l27 97q-133 6 -265 67l19 98q129 -71 262 -71q100 0 162 52.5t61 141.5
q0 90 -55 149t-172 116q-126 56 -188 128t-62 175q0 129 83.5 204.5t221.5 75.5q115 0 236 -59l-17 -96q-104 61 -217 61q-95 0 -149.5 -48.5t-54.5 -131.5q0 -77 52 -133t161 -109q135 -65 199.5 -142.5t64.5 -189.5z" />
    <glyph glyph-name="Scaron" unicode="&#x160;" horiz-adv-x="897" 
d="M391 1530l-139 227l88 10l117 -194l118 194l87 -10l-138 -227h-133zM479 780q77 -41 131 -79t103.5 -90.5t74.5 -119.5t25 -149q0 -169 -110.5 -265.5t-292.5 -96.5q-181 0 -340 90l16 100q153 -90 317 -90q136 0 219 66t83 196q0 68 -21 122t-65 97t-88.5 72.5
t-114.5 66.5q-151 79 -235.5 175t-84.5 227q0 164 102 256t269 92q152 0 301 -76l-16 -102q-138 78 -275 78q-124 0 -198 -62.5t-74 -185.5q0 -101 68.5 -173.5t205.5 -148.5z" />
    <glyph glyph-name="scaron" unicode="&#x161;" horiz-adv-x="737" 
d="M307 1221l-127 262l82 12l107 -223l106 223l82 -12l-127 -262h-123zM406 602q135 -65 199.5 -142.5t64.5 -189.5q0 -130 -88.5 -209t-235.5 -79q-136 0 -283 67l19 98q129 -71 262 -71q100 0 162 52.5t61 141.5q0 90 -55 149t-172 116q-126 56 -188 128t-62 175
q0 129 83.5 204.5t221.5 75.5q115 0 236 -59l-17 -96q-104 61 -217 61q-95 0 -149.5 -48.5t-54.5 -131.5q0 -77 52 -133t161 -109z" />
    <glyph glyph-name="uni0162" unicode="&#x162;" horiz-adv-x="841" 
d="M473 1339v-1339h-12l-25 -80q73 -8 116.5 -45t43.5 -94q0 -62 -51.5 -102.5t-147.5 -40.5q-66 0 -125 18l17 61q40 -16 102 -16q57 0 87 25t30 61q0 44 -41 70.5t-113 27.5l33 115h-18v1339h-336v95h774v-95h-334z" />
    <glyph glyph-name="uni0163" unicode="&#x163;" horiz-adv-x="638" 
d="M408 -18l-21 -68q73 -8 116.5 -45t43.5 -94q0 -62 -52 -103t-147 -41q-62 0 -125 19l17 61q40 -16 102 -16q57 0 87 25t30 61q0 44 -41 70.5t-113 27.5l31 111q-72 19 -111 82.5t-39 165.5v770h-116v61l24 35l144 213h49v-217h266v-92h-266v-754q0 -79 34 -128.5
t93 -49.5q82 0 143 39l21 -88q-70 -42 -170 -45z" />
    <glyph glyph-name="Tcaron" unicode="&#x164;" horiz-adv-x="841" 
d="M354 1530l-139 227l88 10l117 -194l119 194l86 -10l-138 -227h-133zM33 1434h774v-95h-334v-1339h-104v1339h-336v95z" />
    <glyph glyph-name="tcaron" unicode="&#x165;" horiz-adv-x="638" 
d="M444 1204v334l88 -2l-24 -332h-64zM401 -18q-103 0 -159 66t-56 190v770h-116v61l24 35l144 213h49v-217h266v-92h-266v-754q0 -79 34 -128.5t93 -49.5q82 0 143 39l21 -88q-79 -45 -177 -45z" />
    <glyph glyph-name="Tbar" unicode="&#x166;" horiz-adv-x="841" 
d="M807 1434v-95h-334v-581h203v-76h-203v-682h-104v682h-201v76h201v581h-336v95h774z" />
    <glyph glyph-name="tbar" unicode="&#x167;" horiz-adv-x="638" 
d="M557 115l21 -88q-79 -45 -177 -45q-103 0 -159 66t-56 190v329h-174v72h174v369h-116v61l24 35l144 213h49v-217h266v-92h-266v-369h176v-72h-176v-313q0 -79 34 -128.5t93 -49.5q82 0 143 39z" />
    <glyph glyph-name="Utilde" unicode="&#x168;" horiz-adv-x="1056" 
d="M385 1528l-63 10q-1 84 28 130t82 46q28 0 55 -15.5t45 -34.5t40 -34.5t40 -15.5q31 0 48 27.5t16 76.5l61 -8q3 -84 -26 -130t-82 -46q-28 0 -55 15.5t-44.5 34.5t-39.5 34.5t-41 15.5q-31 0 -48 -28.5t-16 -77.5zM528 -18q-186 0 -293.5 117t-107.5 317v1018h104v-1016
q0 -159 80 -250.5t217 -91.5t218 91.5t81 250.5v1016h103v-1018q0 -200 -107.5 -317t-294.5 -117z" />
    <glyph glyph-name="utilde" unicode="&#x169;" horiz-adv-x="942" 
d="M307 1264l-63 10q-1 84 28 130t82 46q35 0 68.5 -25t62 -50t50.5 -25q31 0 47.5 27.5t15.5 76.5l61 -8q3 -84 -26 -131t-82 -47q-28 0 -55 16t-44.5 35t-39.5 35t-41 16q-31 0 -48 -28.5t-16 -77.5zM702 406v694h101v-1100h-101v221q-40 -112 -116 -175.5t-176 -63.5
q-137 0 -212 96.5t-75 283.5v738h100v-738q0 -142 55.5 -214t155.5 -72q96 0 168.5 85.5t99.5 244.5z" />
    <glyph glyph-name="Umacron" unicode="&#x16a;" horiz-adv-x="1056" 
d="M750 1583h-441v76h441v-76zM528 -18q-186 0 -293.5 117t-107.5 317v1018h104v-1016q0 -159 80 -250.5t217 -91.5t218 91.5t81 250.5v1016h103v-1018q0 -200 -107.5 -317t-294.5 -117z" />
    <glyph glyph-name="umacron" unicode="&#x16b;" horiz-adv-x="942" 
d="M231 1364h441v-76h-441v76zM702 406v694h101v-1100h-101v221q-40 -112 -116 -175.5t-176 -63.5q-137 0 -212 96.5t-75 283.5v738h100v-738q0 -142 55.5 -214t155.5 -72q96 0 168.5 85.5t99.5 244.5z" />
    <glyph glyph-name="Ubreve" unicode="&#x16c;" horiz-adv-x="1056" 
d="M528 1497q-186 0 -186 227h80q0 -161 106 -161q109 0 109 161h78q0 -111 -47.5 -169t-139.5 -58zM827 418v1016h103v-1018q0 -200 -107.5 -317t-294.5 -117q-186 0 -293.5 117t-107.5 317v1018h104v-1016q0 -159 80 -250.5t217 -91.5t218 91.5t81 250.5z" />
    <glyph glyph-name="ubreve" unicode="&#x16d;" horiz-adv-x="942" 
d="M453 1229q-90 0 -138.5 57t-48.5 172h80q0 -162 107 -162q108 0 108 162h78q0 -229 -186 -229zM702 406v694h101v-1100h-101v221q-40 -112 -116 -175.5t-176 -63.5q-137 0 -212 96.5t-75 283.5v738h100v-738q0 -142 55.5 -214t155.5 -72q96 0 168.5 85.5t99.5 244.5z" />
    <glyph glyph-name="Uring" unicode="&#x16e;" horiz-adv-x="1056" 
d="M530 1446q-73 0 -118 49t-45 119q0 68 45 117t118 49t118.5 -49t45.5 -117q0 -70 -45.5 -119t-118.5 -49zM530 1509q45 0 72 31t27 74q0 42 -27 73t-72 31t-71.5 -31t-26.5 -73q0 -44 26.5 -74.5t71.5 -30.5zM528 -18q-186 0 -293.5 117t-107.5 317v1018h104v-1016
q0 -159 80 -250.5t217 -91.5t218 91.5t81 250.5v1016h103v-1018q0 -200 -107.5 -317t-294.5 -117z" />
    <glyph glyph-name="uring" unicode="&#x16f;" horiz-adv-x="942" 
d="M453 1200q-73 0 -118.5 49t-45.5 117q0 70 45.5 119t118.5 49t118 -49t45 -119q0 -68 -45 -117t-118 -49zM453 1473q-45 0 -72 -31.5t-27 -75.5q0 -42 27 -72t72 -30t71.5 30t26.5 72q0 44 -26.5 75.5t-71.5 31.5zM702 406v694h101v-1100h-101v221q-40 -112 -116 -175.5
t-176 -63.5q-137 0 -212 96.5t-75 283.5v738h100v-738q0 -142 55.5 -214t155.5 -72q96 0 168.5 85.5t99.5 244.5z" />
    <glyph glyph-name="Uhungarumlaut" unicode="&#x170;" horiz-adv-x="1056" 
d="M571 1735l-153 -203l-72 10l131 219zM803 1735l-154 -203l-71 10l131 219zM528 -18q-186 0 -293.5 117t-107.5 317v1018h104v-1016q0 -159 80 -250.5t217 -91.5t218 91.5t81 250.5v1016h103v-1018q0 -200 -107.5 -317t-294.5 -117z" />
    <glyph glyph-name="uhungarumlaut" unicode="&#x171;" horiz-adv-x="942" 
d="M406 1501l94 -26l-142 -224l-67 11zM645 1501l94 -26l-141 -224l-68 11zM702 406v694h101v-1100h-101v221q-40 -112 -116 -175.5t-176 -63.5q-137 0 -212 96.5t-75 283.5v738h100v-738q0 -142 55.5 -214t155.5 -72q96 0 168.5 85.5t99.5 244.5z" />
    <glyph glyph-name="Uogonek" unicode="&#x172;" horiz-adv-x="1056" 
d="M750 39q-82 -82 -82 -160q0 -60 42 -84t119 -10l7 -70q-123 -25 -192 13.5t-69 128.5q0 68 46 133q-39 -8 -93 -8q-186 0 -293.5 117t-107.5 317v1018h104v-1016q0 -159 80 -250.5t217 -91.5t218 91.5t81 250.5v1016h103v-1018q0 -130 -46.5 -227t-133.5 -150z" />
    <glyph glyph-name="uogonek" unicode="&#x173;" horiz-adv-x="942" 
d="M842 -289l6 -69q-124 -25 -192 13t-68 128q0 119 125 217h-11v221q-40 -112 -116 -175.5t-176 -63.5q-137 0 -212 96.5t-75 283.5v738h100v-738q0 -142 55.5 -214t155.5 -72q96 0 168.5 85.5t99.5 244.5v694h101v-1100q-60 -45 -91.5 -97.5t-31.5 -97.5q0 -59 42.5 -83.5
t119.5 -10.5z" />
    <glyph glyph-name="Wcircumflex" unicode="&#x174;" horiz-adv-x="1497" 
d="M866 1526l-116 203l-117 -203l-90 10l139 240h135l137 -240zM1081 174l265 1260h106l-309 -1434h-121l-272 1169l-273 -1169h-121l-309 1434h109l264 -1260l282 1260h95z" />
    <glyph glyph-name="wcircumflex" unicode="&#x175;" horiz-adv-x="1298" 
d="M758 1225l-107 219l-106 -219l-82 10l127 260h123l127 -260zM924 158l229 942h104l-274 -1100h-113l-221 891l-221 -891h-111l-276 1100h106l228 -942l229 942h90z" />
    <glyph glyph-name="Ycircumflex" unicode="&#x176;" horiz-adv-x="960" 
d="M598 1526l-117 203l-116 -203l-91 10l140 240h135l137 -240zM815 1434h109l-392 -990v-444h-104v444l-391 990h110l334 -846z" />
    <glyph glyph-name="ycircumflex" unicode="&#x177;" horiz-adv-x="872" 
d="M541 1225l-107 219l-106 -219l-82 10l127 260h123l127 -260zM436 133l293 967h105l-342 -1100l-109 -350h-107l107 342l-344 1108h104l291 -967h2z" />
    <glyph glyph-name="Ydieresis" unicode="&#x178;" horiz-adv-x="960" 
d="M311 1724h101v-204h-101v204zM549 1724h100v-204h-100v204zM815 1434h109l-392 -990v-444h-104v444l-391 990h110l334 -846z" />
    <glyph glyph-name="Zacute" unicode="&#x179;" horiz-adv-x="884" 
d="M633 1735l-160 -203l-74 10l140 219zM819 0h-758v68l631 1271h-616v95h745v-66l-633 -1274h631v-94z" />
    <glyph glyph-name="zacute" unicode="&#x17a;" horiz-adv-x="765" 
d="M559 1475l-149 -224l-68 11l123 239zM705 0h-646v63l508 945h-495v92h622v-62l-508 -946h519v-92z" />
    <glyph glyph-name="Zdotaccent" unicode="&#x17b;" horiz-adv-x="884" 
d="M492 1532h-107v207h107v-207zM819 0h-758v68l631 1271h-616v95h745v-66l-633 -1274h631v-94z" />
    <glyph glyph-name="zdotaccent" unicode="&#x17c;" horiz-adv-x="765" 
d="M432 1249h-106v215h106v-215zM705 0h-646v63l508 945h-495v92h622v-62l-508 -946h519v-92z" />
    <glyph glyph-name="Zcaron" unicode="&#x17d;" horiz-adv-x="884" 
d="M377 1530l-139 227l88 10l116 -194l119 194l86 -10l-137 -227h-133zM76 1434h745v-66l-633 -1274h631v-94h-758v68l631 1271h-616v95z" />
    <glyph glyph-name="zcaron" unicode="&#x17e;" horiz-adv-x="765" 
d="M324 1221l-127 262l82 12l106 -223l107 223l81 -12l-127 -262h-122zM694 1038l-508 -946h519v-92h-646v63l508 945h-495v92h622v-62z" />
    <glyph glyph-name="uni018F" unicode="&#x18f;" horiz-adv-x="1140" 
d="M524 1452q232 0 373 -195.5t141 -539.5q0 -336 -132.5 -535.5t-358.5 -199.5q-208 0 -326.5 184.5t-118.5 519.5q0 24 7 55h823q-5 282 -114 447.5t-298 165.5q-190 0 -323 -121l-37 88q147 131 364 131zM549 78q163 0 265.5 152t115.5 419h-723q9 -267 96 -419t246 -152
z" />
    <glyph glyph-name="florin" unicode="&#x192;" horiz-adv-x="987" 
d="M768 1454q-74 0 -116.5 -67t-61.5 -218l-8 -69h217v-80h-226l-73 -662q-24 -196 -91 -285t-182 -89q-75 0 -141 34l29 84q48 -28 106 -28q72 0 115 66.5t63 221.5l74 658h-182v80h190l8 74q25 193 90 281.5t181 88.5q77 0 141 -35l-29 -84q-53 29 -104 29z" />
    <glyph glyph-name="uni019D" unicode="&#x19d;" horiz-adv-x="1138" 
d="M881 238v1196h102v-1434h-94l-633 1204v-710q2 -43 2 -170v-361q0 -280 -254 -280q-43 0 -96 24l10 92q39 -22 76 -22q162 0 162 194v1463h96z" />
    <glyph glyph-name="Ohorn" unicode="&#x1a0;" horiz-adv-x="1167" 
d="M889 1321q176 -195 176 -604q0 -343 -128.5 -539t-352.5 -196q-222 0 -352 191.5t-130 543.5q0 343 129 539t353 196q124 0 225 -63q29 -3 47.5 3.5t34 29t14 66.5t-11.5 118l92 4q25 -127 -2 -202t-94 -87zM584 82q171 0 269.5 163.5t98.5 471.5q0 299 -97.5 467
t-270.5 168q-171 0 -270 -164t-99 -471q0 -299 98 -467t271 -168z" />
    <glyph glyph-name="ohorn" unicode="&#x1a1;" 
d="M741 991q123 -151 123 -438q0 -263 -104.5 -417t-286.5 -154q-179 0 -283 150.5t-104 418.5q0 261 104 414t283 153q114 0 197 -59q27 -2 44 5.5t30.5 31t12 67t-11.5 113.5l93 4q25 -126 -2.5 -201.5t-94.5 -87.5zM475 78q131 0 209 125t78 348q0 217 -78 345t-211 128
q-131 0 -209 -125t-78 -348q0 -217 78 -345t211 -128z" />
    <glyph glyph-name="Uhorn" unicode="&#x1af;" horiz-adv-x="1056" 
d="M977 1651l92 4q30 -146 -9.5 -221.5t-129.5 -69.5v-948q0 -200 -107.5 -317t-294.5 -117q-186 0 -293.5 117t-107.5 317v1018h104v-1016q0 -159 80 -250.5t217 -91.5t218 91.5t81 250.5v1016h97q44 5 57.5 48.5t-4.5 168.5z" />
    <glyph glyph-name="uhorn" unicode="&#x1b0;" horiz-adv-x="942" 
d="M852 1317l92 4q30 -148 -10 -223.5t-131 -67.5v-1030h-101v221q-40 -112 -116 -175.5t-176 -63.5q-137 0 -212 96.5t-75 283.5v738h100v-738q0 -142 55.5 -214t155.5 -72q96 0 168.5 85.5t99.5 244.5v694h97q44 5 57.5 48.5t-4.5 168.5z" />
    <glyph glyph-name="uni01CD" unicode="&#x1cd;" horiz-adv-x="1075" 
d="M469 1530l-139 227l88 10l117 -194l118 194l86 -10l-137 -227h-133zM1028 0h-108l-103 348h-559l-102 -348h-109l426 1434h127zM537 1290l-248 -841h497z" />
    <glyph glyph-name="uni01CE" unicode="&#x1ce;" horiz-adv-x="847" 
d="M344 1227l-127 262l82 12l107 -223l106 223l82 -12l-127 -262h-123zM391 1118q168 0 250 -94.5t82 -294.5v-729h-98v231q-37 -108 -116 -178.5t-190 -70.5q-118 0 -188 88t-70 243q0 158 76.5 244t227.5 86q139 0 258 -22v110q0 155 -60.5 225t-181.5 70q-122 0 -229 -57
l-15 92q114 57 254 57zM350 76q117 0 191 106.5t82 253.5v103q-107 22 -238 22q-227 0 -227 -244q0 -116 51 -178.5t141 -62.5z" />
    <glyph glyph-name="uni01CF" unicode="&#x1cf;" horiz-adv-x="413" 
d="M205 1573l119 194l86 -10l-138 -227h-133l-139 227l88 10zM258 0h-102v1434h102v-1434z" />
    <glyph glyph-name="uni01D0" unicode="&#x1d0;" horiz-adv-x="378" 
d="M188 1272l107 223l82 -12l-127 -262h-123l-127 262l82 12zM240 0h-101v1100h101v-1100z" />
    <glyph glyph-name="uni01D1" unicode="&#x1d1;" horiz-adv-x="1167" 
d="M516 1530l-139 227l88 10l117 -194l118 194l86 -10l-137 -227h-133zM584 1452q222 0 351.5 -191.5t129.5 -543.5q0 -343 -128.5 -539t-352.5 -196q-222 0 -352 191.5t-130 543.5q0 343 129 539t353 196zM584 82q171 0 269.5 163.5t98.5 471.5q0 299 -97.5 467t-270.5 168
q-171 0 -270 -164t-99 -471q0 -299 98 -467t271 -168z" />
    <glyph glyph-name="uni01D2" unicode="&#x1d2;" 
d="M412 1221l-127 262l82 12l106 -223l107 223l82 -12l-127 -262h-123zM473 1118q179 0 285 -150t106 -415q0 -263 -104.5 -417t-286.5 -154q-179 0 -283 150.5t-104 418.5q0 261 104 414t283 153zM475 78q131 0 209 125t78 348q0 217 -78 345t-211 128q-131 0 -209 -125
t-78 -348q0 -217 78 -345t211 -128z" />
    <glyph glyph-name="uni01D3" unicode="&#x1d3;" horiz-adv-x="1056" 
d="M463 1530l-139 227l88 10l116 -194l119 194l86 -10l-137 -227h-133zM827 418v1016h103v-1018q0 -200 -107.5 -317t-294.5 -117q-186 0 -293.5 117t-107.5 317v1018h104v-1016q0 -159 80 -250.5t217 -91.5t218 91.5t81 250.5z" />
    <glyph glyph-name="uni01D4" unicode="&#x1d4;" horiz-adv-x="942" 
d="M391 1221l-127 262l82 12l107 -223l106 223l82 -12l-127 -262h-123zM702 406v694h101v-1100h-101v221q-40 -112 -116 -175.5t-176 -63.5q-137 0 -212 96.5t-75 283.5v738h100v-738q0 -142 55.5 -214t155.5 -72q96 0 168.5 85.5t99.5 244.5z" />
    <glyph glyph-name="uni01D5" unicode="&#x1d5;" horiz-adv-x="1056" 
d="M752 1839h-441v76h441v-76zM461 1520h-101v204h101v-204zM698 1520h-100v204h100v-204zM528 -18q-186 0 -293.5 117t-107.5 317v1018h104v-1016q0 -159 80 -250.5t217 -91.5t218 91.5t81 250.5v1016h103v-1018q0 -200 -107.5 -317t-294.5 -117z" />
    <glyph glyph-name="uni01D6" unicode="&#x1d6;" horiz-adv-x="942" 
d="M231 1655h441v-76h-441v76zM377 1464v-213h-80v213h80zM604 1464v-213h-78v213h78zM702 406v694h101v-1100h-101v221q-40 -112 -116 -175.5t-176 -63.5q-137 0 -212 96.5t-75 283.5v738h100v-738q0 -142 55.5 -214t155.5 -72q96 0 168.5 85.5t99.5 244.5z" />
    <glyph glyph-name="uni01D7" unicode="&#x1d7;" horiz-adv-x="1056" 
d="M723 1991l-160 -203l-74 10l140 219zM461 1520h-101v204h101v-204zM698 1520h-100v204h100v-204zM528 -18q-186 0 -293.5 117t-107.5 317v1018h104v-1016q0 -159 80 -250.5t217 -91.5t218 91.5t81 250.5v1016h103v-1018q0 -200 -107.5 -317t-294.5 -117z" />
    <glyph glyph-name="uni01D8" unicode="&#x1d8;" horiz-adv-x="942" 
d="M532 1792l95 -27l-150 -223l-67 10zM297 1464h80v-213h-80v213zM604 1464v-213h-78v213h78zM702 406v694h101v-1100h-101v221q-40 -112 -116 -175.5t-176 -63.5q-137 0 -212 96.5t-75 283.5v738h100v-738q0 -142 55.5 -214t155.5 -72q96 0 168.5 85.5t99.5 244.5z" />
    <glyph glyph-name="uni01D9" unicode="&#x1d9;" horiz-adv-x="1056" 
d="M465 1786l-139 227l88 10l116 -194l119 194l86 -10l-137 -227h-133zM461 1724v-204h-101v204h101zM698 1520h-100v204h100v-204zM827 418v1016h103v-1018q0 -200 -107.5 -317t-294.5 -117q-186 0 -293.5 117t-107.5 317v1018h104v-1016q0 -159 80 -250.5t217 -91.5
t218 91.5t81 250.5z" />
    <glyph glyph-name="uni01DA" unicode="&#x1da;" horiz-adv-x="942" 
d="M391 1511l-127 263l82 12l107 -223l106 223l82 -12l-127 -263h-123zM377 1464v-213h-80v213h80zM604 1464v-213h-78v213h78zM702 406v694h101v-1100h-101v221q-40 -112 -116 -175.5t-176 -63.5q-137 0 -212 96.5t-75 283.5v738h100v-738q0 -142 55.5 -214t155.5 -72
q96 0 168.5 85.5t99.5 244.5z" />
    <glyph glyph-name="uni01DB" unicode="&#x1db;" horiz-adv-x="1056" 
d="M575 1798l-71 -10l-162 203l94 26zM461 1520h-101v204h101v-204zM698 1520h-100v204h100v-204zM528 -18q-186 0 -293.5 117t-107.5 317v1018h104v-1016q0 -159 80 -250.5t217 -91.5t218 91.5t81 250.5v1016h103v-1018q0 -200 -107.5 -317t-294.5 -117z" />
    <glyph glyph-name="Gcaron" unicode="&#x1e6;" horiz-adv-x="1069" 
d="M541 1530l-140 227l88 10l117 -194l119 194l86 -10l-137 -227h-133zM694 633v94h267v-606q-168 -139 -377 -139q-224 0 -353 191t-129 542q0 354 135 545.5t369 191.5q166 0 305 -90l-26 -96q-131 88 -275 88q-189 0 -292 -163t-103 -474q0 -308 98.5 -472.5
t274.5 -164.5q153 0 270 94v459h-164z" />
    <glyph glyph-name="gcaron" unicode="&#x1e7;" horiz-adv-x="864" 
d="M385 1221l-127 262l82 12l106 -223l107 223l82 -12l-127 -262h-123zM330 221h184q144 0 225.5 -67.5t81.5 -190.5q0 -149 -104 -239.5t-291 -90.5q-158 0 -249 73t-91 208q0 68 36 128.5t99 102.5q-96 46 -96 174q0 53 26.5 98t71.5 70q-96 96 -96 277q0 163 82 258.5
t229 95.5q88 0 144 -33l190 52l27 -78l-137 -37q90 -93 90 -258q0 -163 -82.5 -259.5t-229.5 -96.5q-93 0 -155 36q-68 -44 -68 -108q0 -53 29 -84t84 -31zM438 1030q-101 0 -157 -68.5t-56 -195.5q0 -125 56 -197.5t157 -72.5t158 70t57 198q0 123 -56 194.5t-159 71.5z
M432 -274q135 0 211 60.5t76 168.5q0 84 -57.5 129t-165.5 45h-193h-12q-111 -87 -111 -203q0 -96 66 -148t186 -52z" />
    <glyph glyph-name="uni01EA" unicode="&#x1ea;" horiz-adv-x="1167" 
d="M788 35q-90 -84 -90 -168q0 -59 42.5 -83.5t119.5 -10.5l6 -70q-124 -25 -192 13t-68 128q0 76 53 144q-37 -6 -75 -6q-222 0 -352 191.5t-130 543.5q0 343 129 539t353 196q222 0 351.5 -191.5t129.5 -543.5q0 -254 -72 -430.5t-205 -251.5zM215 717q0 -299 98 -467
t271 -168q171 0 269.5 163.5t98.5 471.5q0 299 -97.5 467t-270.5 168q-171 0 -270 -164t-99 -471z" />
    <glyph glyph-name="uni01EB" unicode="&#x1eb;" 
d="M559 -141q0 -60 42.5 -84.5t119.5 -10.5l6 -69q-124 -25 -192 13t-68 128q0 78 57 150q-32 -4 -51 -4q-179 0 -283 150.5t-104 418.5q0 261 104 414t283 153t285 -150t106 -415q0 -184 -52.5 -317.5t-149.5 -198.5q-103 -87 -103 -178zM186 551q0 -217 78 -345t211 -128
q131 0 209 125t78 348q0 217 -78 345t-211 128q-131 0 -209 -125t-78 -348z" />
    <glyph glyph-name="Aringacute" unicode="&#x1fa;" horiz-adv-x="1075" 
d="M637 2103l94 -26l-160 -203l-73 10zM537 1446q-73 0 -118.5 49t-45.5 119q0 68 45.5 117t118.5 49t118 -49t45 -117q0 -70 -45 -119t-118 -49zM537 1718q-45 0 -72 -31t-27 -73q0 -43 27 -74t72 -31t71.5 30.5t26.5 74.5q0 42 -26.5 73t-71.5 31zM1028 0h-108l-103 348
h-559l-102 -348h-109l426 1434h127zM537 1290l-248 -841h497z" />
    <glyph glyph-name="aringacute" unicode="&#x1fb;" horiz-adv-x="847" 
d="M487 1915l95 -27l-150 -223l-67 10zM406 1206q-73 0 -118.5 49t-45.5 117q0 70 45.5 119t118.5 49t118 -49t45 -119q0 -68 -45 -117t-118 -49zM406 1479q-45 0 -72 -31.5t-27 -75.5q0 -42 27 -72t72 -30t71.5 30t26.5 72q0 44 -26.5 75.5t-71.5 31.5zM391 1118
q168 0 250 -94.5t82 -294.5v-729h-98v231q-37 -108 -116 -178.5t-190 -70.5q-118 0 -188 88t-70 243q0 158 76.5 244t227.5 86q139 0 258 -22v110q0 155 -60.5 225t-181.5 70q-122 0 -229 -57l-15 92q114 57 254 57zM350 76q117 0 191 106.5t82 253.5v103q-107 22 -238 22
q-227 0 -227 -244q0 -116 51 -178.5t141 -62.5z" />
    <glyph glyph-name="AEacute" unicode="&#x1fc;" horiz-adv-x="1462" 
d="M1049 1761l94 -26l-160 -203l-74 10zM770 684v-590h608v-94h-710v377h-367l-145 -377h-109l539 1434h778v-95h-594v-561h520v-94h-520zM664 1339l-332 -868h336v868h-4z" />
    <glyph glyph-name="aeacute" unicode="&#x1fd;" horiz-adv-x="1433" 
d="M793 1501l94 -26l-150 -224l-67 11zM1331 516h-600q9 -210 87.5 -325t211.5 -115t242 74l20 -91q-115 -77 -272 -77q-120 0 -209 68.5t-135 197.5q-45 -118 -131.5 -192t-210.5 -74q-123 0 -194.5 88.5t-71.5 240.5q0 156 77.5 244t221.5 88q150 0 264 -27v5v98
q0 159 -61 233t-181 74q-129 0 -229 -59l-19 94q125 57 258 57q231 0 299 -213q48 103 126.5 158t181.5 55q158 0 251 -129t93 -340q0 -59 -19 -133zM731 602h516v10q8 185 -55.5 298.5t-185.5 113.5q-120 0 -194 -110.5t-81 -311.5zM352 78q83 0 147 54.5t97.5 139
t36.5 183.5q-4 50 -4 77q-95 27 -236 27q-110 0 -168.5 -62t-58.5 -180q0 -111 49.5 -175t136.5 -64z" />
    <glyph glyph-name="oslashacute" unicode="&#x1ff;" 
d="M555 1501l94 -26l-149 -224l-68 11zM852 1073l-80 -127q92 -147 92 -393q0 -263 -104.5 -417t-286.5 -154q-145 0 -244 102l-61 -100l-68 43l78 125q-92 150 -92 399q0 261 104 414t283 153q151 0 246 -102l65 102zM186 551q0 -180 56 -301l422 676q-76 98 -191 98
q-131 0 -209 -125t-78 -348zM475 78q131 0 209 125t78 348q0 174 -51 295l-424 -674q78 -94 188 -94z" />
    <glyph glyph-name="uni0218" unicode="&#x218;" horiz-adv-x="897" 
d="M410 -20q-181 0 -340 90l16 100q153 -90 317 -90q136 0 219 66t83 196q0 68 -21 122t-65 97t-88.5 72.5t-114.5 66.5q-151 79 -235.5 175t-84.5 227q0 164 102 256t269 92q152 0 301 -76l-16 -102q-138 78 -275 78q-124 0 -198 -62.5t-74 -185.5q0 -101 68.5 -173.5
t205.5 -148.5q77 -41 131 -79t103.5 -90.5t74.5 -119.5t25 -149q0 -169 -110.5 -265.5t-292.5 -96.5zM373 -416l-27 56q110 54 98 155h-82v131h156q54 -267 -145 -342z" />
    <glyph glyph-name="uni0219" unicode="&#x219;" horiz-adv-x="737" 
d="M346 -18q-136 0 -283 67l19 98q129 -71 262 -71q100 0 162 52.5t61 141.5q0 90 -55 149t-172 116q-126 56 -188 128t-62 175q0 129 83.5 204.5t221.5 75.5q115 0 236 -59l-17 -96q-104 61 -217 61q-95 0 -149.5 -48.5t-54.5 -131.5q0 -77 52 -133t161 -109
q135 -65 199.5 -142.5t64.5 -189.5q0 -130 -88.5 -209t-235.5 -79zM301 -416l-27 56q111 54 99 155h-82v131h155q54 -267 -145 -342z" />
    <glyph glyph-name="uni021A" unicode="&#x21a;" horiz-adv-x="841" 
d="M33 1339v95h774v-95h-334v-1339h-104v1339h-336zM344 -205v131h156q54 -267 -146 -342l-26 56q110 54 98 155h-82z" />
    <glyph glyph-name="uni021B" unicode="&#x21b;" horiz-adv-x="638" 
d="M401 -18q-103 0 -159 66t-56 190v770h-116v61l24 35l144 213h49v-217h266v-92h-266v-754q0 -79 34 -128.5t93 -49.5q82 0 143 39l21 -88q-79 -45 -177 -45zM305 -422l-26 55q110 54 98 156h-82v131h156q54 -267 -146 -342z" />
    <glyph glyph-name="uni0232" unicode="&#x232;" horiz-adv-x="960" 
d="M260 1659h440v-76h-440v76zM815 1434h109l-392 -990v-444h-104v444l-391 990h110l334 -846z" />
    <glyph glyph-name="uni0233" unicode="&#x233;" horiz-adv-x="872" 
d="M215 1364h440v-76h-440v76zM436 133l293 967h105l-342 -1100l-109 -350h-107l107 342l-344 1108h104l291 -967h2z" />
    <glyph glyph-name="uni0237" unicode="&#x237;" horiz-adv-x="395" 
d="M-37 -348l2 86h64q62 0 94.5 41.5t32.5 138.5v1182h100v-1184q0 -270 -213 -270q-46 0 -80 6z" />
    <glyph glyph-name="uni0259" unicode="&#x259;" horiz-adv-x="892" 
d="M414 1118q180 0 285.5 -150.5t105.5 -418.5q0 -257 -100.5 -412t-276.5 -155q-158 0 -251 129t-93 340q0 63 18 133h600q-9 210 -87.5 325t-211.5 115q-132 0 -241 -74l-21 90q116 78 273 78zM428 76q120 0 193.5 110.5t80.5 311.5h-516v-11q-8 -184 56 -297.5
t186 -113.5z" />
    <glyph glyph-name="uni0272" unicode="&#x272;" horiz-adv-x="942" 
d="M532 1118q137 0 212 -97t75 -284v-737h-100v737q0 142 -55.5 214.5t-155.5 72.5q-96 0 -168.5 -85.5t-99.5 -244.5v-731q0 -280 -248 -280q-46 0 -96 24l10 92q39 -22 76 -22q157 0 157 194v1129h101v-221q40 112 116 175.5t176 63.5z" />
    <glyph glyph-name="uni02B0" unicode="&#x2b0;" horiz-adv-x="487" 
d="M289 1524q71 0 112 -60t41 -168v-342h-82v324q0 166 -98 166q-50 0 -83.5 -55.5t-33.5 -143.5v-291h-82v764h82v-293q49 99 144 99z" />
    <glyph glyph-name="circumflex" unicode="&#x2c6;" horiz-adv-x="581" 
d="M352 1495l127 -260l-82 -10l-106 219l-107 -219l-82 10l127 260h123z" />
    <glyph glyph-name="caron" unicode="&#x2c7;" horiz-adv-x="581" 
d="M291 1272l106 223l82 -12l-127 -262h-123l-127 262l82 12z" />
    <glyph glyph-name="breve" unicode="&#x2d8;" horiz-adv-x="577" 
d="M397 1458h78q0 -229 -186 -229q-90 0 -138.5 57t-48.5 172h80q0 -162 107 -162q108 0 108 162z" />
    <glyph glyph-name="dotaccent" unicode="&#x2d9;" horiz-adv-x="311" 
d="M209 1249h-107v215h107v-215z" />
    <glyph glyph-name="ring" unicode="&#x2da;" horiz-adv-x="532" 
d="M266 1200q-73 0 -118.5 49t-45.5 117q0 70 45.5 119t118.5 49t118.5 -49t45.5 -119q0 -68 -45.5 -117t-118.5 -49zM266 1264q45 0 72 30t27 72q0 44 -27 75.5t-72 31.5t-71.5 -31.5t-26.5 -75.5q0 -42 26.5 -72t71.5 -30z" />
    <glyph glyph-name="ogonek" unicode="&#x2db;" horiz-adv-x="479" 
d="M213 20l61 -20q-60 -45 -91 -97.5t-31 -97.5q0 -60 42 -84t119 -10l6 -69q-124 -25 -192 13t-68 128q0 65 41 127t113 110z" />
    <glyph glyph-name="tilde" unicode="&#x2dc;" horiz-adv-x="622" 
d="M166 1264l-64 10q-1 84 28.5 130t82.5 46q28 0 55 -15.5t45 -34.5t40 -34.5t40 -15.5q31 0 48 27.5t16 76.5l61 -8q3 -84 -26 -131t-82 -47q-35 0 -68 25.5t-61.5 51t-51.5 25.5q-31 0 -47.5 -28.5t-15.5 -77.5z" />
    <glyph glyph-name="hungarumlaut" unicode="&#x2dd;" horiz-adv-x="653" 
d="M311 1475l-141 -224l-68 11l115 239zM551 1475l-141 -224l-68 11l115 239z" />
    <glyph glyph-name="uni02E1" unicode="&#x2e1;" horiz-adv-x="206" 
d="M143 954h-80v777h80v-777z" />
    <glyph glyph-name="uni02E2" unicode="&#x2e2;" horiz-adv-x="419" 
d="M199 946q-85 0 -156 41l16 68q65 -41 131 -41q44 0 73.5 25t29.5 63t-25.5 64t-79.5 51q-67 29 -100 66t-33 93q0 71 46 112.5t122 41.5q68 0 133 -35l-16 -68q-58 33 -111 33q-41 0 -66.5 -22.5t-25.5 -57.5q0 -34 24.5 -58t76.5 -50q70 -33 104.5 -72t34.5 -100
q0 -68 -49.5 -111t-128.5 -43z" />
    <glyph glyph-name="gravecomb" unicode="&#x300;" horiz-adv-x="0" 
d="M-102 1262l-68 -11l-149 224l94 26z" />
    <glyph glyph-name="acutecomb" unicode="&#x301;" horiz-adv-x="0" 
d="M-102 1475l-150 -224l-67 11l122 239z" />
    <glyph glyph-name="uni0302" unicode="&#x302;" horiz-adv-x="0" 
d="M-229 1495l127 -260l-82 -10l-107 219l-106 -219l-82 10l127 260h123z" />
    <glyph glyph-name="tildecomb" unicode="&#x303;" horiz-adv-x="0" 
d="M-457 1264l-63 10q-1 84 28 130t82 46q35 0 68.5 -25t62 -50t50.5 -25q31 0 47.5 27.5t15.5 76.5l62 -8q3 -84 -26.5 -131t-82.5 -47q-28 0 -55 16t-44.5 35t-39.5 35t-41 16q-31 0 -48 -28.5t-16 -77.5z" />
    <glyph glyph-name="uni0304" unicode="&#x304;" horiz-adv-x="0" 
d="M-102 1288h-441v76h441v-76z" />
    <glyph glyph-name="uni0306" unicode="&#x306;" horiz-adv-x="0" 
d="M-180 1458h78q0 -113 -47.5 -171t-139.5 -58q-90 0 -138 57t-48 172h80q0 -162 106 -162q109 0 109 162z" />
    <glyph glyph-name="uni0307" unicode="&#x307;" horiz-adv-x="0" 
d="M-106 1249h-107v215h107v-215z" />
    <glyph glyph-name="uni0308" unicode="&#x308;" horiz-adv-x="0" 
d="M-334 1251h-80v213h80v-213zM-106 1251h-78v213h78v-213z" />
    <glyph glyph-name="hookabovecomb" unicode="&#x309;" horiz-adv-x="0" 
d="M-217 1217l-41 43q76 49 76 108q0 45 -38 61.5t-87 -10.5l-10 58q83 44 148 14.5t65 -105.5q0 -96 -113 -169z" />
    <glyph glyph-name="uni030A" unicode="&#x30a;" horiz-adv-x="0" 
d="M-266 1200q-73 0 -118.5 49t-45.5 117q0 70 45.5 119t118.5 49t118.5 -49t45.5 -119q0 -68 -45.5 -117t-118.5 -49zM-266 1264q45 0 71.5 30t26.5 72q0 44 -26.5 75.5t-71.5 31.5t-72 -31.5t-27 -75.5q0 -42 27 -72t72 -30z" />
    <glyph glyph-name="uni030B" unicode="&#x30b;" horiz-adv-x="0" 
d="M-342 1475l-141 -224l-68 11l115 239zM-102 1475l-142 -224l-67 11l114 239z" />
    <glyph glyph-name="uni030C" unicode="&#x30c;" horiz-adv-x="0" 
d="M-287 1272l107 223l82 -12l-127 -262h-123l-127 262l82 12z" />
    <glyph glyph-name="uni0312" unicode="&#x312;" horiz-adv-x="0" 
d="M-129 1522l25 -43q-51 -32 -74.5 -69t-16.5 -89h74v-115h-135q-49 233 127 316z" />
    <glyph glyph-name="uni031B" unicode="&#x31b;" horiz-adv-x="0" 
d="M-315 1075l26 55q24 -2 40.5 1t31 16t20.5 36.5t5 65t-11 99.5l92 4q34 -173 -25 -246.5t-179 -30.5z" />
    <glyph glyph-name="dotbelowcomb" unicode="&#x323;" horiz-adv-x="0" 
d="M-205 -313v213h105v-213h-105z" />
    <glyph glyph-name="uni0324" unicode="&#x324;" horiz-adv-x="0" 
d="M-334 -362h-80v212h80v-212zM-106 -362h-78v212h78v-212z" />
    <glyph glyph-name="uni0326" unicode="&#x326;" horiz-adv-x="0" 
d="M-250 -416l-26 56q110 54 98 155h-82v131h156q54 -267 -146 -342z" />
    <glyph glyph-name="uni0327" unicode="&#x327;" horiz-adv-x="0" 
d="M-236 8l-26 -88q73 -8 116.5 -45t43.5 -94q0 -62 -51.5 -102.5t-147.5 -40.5q-66 0 -125 18l16 61q40 -16 103 -16q57 0 87 25t30 61q0 44 -41 70.5t-113 27.5l35 123h73z" />
    <glyph glyph-name="uni0328" unicode="&#x328;" horiz-adv-x="0" 
d="M-168 20l62 -20q-60 -45 -91.5 -97.5t-31.5 -97.5q0 -60 42 -84t119 -10l7 -69q-124 -25 -192.5 13t-68.5 128q0 65 41 127t113 110z" />
    <glyph glyph-name="uni032E" unicode="&#x32e;" horiz-adv-x="0" 
d="M-174 -80h76q0 -92 -46.5 -140t-134.5 -48q-85 0 -131.5 46.5t-46.5 141.5h76q0 -133 102 -133q105 0 105 133z" />
    <glyph glyph-name="uni0331" unicode="&#x331;" horiz-adv-x="0" 
d="M-102 -238h-441v76h441v-76z" />
    <glyph glyph-name="uni0335" unicode="&#x335;" horiz-adv-x="0" 
d="M-516 639v72h450v-72h-450z" />
    <glyph glyph-name="uni0336" unicode="&#x336;" horiz-adv-x="0" 
d="M-856 811v78h774v-78h-774z" />
    <glyph glyph-name="uni0337" unicode="&#x337;" horiz-adv-x="0" 
d="M-485 571l-33 64l360 186l31 -65z" />
    <glyph glyph-name="uni0338" unicode="&#x338;" horiz-adv-x="0" 
d="M-1010 -16l-67 43l684 1091l67 -45z" />
    <glyph glyph-name="tonos" unicode="&#x384;" horiz-adv-x="368" 
d="M289 1501l-49 -272h-68l23 272h94z" />
    <glyph glyph-name="dieresistonos" unicode="&#x385;" horiz-adv-x="634" 
d="M416 1602l-45 -273h-54l21 273h78zM217 1186h-70v205h70v-205zM557 1186h-70v205h70v-205z" />
    <glyph glyph-name="Alphatonos" unicode="&#x386;" horiz-adv-x="1075" 
d="M1028 0h-108l-109 367h-547l-108 -367h-109l430 1434h119zM186 1434h95l-52 -273h-65zM539 1282l-246 -821h489z" />
    <glyph glyph-name="Epsilontonos" unicode="&#x388;" 
d="M10 1161h-65l22 273h94zM258 684v-590h608v-94h-710v1434h696v-95h-594v-561h520v-94h-520z" />
    <glyph glyph-name="Etatonos" unicode="&#x389;" horiz-adv-x="1126" 
d="M-10 1161h-66l23 273h94zM862 770v664h109v-1434h-109v676h-600v-676h-106v1434h106v-664h600z" />
    <glyph glyph-name="Iotatonos" unicode="&#x38a;" horiz-adv-x="413" 
d="M41 1434l-51 -273h-66l23 273h94zM258 0h-102v1434h102v-1434z" />
    <glyph glyph-name="Omicrontonos" unicode="&#x38c;" horiz-adv-x="1167" 
d="M584 -18q-222 0 -352 191.5t-130 543.5q0 343 129 539t353 196q222 0 351.5 -191.5t129.5 -543.5q0 -343 -128.5 -539t-352.5 -196zM154 1434l-52 -273h-65l22 273h95zM584 82q171 0 269.5 163.5t98.5 471.5q0 299 -97.5 467t-270.5 168q-171 0 -270 -164t-99 -471
q0 -299 98 -467t271 -168z" />
    <glyph glyph-name="Upsilontonos" unicode="&#x38e;" horiz-adv-x="960" 
d="M-33 1161h-65l22 273h94zM815 1434h109l-392 -990v-444h-104v444l-391 990h110l334 -846z" />
    <glyph glyph-name="Omegatonos" unicode="&#x38f;" horiz-adv-x="1099" 
d="M997 885q0 -55 -7.5 -112.5t-17 -103t-31 -105t-36 -95.5t-46 -99.5t-46 -92t-52 -97t-50.5 -92.5l256 8v-96h-338v86q6 11 47.5 93.5t49.5 100t41.5 89.5t43 101t31.5 92.5t29 105.5t14.5 98.5t7.5 110.5q0 217 -92 346t-252 129q-154 0 -248 -125.5t-94 -349.5
q0 -100 19.5 -198.5t57 -194t75.5 -175t92 -182.5q15 -27 22 -41v-86h-338v96l256 -8l-57 104.5t-60.5 113.5t-51.5 104t-50.5 117.5t-34.5 109.5t-27.5 125t-7.5 123q0 257 118 412t331 155q205 0 325.5 -151.5t120.5 -415.5zM12 1161h-65l22 273h94z" />
    <glyph glyph-name="iotadieresistonos" unicode="&#x390;" horiz-adv-x="430" 
d="M240 1602l-45 -273h-54l21 273h78zM41 1186h-70v205h70v-205zM381 1186h-70v205h70v-205zM350 -18q-114 0 -170.5 63t-56.5 195v860h100v-852q0 -172 137 -172q21 0 31 2l10 -90q-27 -6 -51 -6z" />
    <glyph glyph-name="Alpha" unicode="&#x391;" horiz-adv-x="1075" 
d="M1028 0h-108l-109 367h-547l-108 -367h-109l430 1434h119zM539 1282l-246 -821h489z" />
    <glyph glyph-name="Beta" unicode="&#x392;" horiz-adv-x="1050" 
d="M672 741q133 -25 208.5 -119.5t75.5 -246.5q0 -173 -111.5 -274t-314.5 -101h-374v1434h348q185 0 293 -95t108 -268q0 -122 -60.5 -210t-172.5 -120zM487 1339h-229v-557h246q141 0 218 72t77 203q0 133 -81 207.5t-231 74.5zM258 94h258q159 0 247.5 75.5t88.5 215.5
q0 144 -85.5 223.5t-244.5 79.5h-264v-594z" />
    <glyph glyph-name="Gamma" unicode="&#x393;" horiz-adv-x="831" 
d="M156 0v1434h641v-95h-535v-1339h-106z" />
    <glyph glyph-name="uni0394" unicode="&#x394;" horiz-adv-x="1032" 
d="M455 1434h123l407 -1434h-938zM516 1282l-338 -1188h674z" />
    <glyph glyph-name="Epsilon" unicode="&#x395;" 
d="M258 684v-590h608v-94h-710v1434h696v-95h-594v-561h520v-94h-520z" />
    <glyph glyph-name="Zeta" unicode="&#x396;" horiz-adv-x="884" 
d="M819 0h-758v68l631 1271h-616v95h745v-66l-633 -1274h631v-94z" />
    <glyph glyph-name="Eta" unicode="&#x397;" horiz-adv-x="1126" 
d="M862 770v664h109v-1434h-109v676h-600v-676h-106v1434h106v-664h600z" />
    <glyph glyph-name="Theta" unicode="&#x398;" horiz-adv-x="1167" 
d="M584 -18q-222 0 -352 191.5t-130 543.5q0 343 129 539t353 196q222 0 351.5 -191.5t129.5 -543.5q0 -343 -128.5 -539t-352.5 -196zM584 82q171 0 269.5 163.5t98.5 471.5q0 299 -97.5 467t-270.5 168q-171 0 -270 -164t-99 -471q0 -299 98 -467t271 -168zM301 682v72
h565v-72h-565z" />
    <glyph glyph-name="Iota" unicode="&#x399;" horiz-adv-x="413" 
d="M258 0h-102v1434h102v-1434z" />
    <glyph glyph-name="Kappa" unicode="&#x39a;" horiz-adv-x="1028" 
d="M981 0h-115l-362 733l-246 -383v-350h-102v1434h102v-928l563 928h119l-375 -603z" />
    <glyph glyph-name="Lambda" unicode="&#x39b;" horiz-adv-x="1032" 
d="M47 0l414 1434h110l414 -1434h-106l-363 1274l-358 -1274h-111z" />
    <glyph glyph-name="Mu" unicode="&#x39c;" horiz-adv-x="1343" 
d="M1049 1434h104l66 -1434h-101l-53 1149l-371 -1147h-47l-368 1147l-54 -1149h-100l65 1434h107l375 -1174z" />
    <glyph glyph-name="Nu" unicode="&#x39d;" horiz-adv-x="1124" 
d="M256 0h-100v1434h94l618 -1194v1194h101v-1434h-90l-623 1202v-1202z" />
    <glyph glyph-name="Xi" unicode="&#x39e;" horiz-adv-x="899" 
d="M813 1339h-727v95h727v-95zM739 684h-581v92h581v-92zM813 0h-727v94h727v-94z" />
    <glyph glyph-name="Omicron" unicode="&#x39f;" horiz-adv-x="1167" 
d="M584 -18q-222 0 -352 191.5t-130 543.5q0 343 129 539t353 196q222 0 351.5 -191.5t129.5 -543.5q0 -343 -128.5 -539t-352.5 -196zM584 82q171 0 269.5 163.5t98.5 471.5q0 299 -97.5 467t-270.5 168q-171 0 -270 -164t-99 -471q0 -299 98 -467t271 -168z" />
    <glyph glyph-name="Pi" unicode="&#x3a0;" horiz-adv-x="1095" 
d="M940 1434v-1434h-102v1339h-580v-1339h-102v1434h784z" />
    <glyph glyph-name="Rho" unicode="&#x3a1;" horiz-adv-x="976" 
d="M446 1434q217 0 341 -121t124 -344q0 -218 -122 -343.5t-345 -125.5h-186v-500h-102v1434h290zM258 594h184q170 0 267.5 97t97.5 280q0 172 -95 270t-268 98h-186v-745z" />
    <glyph glyph-name="Sigma" unicode="&#x3a3;" horiz-adv-x="880" 
d="M795 0h-709v82l360 649l-360 621v82h707v-93h-598l350 -610l-350 -639h600v-92z" />
    <glyph glyph-name="Tau" unicode="&#x3a4;" horiz-adv-x="841" 
d="M33 1434h774v-95h-334v-1339h-104v1339h-336v95z" />
    <glyph glyph-name="Upsilon" unicode="&#x3a5;" horiz-adv-x="960" 
d="M815 1434h109l-392 -990v-444h-104v444l-391 990h110l334 -846z" />
    <glyph glyph-name="Phi" unicode="&#x3a6;" horiz-adv-x="1241" 
d="M1139 717q0 -258 -123 -409.5t-342 -155.5v-152h-105v152q-216 5 -341.5 153.5t-125.5 411.5q0 258 124 409.5t343 155.5v152h105v-152q215 -5 340 -153.5t125 -411.5zM211 717q0 -218 95 -344.5t263 -132.5v954q-166 -6 -262 -130.5t-96 -346.5zM674 1194v-954
q165 6 261.5 131t96.5 346q0 218 -95 343.5t-263 133.5z" />
    <glyph glyph-name="Chi" unicode="&#x3a7;" horiz-adv-x="956" 
d="M541 735l368 -735h-112l-320 655l-315 -655h-115l365 733l-351 703h115l301 -623l301 623h113z" />
    <glyph glyph-name="Psi" unicode="&#x3a8;" horiz-adv-x="1120" 
d="M887 786v648h106v-641q0 -180 -97.5 -287t-283.5 -111v-395h-104v395q-183 4 -282 109.5t-99 290.5v639h104v-646q0 -138 70 -218.5t207 -84.5v949h104v-949q133 3 204 81t71 220z" />
    <glyph glyph-name="uni03A9" unicode="&#x3a9;" horiz-adv-x="1099" 
d="M997 885q0 -55 -7.5 -112.5t-17 -103t-31 -105t-36 -95.5t-46 -99.5t-46 -92t-52 -97t-50.5 -92.5l256 8v-96h-338v86q6 11 47.5 93.5t49.5 100t41.5 89.5t43 101t31.5 92.5t29 105.5t14.5 98.5t7.5 110.5q0 217 -92 346t-252 129q-154 0 -248 -125.5t-94 -349.5
q0 -100 19.5 -198.5t57 -194t75.5 -175t92 -182.5q15 -27 22 -41v-86h-338v96l256 -8l-57 104.5t-60.5 113.5t-51.5 104t-50.5 117.5t-34.5 109.5t-27.5 125t-7.5 123q0 257 118 412t331 155q205 0 325.5 -151.5t120.5 -415.5z" />
    <glyph glyph-name="Iotadieresis" unicode="&#x3aa;" horiz-adv-x="413" 
d="M131 1585h-80v213h80v-213zM358 1585h-77v213h77v-213zM258 0h-102v1434h102v-1434z" />
    <glyph glyph-name="Upsilondieresis" unicode="&#x3ab;" horiz-adv-x="960" 
d="M326 1798h80v-213h-80v213zM555 1798h78v-213h-78v213zM815 1434h109l-392 -990v-444h-104v444l-391 990h110l334 -846z" />
    <glyph glyph-name="alphatonos" unicode="&#x3ac;" horiz-adv-x="1005" 
d="M483 1501h95l-50 -272h-67zM766 1100h102l-20 -551l20 -549h-102l-8 287q-44 -145 -129.5 -225t-192.5 -80q-160 0 -255 150.5t-95 416.5q0 262 94 415.5t256 153.5q104 0 191 -81t131 -222zM463 72q121 0 204 135t83 342q0 209 -82.5 344t-204.5 135q-125 0 -200 -127.5
t-75 -351.5q0 -218 74 -347.5t201 -129.5z" />
    <glyph glyph-name="epsilontonos" unicode="&#x3ad;" horiz-adv-x="724" 
d="M479 1501l-49 -272h-68l23 272h94zM391 -18q-138 0 -228.5 88.5t-90.5 222.5q0 107 49.5 179.5t130.5 96.5q-77 24 -123.5 90.5t-46.5 159.5q0 137 90 218t229 81q142 0 256 -74l-20 -86q-104 68 -221 68q-105 0 -168.5 -60t-63.5 -155q0 -92 58 -145.5t153 -53.5h131
v-82h-129q-100 0 -161.5 -64t-61.5 -163q0 -101 67 -163t169 -62q68 0 130.5 21t104.5 53l23 -93q-49 -33 -124 -55t-153 -22z" />
    <glyph glyph-name="etatonos" unicode="&#x3ae;" horiz-adv-x="942" 
d="M473 1501h94l-49 -272h-67zM532 1118q137 0 212 -97t75 -284v-1087h-100v1087q0 142 -55.5 214.5t-155.5 72.5q-96 0 -168.5 -85.5t-99.5 -244.5v-694h-101v1100h101v-221q40 112 116 175.5t176 63.5z" />
    <glyph glyph-name="iotatonos" unicode="&#x3af;" horiz-adv-x="430" 
d="M256 1501l-49 -272h-68l23 272h94zM350 -18q-114 0 -170.5 63t-56.5 195v860h100v-852q0 -172 137 -172q21 0 31 2l10 -90q-27 -6 -51 -6z" />
    <glyph glyph-name="upsilondieresistonos" unicode="&#x3b0;" horiz-adv-x="929" 
d="M524 1602l-45 -273h-53l20 273h78zM326 1186h-70v205h70v-205zM666 1186h-70v205h70v-205zM707 379v721h100v-717q0 -188 -92.5 -294.5t-249.5 -106.5q-152 0 -247 104t-95 297v717h100v-721q0 -143 67 -223t175 -80q107 0 174.5 77.5t67.5 225.5z" />
    <glyph glyph-name="alpha" unicode="&#x3b1;" horiz-adv-x="1005" 
d="M766 1100h102l-20 -551l20 -549h-102l-8 287q-44 -145 -129.5 -225t-192.5 -80q-160 0 -255 150.5t-95 416.5q0 262 94 415.5t256 153.5q104 0 191 -81t131 -222zM463 72q121 0 204 135t83 342q0 209 -82.5 344t-204.5 135q-125 0 -200 -127.5t-75 -351.5
q0 -218 74 -347.5t201 -129.5z" />
    <glyph glyph-name="beta" unicode="&#x3b2;" horiz-adv-x="933" 
d="M246 -350h-101v1478q0 164 75 260.5t216 96.5q134 0 215.5 -95.5t81.5 -269.5q0 -94 -42.5 -181t-108.5 -120q118 -22 193 -132.5t75 -270.5q0 -196 -97.5 -315t-263.5 -119q-134 0 -243 88v-420zM246 1128v-962q48 -43 108 -68.5t117 -25.5q129 0 201.5 95t72.5 255
q0 151 -71.5 245.5t-188.5 94.5h-118v86h69q83 0 138 77t55 191q2 125 -50 200t-143 75q-87 0 -138.5 -68.5t-51.5 -194.5z" />
    <glyph glyph-name="gamma" unicode="&#x3b3;" horiz-adv-x="874" 
d="M731 1100h107l-351 -1028v-422h-100v422l-348 1028h104l295 -893z" />
    <glyph glyph-name="delta" unicode="&#x3b4;" horiz-adv-x="892" 
d="M739 1425h-463q73 -69 140.5 -143.5t141 -175.5t127 -202.5t88 -222t34.5 -235.5q0 -200 -98 -331t-263 -131q-162 0 -261 126t-99 334q0 111 23 202t71.5 169t112.5 144t158 139q-102 137 -285 325l12 88h561v-86zM446 76q116 0 188.5 101.5t72.5 266.5q0 275 -209 584
q-118 -97 -183.5 -179.5t-97 -179t-31.5 -227.5q0 -161 70 -263.5t190 -102.5z" />
    <glyph glyph-name="epsilon" unicode="&#x3b5;" horiz-adv-x="724" 
d="M391 -18q-138 0 -228.5 88.5t-90.5 222.5q0 107 49.5 179.5t130.5 96.5q-77 24 -123.5 90.5t-46.5 159.5q0 137 90 218t229 81q142 0 256 -74l-20 -86q-104 68 -221 68q-105 0 -168.5 -60t-63.5 -155q0 -92 58 -145.5t153 -53.5h131v-82h-129q-100 0 -161.5 -64
t-61.5 -163q0 -101 67 -163t169 -62q68 0 130.5 21t104.5 53l23 -93q-49 -33 -124 -55t-153 -22z" />
    <glyph glyph-name="zeta" unicode="&#x3b6;" horiz-adv-x="698" 
d="M434 152q100 -52 148 -87t73 -80.5t25 -111.5q0 -87 -66 -223h-96q70 136 70 207q0 76 -41 119t-168 106q-151 77 -219 177.5t-68 250.5q0 123 42.5 255.5t115 253t145 216.5t156.5 188h-408v88h510l-4 -86l4 -4q-80 -85 -153 -181t-145.5 -216.5t-116 -254.5t-43.5 -257
q0 -121 55.5 -205.5t183.5 -154.5z" />
    <glyph glyph-name="eta" unicode="&#x3b7;" horiz-adv-x="942" 
d="M532 1118q137 0 212 -97t75 -284v-1087h-100v1087q0 142 -55.5 214.5t-155.5 72.5q-96 0 -168.5 -85.5t-99.5 -244.5v-694h-101v1100h101v-221q40 112 116 175.5t176 63.5z" />
    <glyph glyph-name="theta" unicode="&#x3b8;" horiz-adv-x="966" 
d="M483 1526q184 0 291 -205t107 -567q0 -229 -45.5 -402t-136.5 -271.5t-216 -98.5q-184 0 -290.5 205t-106.5 567q0 229 45 401.5t135.5 271.5t216.5 99zM483 1432q-135 0 -213.5 -170.5t-83.5 -468.5h594q-6 292 -84 465.5t-213 173.5zM483 74q135 0 213.5 171t83.5 468
h-594q6 -292 84 -465.5t213 -173.5z" />
    <glyph glyph-name="iota" unicode="&#x3b9;" horiz-adv-x="430" 
d="M350 -18q-114 0 -170.5 63t-56.5 195v860h100v-852q0 -172 137 -172q21 0 31 2l10 -90q-27 -6 -51 -6z" />
    <glyph glyph-name="kappa" unicode="&#x3ba;" horiz-adv-x="827" 
d="M776 0h-110l-258 504h-168v-504h-101v1100h101v-506h168l235 506h111l-269 -547z" />
    <glyph glyph-name="lambda" unicode="&#x3bb;" horiz-adv-x="856" 
d="M143 0h-104l340 1100l-55 180q-24 78 -52.5 109.5t-78.5 31.5v88q92 1 141 -44.5t82 -155.5l403 -1309h-104l-285 940z" />
    <glyph glyph-name="uni03BC" unicode="&#x3bc;" horiz-adv-x="946" 
d="M705 406v694h100v-1100h-100v217q-40 -110 -116.5 -172.5t-176.5 -62.5q-120 0 -193 73l6 -407h-102l2 678v36v738h100v-738q0 -142 55.5 -214t157.5 -72q95 0 167.5 86t99.5 244z" />
    <glyph glyph-name="nu" unicode="&#x3bd;" horiz-adv-x="872" 
d="M492 0h-111l-342 1100h104l291 -963h2l293 963h105z" />
    <glyph glyph-name="xi" unicode="&#x3be;" horiz-adv-x="749" 
d="M614 -352h-96q68 126 68 198q0 64 -45 113t-166 109q-160 84 -224.5 176.5t-64.5 230.5q0 151 59 250.5t166 122.5q-82 26 -131 111t-49 219q0 156 85 254t228 98q129 0 240 -66l-22 -90q-105 62 -211 62q-98 0 -158 -72t-60 -188q0 -132 58.5 -207.5t159.5 -75.5h108
v-92h-123q-115 0 -182 -86t-66 -238q0 -117 53.5 -190.5t184.5 -141.5q140 -72 197 -135t57 -147q0 -86 -66 -215z" />
    <glyph glyph-name="omicron" unicode="&#x3bf;" 
d="M473 -18q-179 0 -283 150.5t-104 418.5q0 261 104 414t283 153t285 -150t106 -415q0 -263 -104.5 -417t-286.5 -154zM475 78q131 0 209 125t78 348q0 217 -78 345t-211 128q-131 0 -209 -125t-78 -348q0 -217 78 -345t211 -128z" />
    <glyph glyph-name="pi" unicode="&#x3c0;" horiz-adv-x="944" 
d="M805 1100v-1100h-100v1014h-465v-1014h-101v1100h666z" />
    <glyph glyph-name="rho" unicode="&#x3c1;" horiz-adv-x="985" 
d="M223 -350h-100v899q0 257 104.5 413t282.5 156q176 0 282.5 -150.5t106.5 -416.5q0 -257 -98 -413t-266 -156q-115 0 -199.5 80.5t-114.5 209.5zM223 551q0 -125 34 -232.5t102.5 -176t158.5 -68.5q126 0 202.5 127t76.5 348q0 215 -78 346t-209 131
q-130 0 -208.5 -126.5t-78.5 -348.5z" />
    <glyph glyph-name="uni03C2" unicode="&#x3c2;" horiz-adv-x="788" 
d="M629 -350h-97q68 136 68 205q0 73 -43 116t-190 125q-281 172 -281 506q0 226 107 371t286 145q135 0 250 -86l-37 -82q-94 76 -209 76q-133 0 -215 -116.5t-82 -303.5q3 -289 234 -436q172 -100 223 -155.5t51 -143.5q0 -91 -65 -221z" />
    <glyph glyph-name="sigma" unicode="&#x3c3;" horiz-adv-x="964" 
d="M891 1100l-2 -99q-58 0 -184 29q76 -70 117.5 -192t41.5 -285q0 -263 -104.5 -417t-286.5 -154q-179 0 -283 150.5t-104 418.5q0 261 104 414t283 153q65 0 204.5 -9t213.5 -9zM762 551q0 217 -78 345t-211 128q-131 0 -209 -125t-78 -348q0 -217 78 -345t211 -128
q131 0 209 125t78 348z" />
    <glyph glyph-name="tau" unicode="&#x3c4;" horiz-adv-x="598" 
d="M537 1100v-90h-224v-762q0 -172 136 -172q22 0 32 2l11 -90q-27 -6 -52 -6q-114 0 -170.5 63t-56.5 195v770h-143v90h467z" />
    <glyph glyph-name="upsilon" unicode="&#x3c5;" horiz-adv-x="929" 
d="M707 379v721h100v-717q0 -188 -92.5 -294.5t-249.5 -106.5q-152 0 -247 104t-95 297v717h100v-721q0 -143 67 -223t175 -80q107 0 174.5 77.5t67.5 225.5z" />
    <glyph glyph-name="phi" unicode="&#x3c6;" horiz-adv-x="1142" 
d="M1057 551q0 -167 -51.5 -293.5t-150 -197.5t-232.5 -72v-336h-101v336q-198 2 -317 151t-119 412q0 253 117 405.5t319 155.5v322h101v-322q198 -3 316 -151t118 -410zM186 551q0 -213 90 -340.5t246 -130.5v942q-154 -3 -245 -127t-91 -344zM623 1022v-942
q153 3 243 127t90 344q0 212 -88.5 340t-244.5 131z" />
    <glyph glyph-name="chi" unicode="&#x3c7;" horiz-adv-x="862" 
d="M498 393l327 -743h-108l-285 655l-285 -655h-108l328 743l-308 707h109l264 -619l264 619h109z" />
    <glyph glyph-name="psi" unicode="&#x3c8;" horiz-adv-x="1116" 
d="M877 412v688h100v-688q0 -180 -96 -284t-279 -108v-370h-100v370q-177 6 -278 108.5t-101 283.5v688h100v-688q0 -136 73 -217.5t206 -85.5v991h100v-991q130 1 202.5 82t72.5 221z" />
    <glyph glyph-name="omega" unicode="&#x3c9;" horiz-adv-x="1294" 
d="M86 500q0 289 139 600h107q-144 -313 -144 -594q0 -206 53.5 -319t153.5 -113t151.5 103t51.5 298v260h100v-260q0 -401 203 -401q99 0 153 113t54 319q0 277 -143 594h102q143 -326 143 -600q0 -244 -77 -381t-218 -137q-114 0 -182.5 73t-85.5 215q-20 -140 -88 -214
t-178 -74q-140 0 -217.5 135t-77.5 383z" />
    <glyph glyph-name="iotadieresis" unicode="&#x3ca;" horiz-adv-x="430" 
d="M100 1251h-80v213h80v-213zM328 1251h-78v213h78v-213zM350 -18q-114 0 -170.5 63t-56.5 195v860h100v-852q0 -172 137 -172q21 0 31 2l10 -90q-27 -6 -51 -6z" />
    <glyph glyph-name="upsilondieresis" unicode="&#x3cb;" horiz-adv-x="929" 
d="M385 1251h-80v213h80v-213zM612 1251h-77v213h77v-213zM707 379v721h100v-717q0 -188 -92.5 -294.5t-249.5 -106.5q-152 0 -247 104t-95 297v717h100v-721q0 -143 67 -223t175 -80q107 0 174.5 77.5t67.5 225.5z" />
    <glyph glyph-name="omicrontonos" unicode="&#x3cc;" 
d="M553 1501l-49 -272h-68l23 272h94zM473 -18q-179 0 -283 150.5t-104 418.5q0 261 104 414t283 153t285 -150t106 -415q0 -263 -104.5 -417t-286.5 -154zM475 78q131 0 209 125t78 348q0 217 -78 345t-211 128q-131 0 -209 -125t-78 -348q0 -217 78 -345t211 -128z" />
    <glyph glyph-name="upsilontonos" unicode="&#x3cd;" horiz-adv-x="929" 
d="M541 1501l-49 -272h-68l22 272h95zM707 379v721h100v-717q0 -188 -92.5 -294.5t-249.5 -106.5q-152 0 -247 104t-95 297v717h100v-721q0 -143 67 -223t175 -80q107 0 174.5 77.5t67.5 225.5z" />
    <glyph glyph-name="omegatonos" unicode="&#x3ce;" horiz-adv-x="1294" 
d="M727 1501l-49 -272h-68l23 272h94zM86 500q0 289 139 600h107q-144 -313 -144 -594q0 -206 53.5 -319t153.5 -113t151.5 103t51.5 298v260h100v-260q0 -401 203 -401q99 0 153 113t54 319q0 277 -143 594h102q143 -326 143 -600q0 -244 -77 -381t-218 -137
q-114 0 -182.5 73t-85.5 215q-20 -140 -88 -214t-178 -74q-140 0 -217.5 135t-77.5 383z" />
    <glyph glyph-name="uni0400" unicode="&#x400;" 
d="M412 1835l123 -240l-68 -10l-150 223zM258 684v-590h608v-94h-710v1434h696v-95h-594v-561h520v-94h-520z" />
    <glyph glyph-name="uni0401" unicode="&#x401;" 
d="M342 1798h80v-213h-80v213zM571 1798h78v-213h-78v213zM258 684v-590h608v-94h-710v1434h696v-95h-594v-561h520v-94h-520z" />
    <glyph glyph-name="uni0402" unicode="&#x402;" horiz-adv-x="1110" 
d="M711 915q136 0 216.5 -111.5t80.5 -318.5v-49q0 -217 -79 -334.5t-237 -117.5q-86 0 -149 36l20 99q57 -35 125 -35q110 0 161.5 95.5t51.5 266.5v37q0 156 -56.5 244t-160.5 88q-138 0 -266 -82v-733h-105v1341h-280v93h774v-93h-389v-507q146 81 293 81z" />
    <glyph glyph-name="uni0403" unicode="&#x403;" horiz-adv-x="831" 
d="M594 1808l-150 -223l-67 10l123 240zM156 0v1434h641v-95h-535v-1339h-106z" />
    <glyph glyph-name="uni0404" unicode="&#x404;" horiz-adv-x="978" 
d="M879 172l26 -98q-131 -94 -299 -94q-224 0 -364 193.5t-140 541.5q0 335 135 535t367 200q81 0 150.5 -22t146.5 -72l-27 -94q-68 47 -129 68.5t-139 21.5q-170 0 -276 -152.5t-115 -437.5h533v-84h-533q8 -277 112.5 -437.5t280.5 -160.5q143 0 271 92z" />
    <glyph glyph-name="uni0405" unicode="&#x405;" horiz-adv-x="897" 
d="M410 -20q-181 0 -340 90l16 100q153 -90 317 -90q136 0 219 66t83 196q0 68 -21 122t-65 97t-88.5 72.5t-114.5 66.5q-151 79 -235.5 175t-84.5 227q0 164 102 256t269 92q152 0 301 -76l-16 -102q-138 78 -275 78q-124 0 -198 -62.5t-74 -185.5q0 -101 68.5 -173.5
t205.5 -148.5q77 -41 131 -79t103.5 -90.5t74.5 -119.5t25 -149q0 -169 -110.5 -265.5t-292.5 -96.5z" />
    <glyph glyph-name="uni0406" unicode="&#x406;" horiz-adv-x="413" 
d="M258 0h-102v1434h102v-1434z" />
    <glyph glyph-name="uni0407" unicode="&#x407;" horiz-adv-x="413" 
d="M131 1585h-80v213h80v-213zM358 1585h-77v213h77v-213zM258 0h-102v1434h102v-1434z" />
    <glyph glyph-name="uni0408" unicode="&#x408;" horiz-adv-x="733" 
d="M272 -18q-122 0 -233 61l22 94q97 -57 211 -57q109 0 169.5 78.5t60.5 234.5v946h-201v95h305v-1043q0 -198 -90 -303.5t-244 -105.5z" />
    <glyph glyph-name="uni0409" unicode="&#x409;" horiz-adv-x="1603" 
d="M911 934h160q222 0 344.5 -125.5t122.5 -343.5q0 -223 -124 -344t-341 -121h-268l2 2v1339h-463l-25 -723q-7 -239 -35.5 -374t-88.5 -195t-162 -51v94q96 -10 135.5 107t48.5 422l25 813h669v-500zM911 90h160q172 0 266.5 100t94.5 273q0 183 -96.5 281t-266.5 98h-158
v-752z" />
    <glyph glyph-name="uni040A" unicode="&#x40a;" horiz-adv-x="1622" 
d="M934 864h158q224 0 344 -111t120 -321q0 -207 -119 -319.5t-343 -112.5h-267v768h-565v-768h-106v1434h106v-572h565v572h107v-570zM934 94h158q174 0 267 87t93 249q0 164 -93 253t-269 89h-156v-678z" />
    <glyph glyph-name="uni040B" unicode="&#x40b;" horiz-adv-x="1130" 
d="M711 911q138 3 216.5 -87t78.5 -261v-563h-103v553q0 130 -58 197.5t-163 64.5q-141 -3 -264 -82v-733h-105v1341h-280v93h774v-93h-389v-510q146 75 293 80z" />
    <glyph glyph-name="uni040C" unicode="&#x40c;" horiz-adv-x="974" 
d="M592 1761l94 -26l-160 -203l-73 10zM928 0h-113l-338 666h-219v-666h-102v1434h102v-672h217l311 672h115l-340 -713z" />
    <glyph glyph-name="uni040D" unicode="&#x40d;" horiz-adv-x="1124" 
d="M598 1595l-68 -10l-149 223l94 27zM969 1434v-1434h-101v1202l-622 -1202h-90v1434h100v-1194l618 1194h95z" />
    <glyph glyph-name="uni040E" unicode="&#x40e;" horiz-adv-x="892" 
d="M449 1561q-90 0 -138.5 57t-48.5 172h80q0 -162 107 -162q108 0 108 162h78q0 -229 -186 -229zM446 500l289 934h111l-352 -1119l-41 -133q-35 -103 -89.5 -148.5t-142.5 -45.5q-82 0 -145 45l24 92q48 -41 119 -41q50 0 81.5 29.5t57.5 103.5l35 113l-346 1104h111
l286 -934h2z" />
    <glyph glyph-name="uni040F" unicode="&#x40f;" horiz-adv-x="1095" 
d="M838 94v1340h102v-1434h-340v-244h-106v244h-338v1434h102v-1340h580z" />
    <glyph glyph-name="uni0410" unicode="&#x410;" horiz-adv-x="1075" 
d="M1028 0h-108l-103 348h-559l-102 -348h-109l426 1434h127zM537 1290l-248 -841h497z" />
    <glyph glyph-name="uni0411" unicode="&#x411;" horiz-adv-x="1040" 
d="M258 836l266 -2q205 -1 314.5 -110t109.5 -302q0 -202 -111 -312t-307 -110h-374v1434h663v-95h-561v-503zM258 92h254q158 0 245 86t87 254q0 150 -85.5 230.5t-238.5 80.5h-262v-651z" />
    <glyph glyph-name="uni0412" unicode="&#x412;" horiz-adv-x="1050" 
d="M672 741q133 -25 208.5 -119.5t75.5 -246.5q0 -173 -111.5 -274t-314.5 -101h-374v1434h348q185 0 293 -95t108 -268q0 -122 -60.5 -210t-172.5 -120zM487 1339h-229v-557h246q141 0 218 72t77 203q0 133 -81 207.5t-231 74.5zM258 94h258q159 0 247.5 75.5t88.5 215.5
q0 144 -85.5 223.5t-244.5 79.5h-264v-594z" />
    <glyph glyph-name="uni0413" unicode="&#x413;" horiz-adv-x="831" 
d="M156 0v1434h641v-95h-535v-1339h-106z" />
    <glyph glyph-name="uni0414" unicode="&#x414;" horiz-adv-x="1132" 
d="M137 -242h-104v336h106q50 60 89 268.5t46 579.5l13 492h676v-1340h135v-336h-103v242h-858v-242zM258 94h600v1245h-469l-8 -387q-7 -347 -41 -561.5t-82 -296.5z" />
    <glyph glyph-name="uni0415" unicode="&#x415;" 
d="M258 684v-590h608v-94h-710v1434h696v-95h-594v-561h520v-94h-520z" />
    <glyph glyph-name="uni0416" unicode="&#x416;" horiz-adv-x="1417" 
d="M1370 0h-113l-337 666h-162v-666h-105v666h-157l-336 -666h-113l367 721l-340 713h114l312 -672h153v672h105v-672h160l311 672h114l-339 -713z" />
    <glyph glyph-name="uni0417" unicode="&#x417;" horiz-adv-x="872" 
d="M557 752q115 -25 180.5 -128t65.5 -255q0 -178 -114.5 -282.5t-293.5 -104.5q-87 0 -173.5 20.5t-149.5 58.5l24 99q56 -38 132.5 -59t152.5 -21q137 0 224 79.5t87 217.5q0 152 -81 241t-214 89h-180v94h180q130 0 207.5 70.5t77.5 203.5q0 128 -85 204.5t-218 76.5
q-151 0 -283 -80l-22 92q141 84 319 84q173 0 285.5 -100t112.5 -271q0 -132 -62 -219t-172 -110z" />
    <glyph glyph-name="uni0418" unicode="&#x418;" horiz-adv-x="1124" 
d="M969 1434v-1434h-101v1202l-622 -1202h-90v1434h100v-1194l618 1194h95z" />
    <glyph glyph-name="uni0419" unicode="&#x419;" horiz-adv-x="1124" 
d="M561 1563q-90 0 -138 57t-48 172h80q0 -162 106 -162q109 0 109 162h78q0 -113 -47.5 -171t-139.5 -58zM256 240l618 1194h95v-1434h-101v1202l-622 -1202h-90v1434h100v-1194z" />
    <glyph glyph-name="uni041A" unicode="&#x41a;" horiz-adv-x="974" 
d="M928 0h-113l-338 666h-219v-666h-102v1434h102v-672h217l311 672h115l-340 -713z" />
    <glyph glyph-name="uni041B" unicode="&#x41b;" horiz-adv-x="1095" 
d="M33 -2v94q96 -10 135.5 107t48.5 422l25 813h698v-1434h-104v1341h-492l-25 -723q-7 -239 -35.5 -374t-88.5 -195t-162 -51z" />
    <glyph glyph-name="uni041C" unicode="&#x41c;" horiz-adv-x="1269" 
d="M635 475l389 959h90v-1434h-100v1159l-359 -872h-39l-360 872v-1159h-100v1434h90z" />
    <glyph glyph-name="uni041D" unicode="&#x41d;" horiz-adv-x="1126" 
d="M862 770v664h109v-1434h-109v676h-600v-676h-106v1434h106v-664h600z" />
    <glyph glyph-name="uni041E" unicode="&#x41e;" horiz-adv-x="1167" 
d="M584 -18q-222 0 -352 191.5t-130 543.5q0 343 129 539t353 196q222 0 351.5 -191.5t129.5 -543.5q0 -343 -128.5 -539t-352.5 -196zM584 82q171 0 269.5 163.5t98.5 471.5q0 299 -97.5 467t-270.5 168q-171 0 -270 -164t-99 -471q0 -299 98 -467t271 -168z" />
    <glyph glyph-name="uni041F" unicode="&#x41f;" horiz-adv-x="1095" 
d="M940 1434v-1434h-102v1339h-580v-1339h-102v1434h784z" />
    <glyph glyph-name="uni0420" unicode="&#x420;" horiz-adv-x="976" 
d="M446 1434q217 0 341 -121t124 -344q0 -218 -122 -343.5t-345 -125.5h-186v-500h-102v1434h290zM258 594h184q170 0 267.5 97t97.5 280q0 172 -95 270t-268 98h-186v-745z" />
    <glyph glyph-name="uni0421" unicode="&#x421;" horiz-adv-x="978" 
d="M606 -20q-224 0 -364 193.5t-140 541.5q0 335 135 535t367 200q81 0 150.5 -22t146.5 -72l-27 -94q-68 47 -129 68.5t-139 21.5q-176 0 -283.5 -164.5t-107.5 -470.5q0 -293 105.5 -465t287.5 -172q143 0 271 92l26 -98q-131 -94 -299 -94z" />
    <glyph glyph-name="uni0422" unicode="&#x422;" horiz-adv-x="841" 
d="M33 1434h774v-95h-334v-1339h-104v1339h-336v95z" />
    <glyph glyph-name="uni0423" unicode="&#x423;" horiz-adv-x="892" 
d="M446 500l289 934h111l-352 -1119l-41 -133q-35 -103 -89.5 -148.5t-142.5 -45.5q-82 0 -145 45l24 92q48 -41 119 -41q50 0 81.5 29.5t57.5 103.5l35 113l-346 1104h111l286 -934h2z" />
    <glyph glyph-name="uni0424" unicode="&#x424;" horiz-adv-x="1241" 
d="M1139 717q0 -258 -123 -409.5t-342 -155.5v-152h-105v152q-216 5 -341.5 153.5t-125.5 411.5q0 258 124 409.5t343 155.5v152h105v-152q215 -5 340 -153.5t125 -411.5zM211 717q0 -218 95 -344.5t263 -132.5v954q-166 -6 -262 -130.5t-96 -346.5zM674 1194v-954
q165 6 261.5 131t96.5 346q0 218 -95 343.5t-263 133.5z" />
    <glyph glyph-name="uni0425" unicode="&#x425;" horiz-adv-x="956" 
d="M541 735l368 -735h-112l-320 655l-315 -655h-115l365 733l-351 703h115l301 -623l301 623h113z" />
    <glyph glyph-name="uni0426" unicode="&#x426;" horiz-adv-x="1110" 
d="M975 0h-819v1434h102v-1340h580v1340h102v-1340h137v-336h-102v242z" />
    <glyph glyph-name="uni0427" unicode="&#x427;" horiz-adv-x="995" 
d="M737 666v768h103v-1434h-103v567q-145 -78 -313 -78q-141 0 -219 88.5t-78 258.5v598h102v-588q0 -128 59 -195t165 -67q156 0 284 82z" />
    <glyph glyph-name="uni0428" unicode="&#x428;" horiz-adv-x="1562" 
d="M1409 0h-1253v1434h102v-1342h471v1342h105v-1342h471v1342h104v-1434z" />
    <glyph glyph-name="uni0429" unicode="&#x429;" horiz-adv-x="1579" 
d="M1544 94v-336h-102v242h-1286v1434h102v-1342h471v1342h105v-1342h471v1342h104v-1340h135z" />
    <glyph glyph-name="uni042A" unicode="&#x42a;" horiz-adv-x="1083" 
d="M344 936h184q223 0 346 -126.5t123 -344.5q0 -223 -124.5 -344t-342.5 -121h-290v1341h-207v93h311v-498zM344 94h186q171 0 266 99.5t95 269.5q0 183 -96.5 281t-266.5 98h-184v-748z" />
    <glyph glyph-name="uni042B" unicode="&#x42b;" horiz-adv-x="1390" 
d="M260 936h184q223 0 346 -126.5t123 -344.5q0 -223 -125 -344t-342 -121h-290v1434h104v-498zM1133 0v1434h102v-1434h-102zM260 94h184q172 0 267.5 99.5t95.5 269.5q0 183 -97.5 281t-267.5 98h-182v-748z" />
    <glyph glyph-name="uni042C" unicode="&#x42c;" horiz-adv-x="976" 
d="M260 936h184q223 0 346 -126.5t123 -344.5q0 -223 -125 -344t-342 -121h-290v1434h104v-498zM260 94h184q172 0 267.5 99.5t95.5 269.5q0 183 -97.5 281t-267.5 98h-182v-748z" />
    <glyph glyph-name="uni042D" unicode="&#x42d;" horiz-adv-x="978" 
d="M377 1450q153 0 266.5 -91t173.5 -257t60 -387q0 -348 -140 -541.5t-364 -193.5q-168 0 -299 94l26 98q128 -92 271 -92q176 0 280.5 160.5t112.5 435.5h-535v88h535q-9 284 -115.5 436t-275.5 152q-78 0 -139.5 -21.5t-129.5 -68.5l-26 94q79 50 148 72t151 22z" />
    <glyph glyph-name="uni042E" unicode="&#x42e;" horiz-adv-x="1550" 
d="M967 1452q221 0 351 -194.5t130 -540.5q0 -336 -129 -535.5t-352 -199.5q-214 0 -343.5 183t-138.5 511h-227v-676h-102v1434h102v-666h227q11 315 139.5 499.5t342.5 184.5zM967 80q171 0 272.5 167t101.5 470q0 296 -100.5 466.5t-273.5 170.5q-171 0 -273 -167
t-102 -470q0 -296 100.5 -466.5t274.5 -170.5z" />
    <glyph glyph-name="uni042F" unicode="&#x42f;" horiz-adv-x="1001" 
d="M846 1434v-1434h-103v543h-192h-37l-317 -543h-117l323 559q-155 35 -237 146.5t-82 283.5q0 215 123.5 330t341.5 115h297zM553 637h190v702h-192q-175 0 -269 -92.5t-94 -257.5q0 -172 96 -262t269 -90z" />
    <glyph glyph-name="uni0430" unicode="&#x430;" horiz-adv-x="847" 
d="M391 1118q168 0 250 -94.5t82 -294.5v-729h-98v231q-37 -108 -116 -178.5t-190 -70.5q-118 0 -188 88t-70 243q0 158 76.5 244t227.5 86q139 0 258 -22v110q0 155 -60.5 225t-181.5 70q-122 0 -229 -57l-15 92q114 57 254 57zM350 76q117 0 191 106.5t82 253.5v103
q-107 22 -238 22q-227 0 -227 -244q0 -116 51 -178.5t141 -62.5z" />
    <glyph glyph-name="uni0431" unicode="&#x431;" horiz-adv-x="923" 
d="M475 -18q-166 0 -268 129.5t-117 363.5q-4 70 -4 141q0 180 23.5 315t60.5 219.5t98 144t120.5 89t143.5 52.5q14 4 41.5 11.5t39.5 11t33.5 10t35 12t30.5 14t33 18.5l15 -88q-22 -14 -49.5 -26t-46.5 -18t-56.5 -16t-54.5 -15q-92 -25 -153 -64t-108 -110.5
t-70.5 -182.5t-28.5 -274q29 121 112.5 204t198.5 83q151 0 242.5 -141.5t91.5 -370.5q0 -238 -95.5 -375t-267.5 -137zM477 72q118 0 189 107t71 313q0 189 -70 305t-192 116q-111 0 -194.5 -127t-83.5 -301q0 -64 10 -123t31.5 -112.5t53.5 -92.5t79.5 -62t105.5 -23z" />
    <glyph glyph-name="uni0432" unicode="&#x432;" horiz-adv-x="870" 
d="M557 563q106 -19 166.5 -91.5t60.5 -182.5q0 -132 -91 -210.5t-251 -78.5h-303v1100h285q150 0 237 -73.5t87 -205.5q0 -97 -50 -165t-141 -93zM412 1010h-172v-412h186q105 0 164 54.5t59 154.5q0 95 -60.5 149t-176.5 54zM240 92h194q118 0 184 53.5t66 155.5
q0 99 -63 156t-179 57h-202v-422z" />
    <glyph glyph-name="uni0433" unicode="&#x433;" horiz-adv-x="663" 
d="M139 0v1100h496v-88h-395v-1012h-101z" />
    <glyph glyph-name="uni0434" unicode="&#x434;" horiz-adv-x="978" 
d="M950 90v-295h-96v205h-729v-205h-96v295h59q50 34 77.5 121.5t33.5 263.5l20 625h619v-1010h112zM215 90h520v922h-418l-18 -531q-11 -283 -84 -391z" />
    <glyph glyph-name="uni0435" unicode="&#x435;" horiz-adv-x="888" 
d="M799 516h-613q9 -210 88.5 -325t212.5 -115q136 0 238 88l37 -82q-115 -100 -281 -100q-180 0 -287.5 151.5t-107.5 417.5q0 257 100.5 412t276.5 155q162 0 252 -141.5t90 -398.5q0 -10 -2.5 -33t-3.5 -29zM461 1026q-119 0 -192.5 -110.5t-80.5 -311.5h519
q-6 198 -68.5 310t-177.5 112z" />
    <glyph glyph-name="uni0436" unicode="&#x436;" horiz-adv-x="1224" 
d="M1174 0h-113l-256 504h-143v-504h-99v504h-143l-256 -504h-113l289 553l-266 547h110l234 -504h145v504h99v-504h145l231 504h113l-268 -547z" />
    <glyph glyph-name="uni0437" unicode="&#x437;" horiz-adv-x="718" 
d="M332 -18q-78 0 -153 22t-124 55l23 93q42 -32 104.5 -53t130.5 -21q103 0 169.5 62t66.5 163q0 99 -61.5 163t-161.5 64h-127v82h129q95 0 153 53.5t58 145.5q0 95 -63 155t-169 60q-117 0 -221 -68l-20 86q117 74 258 74q138 0 227.5 -81t89.5 -218q0 -93 -46 -160
t-124 -90q82 -24 131 -96t49 -180q0 -134 -90 -222.5t-229 -88.5z" />
    <glyph glyph-name="uni0438" unicode="&#x438;" horiz-adv-x="948" 
d="M809 1100v-1100h-100v881l-478 -881h-92v1100h101v-873l475 873h94z" />
    <glyph glyph-name="uni0439" unicode="&#x439;" horiz-adv-x="948" 
d="M475 1229q-90 0 -138 57t-48 172h80q0 -162 106 -162q109 0 109 162h78q0 -113 -47.5 -171t-139.5 -58zM240 227l475 873h94v-1100h-100v881l-478 -881h-92v1100h101v-873z" />
    <glyph glyph-name="uni043A" unicode="&#x43a;" horiz-adv-x="827" 
d="M776 0h-110l-258 504h-168v-504h-101v1100h101v-506h168l235 506h111l-269 -547z" />
    <glyph glyph-name="uni043B" unicode="&#x43b;" horiz-adv-x="923" 
d="M784 1100v-1100h-100v1012h-397l-15 -627q-6 -224 -61 -310t-182 -75v84q83 -1 109.5 62t31.5 249l18 705h596z" />
    <glyph glyph-name="uni043C" unicode="&#x43c;" horiz-adv-x="1073" 
d="M537 414l299 686h98v-1100h-100v860l-281 -635h-31l-282 635v-860h-101v1100h99z" />
    <glyph glyph-name="uni043D" unicode="&#x43d;" horiz-adv-x="944" 
d="M705 602v498h102v-1100h-102v512h-465v-512h-101v1100h101v-498h465z" />
    <glyph glyph-name="uni043E" unicode="&#x43e;" 
d="M473 -18q-179 0 -283 150.5t-104 418.5q0 261 104 414t283 153t285 -150t106 -415q0 -263 -104.5 -417t-286.5 -154zM475 78q131 0 209 125t78 348q0 217 -78 345t-211 128q-131 0 -209 -125t-78 -348q0 -217 78 -345t211 -128z" />
    <glyph glyph-name="uni043F" unicode="&#x43f;" horiz-adv-x="944" 
d="M805 1100v-1100h-100v1014h-465v-1014h-101v1100h666z" />
    <glyph glyph-name="uni0440" unicode="&#x440;" horiz-adv-x="989" 
d="M240 -350h-101v1450h101v-242q42 122 126.5 191t186.5 69q161 0 255.5 -151.5t94.5 -417.5q0 -273 -95 -420t-257 -147q-103 0 -185.5 70.5t-125.5 195.5v-598zM526 76q126 0 200.5 124.5t74.5 348.5q0 231 -75 354t-200 123q-123 0 -204.5 -133.5t-81.5 -343.5
q0 -212 80.5 -342.5t205.5 -130.5z" />
    <glyph glyph-name="uni0441" unicode="&#x441;" horiz-adv-x="790" 
d="M492 -18q-186 0 -296 150t-110 417q0 261 109.5 415t296.5 154q120 0 241 -74l-26 -90q-106 68 -211 68q-142 0 -226 -124.5t-84 -346.5q0 -219 83 -346t227 -127q109 0 213 67l24 -90q-116 -73 -241 -73z" />
    <glyph glyph-name="uni0442" unicode="&#x442;" horiz-adv-x="755" 
d="M70 1100h618v-92h-260v-1008h-100v1008h-258v92z" />
    <glyph glyph-name="uni0443" unicode="&#x443;" horiz-adv-x="872" 
d="M203 -369q-70 0 -133 29l22 86q63 -25 105 -25q57 0 92 41t67 136l29 90l-346 1112h104l293 -963h2l291 963h105l-373 -1206q-42 -139 -101.5 -201t-156.5 -62z" />
    <glyph glyph-name="uni0444" unicode="&#x444;" horiz-adv-x="1142" 
d="M1057 551q0 -167 -51.5 -293.5t-150 -197.5t-232.5 -72v-336h-101v336q-198 2 -317 151t-119 412q0 253 117 405.5t319 155.5v322h101v-322q198 -3 316 -151t118 -410zM186 551q0 -213 90 -340.5t246 -130.5v942q-154 -3 -245 -127t-91 -344zM623 1022v-942
q153 3 243 127t90 344q0 212 -88.5 340t-244.5 131z" />
    <glyph glyph-name="uni0445" unicode="&#x445;" horiz-adv-x="860" 
d="M494 561l315 -561h-113l-266 485l-268 -485h-111l316 565l-301 535h112l252 -459l252 459h113z" />
    <glyph glyph-name="uni0446" unicode="&#x446;" horiz-adv-x="948" 
d="M918 86v-295h-95v205h-684v1102h101v-1014h465v1014h100v-1012h113z" />
    <glyph glyph-name="uni0447" unicode="&#x447;" horiz-adv-x="919" 
d="M680 539v561h100v-1100h-100v440q-125 -104 -279 -104q-130 0 -210 99t-80 270v395h102v-385q0 -132 60 -208.5t159 -76.5q71 0 136 30t112 79z" />
    <glyph glyph-name="uni0448" unicode="&#x448;" horiz-adv-x="1331" 
d="M1092 90v1010h102v-1100h-1055v1100h101v-1010h376v1010h101v-1010h375z" />
    <glyph glyph-name="uni0449" unicode="&#x449;" horiz-adv-x="1335" 
d="M1307 90v-295h-97v205h-1071v1100h101v-1010h376v1010h101v-1010h375v1010h102v-1010h113z" />
    <glyph glyph-name="uni044A" unicode="&#x44a;" horiz-adv-x="882" 
d="M287 727h145q184 0 283.5 -95.5t99.5 -269.5t-99.5 -267t-281.5 -93h-248v1020h-182v80h283v-375zM287 90h145q137 0 209 69.5t72 202.5q0 134 -72.5 205.5t-210.5 71.5h-143v-549z" />
    <glyph glyph-name="uni044B" unicode="&#x44b;" horiz-adv-x="1206" 
d="M240 727h145q184 0 282.5 -96t98.5 -271q0 -174 -99 -267t-280 -93h-248v1100h101v-373zM967 0v1100h100v-1100h-100zM240 88h145q135 0 208 70t73 202q0 135 -73 207t-210 72h-143v-551z" />
    <glyph glyph-name="uni044C" unicode="&#x44c;" horiz-adv-x="827" 
d="M240 727h145q184 0 282.5 -96t98.5 -271q0 -174 -99 -267t-280 -93h-248v1100h101v-373zM240 88h145q135 0 208 70t73 202q0 135 -73 207t-210 72h-143v-551z" />
    <glyph glyph-name="uni044D" unicode="&#x44d;" horiz-adv-x="792" 
d="M299 1118q189 0 298.5 -153.5t109.5 -415.5q0 -266 -110.5 -416.5t-297.5 -150.5q-134 0 -242 88l35 84q98 -76 207 -76q135 0 216.5 115t90.5 315h-424v88h424q-9 201 -92 313.5t-215 112.5q-115 0 -205 -76l-37 86q111 86 242 86z" />
    <glyph glyph-name="uni044E" unicode="&#x44e;" horiz-adv-x="1333" 
d="M858 1118q176 0 282.5 -150t106.5 -415q0 -258 -104.5 -414.5t-284.5 -156.5q-170 0 -275 139.5t-114 388.5h-229v-510h-101v1100h101v-502h229q11 236 115 378t274 142zM860 78q130 0 208.5 125t78.5 348q0 216 -78 344.5t-211 128.5q-130 0 -208.5 -125t-78.5 -348
q0 -216 78 -344.5t211 -128.5z" />
    <glyph glyph-name="uni044F" unicode="&#x44f;" horiz-adv-x="841" 
d="M705 1100v-1100h-101v410h-158h-28l-242 -410h-110l251 426q-115 31 -178 117.5t-63 214.5q0 163 100.5 252.5t269.5 89.5h259zM449 500h155v510h-158q-127 0 -197.5 -67.5t-70.5 -186.5q0 -124 73.5 -190t197.5 -66z" />
    <glyph glyph-name="uni0450" unicode="&#x450;" horiz-adv-x="890" 
d="M375 1501l123 -239l-68 -11l-149 224zM788 516h-600q9 -210 87.5 -325t211.5 -115t242 74l21 -91q-115 -77 -273 -77q-180 0 -285.5 150.5t-105.5 418.5q0 257 100.5 412t276.5 155q158 0 251 -129t93 -340q0 -59 -19 -133zM188 602h517v10q8 184 -56 298t-186 114
q-120 0 -194 -110.5t-81 -311.5z" />
    <glyph glyph-name="uni0451" unicode="&#x451;" horiz-adv-x="890" 
d="M307 1464h80v-213h-80v213zM537 1464h77v-213h-77v213zM788 516h-600q9 -210 87.5 -325t211.5 -115t242 74l21 -91q-115 -77 -273 -77q-180 0 -285.5 150.5t-105.5 418.5q0 257 100.5 412t276.5 155q158 0 251 -129t93 -340q0 -59 -19 -133zM188 602h517v10
q8 184 -56 298t-186 114q-120 0 -194 -110.5t-81 -311.5z" />
    <glyph glyph-name="uni0452" unicode="&#x452;" horiz-adv-x="993" 
d="M866 737v-737h-2v-63q0 -281 -248 -281q-41 0 -96 25l12 92q38 -23 74 -23q158 0 158 195v352q0 125 2 166v274q0 142 -55.5 214.5t-157.5 72.5q-104 0 -176 -90.5t-90 -261.5v-672h-101v1233h-141v92h141v186h101v-186h227v-92h-227v-338q40 106 116 164.5t177 58.5
q137 0 211.5 -97t74.5 -284z" />
    <glyph glyph-name="uni0453" unicode="&#x453;" horiz-adv-x="663" 
d="M563 1475l-149 -224l-68 11l123 239zM139 0v1100h496v-88h-395v-1012h-101z" />
    <glyph glyph-name="uni0454" unicode="&#x454;" horiz-adv-x="790" 
d="M496 78q109 0 213 67l24 -90q-116 -73 -241 -73q-186 0 -296 150t-110 417q0 261 109.5 415t296.5 154q120 0 241 -74l-26 -90q-106 68 -211 68q-134 0 -217.5 -112.5t-92.5 -313.5h424v-88h-424q9 -200 91.5 -315t218.5 -115z" />
    <glyph glyph-name="uni0455" unicode="&#x455;" horiz-adv-x="737" 
d="M346 -18q-136 0 -283 67l19 98q129 -71 262 -71q100 0 162 52.5t61 141.5q0 90 -55 149t-172 116q-126 56 -188 128t-62 175q0 129 83.5 204.5t221.5 75.5q115 0 236 -59l-17 -96q-104 61 -217 61q-95 0 -149.5 -48.5t-54.5 -131.5q0 -77 52 -133t161 -109
q135 -65 199.5 -142.5t64.5 -189.5q0 -130 -88.5 -209t-235.5 -79z" />
    <glyph glyph-name="uni0456" unicode="&#x456;" horiz-adv-x="378" 
d="M238 1249h-107v215h107v-215zM240 0h-101v1100h101v-1100z" />
    <glyph glyph-name="uni0457" unicode="&#x457;" horiz-adv-x="378" 
d="M115 1251h-80v213h80v-213zM342 1251h-78v213h78v-213zM240 0h-101v1100h101v-1100z" />
    <glyph glyph-name="uni0458" unicode="&#x458;" horiz-adv-x="395" 
d="M254 1249h-107v215h107v-215zM-37 -348l2 86h64q62 0 94.5 41.5t32.5 138.5v1182h100v-1184q0 -270 -213 -270q-46 0 -80 6z" />
    <glyph glyph-name="uni0459" unicode="&#x459;" horiz-adv-x="1368" 
d="M778 727h123q184 0 282.5 -96t98.5 -271q0 -174 -98.5 -267t-280.5 -93h-223v1012h-393l-15 -623q-6 -226 -60.5 -310.5t-182.5 -78.5v84q83 -1 109.5 64t31.5 253l18 699h590v-373zM778 88h123q137 0 209 69.5t72 202.5q0 135 -73 207t-208 72h-123v-551z" />
    <glyph glyph-name="uni045A" unicode="&#x45a;" horiz-adv-x="1392" 
d="M805 678h127q173 0 275 -88.5t102 -239.5q0 -165 -97 -257.5t-276 -92.5h-231v588h-465v-588h-101v1100h101v-422h465v422h100v-422zM805 92h129q132 0 203 67t71 189q0 110 -73.5 175t-202.5 65h-127v-496z" />
    <glyph glyph-name="uni045B" unicode="&#x45b;" horiz-adv-x="948" 
d="M541 1118q135 0 209.5 -97t74.5 -284v-737h-100v737q0 142 -55.5 214.5t-155.5 72.5q-105 0 -177.5 -91.5t-90.5 -264.5v-668h-101v1233h-139v92h139v186h101v-186h229v-92h-229v-338q42 105 118.5 164t176.5 59z" />
    <glyph glyph-name="uni045C" unicode="&#x45c;" horiz-adv-x="827" 
d="M498 1501l94 -26l-150 -224l-67 11zM776 0h-110l-258 504h-168v-504h-101v1100h101v-506h168l235 506h111l-269 -547z" />
    <glyph glyph-name="uni045D" unicode="&#x45d;" horiz-adv-x="948" 
d="M512 1262l-68 -11l-149 224l94 26zM809 1100v-1100h-100v881l-478 -881h-92v1100h101v-873l475 873h94z" />
    <glyph glyph-name="uni045E" unicode="&#x45e;" horiz-adv-x="872" 
d="M436 1229q-90 0 -138 57t-48 172h80q0 -162 106 -162q109 0 109 162h78q0 -113 -47.5 -171t-139.5 -58zM438 137l291 963h105l-373 -1206q-42 -139 -101.5 -201t-156.5 -62q-70 0 -133 29l22 86q63 -25 105 -25q57 0 92 41t67 136l29 90l-346 1112h104l293 -963h2z" />
    <glyph glyph-name="uni045F" unicode="&#x45f;" horiz-adv-x="944" 
d="M705 88v1012h100v-1100h-283v-246h-100v246h-283v1100h101v-1012h465z" />
    <glyph glyph-name="uni0474" unicode="&#x474;" horiz-adv-x="1058" 
d="M578 0h-121l-410 1434h105l364 -1276h2l273 1018q78 276 239 276v-102q-79 0 -143 -195z" />
    <glyph glyph-name="uni0474" unicode="&#x475;" horiz-adv-x="1058" 
d="M578 0h-121l-410 1434h105l364 -1276h2l273 1018q78 276 239 276v-102q-79 0 -143 -195z" />
    <glyph glyph-name="uni0490" unicode="&#x490;" horiz-adv-x="831" 
d="M696 1675h103v-241h-2v-95h-535v-1339h-106v1434h540v241z" />
    <glyph glyph-name="uni0491" unicode="&#x491;" horiz-adv-x="663" 
d="M543 1100v200h92v-288h-395v-1012h-101v1100h404z" />
    <glyph glyph-name="uni04D9" unicode="&#x4d9;" horiz-adv-x="890" 
d="M408 1118q180 0 287.5 -151.5t107.5 -417.5q0 -257 -100.5 -412t-276.5 -155q-162 0 -252 141.5t-90 398.5q0 10 2.5 33t3.5 29h612q-9 210 -88.5 325t-212.5 115q-135 0 -237 -88l-37 82q115 100 281 100zM428 74q119 0 192 110.5t80 311.5h-518q6 -198 68.5 -310
t177.5 -112z" />
    <glyph glyph-name="uni1E0C" unicode="&#x1e0c;" horiz-adv-x="1140" 
d="M459 0h-303v1434h303q277 0 428 -186t151 -531t-151 -531t-428 -186zM258 1341v-1247h197q227 0 349 161t122 462q0 302 -122 463t-351 161h-195zM446 -313v213h105v-213h-105z" />
    <glyph glyph-name="uni1E0D" unicode="&#x1e0d;" horiz-adv-x="999" 
d="M440 -18q-161 0 -255.5 151.5t-94.5 417.5q0 273 95 420t257 147q103 0 186 -70t126 -194v657h100v-1511h-100v244q-42 -122 -127 -192t-187 -70zM467 74q123 0 205 132.5t82 336.5q0 216 -79.5 348.5t-207.5 132.5q-126 0 -200 -124.5t-74 -348.5q0 -232 74.5 -354.5
t199.5 -122.5zM426 -313v213h104v-213h-104z" />
    <glyph glyph-name="uni1E0E" unicode="&#x1e0e;" horiz-adv-x="1140" 
d="M459 0h-303v1434h303q277 0 428 -186t151 -531t-151 -531t-428 -186zM258 1341v-1247h197q227 0 349 161t122 462q0 302 -122 463t-351 161h-195zM719 -238h-440v76h440v-76z" />
    <glyph glyph-name="uni1E0F" unicode="&#x1e0f;" horiz-adv-x="999" 
d="M440 -18q-161 0 -255.5 151.5t-94.5 417.5q0 273 95 420t257 147q103 0 186 -70t126 -194v657h100v-1511h-100v244q-42 -122 -127 -192t-187 -70zM467 74q123 0 205 132.5t82 336.5q0 216 -79.5 348.5t-207.5 132.5q-126 0 -200 -124.5t-74 -348.5q0 -232 74.5 -354.5
t199.5 -122.5zM698 -238h-440v76h440v-76z" />
    <glyph glyph-name="uni1E20" unicode="&#x1e20;" horiz-adv-x="1069" 
d="M387 1659h440v-76h-440v76zM694 633v94h267v-606q-168 -139 -377 -139q-224 0 -353 191t-129 542q0 354 135 545.5t369 191.5q166 0 305 -90l-26 -96q-131 88 -275 88q-189 0 -292 -163t-103 -474q0 -308 98.5 -472.5t274.5 -164.5q153 0 270 94v459h-164z" />
    <glyph glyph-name="uni1E21" unicode="&#x1e21;" horiz-adv-x="864" 
d="M225 1364h441v-76h-441v76zM330 221h184q144 0 225.5 -67.5t81.5 -190.5q0 -149 -104 -239.5t-291 -90.5q-158 0 -249 73t-91 208q0 68 36 128.5t99 102.5q-96 46 -96 174q0 53 26.5 98t71.5 70q-96 96 -96 277q0 163 82 258.5t229 95.5q88 0 144 -33l190 52l27 -78
l-137 -37q90 -93 90 -258q0 -163 -82.5 -259.5t-229.5 -96.5q-93 0 -155 36q-68 -44 -68 -108q0 -53 29 -84t84 -31zM438 1030q-101 0 -157 -68.5t-56 -195.5q0 -125 56 -197.5t157 -72.5t158 70t57 198q0 123 -56 194.5t-159 71.5zM432 -274q135 0 211 60.5t76 168.5
q0 84 -57.5 129t-165.5 45h-193h-12q-111 -87 -111 -203q0 -96 66 -148t186 -52z" />
    <glyph glyph-name="uni1E24" unicode="&#x1e24;" horiz-adv-x="1126" 
d="M862 770v664h109v-1434h-109v676h-600v-676h-106v1434h106v-664h600zM616 -313h-104v213h104v-213z" />
    <glyph glyph-name="uni1E25" unicode="&#x1e25;" horiz-adv-x="948" 
d="M541 1118q135 0 209.5 -97t74.5 -284v-737h-100v737q0 142 -55.5 214.5t-155.5 72.5q-105 0 -177.5 -91.5t-90.5 -264.5v-668h-101v1511h101v-616q42 105 118.5 164t176.5 59zM541 -313h-105v213h105v-213z" />
    <glyph glyph-name="uni1E2A" unicode="&#x1e2a;" horiz-adv-x="1126" 
d="M862 770v664h109v-1434h-109v676h-600v-676h-106v1434h106v-664h600zM557 -213q105 0 105 133h75q0 -92 -46 -140t-134 -48q-85 0 -131.5 46.5t-46.5 141.5h76q0 -133 102 -133z" />
    <glyph glyph-name="uni1E2B" unicode="&#x1e2b;" horiz-adv-x="948" 
d="M541 1118q135 0 209.5 -97t74.5 -284v-737h-100v737q0 142 -55.5 214.5t-155.5 72.5q-105 0 -177.5 -91.5t-90.5 -264.5v-668h-101v1511h101v-616q42 105 118.5 164t176.5 59zM481 -213q105 0 105 133h76q0 -92 -46.5 -140t-134.5 -48q-85 0 -131.5 46.5t-46.5 141.5h76
q0 -133 102 -133z" />
    <glyph glyph-name="uni1E36" unicode="&#x1e36;" horiz-adv-x="829" 
d="M797 0h-641v1434h106v-1340h535v-94zM379 -313v213h104v-213h-104z" />
    <glyph glyph-name="uni1E37" unicode="&#x1e37;" horiz-adv-x="391" 
d="M246 0h-101v1511h101v-1511zM143 -313v213h105v-213h-105z" />
    <glyph glyph-name="uni1E38" unicode="&#x1e38;" horiz-adv-x="829" 
d="M471 1583h-440v76h440v-76zM797 0h-641v1434h106v-1340h535v-94zM379 -313v213h104v-213h-104z" />
    <glyph glyph-name="uni1E39" unicode="&#x1e39;" horiz-adv-x="391" 
d="M416 1661h-441v76h441v-76zM246 0h-101v1511h101v-1511zM143 -313v213h105v-213h-105z" />
    <glyph glyph-name="uni1E3A" unicode="&#x1e3a;" horiz-adv-x="829" 
d="M797 0h-641v1434h106v-1340h535v-94zM651 -238h-440v76h440v-76z" />
    <glyph glyph-name="uni1E3B" unicode="&#x1e3b;" horiz-adv-x="391" 
d="M246 0h-101v1511h101v-1511zM416 -238h-441v76h441v-76z" />
    <glyph glyph-name="uni1E42" unicode="&#x1e42;" horiz-adv-x="1343" 
d="M1049 1434h104l66 -1434h-101l-53 1149l-371 -1147h-47l-368 1147l-54 -1149h-100l65 1434h107l375 -1174zM725 -313h-104v213h104v-213z" />
    <glyph glyph-name="uni1E43" unicode="&#x1e43;" horiz-adv-x="1443" 
d="M1059 1118q127 0 194.5 -95.5t67.5 -281.5v-741h-100v739q0 141 -49.5 213t-141.5 72q-96 0 -165.5 -91t-84.5 -239v-694h-100v739q0 285 -188 285q-97 0 -167 -94.5t-85 -243.5v-686h-101v1100h101v-205q41 104 113 163.5t165 59.5q206 0 250 -237q40 110 117 173.5
t174 63.5zM788 -313h-104v213h104v-213z" />
    <glyph glyph-name="uni1E44" unicode="&#x1e44;" horiz-adv-x="1138" 
d="M618 1532h-106v207h106v-207zM256 0h-100v1434h96l629 -1196v1196h102v-1434h-94l-633 1204v-1204z" />
    <glyph glyph-name="uni1E45" unicode="&#x1e45;" horiz-adv-x="942" 
d="M430 1464h107v-215h-107v215zM532 1118q137 0 212 -97t75 -284v-737h-100v737q0 142 -55.5 214.5t-155.5 72.5q-96 0 -168.5 -85.5t-99.5 -244.5v-694h-101v1100h101v-221q40 112 116 175.5t176 63.5z" />
    <glyph glyph-name="uni1E46" unicode="&#x1e46;" horiz-adv-x="1138" 
d="M256 0h-100v1434h96l629 -1196v1196h102v-1434h-94l-633 1204v-1204zM518 -313v213h105v-213h-105z" />
    <glyph glyph-name="uni1E47" unicode="&#x1e47;" horiz-adv-x="942" 
d="M532 1118q137 0 212 -97t75 -284v-737h-100v737q0 142 -55.5 214.5t-155.5 72.5q-96 0 -168.5 -85.5t-99.5 -244.5v-694h-101v1100h101v-221q40 112 116 175.5t176 63.5zM545 -313h-105v213h105v-213z" />
    <glyph glyph-name="uni1E48" unicode="&#x1e48;" horiz-adv-x="1138" 
d="M256 0h-100v1434h96l629 -1196v1196h102v-1434h-94l-633 1204v-1204zM791 -238h-441v76h441v-76z" />
    <glyph glyph-name="uni1E49" unicode="&#x1e49;" horiz-adv-x="942" 
d="M532 1118q137 0 212 -97t75 -284v-737h-100v737q0 142 -55.5 214.5t-155.5 72.5q-96 0 -168.5 -85.5t-99.5 -244.5v-694h-101v1100h101v-221q40 112 116 175.5t176 63.5zM711 -238h-441v76h441v-76z" />
    <glyph glyph-name="uni1E5A" unicode="&#x1e5a;" horiz-adv-x="1001" 
d="M618 563l304 -563h-117l-295 545q-20 -2 -59 -2h-193v-543h-102v1434h297q220 0 342.5 -114.5t122.5 -330.5q0 -167 -76.5 -276.5t-223.5 -149.5zM258 637h191q173 0 268.5 90t95.5 262q0 165 -93.5 257.5t-268.5 92.5h-193v-702zM553 -313h-104v213h104v-213z" />
    <glyph glyph-name="uni1E5B" unicode="&#x1e5b;" horiz-adv-x="598" 
d="M496 1116q31 0 73 -10l-10 -111q-34 11 -76 11q-120 0 -181.5 -114.5t-61.5 -330.5v-561h-101v1100h101v-207q68 223 256 223zM244 -313h-105v213h105v-213z" />
    <glyph glyph-name="uni1E5C" unicode="&#x1e5c;" horiz-adv-x="1001" 
d="M281 1659h440v-76h-440v76zM618 563l304 -563h-117l-295 545q-20 -2 -59 -2h-193v-543h-102v1434h297q220 0 342.5 -114.5t122.5 -330.5q0 -167 -76.5 -276.5t-223.5 -149.5zM258 637h191q173 0 268.5 90t95.5 262q0 165 -93.5 257.5t-268.5 92.5h-193v-702zM553 -313
h-104v213h104v-213z" />
    <glyph glyph-name="uni1E5D" unicode="&#x1e5d;" horiz-adv-x="598" 
d="M57 1364h441v-76h-441v76zM496 1116q31 0 73 -10l-10 -111q-34 11 -76 11q-120 0 -181.5 -114.5t-61.5 -330.5v-561h-101v1100h101v-207q68 223 256 223zM244 -313h-105v213h105v-213z" />
    <glyph glyph-name="uni1E5E" unicode="&#x1e5e;" horiz-adv-x="1001" 
d="M618 563l304 -563h-117l-295 545q-20 -2 -59 -2h-193v-543h-102v1434h297q220 0 342.5 -114.5t122.5 -330.5q0 -167 -76.5 -276.5t-223.5 -149.5zM258 637h191q173 0 268.5 90t95.5 262q0 165 -93.5 257.5t-268.5 92.5h-193v-702zM721 -238h-440v76h440v-76z" />
    <glyph glyph-name="uni1E5F" unicode="&#x1e5f;" horiz-adv-x="598" 
d="M496 1116q31 0 73 -10l-10 -111q-34 11 -76 11q-120 0 -181.5 -114.5t-61.5 -330.5v-561h-101v1100h101v-207q68 223 256 223zM412 -238h-441v76h441v-76z" />
    <glyph glyph-name="uni1E60" unicode="&#x1e60;" horiz-adv-x="897" 
d="M506 1532h-107v207h107v-207zM410 -20q-181 0 -340 90l16 100q153 -90 317 -90q136 0 219 66t83 196q0 68 -21 122t-65 97t-88.5 72.5t-114.5 66.5q-151 79 -235.5 175t-84.5 227q0 164 102 256t269 92q152 0 301 -76l-16 -102q-138 78 -275 78q-124 0 -198 -62.5
t-74 -185.5q0 -101 68.5 -173.5t205.5 -148.5q77 -41 131 -79t103.5 -90.5t74.5 -119.5t25 -149q0 -169 -110.5 -265.5t-292.5 -96.5z" />
    <glyph glyph-name="uni1E61" unicode="&#x1e61;" horiz-adv-x="737" 
d="M418 1249h-107v215h107v-215zM346 -18q-136 0 -283 67l19 98q129 -71 262 -71q100 0 162 52.5t61 141.5q0 90 -55 149t-172 116q-126 56 -188 128t-62 175q0 129 83.5 204.5t221.5 75.5q115 0 236 -59l-17 -96q-104 61 -217 61q-95 0 -149.5 -48.5t-54.5 -131.5
q0 -77 52 -133t161 -109q135 -65 199.5 -142.5t64.5 -189.5q0 -130 -88.5 -209t-235.5 -79z" />
    <glyph glyph-name="uni1E62" unicode="&#x1e62;" horiz-adv-x="897" 
d="M410 -20q-181 0 -340 90l16 100q153 -90 317 -90q136 0 219 66t83 196q0 68 -21 122t-65 97t-88.5 72.5t-114.5 66.5q-151 79 -235.5 175t-84.5 227q0 164 102 256t269 92q152 0 301 -76l-16 -102q-138 78 -275 78q-124 0 -198 -62.5t-74 -185.5q0 -101 68.5 -173.5
t205.5 -148.5q77 -41 131 -79t103.5 -90.5t74.5 -119.5t25 -149q0 -169 -110.5 -265.5t-292.5 -96.5zM389 -313v213h105v-213h-105z" />
    <glyph glyph-name="uni1E63" unicode="&#x1e63;" horiz-adv-x="737" 
d="M346 -18q-136 0 -283 67l19 98q129 -71 262 -71q100 0 162 52.5t61 141.5q0 90 -55 149t-172 116q-126 56 -188 128t-62 175q0 129 83.5 204.5t221.5 75.5q115 0 236 -59l-17 -96q-104 61 -217 61q-95 0 -149.5 -48.5t-54.5 -131.5q0 -77 52 -133t161 -109
q135 -65 199.5 -142.5t64.5 -189.5q0 -130 -88.5 -209t-235.5 -79zM317 -313v213h105v-213h-105z" />
    <glyph glyph-name="uni1E6C" unicode="&#x1e6c;" horiz-adv-x="841" 
d="M33 1339v95h774v-95h-334v-1339h-104v1339h-336zM475 -313h-104v213h104v-213z" />
    <glyph glyph-name="uni1E6D" unicode="&#x1e6d;" horiz-adv-x="638" 
d="M401 -18q-103 0 -159 66t-56 190v770h-116v61l24 35l144 213h49v-217h266v-92h-266v-754q0 -79 34 -128.5t93 -49.5q82 0 143 39l21 -88q-79 -45 -177 -45zM322 -319v213h104v-213h-104z" />
    <glyph glyph-name="uni1E6E" unicode="&#x1e6e;" horiz-adv-x="841" 
d="M33 1339v95h774v-95h-334v-1339h-104v1339h-336zM641 -238h-440v76h440v-76z" />
    <glyph glyph-name="uni1E6F" unicode="&#x1e6f;" horiz-adv-x="638" 
d="M401 -18q-103 0 -159 66t-56 190v770h-116v61l24 35l144 213h49v-217h266v-92h-266v-754q0 -79 34 -128.5t93 -49.5q82 0 143 39l21 -88q-79 -45 -177 -45zM594 -244h-440v76h440v-76z" />
    <glyph glyph-name="Wgrave" unicode="&#x1e80;" horiz-adv-x="1497" 
d="M653 1761l140 -219l-72 -10l-162 203zM1081 174l265 1260h106l-309 -1434h-121l-272 1169l-273 -1169h-121l-309 1434h109l264 -1260l282 1260h95z" />
    <glyph glyph-name="wgrave" unicode="&#x1e81;" horiz-adv-x="1298" 
d="M567 1501l123 -239l-67 -11l-150 224zM924 158l229 942h104l-274 -1100h-113l-221 891l-221 -891h-111l-276 1100h106l228 -942l229 942h90z" />
    <glyph glyph-name="Wacute" unicode="&#x1e82;" horiz-adv-x="1497" 
d="M846 1761l94 -26l-160 -203l-73 10zM1081 174l265 1260h106l-309 -1434h-121l-272 1169l-273 -1169h-121l-309 1434h109l264 -1260l282 1260h95z" />
    <glyph glyph-name="wacute" unicode="&#x1e83;" horiz-adv-x="1298" 
d="M733 1501l94 -26l-149 -224l-68 11zM924 158l229 942h104l-274 -1100h-113l-221 891l-221 -891h-111l-276 1100h106l228 -942l229 942h90z" />
    <glyph glyph-name="Wdieresis" unicode="&#x1e84;" horiz-adv-x="1497" 
d="M580 1724h100v-204h-100v204zM817 1724h101v-204h-101v204zM1081 174l265 1260h106l-309 -1434h-121l-272 1169l-273 -1169h-121l-309 1434h109l264 -1260l282 1260h95z" />
    <glyph glyph-name="wdieresis" unicode="&#x1e85;" horiz-adv-x="1298" 
d="M498 1464h80v-213h-80v213zM727 1464h78v-213h-78v213zM924 158l229 942h104l-274 -1100h-113l-221 891l-221 -891h-111l-276 1100h106l228 -942l229 942h90z" />
    <glyph glyph-name="uni1E8E" unicode="&#x1e8e;" horiz-adv-x="960" 
d="M424 1739h106v-207h-106v207zM815 1434h109l-392 -990v-444h-104v444l-391 990h110l334 -846z" />
    <glyph glyph-name="uni1E8F" unicode="&#x1e8f;" horiz-adv-x="872" 
d="M379 1464h106v-215h-106v215zM436 133l293 967h105l-342 -1100l-109 -350h-107l107 342l-344 1108h104l291 -967h2z" />
    <glyph glyph-name="uni1E92" unicode="&#x1e92;" horiz-adv-x="884" 
d="M819 0h-758v68l631 1271h-616v95h745v-66l-633 -1274h631v-94zM391 -313v213h105v-213h-105z" />
    <glyph glyph-name="uni1E93" unicode="&#x1e93;" horiz-adv-x="765" 
d="M705 0h-646v63l508 945h-495v92h622v-62l-508 -946h519v-92zM332 -313v213h104v-213h-104z" />
    <glyph glyph-name="uni1E97" unicode="&#x1e97;" horiz-adv-x="638" 
d="M176 1446h-80v213h80v-213zM403 1446h-77v213h77v-213zM401 -18q-103 0 -159 66t-56 190v770h-116v61l24 35l144 213h49v-217h266v-92h-266v-754q0 -79 34 -128.5t93 -49.5q82 0 143 39l21 -88q-79 -45 -177 -45z" />
    <glyph glyph-name="uni1E9E" unicode="&#x1e9e;" horiz-adv-x="1103" 
d="M899 1323l-141 -537q129 -47 195.5 -154t66.5 -257q0 -183 -92 -289t-258 -106q-161 0 -297 104l24 90q133 -100 271 -100q116 0 180.5 80.5t64.5 222.5q0 271 -272 348l139 549q-152 82 -291 82q-123 0 -190.5 -90t-67.5 -248v-1018h-104v1030q0 197 94 308.5t264 111.5
q95 0 203.5 -33t210.5 -94z" />
    <glyph glyph-name="uni1EA0" unicode="&#x1ea0;" horiz-adv-x="1075" 
d="M600 1434l428 -1434h-108l-103 348h-559l-102 -348h-109l426 1434h127zM537 1290l-248 -841h497zM590 -313h-105v213h105v-213z" />
    <glyph glyph-name="uni1EA1" unicode="&#x1ea1;" horiz-adv-x="847" 
d="M391 1118q168 0 250 -94.5t82 -294.5v-729h-98v231q-37 -108 -116 -178.5t-190 -70.5q-118 0 -188 88t-70 243q0 158 76.5 244t227.5 86q139 0 258 -22v110q0 155 -60.5 225t-181.5 70q-122 0 -229 -57l-15 92q114 57 254 57zM350 76q117 0 191 106.5t82 253.5v103
q-107 22 -238 22q-227 0 -227 -244q0 -116 51 -178.5t141 -62.5zM424 -313h-105v213h105v-213z" />
    <glyph glyph-name="uni1EA2" unicode="&#x1ea2;" horiz-adv-x="1075" 
d="M563 1702q0 45 -37.5 61.5t-87.5 -10.5l-10 57q83 44 148 15t65 -105q0 -97 -113 -170l-41 43q76 49 76 109zM1028 0h-108l-103 348h-559l-102 -348h-109l426 1434h127zM537 1290l-248 -841h497z" />
    <glyph glyph-name="uni1EA3" unicode="&#x1ea3;" horiz-adv-x="847" 
d="M432 1374q0 45 -38 61.5t-87 -10.5l-10 58q83 44 148 15t65 -105q0 -97 -113 -170l-41 43q76 49 76 108zM391 1118q168 0 250 -94.5t82 -294.5v-729h-98v231q-37 -108 -116 -178.5t-190 -70.5q-118 0 -188 88t-70 243q0 158 76.5 244t227.5 86q139 0 258 -22v110
q0 155 -60.5 225t-181.5 70q-122 0 -229 -57l-15 92q114 57 254 57zM350 76q117 0 191 106.5t82 253.5v103q-107 22 -238 22q-227 0 -227 -244q0 -116 51 -178.5t141 -62.5z" />
    <glyph glyph-name="uni1EA4" unicode="&#x1ea4;" horiz-adv-x="1075" 
d="M829 1901l70 -33l-147 -154l-52 19zM643 1556l-106 220l-107 -220l-82 13l127 260h123l127 -260zM1028 0h-108l-103 348h-559l-102 -348h-109l426 1434h127zM537 1290l-248 -841h497z" />
    <glyph glyph-name="uni1EA5" unicode="&#x1ea5;" horiz-adv-x="847" 
d="M696 1573l70 -33l-145 -154l-52 19zM510 1229l-107 221l-106 -221l-82 12l127 260h123l127 -260zM391 1118q168 0 250 -94.5t82 -294.5v-729h-98v231q-37 -108 -116 -178.5t-190 -70.5q-118 0 -188 88t-70 243q0 158 76.5 244t227.5 86q139 0 258 -22v110
q0 155 -60.5 225t-181.5 70q-122 0 -229 -57l-15 92q114 57 254 57zM350 76q117 0 191 106.5t82 253.5v103q-107 22 -238 22q-227 0 -227 -244q0 -116 51 -178.5t141 -62.5z" />
    <glyph glyph-name="uni1EA6" unicode="&#x1ea6;" horiz-adv-x="1075" 
d="M285 1870l110 -180l-53 -15l-131 166zM530 1712l-106 -219l-82 10l127 260h123l127 -260l-82 -10zM1028 0h-108l-103 348h-559l-102 -348h-109l426 1434h127zM537 1290l-248 -841h497z" />
    <glyph glyph-name="uni1EA7" unicode="&#x1ea7;" horiz-adv-x="847" 
d="M158 1606l110 -181l-51 -12l-131 166zM403 1450l-106 -221l-82 12l127 260h123l127 -260l-82 -12zM391 1118q168 0 250 -94.5t82 -294.5v-729h-98v231q-37 -108 -116 -178.5t-190 -70.5q-118 0 -188 88t-70 243q0 158 76.5 244t227.5 86q139 0 258 -22v110
q0 155 -60.5 225t-181.5 70q-122 0 -229 -57l-15 92q114 57 254 57zM350 76q117 0 191 106.5t82 253.5v103q-107 22 -238 22q-227 0 -227 -244q0 -116 51 -178.5t141 -62.5z" />
    <glyph glyph-name="uni1EA8" unicode="&#x1ea8;" horiz-adv-x="1075" 
d="M786 1812q0 34 -28.5 47t-65.5 -8l-8 45q63 34 113.5 11.5t50.5 -80.5q0 -72 -88 -131l-31 33q57 40 57 83zM641 1559l-106 219l-107 -219l-82 12l127 258h123l127 -258zM1028 0h-108l-103 348h-559l-102 -348h-109l426 1434h127zM537 1290l-248 -841h497z" />
    <glyph glyph-name="uni1EA9" unicode="&#x1ea9;" horiz-adv-x="847" 
d="M655 1485q0 33 -28.5 45.5t-65.5 -8.5l-8 45q63 34 113.5 11t50.5 -81q0 -74 -88 -129l-31 33q57 35 57 84zM510 1229l-107 221l-106 -221l-82 12l127 260h123l127 -260zM391 1118q168 0 250 -94.5t82 -294.5v-729h-98v231q-37 -108 -116 -178.5t-190 -70.5
q-118 0 -188 88t-70 243q0 158 76.5 244t227.5 86q139 0 258 -22v110q0 155 -60.5 225t-181.5 70q-122 0 -229 -57l-15 92q114 57 254 57zM350 76q117 0 191 106.5t82 253.5v103q-107 22 -238 22q-227 0 -227 -244q0 -116 51 -178.5t141 -62.5z" />
    <glyph glyph-name="uni1EAA" unicode="&#x1eaa;" horiz-adv-x="1075" 
d="M410 1858l-58 12q-3 81 25 127.5t78 46.5q32 0 63 -25t56.5 -50t46.5 -25q29 0 44.5 27.5t14.5 76.5l57 -10q2 -83 -24.5 -128.5t-75.5 -45.5q-26 0 -51 15.5t-41.5 33.5t-37.5 33.5t-38 15.5q-28 0 -44 -27.5t-15 -76.5zM645 1552l-106 220l-109 -220l-82 11l127 260
h125l127 -260zM1028 0h-108l-103 348h-559l-102 -348h-109l426 1434h127zM537 1290l-248 -841h497z" />
    <glyph glyph-name="uni1EAB" unicode="&#x1eab;" horiz-adv-x="847" 
d="M279 1530l-58 12q-3 82 25 128t78 46q32 0 62.5 -25t56 -50t46.5 -25q29 0 45 27.5t15 76.5l57 -10q2 -83 -24.5 -128.5t-75.5 -45.5q-26 0 -51 15.5t-41.5 34.5t-37.5 34.5t-38 15.5q-28 0 -44 -28t-15 -78zM514 1225l-106 219l-109 -219l-82 12l127 258h125l127 -258z
M391 1118q168 0 250 -94.5t82 -294.5v-729h-98v231q-37 -108 -116 -178.5t-190 -70.5q-118 0 -188 88t-70 243q0 158 76.5 244t227.5 86q139 0 258 -22v110q0 155 -60.5 225t-181.5 70q-122 0 -229 -57l-15 92q114 57 254 57zM350 76q117 0 191 106.5t82 253.5v103
q-107 22 -238 22q-227 0 -227 -244q0 -116 51 -178.5t141 -62.5z" />
    <glyph glyph-name="uni1EAC" unicode="&#x1eac;" horiz-adv-x="1075" 
d="M653 1526l-116 203l-117 -203l-90 10l139 240h135l137 -240zM600 1434l428 -1434h-108l-103 348h-559l-102 -348h-109l426 1434h127zM537 1290l-248 -841h497zM590 -313h-105v213h105v-213z" />
    <glyph glyph-name="uni1EAD" unicode="&#x1ead;" horiz-adv-x="847" 
d="M510 1231l-107 219l-106 -219l-82 10l127 260h123l127 -260zM391 1118q168 0 250 -94.5t82 -294.5v-729h-98v231q-37 -108 -116 -178.5t-190 -70.5q-118 0 -188 88t-70 243q0 158 76.5 244t227.5 86q139 0 258 -22v110q0 155 -60.5 225t-181.5 70q-122 0 -229 -57l-15 92
q114 57 254 57zM350 76q117 0 191 106.5t82 253.5v103q-107 22 -238 22q-227 0 -227 -244q0 -116 51 -178.5t141 -62.5zM424 -313h-105v213h105v-213z" />
    <glyph glyph-name="uni1EAE" unicode="&#x1eae;" horiz-adv-x="1075" 
d="M618 1925l72 -31l-137 -170l-51 17zM537 1501q-90 0 -138.5 57.5t-48.5 172.5h80q0 -162 107 -162q108 0 108 162h78q0 -111 -47.5 -170.5t-138.5 -59.5zM1028 0h-108l-103 348h-559l-102 -348h-109l426 1434h127zM537 1290l-248 -841h497z" />
    <glyph glyph-name="uni1EAF" unicode="&#x1eaf;" horiz-adv-x="847" 
d="M487 1659l72 -31l-137 -170l-51 17zM406 1235q-90 0 -138.5 57t-48.5 172h80q0 -161 107 -161q108 0 108 161h78q0 -229 -186 -229zM391 1118q168 0 250 -94.5t82 -294.5v-729h-98v231q-37 -108 -116 -178.5t-190 -70.5q-118 0 -188 88t-70 243q0 158 76.5 244t227.5 86
q139 0 258 -22v110q0 155 -60.5 225t-181.5 70q-122 0 -229 -57l-15 92q114 57 254 57zM350 76q117 0 191 106.5t82 253.5v103q-107 22 -238 22q-227 0 -227 -244q0 -116 51 -178.5t141 -62.5z" />
    <glyph glyph-name="uni1EB0" unicode="&#x1eb0;" horiz-adv-x="1075" 
d="M461 1937l110 -180l-53 -12l-135 170zM537 1497q-90 0 -138.5 59t-48.5 164h78q0 -157 109 -157q108 0 108 157h78q0 -109 -48.5 -166t-137.5 -57zM1028 0h-108l-103 348h-559l-102 -348h-109l426 1434h127zM537 1290l-248 -841h497z" />
    <glyph glyph-name="uni1EB1" unicode="&#x1eb1;" horiz-adv-x="847" 
d="M326 1675l114 -184l-51 -14l-137 172zM406 1229q-90 0 -138.5 60t-48.5 165h78q0 -78 28 -118t81 -40t80.5 41t27.5 117h78q0 -109 -48.5 -167t-137.5 -58zM391 1118q168 0 250 -94.5t82 -294.5v-729h-98v231q-37 -108 -116 -178.5t-190 -70.5q-118 0 -188 88t-70 243
q0 158 76.5 244t227.5 86q139 0 258 -22v110q0 155 -60.5 225t-181.5 70q-122 0 -229 -57l-15 92q114 57 254 57zM350 76q117 0 191 106.5t82 253.5v103q-107 22 -238 22q-227 0 -227 -244q0 -116 51 -178.5t141 -62.5z" />
    <glyph glyph-name="uni1EB2" unicode="&#x1eb2;" horiz-adv-x="1075" 
d="M569 1864q0 40 -36 55.5t-82 -8.5l-9 53q76 41 137.5 13.5t61.5 -97.5q0 -93 -106 -160l-37 39q71 50 71 105zM537 1563q-90 0 -138.5 57t-48.5 172h80q0 -162 107 -162q108 0 108 162h78q0 -111 -47 -170t-139 -59zM1028 0h-108l-103 348h-559l-102 -348h-109l426 1434
h127zM537 1290l-248 -841h497z" />
    <glyph glyph-name="uni1EB3" unicode="&#x1eb3;" horiz-adv-x="847" 
d="M438 1536q0 40 -36.5 55.5t-82.5 -8.5l-8 53q77 41 138 13.5t61 -97.5q0 -95 -107 -159l-36 39q71 47 71 104zM406 1235q-90 0 -138.5 57t-48.5 172h80q0 -161 107 -161q108 0 108 161h78q0 -229 -186 -229zM391 1118q168 0 250 -94.5t82 -294.5v-729h-98v231
q-37 -108 -116 -178.5t-190 -70.5q-118 0 -188 88t-70 243q0 158 76.5 244t227.5 86q139 0 258 -22v110q0 155 -60.5 225t-181.5 70q-122 0 -229 -57l-15 92q114 57 254 57zM350 76q117 0 191 106.5t82 253.5v103q-107 22 -238 22q-227 0 -227 -244q0 -116 51 -178.5
t141 -62.5z" />
    <glyph glyph-name="uni1EB4" unicode="&#x1eb4;" horiz-adv-x="1075" 
d="M412 1829l-56 8q-3 71 24 111.5t75 40.5q32 0 61.5 -21.5t54.5 -43t45 -21.5q28 0 44 24t16 66l55 -8q1 -71 -25.5 -111.5t-72.5 -40.5q-31 0 -61.5 21.5t-56 43t-46.5 21.5q-26 0 -41.5 -24t-15.5 -66zM537 1563q-187 0 -187 229h80q0 -162 107 -162q108 0 108 162h78
q0 -229 -186 -229zM1028 0h-108l-103 348h-559l-102 -348h-109l426 1434h127zM537 1290l-248 -841h497z" />
    <glyph glyph-name="uni1EB5" unicode="&#x1eb5;" horiz-adv-x="847" 
d="M281 1501l-56 10q-3 70 24 110t75 40q32 0 61.5 -21.5t54.5 -43t45 -21.5q28 0 44 24.5t16 65.5l55 -8q1 -71 -25.5 -111.5t-72.5 -40.5q-31 0 -61.5 22t-56 44t-46.5 22q-26 0 -41.5 -24.5t-15.5 -67.5zM406 1235q-90 0 -138.5 57t-48.5 172h80q0 -161 107 -161
q108 0 108 161h78q0 -229 -186 -229zM391 1118q168 0 250 -94.5t82 -294.5v-729h-98v231q-37 -108 -116 -178.5t-190 -70.5q-118 0 -188 88t-70 243q0 158 76.5 244t227.5 86q139 0 258 -22v110q0 155 -60.5 225t-181.5 70q-122 0 -229 -57l-15 92q114 57 254 57zM350 76
q117 0 191 106.5t82 253.5v103q-107 22 -238 22q-227 0 -227 -244q0 -116 51 -178.5t141 -62.5z" />
    <glyph glyph-name="uni1EB6" unicode="&#x1eb6;" horiz-adv-x="1075" 
d="M535 1497q-90 0 -138.5 56.5t-48.5 170.5h80q0 -161 107 -161q108 0 108 161h78q0 -111 -47 -169t-139 -58zM600 1434l428 -1434h-108l-103 348h-559l-102 -348h-109l426 1434h127zM537 1290l-248 -841h497zM590 -313h-105v213h105v-213z" />
    </font>
</defs>
</svg>
