<?xml version="1.0" standalone="no"?>
<!DOCTYPE svg PUBLIC "-//W3C//DTD SVG 1.1//EN" "http://www.w3.org/Graphics/SVG/1.1/DTD/svg11.dtd" >
<svg xmlns="http://www.w3.org/2000/svg" xmlns:xlink="http://www.w3.org/1999/xlink" version="1.1">
<metadata>
Created by FontForge 20170731 at Mon Aug 16 22:15:06 2021
 By Aleksey,,,
Copyright (c) 2020 by Ligature srl. All rights reserved.
</metadata>
<defs>
<font id="EastmanCondensedTrial-ThinItalic" horiz-adv-x="1042" >
  <font-face 
    font-family="Eastman Condensed Trial Thin"
    font-weight="100"
    font-style="italic"
    font-stretch="condensed"
    units-per-em="2048"
    panose-1="0 0 2 6 0 0 0 0 0 0"
    ascent="1638"
    descent="-410"
    x-height="1090"
    cap-height="1434"
    bbox="-1298 -422 2822 2079"
    underline-thickness="24"
    underline-position="-433"
    slope="-12"
    unicode-range="U+0020-F8FF"
  />
<missing-glyph horiz-adv-x="1257" 
 />
    <glyph glyph-name=".notdef" horiz-adv-x="1257" 
 />
    <glyph glyph-name=".null" horiz-adv-x="0" 
 />
    <glyph glyph-name="nonmarkingreturn" horiz-adv-x="682" 
 />
    <glyph glyph-name="space" unicode=" " horiz-adv-x="397" 
 />
    <glyph glyph-name="exclam" unicode="!" horiz-adv-x="385" 
d="M215 723l152 713h24l-151 -713l-76 -354h-21zM33 0l20 88h86l-20 -88h-86z" />
    <glyph glyph-name="quotedbl" unicode="&#x22;" horiz-adv-x="460" 
d="M369 1511l-99 -319h-20l90 319h29zM553 1511l-98 -319h-21l90 319h29z" />
    <glyph glyph-name="numbersign" unicode="#" horiz-adv-x="1310" 
d="M1286 954l-6 -24h-274l-185 -385h316l-7 -25h-321l-209 -438h-25l209 438h-385l-209 -438h-24l209 438h-269l7 25h274l184 385h-315l6 24h322l209 439h24l-209 -439h385l209 439h25l-209 -439h268zM412 545h385l184 385h-385z" />
    <glyph glyph-name="dollar" unicode="$" horiz-adv-x="882" 
d="M915 1370l-10 -24q-110 76 -266 79l-143 -671q61 -36 101 -66t77.5 -72t55.5 -95t18 -120q0 -106 -51 -198t-147.5 -152t-217.5 -67l-19 -84h-24l18 84h-4q-192 0 -328 92l13 20q133 -88 321 -88h2l158 729h-2l2 6q-62 40 -101 70.5t-75 71t-52 88t-16 106.5
q0 67 29.5 133t80 118t125 85t158.5 35l29 129h25l-29 -129q156 -3 272 -80zM250 1083q0 -55 14 -98.5t46.5 -81.5t67.5 -66t95 -69l141 657q-152 -6 -258 -108t-106 -234zM723 401q0 64 -16.5 114.5t-51.5 89.5t-71 65.5t-92 58.5l-156 -721q111 7 200.5 63.5t138 144
t48.5 185.5z" />
    <glyph glyph-name="percent" unicode="%" horiz-adv-x="1013" 
d="M303 899q-80 0 -108.5 77.5t0.5 215.5q28 134 89 212.5t144 78.5q78 0 105.5 -76.5t-1.5 -214.5q-29 -133 -88.5 -213t-140.5 -80zM307 922q68 0 121.5 72t79.5 198q28 120 5.5 194t-91.5 74t-122 -71.5t-79 -196.5q-28 -120 -6 -195t92 -75zM88 0h-27l938 1434h25z
M672 -6q-80 0 -109 77.5t0 215.5q28 134 89.5 212.5t144.5 78.5q78 0 105.5 -76.5t-1.5 -214.5q-29 -133 -88.5 -213t-140.5 -80zM676 16q68 0 121 72.5t80 198.5q28 120 5.5 194t-91.5 74t-122 -71.5t-79 -196.5q-28 -120 -6 -195.5t92 -75.5z" />
    <glyph glyph-name="ampersand" unicode="&#x26;" horiz-adv-x="1253" 
d="M1243 776h-213q-27 -185 -101 -350t-188 -276q111 -127 246 -127l-6 -25q-144 -3 -262 131q-161 -145 -373 -145q-90 0 -152 32.5t-91 90.5t-34.5 138.5t17.5 176.5q42 195 161 341t279 210q8 60 25 145q32 151 112.5 240.5t184.5 89.5q88 0 128 -64.5t13 -191.5
q-20 -86 -74 -189t-137 -202h471zM575 1118q-55 -274 -11.5 -534.5t163.5 -415.5q108 105 180 264.5t99 343.5h-261l7 25q84 97 139.5 200.5t73.5 188.5q24 111 -11.5 172t-113.5 61q-91 0 -163 -80t-102 -225zM352 6q199 0 353 141q-105 132 -155 345.5t-26 453.5
q-146 -63 -258.5 -197t-154.5 -327q-40 -190 19.5 -303t221.5 -113z" />
    <glyph glyph-name="quotesingle" unicode="'" horiz-adv-x="276" 
d="M369 1511l-99 -319h-20l90 319h29z" />
    <glyph glyph-name="parenleft" unicode="(" horiz-adv-x="563" 
d="M342 -332l-20 -18q-160 161 -212 397.5t9 523.5t214 524t380 398l14 -18q-226 -160 -375.5 -392t-208.5 -512q-60 -280 -9 -511.5t208 -391.5z" />
    <glyph glyph-name="parenright" unicode=")" horiz-adv-x="563" 
d="M233 1477l21 18q160 -161 212 -398t-9 -524t-214 -523.5t-380 -397.5l-15 18q226 160 375.5 391.5t208.5 511.5q60 280 9 512t-208 392z" />
    <glyph glyph-name="asterisk" unicode="*" horiz-adv-x="804" 
d="M860 1249l2 -24l-184 -56l-139 -39l61 -104l78 -147l-27 -15l-73 148l-52 112l-100 -112l-135 -148l-19 15l140 147l104 107l-121 36l-159 56l10 24l162 -57l116 -45l23 133l39 182h24l-39 -182l-30 -133l133 45z" />
    <glyph glyph-name="plus" unicode="+" horiz-adv-x="600" 
d="M348 711h252l-6 -25h-252l-53 -252h-25l53 252h-251l6 25h252l53 252h24z" />
    <glyph glyph-name="comma" unicode="," horiz-adv-x="385" 
d="M-20 -203l-11 21q115 75 123 182h-61l20 88h86q-2 -93 -39.5 -171.5t-117.5 -119.5z" />
    <glyph glyph-name="hyphen" unicode="-" horiz-adv-x="600" 
d="M545 453l-4 -25h-531l4 25h531z" />
    <glyph glyph-name="period" unicode="." horiz-adv-x="385" 
d="M33 0l20 88h86l-20 -88h-86z" />
    <glyph glyph-name="slash" unicode="/" horiz-adv-x="862" 
d="M-111 -225h-26l1134 1679h27z" />
    <glyph glyph-name="zero" unicode="0" horiz-adv-x="2742" 
d="M1749 946h995v-395h-2568v395h995q8 114 91 192.5t198 78.5t198 -78.5t91 -192.5zM1286 1120h348q-78 68 -174 68q-99 0 -174 -68zM1315 760h346q59 72 59 166q0 99 -65 174zM1608 1092h-351q-59 -72 -59 -166q0 -99 68 -174zM1905 621q57 0 96 37t39 94q0 55 -39 92
t-96 37t-95 -37t-38 -92q0 -57 38 -94t95 -37zM362 803h58v71h-197v-71h60v-176h79v176zM530 698l31 -71h84l-43 94q29 25 29 65q0 38 -27.5 63t-66.5 25h-103v-247h80v71h16zM657 627h78v247h-78v-247zM913 666l11 -39h86l-84 247h-92l-84 -247h84l10 39h69zM1024 627h168
v67h-88v180h-80v-247zM2212 627h82v247h-80v-131l-76 131h-82v-247h80l-2 121zM2318 627h168v67h-88v180h-80v-247zM2611 627v98l84 149h-92l-33 -73l-30 73h-95l86 -149v-98h80zM1905 809q25 0 40 -16t15 -41q0 -26 -15 -43t-40 -17q-24 0 -40 17t-16 43q0 24 16.5 40.5
t39.5 16.5zM514 807h21q6 0 11 -6.5t5 -14.5q0 -9 -5 -15.5t-11 -6.5h-21v43zM860 731l17 60h2l16 -60h-35zM1634 731h-348q75 -65 174 -65t174 65zM1165 387v-27q25 -14 54 -14q23 0 38 12.5t15 34.5q0 28 -47 45q-12 4 -17.5 6.5t-10.5 7.5t-5 13q0 22 29 22q23 0 41 -14
v27q-20 10 -41 10q-24 0 -39 -12t-15 -33q0 -14 7 -23.5t14.5 -13.5t23.5 -10q35 -9 35 -25q0 -24 -28 -24q-29 0 -54 18zM1348 428q0 -35 23.5 -58.5t58.5 -23.5q34 0 57.5 23.5t23.5 58.5q0 34 -23.5 58t-57.5 24q-35 0 -58.5 -24t-23.5 -58zM1673 344v162h-24v-111
l-101 113h-12v-160h25v107l100 -111h12zM276 506h-102v-158h25v60h67v22h-67v53h77v23zM297 506v-96q0 -28 17.5 -46t45.5 -18q29 0 47.5 18t18.5 46v96h-25v-96q0 -17 -12 -29t-29 -12t-27.5 11t-10.5 30v96h-25zM481 506h-24v-158h96v23h-72v135zM600 506h-25v-158h99v23
h-74v135zM821 348l66 158h-29l-45 -117l-45 117h-29l66 -158h16zM1010 506h-103v-158h103v23h-78v47h67v20h-67v45h78v23zM1098 406l26 -58h29l-31 64q25 14 25 43q0 22 -14.5 36.5t-36.5 14.5h-60v-158h25v58h37zM1321 506h-25v-158h25v158zM1485 428q0 -26 -15.5 -42.5
t-39.5 -16.5q-25 0 -41.5 16.5t-16.5 42.5q0 25 16.5 41t41.5 16q23 0 39 -16t16 -41zM1122 455q0 -12 -7.5 -20.5t-18.5 -8.5h-35v57h35q11 0 18.5 -8t7.5 -20zM2671 375l51 49l-51 49l-17 -14l27 -23h-938v-24h938l-27 -23zM1122 195q0 -51 35 -85t86 -34q52 0 86.5 34
t34.5 85q0 50 -34.5 83t-86.5 33q-51 0 -86 -33.5t-35 -82.5zM1792 172v-76q33 -20 78 -20q40 0 65 20t25 56q0 54 -74 71q-2 1 -7 2q-20 8 -21 15q0 8 22 8q36 0 66 -23v70q-37 16 -66 16q-42 0 -67 -18t-25 -51q0 -29 15.5 -45t49.5 -27q4 -2 11.5 -4t12 -3t8 -4t3.5 -7
q0 -13 -18 -13q-24 0 -78 33zM2054 195q0 -51 34.5 -85t84.5 -34q25 0 53 14l2 72q-21 -21 -51 -21q-22 0 -36.5 15.5t-14.5 38.5q0 22 14.5 36.5t36.5 14.5q20 0 45 -15v68q-21 12 -47 12q-51 0 -86 -33.5t-35 -82.5zM2234 195q0 -51 35 -85t88 -34q51 0 86 34t35 85
q0 49 -35 82.5t-86 33.5q-52 0 -87.5 -33t-35.5 -83zM176 242h74l-84 -160h194v63h-77l84 160h-191v-63zM543 305h-162v-223h164v61h-92v21h77v61h-77v19h90v61zM553 242h53v-160h72v160h53v63h-178v-63zM791 117h63l8 -35h78l-76 223h-82l-75 -223h73zM1114 305h-162v-223
h72v70h76v59h-76v33h90v61zM1593 82v223h-71v-119l-68 119h-74v-223h72l-2 108l70 -108h73zM1606 242h53v-160h72v160h51v63h-176v-63zM2564 305h-72v-223h72v88l29 -55h51l29 55v-88h69v223h-71l-54 -102zM1292 195q0 -23 -13.5 -38.5t-35.5 -15.5t-35.5 15.5t-13.5 38.5
q0 22 13.5 36.5t35.5 14.5t35.5 -14.5t13.5 -36.5zM2406 195q0 -23 -14.5 -38.5t-34.5 -15.5q-22 0 -36.5 15.5t-14.5 38.5q0 22 14.5 36.5t36.5 14.5q20 0 34.5 -14.5t14.5 -36.5zM823 229l15 -53h-31l14 53h2zM1970 111q0 -14 10 -24.5t27 -10.5q15 0 25 10.5t10 24.5
t-10 23t-25 9q-17 0 -27 -9t-10 -23z" />
    <glyph glyph-name="one" unicode="1" horiz-adv-x="2928" 
d="M1749 946h995v-395h-2568v395h995q8 114 91 192.5t198 78.5t198 -78.5t91 -192.5zM1286 1120h348q-78 68 -174 68q-99 0 -174 -68zM1315 760h346q59 72 59 166q0 99 -65 174zM1608 1092h-351q-59 -72 -59 -166q0 -99 68 -174zM1905 621q57 0 96 37t39 94q0 55 -39 92
t-96 37t-95 -37t-38 -92q0 -57 38 -94t95 -37zM362 803h58v71h-197v-71h60v-176h79v176zM530 698l31 -71h84l-43 94q29 25 29 65q0 38 -27.5 63t-66.5 25h-103v-247h80v71h16zM657 627h78v247h-78v-247zM913 666l11 -39h86l-84 247h-92l-84 -247h84l10 39h69zM1024 627h168
v67h-88v180h-80v-247zM2212 627h82v247h-80v-131l-76 131h-82v-247h80l-2 121zM2318 627h168v67h-88v180h-80v-247zM2611 627v98l84 149h-92l-33 -73l-30 73h-95l86 -149v-98h80zM1905 809q25 0 40 -16t15 -41q0 -26 -15 -43t-40 -17q-24 0 -40 17t-16 43q0 24 16.5 40.5
t39.5 16.5zM514 807h21q6 0 11 -6.5t5 -14.5q0 -9 -5 -15.5t-11 -6.5h-21v43zM860 731l17 60h2l16 -60h-35zM1634 731h-348q75 -65 174 -65t174 65zM1165 387v-27q25 -14 54 -14q23 0 38 12.5t15 34.5q0 28 -47 45q-12 4 -17.5 6.5t-10.5 7.5t-5 13q0 22 29 22q23 0 41 -14
v27q-20 10 -41 10q-24 0 -39 -12t-15 -33q0 -14 7 -23.5t14.5 -13.5t23.5 -10q35 -9 35 -25q0 -24 -28 -24q-29 0 -54 18zM1348 428q0 -35 23.5 -58.5t58.5 -23.5q34 0 57.5 23.5t23.5 58.5q0 34 -23.5 58t-57.5 24q-35 0 -58.5 -24t-23.5 -58zM1673 344v162h-24v-111
l-101 113h-12v-160h25v107l100 -111h12zM276 506h-102v-158h25v60h67v22h-67v53h77v23zM297 506v-96q0 -28 17.5 -46t45.5 -18q29 0 47.5 18t18.5 46v96h-25v-96q0 -17 -12 -29t-29 -12t-27.5 11t-10.5 30v96h-25zM481 506h-24v-158h96v23h-72v135zM600 506h-25v-158h99v23
h-74v135zM821 348l66 158h-29l-45 -117l-45 117h-29l66 -158h16zM1010 506h-103v-158h103v23h-78v47h67v20h-67v45h78v23zM1098 406l26 -58h29l-31 64q25 14 25 43q0 22 -14.5 36.5t-36.5 14.5h-60v-158h25v58h37zM1321 506h-25v-158h25v158zM1485 428q0 -26 -15.5 -42.5
t-39.5 -16.5q-25 0 -41.5 16.5t-16.5 42.5q0 25 16.5 41t41.5 16q23 0 39 -16t16 -41zM1122 455q0 -12 -7.5 -20.5t-18.5 -8.5h-35v57h35q11 0 18.5 -8t7.5 -20zM2671 375l51 49l-51 49l-17 -14l27 -23h-938v-24h938l-27 -23zM1122 195q0 -51 35 -85t86 -34q52 0 86.5 34
t34.5 85q0 50 -34.5 83t-86.5 33q-51 0 -86 -33.5t-35 -82.5zM1792 172v-76q33 -20 78 -20q40 0 65 20t25 56q0 54 -74 71q-2 1 -7 2q-20 8 -21 15q0 8 22 8q36 0 66 -23v70q-37 16 -66 16q-42 0 -67 -18t-25 -51q0 -29 15.5 -45t49.5 -27q4 -2 11.5 -4t12 -3t8 -4t3.5 -7
q0 -13 -18 -13q-24 0 -78 33zM2054 195q0 -51 34.5 -85t84.5 -34q25 0 53 14l2 72q-21 -21 -51 -21q-22 0 -36.5 15.5t-14.5 38.5q0 22 14.5 36.5t36.5 14.5q20 0 45 -15v68q-21 12 -47 12q-51 0 -86 -33.5t-35 -82.5zM2234 195q0 -51 35 -85t88 -34q51 0 86 34t35 85
q0 49 -35 82.5t-86 33.5q-52 0 -87.5 -33t-35.5 -83zM176 242h74l-84 -160h194v63h-77l84 160h-191v-63zM543 305h-162v-223h164v61h-92v21h77v61h-77v19h90v61zM553 242h53v-160h72v160h53v63h-178v-63zM791 117h63l8 -35h78l-76 223h-82l-75 -223h73zM1114 305h-162v-223
h72v70h76v59h-76v33h90v61zM1593 82v223h-71v-119l-68 119h-74v-223h72l-2 108l70 -108h73zM1606 242h53v-160h72v160h51v63h-176v-63zM2564 305h-72v-223h72v88l29 -55h51l29 55v-88h69v223h-71l-54 -102zM1292 195q0 -23 -13.5 -38.5t-35.5 -15.5t-35.5 15.5t-13.5 38.5
q0 22 13.5 36.5t35.5 14.5t35.5 -14.5t13.5 -36.5zM2406 195q0 -23 -14.5 -38.5t-34.5 -15.5q-22 0 -36.5 15.5t-14.5 38.5q0 22 14.5 36.5t36.5 14.5q20 0 34.5 -14.5t14.5 -36.5zM823 229l15 -53h-31l14 53h2zM1970 111q0 -14 10 -24.5t27 -10.5q15 0 25 10.5t10 24.5
t-10 23t-25 9q-17 0 -27 -9t-10 -23z" />
    <glyph glyph-name="two" unicode="2" horiz-adv-x="2928" 
d="M1749 946h995v-395h-2568v395h995q8 114 91 192.5t198 78.5t198 -78.5t91 -192.5zM1286 1120h348q-78 68 -174 68q-99 0 -174 -68zM1315 760h346q59 72 59 166q0 99 -65 174zM1608 1092h-351q-59 -72 -59 -166q0 -99 68 -174zM1905 621q57 0 96 37t39 94q0 55 -39 92
t-96 37t-95 -37t-38 -92q0 -57 38 -94t95 -37zM362 803h58v71h-197v-71h60v-176h79v176zM530 698l31 -71h84l-43 94q29 25 29 65q0 38 -27.5 63t-66.5 25h-103v-247h80v71h16zM657 627h78v247h-78v-247zM913 666l11 -39h86l-84 247h-92l-84 -247h84l10 39h69zM1024 627h168
v67h-88v180h-80v-247zM2212 627h82v247h-80v-131l-76 131h-82v-247h80l-2 121zM2318 627h168v67h-88v180h-80v-247zM2611 627v98l84 149h-92l-33 -73l-30 73h-95l86 -149v-98h80zM1905 809q25 0 40 -16t15 -41q0 -26 -15 -43t-40 -17q-24 0 -40 17t-16 43q0 24 16.5 40.5
t39.5 16.5zM514 807h21q6 0 11 -6.5t5 -14.5q0 -9 -5 -15.5t-11 -6.5h-21v43zM860 731l17 60h2l16 -60h-35zM1634 731h-348q75 -65 174 -65t174 65zM1165 387v-27q25 -14 54 -14q23 0 38 12.5t15 34.5q0 28 -47 45q-12 4 -17.5 6.5t-10.5 7.5t-5 13q0 22 29 22q23 0 41 -14
v27q-20 10 -41 10q-24 0 -39 -12t-15 -33q0 -14 7 -23.5t14.5 -13.5t23.5 -10q35 -9 35 -25q0 -24 -28 -24q-29 0 -54 18zM1348 428q0 -35 23.5 -58.5t58.5 -23.5q34 0 57.5 23.5t23.5 58.5q0 34 -23.5 58t-57.5 24q-35 0 -58.5 -24t-23.5 -58zM1673 344v162h-24v-111
l-101 113h-12v-160h25v107l100 -111h12zM276 506h-102v-158h25v60h67v22h-67v53h77v23zM297 506v-96q0 -28 17.5 -46t45.5 -18q29 0 47.5 18t18.5 46v96h-25v-96q0 -17 -12 -29t-29 -12t-27.5 11t-10.5 30v96h-25zM481 506h-24v-158h96v23h-72v135zM600 506h-25v-158h99v23
h-74v135zM821 348l66 158h-29l-45 -117l-45 117h-29l66 -158h16zM1010 506h-103v-158h103v23h-78v47h67v20h-67v45h78v23zM1098 406l26 -58h29l-31 64q25 14 25 43q0 22 -14.5 36.5t-36.5 14.5h-60v-158h25v58h37zM1321 506h-25v-158h25v158zM1485 428q0 -26 -15.5 -42.5
t-39.5 -16.5q-25 0 -41.5 16.5t-16.5 42.5q0 25 16.5 41t41.5 16q23 0 39 -16t16 -41zM1122 455q0 -12 -7.5 -20.5t-18.5 -8.5h-35v57h35q11 0 18.5 -8t7.5 -20zM2671 375l51 49l-51 49l-17 -14l27 -23h-938v-24h938l-27 -23zM1122 195q0 -51 35 -85t86 -34q52 0 86.5 34
t34.5 85q0 50 -34.5 83t-86.5 33q-51 0 -86 -33.5t-35 -82.5zM1792 172v-76q33 -20 78 -20q40 0 65 20t25 56q0 54 -74 71q-2 1 -7 2q-20 8 -21 15q0 8 22 8q36 0 66 -23v70q-37 16 -66 16q-42 0 -67 -18t-25 -51q0 -29 15.5 -45t49.5 -27q4 -2 11.5 -4t12 -3t8 -4t3.5 -7
q0 -13 -18 -13q-24 0 -78 33zM2054 195q0 -51 34.5 -85t84.5 -34q25 0 53 14l2 72q-21 -21 -51 -21q-22 0 -36.5 15.5t-14.5 38.5q0 22 14.5 36.5t36.5 14.5q20 0 45 -15v68q-21 12 -47 12q-51 0 -86 -33.5t-35 -82.5zM2234 195q0 -51 35 -85t88 -34q51 0 86 34t35 85
q0 49 -35 82.5t-86 33.5q-52 0 -87.5 -33t-35.5 -83zM176 242h74l-84 -160h194v63h-77l84 160h-191v-63zM543 305h-162v-223h164v61h-92v21h77v61h-77v19h90v61zM553 242h53v-160h72v160h53v63h-178v-63zM791 117h63l8 -35h78l-76 223h-82l-75 -223h73zM1114 305h-162v-223
h72v70h76v59h-76v33h90v61zM1593 82v223h-71v-119l-68 119h-74v-223h72l-2 108l70 -108h73zM1606 242h53v-160h72v160h51v63h-176v-63zM2564 305h-72v-223h72v88l29 -55h51l29 55v-88h69v223h-71l-54 -102zM1292 195q0 -23 -13.5 -38.5t-35.5 -15.5t-35.5 15.5t-13.5 38.5
q0 22 13.5 36.5t35.5 14.5t35.5 -14.5t13.5 -36.5zM2406 195q0 -23 -14.5 -38.5t-34.5 -15.5q-22 0 -36.5 15.5t-14.5 38.5q0 22 14.5 36.5t36.5 14.5q20 0 34.5 -14.5t14.5 -36.5zM823 229l15 -53h-31l14 53h2zM1970 111q0 -14 10 -24.5t27 -10.5q15 0 25 10.5t10 24.5
t-10 23t-25 9q-17 0 -27 -9t-10 -23z" />
    <glyph glyph-name="three" unicode="3" horiz-adv-x="2928" 
d="M1749 946h995v-395h-2568v395h995q8 114 91 192.5t198 78.5t198 -78.5t91 -192.5zM1286 1120h348q-78 68 -174 68q-99 0 -174 -68zM1315 760h346q59 72 59 166q0 99 -65 174zM1608 1092h-351q-59 -72 -59 -166q0 -99 68 -174zM1905 621q57 0 96 37t39 94q0 55 -39 92
t-96 37t-95 -37t-38 -92q0 -57 38 -94t95 -37zM362 803h58v71h-197v-71h60v-176h79v176zM530 698l31 -71h84l-43 94q29 25 29 65q0 38 -27.5 63t-66.5 25h-103v-247h80v71h16zM657 627h78v247h-78v-247zM913 666l11 -39h86l-84 247h-92l-84 -247h84l10 39h69zM1024 627h168
v67h-88v180h-80v-247zM2212 627h82v247h-80v-131l-76 131h-82v-247h80l-2 121zM2318 627h168v67h-88v180h-80v-247zM2611 627v98l84 149h-92l-33 -73l-30 73h-95l86 -149v-98h80zM1905 809q25 0 40 -16t15 -41q0 -26 -15 -43t-40 -17q-24 0 -40 17t-16 43q0 24 16.5 40.5
t39.5 16.5zM514 807h21q6 0 11 -6.5t5 -14.5q0 -9 -5 -15.5t-11 -6.5h-21v43zM860 731l17 60h2l16 -60h-35zM1634 731h-348q75 -65 174 -65t174 65zM1165 387v-27q25 -14 54 -14q23 0 38 12.5t15 34.5q0 28 -47 45q-12 4 -17.5 6.5t-10.5 7.5t-5 13q0 22 29 22q23 0 41 -14
v27q-20 10 -41 10q-24 0 -39 -12t-15 -33q0 -14 7 -23.5t14.5 -13.5t23.5 -10q35 -9 35 -25q0 -24 -28 -24q-29 0 -54 18zM1348 428q0 -35 23.5 -58.5t58.5 -23.5q34 0 57.5 23.5t23.5 58.5q0 34 -23.5 58t-57.5 24q-35 0 -58.5 -24t-23.5 -58zM1673 344v162h-24v-111
l-101 113h-12v-160h25v107l100 -111h12zM276 506h-102v-158h25v60h67v22h-67v53h77v23zM297 506v-96q0 -28 17.5 -46t45.5 -18q29 0 47.5 18t18.5 46v96h-25v-96q0 -17 -12 -29t-29 -12t-27.5 11t-10.5 30v96h-25zM481 506h-24v-158h96v23h-72v135zM600 506h-25v-158h99v23
h-74v135zM821 348l66 158h-29l-45 -117l-45 117h-29l66 -158h16zM1010 506h-103v-158h103v23h-78v47h67v20h-67v45h78v23zM1098 406l26 -58h29l-31 64q25 14 25 43q0 22 -14.5 36.5t-36.5 14.5h-60v-158h25v58h37zM1321 506h-25v-158h25v158zM1485 428q0 -26 -15.5 -42.5
t-39.5 -16.5q-25 0 -41.5 16.5t-16.5 42.5q0 25 16.5 41t41.5 16q23 0 39 -16t16 -41zM1122 455q0 -12 -7.5 -20.5t-18.5 -8.5h-35v57h35q11 0 18.5 -8t7.5 -20zM2671 375l51 49l-51 49l-17 -14l27 -23h-938v-24h938l-27 -23zM1122 195q0 -51 35 -85t86 -34q52 0 86.5 34
t34.5 85q0 50 -34.5 83t-86.5 33q-51 0 -86 -33.5t-35 -82.5zM1792 172v-76q33 -20 78 -20q40 0 65 20t25 56q0 54 -74 71q-2 1 -7 2q-20 8 -21 15q0 8 22 8q36 0 66 -23v70q-37 16 -66 16q-42 0 -67 -18t-25 -51q0 -29 15.5 -45t49.5 -27q4 -2 11.5 -4t12 -3t8 -4t3.5 -7
q0 -13 -18 -13q-24 0 -78 33zM2054 195q0 -51 34.5 -85t84.5 -34q25 0 53 14l2 72q-21 -21 -51 -21q-22 0 -36.5 15.5t-14.5 38.5q0 22 14.5 36.5t36.5 14.5q20 0 45 -15v68q-21 12 -47 12q-51 0 -86 -33.5t-35 -82.5zM2234 195q0 -51 35 -85t88 -34q51 0 86 34t35 85
q0 49 -35 82.5t-86 33.5q-52 0 -87.5 -33t-35.5 -83zM176 242h74l-84 -160h194v63h-77l84 160h-191v-63zM543 305h-162v-223h164v61h-92v21h77v61h-77v19h90v61zM553 242h53v-160h72v160h53v63h-178v-63zM791 117h63l8 -35h78l-76 223h-82l-75 -223h73zM1114 305h-162v-223
h72v70h76v59h-76v33h90v61zM1593 82v223h-71v-119l-68 119h-74v-223h72l-2 108l70 -108h73zM1606 242h53v-160h72v160h51v63h-176v-63zM2564 305h-72v-223h72v88l29 -55h51l29 55v-88h69v223h-71l-54 -102zM1292 195q0 -23 -13.5 -38.5t-35.5 -15.5t-35.5 15.5t-13.5 38.5
q0 22 13.5 36.5t35.5 14.5t35.5 -14.5t13.5 -36.5zM2406 195q0 -23 -14.5 -38.5t-34.5 -15.5q-22 0 -36.5 15.5t-14.5 38.5q0 22 14.5 36.5t36.5 14.5q20 0 34.5 -14.5t14.5 -36.5zM823 229l15 -53h-31l14 53h2zM1970 111q0 -14 10 -24.5t27 -10.5q15 0 25 10.5t10 24.5
t-10 23t-25 9q-17 0 -27 -9t-10 -23z" />
    <glyph glyph-name="four" unicode="4" horiz-adv-x="2928" 
d="M1749 946h995v-395h-2568v395h995q8 114 91 192.5t198 78.5t198 -78.5t91 -192.5zM1286 1120h348q-78 68 -174 68q-99 0 -174 -68zM1315 760h346q59 72 59 166q0 99 -65 174zM1608 1092h-351q-59 -72 -59 -166q0 -99 68 -174zM1905 621q57 0 96 37t39 94q0 55 -39 92
t-96 37t-95 -37t-38 -92q0 -57 38 -94t95 -37zM362 803h58v71h-197v-71h60v-176h79v176zM530 698l31 -71h84l-43 94q29 25 29 65q0 38 -27.5 63t-66.5 25h-103v-247h80v71h16zM657 627h78v247h-78v-247zM913 666l11 -39h86l-84 247h-92l-84 -247h84l10 39h69zM1024 627h168
v67h-88v180h-80v-247zM2212 627h82v247h-80v-131l-76 131h-82v-247h80l-2 121zM2318 627h168v67h-88v180h-80v-247zM2611 627v98l84 149h-92l-33 -73l-30 73h-95l86 -149v-98h80zM1905 809q25 0 40 -16t15 -41q0 -26 -15 -43t-40 -17q-24 0 -40 17t-16 43q0 24 16.5 40.5
t39.5 16.5zM514 807h21q6 0 11 -6.5t5 -14.5q0 -9 -5 -15.5t-11 -6.5h-21v43zM860 731l17 60h2l16 -60h-35zM1634 731h-348q75 -65 174 -65t174 65zM1165 387v-27q25 -14 54 -14q23 0 38 12.5t15 34.5q0 28 -47 45q-12 4 -17.5 6.5t-10.5 7.5t-5 13q0 22 29 22q23 0 41 -14
v27q-20 10 -41 10q-24 0 -39 -12t-15 -33q0 -14 7 -23.5t14.5 -13.5t23.5 -10q35 -9 35 -25q0 -24 -28 -24q-29 0 -54 18zM1348 428q0 -35 23.5 -58.5t58.5 -23.5q34 0 57.5 23.5t23.5 58.5q0 34 -23.5 58t-57.5 24q-35 0 -58.5 -24t-23.5 -58zM1673 344v162h-24v-111
l-101 113h-12v-160h25v107l100 -111h12zM276 506h-102v-158h25v60h67v22h-67v53h77v23zM297 506v-96q0 -28 17.5 -46t45.5 -18q29 0 47.5 18t18.5 46v96h-25v-96q0 -17 -12 -29t-29 -12t-27.5 11t-10.5 30v96h-25zM481 506h-24v-158h96v23h-72v135zM600 506h-25v-158h99v23
h-74v135zM821 348l66 158h-29l-45 -117l-45 117h-29l66 -158h16zM1010 506h-103v-158h103v23h-78v47h67v20h-67v45h78v23zM1098 406l26 -58h29l-31 64q25 14 25 43q0 22 -14.5 36.5t-36.5 14.5h-60v-158h25v58h37zM1321 506h-25v-158h25v158zM1485 428q0 -26 -15.5 -42.5
t-39.5 -16.5q-25 0 -41.5 16.5t-16.5 42.5q0 25 16.5 41t41.5 16q23 0 39 -16t16 -41zM1122 455q0 -12 -7.5 -20.5t-18.5 -8.5h-35v57h35q11 0 18.5 -8t7.5 -20zM2671 375l51 49l-51 49l-17 -14l27 -23h-938v-24h938l-27 -23zM1122 195q0 -51 35 -85t86 -34q52 0 86.5 34
t34.5 85q0 50 -34.5 83t-86.5 33q-51 0 -86 -33.5t-35 -82.5zM1792 172v-76q33 -20 78 -20q40 0 65 20t25 56q0 54 -74 71q-2 1 -7 2q-20 8 -21 15q0 8 22 8q36 0 66 -23v70q-37 16 -66 16q-42 0 -67 -18t-25 -51q0 -29 15.5 -45t49.5 -27q4 -2 11.5 -4t12 -3t8 -4t3.5 -7
q0 -13 -18 -13q-24 0 -78 33zM2054 195q0 -51 34.5 -85t84.5 -34q25 0 53 14l2 72q-21 -21 -51 -21q-22 0 -36.5 15.5t-14.5 38.5q0 22 14.5 36.5t36.5 14.5q20 0 45 -15v68q-21 12 -47 12q-51 0 -86 -33.5t-35 -82.5zM2234 195q0 -51 35 -85t88 -34q51 0 86 34t35 85
q0 49 -35 82.5t-86 33.5q-52 0 -87.5 -33t-35.5 -83zM176 242h74l-84 -160h194v63h-77l84 160h-191v-63zM543 305h-162v-223h164v61h-92v21h77v61h-77v19h90v61zM553 242h53v-160h72v160h53v63h-178v-63zM791 117h63l8 -35h78l-76 223h-82l-75 -223h73zM1114 305h-162v-223
h72v70h76v59h-76v33h90v61zM1593 82v223h-71v-119l-68 119h-74v-223h72l-2 108l70 -108h73zM1606 242h53v-160h72v160h51v63h-176v-63zM2564 305h-72v-223h72v88l29 -55h51l29 55v-88h69v223h-71l-54 -102zM1292 195q0 -23 -13.5 -38.5t-35.5 -15.5t-35.5 15.5t-13.5 38.5
q0 22 13.5 36.5t35.5 14.5t35.5 -14.5t13.5 -36.5zM2406 195q0 -23 -14.5 -38.5t-34.5 -15.5q-22 0 -36.5 15.5t-14.5 38.5q0 22 14.5 36.5t36.5 14.5q20 0 34.5 -14.5t14.5 -36.5zM823 229l15 -53h-31l14 53h2zM1970 111q0 -14 10 -24.5t27 -10.5q15 0 25 10.5t10 24.5
t-10 23t-25 9q-17 0 -27 -9t-10 -23z" />
    <glyph glyph-name="five" unicode="5" horiz-adv-x="2928" 
d="M1749 946h995v-395h-2568v395h995q8 114 91 192.5t198 78.5t198 -78.5t91 -192.5zM1286 1120h348q-78 68 -174 68q-99 0 -174 -68zM1315 760h346q59 72 59 166q0 99 -65 174zM1608 1092h-351q-59 -72 -59 -166q0 -99 68 -174zM1905 621q57 0 96 37t39 94q0 55 -39 92
t-96 37t-95 -37t-38 -92q0 -57 38 -94t95 -37zM362 803h58v71h-197v-71h60v-176h79v176zM530 698l31 -71h84l-43 94q29 25 29 65q0 38 -27.5 63t-66.5 25h-103v-247h80v71h16zM657 627h78v247h-78v-247zM913 666l11 -39h86l-84 247h-92l-84 -247h84l10 39h69zM1024 627h168
v67h-88v180h-80v-247zM2212 627h82v247h-80v-131l-76 131h-82v-247h80l-2 121zM2318 627h168v67h-88v180h-80v-247zM2611 627v98l84 149h-92l-33 -73l-30 73h-95l86 -149v-98h80zM1905 809q25 0 40 -16t15 -41q0 -26 -15 -43t-40 -17q-24 0 -40 17t-16 43q0 24 16.5 40.5
t39.5 16.5zM514 807h21q6 0 11 -6.5t5 -14.5q0 -9 -5 -15.5t-11 -6.5h-21v43zM860 731l17 60h2l16 -60h-35zM1634 731h-348q75 -65 174 -65t174 65zM1165 387v-27q25 -14 54 -14q23 0 38 12.5t15 34.5q0 28 -47 45q-12 4 -17.5 6.5t-10.5 7.5t-5 13q0 22 29 22q23 0 41 -14
v27q-20 10 -41 10q-24 0 -39 -12t-15 -33q0 -14 7 -23.5t14.5 -13.5t23.5 -10q35 -9 35 -25q0 -24 -28 -24q-29 0 -54 18zM1348 428q0 -35 23.5 -58.5t58.5 -23.5q34 0 57.5 23.5t23.5 58.5q0 34 -23.5 58t-57.5 24q-35 0 -58.5 -24t-23.5 -58zM1673 344v162h-24v-111
l-101 113h-12v-160h25v107l100 -111h12zM276 506h-102v-158h25v60h67v22h-67v53h77v23zM297 506v-96q0 -28 17.5 -46t45.5 -18q29 0 47.5 18t18.5 46v96h-25v-96q0 -17 -12 -29t-29 -12t-27.5 11t-10.5 30v96h-25zM481 506h-24v-158h96v23h-72v135zM600 506h-25v-158h99v23
h-74v135zM821 348l66 158h-29l-45 -117l-45 117h-29l66 -158h16zM1010 506h-103v-158h103v23h-78v47h67v20h-67v45h78v23zM1098 406l26 -58h29l-31 64q25 14 25 43q0 22 -14.5 36.5t-36.5 14.5h-60v-158h25v58h37zM1321 506h-25v-158h25v158zM1485 428q0 -26 -15.5 -42.5
t-39.5 -16.5q-25 0 -41.5 16.5t-16.5 42.5q0 25 16.5 41t41.5 16q23 0 39 -16t16 -41zM1122 455q0 -12 -7.5 -20.5t-18.5 -8.5h-35v57h35q11 0 18.5 -8t7.5 -20zM2671 375l51 49l-51 49l-17 -14l27 -23h-938v-24h938l-27 -23zM1122 195q0 -51 35 -85t86 -34q52 0 86.5 34
t34.5 85q0 50 -34.5 83t-86.5 33q-51 0 -86 -33.5t-35 -82.5zM1792 172v-76q33 -20 78 -20q40 0 65 20t25 56q0 54 -74 71q-2 1 -7 2q-20 8 -21 15q0 8 22 8q36 0 66 -23v70q-37 16 -66 16q-42 0 -67 -18t-25 -51q0 -29 15.5 -45t49.5 -27q4 -2 11.5 -4t12 -3t8 -4t3.5 -7
q0 -13 -18 -13q-24 0 -78 33zM2054 195q0 -51 34.5 -85t84.5 -34q25 0 53 14l2 72q-21 -21 -51 -21q-22 0 -36.5 15.5t-14.5 38.5q0 22 14.5 36.5t36.5 14.5q20 0 45 -15v68q-21 12 -47 12q-51 0 -86 -33.5t-35 -82.5zM2234 195q0 -51 35 -85t88 -34q51 0 86 34t35 85
q0 49 -35 82.5t-86 33.5q-52 0 -87.5 -33t-35.5 -83zM176 242h74l-84 -160h194v63h-77l84 160h-191v-63zM543 305h-162v-223h164v61h-92v21h77v61h-77v19h90v61zM553 242h53v-160h72v160h53v63h-178v-63zM791 117h63l8 -35h78l-76 223h-82l-75 -223h73zM1114 305h-162v-223
h72v70h76v59h-76v33h90v61zM1593 82v223h-71v-119l-68 119h-74v-223h72l-2 108l70 -108h73zM1606 242h53v-160h72v160h51v63h-176v-63zM2564 305h-72v-223h72v88l29 -55h51l29 55v-88h69v223h-71l-54 -102zM1292 195q0 -23 -13.5 -38.5t-35.5 -15.5t-35.5 15.5t-13.5 38.5
q0 22 13.5 36.5t35.5 14.5t35.5 -14.5t13.5 -36.5zM2406 195q0 -23 -14.5 -38.5t-34.5 -15.5q-22 0 -36.5 15.5t-14.5 38.5q0 22 14.5 36.5t36.5 14.5q20 0 34.5 -14.5t14.5 -36.5zM823 229l15 -53h-31l14 53h2zM1970 111q0 -14 10 -24.5t27 -10.5q15 0 25 10.5t10 24.5
t-10 23t-25 9q-17 0 -27 -9t-10 -23z" />
    <glyph glyph-name="six" unicode="6" horiz-adv-x="2928" 
d="M1749 946h995v-395h-2568v395h995q8 114 91 192.5t198 78.5t198 -78.5t91 -192.5zM1286 1120h348q-78 68 -174 68q-99 0 -174 -68zM1315 760h346q59 72 59 166q0 99 -65 174zM1608 1092h-351q-59 -72 -59 -166q0 -99 68 -174zM1905 621q57 0 96 37t39 94q0 55 -39 92
t-96 37t-95 -37t-38 -92q0 -57 38 -94t95 -37zM362 803h58v71h-197v-71h60v-176h79v176zM530 698l31 -71h84l-43 94q29 25 29 65q0 38 -27.5 63t-66.5 25h-103v-247h80v71h16zM657 627h78v247h-78v-247zM913 666l11 -39h86l-84 247h-92l-84 -247h84l10 39h69zM1024 627h168
v67h-88v180h-80v-247zM2212 627h82v247h-80v-131l-76 131h-82v-247h80l-2 121zM2318 627h168v67h-88v180h-80v-247zM2611 627v98l84 149h-92l-33 -73l-30 73h-95l86 -149v-98h80zM1905 809q25 0 40 -16t15 -41q0 -26 -15 -43t-40 -17q-24 0 -40 17t-16 43q0 24 16.5 40.5
t39.5 16.5zM514 807h21q6 0 11 -6.5t5 -14.5q0 -9 -5 -15.5t-11 -6.5h-21v43zM860 731l17 60h2l16 -60h-35zM1634 731h-348q75 -65 174 -65t174 65zM1165 387v-27q25 -14 54 -14q23 0 38 12.5t15 34.5q0 28 -47 45q-12 4 -17.5 6.5t-10.5 7.5t-5 13q0 22 29 22q23 0 41 -14
v27q-20 10 -41 10q-24 0 -39 -12t-15 -33q0 -14 7 -23.5t14.5 -13.5t23.5 -10q35 -9 35 -25q0 -24 -28 -24q-29 0 -54 18zM1348 428q0 -35 23.5 -58.5t58.5 -23.5q34 0 57.5 23.5t23.5 58.5q0 34 -23.5 58t-57.5 24q-35 0 -58.5 -24t-23.5 -58zM1673 344v162h-24v-111
l-101 113h-12v-160h25v107l100 -111h12zM276 506h-102v-158h25v60h67v22h-67v53h77v23zM297 506v-96q0 -28 17.5 -46t45.5 -18q29 0 47.5 18t18.5 46v96h-25v-96q0 -17 -12 -29t-29 -12t-27.5 11t-10.5 30v96h-25zM481 506h-24v-158h96v23h-72v135zM600 506h-25v-158h99v23
h-74v135zM821 348l66 158h-29l-45 -117l-45 117h-29l66 -158h16zM1010 506h-103v-158h103v23h-78v47h67v20h-67v45h78v23zM1098 406l26 -58h29l-31 64q25 14 25 43q0 22 -14.5 36.5t-36.5 14.5h-60v-158h25v58h37zM1321 506h-25v-158h25v158zM1485 428q0 -26 -15.5 -42.5
t-39.5 -16.5q-25 0 -41.5 16.5t-16.5 42.5q0 25 16.5 41t41.5 16q23 0 39 -16t16 -41zM1122 455q0 -12 -7.5 -20.5t-18.5 -8.5h-35v57h35q11 0 18.5 -8t7.5 -20zM2671 375l51 49l-51 49l-17 -14l27 -23h-938v-24h938l-27 -23zM1122 195q0 -51 35 -85t86 -34q52 0 86.5 34
t34.5 85q0 50 -34.5 83t-86.5 33q-51 0 -86 -33.5t-35 -82.5zM1792 172v-76q33 -20 78 -20q40 0 65 20t25 56q0 54 -74 71q-2 1 -7 2q-20 8 -21 15q0 8 22 8q36 0 66 -23v70q-37 16 -66 16q-42 0 -67 -18t-25 -51q0 -29 15.5 -45t49.5 -27q4 -2 11.5 -4t12 -3t8 -4t3.5 -7
q0 -13 -18 -13q-24 0 -78 33zM2054 195q0 -51 34.5 -85t84.5 -34q25 0 53 14l2 72q-21 -21 -51 -21q-22 0 -36.5 15.5t-14.5 38.5q0 22 14.5 36.5t36.5 14.5q20 0 45 -15v68q-21 12 -47 12q-51 0 -86 -33.5t-35 -82.5zM2234 195q0 -51 35 -85t88 -34q51 0 86 34t35 85
q0 49 -35 82.5t-86 33.5q-52 0 -87.5 -33t-35.5 -83zM176 242h74l-84 -160h194v63h-77l84 160h-191v-63zM543 305h-162v-223h164v61h-92v21h77v61h-77v19h90v61zM553 242h53v-160h72v160h53v63h-178v-63zM791 117h63l8 -35h78l-76 223h-82l-75 -223h73zM1114 305h-162v-223
h72v70h76v59h-76v33h90v61zM1593 82v223h-71v-119l-68 119h-74v-223h72l-2 108l70 -108h73zM1606 242h53v-160h72v160h51v63h-176v-63zM2564 305h-72v-223h72v88l29 -55h51l29 55v-88h69v223h-71l-54 -102zM1292 195q0 -23 -13.5 -38.5t-35.5 -15.5t-35.5 15.5t-13.5 38.5
q0 22 13.5 36.5t35.5 14.5t35.5 -14.5t13.5 -36.5zM2406 195q0 -23 -14.5 -38.5t-34.5 -15.5q-22 0 -36.5 15.5t-14.5 38.5q0 22 14.5 36.5t36.5 14.5q20 0 34.5 -14.5t14.5 -36.5zM823 229l15 -53h-31l14 53h2zM1970 111q0 -14 10 -24.5t27 -10.5q15 0 25 10.5t10 24.5
t-10 23t-25 9q-17 0 -27 -9t-10 -23z" />
    <glyph glyph-name="seven" unicode="7" horiz-adv-x="2928" 
d="M1749 946h995v-395h-2568v395h995q8 114 91 192.5t198 78.5t198 -78.5t91 -192.5zM1286 1120h348q-78 68 -174 68q-99 0 -174 -68zM1315 760h346q59 72 59 166q0 99 -65 174zM1608 1092h-351q-59 -72 -59 -166q0 -99 68 -174zM1905 621q57 0 96 37t39 94q0 55 -39 92
t-96 37t-95 -37t-38 -92q0 -57 38 -94t95 -37zM362 803h58v71h-197v-71h60v-176h79v176zM530 698l31 -71h84l-43 94q29 25 29 65q0 38 -27.5 63t-66.5 25h-103v-247h80v71h16zM657 627h78v247h-78v-247zM913 666l11 -39h86l-84 247h-92l-84 -247h84l10 39h69zM1024 627h168
v67h-88v180h-80v-247zM2212 627h82v247h-80v-131l-76 131h-82v-247h80l-2 121zM2318 627h168v67h-88v180h-80v-247zM2611 627v98l84 149h-92l-33 -73l-30 73h-95l86 -149v-98h80zM1905 809q25 0 40 -16t15 -41q0 -26 -15 -43t-40 -17q-24 0 -40 17t-16 43q0 24 16.5 40.5
t39.5 16.5zM514 807h21q6 0 11 -6.5t5 -14.5q0 -9 -5 -15.5t-11 -6.5h-21v43zM860 731l17 60h2l16 -60h-35zM1634 731h-348q75 -65 174 -65t174 65zM1165 387v-27q25 -14 54 -14q23 0 38 12.5t15 34.5q0 28 -47 45q-12 4 -17.5 6.5t-10.5 7.5t-5 13q0 22 29 22q23 0 41 -14
v27q-20 10 -41 10q-24 0 -39 -12t-15 -33q0 -14 7 -23.5t14.5 -13.5t23.5 -10q35 -9 35 -25q0 -24 -28 -24q-29 0 -54 18zM1348 428q0 -35 23.5 -58.5t58.5 -23.5q34 0 57.5 23.5t23.5 58.5q0 34 -23.5 58t-57.5 24q-35 0 -58.5 -24t-23.5 -58zM1673 344v162h-24v-111
l-101 113h-12v-160h25v107l100 -111h12zM276 506h-102v-158h25v60h67v22h-67v53h77v23zM297 506v-96q0 -28 17.5 -46t45.5 -18q29 0 47.5 18t18.5 46v96h-25v-96q0 -17 -12 -29t-29 -12t-27.5 11t-10.5 30v96h-25zM481 506h-24v-158h96v23h-72v135zM600 506h-25v-158h99v23
h-74v135zM821 348l66 158h-29l-45 -117l-45 117h-29l66 -158h16zM1010 506h-103v-158h103v23h-78v47h67v20h-67v45h78v23zM1098 406l26 -58h29l-31 64q25 14 25 43q0 22 -14.5 36.5t-36.5 14.5h-60v-158h25v58h37zM1321 506h-25v-158h25v158zM1485 428q0 -26 -15.5 -42.5
t-39.5 -16.5q-25 0 -41.5 16.5t-16.5 42.5q0 25 16.5 41t41.5 16q23 0 39 -16t16 -41zM1122 455q0 -12 -7.5 -20.5t-18.5 -8.5h-35v57h35q11 0 18.5 -8t7.5 -20zM2671 375l51 49l-51 49l-17 -14l27 -23h-938v-24h938l-27 -23zM1122 195q0 -51 35 -85t86 -34q52 0 86.5 34
t34.5 85q0 50 -34.5 83t-86.5 33q-51 0 -86 -33.5t-35 -82.5zM1792 172v-76q33 -20 78 -20q40 0 65 20t25 56q0 54 -74 71q-2 1 -7 2q-20 8 -21 15q0 8 22 8q36 0 66 -23v70q-37 16 -66 16q-42 0 -67 -18t-25 -51q0 -29 15.5 -45t49.5 -27q4 -2 11.5 -4t12 -3t8 -4t3.5 -7
q0 -13 -18 -13q-24 0 -78 33zM2054 195q0 -51 34.5 -85t84.5 -34q25 0 53 14l2 72q-21 -21 -51 -21q-22 0 -36.5 15.5t-14.5 38.5q0 22 14.5 36.5t36.5 14.5q20 0 45 -15v68q-21 12 -47 12q-51 0 -86 -33.5t-35 -82.5zM2234 195q0 -51 35 -85t88 -34q51 0 86 34t35 85
q0 49 -35 82.5t-86 33.5q-52 0 -87.5 -33t-35.5 -83zM176 242h74l-84 -160h194v63h-77l84 160h-191v-63zM543 305h-162v-223h164v61h-92v21h77v61h-77v19h90v61zM553 242h53v-160h72v160h53v63h-178v-63zM791 117h63l8 -35h78l-76 223h-82l-75 -223h73zM1114 305h-162v-223
h72v70h76v59h-76v33h90v61zM1593 82v223h-71v-119l-68 119h-74v-223h72l-2 108l70 -108h73zM1606 242h53v-160h72v160h51v63h-176v-63zM2564 305h-72v-223h72v88l29 -55h51l29 55v-88h69v223h-71l-54 -102zM1292 195q0 -23 -13.5 -38.5t-35.5 -15.5t-35.5 15.5t-13.5 38.5
q0 22 13.5 36.5t35.5 14.5t35.5 -14.5t13.5 -36.5zM2406 195q0 -23 -14.5 -38.5t-34.5 -15.5q-22 0 -36.5 15.5t-14.5 38.5q0 22 14.5 36.5t36.5 14.5q20 0 34.5 -14.5t14.5 -36.5zM823 229l15 -53h-31l14 53h2zM1970 111q0 -14 10 -24.5t27 -10.5q15 0 25 10.5t10 24.5
t-10 23t-25 9q-17 0 -27 -9t-10 -23z" />
    <glyph glyph-name="eight" unicode="8" horiz-adv-x="2928" 
d="M1749 946h995v-395h-2568v395h995q8 114 91 192.5t198 78.5t198 -78.5t91 -192.5zM1286 1120h348q-78 68 -174 68q-99 0 -174 -68zM1315 760h346q59 72 59 166q0 99 -65 174zM1608 1092h-351q-59 -72 -59 -166q0 -99 68 -174zM1905 621q57 0 96 37t39 94q0 55 -39 92
t-96 37t-95 -37t-38 -92q0 -57 38 -94t95 -37zM362 803h58v71h-197v-71h60v-176h79v176zM530 698l31 -71h84l-43 94q29 25 29 65q0 38 -27.5 63t-66.5 25h-103v-247h80v71h16zM657 627h78v247h-78v-247zM913 666l11 -39h86l-84 247h-92l-84 -247h84l10 39h69zM1024 627h168
v67h-88v180h-80v-247zM2212 627h82v247h-80v-131l-76 131h-82v-247h80l-2 121zM2318 627h168v67h-88v180h-80v-247zM2611 627v98l84 149h-92l-33 -73l-30 73h-95l86 -149v-98h80zM1905 809q25 0 40 -16t15 -41q0 -26 -15 -43t-40 -17q-24 0 -40 17t-16 43q0 24 16.5 40.5
t39.5 16.5zM514 807h21q6 0 11 -6.5t5 -14.5q0 -9 -5 -15.5t-11 -6.5h-21v43zM860 731l17 60h2l16 -60h-35zM1634 731h-348q75 -65 174 -65t174 65zM1165 387v-27q25 -14 54 -14q23 0 38 12.5t15 34.5q0 28 -47 45q-12 4 -17.5 6.5t-10.5 7.5t-5 13q0 22 29 22q23 0 41 -14
v27q-20 10 -41 10q-24 0 -39 -12t-15 -33q0 -14 7 -23.5t14.5 -13.5t23.5 -10q35 -9 35 -25q0 -24 -28 -24q-29 0 -54 18zM1348 428q0 -35 23.5 -58.5t58.5 -23.5q34 0 57.5 23.5t23.5 58.5q0 34 -23.5 58t-57.5 24q-35 0 -58.5 -24t-23.5 -58zM1673 344v162h-24v-111
l-101 113h-12v-160h25v107l100 -111h12zM276 506h-102v-158h25v60h67v22h-67v53h77v23zM297 506v-96q0 -28 17.5 -46t45.5 -18q29 0 47.5 18t18.5 46v96h-25v-96q0 -17 -12 -29t-29 -12t-27.5 11t-10.5 30v96h-25zM481 506h-24v-158h96v23h-72v135zM600 506h-25v-158h99v23
h-74v135zM821 348l66 158h-29l-45 -117l-45 117h-29l66 -158h16zM1010 506h-103v-158h103v23h-78v47h67v20h-67v45h78v23zM1098 406l26 -58h29l-31 64q25 14 25 43q0 22 -14.5 36.5t-36.5 14.5h-60v-158h25v58h37zM1321 506h-25v-158h25v158zM1485 428q0 -26 -15.5 -42.5
t-39.5 -16.5q-25 0 -41.5 16.5t-16.5 42.5q0 25 16.5 41t41.5 16q23 0 39 -16t16 -41zM1122 455q0 -12 -7.5 -20.5t-18.5 -8.5h-35v57h35q11 0 18.5 -8t7.5 -20zM2671 375l51 49l-51 49l-17 -14l27 -23h-938v-24h938l-27 -23zM1122 195q0 -51 35 -85t86 -34q52 0 86.5 34
t34.5 85q0 50 -34.5 83t-86.5 33q-51 0 -86 -33.5t-35 -82.5zM1792 172v-76q33 -20 78 -20q40 0 65 20t25 56q0 54 -74 71q-2 1 -7 2q-20 8 -21 15q0 8 22 8q36 0 66 -23v70q-37 16 -66 16q-42 0 -67 -18t-25 -51q0 -29 15.5 -45t49.5 -27q4 -2 11.5 -4t12 -3t8 -4t3.5 -7
q0 -13 -18 -13q-24 0 -78 33zM2054 195q0 -51 34.5 -85t84.5 -34q25 0 53 14l2 72q-21 -21 -51 -21q-22 0 -36.5 15.5t-14.5 38.5q0 22 14.5 36.5t36.5 14.5q20 0 45 -15v68q-21 12 -47 12q-51 0 -86 -33.5t-35 -82.5zM2234 195q0 -51 35 -85t88 -34q51 0 86 34t35 85
q0 49 -35 82.5t-86 33.5q-52 0 -87.5 -33t-35.5 -83zM176 242h74l-84 -160h194v63h-77l84 160h-191v-63zM543 305h-162v-223h164v61h-92v21h77v61h-77v19h90v61zM553 242h53v-160h72v160h53v63h-178v-63zM791 117h63l8 -35h78l-76 223h-82l-75 -223h73zM1114 305h-162v-223
h72v70h76v59h-76v33h90v61zM1593 82v223h-71v-119l-68 119h-74v-223h72l-2 108l70 -108h73zM1606 242h53v-160h72v160h51v63h-176v-63zM2564 305h-72v-223h72v88l29 -55h51l29 55v-88h69v223h-71l-54 -102zM1292 195q0 -23 -13.5 -38.5t-35.5 -15.5t-35.5 15.5t-13.5 38.5
q0 22 13.5 36.5t35.5 14.5t35.5 -14.5t13.5 -36.5zM2406 195q0 -23 -14.5 -38.5t-34.5 -15.5q-22 0 -36.5 15.5t-14.5 38.5q0 22 14.5 36.5t36.5 14.5q20 0 34.5 -14.5t14.5 -36.5zM823 229l15 -53h-31l14 53h2zM1970 111q0 -14 10 -24.5t27 -10.5q15 0 25 10.5t10 24.5
t-10 23t-25 9q-17 0 -27 -9t-10 -23z" />
    <glyph glyph-name="nine" unicode="9" horiz-adv-x="2928" 
d="M1749 946h995v-395h-2568v395h995q8 114 91 192.5t198 78.5t198 -78.5t91 -192.5zM1286 1120h348q-78 68 -174 68q-99 0 -174 -68zM1315 760h346q59 72 59 166q0 99 -65 174zM1608 1092h-351q-59 -72 -59 -166q0 -99 68 -174zM1905 621q57 0 96 37t39 94q0 55 -39 92
t-96 37t-95 -37t-38 -92q0 -57 38 -94t95 -37zM362 803h58v71h-197v-71h60v-176h79v176zM530 698l31 -71h84l-43 94q29 25 29 65q0 38 -27.5 63t-66.5 25h-103v-247h80v71h16zM657 627h78v247h-78v-247zM913 666l11 -39h86l-84 247h-92l-84 -247h84l10 39h69zM1024 627h168
v67h-88v180h-80v-247zM2212 627h82v247h-80v-131l-76 131h-82v-247h80l-2 121zM2318 627h168v67h-88v180h-80v-247zM2611 627v98l84 149h-92l-33 -73l-30 73h-95l86 -149v-98h80zM1905 809q25 0 40 -16t15 -41q0 -26 -15 -43t-40 -17q-24 0 -40 17t-16 43q0 24 16.5 40.5
t39.5 16.5zM514 807h21q6 0 11 -6.5t5 -14.5q0 -9 -5 -15.5t-11 -6.5h-21v43zM860 731l17 60h2l16 -60h-35zM1634 731h-348q75 -65 174 -65t174 65zM1165 387v-27q25 -14 54 -14q23 0 38 12.5t15 34.5q0 28 -47 45q-12 4 -17.5 6.5t-10.5 7.5t-5 13q0 22 29 22q23 0 41 -14
v27q-20 10 -41 10q-24 0 -39 -12t-15 -33q0 -14 7 -23.5t14.5 -13.5t23.5 -10q35 -9 35 -25q0 -24 -28 -24q-29 0 -54 18zM1348 428q0 -35 23.5 -58.5t58.5 -23.5q34 0 57.5 23.5t23.5 58.5q0 34 -23.5 58t-57.5 24q-35 0 -58.5 -24t-23.5 -58zM1673 344v162h-24v-111
l-101 113h-12v-160h25v107l100 -111h12zM276 506h-102v-158h25v60h67v22h-67v53h77v23zM297 506v-96q0 -28 17.5 -46t45.5 -18q29 0 47.5 18t18.5 46v96h-25v-96q0 -17 -12 -29t-29 -12t-27.5 11t-10.5 30v96h-25zM481 506h-24v-158h96v23h-72v135zM600 506h-25v-158h99v23
h-74v135zM821 348l66 158h-29l-45 -117l-45 117h-29l66 -158h16zM1010 506h-103v-158h103v23h-78v47h67v20h-67v45h78v23zM1098 406l26 -58h29l-31 64q25 14 25 43q0 22 -14.5 36.5t-36.5 14.5h-60v-158h25v58h37zM1321 506h-25v-158h25v158zM1485 428q0 -26 -15.5 -42.5
t-39.5 -16.5q-25 0 -41.5 16.5t-16.5 42.5q0 25 16.5 41t41.5 16q23 0 39 -16t16 -41zM1122 455q0 -12 -7.5 -20.5t-18.5 -8.5h-35v57h35q11 0 18.5 -8t7.5 -20zM2671 375l51 49l-51 49l-17 -14l27 -23h-938v-24h938l-27 -23zM1122 195q0 -51 35 -85t86 -34q52 0 86.5 34
t34.5 85q0 50 -34.5 83t-86.5 33q-51 0 -86 -33.5t-35 -82.5zM1792 172v-76q33 -20 78 -20q40 0 65 20t25 56q0 54 -74 71q-2 1 -7 2q-20 8 -21 15q0 8 22 8q36 0 66 -23v70q-37 16 -66 16q-42 0 -67 -18t-25 -51q0 -29 15.5 -45t49.5 -27q4 -2 11.5 -4t12 -3t8 -4t3.5 -7
q0 -13 -18 -13q-24 0 -78 33zM2054 195q0 -51 34.5 -85t84.5 -34q25 0 53 14l2 72q-21 -21 -51 -21q-22 0 -36.5 15.5t-14.5 38.5q0 22 14.5 36.5t36.5 14.5q20 0 45 -15v68q-21 12 -47 12q-51 0 -86 -33.5t-35 -82.5zM2234 195q0 -51 35 -85t88 -34q51 0 86 34t35 85
q0 49 -35 82.5t-86 33.5q-52 0 -87.5 -33t-35.5 -83zM176 242h74l-84 -160h194v63h-77l84 160h-191v-63zM543 305h-162v-223h164v61h-92v21h77v61h-77v19h90v61zM553 242h53v-160h72v160h53v63h-178v-63zM791 117h63l8 -35h78l-76 223h-82l-75 -223h73zM1114 305h-162v-223
h72v70h76v59h-76v33h90v61zM1593 82v223h-71v-119l-68 119h-74v-223h72l-2 108l70 -108h73zM1606 242h53v-160h72v160h51v63h-176v-63zM2564 305h-72v-223h72v88l29 -55h51l29 55v-88h69v223h-71l-54 -102zM1292 195q0 -23 -13.5 -38.5t-35.5 -15.5t-35.5 15.5t-13.5 38.5
q0 22 13.5 36.5t35.5 14.5t35.5 -14.5t13.5 -36.5zM2406 195q0 -23 -14.5 -38.5t-34.5 -15.5q-22 0 -36.5 15.5t-14.5 38.5q0 22 14.5 36.5t36.5 14.5q20 0 34.5 -14.5t14.5 -36.5zM823 229l15 -53h-31l14 53h2zM1970 111q0 -14 10 -24.5t27 -10.5q15 0 25 10.5t10 24.5
t-10 23t-25 9q-17 0 -27 -9t-10 -23z" />
    <glyph glyph-name="colon" unicode=":" horiz-adv-x="387" 
d="M354 1094l-20 -88h-86l20 88h86zM35 0l20 88h86l-20 -88h-86z" />
    <glyph glyph-name="semicolon" unicode=";" horiz-adv-x="385" 
d="M336 1006h-86l18 88h86zM-20 -203l-11 21q115 75 123 182h-61l20 88h86q-2 -93 -39.5 -171.5t-117.5 -119.5z" />
    <glyph glyph-name="less" unicode="&#x3c;" horiz-adv-x="737" 
d="M154 721l581 426l15 -21l-568 -415l389 -408l-18 -16l-403 424z" />
    <glyph glyph-name="equal" unicode="=" horiz-adv-x="602" 
d="M633 862l-4 -24h-531l6 24h529zM571 575l-4 -24h-530l6 24h528z" />
    <glyph glyph-name="greater" unicode="&#x3e;" horiz-adv-x="737" 
d="M657 713l-581 -426l-15 20l570 416l-391 407l18 17l404 -424z" />
    <glyph glyph-name="question" unicode="?" horiz-adv-x="741" 
d="M358 369h-24q12 73 36 134.5t61.5 113.5t69.5 87t83 84q45 44 71 72t59 69.5t53 84t30 90.5q33 151 -29.5 235t-198.5 84q-142 0 -319 -100l-2 23q179 102 327 102q147 0 214 -90.5t32 -251.5q-11 -55 -31.5 -101t-57 -91t-58 -67.5t-72.5 -70.5q-106 -97 -162 -184
t-82 -223zM227 0l21 88h86l-21 -88h-86z" />
    <glyph glyph-name="at" unicode="@" horiz-adv-x="1630" 
d="M1034 1419q129 0 229.5 -36.5t164.5 -104t100.5 -163t37 -214t-27.5 -256.5q-47 -221 -153.5 -369.5t-227.5 -148.5q-57 0 -91.5 26t-44.5 69t-9 85t12 86q-74 -118 -176 -190t-201 -72q-121 0 -171.5 100.5t-12.5 264.5q51 223 183.5 369.5t281.5 146.5q107 0 162.5 -77
t46.5 -210l102 295l25 -2l-201 -578q-10 -29 -16.5 -61.5t-7.5 -74t8.5 -74.5t38.5 -55.5t77 -22.5q100 0 200.5 132.5t149.5 358.5q38 167 23.5 305.5t-71.5 237.5t-167.5 154t-265.5 55q-145 0 -286 -59t-262.5 -167.5t-215 -276t-137.5 -372.5q-77 -368 75 -564.5
t492 -199.5q55 0 86 4l-6 -24q-62 -4 -86 -4q-353 3 -510 206.5t-76 581.5q45 210 141 382t221.5 284t271 172.5t294.5 60.5zM653 156q136 0 267.5 138t175.5 327q38 166 -9.5 266t-164.5 100q-138 0 -262 -138t-171 -345q-38 -159 6 -253.5t158 -94.5z" />
    <glyph glyph-name="A" unicode="A" 
d="M866 0h-24l-41 412h-617l-215 -412h-26l751 1434h33zM705 1405l-506 -969h600z" />
    <glyph glyph-name="B" unicode="B" horiz-adv-x="1021" 
d="M647 743q117 -17 180.5 -85.5t63.5 -182.5q0 -67 -17.5 -132t-57.5 -127.5t-97 -110t-143.5 -76.5t-190.5 -29h-336l305 1434h310q149 0 233 -69t84 -196q0 -67 -20.5 -132.5t-59.5 -125.5t-105 -105t-149 -63zM647 1409h-272l-139 -655h299q102 0 184 36t132 95
t76.5 130t26.5 146q0 248 -307 248zM80 25h301q123 0 219.5 39.5t152 104.5t83.5 141t28 157q0 126 -79.5 194t-241.5 68h-314z" />
    <glyph glyph-name="C" unicode="C" horiz-adv-x="968" 
d="M471 -16q-168 0 -262 115t-94 321q0 107 25.5 238.5t79.5 271.5t128.5 255.5t184 190t233.5 74.5q166 0 291 -94l-10 -23q-64 47 -130.5 69.5t-154.5 22.5q-114 0 -217 -72t-175 -184t-125.5 -248t-79.5 -266t-26 -235q0 -191 85 -301.5t247 -110.5q158 0 313 92l-2 -26
q-155 -90 -311 -90z" />
    <glyph glyph-name="D" unicode="D" horiz-adv-x="1124" 
d="M305 0h-256l305 1434h246q227 0 351 -121t124 -344q0 -106 -20.5 -216t-61 -219t-105.5 -205t-147.5 -169.5t-195 -116.5t-240.5 -43zM375 1411l-295 -1386h225q148 0 274 60t210.5 157t144.5 221t87.5 251t27.5 249q0 217 -114.5 332.5t-330.5 115.5h-229z" />
    <glyph glyph-name="E" unicode="E" horiz-adv-x="933" 
d="M1018 1434l-4 -25h-639l-144 -670h557l-4 -24h-557l-147 -690h653l-6 -25h-678l305 1434h664z" />
    <glyph glyph-name="F" unicode="F" horiz-adv-x="845" 
d="M977 1434l-4 -25h-598l-150 -696h529l-4 -25h-529l-147 -688h-25l305 1434h623z" />
    <glyph glyph-name="G" unicode="G" horiz-adv-x="1067" 
d="M758 1425q-95 0 -182.5 -48t-153 -128.5t-119.5 -182.5t-88.5 -212.5t-53 -217t-18.5 -196.5q0 -203 89.5 -317.5t248.5 -114.5q170 0 348 127l117 547h-196l6 25h221l-125 -586q-185 -137 -371 -137q-169 0 -265.5 119t-96.5 337q0 93 19 202t54.5 222.5t91.5 218
t125 187t160.5 131.5t192.5 49q170 0 301 -94l-12 -21q-124 90 -293 90z" />
    <glyph glyph-name="H" unicode="H" horiz-adv-x="1089" 
d="M940 739l147 695h25l-305 -1434h-25l152 715h-709l-151 -715h-25l305 1434h25l-148 -695h709z" />
    <glyph glyph-name="I" unicode="I" horiz-adv-x="356" 
d="M74 0h-25l305 1434h25z" />
    <glyph glyph-name="J" unicode="J" horiz-adv-x="700" 
d="M154 -16q-123 0 -201 61l8 25q82 -62 197 -62q128 0 213 80t123 260l227 1061h-217l4 25h242l-230 -1084q-42 -196 -134.5 -281t-231.5 -85z" />
    <glyph glyph-name="K" unicode="K" horiz-adv-x="954" 
d="M74 0h-25l305 1434h25zM782 0h-28l-449 717l2 18l682 699h35l-694 -711z" />
    <glyph glyph-name="L" unicode="L" horiz-adv-x="798" 
d="M645 0h-596l305 1434h25l-299 -1409h571z" />
    <glyph glyph-name="M" unicode="M" horiz-adv-x="1339" 
d="M569 63l727 1371h23l-238 -1434h-24l223 1348l-713 -1346h-16l-150 1346l-352 -1348h-24l372 1434h21z" />
    <glyph glyph-name="N" unicode="N" horiz-adv-x="1110" 
d="M74 0h-25l305 1434h29l428 -1391l297 1391h25l-306 -1434h-28l-428 1391z" />
    <glyph glyph-name="O" unicode="O" horiz-adv-x="1153" 
d="M477 -16q-166 0 -262 121t-96 331q0 75 12.5 164t38.5 186.5t62.5 192t89 180t114.5 150.5t142 103t167 38q169 0 266 -119.5t97 -333.5q0 -88 -18 -194t-51.5 -220.5t-88 -220.5t-122 -191t-159 -136t-192.5 -51zM479 8q95 0 182 49.5t151.5 131.5t117 185.5t85.5 214
t50.5 214.5t17.5 190q0 202 -89 317t-249 115q-83 0 -159.5 -37.5t-135.5 -101t-110 -147t-86.5 -175.5t-61 -187t-37.5 -181t-12 -158q0 -197 88.5 -313.5t247.5 -116.5z" />
    <glyph glyph-name="P" unicode="P" horiz-adv-x="946" 
d="M592 1434q184 0 287.5 -84.5t103.5 -241.5q0 -77 -19.5 -155t-64.5 -154t-110 -134t-164 -94t-219 -36h-218l-114 -535h-25l305 1434h238zM193 559h213q112 0 206 33t157 87.5t106.5 126t63 146.5t19.5 152q0 144 -92.5 224.5t-269.5 80.5h-223z" />
    <glyph glyph-name="Q" unicode="Q" horiz-adv-x="1153" 
d="M1108 997q0 -94 -19 -207t-60 -235.5t-97.5 -230t-139 -193t-176.5 -121.5q27 1 179.5 7t222.5 6l-6 -23q-85 0 -267 -7.5t-258 -8.5h-10h-6h-12q-158 8 -249 128t-91 324q0 75 12.5 164t38.5 186.5t62.5 192t89 180t114.5 150.5t142 103t167 38q169 0 266 -119.5
t97 -333.5zM143 438q0 -197 88.5 -313.5t247.5 -116.5q95 0 182 49.5t151.5 131.5t117 185.5t85.5 214t50.5 214.5t17.5 190q0 202 -89 317t-249 115q-83 0 -159.5 -37.5t-135.5 -101t-110 -147t-86.5 -175.5t-61 -187t-37.5 -181t-12 -158z" />
    <glyph glyph-name="R" unicode="R" horiz-adv-x="974" 
d="M993 1122q0 -68 -15.5 -135.5t-51.5 -135.5t-89 -122t-133.5 -93.5t-179.5 -53.5l236 -582h-27l-235 580q-62 -5 -78 -5h-223l-123 -575h-25l305 1434h240q188 0 293.5 -80.5t105.5 -231.5zM201 600h223q112 0 205 31.5t154.5 83t104 119.5t61 139t18.5 143
q0 140 -92.5 216.5t-272.5 76.5h-229z" />
    <glyph glyph-name="S" unicode="S" horiz-adv-x="882" 
d="M303 -16q-192 0 -328 92l13 20q133 -88 321 -88q178 0 296 117.5t118 275.5q0 54 -14 99.5t-33.5 77t-56 63t-67 51t-79.5 47.5q-64 41 -103.5 71.5t-75.5 71.5t-52.5 89t-16.5 108q0 69 30.5 135.5t83 119t130 84.5t164.5 32q163 0 282 -80l-10 -24q-113 79 -274 79
q-157 0 -269 -103t-112 -239q0 -47 11.5 -86t28.5 -68t50.5 -60t65 -54t83.5 -57q63 -37 103.5 -67t79.5 -72.5t57.5 -96.5t18.5 -121q0 -82 -32.5 -157.5t-89.5 -133t-141.5 -92t-181.5 -34.5z" />
    <glyph glyph-name="T" unicode="T" horiz-adv-x="804" 
d="M223 1434h733l-4 -25h-354l-301 -1409h-25l301 1409h-354z" />
    <glyph glyph-name="U" unicode="U" 
d="M403 -16q-80 0 -140.5 24t-94.5 65.5t-53.5 95.5t-18 114.5t12.5 122.5l219 1028h24l-219 -1028q-11 -60 -13 -117.5t16 -108.5t49.5 -89t87.5 -60.5t130 -22.5q163 0 285 109t162 291l217 1026h25l-218 -1026q-41 -194 -169 -309t-302 -115z" />
    <glyph glyph-name="V" unicode="V" horiz-adv-x="1013" 
d="M399 41l717 1393h27l-737 -1434h-29l-129 1434h24z" />
    <glyph glyph-name="W" unicode="W" horiz-adv-x="1470" 
d="M973 35l600 1399h26l-616 -1434h-35l-33 1393l-624 -1393h-35l-8 1434h24l9 -1399l628 1399h31z" />
    <glyph glyph-name="X" unicode="X" horiz-adv-x="899" 
d="M991 1436h31l-518 -703l223 -733h-27l-213 711l-518 -711h-30l536 731l-219 705h27l209 -684z" />
    <glyph glyph-name="Y" unicode="Y" horiz-adv-x="935" 
d="M1044 1434h31l-612 -959l-101 -475h-24l102 481l-202 953h24l197 -918z" />
    <glyph glyph-name="Z" unicode="Z" horiz-adv-x="894" 
d="M686 0h-717l4 18l985 1391h-673l4 25h708l-2 -17l-987 -1392h684z" />
    <glyph glyph-name="bracketleft" unicode="[" horiz-adv-x="516" 
d="M293 -346h-369l389 1839h369l-4 -25h-344l-381 -1790h344z" />
    <glyph glyph-name="backslash" unicode="\" horiz-adv-x="978" 
d="M301 1440l422 -1680h-27l-422 1680h27z" />
    <glyph glyph-name="bracketright" unicode="]" horiz-adv-x="516" 
d="M236 1493h368l-389 -1839h-369l4 24h345l380 1790h-344z" />
    <glyph glyph-name="asciicircum" unicode="^" horiz-adv-x="712" 
d="M539 1397l-439 -779l-24 7l454 809h29l111 -809l-25 -7z" />
    <glyph glyph-name="underscore" unicode="_" horiz-adv-x="600" 
d="M455 -109l-4 -24h-603l7 24h600z" />
    <glyph glyph-name="grave" unicode="`" horiz-adv-x="401" 
d="M444 1276l-18 -10l-117 198l33 19z" />
    <glyph glyph-name="a" unicode="a" horiz-adv-x="964" 
d="M930 1090l-111 -517q-1 -4 -2 -10.5t-2 -9.5l-2 -8l-117 -545h-24l71 332q-72 -159 -181 -253.5t-222 -94.5q-126 0 -200 94.5t-74 257.5q0 83 19 183t59.5 204t96 189t137 139.5t173.5 54.5q55 0 101 -21t77 -56.5t53 -83.5t33.5 -100.5t13.5 -109.5l76 355h25zM342 8
q135 0 265.5 153.5t180.5 383.5q14 66 15.5 137.5t-12 143t-42 128t-80.5 92t-120 35.5q-86 0 -162 -52.5t-129 -134.5t-92 -182t-57.5 -195.5t-18.5 -174.5q0 -153 65.5 -243.5t186.5 -90.5z" />
    <glyph glyph-name="b" unicode="b" horiz-adv-x="972" 
d="M422 -16q-124 0 -200 101.5t-81 270.5l-75 -356h-25l321 1511h25l-158 -741q70 153 176 244.5t228 91.5q125 0 198.5 -96t73.5 -260q0 -84 -19.5 -184t-60 -203t-96 -187.5t-136 -138t-171.5 -53.5zM422 8q86 0 162 52.5t129 134.5t92 182t57.5 196t18.5 175
q0 152 -66 242.5t-184 90.5q-103 0 -197 -74.5t-159 -198t-93 -271.5q-12 -76 -13 -151t17 -143.5t47.5 -120.5t78.5 -83t110 -31z" />
    <glyph glyph-name="c" unicode="c" horiz-adv-x="776" 
d="M352 -16q-133 0 -209.5 93.5t-76.5 252.5q0 89 20.5 191.5t63.5 206.5t103 188t147 137t186 53q122 0 229 -68l-10 -22q-104 65 -221 65q-78 0 -149.5 -36.5t-124 -97.5t-95.5 -138t-69.5 -161t-41 -164t-14.5 -148q0 -150 68 -239t194 -89q119 0 256 78v-25
q-124 -77 -256 -77z" />
    <glyph glyph-name="d" unicode="d" horiz-adv-x="972" 
d="M340 -16q-127 0 -199.5 96.5t-72.5 255.5q0 85 19.5 185.5t60 204t96.5 188.5t137 138.5t172 53.5q124 0 198.5 -99t79.5 -266l164 770h25l-322 -1511h-24l65 313q-68 -149 -174 -239t-225 -90zM342 8q96 0 188 70t159 189t97 263q22 102 15.5 201t-32 176.5t-82.5 125.5
t-136 48q-86 0 -162 -52.5t-129 -134.5t-92 -182t-57.5 -195.5t-18.5 -174.5q0 -156 66 -245t184 -89z" />
    <glyph glyph-name="e" unicode="e" horiz-adv-x="864" 
d="M557 1106q120 0 190 -76.5t70 -212.5q0 -117 -49 -274h-651q-25 -113 -25 -203q0 -152 67.5 -242t194.5 -90q139 0 271 78v-27q-132 -75 -271 -75q-136 0 -211 94.5t-75 259.5q0 89 20 191.5t62 204.5t98.5 185t137.5 135t171 52zM121 567h631q41 128 41 248
q0 124 -62 195t-174 71q-66 0 -126.5 -30t-108 -79.5t-87.5 -116.5t-68 -139t-46 -149z" />
    <glyph glyph-name="f" unicode="f" horiz-adv-x="540" 
d="M633 1503q-90 0 -151.5 -63.5t-86.5 -182.5l-35 -167h287l-6 -25h-287l-227 -1065h-25l228 1065h-137l6 25h135l37 172q29 129 96.5 197.5t167.5 68.5q58 0 104 -19l-10 -22q-43 16 -96 16z" />
    <glyph glyph-name="g" unicode="g" horiz-adv-x="964" 
d="M260 -367q-151 0 -252 95l15 24q96 -92 239 -92q158 0 274 125.5t162 341.5l50 215q-79 -179 -189.5 -268.5t-232.5 -89.5q-126 0 -194.5 84.5t-68.5 238.5q0 130 37 270t100 258t159.5 194.5t203.5 76.5q120 0 192.5 -95t78.5 -255l69 334h25l-205 -965
q-47 -226 -171.5 -359t-291.5 -133zM334 8q95 0 185.5 72t152.5 180.5t99.5 236.5t37.5 240q0 156 -67 250t-181 94q-83 0 -159 -49t-132 -129t-98 -180t-63 -206t-21 -202q0 -146 64.5 -226.5t181.5 -80.5z" />
    <glyph glyph-name="h" unicode="h" horiz-adv-x="917" 
d="M621 1106q133 0 188 -99t16 -284l-155 -723h-25l156 723q36 173 -12.5 265.5t-172.5 92.5q-130 0 -243.5 -123t-177.5 -356l-129 -602h-25l321 1511h25l-156 -729q67 155 170 239.5t220 84.5z" />
    <glyph glyph-name="i" unicode="i" horiz-adv-x="325" 
d="M328 1253h-29l41 197h29zM57 0h-24l233 1090h25z" />
    <glyph glyph-name="j" unicode="j" horiz-adv-x="344" 
d="M348 1253h-29l41 197h29zM-236 -346l7 24q28 -4 63 -4q149 0 199 230l254 1186h24l-254 -1188q-28 -134 -85.5 -193t-143.5 -59q-36 0 -64 4z" />
    <glyph glyph-name="k" unicode="k" horiz-adv-x="813" 
d="M760 1090h37l-586 -523l422 -567h-33l-416 561l-118 -561h-25l321 1511h25l-199 -929z" />
    <glyph glyph-name="l" unicode="l" horiz-adv-x="342" 
d="M66 0h-25l321 1511h25z" />
    <glyph glyph-name="m" unicode="m" horiz-adv-x="1425" 
d="M1151 1106q121 0 171 -97.5t11 -279.5l-155 -729h-25l156 729q37 172 -5 262t-155 90q-118 0 -230 -123t-161 -309l-140 -649h-24l156 729q36 172 -5.5 262t-152.5 90q-123 0 -237.5 -131t-164.5 -327l-133 -623h-24l233 1090h25l-64 -295q66 141 164.5 226t202.5 85
q108 0 159 -80.5t31 -232.5q64 144 163.5 228.5t203.5 84.5z" />
    <glyph glyph-name="n" unicode="n" horiz-adv-x="909" 
d="M616 1106q131 0 185 -99t16 -284l-155 -723h-25l156 723q35 174 -13 266t-172 92t-236.5 -119t-183.5 -348l-131 -614h-24l233 1090h25l-70 -322q67 162 171.5 250t223.5 88z" />
    <glyph glyph-name="o" unicode="o" horiz-adv-x="923" 
d="M362 -16q-134 0 -213 96.5t-79 261.5q0 70 13.5 151t39 167.5t67.5 165.5t94 142t124 100.5t153 37.5q134 0 214.5 -96.5t80.5 -261.5q0 -70 -14 -151.5t-40 -167.5t-68.5 -165t-95.5 -142t-124.5 -100.5t-151.5 -37.5zM367 8q87 0 164.5 51.5t131 132.5t92.5 180
t57.5 194.5t18.5 174.5q0 156 -72 248t-200 92q-90 0 -168 -51.5t-131 -132.5t-91.5 -180t-56.5 -193.5t-18 -173.5q0 -156 70.5 -249t202.5 -93z" />
    <glyph glyph-name="p" unicode="p" horiz-adv-x="968" 
d="M-16 -350h-25l313 1440h25l-70 -314q70 150 175.5 240t226.5 90q126 0 199 -94.5t73 -261.5q0 -84 -19.5 -184t-60.5 -203t-97 -187.5t-136.5 -138t-171.5 -53.5q-89 0 -152.5 51.5t-94 133.5t-32.5 185zM418 8q85 0 161 52.5t128.5 134.5t91 182t57 196t18.5 175
q0 157 -65 245t-184 88q-95 0 -183 -69t-148 -174.5t-96 -230.5t-36 -238q0 -102 28 -182t87 -129.5t141 -49.5z" />
    <glyph glyph-name="q" unicode="q" horiz-adv-x="966" 
d="M621 -350h-25l145 669q-70 -152 -175.5 -243.5t-225.5 -91.5q-126 0 -200 95.5t-74 256.5q0 83 19.5 183t60 204t96.5 189t137 139.5t172 54.5q124 0 199.5 -100t80.5 -267l76 351h25zM346 8q92 0 179.5 70t148 175.5t97 229t36.5 232.5q0 168 -69.5 267t-188.5 99
q-86 0 -162 -52.5t-128.5 -134.5t-91 -182t-57 -195.5t-18.5 -174.5q0 -152 67 -243t187 -91z" />
    <glyph glyph-name="r" unicode="r" horiz-adv-x="567" 
d="M575 1106q30 0 70 -12l-6 -23q-33 10 -68 10q-140 0 -239.5 -133t-151.5 -377l-123 -571h-24l233 1090h25l-60 -281q125 297 344 297z" />
    <glyph glyph-name="s" unicode="s" horiz-adv-x="716" 
d="M233 -16q-146 0 -264 65l13 25q109 -66 256 -66q143 0 231 87.5t88 209.5q0 92 -47.5 149t-147.5 107q-194 96 -194 250q0 121 83.5 208t233.5 87q130 0 226 -55l-11 -23q-87 53 -215 53q-71 0 -128 -23t-92 -61.5t-53.5 -85t-18.5 -96.5q0 -76 44 -130.5t142 -106.5
q102 -53 152.5 -115.5t50.5 -157.5q0 -135 -98 -228t-251 -93z" />
    <glyph glyph-name="t" unicode="t" horiz-adv-x="624" 
d="M274 -16q-91 0 -124 59.5t-11 165.5l183 856h-136l7 25h122l62 206h18l-43 -206h283l-6 -25h-283l-180 -850q-21 -94 7.5 -150.5t105.5 -56.5q83 0 147 45l4 -26q-68 -43 -156 -43z" />
    <glyph glyph-name="u" unicode="u" horiz-adv-x="909" 
d="M721 475l131 615h25l-234 -1090h-25l68 319q-65 -160 -169 -247.5t-222 -87.5q-132 0 -186 99t-15 284l154 723h24l-153 -723q-37 -174 10.5 -266.5t171.5 -92.5t236.5 119t183.5 348z" />
    <glyph glyph-name="v" unicode="v" horiz-adv-x="866" 
d="M328 0h-27l-121 1090h25l117 -1055l571 1055h27z" />
    <glyph glyph-name="w" unicode="w" horiz-adv-x="1292" 
d="M817 33l498 1057h26l-512 -1090h-34l-41 1053l-490 -1053h-35l-45 1090h25l43 -1057l493 1057h31z" />
    <glyph glyph-name="x" unicode="x" horiz-adv-x="802" 
d="M815 1090h33l-426 -535l203 -555h-27l-197 535l-424 -535h-30l442 559l-199 531h27l191 -512z" />
    <glyph glyph-name="y" unicode="y" horiz-adv-x="866" 
d="M322 35l571 1055h27l-590 -1090l-187 -350h-28l186 346l-121 1094h25z" />
    <glyph glyph-name="z" unicode="z" horiz-adv-x="735" 
d="M549 0h-604l4 18l780 1047h-545l6 25h580l-4 -17l-782 -1048h571z" />
    <glyph glyph-name="braceleft" unicode="{" horiz-adv-x="589" 
d="M399 1182q8 72 24.5 119t54.5 88.5t104.5 66t169.5 37.5l-2 -25q-96 -12 -157 -33.5t-95.5 -59.5t-49 -80.5t-24.5 -112.5q-5 -41 -13.5 -123t-17 -150t-20.5 -127q-19 -93 -78.5 -144.5t-144.5 -64.5q79 -13 115.5 -65t17.5 -146q-11 -54 -31 -121.5t-46.5 -150
t-39.5 -125.5q-26 -85 -25 -143t54.5 -93t173.5 -51l-7 -24q-129 17 -187.5 57t-59 103t25.5 151q11 36 40.5 128.5t48 155.5t28.5 113q23 106 -33 152.5t-186 46.5l4 25q131 0 206.5 46.5t98.5 151.5q13 61 21.5 124.5t16.5 149.5t13 124z" />
    <glyph glyph-name="bar" unicode="|" horiz-adv-x="356" 
d="M379 1434l-344 -1618h-25l344 1618h25z" />
    <glyph glyph-name="braceright" unicode="}" horiz-adv-x="589" 
d="M342 784q-23 -105 32.5 -151.5t186.5 -46.5l-4 -25q-131 0 -206.5 -46.5t-98.5 -152.5q-13 -61 -21.5 -124t-17 -149t-12.5 -124q-8 -72 -24.5 -119t-54.5 -88.5t-104.5 -66t-169.5 -37.5l2 24q77 10 131.5 27t89 39t56 57t31.5 71.5t18 92.5q5 41 13.5 123t17 150
t20.5 127q19 93 79 144t145 64q-79 13 -116 65t-18 146q11 54 31 122t46.5 150.5t39.5 125.5q26 85 24.5 142.5t-54.5 92.5t-173 51l7 25q129 -17 187.5 -57t59 -103t-25.5 -151q-10 -34 -40 -128.5t-48.5 -157t-28.5 -112.5z" />
    <glyph glyph-name="asciitilde" unicode="~" horiz-adv-x="610" 
d="M203 1227l-21 16q68 123 168 123q35 0 67.5 -19.5t54 -43t51 -43t59.5 -19.5q82 0 143 115l18 -17q-68 -122 -165 -122q-32 0 -64 19.5t-53.5 42.5t-52.5 42.5t-62 19.5q-83 0 -143 -114z" />
    <glyph glyph-name="uni00A0" unicode="&#xa0;" horiz-adv-x="397" 
 />
    <glyph glyph-name="exclamdown" unicode="&#xa1;" horiz-adv-x="387" 
d="M352 1087l-20 -88h-86l20 88h86zM168 365l-152 -713h-24l151 713l76 354h21z" />
    <glyph glyph-name="cent" unicode="&#xa2;" horiz-adv-x="835" 
d="M815 1038l-10 -22q-77 49 -164 61l-170 -532l-168 -533q28 -4 49 -4q119 0 256 78v-25q-124 -77 -256 -77q-21 0 -57 4l-90 -285h-25l92 291q-98 26 -152 114t-54 222q0 89 20.5 191.5t63.5 206.5t103 188t147 137t186 53q25 0 39 -2l88 278h24l-90 -280q90 -13 168 -64z
M444 541l172 538q-10 2 -32 2q-78 0 -149.5 -36.5t-124 -97.5t-95.5 -138t-69.5 -161t-41 -164t-14.5 -148q0 -126 49.5 -211t141.5 -109z" />
    <glyph glyph-name="sterling" unicode="&#xa3;" horiz-adv-x="933" 
d="M764 1448q150 0 244 -121l-17 -22q-89 120 -233 120q-148 0 -253.5 -110t-150.5 -320l-78 -360h437l-6 -25h-435l-125 -585h633l-4 -25h-811l2 14l158 13l125 583h-201l6 25h199l76 352q49 232 162.5 346.5t271.5 114.5z" />
    <glyph glyph-name="yen" unicode="&#xa5;" horiz-adv-x="935" 
d="M436 502l-198 932h28l195 -918l586 918h28l-596 -932h250l-6 -25h-260l-37 -178h258l-6 -25h-258l-58 -274h-24l57 274h-254l6 25h254l37 178h-254l6 25h246z" />
    <glyph glyph-name="brokenbar" unicode="&#xa6;" horiz-adv-x="479" 
d="M440 1434l-125 -594h-24l125 594h24zM223 410l-127 -594h-24l127 594h24z" />
    <glyph glyph-name="section" unicode="&#xa7;" horiz-adv-x="735" 
d="M571 1427h-8q-21 -97 -23 -197t10.5 -180.5t27.5 -172t27 -171.5t11 -179.5t-22 -196.5q-34 -160 -142 -253t-239 -93q-121 0 -231 71l12 25q107 -72 223 -72h10q24 114 22 234t-20.5 213t-35 205.5t-20.5 212.5t22 233q34 160 141.5 253t238.5 93q120 0 232 -72l-12 -24
q-106 71 -224 71zM569 330q20 95 21.5 192.5t-11 176.5t-27.5 170t-27 172t-10.5 182.5t22.5 201.5q-112 -12 -200 -98.5t-118 -220.5q-24 -112 -21 -229t21.5 -209t35.5 -204.5t21 -214.5t-22 -239q112 12 199 99t116 221z" />
    <glyph glyph-name="dieresis" unicode="&#xa8;" horiz-adv-x="487" 
d="M297 1274h-29l41 196h29zM530 1274h-28l41 196h28z" />
    <glyph glyph-name="copyright" unicode="&#xa9;" horiz-adv-x="1355" 
d="M557 -18q-244 0 -360.5 200t-46.5 535q35 168 108 308t169 233.5t210 144.5t233 51q245 0 362.5 -200t47.5 -537q-47 -223 -158.5 -392t-258 -256t-306.5 -87zM563 6q234 0 428.5 193.5t263.5 517.5q45 224 8 382.5t-141.5 244.5t-257.5 86q-233 0 -427 -194t-263 -519
q-69 -324 43 -517.5t346 -193.5zM643 295q-128 0 -181.5 113t-12.5 313q42 192 143 308t233 116q100 0 164 -64l-14 -22q-64 61 -156 61q-118 0 -211.5 -106.5t-134.5 -292.5q-37 -182 9 -292t167 -110q90 0 185 64l4 -23q-92 -65 -195 -65z" />
    <glyph glyph-name="ordfeminine" unicode="&#xaa;" horiz-adv-x="499" 
d="M459 1524q156 0 116 -189l-77 -366h-25l27 127q-27 -56 -76 -95.5t-107 -39.5q-62 0 -88.5 41.5t-11.5 117.5q18 75 65.5 118.5t118.5 43.5q62 0 134 -14l14 63q20 88 -5 128t-91 40q-61 0 -121 -37l-6 23q63 39 133 39zM330 983q59 0 114.5 65t75.5 142l10 51
q-59 16 -124 16q-64 0 -107.5 -35t-56.5 -100q-14 -65 8.5 -102t79.5 -37zM473 848h-315l4 24h317z" />
    <glyph glyph-name="guillemotleft" unicode="&#xab;" horiz-adv-x="821" 
d="M319 111l-20 -15l-270 420l2 12l450 420l19 -16l-443 -414zM688 111l-20 -15l-271 420l2 12l451 420l18 -16l-442 -414z" />
    <glyph glyph-name="logicalnot" unicode="&#xac;" horiz-adv-x="878" 
d="M874 702v-2l-2 -6l-2 -16l-63 -293h-25l64 293h-783l5 24h806z" />
    <glyph glyph-name="uni00AD" unicode="&#xad;" horiz-adv-x="600" 
d="M545 453l-4 -25h-531l4 25h531z" />
    <glyph glyph-name="registered" unicode="&#xae;" horiz-adv-x="770" 
d="M580 1462q122 0 177 -95.5t21 -250.5q-32 -156 -128 -252t-218 -96t-176.5 95.5t-22.5 252.5q34 155 130.5 250.5t216.5 95.5zM754 1116q31 144 -19.5 233t-161.5 89q-109 0 -196.5 -89t-118.5 -233q-31 -145 19 -234t159 -89q111 0 199 89t119 234zM541 1339
q66 0 96 -34t18 -95q-10 -49 -42.5 -80.5t-80.5 -42.5l68 -176h-27l-67 172q-8 -2 -23 -2h-57l-37 -170h-24l92 428h84zM631 1210q9 48 -16 76.5t-80 28.5h-60l-45 -209h57q56 0 95 27.5t49 76.5z" />
    <glyph glyph-name="macron" unicode="&#xaf;" horiz-adv-x="624" 
d="M674 1303h-400l7 24h399z" />
    <glyph glyph-name="degree" unicode="&#xb0;" horiz-adv-x="821" 
d="M475 854q-123 0 -191 87.5t-42 211.5q26 123 131.5 210t228.5 87q124 0 193 -87t43 -210q-26 -124 -132 -211.5t-231 -87.5zM479 879q114 0 210.5 80t121.5 194q25 112 -39 192t-178 80q-112 0 -208.5 -79.5t-121.5 -192.5q-25 -114 38.5 -194t176.5 -80z" />
    <glyph glyph-name="plusminus" unicode="&#xb1;" horiz-adv-x="626" 
d="M414 965l-54 -252h265l-7 -25h-264l-53 -254h-25l54 254h-264l6 25h264l53 252h25zM535 338h-529l4 24h531z" />
    <glyph glyph-name="uni00B2" unicode="&#xb2;" horiz-adv-x="411" 
d="M471 1098h-297l4 18q99 77 221 199q65 63 96.5 111t43.5 100q12 57 -18 91t-87 34q-60 0 -127 -41l-6 24q74 41 143 41q65 0 98.5 -39.5t18.5 -109.5q-12 -60 -43.5 -108t-99.5 -115q-71 -73 -199 -181h258z" />
    <glyph glyph-name="uni00B3" unicode="&#xb3;" horiz-adv-x="417" 
d="M313 1092q-82 0 -129 41l11 22q57 -41 120 -41q66 0 113 42t64 116q12 66 -14 104.5t-83 38.5q-34 0 -67 -8l4 20l213 220h-240l6 22h271l-2 -18l-213 -219q24 4 36 4q69 0 98.5 -44.5t14.5 -119.5q-20 -85 -74 -132.5t-129 -47.5z" />
    <glyph glyph-name="acute" unicode="&#xb4;" horiz-adv-x="401" 
d="M485 1464l-202 -198l-15 10l193 207z" />
    <glyph glyph-name="uni00B5" unicode="&#xb5;" horiz-adv-x="909" 
d="M721 475l131 615h25l-234 -1090h-25l68 319q-65 -160 -169 -247.5t-222 -87.5q-96 0 -151 51.5t-64 152.5l-115 -540h-24l202 956h2l103 486h24l-153 -723q-37 -174 10.5 -266.5t171.5 -92.5t236.5 119t183.5 348z" />
    <glyph glyph-name="paragraph" unicode="&#xb6;" horiz-adv-x="1101" 
d="M635 1434h129l-356 -1680h-25l188 889h-100q-184 0 -260.5 101t-36.5 294q41 192 159.5 294t301.5 102zM743 -246l357 1680h24l-356 -1680h-25z" />
    <glyph glyph-name="periodcentered" unicode="&#xb7;" horiz-adv-x="266" 
d="M117 666l20 88h86l-20 -88h-86z" />
    <glyph glyph-name="cedilla" unicode="&#xb8;" horiz-adv-x="466" 
d="M109 4l-46 -84q75 -6 116 -43.5t28 -99.5q-11 -59 -64.5 -99t-138.5 -40q-68 0 -117 18l13 25q38 -19 108 -19q74 0 119 33.5t55 81.5q12 55 -31 87t-122 34l55 106h25z" />
    <glyph glyph-name="uni00B9" unicode="&#xb9;" horiz-adv-x="247" 
d="M293 1647l117 22h20l-123 -571h-24l116 547l-108 -21z" />
    <glyph glyph-name="ordmasculine" unicode="&#xba;" horiz-adv-x="552" 
d="M362 961q-83 0 -118 75t-6 205q27 127 92.5 204t150.5 77q86 0 122 -75t7 -204q-26 -127 -93.5 -204.5t-154.5 -77.5zM371 985q73 0 132 68t83 188q25 116 -4 186t-105 70q-72 0 -131 -68t-86 -188q-23 -115 7 -185.5t104 -70.5zM514 846h-342l4 24h344z" />
    <glyph glyph-name="guillemotright" unicode="&#xbb;" horiz-adv-x="823" 
d="M125 944l20 12l271 -419l-2 -13l-451 -420l-16 19l442 412zM494 944l20 12l270 -419l-2 -13l-450 -420l-17 19l441 412z" />
    <glyph glyph-name="onequarter" unicode="&#xbc;" horiz-adv-x="823" 
d="M389 1477l-123 -572h-24l116 547l-108 -20l2 22l117 23h20zM-143 0l938 1434h24l-936 -1434h-26zM334 172l334 399h32l-84 -393h70l-6 -24h-70l-32 -154h-25l33 154h-250zM369 178h223l76 361z" />
    <glyph glyph-name="onehalf" unicode="&#xbd;" horiz-adv-x="770" 
d="M389 1477l-123 -572h-24l116 547l-108 -20l2 22l117 23h20zM-143 0l938 1434h24l-936 -1434h-26zM567 578q65 0 98.5 -40t18.5 -110q-12 -60 -43.5 -108t-99.5 -115q-66 -68 -199 -180h258l-6 -25h-297l4 18q99 77 221 199q65 63 96.5 111t43.5 100q12 57 -18 91t-87 34
q-60 0 -127 -41l-6 25q74 41 143 41z" />
    <glyph glyph-name="threequarters" unicode="&#xbe;" horiz-adv-x="993" 
d="M272 899q-82 0 -129 41l11 23q57 -41 120 -41q66 0 113 41.5t64 115.5q12 66 -14 105t-83 39q-30 0 -67 -9l4 21l213 219h-240l6 23h271l-2 -19l-213 -219q24 4 36 4q69 0 98.5 -44.5t14.5 -119.5q-20 -85 -74 -132.5t-129 -47.5zM53 0h-26l938 1434h24zM748 0h-25
l33 154h-250l-2 18l334 399h32l-84 -393h70l-6 -24h-70zM838 539l-299 -361h223z" />
    <glyph glyph-name="questiondown" unicode="&#xbf;" horiz-adv-x="745" 
d="M512 1090l-20 -89h-86l20 89h86zM381 721h25q-12 -73 -35.5 -135t-62 -114.5t-69.5 -87t-83 -83.5q-49 -49 -71.5 -73t-57 -67.5t-54.5 -85t-30 -89.5q-33 -151 29 -235.5t198 -84.5q140 0 319 101l3 -25q-180 -100 -328 -100q-145 0 -213 91t-33 251q9 44 27.5 86
t34 68.5t50.5 65.5t49.5 53.5t57.5 55.5q70 64 112.5 114.5t78 125t53.5 168.5z" />
    <glyph glyph-name="Agrave" unicode="&#xc0;" 
d="M651 1749l94 -205l-16 -8l-111 197zM866 0h-24l-41 412h-617l-215 -412h-26l751 1434h33zM705 1405l-506 -969h600z" />
    <glyph glyph-name="Aacute" unicode="&#xc1;" 
d="M905 1749l25 -16l-193 -197l-12 8zM-57 0l751 1434h33l139 -1434h-24l-41 412h-617l-215 -412h-26zM705 1405l-506 -969h600z" />
    <glyph glyph-name="Acircumflex" unicode="&#xc2;" 
d="M809 1757h37l96 -235l-27 -6l-94 215l-200 -215l-23 8zM-57 0l751 1434h33l139 -1434h-24l-41 412h-617l-215 -412h-26zM705 1405l-506 -969h600z" />
    <glyph glyph-name="Atilde" unicode="&#xc3;" 
d="M930 1681l24 -4q-15 -70 -50 -109.5t-81 -39.5q-28 0 -49.5 19.5t-33 43t-29 43t-37.5 19.5q-34 0 -61 -34t-40 -95l-24 4q15 70 50 109.5t81 39.5q27 0 48.5 -19.5t33.5 -43t30 -43t37 -19.5q34 0 61 34t40 95zM-57 0l751 1434h33l139 -1434h-24l-41 412h-617l-215 -412
h-26zM705 1405l-506 -969h600z" />
    <glyph glyph-name="Adieresis" unicode="&#xc4;" 
d="M666 1710h28l-41 -188h-28zM870 1710h29l-41 -188h-29zM-57 0l751 1434h33l139 -1434h-24l-41 412h-617l-215 -412h-26zM705 1405l-506 -969h600z" />
    <glyph glyph-name="Aring" unicode="&#xc5;" 
d="M782 1751q63 0 91.5 -44t15.5 -103q-11 -59 -58 -102.5t-110 -43.5q-64 0 -93 43.5t-18 102.5q13 59 60.5 103t111.5 44zM864 1604q10 50 -12 86t-76 36t-92.5 -36.5t-48.5 -85.5q-10 -48 13 -84.5t77 -36.5t91.5 36.5t47.5 84.5zM-57 0l751 1434h33l139 -1434h-24
l-41 412h-617l-215 -412h-26zM705 1405l-506 -969h600z" />
    <glyph glyph-name="AE" unicode="&#xc6;" horiz-adv-x="1433" 
d="M1520 1434l-4 -25h-639l-144 -670h557l-4 -24h-557l-147 -690h651l-6 -25h-676l88 418h-410l-260 -418h-26l893 1434h684zM848 1409l-602 -967h399l205 967h-2z" />
    <glyph glyph-name="Ccedilla" unicode="&#xc7;" horiz-adv-x="968" 
d="M762 1425q-114 0 -217 -72t-175 -184t-125.5 -248t-79.5 -266t-26 -235q0 -191 85 -301.5t247 -110.5q158 0 313 92l-2 -26q-152 -87 -303 -90l-37 -70q75 -6 116 -43.5t28 -99.5q-11 -59 -64.5 -99.5t-138.5 -40.5q-66 0 -117 19l13 24q36 -18 108 -18q74 0 119 33.5
t55 81.5q12 55 -31 86.5t-122 33.5l47 93q-160 6 -250 120t-90 316q0 107 25.5 238.5t79.5 271.5t128.5 255.5t184 190t233.5 74.5q166 0 291 -94l-10 -23q-64 47 -130.5 69.5t-154.5 22.5z" />
    <glyph glyph-name="Egrave" unicode="&#xc8;" horiz-adv-x="933" 
d="M623 1749l94 -205l-17 -8l-110 197zM1018 1434l-4 -25h-639l-144 -670h557l-4 -24h-557l-147 -690h653l-6 -25h-678l305 1434h664z" />
    <glyph glyph-name="Eacute" unicode="&#xc9;" horiz-adv-x="933" 
d="M877 1749l24 -16l-192 -197l-13 8zM1018 1434l-4 -25h-639l-144 -670h557l-4 -24h-557l-147 -690h653l-6 -25h-678l305 1434h664z" />
    <glyph glyph-name="Ecircumflex" unicode="&#xca;" horiz-adv-x="933" 
d="M887 1516l-94 215l-201 -215l-23 8l211 233h37l96 -235zM1018 1434l-4 -25h-639l-144 -670h557l-4 -24h-557l-147 -690h653l-6 -25h-678l305 1434h664z" />
    <glyph glyph-name="Edieresis" unicode="&#xcb;" horiz-adv-x="933" 
d="M637 1710h29l-41 -188h-29zM842 1710h28l-41 -188h-28zM1018 1434l-4 -25h-639l-144 -670h557l-4 -24h-557l-147 -690h653l-6 -25h-678l305 1434h664z" />
    <glyph glyph-name="Igrave" unicode="&#xcc;" horiz-adv-x="356" 
d="M401 1544l-16 -8l-111 197l33 16zM74 0h-25l305 1434h25z" />
    <glyph glyph-name="Iacute" unicode="&#xcd;" horiz-adv-x="356" 
d="M586 1733l-193 -197l-12 8l180 205zM74 0h-25l305 1434h25z" />
    <glyph glyph-name="Icircumflex" unicode="&#xce;" horiz-adv-x="356" 
d="M500 1757l96 -235l-27 -6l-94 215l-201 -215l-22 8l211 233h37zM74 0h-25l305 1434h25z" />
    <glyph glyph-name="Idieresis" unicode="&#xcf;" horiz-adv-x="356" 
d="M309 1522h-28l41 188h28zM514 1522h-29l41 188h29zM74 0h-25l305 1434h25z" />
    <glyph glyph-name="Eth" unicode="&#xd0;" horiz-adv-x="1124" 
d="M354 1434h246q227 0 351 -121t124 -344q0 -106 -20.5 -216t-61 -219t-105.5 -205t-147.5 -169.5t-195 -116.5t-240.5 -43h-256l150 705h-115l4 24h117zM80 25h225q148 0 274 60t210.5 157t144.5 221t87.5 251t27.5 249q0 217 -114.5 332.5t-330.5 115.5h-229l-146 -682
h330l-4 -24h-330z" />
    <glyph glyph-name="Ntilde" unicode="&#xd1;" horiz-adv-x="1110" 
d="M606 1524l-24 4q15 70 50 109.5t81 39.5q27 0 48.5 -19.5t33.5 -43t30 -43t37 -19.5q34 0 61 34t40 95l24 -4q-15 -70 -50 -109.5t-81 -39.5q-28 0 -49.5 19.5t-33 43t-29 43t-37.5 19.5q-34 0 -61 -34t-40 -95zM74 0h-25l305 1434h29l428 -1391l297 1391h25l-306 -1434
h-28l-428 1391z" />
    <glyph glyph-name="Ograve" unicode="&#xd2;" horiz-adv-x="1153" 
d="M799 1544l-17 -8l-110 197l33 16zM477 -16q-166 0 -262 121t-96 331q0 75 12.5 164t38.5 186.5t62.5 192t89 180t114.5 150.5t142 103t167 38q169 0 266 -119.5t97 -333.5q0 -88 -18 -194t-51.5 -220.5t-88 -220.5t-122 -191t-159 -136t-192.5 -51zM479 8q95 0 182 49.5
t151.5 131.5t117 185.5t85.5 214t50.5 214.5t17.5 190q0 202 -89 317t-249 115q-83 0 -159.5 -37.5t-135.5 -101t-110 -147t-86.5 -175.5t-61 -187t-37.5 -181t-12 -158q0 -197 88.5 -313.5t247.5 -116.5z" />
    <glyph glyph-name="Oacute" unicode="&#xd3;" horiz-adv-x="1153" 
d="M983 1733l-192 -197l-13 8l180 205zM477 -16q-166 0 -262 121t-96 331q0 75 12.5 164t38.5 186.5t62.5 192t89 180t114.5 150.5t142 103t167 38q169 0 266 -119.5t97 -333.5q0 -88 -18 -194t-51.5 -220.5t-88 -220.5t-122 -191t-159 -136t-192.5 -51zM479 8
q95 0 182 49.5t151.5 131.5t117 185.5t85.5 214t50.5 214.5t17.5 190q0 202 -89 317t-249 115q-83 0 -159.5 -37.5t-135.5 -101t-110 -147t-86.5 -175.5t-61 -187t-37.5 -181t-12 -158q0 -197 88.5 -313.5t247.5 -116.5z" />
    <glyph glyph-name="Ocircumflex" unicode="&#xd4;" horiz-adv-x="1153" 
d="M969 1516l-95 215l-200 -215l-23 8l211 233h37l96 -235zM745 1450q169 0 266 -119.5t97 -333.5q0 -88 -18 -194t-51.5 -220.5t-88 -220.5t-122 -191t-159 -136t-192.5 -51q-166 0 -262 121t-96 331q0 75 12.5 164t38.5 186.5t62.5 192t89 180t114.5 150.5t142 103t167 38
zM479 8q95 0 182 49.5t151.5 131.5t117 185.5t85.5 214t50.5 214.5t17.5 190q0 202 -89 317t-249 115q-83 0 -159.5 -37.5t-135.5 -101t-110 -147t-86.5 -175.5t-61 -187t-37.5 -181t-12 -158q0 -197 88.5 -313.5t247.5 -116.5z" />
    <glyph glyph-name="Otilde" unicode="&#xd5;" horiz-adv-x="1153" 
d="M627 1524l-25 4q15 70 50 109.5t81 39.5q27 0 49 -19.5t34 -43t30 -43t37 -19.5q34 0 60.5 34t39.5 95l25 -4q-15 -70 -50 -109.5t-81 -39.5q-28 0 -49.5 19.5t-33.5 43t-29.5 43t-37.5 19.5q-34 0 -60.5 -34t-39.5 -95zM477 -16q-166 0 -262 121t-96 331q0 75 12.5 164
t38.5 186.5t62.5 192t89 180t114.5 150.5t142 103t167 38q169 0 266 -119.5t97 -333.5q0 -88 -18 -194t-51.5 -220.5t-88 -220.5t-122 -191t-159 -136t-192.5 -51zM479 8q95 0 182 49.5t151.5 131.5t117 185.5t85.5 214t50.5 214.5t17.5 190q0 202 -89 317t-249 115
q-83 0 -159.5 -37.5t-135.5 -101t-110 -147t-86.5 -175.5t-61 -187t-37.5 -181t-12 -158q0 -197 88.5 -313.5t247.5 -116.5z" />
    <glyph glyph-name="Odieresis" unicode="&#xd6;" horiz-adv-x="1153" 
d="M707 1522h-29l41 188h29zM911 1522h-28l41 188h28zM477 -16q-166 0 -262 121t-96 331q0 75 12.5 164t38.5 186.5t62.5 192t89 180t114.5 150.5t142 103t167 38q169 0 266 -119.5t97 -333.5q0 -88 -18 -194t-51.5 -220.5t-88 -220.5t-122 -191t-159 -136t-192.5 -51z
M479 8q95 0 182 49.5t151.5 131.5t117 185.5t85.5 214t50.5 214.5t17.5 190q0 202 -89 317t-249 115q-83 0 -159.5 -37.5t-135.5 -101t-110 -147t-86.5 -175.5t-61 -187t-37.5 -181t-12 -158q0 -197 88.5 -313.5t247.5 -116.5z" />
    <glyph glyph-name="multiply" unicode="&#xd7;" horiz-adv-x="462" 
d="M270 719l224 166l-211 -185l141 -178l-23 -16l-139 176l-227 -166l213 184l-142 179l23 18z" />
    <glyph glyph-name="Oslash" unicode="&#xd8;" horiz-adv-x="1153" 
d="M1155 1434l19 -13l-121 -155q55 -107 55 -269q0 -88 -18 -194t-51.5 -220.5t-88 -220.5t-122 -191t-159 -136t-192.5 -51q-195 0 -291 163l-114 -147l-19 12l121 156q-55 113 -55 268q0 75 12.5 164t38.5 186.5t62.5 192t89 180t114.5 150.5t142 103t167 38
q98 0 173.5 -42t121.5 -122zM143 438q0 -145 50 -248l831 1076q-86 159 -279 159q-83 0 -159.5 -37.5t-135.5 -101t-110 -147t-86.5 -175.5t-61 -187t-37.5 -181t-12 -158zM1083 993q0 147 -47 250l-833 -1073q87 -162 276 -162q95 0 182 49.5t151.5 131.5t117 185.5
t85.5 214t50.5 214.5t17.5 190z" />
    <glyph glyph-name="Ugrave" unicode="&#xd9;" 
d="M743 1544l-16 -8l-111 197l33 16zM403 -16q-80 0 -140.5 24t-94.5 65.5t-53.5 95.5t-18 114.5t12.5 122.5l219 1028h24l-219 -1028q-11 -60 -13 -117.5t16 -108.5t49.5 -89t87.5 -60.5t130 -22.5q163 0 285 109t162 291l217 1026h25l-218 -1026q-41 -194 -169 -309
t-302 -115z" />
    <glyph glyph-name="Uacute" unicode="&#xda;" 
d="M930 1733l-193 -197l-12 8l180 205zM403 -16q-80 0 -140.5 24t-94.5 65.5t-53.5 95.5t-18 114.5t12.5 122.5l219 1028h24l-219 -1028q-11 -60 -13 -117.5t16 -108.5t49.5 -89t87.5 -60.5t130 -22.5q163 0 285 109t162 291l217 1026h25l-218 -1026q-41 -194 -169 -309
t-302 -115z" />
    <glyph glyph-name="Ucircumflex" unicode="&#xdb;" 
d="M913 1516l-94 215l-201 -215l-22 8l211 233h37l96 -235zM850 408l217 1026h25l-218 -1026q-41 -194 -169 -309t-302 -115q-80 0 -140.5 24t-94.5 65.5t-53.5 95.5t-18 114.5t12.5 122.5l219 1028h24l-219 -1028q-11 -60 -13 -117.5t16 -108.5t49.5 -89t87.5 -60.5
t130 -22.5q163 0 285 109t162 291z" />
    <glyph glyph-name="Udieresis" unicode="&#xdc;" 
d="M653 1522h-28l41 188h28zM858 1522h-29l41 188h29zM403 -16q-80 0 -140.5 24t-94.5 65.5t-53.5 95.5t-18 114.5t12.5 122.5l219 1028h24l-219 -1028q-11 -60 -13 -117.5t16 -108.5t49.5 -89t87.5 -60.5t130 -22.5q163 0 285 109t162 291l217 1026h25l-218 -1026
q-41 -194 -169 -309t-302 -115z" />
    <glyph glyph-name="Yacute" unicode="&#xdd;" horiz-adv-x="935" 
d="M852 1749l25 -16l-193 -197l-12 8zM1044 1434h31l-612 -959l-101 -475h-24l102 481l-202 953h24l197 -918z" />
    <glyph glyph-name="Thorn" unicode="&#xde;" horiz-adv-x="946" 
d="M324 1171h217q184 0 285.5 -83t101.5 -240q0 -78 -19.5 -156t-64.5 -154.5t-110 -135t-164.5 -94.5t-219.5 -36h-219l-57 -272h-25l305 1434h25zM137 297h215q112 0 206 33t156 87.5t105 126.5t62.5 147t19.5 151q0 144 -92.5 224.5t-269.5 80.5h-222z" />
    <glyph glyph-name="germandbls" unicode="&#xdf;" horiz-adv-x="952" 
d="M551 791q127 -9 198.5 -85.5t71.5 -207.5q0 -53 -11 -110t-32 -115t-56 -109.5t-80 -92t-108 -64t-135 -23.5q-122 0 -204 57l12 25q76 -58 196 -58q79 0 146 32.5t111.5 84t76 116.5t46 129.5t14.5 123.5q0 131 -72 202.5t-205 71.5q-12 0 -48 -3.5t-44 -6.5l4 24
q204 28 328.5 159t124.5 333q0 106 -55 167.5t-156 61.5q-134 0 -231 -97t-134 -271l-243 -1135h-25l244 1137q39 181 142 286t249 105q103 0 168 -66.5t65 -185.5q0 -73 -20.5 -144.5t-62 -138.5t-112.5 -120.5t-163 -81.5z" />
    <glyph glyph-name="agrave" unicode="&#xe0;" horiz-adv-x="964" 
d="M545 1483l102 -207l-18 -10l-117 198zM930 1090l-111 -517q-1 -4 -2 -10.5t-2 -9.5l-2 -8l-117 -545h-24l71 332q-72 -159 -181 -253.5t-222 -94.5q-126 0 -200 94.5t-74 257.5q0 83 19 183t59.5 204t96 189t137 139.5t173.5 54.5q55 0 101 -21t77 -56.5t53 -83.5
t33.5 -100.5t13.5 -109.5l76 355h25zM342 8q135 0 265.5 153.5t180.5 383.5q14 66 15.5 137.5t-12 143t-42 128t-80.5 92t-120 35.5q-86 0 -162 -52.5t-129 -134.5t-92 -182t-57.5 -195.5t-18.5 -174.5q0 -153 65.5 -243.5t186.5 -90.5z" />
    <glyph glyph-name="aacute" unicode="&#xe1;" horiz-adv-x="964" 
d="M788 1483l25 -19l-203 -198l-14 10zM930 1090l-111 -517q-1 -4 -2 -10.5t-2 -9.5l-2 -8l-117 -545h-24l71 332q-72 -159 -181 -253.5t-222 -94.5q-126 0 -200 94.5t-74 257.5q0 83 19 183t59.5 204t96 189t137 139.5t173.5 54.5q55 0 101 -21t77 -56.5t53 -83.5
t33.5 -100.5t13.5 -109.5l76 355h25zM342 8q135 0 265.5 153.5t180.5 383.5q14 66 15.5 137.5t-12 143t-42 128t-80.5 92t-120 35.5q-86 0 -162 -52.5t-129 -134.5t-92 -182t-57.5 -195.5t-18.5 -174.5q0 -153 65.5 -243.5t186.5 -90.5z" />
    <glyph glyph-name="acircumflex" unicode="&#xe2;" horiz-adv-x="964" 
d="M743 1214l-84 234l-180 -234l-22 11l192 252h33l86 -254zM930 1090l-111 -517q-1 -4 -2 -10.5t-2 -9.5l-2 -8l-117 -545h-24l71 332q-72 -159 -181 -253.5t-222 -94.5q-126 0 -200 94.5t-74 257.5q0 83 19 183t59.5 204t96 189t137 139.5t173.5 54.5q55 0 101 -21
t77 -56.5t53 -83.5t33.5 -100.5t13.5 -109.5l76 355h25zM342 8q135 0 265.5 153.5t180.5 383.5q14 66 15.5 137.5t-12 143t-42 128t-80.5 92t-120 35.5q-86 0 -162 -52.5t-129 -134.5t-92 -182t-57.5 -195.5t-18.5 -174.5q0 -153 65.5 -243.5t186.5 -90.5z" />
    <glyph glyph-name="atilde" unicode="&#xe3;" horiz-adv-x="964" 
d="M557 1395q-34 0 -60.5 -34t-39.5 -95l-25 4q15 70 50 109.5t81 39.5q27 0 49 -19.5t34 -43t30 -43t37 -19.5q34 0 60.5 34t39.5 95l25 -4q-15 -70 -50 -109.5t-81 -39.5q-28 0 -49.5 19.5t-33.5 43t-29.5 43t-37.5 19.5zM930 1090l-111 -517q-1 -4 -2 -10.5t-2 -9.5
l-2 -8l-117 -545h-24l71 332q-72 -159 -181 -253.5t-222 -94.5q-126 0 -200 94.5t-74 257.5q0 83 19 183t59.5 204t96 189t137 139.5t173.5 54.5q55 0 101 -21t77 -56.5t53 -83.5t33.5 -100.5t13.5 -109.5l76 355h25zM342 8q135 0 265.5 153.5t180.5 383.5q14 66 15.5 137.5
t-12 143t-42 128t-80.5 92t-120 35.5q-86 0 -162 -52.5t-129 -134.5t-92 -182t-57.5 -195.5t-18.5 -174.5q0 -153 65.5 -243.5t186.5 -90.5z" />
    <glyph glyph-name="adieresis" unicode="&#xe4;" horiz-adv-x="964" 
d="M530 1470h29l-41 -196h-29zM764 1470h29l-41 -196h-29zM930 1090l-111 -517q-1 -4 -2 -10.5t-2 -9.5l-2 -8l-117 -545h-24l71 332q-72 -159 -181 -253.5t-222 -94.5q-126 0 -200 94.5t-74 257.5q0 83 19 183t59.5 204t96 189t137 139.5t173.5 54.5q55 0 101 -21t77 -56.5
t53 -83.5t33.5 -100.5t13.5 -109.5l76 355h25zM342 8q135 0 265.5 153.5t180.5 383.5q14 66 15.5 137.5t-12 143t-42 128t-80.5 92t-120 35.5q-86 0 -162 -52.5t-129 -134.5t-92 -182t-57.5 -195.5t-18.5 -174.5q0 -153 65.5 -243.5t186.5 -90.5z" />
    <glyph glyph-name="aring" unicode="&#xe5;" horiz-adv-x="964" 
d="M606 1202q-64 0 -92.5 43.5t-17.5 104.5q13 59 60.5 102t111.5 43q63 0 91 -43t15 -102q-11 -60 -58 -104t-110 -44zM520 1350q-10 -50 13 -86.5t77 -36.5t92 37t48 86q10 48 -12 84t-76 36t-93 -36t-49 -84zM930 1090l-111 -517q-1 -4 -2 -10.5t-2 -9.5l-2 -8l-117 -545
h-24l71 332q-72 -159 -181 -253.5t-222 -94.5q-126 0 -200 94.5t-74 257.5q0 83 19 183t59.5 204t96 189t137 139.5t173.5 54.5q55 0 101 -21t77 -56.5t53 -83.5t33.5 -100.5t13.5 -109.5l76 355h25zM342 8q135 0 265.5 153.5t180.5 383.5q14 66 15.5 137.5t-12 143t-42 128
t-80.5 92t-120 35.5q-86 0 -162 -52.5t-129 -134.5t-92 -182t-57.5 -195.5t-18.5 -174.5q0 -153 65.5 -243.5t186.5 -90.5z" />
    <glyph glyph-name="ae" unicode="&#xe6;" horiz-adv-x="1427" 
d="M1118 1106q121 0 190.5 -76t69.5 -213q0 -136 -49 -274h-651q-25 -113 -25 -203q0 -152 67.5 -242t194.5 -90q139 0 271 78v-27q-129 -75 -271 -75q-134 0 -210 94.5t-76 259.5v37q-22 -71 -63 -139t-95.5 -125t-125 -92t-142.5 -35q-94 0 -146.5 59.5t-52.5 163.5
q0 53 11.5 107.5t39.5 110t69 97.5t106.5 69t146.5 27q159 0 287 -28q1 6 6.5 24.5t7.5 28.5l20 92q12 58 15 105.5t-6 93.5t-33 77.5t-69.5 50.5t-110.5 19q-139 0 -254 -71l-2 22q127 74 256 74q286 0 237 -326q67 146 165.5 236t221.5 90zM682 567h631q41 128 41 248
q0 124 -61.5 195t-174.5 71q-65 0 -125.5 -30t-108 -79.5t-87.5 -116.5t-68 -139t-47 -149zM637 461q13 71 20 102q-118 31 -282 31q-75 0 -136 -25.5t-98.5 -65t-63 -91.5t-36 -102t-10.5 -99q0 -203 180 -203q93 0 183 69t152 170.5t91 213.5z" />
    <glyph glyph-name="ccedilla" unicode="&#xe7;" horiz-adv-x="776" 
d="M584 1081q-78 0 -149.5 -36.5t-124 -97.5t-95.5 -138t-69.5 -161t-41 -164t-14.5 -148q0 -150 68 -239t194 -89q119 0 256 78v-25q-121 -74 -250 -77l-36 -68q75 -6 115.5 -43.5t27.5 -99.5q-11 -59 -64.5 -99.5t-138.5 -40.5q-66 0 -117 19l13 24q36 -18 108 -18
q74 0 119 33.5t55 81.5q12 55 -31 87t-122 34l47 90q-125 7 -196.5 100t-71.5 246q0 89 20.5 191.5t63.5 206.5t103 188t147 137t186 53q122 0 229 -68l-10 -22q-104 65 -221 65z" />
    <glyph glyph-name="egrave" unicode="&#xe8;" horiz-adv-x="864" 
d="M528 1483l103 -207l-19 -10l-116 198zM557 1106q120 0 190 -76.5t70 -212.5q0 -117 -49 -274h-651q-25 -113 -25 -203q0 -152 67.5 -242t194.5 -90q139 0 271 78v-27q-132 -75 -271 -75q-136 0 -211 94.5t-75 259.5q0 89 20 191.5t62 204.5t98.5 185t137.5 135t171 52z
M121 567h631q41 128 41 248q0 124 -62 195t-174 71q-66 0 -126.5 -30t-108 -79.5t-87.5 -116.5t-68 -139t-46 -149z" />
    <glyph glyph-name="eacute" unicode="&#xe9;" horiz-adv-x="864" 
d="M770 1483l25 -19l-203 -198l-14 10zM557 1106q120 0 190 -76.5t70 -212.5q0 -117 -49 -274h-651q-25 -113 -25 -203q0 -152 67.5 -242t194.5 -90q139 0 271 78v-27q-132 -75 -271 -75q-136 0 -211 94.5t-75 259.5q0 89 20 191.5t62 204.5t98.5 185t137.5 135t171 52z
M121 567h631q41 128 41 248q0 124 -62 195t-174 71q-66 0 -126.5 -30t-108 -79.5t-87.5 -116.5t-68 -139t-46 -149z" />
    <glyph glyph-name="ecircumflex" unicode="&#xea;" horiz-adv-x="864" 
d="M725 1214l-84 234l-180 -234l-23 11l193 252h33l86 -254zM557 1106q120 0 190 -76.5t70 -212.5q0 -117 -49 -274h-651q-25 -113 -25 -203q0 -152 67.5 -242t194.5 -90q139 0 271 78v-27q-132 -75 -271 -75q-136 0 -211 94.5t-75 259.5q0 89 20 191.5t62 204.5t98.5 185
t137.5 135t171 52zM121 567h631q41 128 41 248q0 124 -62 195t-174 71q-66 0 -126.5 -30t-108 -79.5t-87.5 -116.5t-68 -139t-46 -149z" />
    <glyph glyph-name="edieresis" unicode="&#xeb;" horiz-adv-x="864" 
d="M514 1470h29l-41 -196h-29zM748 1470h28l-41 -196h-28zM557 1106q120 0 190 -76.5t70 -212.5q0 -117 -49 -274h-651q-25 -113 -25 -203q0 -152 67.5 -242t194.5 -90q139 0 271 78v-27q-132 -75 -271 -75q-136 0 -211 94.5t-75 259.5q0 89 20 191.5t62 204.5t98.5 185
t137.5 135t171 52zM121 567h631q41 128 41 248q0 124 -62 195t-174 71q-66 0 -126.5 -30t-108 -79.5t-87.5 -116.5t-68 -139t-46 -149z" />
    <glyph glyph-name="igrave" unicode="&#xec;" horiz-adv-x="325" 
d="M344 1276l-18 -10l-117 198l33 19zM57 0h-24l233 1090h25z" />
    <glyph glyph-name="iacute" unicode="&#xed;" horiz-adv-x="325" 
d="M510 1464l-203 -198l-14 10l192 207zM57 0h-24l233 1090h25z" />
    <glyph glyph-name="icircumflex" unicode="&#xee;" horiz-adv-x="325" 
d="M379 1477l86 -254l-25 -9l-84 234l-180 -234l-22 11l192 252h33zM57 0h-24l233 1090h25z" />
    <glyph glyph-name="idieresis" unicode="&#xef;" horiz-adv-x="325" 
d="M215 1274h-29l41 196h29zM449 1274h-29l41 196h28zM57 0h-24l233 1090h25z" />
    <glyph glyph-name="eth" unicode="&#xf0;" horiz-adv-x="915" 
d="M920 1395l-144 -70q88 -133 88 -334q0 -113 -25 -255.5t-73 -274.5v-10l-4 -5q-35 -97 -79.5 -177.5t-101 -146t-127.5 -102t-149 -36.5q-117 0 -184.5 80.5t-67.5 222.5q0 61 12.5 133.5t36.5 149t62.5 148t86.5 127.5t112.5 90t136.5 34q68 0 119.5 -34.5t83 -95
t47.5 -136.5t18 -166q75 258 72 467q-6 187 -84 311l-205 -101l-6 21l198 96q-60 84 -143.5 120.5t-159.5 25.5l13 24q73 11 160.5 -29t152.5 -129l147 72zM305 8q74 0 141 35.5t121 99t97 141.5t77 173q3 102 -8.5 186.5t-38.5 153.5t-77 108t-119 39q-79 0 -149 -46.5
t-118.5 -119t-84 -161t-52 -173t-16.5 -153.5q0 -133 58 -208t169 -75z" />
    <glyph glyph-name="ntilde" unicode="&#xf1;" horiz-adv-x="909" 
d="M569 1395q-34 0 -60.5 -34t-39.5 -95l-25 4q15 70 50 109.5t81 39.5q27 0 49 -19.5t34 -43t30 -43t37 -19.5q34 0 60.5 34t39.5 95l25 -4q-15 -70 -50 -109.5t-81 -39.5q-28 0 -49.5 19.5t-33.5 43t-29.5 43t-37.5 19.5zM616 1106q131 0 185 -99t16 -284l-155 -723h-25
l156 723q35 174 -13 266t-172 92t-236.5 -119t-183.5 -348l-131 -614h-24l233 1090h25l-70 -322q67 162 171.5 250t223.5 88z" />
    <glyph glyph-name="ograve" unicode="&#xf2;" horiz-adv-x="923" 
d="M645 1276l-18 -10l-117 198l33 19zM362 -16q-134 0 -213 96.5t-79 261.5q0 70 13.5 151t39 167.5t67.5 165.5t94 142t124 100.5t153 37.5q134 0 214.5 -96.5t80.5 -261.5q0 -70 -14 -151.5t-40 -167.5t-68.5 -165t-95.5 -142t-124.5 -100.5t-151.5 -37.5zM367 8
q87 0 164.5 51.5t131 132.5t92.5 180t57.5 194.5t18.5 174.5q0 156 -72 248t-200 92q-90 0 -168 -51.5t-131 -132.5t-91.5 -180t-56.5 -193.5t-18 -173.5q0 -156 70.5 -249t202.5 -93z" />
    <glyph glyph-name="oacute" unicode="&#xf3;" horiz-adv-x="923" 
d="M809 1464l-203 -198l-14 10l192 207zM362 -16q-134 0 -213 96.5t-79 261.5q0 70 13.5 151t39 167.5t67.5 165.5t94 142t124 100.5t153 37.5q134 0 214.5 -96.5t80.5 -261.5q0 -70 -14 -151.5t-40 -167.5t-68.5 -165t-95.5 -142t-124.5 -100.5t-151.5 -37.5zM367 8
q87 0 164.5 51.5t131 132.5t92.5 180t57.5 194.5t18.5 174.5q0 156 -72 248t-200 92q-90 0 -168 -51.5t-131 -132.5t-91.5 -180t-56.5 -193.5t-18 -173.5q0 -156 70.5 -249t202.5 -93z" />
    <glyph glyph-name="ocircumflex" unicode="&#xf4;" horiz-adv-x="923" 
d="M739 1214l-84 234l-180 -234l-22 11l192 252h33l86 -254zM561 1106q134 0 214.5 -96.5t80.5 -261.5q0 -70 -14 -151.5t-40 -167.5t-68.5 -165t-95.5 -142t-124.5 -100.5t-151.5 -37.5q-134 0 -213 96.5t-79 261.5q0 70 13.5 151t39 167.5t67.5 165.5t94 142t124 100.5
t153 37.5zM367 8q87 0 164.5 51.5t131 132.5t92.5 180t57.5 194.5t18.5 174.5q0 156 -72 248t-200 92q-90 0 -168 -51.5t-131 -132.5t-91.5 -180t-56.5 -193.5t-18 -173.5q0 -156 70.5 -249t202.5 -93z" />
    <glyph glyph-name="otilde" unicode="&#xf5;" horiz-adv-x="923" 
d="M453 1266l-25 4q15 70 50 109.5t81 39.5q27 0 49 -19.5t34 -43t30 -43t37 -19.5q34 0 60.5 34t39.5 95l25 -4q-15 -70 -50.5 -109.5t-81.5 -39.5q-28 0 -49.5 19.5t-33 43t-29 43t-37.5 19.5q-34 0 -60.5 -34t-39.5 -95zM362 -16q-134 0 -213 96.5t-79 261.5
q0 70 13.5 151t39 167.5t67.5 165.5t94 142t124 100.5t153 37.5q134 0 214.5 -96.5t80.5 -261.5q0 -70 -14 -151.5t-40 -167.5t-68.5 -165t-95.5 -142t-124.5 -100.5t-151.5 -37.5zM367 8q87 0 164.5 51.5t131 132.5t92.5 180t57.5 194.5t18.5 174.5q0 156 -72 248t-200 92
q-90 0 -168 -51.5t-131 -132.5t-91.5 -180t-56.5 -193.5t-18 -173.5q0 -156 70.5 -249t202.5 -93z" />
    <glyph glyph-name="odieresis" unicode="&#xf6;" horiz-adv-x="923" 
d="M514 1274h-29l41 196h29zM748 1274h-29l41 196h28zM362 -16q-134 0 -213 96.5t-79 261.5q0 70 13.5 151t39 167.5t67.5 165.5t94 142t124 100.5t153 37.5q134 0 214.5 -96.5t80.5 -261.5q0 -70 -14 -151.5t-40 -167.5t-68.5 -165t-95.5 -142t-124.5 -100.5t-151.5 -37.5z
M367 8q87 0 164.5 51.5t131 132.5t92.5 180t57.5 194.5t18.5 174.5q0 156 -72 248t-200 92q-90 0 -168 -51.5t-131 -132.5t-91.5 -180t-56.5 -193.5t-18 -173.5q0 -156 70.5 -249t202.5 -93z" />
    <glyph glyph-name="divide" unicode="&#xf7;" horiz-adv-x="602" 
d="M449 1010l-21 -88h-86l20 88h87zM604 725l-4 -25h-530l4 25h530zM238 428l20 88h86l-20 -88h-86z" />
    <glyph glyph-name="oslash" unicode="&#xf8;" horiz-adv-x="923" 
d="M907 1102l17 -12l-111 -138q43 -88 43 -204q0 -70 -14 -151.5t-40 -167.5t-68.5 -165t-95.5 -142t-124.5 -100.5t-151.5 -37.5q-157 0 -237 129l-102 -125l-21 14l111 135q-43 82 -43 205q0 70 13.5 151t39 167.5t67.5 165.5t94 142t124 100.5t153 37.5q161 0 240 -133z
M94 350q0 -114 37 -192l653 794q-74 129 -225 129q-90 0 -168 -51.5t-131 -132.5t-91.5 -180t-56.5 -193.5t-18 -173.5zM831 741q0 115 -36 191l-652 -797q68 -127 224 -127q87 0 164.5 51.5t131 132.5t92.5 180t57.5 194.5t18.5 174.5z" />
    <glyph glyph-name="ugrave" unicode="&#xf9;" horiz-adv-x="909" 
d="M532 1483l103 -207l-19 -10l-116 198zM721 475l131 615h25l-234 -1090h-25l68 319q-65 -160 -169 -247.5t-222 -87.5q-132 0 -186 99t-15 284l154 723h24l-153 -723q-37 -174 10.5 -266.5t171.5 -92.5t236.5 119t183.5 348z" />
    <glyph glyph-name="uacute" unicode="&#xfa;" horiz-adv-x="909" 
d="M774 1483l25 -19l-203 -198l-14 10zM721 475l131 615h25l-234 -1090h-25l68 319q-65 -160 -169 -247.5t-222 -87.5q-132 0 -186 99t-15 284l154 723h24l-153 -723q-37 -174 10.5 -266.5t171.5 -92.5t236.5 119t183.5 348z" />
    <glyph glyph-name="ucircumflex" unicode="&#xfb;" horiz-adv-x="909" 
d="M729 1214l-84 234l-180 -234l-23 11l193 252h33l86 -254zM721 475l131 615h25l-234 -1090h-25l68 319q-65 -160 -169 -247.5t-222 -87.5q-132 0 -186 99t-15 284l154 723h24l-153 -723q-37 -174 10.5 -266.5t171.5 -92.5t236.5 119t183.5 348z" />
    <glyph glyph-name="udieresis" unicode="&#xfc;" horiz-adv-x="909" 
d="M516 1470h29l-41 -196h-29zM750 1470h28l-41 -196h-28zM721 475l131 615h25l-234 -1090h-25l68 319q-65 -160 -169 -247.5t-222 -87.5q-132 0 -186 99t-15 284l154 723h24l-153 -723q-37 -174 10.5 -266.5t171.5 -92.5t236.5 119t183.5 348z" />
    <glyph glyph-name="yacute" unicode="&#xfd;" horiz-adv-x="866" 
d="M756 1483l24 -19l-202 -198l-15 10zM322 35l571 1055h27l-590 -1090l-187 -350h-28l186 346l-121 1094h25z" />
    <glyph glyph-name="thorn" unicode="&#xfe;" horiz-adv-x="976" 
d="M-8 -350h-25l404 1861h24l-159 -735q70 150 175 240t226 90q126 0 199 -94.5t73 -261.5q0 -84 -19.5 -184t-60.5 -203t-97 -187.5t-136.5 -138t-171.5 -53.5q-130 0 -202 105t-77 265zM426 8q85 0 161 52.5t128.5 134.5t91.5 182t57.5 196t18.5 175q0 156 -65.5 244.5
t-184.5 88.5q-95 0 -183 -69t-148 -174.5t-96 -230.5t-36 -238q0 -102 28 -182t87 -129.5t141 -49.5z" />
    <glyph glyph-name="ydieresis" unicode="&#xff;" horiz-adv-x="866" 
d="M498 1470h28l-41 -196h-28zM731 1470h29l-41 -196h-29zM322 35l571 1055h27l-590 -1090l-187 -350h-28l186 346l-121 1094h25z" />
    <glyph glyph-name="Amacron" unicode="&#x100;" 
d="M545 1589l6 25h399l-6 -25h-399zM-57 0l751 1434h33l139 -1434h-24l-41 412h-617l-215 -412h-26zM705 1405l-506 -969h600z" />
    <glyph glyph-name="amacron" unicode="&#x101;" horiz-adv-x="964" 
d="M436 1327h400l-7 -24h-399zM930 1090l-111 -517q-1 -4 -2 -10.5t-2 -9.5l-2 -8l-117 -545h-24l71 332q-72 -159 -181 -253.5t-222 -94.5q-126 0 -200 94.5t-74 257.5q0 83 19 183t59.5 204t96 189t137 139.5t173.5 54.5q55 0 101 -21t77 -56.5t53 -83.5t33.5 -100.5
t13.5 -109.5l76 355h25zM342 8q135 0 265.5 153.5t180.5 383.5q14 66 15.5 137.5t-12 143t-42 128t-80.5 92t-120 35.5q-86 0 -162 -52.5t-129 -134.5t-92 -182t-57.5 -195.5t-18.5 -174.5q0 -153 65.5 -243.5t186.5 -90.5z" />
    <glyph glyph-name="Abreve" unicode="&#x102;" 
d="M719 1495q-73 0 -101.5 50.5t-7.5 150.5h25q-39 -176 90 -176q127 0 164 176h24q-20 -97 -69.5 -149t-124.5 -52zM-57 0l751 1434h33l139 -1434h-24l-41 412h-617l-215 -412h-26zM705 1405l-506 -969h600z" />
    <glyph glyph-name="abreve" unicode="&#x103;" horiz-adv-x="964" 
d="M614 1237q-73 0 -101 50.5t-7 150.5h24q-19 -85 4 -130.5t87 -45.5q122 0 163 176h25q-20 -96 -70.5 -148.5t-124.5 -52.5zM930 1090l-111 -517q-1 -4 -2 -10.5t-2 -9.5l-2 -8l-117 -545h-24l71 332q-72 -159 -181 -253.5t-222 -94.5q-126 0 -200 94.5t-74 257.5
q0 83 19 183t59.5 204t96 189t137 139.5t173.5 54.5q55 0 101 -21t77 -56.5t53 -83.5t33.5 -100.5t13.5 -109.5l76 355h25zM342 8q135 0 265.5 153.5t180.5 383.5q14 66 15.5 137.5t-12 143t-42 128t-80.5 92t-120 35.5q-86 0 -162 -52.5t-129 -134.5t-92 -182t-57.5 -195.5
t-18.5 -174.5q0 -153 65.5 -243.5t186.5 -90.5z" />
    <glyph glyph-name="Aogonek" unicode="&#x104;" 
d="M686 -211q-15 -68 24 -95.5t130 -12.5l-2 -25q-104 -15 -150 20t-29 111q27 122 183 219l-41 406h-617l-215 -412h-26l751 1434h33l139 -1432l2 -2q-80 -50 -126.5 -105.5t-55.5 -105.5zM705 1405l-506 -969h600z" />
    <glyph glyph-name="aogonek" unicode="&#x105;" horiz-adv-x="964" 
d="M815 553l-2 -8l-117 -543l2 -2q-80 -50 -126.5 -105.5t-55.5 -105.5q-15 -68 24 -95.5t130 -12.5l-2 -25q-104 -15 -150 20t-29 111q26 119 185 221l69 324q-72 -159 -181 -253.5t-222 -94.5q-126 0 -200 94.5t-74 257.5q0 83 19 183t59.5 204t96 189t137 139.5
t173.5 54.5q55 0 101 -21t77 -56.5t53 -83.5t33.5 -100.5t13.5 -109.5l76 355h25l-111 -517q-1 -4 -2 -10.5t-2 -9.5zM342 8q135 0 265.5 153.5t180.5 383.5q14 66 15.5 137.5t-12 143t-42 128t-80.5 92t-120 35.5q-86 0 -162 -52.5t-129 -134.5t-92 -182t-57.5 -195.5
t-18.5 -174.5q0 -153 65.5 -243.5t186.5 -90.5z" />
    <glyph glyph-name="Cacute" unicode="&#x106;" horiz-adv-x="968" 
d="M993 1731l-192 -197l-13 8l181 205zM471 -16q-168 0 -262 115t-94 321q0 107 25.5 238.5t79.5 271.5t128.5 255.5t184 190t233.5 74.5q166 0 291 -94l-10 -23q-64 47 -130.5 69.5t-154.5 22.5q-114 0 -217 -72t-175 -184t-125.5 -248t-79.5 -266t-26 -235
q0 -191 85 -301.5t247 -110.5q158 0 313 92l-2 -26q-155 -90 -311 -90z" />
    <glyph glyph-name="cacute" unicode="&#x107;" horiz-adv-x="776" 
d="M815 1462l-203 -198l-14 10l193 207zM352 -16q-133 0 -209.5 93.5t-76.5 252.5q0 89 20.5 191.5t63.5 206.5t103 188t147 137t186 53q122 0 229 -68l-10 -22q-104 65 -221 65q-78 0 -149.5 -36.5t-124 -97.5t-95.5 -138t-69.5 -161t-41 -164t-14.5 -148q0 -150 68 -239
t194 -89q119 0 256 78v-25q-124 -77 -256 -77z" />
    <glyph glyph-name="Ccircumflex" unicode="&#x108;" horiz-adv-x="968" 
d="M979 1513l-94 216l-201 -216l-22 9l210 233h37l97 -235zM762 1425q-114 0 -217 -72t-175 -184t-125.5 -248t-79.5 -266t-26 -235q0 -191 85 -301.5t247 -110.5q158 0 313 92l-2 -26q-155 -90 -311 -90q-168 0 -262 115t-94 321q0 107 25.5 238.5t79.5 271.5t128.5 255.5
t184 190t233.5 74.5q166 0 291 -94l-10 -23q-64 47 -130.5 69.5t-154.5 22.5z" />
    <glyph glyph-name="ccircumflex" unicode="&#x109;" horiz-adv-x="776" 
d="M745 1212l-83 234l-181 -234l-22 11l192 252h33l86 -254zM584 1081q-78 0 -149.5 -36.5t-124 -97.5t-95.5 -138t-69.5 -161t-41 -164t-14.5 -148q0 -150 68 -239t194 -89q119 0 256 78v-25q-124 -77 -256 -77q-133 0 -209.5 93.5t-76.5 252.5q0 89 20.5 191.5t63.5 206.5
t103 188t147 137t186 53q122 0 229 -68l-10 -22q-104 65 -221 65z" />
    <glyph glyph-name="Cdotaccent" unicode="&#x10a;" horiz-adv-x="968" 
d="M821 1534h-28l41 188h28zM471 -16q-168 0 -262 115t-94 321q0 107 25.5 238.5t79.5 271.5t128.5 255.5t184 190t233.5 74.5q166 0 291 -94l-10 -23q-64 47 -130.5 69.5t-154.5 22.5q-114 0 -217 -72t-175 -184t-125.5 -248t-79.5 -266t-26 -235q0 -191 85 -301.5
t247 -110.5q158 0 313 92l-2 -26q-155 -90 -311 -90z" />
    <glyph glyph-name="cdotaccent" unicode="&#x10b;" horiz-adv-x="776" 
d="M635 1251h-29l41 197h29zM352 -16q-133 0 -209.5 93.5t-76.5 252.5q0 89 20.5 191.5t63.5 206.5t103 188t147 137t186 53q122 0 229 -68l-10 -22q-104 65 -221 65q-78 0 -149.5 -36.5t-124 -97.5t-95.5 -138t-69.5 -161t-41 -164t-14.5 -148q0 -150 68 -239t194 -89
q119 0 256 78v-25q-124 -77 -256 -77z" />
    <glyph glyph-name="Ccaron" unicode="&#x10c;" horiz-adv-x="968" 
d="M1014 1745l-199 -215h-37l-106 215l22 10l109 -201l190 201zM762 1425q-114 0 -217 -72t-175 -184t-125.5 -248t-79.5 -266t-26 -235q0 -191 85 -301.5t247 -110.5q158 0 313 92l-2 -26q-155 -90 -311 -90q-168 0 -262 115t-94 321q0 107 25.5 238.5t79.5 271.5
t128.5 255.5t184 190t233.5 74.5q166 0 291 -94l-10 -23q-64 47 -130.5 69.5t-154.5 22.5z" />
    <glyph glyph-name="ccaron" unicode="&#x10d;" horiz-adv-x="776" 
d="M819 1473l-190 -252h-33l-82 252l23 10l81 -234l183 234zM66 330q0 89 20.5 191.5t63.5 206.5t103 188t147 137t186 53q122 0 229 -68l-10 -22q-104 65 -221 65q-78 0 -149.5 -36.5t-124 -97.5t-95.5 -138t-69.5 -161t-41 -164t-14.5 -148q0 -150 68 -239t194 -89
q119 0 256 78v-25q-124 -77 -256 -77q-133 0 -209.5 93.5t-76.5 252.5z" />
    <glyph glyph-name="Dcaron" unicode="&#x10e;" horiz-adv-x="1124" 
d="M858 1747l-199 -215h-36l-107 215l23 10l108 -201l191 201zM354 1434h246q227 0 351 -121t124 -344q0 -106 -20.5 -216t-61 -219t-105.5 -205t-147.5 -169.5t-195 -116.5t-240.5 -43h-256zM80 25h225q148 0 274 60t210.5 157t144.5 221t87.5 251t27.5 249
q0 217 -114.5 332.5t-330.5 115.5h-229z" />
    <glyph glyph-name="dcaron" unicode="&#x10f;" horiz-adv-x="972" 
d="M340 -16q-127 0 -199.5 96.5t-72.5 255.5q0 85 19.5 185.5t60 204t96.5 188.5t137 138.5t172 53.5q124 0 198.5 -99t79.5 -266l164 770h25l-322 -1511h-24l65 313q-68 -149 -174 -239t-225 -90zM1092 1163l73 348l29 -2l-82 -346h-20zM342 8q96 0 188 70t159 189t97 263
q22 102 15.5 201t-32 176.5t-82.5 125.5t-136 48q-86 0 -162 -52.5t-129 -134.5t-92 -182t-57.5 -195.5t-18.5 -174.5q0 -156 66 -245t184 -89z" />
    <glyph glyph-name="Dcroat" unicode="&#x110;" horiz-adv-x="1124" 
d="M354 1434h246q227 0 351 -121t124 -344q0 -106 -20.5 -216t-61 -219t-105.5 -205t-147.5 -169.5t-195 -116.5t-240.5 -43h-256l150 705h-115l4 24h117zM80 25h225q148 0 274 60t210.5 157t144.5 221t87.5 251t27.5 249q0 217 -114.5 332.5t-330.5 115.5h-229l-146 -682
h330l-4 -24h-330z" />
    <glyph glyph-name="dcroat" unicode="&#x111;" horiz-adv-x="972" 
d="M973 1288h127l-4 -24h-129l-269 -1264h-24l65 313q-68 -149 -174 -239t-225 -90q-127 0 -199.5 96.5t-72.5 255.5q0 85 19.5 185.5t60 204t96.5 188.5t137 138.5t172 53.5q124 0 198.5 -99t79.5 -266l111 523h-258l4 24h260l47 223h25zM786 530q22 102 15.5 201
t-32 176.5t-82.5 125.5t-136 48q-86 0 -162 -52.5t-129 -134.5t-92 -182t-57.5 -195.5t-18.5 -174.5q0 -156 66 -245t184 -89q96 0 188 70t159 189t97 263z" />
    <glyph glyph-name="Emacron" unicode="&#x112;" horiz-adv-x="933" 
d="M522 1614h400l-7 -25h-399zM1018 1434l-4 -25h-639l-144 -670h557l-4 -24h-557l-147 -690h653l-6 -25h-678l305 1434h664z" />
    <glyph glyph-name="emacron" unicode="&#x113;" horiz-adv-x="864" 
d="M418 1327h399l-6 -24h-399zM557 1106q120 0 190 -76.5t70 -212.5q0 -117 -49 -274h-651q-25 -113 -25 -203q0 -152 67.5 -242t194.5 -90q139 0 271 78v-27q-132 -75 -271 -75q-136 0 -211 94.5t-75 259.5q0 89 20 191.5t62 204.5t98.5 185t137.5 135t171 52zM121 567h631
q41 128 41 248q0 124 -62 195t-174 71q-66 0 -126.5 -30t-108 -79.5t-87.5 -116.5t-68 -139t-46 -149z" />
    <glyph glyph-name="Ebreve" unicode="&#x114;" horiz-adv-x="933" 
d="M690 1495q-73 0 -101 50.5t-7 150.5h24q-39 -176 90 -176q127 0 164 176h25q-20 -97 -70 -149t-125 -52zM1018 1434l-4 -25h-639l-144 -670h557l-4 -24h-557l-147 -690h653l-6 -25h-678l305 1434h664z" />
    <glyph glyph-name="ebreve" unicode="&#x115;" horiz-adv-x="864" 
d="M596 1237q-73 0 -101.5 50.5t-7.5 150.5h25q-39 -176 90 -176q123 0 164 176h25q-20 -96 -70.5 -148.5t-124.5 -52.5zM557 1106q120 0 190 -76.5t70 -212.5q0 -117 -49 -274h-651q-25 -113 -25 -203q0 -152 67.5 -242t194.5 -90q139 0 271 78v-27q-132 -75 -271 -75
q-136 0 -211 94.5t-75 259.5q0 89 20 191.5t62 204.5t98.5 185t137.5 135t171 52zM121 567h631q41 128 41 248q0 124 -62 195t-174 71q-66 0 -126.5 -30t-108 -79.5t-87.5 -116.5t-68 -139t-46 -149z" />
    <glyph glyph-name="Edotaccent" unicode="&#x116;" horiz-adv-x="933" 
d="M741 1724h29l-41 -188h-29zM1018 1434l-4 -25h-639l-144 -670h557l-4 -24h-557l-147 -690h653l-6 -25h-678l305 1434h664z" />
    <glyph glyph-name="edotaccent" unicode="&#x117;" horiz-adv-x="864" 
d="M627 1450h28l-41 -197h-28zM557 1106q120 0 190 -76.5t70 -212.5q0 -117 -49 -274h-651q-25 -113 -25 -203q0 -152 67.5 -242t194.5 -90q139 0 271 78v-27q-132 -75 -271 -75q-136 0 -211 94.5t-75 259.5q0 89 20 191.5t62 204.5t98.5 185t137.5 135t171 52zM121 567h631
q41 128 41 248q0 124 -62 195t-174 71q-66 0 -126.5 -30t-108 -79.5t-87.5 -116.5t-68 -139t-46 -149z" />
    <glyph glyph-name="Eogonek" unicode="&#x118;" horiz-adv-x="933" 
d="M1018 1434l-4 -25h-639l-144 -670h557l-4 -24h-557l-147 -690h653l-6 -25q-80 -50 -126.5 -105.5t-55.5 -105.5q-15 -68 24 -95.5t129 -12.5l-2 -25q-104 -15 -150 20t-28 111q26 114 172 213h-641l305 1434h664z" />
    <glyph glyph-name="eogonek" unicode="&#x119;" horiz-adv-x="864" 
d="M557 1106q120 0 190 -76.5t70 -212.5q0 -117 -49 -274h-651q-25 -113 -25 -203q0 -152 67.5 -242t194.5 -90q139 0 271 78v-27q-12 -7 -29 -14q-79 -51 -125 -106.5t-55 -104.5q-15 -68 24 -95.5t129 -12.5l-2 -25q-104 -15 -150 20t-28 111q20 93 121 176
q-74 -24 -156 -24q-136 0 -211 94.5t-75 259.5q0 89 20 191.5t62 204.5t98.5 185t137.5 135t171 52zM121 567h631q41 128 41 248q0 124 -62 195t-174 71q-66 0 -126.5 -30t-108 -79.5t-87.5 -116.5t-68 -139t-46 -149z" />
    <glyph glyph-name="Ecaron" unicode="&#x11a;" horiz-adv-x="933" 
d="M922 1747l-199 -215h-37l-106 215l22 10l109 -201l190 201zM1018 1434l-4 -25h-639l-144 -670h557l-4 -24h-557l-147 -690h653l-6 -25h-678l305 1434h664z" />
    <glyph glyph-name="ecaron" unicode="&#x11b;" horiz-adv-x="864" 
d="M799 1475l-191 -252h-33l-81 252l22 10l82 -234l182 234zM557 1106q120 0 190 -76.5t70 -212.5q0 -117 -49 -274h-651q-25 -113 -25 -203q0 -152 67.5 -242t194.5 -90q139 0 271 78v-27q-132 -75 -271 -75q-136 0 -211 94.5t-75 259.5q0 89 20 191.5t62 204.5t98.5 185
t137.5 135t171 52zM121 567h631q41 128 41 248q0 124 -62 195t-174 71q-66 0 -126.5 -30t-108 -79.5t-87.5 -116.5t-68 -139t-46 -149z" />
    <glyph glyph-name="Gcircumflex" unicode="&#x11c;" horiz-adv-x="1067" 
d="M963 1516l-95 215l-200 -215l-23 8l211 233h37l96 -235zM758 1425q-95 0 -182.5 -48t-153 -128.5t-119.5 -182.5t-88.5 -212.5t-53 -217t-18.5 -196.5q0 -203 89.5 -317.5t248.5 -114.5q170 0 348 127l117 547h-196l6 25h221l-125 -586q-185 -137 -371 -137
q-169 0 -265.5 119t-96.5 337q0 93 19 202t54.5 222.5t91.5 218t125 187t160.5 131.5t192.5 49q170 0 301 -94l-12 -21q-124 90 -293 90z" />
    <glyph glyph-name="gcircumflex" unicode="&#x11d;" horiz-adv-x="964" 
d="M750 1214l-84 234l-181 -234l-22 11l192 252h33l86 -254zM834 756l69 334h25l-205 -965q-47 -226 -171.5 -359t-291.5 -133q-151 0 -252 95l15 24q96 -92 239 -92q158 0 274 125.5t162 341.5l50 215q-79 -179 -189.5 -268.5t-232.5 -89.5q-126 0 -194.5 84.5t-68.5 238.5
q0 130 37 270t100 258t159.5 194.5t203.5 76.5q120 0 192.5 -95t78.5 -255zM334 8q95 0 185.5 72t152.5 180.5t99.5 236.5t37.5 240q0 156 -67 250t-181 94q-83 0 -159 -49t-132 -129t-98 -180t-63 -206t-21 -202q0 -146 64.5 -226.5t181.5 -80.5z" />
    <glyph glyph-name="Gbreve" unicode="&#x11e;" horiz-adv-x="1067" 
d="M768 1495q-73 0 -101.5 50.5t-7.5 150.5h25q-39 -176 90 -176q127 0 164 176h25q-20 -97 -70 -149t-125 -52zM758 1425q-95 0 -182.5 -48t-153 -128.5t-119.5 -182.5t-88.5 -212.5t-53 -217t-18.5 -196.5q0 -203 89.5 -317.5t248.5 -114.5q170 0 348 127l117 547h-196
l6 25h221l-125 -586q-185 -137 -371 -137q-169 0 -265.5 119t-96.5 337q0 93 19 202t54.5 222.5t91.5 218t125 187t160.5 131.5t192.5 49q170 0 301 -94l-12 -21q-124 90 -293 90z" />
    <glyph glyph-name="gbreve" unicode="&#x11f;" horiz-adv-x="964" 
d="M621 1237q-73 0 -101.5 50.5t-7.5 150.5h25q-39 -176 90 -176q123 0 164 176h24q-20 -96 -70 -148.5t-124 -52.5zM834 756l69 334h25l-205 -965q-47 -226 -171.5 -359t-291.5 -133q-151 0 -252 95l15 24q96 -92 239 -92q158 0 274 125.5t162 341.5l50 215
q-79 -179 -189.5 -268.5t-232.5 -89.5q-126 0 -194.5 84.5t-68.5 238.5q0 130 37 270t100 258t159.5 194.5t203.5 76.5q120 0 192.5 -95t78.5 -255zM334 8q95 0 185.5 72t152.5 180.5t99.5 236.5t37.5 240q0 156 -67 250t-181 94q-83 0 -159 -49t-132 -129t-98 -180
t-63 -206t-21 -202q0 -146 64.5 -226.5t181.5 -80.5z" />
    <glyph glyph-name="Gdotaccent" unicode="&#x120;" horiz-adv-x="1067" 
d="M817 1724h29l-41 -188h-29zM758 1425q-95 0 -182.5 -48t-153 -128.5t-119.5 -182.5t-88.5 -212.5t-53 -217t-18.5 -196.5q0 -203 89.5 -317.5t248.5 -114.5q170 0 348 127l117 547h-196l6 25h221l-125 -586q-185 -137 -371 -137q-169 0 -265.5 119t-96.5 337q0 93 19 202
t54.5 222.5t91.5 218t125 187t160.5 131.5t192.5 49q170 0 301 -94l-12 -21q-124 90 -293 90z" />
    <glyph glyph-name="gdotaccent" unicode="&#x121;" horiz-adv-x="964" 
d="M639 1253h-29l41 197h29zM260 -367q-151 0 -252 95l15 24q96 -92 239 -92q158 0 274 125.5t162 341.5l50 215q-79 -179 -189.5 -268.5t-232.5 -89.5q-126 0 -194.5 84.5t-68.5 238.5q0 130 37 270t100 258t159.5 194.5t203.5 76.5q120 0 192.5 -95t78.5 -255l69 334h25
l-205 -965q-47 -226 -171.5 -359t-291.5 -133zM334 8q95 0 185.5 72t152.5 180.5t99.5 236.5t37.5 240q0 156 -67 250t-181 94q-83 0 -159 -49t-132 -129t-98 -180t-63 -206t-21 -202q0 -146 64.5 -226.5t181.5 -80.5z" />
    <glyph glyph-name="uni0122" unicode="&#x122;" horiz-adv-x="1067" 
d="M758 1425q-95 0 -182.5 -48t-153 -128.5t-119.5 -182.5t-88.5 -212.5t-53 -217t-18.5 -196.5q0 -203 89.5 -317.5t248.5 -114.5q170 0 348 127l117 547h-196l6 25h221l-125 -586q-185 -137 -371 -137q-169 0 -265.5 119t-96.5 337q0 93 19 202t54.5 222.5t91.5 218
t125 187t160.5 131.5t192.5 49q170 0 301 -94l-12 -21q-124 90 -293 90zM467 -172h-59l18 88h84q-4 -195 -154 -272l-10 20q55 36 85 72.5t36 91.5z" />
    <glyph glyph-name="uni0123" unicode="&#x123;" horiz-adv-x="964" 
d="M715 1479l12 -21q-56 -36 -86.5 -72.5t-34.5 -91.5h60l-19 -88h-84q0 194 152 273zM260 -367q-151 0 -252 95l15 24q96 -92 239 -92q158 0 274 125.5t162 341.5l50 215q-79 -179 -189.5 -268.5t-232.5 -89.5q-126 0 -194.5 84.5t-68.5 238.5q0 130 37 270t100 258
t159.5 194.5t203.5 76.5q120 0 192.5 -95t78.5 -255l69 334h25l-205 -965q-47 -226 -171.5 -359t-291.5 -133zM334 8q95 0 185.5 72t152.5 180.5t99.5 236.5t37.5 240q0 156 -67 250t-181 94q-83 0 -159 -49t-132 -129t-98 -180t-63 -206t-21 -202q0 -146 64.5 -226.5
t181.5 -80.5z" />
    <glyph glyph-name="Hcircumflex" unicode="&#x124;" horiz-adv-x="1089" 
d="M936 1516l-94 215l-201 -215l-23 8l211 233h37l97 -235zM940 739l147 695h25l-305 -1434h-25l152 715h-709l-151 -715h-25l305 1434h25l-148 -695h709z" />
    <glyph glyph-name="hcircumflex" unicode="&#x125;" horiz-adv-x="917" 
d="M784 1780h37l97 -236l-27 -6l-94 215l-201 -215l-23 8zM621 1106q133 0 188 -99t16 -284l-155 -723h-25l156 723q36 173 -12.5 265.5t-172.5 92.5q-130 0 -243.5 -123t-177.5 -356l-129 -602h-25l321 1511h25l-156 -729q67 155 170 239.5t220 84.5z" />
    <glyph glyph-name="Hbar" unicode="&#x126;" horiz-adv-x="1089" 
d="M1053 1151h65l-6 -25h-65l-240 -1126h-25l152 715h-709l-151 -715h-25l240 1126h-66l6 25h66l59 283h25l-60 -283h709l59 283h25zM231 739h709l82 387h-709z" />
    <glyph glyph-name="hbar" unicode="&#x127;" horiz-adv-x="917" 
d="M621 1106q133 0 188 -99t16 -284l-155 -723h-25l156 723q36 173 -12.5 265.5t-172.5 92.5q-130 0 -243.5 -123t-177.5 -356l-129 -602h-25l266 1255h-123l4 25h125l49 231h25l-49 -231h262l-4 -25h-264l-101 -473q67 155 170 239.5t220 84.5z" />
    <glyph glyph-name="Itilde" unicode="&#x128;" horiz-adv-x="356" 
d="M227 1524l-24 4q15 70 50 109.5t81 39.5q27 0 48.5 -19.5t33.5 -43t30 -43t37 -19.5q34 0 61 34t40 95l24 -4q-15 -70 -50 -109.5t-81 -39.5q-28 0 -49.5 19.5t-33 43t-29 43t-37.5 19.5q-34 0 -61 -34t-40 -95zM74 0h-25l305 1434h25z" />
    <glyph glyph-name="itilde" unicode="&#x129;" horiz-adv-x="325" 
d="M154 1266l-25 4q15 70 50 109.5t81 39.5q27 0 49 -19.5t34 -43t30 -43t37 -19.5q34 0 60.5 34t39.5 95l25 -4q-15 -70 -50.5 -109.5t-81.5 -39.5q-28 0 -49.5 19.5t-33 43t-29 43t-37.5 19.5q-34 0 -60.5 -34t-39.5 -95zM57 0h-24l233 1090h25z" />
    <glyph glyph-name="Imacron" unicode="&#x12a;" horiz-adv-x="356" 
d="M598 1589h-399l6 25h399zM74 0h-25l305 1434h25z" />
    <glyph glyph-name="imacron" unicode="&#x12b;" horiz-adv-x="325" 
d="M524 1303h-399l6 24h399zM57 0h-24l233 1090h25z" />
    <glyph glyph-name="Ibreve" unicode="&#x12c;" horiz-adv-x="356" 
d="M545 1696h24q-20 -97 -69.5 -149t-124.5 -52q-73 0 -101.5 50.5t-7.5 150.5h25q-39 -176 90 -176q127 0 164 176zM74 0h-25l305 1434h25z" />
    <glyph glyph-name="ibreve" unicode="&#x12d;" horiz-adv-x="325" 
d="M479 1438h25q-20 -96 -70.5 -148.5t-124.5 -52.5q-73 0 -101 50.5t-7 150.5h24q-39 -176 90 -176q123 0 164 176zM57 0h-24l233 1090h25z" />
    <glyph glyph-name="Iogonek" unicode="&#x12e;" horiz-adv-x="356" 
d="M379 1434l-305 -1434q-80 -51 -127 -106.5t-56 -104.5q-15 -68 24 -95.5t130 -12.5l-2 -25q-104 -15 -150 20t-28 111q26 122 186 223l303 1424h25z" />
    <glyph glyph-name="iogonek" unicode="&#x12f;" horiz-adv-x="325" 
d="M299 1253l41 197h29l-41 -197h-29zM35 8l231 1082h25l-234 -1088l2 -2q-80 -50 -126.5 -105.5t-55.5 -105.5q-15 -68 24 -95.5t130 -12.5l-2 -25q-104 -15 -150 20t-29 111q26 119 185 221z" />
    <glyph glyph-name="Idotaccent" unicode="&#x130;" horiz-adv-x="356" 
d="M412 1536h-29l41 188h29zM74 0h-25l305 1434h25z" />
    <glyph glyph-name="dotlessi" unicode="&#x131;" horiz-adv-x="325" 
d="M57 0h-24l233 1090h25z" />
    <glyph glyph-name="IJ" unicode="&#x132;" horiz-adv-x="1054" 
d="M74 0h-25l305 1434h25zM510 -16q-123 0 -201 61l8 25q82 -62 197 -62q128 0 213 80t123 260l227 1061h-217l4 25h242l-229 -1084q-42 -196 -135 -281t-232 -85z" />
    <glyph glyph-name="ij" unicode="&#x133;" horiz-adv-x="669" 
d="M328 1253h-29l41 197h29zM674 1253h-29l41 197h29zM57 0h-24l233 1090h25zM90 -346l6 24q28 -4 64 -4q148 0 198 230l254 1186h25l-254 -1188q-28 -134 -85.5 -193t-143.5 -59q-36 0 -64 4z" />
    <glyph glyph-name="Jcircumflex" unicode="&#x134;" horiz-adv-x="700" 
d="M696 1757h37l96 -235l-26 -6l-94 215l-201 -215l-23 8zM721 1409h-217l4 25h242l-230 -1084q-42 -196 -134.5 -281t-231.5 -85q-123 0 -201 61l8 25q82 -62 197 -62q128 0 213 80t123 260z" />
    <glyph glyph-name="jcircumflex" unicode="&#x135;" horiz-adv-x="344" 
d="M397 1477l86 -254l-24 -9l-84 234l-180 -234l-23 11l193 252h32zM33 -96l254 1186h24l-254 -1188q-28 -134 -85.5 -193t-143.5 -59q-36 0 -64 4l7 24q28 -4 63 -4q149 0 199 230z" />
    <glyph glyph-name="uni0136" unicode="&#x136;" horiz-adv-x="954" 
d="M74 0h-25l305 1434h25zM782 0h-28l-449 717l2 18l682 699h35l-694 -711zM258 -356l-10 20q55 36 85 72.5t36 91.5h-60l19 88h84q-4 -195 -154 -272z" />
    <glyph glyph-name="uni0137" unicode="&#x137;" horiz-adv-x="813" 
d="M760 1090h37l-586 -523l422 -567h-33l-416 561l-118 -561h-25l321 1511h25l-199 -929zM285 -172h-60l19 88h84q-4 -195 -154 -272l-10 20q55 36 85 72.5t36 91.5z" />
    <glyph glyph-name="kgreenlandic" unicode="&#x138;" horiz-adv-x="813" 
d="M760 1090h37l-586 -523l422 -567h-33l-414 561l-120 -561h-25l233 1090h25l-109 -508z" />
    <glyph glyph-name="Lacute" unicode="&#x139;" horiz-adv-x="798" 
d="M731 1733l-192 -197l-13 8l181 205zM645 0h-596l305 1434h25l-299 -1409h571z" />
    <glyph glyph-name="lacute" unicode="&#x13a;" horiz-adv-x="342" 
d="M594 1810l-193 -196l-12 8l180 205zM66 0h-25l321 1511h25z" />
    <glyph glyph-name="uni013B" unicode="&#x13b;" horiz-adv-x="798" 
d="M645 0h-596l305 1434h25l-299 -1409h571zM186 -356l-10 20q55 36 85 72.5t36 91.5h-59l18 88h84q-4 -195 -154 -272z" />
    <glyph glyph-name="uni013C" unicode="&#x13c;" horiz-adv-x="342" 
d="M66 0h-25l321 1511h25zM-63 -356l-11 20q55 36 85 72.5t36 91.5h-59l18 88h84q-4 -195 -153 -272z" />
    <glyph glyph-name="Lcaron" unicode="&#x13d;" horiz-adv-x="798" 
d="M645 0h-596l305 1434h25l-299 -1409h571zM766 1085l74 349l28 -2l-82 -347h-20z" />
    <glyph glyph-name="lcaron" unicode="&#x13e;" horiz-adv-x="342" 
d="M66 0h-25l321 1511h25zM461 1163l74 348l28 -2l-82 -346h-20z" />
    <glyph glyph-name="Ldot" unicode="&#x13f;" horiz-adv-x="1024" 
d="M645 0h-596l305 1434h25l-299 -1409h571zM874 666l21 88h86l-20 -88h-87z" />
    <glyph glyph-name="ldot" unicode="&#x140;" horiz-adv-x="534" 
d="M66 0h-25l321 1511h25zM426 483l14 64h64l-17 -64h-61z" />
    <glyph glyph-name="Lslash" unicode="&#x141;" horiz-adv-x="798" 
d="M223 702l-143 -677h571l-6 -25h-596l148 690l-136 -63l-4 20l144 68l153 719h25l-150 -705l160 76l4 -23z" />
    <glyph glyph-name="lslash" unicode="&#x142;" horiz-adv-x="342" 
d="M229 772l152 72l4 -23l-162 -76l-157 -745h-25l156 733l-144 -67l-4 20l154 74l159 751h25z" />
    <glyph glyph-name="Nacute" unicode="&#x143;" horiz-adv-x="1110" 
d="M963 1733l-193 -197l-12 8l180 205zM74 0h-25l305 1434h29l428 -1391l297 1391h25l-306 -1434h-28l-428 1391z" />
    <glyph glyph-name="nacute" unicode="&#x144;" horiz-adv-x="909" 
d="M799 1483l24 -19l-202 -198l-15 10zM616 1106q131 0 185 -99t16 -284l-155 -723h-25l156 723q35 174 -13 266t-172 92t-236.5 -119t-183.5 -348l-131 -614h-24l233 1090h25l-70 -322q67 162 171.5 250t223.5 88z" />
    <glyph glyph-name="uni0145" unicode="&#x145;" horiz-adv-x="1110" 
d="M74 0h-25l305 1434h29l428 -1391l297 1391h25l-306 -1434h-28l-428 1391zM322 -356l-11 20q55 36 85 72.5t36 91.5h-59l18 88h84q-4 -195 -153 -272z" />
    <glyph glyph-name="uni0146" unicode="&#x146;" horiz-adv-x="909" 
d="M616 1106q131 0 185 -99t16 -284l-155 -723h-25l156 723q35 174 -13 266t-172 92t-236.5 -119t-183.5 -348l-131 -614h-24l233 1090h25l-70 -322q67 162 171.5 250t223.5 88zM358 -172h-59l18 88h84q-4 -195 -153 -272l-10 20q55 36 84.5 72.5t35.5 91.5z" />
    <glyph glyph-name="Ncaron" unicode="&#x147;" horiz-adv-x="1110" 
d="M983 1747l-199 -215h-36l-107 215l23 10l108 -201l191 201zM811 43l297 1391h25l-306 -1434h-28l-428 1391l-297 -1391h-25l305 1434h29z" />
    <glyph glyph-name="ncaron" unicode="&#x148;" horiz-adv-x="909" 
d="M827 1475l-190 -252h-33l-82 252l23 10l82 -234l182 234zM616 1106q131 0 185 -99t16 -284l-155 -723h-25l156 723q35 174 -13 266t-172 92t-236.5 -119t-183.5 -348l-131 -614h-24l233 1090h25l-70 -322q67 162 171.5 250t223.5 88z" />
    <glyph glyph-name="Eng" unicode="&#x14a;" horiz-adv-x="1110" 
d="M1108 1434h25l-287 -1342l-37 -180q-57 -262 -277 -262q-44 0 -75 24l8 27q30 -27 74 -27q196 0 245 240l19 86h-4l-428 1391l-297 -1391h-25l305 1434h29l428 -1391z" />
    <glyph glyph-name="eng" unicode="&#x14b;" horiz-adv-x="909" 
d="M616 1106q131 0 185 -99t16 -284l-49 -229l-45 -213l-78 -369q-57 -262 -276 -262q-45 0 -76 24l8 27q30 -27 74 -27q93 0 157 58.5t89 181.5l18 86h-2l156 723q35 174 -13 266t-172 92t-236.5 -119t-183.5 -348l-131 -614h-24l233 1090h25l-70 -322q67 162 171.5 250
t223.5 88z" />
    <glyph glyph-name="Omacron" unicode="&#x14c;" horiz-adv-x="1153" 
d="M997 1589h-399l6 25h400zM477 -16q-166 0 -262 121t-96 331q0 75 12.5 164t38.5 186.5t62.5 192t89 180t114.5 150.5t142 103t167 38q169 0 266 -119.5t97 -333.5q0 -88 -18 -194t-51.5 -220.5t-88 -220.5t-122 -191t-159 -136t-192.5 -51zM479 8q95 0 182 49.5
t151.5 131.5t117 185.5t85.5 214t50.5 214.5t17.5 190q0 202 -89 317t-249 115q-83 0 -159.5 -37.5t-135.5 -101t-110 -147t-86.5 -175.5t-61 -187t-37.5 -181t-12 -158q0 -197 88.5 -313.5t247.5 -116.5z" />
    <glyph glyph-name="omacron" unicode="&#x14d;" horiz-adv-x="923" 
d="M825 1303h-399l6 24h399zM362 -16q-134 0 -213 96.5t-79 261.5q0 70 13.5 151t39 167.5t67.5 165.5t94 142t124 100.5t153 37.5q134 0 214.5 -96.5t80.5 -261.5q0 -70 -14 -151.5t-40 -167.5t-68.5 -165t-95.5 -142t-124.5 -100.5t-151.5 -37.5zM367 8q87 0 164.5 51.5
t131 132.5t92.5 180t57.5 194.5t18.5 174.5q0 156 -72 248t-200 92q-90 0 -168 -51.5t-131 -132.5t-91.5 -180t-56.5 -193.5t-18 -173.5q0 -156 70.5 -249t202.5 -93z" />
    <glyph glyph-name="Obreve" unicode="&#x14e;" horiz-adv-x="1153" 
d="M772 1495q-73 0 -101 50.5t-7 150.5h24q-39 -176 90 -176q127 0 164 176h25q-20 -97 -70 -149t-125 -52zM745 1450q169 0 266 -119.5t97 -333.5q0 -88 -18 -194t-51.5 -220.5t-88 -220.5t-122 -191t-159 -136t-192.5 -51q-166 0 -262 121t-96 331q0 75 12.5 164
t38.5 186.5t62.5 192t89 180t114.5 150.5t142 103t167 38zM479 8q95 0 182 49.5t151.5 131.5t117 185.5t85.5 214t50.5 214.5t17.5 190q0 202 -89 317t-249 115q-83 0 -159.5 -37.5t-135.5 -101t-110 -147t-86.5 -175.5t-61 -187t-37.5 -181t-12 -158q0 -197 88.5 -313.5
t247.5 -116.5z" />
    <glyph glyph-name="obreve" unicode="&#x14f;" horiz-adv-x="923" 
d="M610 1237q-73 0 -101 50.5t-7 150.5h24q-39 -176 90 -176q123 0 164 176h25q-20 -96 -70.5 -148.5t-124.5 -52.5zM561 1106q134 0 214.5 -96.5t80.5 -261.5q0 -70 -14 -151.5t-40 -167.5t-68.5 -165t-95.5 -142t-124.5 -100.5t-151.5 -37.5q-134 0 -213 96.5t-79 261.5
q0 70 13.5 151t39 167.5t67.5 165.5t94 142t124 100.5t153 37.5zM367 8q87 0 164.5 51.5t131 132.5t92.5 180t57.5 194.5t18.5 174.5q0 156 -72 248t-200 92q-90 0 -168 -51.5t-131 -132.5t-91.5 -180t-56.5 -193.5t-18 -173.5q0 -156 70.5 -249t202.5 -93z" />
    <glyph glyph-name="Ohungarumlaut" unicode="&#x150;" horiz-adv-x="1153" 
d="M854 1733l-192 -197l-13 8l180 205zM1055 1733l-193 -197l-12 8l180 205zM477 -16q-166 0 -262 121t-96 331q0 75 12.5 164t38.5 186.5t62.5 192t89 180t114.5 150.5t142 103t167 38q169 0 266 -119.5t97 -333.5q0 -88 -18 -194t-51.5 -220.5t-88 -220.5t-122 -191
t-159 -136t-192.5 -51zM479 8q95 0 182 49.5t151.5 131.5t117 185.5t85.5 214t50.5 214.5t17.5 190q0 202 -89 317t-249 115q-83 0 -159.5 -37.5t-135.5 -101t-110 -147t-86.5 -175.5t-61 -187t-37.5 -181t-12 -158q0 -197 88.5 -313.5t247.5 -116.5z" />
    <glyph glyph-name="ohungarumlaut" unicode="&#x151;" horiz-adv-x="923" 
d="M698 1464l-202 -198l-15 10l193 207zM905 1464l-200 -198l-15 10l191 207zM362 -16q-134 0 -213 96.5t-79 261.5q0 70 13.5 151t39 167.5t67.5 165.5t94 142t124 100.5t153 37.5q134 0 214.5 -96.5t80.5 -261.5q0 -70 -14 -151.5t-40 -167.5t-68.5 -165t-95.5 -142
t-124.5 -100.5t-151.5 -37.5zM367 8q87 0 164.5 51.5t131 132.5t92.5 180t57.5 194.5t18.5 174.5q0 156 -72 248t-200 92q-90 0 -168 -51.5t-131 -132.5t-91.5 -180t-56.5 -193.5t-18 -173.5q0 -156 70.5 -249t202.5 -93z" />
    <glyph glyph-name="OE" unicode="&#x152;" horiz-adv-x="1632" 
d="M1716 1432l-4 -25h-639l-141 -668h555l-4 -24h-557l-148 -692h654l-7 -25h-677l14 63q-145 -77 -291 -77q-168 0 -262 115t-94 321q0 107 25.5 238.5t79.5 271.5t128.5 255.5t184 190t233.5 74.5q156 0 272 -82l15 64h663zM471 8q149 0 297 82l266 1253q-116 82 -272 82
q-114 0 -217 -72t-175 -184t-125.5 -248t-79.5 -266t-26 -235q0 -191 85 -301.5t247 -110.5z" />
    <glyph glyph-name="oe" unicode="&#x153;" horiz-adv-x="1583" 
d="M1276 1106q120 0 190 -76.5t70 -212.5q0 -117 -49 -274h-651q-25 -113 -25 -203q0 -152 67.5 -242t194.5 -90q138 0 270 78v-27q-132 -75 -270 -75q-136 0 -211.5 94.5t-75.5 259.5q0 33 2 49q-31 -83 -71 -152.5t-92 -127.5t-119.5 -90.5t-143.5 -32.5q-134 0 -213 96.5
t-79 261.5q0 70 13.5 151t39 167.5t67.5 165.5t94 142t124 100.5t153 37.5q134 0 214.5 -96.5t80.5 -261.5q0 -34 -2 -50q30 84 71 155t93.5 129t118.5 91t139 33zM367 8q87 0 164.5 51.5t131 132.5t92.5 180t57.5 194.5t18.5 174.5q0 156 -72 248t-200 92q-90 0 -168 -51.5
t-131 -132.5t-91.5 -180t-56.5 -193.5t-18 -173.5q0 -156 70.5 -249t202.5 -93zM840 567h630q41 128 41 248q0 124 -61.5 195t-173.5 71q-66 0 -126.5 -30t-108 -79.5t-87.5 -116.5t-68 -139t-46 -149z" />
    <glyph glyph-name="Racute" unicode="&#x154;" horiz-adv-x="974" 
d="M868 1749l25 -16l-193 -197l-12 8zM993 1122q0 -68 -15.5 -135.5t-51.5 -135.5t-89 -122t-133.5 -93.5t-179.5 -53.5l236 -582h-27l-235 580q-62 -5 -78 -5h-223l-123 -575h-25l305 1434h240q188 0 293.5 -80.5t105.5 -231.5zM201 600h223q112 0 205 31.5t154.5 83
t104 119.5t61 139t18.5 143q0 140 -92.5 216.5t-272.5 76.5h-229z" />
    <glyph glyph-name="racute" unicode="&#x155;" horiz-adv-x="567" 
d="M578 1483l24 -19l-203 -198l-14 10zM575 1106q30 0 70 -12l-6 -23q-33 10 -68 10q-140 0 -239.5 -133t-151.5 -377l-123 -571h-24l233 1090h25l-60 -281q125 297 344 297z" />
    <glyph glyph-name="uni0156" unicode="&#x156;" horiz-adv-x="974" 
d="M993 1122q0 -68 -15.5 -135.5t-51.5 -135.5t-89 -122t-133.5 -93.5t-179.5 -53.5l236 -582h-27l-235 580q-62 -5 -78 -5h-223l-123 -575h-25l305 1434h240q188 0 293.5 -80.5t105.5 -231.5zM201 600h223q112 0 205 31.5t154.5 83t104 119.5t61 139t18.5 143
q0 140 -92.5 216.5t-272.5 76.5h-229zM360 -172h-59l18 88h84q-4 -195 -153 -272l-10 20q55 36 84.5 72.5t35.5 91.5z" />
    <glyph glyph-name="uni0157" unicode="&#x157;" horiz-adv-x="567" 
d="M575 1106q30 0 70 -12l-6 -23q-33 10 -68 10q-140 0 -239.5 -133t-151.5 -377l-123 -571h-24l233 1090h25l-60 -281q125 297 344 297zM39 -172h-59l18 88h84q-4 -195 -154 -272l-10 20q55 36 85 72.5t36 91.5z" />
    <glyph glyph-name="Rcaron" unicode="&#x158;" horiz-adv-x="974" 
d="M913 1747l-198 -215h-37l-107 215l23 10l108 -201l191 201zM993 1122q0 -68 -15.5 -135.5t-51.5 -135.5t-89 -122t-133.5 -93.5t-179.5 -53.5l236 -582h-27l-235 580q-62 -5 -78 -5h-223l-123 -575h-25l305 1434h240q188 0 293.5 -80.5t105.5 -231.5zM201 600h223
q112 0 205 31.5t154.5 83t104 119.5t61 139t18.5 143q0 140 -92.5 216.5t-272.5 76.5h-229z" />
    <glyph glyph-name="rcaron" unicode="&#x159;" horiz-adv-x="567" 
d="M606 1475l-190 -252h-33l-82 252l23 10l82 -234l182 234zM575 1106q30 0 70 -12l-6 -23q-33 10 -68 10q-140 0 -239.5 -133t-151.5 -377l-123 -571h-24l233 1090h25l-60 -281q125 297 344 297z" />
    <glyph glyph-name="Sacute" unicode="&#x15a;" horiz-adv-x="882" 
d="M846 1735l-193 -197l-12 8l180 205zM303 -16q-192 0 -328 92l13 20q133 -88 321 -88q178 0 296 117.5t118 275.5q0 54 -14 99.5t-33.5 77t-56 63t-67 51t-79.5 47.5q-64 41 -103.5 71.5t-75.5 71.5t-52.5 89t-16.5 108q0 69 30.5 135.5t83 119t130 84.5t164.5 32
q163 0 282 -80l-10 -24q-113 79 -274 79q-157 0 -269 -103t-112 -239q0 -47 11.5 -86t28.5 -68t50.5 -60t65 -54t83.5 -57q63 -37 103.5 -67t79.5 -72.5t57.5 -96.5t18.5 -121q0 -82 -32.5 -157.5t-89.5 -133t-141.5 -92t-181.5 -34.5z" />
    <glyph glyph-name="sacute" unicode="&#x15b;" horiz-adv-x="716" 
d="M707 1464l-203 -198l-15 10l193 207zM233 -16q-146 0 -264 65l13 25q109 -66 256 -66q143 0 231 87.5t88 209.5q0 92 -47.5 149t-147.5 107q-194 96 -194 250q0 121 83.5 208t233.5 87q130 0 226 -55l-11 -23q-87 53 -215 53q-71 0 -128 -23t-92 -61.5t-53.5 -85
t-18.5 -96.5q0 -76 44 -130.5t142 -106.5q102 -53 152.5 -115.5t50.5 -157.5q0 -135 -98 -228t-251 -93z" />
    <glyph glyph-name="Scircumflex" unicode="&#x15c;" horiz-adv-x="882" 
d="M829 1518l-94 215l-200 -215l-23 8l211 233h37l96 -235zM631 1425q-157 0 -269 -103t-112 -239q0 -47 11.5 -86t28.5 -68t50.5 -60t65 -54t83.5 -57q63 -37 103.5 -67t79.5 -72.5t57.5 -96.5t18.5 -121q0 -82 -32.5 -157.5t-89.5 -133t-141.5 -92t-181.5 -34.5
q-192 0 -328 92l13 20q133 -88 321 -88q178 0 296 117.5t118 275.5q0 54 -14 99.5t-33.5 77t-56 63t-67 51t-79.5 47.5q-64 41 -103.5 71.5t-75.5 71.5t-52.5 89t-16.5 108q0 69 30.5 135.5t83 119t130 84.5t164.5 32q163 0 282 -80l-10 -24q-113 79 -274 79z" />
    <glyph glyph-name="scircumflex" unicode="&#x15d;" horiz-adv-x="716" 
d="M637 1214l-84 234l-180 -234l-23 11l193 252h32l87 -254zM485 1081q-71 0 -128 -23t-92 -61.5t-53.5 -85t-18.5 -96.5q0 -76 44 -130.5t142 -106.5q102 -53 152.5 -115.5t50.5 -157.5q0 -135 -98 -228t-251 -93q-146 0 -264 65l13 25q109 -66 256 -66q143 0 231 87.5
t88 209.5q0 92 -47.5 149t-147.5 107q-194 96 -194 250q0 121 83.5 208t233.5 87q130 0 226 -55l-11 -23q-87 53 -215 53z" />
    <glyph glyph-name="Scedilla" unicode="&#x15e;" horiz-adv-x="882" 
d="M631 1425q-157 0 -269 -103t-112 -239q0 -47 11.5 -86t28.5 -68t50.5 -60t65 -54t83.5 -57q63 -37 103.5 -67t79.5 -72.5t57.5 -96.5t18.5 -121q0 -166 -121 -288.5t-308 -128.5l-34 -64q75 -6 115.5 -43.5t27.5 -99.5q-11 -59 -64.5 -99t-138.5 -40q-67 0 -116 18l12 25
q38 -19 108 -19q74 0 119 33.5t55 81.5q12 55 -31 87t-122 34l45 86q-187 3 -320 92l13 20q133 -88 321 -88q178 0 296 117.5t118 275.5q0 54 -14 99.5t-33.5 77t-56 63t-67 51t-79.5 47.5q-64 41 -103.5 71.5t-75.5 71.5t-52.5 89t-16.5 108q0 69 30.5 135.5t83 119
t130 84.5t164.5 32q163 0 282 -80l-10 -24q-113 79 -274 79z" />
    <glyph glyph-name="scedilla" unicode="&#x15f;" horiz-adv-x="716" 
d="M485 1081q-71 0 -128 -23t-92 -61.5t-53.5 -85t-18.5 -96.5q0 -76 44 -130.5t142 -106.5q102 -53 152.5 -115.5t50.5 -157.5q0 -131 -92.5 -223t-239.5 -98l-35 -64q75 -6 115.5 -43.5t27.5 -99.5q-11 -59 -64 -99t-138 -40q-68 0 -117 18l12 25q38 -19 109 -19
q74 0 119 33.5t55 81.5q12 55 -31.5 87t-122.5 34l45 86q-141 3 -256 65l13 25q109 -66 256 -66q143 0 231 87.5t88 209.5q0 92 -47.5 149t-147.5 107q-194 96 -194 250q0 121 83.5 208t233.5 87q130 0 226 -55l-11 -23q-87 53 -215 53z" />
    <glyph glyph-name="Scaron" unicode="&#x160;" horiz-adv-x="882" 
d="M864 1749l-198 -215h-37l-107 215l23 10l108 -200l191 200zM631 1425q-157 0 -269 -103t-112 -239q0 -47 11.5 -86t28.5 -68t50.5 -60t65 -54t83.5 -57q63 -37 103.5 -67t79.5 -72.5t57.5 -96.5t18.5 -121q0 -82 -32.5 -157.5t-89.5 -133t-141.5 -92t-181.5 -34.5
q-192 0 -328 92l13 20q133 -88 321 -88q178 0 296 117.5t118 275.5q0 54 -14 99.5t-33.5 77t-56 63t-67 51t-79.5 47.5q-64 41 -103.5 71.5t-75.5 71.5t-52.5 89t-16.5 108q0 69 30.5 135.5t83 119t130 84.5t164.5 32q163 0 282 -80l-10 -24q-113 79 -274 79z" />
    <glyph glyph-name="scaron" unicode="&#x161;" horiz-adv-x="716" 
d="M711 1475l-191 -252h-33l-81 252l22 10l82 -234l182 234zM168 811q0 121 83.5 208t233.5 87q130 0 226 -55l-11 -23q-87 53 -215 53q-71 0 -128 -23t-92 -61.5t-53.5 -85t-18.5 -96.5q0 -76 44 -130.5t142 -106.5q102 -53 152.5 -115.5t50.5 -157.5q0 -135 -98 -228
t-251 -93q-146 0 -264 65l13 25q109 -66 256 -66q143 0 231 87.5t88 209.5q0 92 -47.5 149t-147.5 107q-194 96 -194 250z" />
    <glyph glyph-name="uni0162" unicode="&#x162;" horiz-adv-x="804" 
d="M956 1434l-4 -25h-354l-301 -1405h6l-45 -84q75 -6 115.5 -43.5t27.5 -99.5q-11 -59 -64 -99t-138 -40q-68 0 -117 18l12 25q38 -19 109 -19q74 0 119 33.5t55 81.5q12 55 -31.5 87t-122.5 34l53 102h-4l301 1409h-354l4 25h733z" />
    <glyph glyph-name="uni0163" unicode="&#x163;" horiz-adv-x="624" 
d="M629 1065h-283l-180 -850q-21 -94 7.5 -150.5t105.5 -56.5q83 0 147 45l4 -26q-65 -40 -147 -43l-37 -70q75 -6 115.5 -43.5t27.5 -99.5q-11 -59 -64.5 -99.5t-138.5 -40.5q-65 0 -116 19l12 24q36 -18 108 -18q74 0 119.5 33.5t55.5 81.5q12 55 -31.5 86.5t-122.5 33.5
l47 93q-163 12 -119 225l183 856h-136l7 25h122l62 206h18l-43 -206h283z" />
    <glyph glyph-name="Tcaron" unicode="&#x164;" horiz-adv-x="804" 
d="M829 1747l-198 -215h-37l-107 215l23 10l108 -201l191 201zM223 1434h733l-4 -25h-354l-301 -1409h-25l301 1409h-354z" />
    <glyph glyph-name="tcaron" unicode="&#x165;" horiz-adv-x="624" 
d="M547 1161l74 348l28 -2l-82 -346h-20zM274 -16q-91 0 -124 59.5t-11 165.5l183 856h-136l7 25h122l62 206h18l-43 -206h283l-6 -25h-283l-180 -850q-21 -94 7.5 -150.5t105.5 -56.5q83 0 147 45l4 -26q-68 -43 -156 -43z" />
    <glyph glyph-name="Tbar" unicode="&#x166;" horiz-adv-x="804" 
d="M956 1434l-4 -25h-354l-145 -680h225l-4 -24h-225l-152 -705h-25l152 705h-221l4 24h221l145 680h-354l4 25h733z" />
    <glyph glyph-name="tbar" unicode="&#x167;" horiz-adv-x="624" 
d="M635 1090l-6 -25h-283l-96 -453h209l-4 -24h-209l-80 -373q-21 -94 7.5 -150.5t105.5 -56.5q83 0 147 45l4 -26q-68 -43 -156 -43q-91 0 -124 59.5t-11 165.5l80 379h-176l4 24h178l97 453h-136l7 25h122l62 206h18l-43 -206h283z" />
    <glyph glyph-name="Utilde" unicode="&#x168;" 
d="M571 1524l-24 4q15 70 50 109.5t81 39.5q27 0 48.5 -19.5t33.5 -43t30 -43t37 -19.5q34 0 61 34t40 95l24 -4q-15 -70 -50 -109.5t-81 -39.5q-28 0 -49.5 19.5t-33 43t-29 43t-37.5 19.5q-34 0 -61 -34t-40 -95zM403 -16q-80 0 -140.5 24t-94.5 65.5t-53.5 95.5
t-18 114.5t12.5 122.5l219 1028h24l-219 -1028q-11 -60 -13 -117.5t16 -108.5t49.5 -89t87.5 -60.5t130 -22.5q163 0 285 109t162 291l217 1026h25l-218 -1026q-41 -194 -169 -309t-302 -115z" />
    <glyph glyph-name="utilde" unicode="&#x169;" horiz-adv-x="909" 
d="M545 1395q-34 0 -61 -34t-40 -95l-24 4q15 70 50 109.5t81 39.5q27 0 48.5 -19.5t33.5 -43t30 -43t37 -19.5q34 0 61 34t40 95l24 -4q-15 -70 -50 -109.5t-81 -39.5q-28 0 -49.5 19.5t-33 43t-29 43t-37.5 19.5zM721 475l131 615h25l-234 -1090h-25l68 319
q-65 -160 -169 -247.5t-222 -87.5q-132 0 -186 99t-15 284l154 723h24l-153 -723q-37 -174 10.5 -266.5t171.5 -92.5t236.5 119t183.5 348z" />
    <glyph glyph-name="Umacron" unicode="&#x16a;" 
d="M942 1589h-399l6 25h399zM403 -16q-80 0 -140.5 24t-94.5 65.5t-53.5 95.5t-18 114.5t12.5 122.5l219 1028h24l-219 -1028q-11 -60 -13 -117.5t16 -108.5t49.5 -89t87.5 -60.5t130 -22.5q163 0 285 109t162 291l217 1026h25l-218 -1026q-41 -194 -169 -309t-302 -115z
" />
    <glyph glyph-name="umacron" unicode="&#x16b;" horiz-adv-x="909" 
d="M422 1327h399l-6 -24h-399zM721 475l131 615h25l-234 -1090h-25l68 319q-65 -160 -169 -247.5t-222 -87.5q-132 0 -186 99t-15 284l154 723h24l-153 -723q-37 -174 10.5 -266.5t171.5 -92.5t236.5 119t183.5 348z" />
    <glyph glyph-name="Ubreve" unicode="&#x16c;" 
d="M719 1495q-73 0 -101.5 50.5t-7.5 150.5h25q-39 -176 90 -176q127 0 164 176h24q-20 -97 -69.5 -149t-124.5 -52zM850 408l217 1026h25l-218 -1026q-41 -194 -169 -309t-302 -115q-80 0 -140.5 24t-94.5 65.5t-53.5 95.5t-18 114.5t12.5 122.5l219 1028h24l-219 -1028
q-11 -60 -13 -117.5t16 -108.5t49.5 -89t87.5 -60.5t130 -22.5q163 0 285 109t162 291z" />
    <glyph glyph-name="ubreve" unicode="&#x16d;" horiz-adv-x="909" 
d="M600 1237q-73 0 -101 50.5t-7 150.5h24q-39 -176 90 -176q123 0 164 176h25q-20 -96 -70.5 -148.5t-124.5 -52.5zM721 475l131 615h25l-234 -1090h-25l68 319q-65 -160 -169 -247.5t-222 -87.5q-132 0 -186 99t-15 284l154 723h24l-153 -723q-37 -174 10.5 -266.5
t171.5 -92.5t236.5 119t183.5 348z" />
    <glyph glyph-name="Uring" unicode="&#x16e;" 
d="M719 1458q-64 0 -93 43.5t-18 102.5q13 59 60.5 103t111.5 44q63 0 91.5 -44t15.5 -103q-11 -59 -58 -102.5t-110 -43.5zM723 1483q54 0 91.5 36.5t47.5 84.5q10 50 -12 86t-76 36t-92.5 -36.5t-48.5 -85.5q-10 -48 13 -84.5t77 -36.5zM403 -16q-80 0 -140.5 24
t-94.5 65.5t-53.5 95.5t-18 114.5t12.5 122.5l219 1028h24l-219 -1028q-11 -60 -13 -117.5t16 -108.5t49.5 -89t87.5 -60.5t130 -22.5q163 0 285 109t162 291l217 1026h25l-218 -1026q-41 -194 -169 -309t-302 -115z" />
    <glyph glyph-name="uring" unicode="&#x16f;" horiz-adv-x="909" 
d="M594 1202q-64 0 -93 43.5t-18 104.5q13 59 60.5 102t111.5 43q63 0 91.5 -43t15.5 -102q-11 -60 -58 -104t-110 -44zM508 1350q-10 -50 13 -86.5t77 -36.5t91.5 36.5t47.5 86.5q10 48 -12 84t-76 36t-92.5 -36t-48.5 -84zM721 475l131 615h25l-234 -1090h-25l68 319
q-65 -160 -169 -247.5t-222 -87.5q-132 0 -186 99t-15 284l154 723h24l-153 -723q-37 -174 10.5 -266.5t171.5 -92.5t236.5 119t183.5 348z" />
    <glyph glyph-name="Uhungarumlaut" unicode="&#x170;" 
d="M801 1733l-193 -197l-12 8l180 205zM1001 1733l-192 -197l-12 8l180 205zM403 -16q-80 0 -140.5 24t-94.5 65.5t-53.5 95.5t-18 114.5t12.5 122.5l219 1028h24l-219 -1028q-11 -60 -13 -117.5t16 -108.5t49.5 -89t87.5 -60.5t130 -22.5q163 0 285 109t162 291l217 1026
h25l-218 -1026q-41 -194 -169 -309t-302 -115z" />
    <glyph glyph-name="uhungarumlaut" unicode="&#x171;" horiz-adv-x="909" 
d="M664 1483l24 -19l-203 -198l-14 10zM895 1464l-201 -198l-14 10l190 207zM721 475l131 615h25l-234 -1090h-25l68 319q-65 -160 -169 -247.5t-222 -87.5q-132 0 -186 99t-15 284l154 723h24l-153 -723q-37 -174 10.5 -266.5t171.5 -92.5t236.5 119t183.5 348z" />
    <glyph glyph-name="Uogonek" unicode="&#x172;" 
d="M850 408l217 1026h25l-218 -1026q-28 -129 -95.5 -225.5t-164.5 -147.5q-121 -90 -137 -180q-15 -68 24.5 -96t129.5 -13l-2 -25q-104 -15 -150 20.5t-28 111.5q15 75 96 153q-71 -22 -144 -22q-80 0 -140.5 24t-94.5 65.5t-53.5 95.5t-18 114.5t12.5 122.5l219 1028h24
l-219 -1028q-11 -60 -13 -117.5t16 -108.5t49.5 -89t87.5 -60.5t130 -22.5q163 0 285 109t162 291z" />
    <glyph glyph-name="uogonek" unicode="&#x173;" horiz-adv-x="909" 
d="M877 1090l-234 -1090q-80 -50 -126.5 -105.5t-55.5 -105.5q-15 -68 24 -95.5t129 -12.5l-2 -25q-104 -15 -150 20t-28 111q26 122 187 223l65 309q-65 -160 -169 -247.5t-222 -87.5q-132 0 -186 99t-15 284l154 723h24l-153 -723q-37 -174 10.5 -266.5t171.5 -92.5
t236.5 119t183.5 348l131 615h25z" />
    <glyph glyph-name="Wcircumflex" unicode="&#x174;" horiz-adv-x="1470" 
d="M1128 1516l-94 215l-200 -215l-23 8l211 233h37l96 -235zM973 35l600 1399h26l-616 -1434h-35l-33 1393l-624 -1393h-35l-8 1434h24l9 -1399l628 1399h31z" />
    <glyph glyph-name="wcircumflex" unicode="&#x175;" horiz-adv-x="1292" 
d="M926 1214l-84 234l-180 -234l-23 11l192 252h33l86 -254zM817 33l498 1057h26l-512 -1090h-34l-41 1053l-490 -1053h-35l-45 1090h25l43 -1057l493 1057h31z" />
    <glyph glyph-name="Ycircumflex" unicode="&#x176;" horiz-adv-x="935" 
d="M860 1516l-94 215l-201 -215l-22 8l211 233h37l96 -235zM1044 1434h31l-612 -959l-101 -475h-24l102 481l-202 953h24l197 -918z" />
    <glyph glyph-name="ycircumflex" unicode="&#x177;" horiz-adv-x="866" 
d="M711 1214l-84 234l-181 -234l-22 11l192 252h33l86 -254zM322 35l571 1055h27l-590 -1090l-187 -350h-28l186 346l-121 1094h25z" />
    <glyph glyph-name="Ydieresis" unicode="&#x178;" horiz-adv-x="935" 
d="M610 1710h29l-41 -188h-29zM815 1710h29l-41 -188h-29zM1044 1434h31l-612 -959l-101 -475h-24l102 481l-202 953h24l197 -918z" />
    <glyph glyph-name="Zacute" unicode="&#x179;" horiz-adv-x="894" 
d="M856 1733l-192 -197l-13 8l180 205zM686 0h-717l4 18l985 1391h-673l4 25h708l-2 -17l-987 -1392h684z" />
    <glyph glyph-name="zacute" unicode="&#x17a;" horiz-adv-x="735" 
d="M713 1464l-203 -198l-14 10l192 207zM549 0h-604l4 18l780 1047h-545l6 25h580l-4 -17l-782 -1048h571z" />
    <glyph glyph-name="Zdotaccent" unicode="&#x17b;" horiz-adv-x="894" 
d="M682 1536h-29l41 188h29zM686 0h-717l4 18l985 1391h-673l4 25h708l-2 -17l-987 -1392h684z" />
    <glyph glyph-name="zdotaccent" unicode="&#x17c;" horiz-adv-x="735" 
d="M532 1253h-28l41 197h28zM549 0h-604l4 18l780 1047h-545l6 25h580l-4 -17l-782 -1048h571z" />
    <glyph glyph-name="Zcaron" unicode="&#x17d;" horiz-adv-x="894" 
d="M874 1747l-198 -215h-37l-107 215l23 10l109 -201l190 201zM289 1434h708l-2 -17l-987 -1392h684l-6 -25h-717l4 18l985 1391h-673z" />
    <glyph glyph-name="zcaron" unicode="&#x17e;" horiz-adv-x="735" 
d="M717 1475l-191 -252h-32l-82 252l22 10l82 -234l182 234zM190 1090h580l-4 -17l-782 -1048h571l-6 -25h-604l4 18l780 1047h-545z" />
    <glyph glyph-name="uni018F" unicode="&#x18f;" horiz-adv-x="1132" 
d="M713 1450q176 0 274 -120t98 -339q0 -108 -24.5 -238.5t-77.5 -266.5t-125 -247.5t-177.5 -183t-225.5 -71.5q-164 0 -256.5 113t-92.5 304q0 54 6.5 113t14.5 97.5t15.5 70.5t7.5 35h878q33 141 33 270q0 205 -92.5 321.5t-263.5 116.5q-198 0 -369 -129l-4 25
q79 61 178.5 95t202.5 34zM459 8q87 0 166.5 40.5t140 107t112 157t86 184.5t58.5 195l-854 -2q-35 -186 -35 -287q0 -179 85 -287t241 -108z" />
    <glyph glyph-name="florin" unicode="&#x192;" horiz-adv-x="937" 
d="M944 1528q59 0 107 -31l-17 -22q-35 28 -98 28q-86 0 -150.5 -79t-123.5 -253l-27 -81h229l-6 -25h-231l-236 -721q-64 -193 -137.5 -275.5t-171.5 -82.5q-59 0 -107 32l17 21q42 -29 100 -29q83 0 149 78t126 256l235 721h-192l6 25h194l29 86q63 188 136 270t169 82z
" />
    <glyph glyph-name="uni019D" unicode="&#x19d;" horiz-adv-x="1110" 
d="M811 43l297 1391h25l-306 -1434h-28l-428 1391l-183 -850q-8 -50 -47 -230l-80 -368q-54 -262 -276 -262q-45 0 -76 24l8 27q30 -27 74 -27q197 0 246 240l22 102l295 1387h29z" />
    <glyph glyph-name="Ohorn" unicode="&#x1a0;" horiz-adv-x="1153" 
d="M1139 1608l22 2q-4 -140 -45.5 -199t-126.5 -57q119 -119 119 -357q0 -88 -18 -194t-51.5 -220.5t-88 -220.5t-122 -191t-159 -136t-192.5 -51q-166 0 -262 121t-96 331q0 75 12.5 164t38.5 186.5t62.5 192t89 180t114.5 150.5t142 103t167 38q141 0 232 -82l6 12
q34 -3 58.5 3t47 28.5t35 71.5t15.5 125zM479 8q95 0 182 49.5t151.5 131.5t117 185.5t85.5 214t50.5 214.5t17.5 190q0 202 -89 317t-249 115q-83 0 -159.5 -37.5t-135.5 -101t-110 -147t-86.5 -175.5t-61 -187t-37.5 -181t-12 -158q0 -197 88.5 -313.5t247.5 -116.5z" />
    <glyph glyph-name="ohorn" unicode="&#x1a1;" horiz-adv-x="923" 
d="M911 1266l23 2q-4 -135 -43 -194.5t-117 -61.5q82 -98 82 -264q0 -70 -14 -151.5t-40 -167.5t-68.5 -165t-95.5 -142t-124.5 -100.5t-151.5 -37.5q-134 0 -213 96.5t-79 261.5q0 70 13.5 151t39 167.5t67.5 165.5t94 142t124 100.5t153 37.5q115 0 193 -72l2 4
q34 -3 58 3t46.5 28.5t35 71.5t15.5 125zM367 8q87 0 164.5 51.5t131 132.5t92.5 180t57.5 194.5t18.5 174.5q0 156 -72 248t-200 92q-90 0 -168 -51.5t-131 -132.5t-91.5 -180t-56.5 -193.5t-18 -173.5q0 -156 70.5 -249t202.5 -93z" />
    <glyph glyph-name="Uhorn" unicode="&#x1af;" 
d="M1237 1661l23 2q-4 -140 -46.5 -199.5t-128.5 -56.5l-211 -999q-41 -194 -169 -309t-302 -115q-80 0 -140.5 24t-94.5 65.5t-53.5 95.5t-18 114.5t12.5 122.5l219 1028h24l-219 -1028q-11 -60 -13 -117.5t16 -108.5t49.5 -89t87.5 -60.5t130 -22.5q163 0 285 109t162 291
l217 1026h25q32 -2 55 5t43.5 30t32 70.5t14.5 121.5z" />
    <glyph glyph-name="uhorn" unicode="&#x1b0;" horiz-adv-x="909" 
d="M1024 1317l23 2q-4 -141 -47 -200t-130 -56l-227 -1063h-25l68 319q-65 -160 -169 -247.5t-222 -87.5q-132 0 -186 99t-15 284l154 723h24l-153 -723q-37 -174 10.5 -266.5t171.5 -92.5t236.5 119t183.5 348l131 615h25q32 -2 55 5t44 29t33 70.5t15 122.5z" />
    <glyph glyph-name="uni01CD" unicode="&#x1cd;" 
d="M950 1747l-198 -215h-37l-107 215l23 10l108 -201l191 201zM-57 0l751 1434h33l139 -1434h-24l-41 412h-617l-215 -412h-26zM705 1405l-506 -969h600z" />
    <glyph glyph-name="uni01CE" unicode="&#x1ce;" horiz-adv-x="964" 
d="M817 1475l-190 -252h-33l-82 252l23 10l81 -234l183 234zM930 1090l-111 -517q-1 -4 -2 -10.5t-2 -9.5l-2 -8l-117 -545h-24l71 332q-72 -159 -181 -253.5t-222 -94.5q-126 0 -200 94.5t-74 257.5q0 83 19 183t59.5 204t96 189t137 139.5t173.5 54.5q55 0 101 -21
t77 -56.5t53 -83.5t33.5 -100.5t13.5 -109.5l76 355h25zM342 8q135 0 265.5 153.5t180.5 383.5q14 66 15.5 137.5t-12 143t-42 128t-80.5 92t-120 35.5q-86 0 -162 -52.5t-129 -134.5t-92 -182t-57.5 -195.5t-18.5 -174.5q0 -153 65.5 -243.5t186.5 -90.5z" />
    <glyph glyph-name="uni01CF" unicode="&#x1cf;" horiz-adv-x="356" 
d="M393 1556l191 201l20 -10l-198 -215h-37l-107 215l23 10zM74 0h-25l305 1434h25z" />
    <glyph glyph-name="uni01D0" unicode="&#x1d0;" horiz-adv-x="325" 
d="M313 1251l183 234l18 -10l-190 -252h-33l-82 252l22 10zM57 0h-24l233 1090h25z" />
    <glyph glyph-name="uni01D1" unicode="&#x1d1;" horiz-adv-x="1153" 
d="M1004 1747l-199 -215h-37l-106 215l22 10l109 -201l190 201zM745 1450q169 0 266 -119.5t97 -333.5q0 -88 -18 -194t-51.5 -220.5t-88 -220.5t-122 -191t-159 -136t-192.5 -51q-166 0 -262 121t-96 331q0 75 12.5 164t38.5 186.5t62.5 192t89 180t114.5 150.5t142 103
t167 38zM479 8q95 0 182 49.5t151.5 131.5t117 185.5t85.5 214t50.5 214.5t17.5 190q0 202 -89 317t-249 115q-83 0 -159.5 -37.5t-135.5 -101t-110 -147t-86.5 -175.5t-61 -187t-37.5 -181t-12 -158q0 -197 88.5 -313.5t247.5 -116.5z" />
    <glyph glyph-name="uni01D2" unicode="&#x1d2;" horiz-adv-x="923" 
d="M813 1475l-190 -252h-33l-82 252l22 10l82 -234l183 234zM561 1106q134 0 214.5 -96.5t80.5 -261.5q0 -70 -14 -151.5t-40 -167.5t-68.5 -165t-95.5 -142t-124.5 -100.5t-151.5 -37.5q-134 0 -213 96.5t-79 261.5q0 70 13.5 151t39 167.5t67.5 165.5t94 142t124 100.5
t153 37.5zM367 8q87 0 164.5 51.5t131 132.5t92.5 180t57.5 194.5t18.5 174.5q0 156 -72 248t-200 92q-90 0 -168 -51.5t-131 -132.5t-91.5 -180t-56.5 -193.5t-18 -173.5q0 -156 70.5 -249t202.5 -93z" />
    <glyph glyph-name="uni01D3" unicode="&#x1d3;" 
d="M948 1747l-198 -215h-37l-107 215l23 10l108 -201l191 201zM850 408l217 1026h25l-218 -1026q-41 -194 -169 -309t-302 -115q-80 0 -140.5 24t-94.5 65.5t-53.5 95.5t-18 114.5t12.5 122.5l219 1028h24l-219 -1028q-11 -60 -13 -117.5t16 -108.5t49.5 -89t87.5 -60.5
t130 -22.5q163 0 285 109t162 291z" />
    <glyph glyph-name="uni01D4" unicode="&#x1d4;" horiz-adv-x="909" 
d="M803 1475l-191 -252h-32l-82 252l22 10l82 -234l182 234zM721 475l131 615h25l-234 -1090h-25l68 319q-65 -160 -169 -247.5t-222 -87.5q-132 0 -186 99t-15 284l154 723h24l-153 -723q-37 -174 10.5 -266.5t171.5 -92.5t236.5 119t183.5 348z" />
    <glyph glyph-name="uni01D5" unicode="&#x1d5;" 
d="M1014 1884h-400l7 25h399zM653 1522h-28l41 188h28zM858 1522h-29l41 188h29zM403 -16q-80 0 -140.5 24t-94.5 65.5t-53.5 95.5t-18 114.5t12.5 122.5l219 1028h24l-219 -1028q-11 -60 -13 -117.5t16 -108.5t49.5 -89t87.5 -60.5t130 -22.5q163 0 285 109t162 291
l217 1026h25l-218 -1026q-41 -194 -169 -309t-302 -115z" />
    <glyph glyph-name="uni01D6" unicode="&#x1d6;" horiz-adv-x="909" 
d="M485 1638l7 25h399l-6 -25h-400zM475 1274l41 196h29l-41 -196h-29zM709 1274l41 196h28l-41 -196h-28zM721 475l131 615h25l-234 -1090h-25l68 319q-65 -160 -169 -247.5t-222 -87.5q-132 0 -186 99t-15 284l154 723h24l-153 -723q-37 -174 10.5 -266.5t171.5 -92.5
t236.5 119t183.5 348z" />
    <glyph glyph-name="uni01D7" unicode="&#x1d7;" 
d="M1001 2028l-192 -197l-12 8l180 205zM653 1522h-28l41 188h28zM858 1522h-29l41 188h29zM403 -16q-80 0 -140.5 24t-94.5 65.5t-53.5 95.5t-18 114.5t12.5 122.5l219 1028h24l-219 -1028q-11 -60 -13 -117.5t16 -108.5t49.5 -89t87.5 -60.5t130 -22.5q163 0 285 109
t162 291l217 1026h25l-218 -1026q-41 -194 -169 -309t-302 -115z" />
    <glyph glyph-name="uni01D8" unicode="&#x1d8;" horiz-adv-x="909" 
d="M844 1819l24 -19l-202 -198l-15 10zM516 1470h29l-41 -196h-29zM778 1470l-41 -196h-28l41 196h28zM721 475l131 615h25l-234 -1090h-25l68 319q-65 -160 -169 -247.5t-222 -87.5q-132 0 -186 99t-15 284l154 723h24l-153 -723q-37 -174 10.5 -266.5t171.5 -92.5
t236.5 119t183.5 348z" />
    <glyph glyph-name="uni01D9" unicode="&#x1d9;" 
d="M1020 2042l-199 -215h-37l-106 215l22 10l109 -201l190 201zM666 1710h28l-41 -188h-28zM899 1710l-41 -188h-29l41 188h29zM850 408l217 1026h25l-218 -1026q-41 -194 -169 -309t-302 -115q-80 0 -140.5 24t-94.5 65.5t-53.5 95.5t-18 114.5t12.5 122.5l219 1028h24
l-219 -1028q-11 -60 -13 -117.5t16 -108.5t49.5 -89t87.5 -60.5t130 -22.5q163 0 285 109t162 291z" />
    <glyph glyph-name="uni01DA" unicode="&#x1da;" horiz-adv-x="909" 
d="M874 1810l-190 -251h-33l-82 251l23 11l82 -234l182 234zM516 1470h29l-41 -196h-29zM778 1470l-41 -196h-28l41 196h28zM721 475l131 615h25l-234 -1090h-25l68 319q-65 -160 -169 -247.5t-222 -87.5q-132 0 -186 99t-15 284l154 723h24l-153 -723q-37 -174 10.5 -266.5
t171.5 -92.5t236.5 119t183.5 348z" />
    <glyph glyph-name="uni01DB" unicode="&#x1db;" 
d="M815 1839l-16 -8l-111 197l33 16zM653 1522h-28l41 188h28zM858 1522h-29l41 188h29zM403 -16q-80 0 -140.5 24t-94.5 65.5t-53.5 95.5t-18 114.5t12.5 122.5l219 1028h24l-219 -1028q-11 -60 -13 -117.5t16 -108.5t49.5 -89t87.5 -60.5t130 -22.5q163 0 285 109t162 291
l217 1026h25l-218 -1026q-41 -194 -169 -309t-302 -115z" />
    <glyph glyph-name="Gcaron" unicode="&#x1e6;" horiz-adv-x="1067" 
d="M997 1747l-198 -215h-37l-107 215l23 10l108 -201l191 201zM758 1425q-95 0 -182.5 -48t-153 -128.5t-119.5 -182.5t-88.5 -212.5t-53 -217t-18.5 -196.5q0 -203 89.5 -317.5t248.5 -114.5q170 0 348 127l117 547h-196l6 25h221l-125 -586q-185 -137 -371 -137
q-169 0 -265.5 119t-96.5 337q0 93 19 202t54.5 222.5t91.5 218t125 187t160.5 131.5t192.5 49q170 0 301 -94l-12 -21q-124 90 -293 90z" />
    <glyph glyph-name="gcaron" unicode="&#x1e7;" horiz-adv-x="964" 
d="M823 1475l-190 -252h-33l-82 252l23 10l82 -234l182 234zM834 756l69 334h25l-205 -965q-47 -226 -171.5 -359t-291.5 -133q-151 0 -252 95l15 24q96 -92 239 -92q158 0 274 125.5t162 341.5l50 215q-79 -179 -189.5 -268.5t-232.5 -89.5q-126 0 -194.5 84.5t-68.5 238.5
q0 130 37 270t100 258t159.5 194.5t203.5 76.5q120 0 192.5 -95t78.5 -255zM334 8q95 0 185.5 72t152.5 180.5t99.5 236.5t37.5 240q0 156 -67 250t-181 94q-83 0 -159 -49t-132 -129t-98 -180t-63 -206t-21 -202q0 -146 64.5 -226.5t181.5 -80.5z" />
    <glyph glyph-name="uni01EA" unicode="&#x1ea;" horiz-adv-x="1153" 
d="M633 16q-113 -87 -129 -174q-15 -68 24 -95.5t129 -12.5l-2 -25q-104 -15 -150 20t-28 111q16 80 98 156q-47 -12 -98 -12q-166 0 -262 121t-96 331q0 75 12.5 164t38.5 186.5t62.5 192t89 180t114.5 150.5t142 103t167 38q169 0 266 -119.5t97 -333.5
q0 -92 -18.5 -202.5t-58 -231t-94 -227.5t-134 -193.5t-170.5 -126.5zM479 8q81 0 156 35q7 6 33 23l4 -3q96 58 177 174.5t130.5 250t76.5 266t27 239.5q0 202 -89 317t-249 115q-83 0 -159.5 -37.5t-135.5 -101t-110 -147t-86.5 -175.5t-61 -187t-37.5 -181t-12 -158
q0 -197 88.5 -313.5t247.5 -116.5z" />
    <glyph glyph-name="uni01EB" unicode="&#x1eb;" horiz-adv-x="923" 
d="M856 748q0 -114 -32 -246.5t-104 -263t-169 -195.5l2 -2q-80 -50 -126.5 -105.5t-55.5 -105.5q-15 -68 24 -96t129 -13l-2 -24q-104 -15 -150 20t-28 111q20 91 115 170q-43 -14 -97 -14q-134 0 -213 96.5t-79 261.5q0 70 13.5 151t39 167.5t67.5 165.5t94 142t124 100.5
t153 37.5q134 0 214.5 -96.5t80.5 -261.5zM367 8q87 0 164.5 51.5t131 132.5t92.5 180t57.5 194.5t18.5 174.5q0 156 -72 248t-200 92q-90 0 -168 -51.5t-131 -132.5t-91.5 -180t-56.5 -193.5t-18 -173.5q0 -156 70.5 -249t202.5 -93z" />
    <glyph glyph-name="Aringacute" unicode="&#x1fa;" 
d="M989 2079l25 -17l-193 -196l-12 8zM782 1751q63 0 91.5 -44t15.5 -103q-11 -59 -58 -102.5t-110 -43.5q-64 0 -93 43.5t-18 102.5q13 59 60.5 103t111.5 44zM864 1604q10 50 -12 86t-76 36t-92.5 -36.5t-48.5 -85.5q-10 -48 13 -84.5t77 -36.5t91.5 36.5t47.5 84.5z
M-57 0l751 1434h33l139 -1434h-24l-41 412h-617l-215 -412h-26zM705 1405l-506 -969h600z" />
    <glyph glyph-name="aringacute" unicode="&#x1fb;" horiz-adv-x="964" 
d="M868 1862l25 -19l-203 -198l-14 10zM606 1202q-64 0 -92.5 43.5t-17.5 104.5q13 59 60.5 102t111.5 43q63 0 91 -43t15 -102q-11 -60 -58 -104t-110 -44zM520 1350q-10 -50 13 -86.5t77 -36.5t92 37t48 86q10 48 -12 84t-76 36t-93 -36t-49 -84zM930 1090l-111 -517
q-1 -4 -2 -10.5t-2 -9.5l-2 -8l-117 -545h-24l71 332q-72 -159 -181 -253.5t-222 -94.5q-126 0 -200 94.5t-74 257.5q0 83 19 183t59.5 204t96 189t137 139.5t173.5 54.5q55 0 101 -21t77 -56.5t53 -83.5t33.5 -100.5t13.5 -109.5l76 355h25zM342 8q135 0 265.5 153.5
t180.5 383.5q14 66 15.5 137.5t-12 143t-42 128t-80.5 92t-120 35.5q-86 0 -162 -52.5t-129 -134.5t-92 -182t-57.5 -195.5t-18.5 -174.5q0 -153 65.5 -243.5t186.5 -90.5z" />
    <glyph glyph-name="AEacute" unicode="&#x1fc;" horiz-adv-x="1433" 
d="M1337 1749l25 -16l-193 -197l-12 8zM1520 1434l-4 -25h-639l-144 -670h557l-4 -24h-557l-147 -690h651l-6 -25h-676l88 418h-410l-260 -418h-26l893 1434h684zM848 1409l-602 -967h399l205 967h-2z" />
    <glyph glyph-name="aeacute" unicode="&#x1fd;" horiz-adv-x="1427" 
d="M1030 1483l25 -19l-203 -198l-14 10zM1118 1106q121 0 190.5 -76t69.5 -213q0 -136 -49 -274h-651q-25 -113 -25 -203q0 -152 67.5 -242t194.5 -90q139 0 271 78v-27q-129 -75 -271 -75q-134 0 -210 94.5t-76 259.5v37q-22 -71 -63 -139t-95.5 -125t-125 -92t-142.5 -35
q-94 0 -146.5 59.5t-52.5 163.5q0 53 11.5 107.5t39.5 110t69 97.5t106.5 69t146.5 27q159 0 287 -28q1 6 6.5 24.5t7.5 28.5l20 92q12 58 15 105.5t-6 93.5t-33 77.5t-69.5 50.5t-110.5 19q-139 0 -254 -71l-2 22q127 74 256 74q286 0 237 -326q67 146 165.5 236t221.5 90z
M682 567h631q41 128 41 248q0 124 -61.5 195t-174.5 71q-65 0 -125.5 -30t-108 -79.5t-87.5 -116.5t-68 -139t-47 -149zM637 461q13 71 20 102q-118 31 -282 31q-75 0 -136 -25.5t-98.5 -65t-63 -91.5t-36 -102t-10.5 -99q0 -203 180 -203q93 0 183 69t152 170.5t91 213.5z
" />
    <glyph glyph-name="oslashacute" unicode="&#x1ff;" horiz-adv-x="923" 
d="M784 1483l25 -19l-203 -198l-14 10zM907 1102l17 -12l-111 -138q43 -88 43 -204q0 -70 -14 -151.5t-40 -167.5t-68.5 -165t-95.5 -142t-124.5 -100.5t-151.5 -37.5q-157 0 -237 129l-102 -125l-21 14l111 135q-43 82 -43 205q0 70 13.5 151t39 167.5t67.5 165.5t94 142
t124 100.5t153 37.5q161 0 240 -133zM94 350q0 -114 37 -192l653 794q-74 129 -225 129q-90 0 -168 -51.5t-131 -132.5t-91.5 -180t-56.5 -193.5t-18 -173.5zM831 741q0 115 -36 191l-652 -797q68 -127 224 -127q87 0 164.5 51.5t131 132.5t92.5 180t57.5 194.5t18.5 174.5z
" />
    <glyph glyph-name="uni0218" unicode="&#x218;" horiz-adv-x="882" 
d="M303 -16q-192 0 -328 92l13 20q133 -88 321 -88q178 0 296 117.5t118 275.5q0 54 -14 99.5t-33.5 77t-56 63t-67 51t-79.5 47.5q-64 41 -103.5 71.5t-75.5 71.5t-52.5 89t-16.5 108q0 69 30.5 135.5t83 119t130 84.5t164.5 32q163 0 282 -80l-10 -24q-113 79 -274 79
q-157 0 -269 -103t-112 -239q0 -47 11.5 -86t28.5 -68t50.5 -60t65 -54t83.5 -57q63 -37 103.5 -67t79.5 -72.5t57.5 -96.5t18.5 -121q0 -82 -32.5 -157.5t-89.5 -133t-141.5 -92t-181.5 -34.5zM195 -356l-11 20q55 36 85 72.5t36 91.5h-59l18 88h84q-4 -195 -153 -272z" />
    <glyph glyph-name="uni0219" unicode="&#x219;" horiz-adv-x="716" 
d="M233 -16q-146 0 -264 65l13 25q109 -66 256 -66q143 0 231 87.5t88 209.5q0 92 -47.5 149t-147.5 107q-194 96 -194 250q0 121 83.5 208t233.5 87q130 0 226 -55l-11 -23q-87 53 -215 53q-71 0 -128 -23t-92 -61.5t-53.5 -85t-18.5 -96.5q0 -76 44 -130.5t142 -106.5
q102 -53 152.5 -115.5t50.5 -157.5q0 -135 -98 -228t-251 -93zM125 -356l-10 20q55 36 85 72.5t36 91.5h-60l19 88h84q-4 -195 -154 -272z" />
    <glyph glyph-name="uni021A" unicode="&#x21a;" horiz-adv-x="804" 
d="M223 1434h733l-4 -25h-354l-301 -1409h-25l301 1409h-354zM279 -172h-60l19 88h84q-4 -195 -154 -272l-10 20q55 36 85 72.5t36 91.5z" />
    <glyph glyph-name="uni021B" unicode="&#x21b;" horiz-adv-x="624" 
d="M274 -16q-91 0 -124 59.5t-11 165.5l183 856h-136l7 25h122l62 206h18l-43 -206h283l-6 -25h-283l-180 -850q-21 -94 7.5 -150.5t105.5 -56.5q83 0 147 45l4 -26q-68 -43 -156 -43zM156 -362l-11 20q55 36 85 72.5t36 91.5h-59l18 88h84q-4 -195 -153 -272z" />
    <glyph glyph-name="uni0232" unicode="&#x232;" horiz-adv-x="935" 
d="M496 1614h399l-6 -25h-400zM1044 1434h31l-612 -959l-101 -475h-24l102 481l-202 953h24l197 -918z" />
    <glyph glyph-name="uni0233" unicode="&#x233;" horiz-adv-x="866" 
d="M403 1327h400l-6 -24h-400zM322 35l571 1055h27l-590 -1090l-187 -350h-28l186 346l-121 1094h25z" />
    <glyph glyph-name="uni0237" unicode="&#x237;" horiz-adv-x="344" 
d="M-236 -346l7 24q28 -4 63 -4q149 0 199 230l254 1186h24l-254 -1188q-28 -134 -85.5 -193t-143.5 -59q-36 0 -64 4z" />
    <glyph glyph-name="uni0259" unicode="&#x259;" horiz-adv-x="864" 
d="M510 1106q136 0 211.5 -94.5t75.5 -259.5q0 -89 -20 -191.5t-62 -204.5t-99 -185t-138 -135t-171 -52q-120 0 -190 76t-70 212q0 118 49 275h652q24 108 24 203q0 152 -67.5 241.5t-194.5 89.5q-140 0 -270 -77v26q133 76 270 76zM307 8q66 0 126.5 30t108 79.5
t87.5 116.5t68 139t46 149h-630q-41 -128 -41 -248q0 -124 61.5 -195t173.5 -71z" />
    <glyph glyph-name="uni0272" unicode="&#x272;" horiz-adv-x="909" 
d="M616 1106q131 0 185 -99t16 -284l-155 -723h-25l156 723q35 174 -13 266t-172 92t-236.5 -119t-183.5 -348l-10 -53q-2 -14 -53 -250l-78 -368q-57 -262 -276 -262q-45 0 -76 24l8 27q30 -27 74 -27q197 0 246 240l12 55h-2l233 1090h25l-70 -322q67 162 171.5 250
t223.5 88z" />
    <glyph glyph-name="uni02B0" unicode="&#x2b0;" horiz-adv-x="438" 
d="M455 1524q66 0 92.5 -57.5t5.5 -161.5l-72 -332h-24l69 325q20 92 -1.5 146.5t-80.5 54.5q-63 0 -118 -65.5t-78 -173.5l-62 -287h-24l162 756h24l-72 -338q29 60 76 96.5t103 36.5z" />
    <glyph glyph-name="circumflex" unicode="&#x2c6;" horiz-adv-x="534" 
d="M479 1477l86 -254l-24 -9l-84 234l-181 -234l-22 11l192 252h33z" />
    <glyph glyph-name="caron" unicode="&#x2c7;" horiz-adv-x="530" 
d="M416 1251l182 234l18 -10l-190 -252h-33l-82 252l23 10z" />
    <glyph glyph-name="breve" unicode="&#x2d8;" horiz-adv-x="530" 
d="M580 1438h24q-20 -96 -70 -148.5t-124 -52.5q-73 0 -101.5 50.5t-7.5 150.5h25q-39 -176 90 -176q123 0 164 176z" />
    <glyph glyph-name="dotaccent" unicode="&#x2d9;" horiz-adv-x="253" 
d="M293 1253h-29l41 197h29z" />
    <glyph glyph-name="ring" unicode="&#x2da;" horiz-adv-x="503" 
d="M393 1202q-64 0 -92.5 43.5t-17.5 104.5q13 59 60.5 102t111.5 43q63 0 91 -43t15 -102q-11 -60 -58 -104t-110 -44zM397 1227q54 0 92 37t48 86q10 48 -12 84t-76 36t-93 -36t-49 -84q-10 -50 13 -86.5t77 -36.5z" />
    <glyph glyph-name="ogonek" unicode="&#x2db;" horiz-adv-x="409" 
d="M84 12l18 -12q-80 -50 -126.5 -105.5t-55.5 -105.5q-15 -68 24 -95.5t130 -12.5l-2 -25q-104 -15 -150 20t-28 111q27 124 190 225z" />
    <glyph glyph-name="tilde" unicode="&#x2dc;" horiz-adv-x="598" 
d="M291 1266l-25 4q15 70 50 109.5t81 39.5q27 0 49 -19.5t34 -43t30 -43t37 -19.5q34 0 60.5 34t39.5 95l25 -4q-15 -70 -50 -109.5t-81 -39.5q-28 0 -49.5 19.5t-33.5 43t-29.5 43t-37.5 19.5q-34 0 -60.5 -34t-39.5 -95z" />
    <glyph glyph-name="hungarumlaut" unicode="&#x2dd;" horiz-adv-x="610" 
d="M485 1464l-202 -198l-15 10l193 207zM692 1464l-200 -198l-15 10l191 207z" />
    <glyph glyph-name="uni02E1" unicode="&#x2e1;" horiz-adv-x="165" 
d="M186 973h-24l162 756h24z" />
    <glyph glyph-name="uni02E2" unicode="&#x2e2;" horiz-adv-x="385" 
d="M270 963q-67 0 -125 45l13 24q54 -45 118 -45q58 0 100.5 33.5t53.5 83.5q11 51 -12 83.5t-78 61.5q-58 29 -83 64.5t-15 85.5q14 60 60 96.5t110 36.5q59 0 106 -35l-12 -27q-43 37 -100 37q-51 0 -89 -30t-49 -76q-10 -44 13 -74.5t77 -58.5q60 -32 85 -69.5t12 -94.5
q-12 -61 -63 -101t-122 -40z" />
    <glyph glyph-name="gravecomb" unicode="&#x300;" horiz-adv-x="0" 
d="M43 1276l-18 -10l-117 198l33 19z" />
    <glyph glyph-name="acutecomb" unicode="&#x301;" horiz-adv-x="0" 
d="M84 1464l-203 -198l-14 10l192 207z" />
    <glyph glyph-name="uni0302" unicode="&#x302;" horiz-adv-x="0" 
d="M-55 1477l86 -254l-25 -9l-84 234l-180 -234l-23 11l193 252h33z" />
    <glyph glyph-name="tildecomb" unicode="&#x303;" horiz-adv-x="0" 
d="M-307 1266l-25 4q15 70 50 109.5t81 39.5q27 0 49 -19.5t34 -43t30 -43t37 -19.5q34 0 60.5 34t39.5 95l25 -4q-15 -70 -50 -109.5t-81 -39.5q-28 0 -49.5 19.5t-33.5 43t-29.5 43t-37.5 19.5q-34 0 -60.5 -34t-39.5 -95z" />
    <glyph glyph-name="uni0304" unicode="&#x304;" horiz-adv-x="0" 
d="M49 1303h-399l6 24h399z" />
    <glyph glyph-name="uni0306" unicode="&#x306;" horiz-adv-x="0" 
d="M55 1438h25q-20 -96 -70.5 -148.5t-124.5 -52.5q-73 0 -101 50.5t-7 150.5h24q-39 -176 90 -176q123 0 164 176z" />
    <glyph glyph-name="uni0307" unicode="&#x307;" horiz-adv-x="0" 
d="M37 1253h-29l41 197h29z" />
    <glyph glyph-name="uni0308" unicode="&#x308;" horiz-adv-x="0" 
d="M-190 1274h-29l41 196h28zM43 1274h-29l41 196h29z" />
    <glyph glyph-name="hookabovecomb" unicode="&#x309;" horiz-adv-x="0" 
d="M-74 1217l-14 16q104 67 119 135q11 54 -31 74t-111 -12l2 22q81 37 129 9t35 -91q-17 -80 -129 -153z" />
    <glyph glyph-name="uni030A" unicode="&#x30a;" horiz-adv-x="0" 
d="M-109 1202q-64 0 -92.5 43.5t-17.5 104.5q13 59 60.5 102t111.5 43q63 0 91 -43t15 -102q-11 -60 -58 -104t-110 -44zM-104 1227q54 0 91.5 36.5t47.5 86.5q10 48 -12 84t-76 36t-93 -36t-49 -84q-10 -50 13.5 -86.5t77.5 -36.5z" />
    <glyph glyph-name="uni030B" unicode="&#x30b;" horiz-adv-x="0" 
d="M-125 1464l-203 -198l-14 10l192 207zM82 1464l-201 -198l-14 10l190 207z" />
    <glyph glyph-name="uni030C" unicode="&#x30c;" horiz-adv-x="0" 
d="M-115 1251l183 234l18 -10l-190 -252h-33l-82 252l22 10z" />
    <glyph glyph-name="uni0312" unicode="&#x312;" horiz-adv-x="0" 
d="M70 1479l12 -21q-56 -36 -86.5 -72.5t-34.5 -91.5h59l-18 -88h-84q0 194 152 273z" />
    <glyph glyph-name="uni031B" unicode="&#x31b;" horiz-adv-x="0" 
d="M-131 1067l12 25q34 -3 58 3t47 28t35.5 71t15.5 125l22 2q-4 -147 -49.5 -205t-140.5 -49z" />
    <glyph glyph-name="dotbelowcomb" unicode="&#x323;" horiz-adv-x="0" 
d="M-322 -297l43 197h29l-43 -197h-29z" />
    <glyph glyph-name="uni0324" unicode="&#x324;" horiz-adv-x="0" 
d="M-535 -334h-28l41 197h28zM-301 -334h-29l41 197h29z" />
    <glyph glyph-name="uni0326" unicode="&#x326;" horiz-adv-x="0" 
d="M-371 -356l-10 20q55 36 85 72.5t36 91.5h-59l18 88h84q-4 -195 -154 -272z" />
    <glyph glyph-name="uni0327" unicode="&#x327;" horiz-adv-x="0" 
d="M-358 4l-45 -84q75 -6 115.5 -43.5t27.5 -99.5q-11 -59 -64.5 -99t-138.5 -40q-68 0 -117 18l13 25q38 -19 108 -19q74 0 119 33.5t55 81.5q12 55 -31 87t-122 34l55 106h25z" />
    <glyph glyph-name="uni0328" unicode="&#x328;" horiz-adv-x="0" 
d="M-236 12l19 -12q-80 -50 -126.5 -105.5t-55.5 -105.5q-15 -68 24 -95.5t129 -12.5l-2 -25q-104 -15 -150 20t-28 111q27 124 190 225z" />
    <glyph glyph-name="uni032E" unicode="&#x32e;" horiz-adv-x="0" 
d="M-276 -88h24q-20 -80 -70 -124t-124 -44q-73 0 -101.5 42.5t-7.5 125.5h25q-19 -71 3.5 -109.5t86.5 -38.5q123 0 164 148z" />
    <glyph glyph-name="uni0331" unicode="&#x331;" horiz-adv-x="0" 
d="M-279 -231h-399l6 24h400z" />
    <glyph glyph-name="uni0335" unicode="&#x335;" horiz-adv-x="0" 
d="M-444 659l4 25h411l-4 -25h-411z" />
    <glyph glyph-name="uni0336" unicode="&#x336;" horiz-adv-x="0" 
d="M-754 817l6 25h721l-4 -25h-723z" />
    <glyph glyph-name="uni0337" unicode="&#x337;" horiz-adv-x="0" 
d="M-397 600l-4 21l331 157l4 -22z" />
    <glyph glyph-name="uni0338" unicode="&#x338;" horiz-adv-x="0" 
d="M-1149 -12l-20 14l905 1100l16 -12z" />
    <glyph glyph-name="tonos" unicode="&#x384;" horiz-adv-x="292" 
d="M406 1483l-87 -258h-20l78 258h29z" />
    <glyph glyph-name="dieresistonos" unicode="&#x385;" horiz-adv-x="509" 
d="M561 1593l-86 -258h-20l77 258h29zM307 1171h-28l40 197h29zM596 1171h-29l41 197h29z" />
    <glyph glyph-name="Alphatonos" unicode="&#x386;" 
d="M866 0h-24l-41 418h-613l-219 -418h-26l751 1434h31zM373 1434h28l-86 -258h-20zM705 1401l-504 -959h598z" />
    <glyph glyph-name="Epsilontonos" unicode="&#x388;" horiz-adv-x="933" 
d="M1018 1434l-4 -25h-639l-144 -670h557l-4 -24h-557l-147 -690h653l-6 -25h-678l305 1434h664zM201 1434h28l-86 -258h-20z" />
    <glyph glyph-name="Etatonos" unicode="&#x389;" horiz-adv-x="1089" 
d="M940 739l147 695h25l-305 -1434h-25l152 715h-709l-151 -715h-25l305 1434h25l-148 -695h709zM201 1434h28l-86 -258h-20z" />
    <glyph glyph-name="Iotatonos" unicode="&#x38a;" horiz-adv-x="356" 
d="M74 0h-25l305 1434h25zM229 1434l-86 -258h-20l78 258h28z" />
    <glyph glyph-name="Omicrontonos" unicode="&#x38c;" horiz-adv-x="1153" 
d="M477 -16q-166 0 -262 121t-96 331q0 75 12.5 164t38.5 186.5t62.5 192t89 180t114.5 150.5t142 103t167 38q169 0 266 -119.5t97 -333.5q0 -88 -18 -194t-51.5 -220.5t-88 -220.5t-122 -191t-159 -136t-192.5 -51zM229 1434l-86 -258h-20l78 258h28zM479 8q95 0 182 49.5
t151.5 131.5t117 185.5t85.5 214t50.5 214.5t17.5 190q0 202 -89 317t-249 115q-83 0 -159.5 -37.5t-135.5 -101t-110 -147t-86.5 -175.5t-61 -187t-37.5 -181t-12 -158q0 -197 88.5 -313.5t247.5 -116.5z" />
    <glyph glyph-name="Upsilontonos" unicode="&#x38e;" horiz-adv-x="935" 
d="M129 1176h-20l77 258h29zM1044 1434h31l-612 -959l-101 -475h-24l102 481l-202 953h24l197 -918z" />
    <glyph glyph-name="Omegatonos" unicode="&#x38f;" horiz-adv-x="1087" 
d="M737 1450q191 0 279 -150.5t31 -412.5q-23 -108 -69 -217t-119.5 -225.5t-136.5 -203t-163 -216.5h270l-6 -25h-299l6 25q99 124 163.5 212.5t138 203.5t120.5 226t70 220q52 240 -26 389t-267 149q-179 0 -322.5 -143t-197.5 -395q-18 -89 -20 -183t8 -173t34 -174
t47 -165t58 -167l-6 -25h-301l6 25h272q-35 100 -57.5 171t-46 166.5t-32.5 174t-7 171t20 179.5q55 252 204 407.5t349 155.5zM217 1434h29l-86 -258h-21z" />
    <glyph glyph-name="iotadieresistonos" unicode="&#x390;" horiz-adv-x="395" 
d="M401 1593l-86 -258h-20l78 258h28zM147 1171h-28l41 197h28zM436 1171h-28l41 197h28zM203 -16q-191 0 -142 229l187 877h24l-184 -871q-27 -113 5.5 -162t115.5 -49q13 0 33 4l-2 -24q-24 -4 -37 -4z" />
    <glyph glyph-name="Alpha" unicode="&#x391;" 
d="M866 0h-24l-41 418h-613l-219 -418h-26l751 1434h31zM705 1401l-504 -959h598z" />
    <glyph glyph-name="Beta" unicode="&#x392;" horiz-adv-x="1021" 
d="M647 743q117 -17 180.5 -85.5t63.5 -182.5q0 -67 -17.5 -132t-57.5 -127.5t-97 -110t-143.5 -76.5t-190.5 -29h-336l305 1434h310q149 0 233 -69t84 -196q0 -67 -20.5 -132.5t-59.5 -125.5t-105 -105t-149 -63zM647 1409h-272l-139 -655h299q102 0 184 36t132 95
t76.5 130t26.5 146q0 248 -307 248zM80 25h301q123 0 219.5 39.5t152 104.5t83.5 141t28 157q0 126 -79.5 194t-241.5 68h-314z" />
    <glyph glyph-name="Gamma" unicode="&#x393;" horiz-adv-x="796" 
d="M49 0l305 1434h596l-4 -25h-571l-301 -1409h-25z" />
    <glyph glyph-name="uni0394" unicode="&#x394;" horiz-adv-x="1011" 
d="M682 1434h27l127 -1434h-893zM684 1389l-704 -1364h829z" />
    <glyph glyph-name="Epsilon" unicode="&#x395;" horiz-adv-x="933" 
d="M1018 1434l-4 -25h-639l-144 -670h557l-4 -24h-557l-147 -690h653l-6 -25h-678l305 1434h664z" />
    <glyph glyph-name="Zeta" unicode="&#x396;" horiz-adv-x="894" 
d="M686 0h-717l4 18l985 1391h-673l4 25h708l-2 -17l-987 -1392h684z" />
    <glyph glyph-name="Eta" unicode="&#x397;" horiz-adv-x="1089" 
d="M940 739l147 695h25l-305 -1434h-25l152 715h-709l-151 -715h-25l305 1434h25l-148 -695h709z" />
    <glyph glyph-name="Theta" unicode="&#x398;" horiz-adv-x="1153" 
d="M477 -16q-166 0 -262 121t-96 331q0 75 12.5 164t38.5 186.5t62.5 192t89 180t114.5 150.5t142 103t167 38q169 0 266 -119.5t97 -333.5q0 -88 -18 -194t-51.5 -220.5t-88 -220.5t-122 -191t-159 -136t-192.5 -51zM479 8q95 0 182 49.5t151.5 131.5t117 185.5t85.5 214
t50.5 214.5t17.5 190q0 202 -89 317t-249 115q-83 0 -159.5 -37.5t-135.5 -101t-110 -147t-86.5 -175.5t-61 -187t-37.5 -181t-12 -158q0 -197 88.5 -313.5t247.5 -116.5zM281 705l4 24h657l-4 -24h-657z" />
    <glyph glyph-name="Iota" unicode="&#x399;" horiz-adv-x="356" 
d="M74 0h-25l305 1434h25z" />
    <glyph glyph-name="Kappa" unicode="&#x39a;" horiz-adv-x="976" 
d="M1036 1434h31l-508 -605l246 -829h-27l-237 807l-396 -471l-71 -336h-25l305 1434h25l-221 -1045z" />
    <glyph glyph-name="Lambda" unicode="&#x39b;" horiz-adv-x="1013" 
d="M709 1434l129 -1434h-25l-127 1393l-719 -1393h-24l739 1434h27z" />
    <glyph glyph-name="Mu" unicode="&#x39c;" horiz-adv-x="1339" 
d="M569 63l727 1371h23l-238 -1434h-24l223 1348l-713 -1346h-16l-150 1346l-352 -1348h-24l372 1434h21z" />
    <glyph glyph-name="Nu" unicode="&#x39d;" horiz-adv-x="1095" 
d="M74 0h-25l305 1434h29l416 -1389l295 1389h24l-305 -1434h-27l-415 1389z" />
    <glyph glyph-name="Xi" unicode="&#x39e;" horiz-adv-x="882" 
d="M977 1409h-703l5 25h702zM745 717h-538l4 24h539zM676 0h-703l7 25h702z" />
    <glyph glyph-name="Omicron" unicode="&#x39f;" horiz-adv-x="1153" 
d="M477 -16q-166 0 -262 121t-96 331q0 75 12.5 164t38.5 186.5t62.5 192t89 180t114.5 150.5t142 103t167 38q169 0 266 -119.5t97 -333.5q0 -88 -18 -194t-51.5 -220.5t-88 -220.5t-122 -191t-159 -136t-192.5 -51zM479 8q95 0 182 49.5t151.5 131.5t117 185.5t85.5 214
t50.5 214.5t17.5 190q0 202 -89 317t-249 115q-83 0 -159.5 -37.5t-135.5 -101t-110 -147t-86.5 -175.5t-61 -187t-37.5 -181t-12 -158q0 -197 88.5 -313.5t247.5 -116.5z" />
    <glyph glyph-name="Pi" unicode="&#x3a0;" horiz-adv-x="1064" 
d="M1087 1434l-305 -1434h-24l299 1409h-684l-299 -1409h-25l305 1434h733z" />
    <glyph glyph-name="Rho" unicode="&#x3a1;" horiz-adv-x="946" 
d="M592 1434q184 0 287.5 -84.5t103.5 -241.5q0 -77 -19.5 -155t-64.5 -154t-110 -134t-164 -94t-219 -36h-218l-114 -535h-25l305 1434h238zM193 559h213q112 0 206 33t157 87.5t106.5 126t63 146.5t19.5 152q0 144 -92.5 224.5t-269.5 80.5h-223z" />
    <glyph glyph-name="Sigma" unicode="&#x3a3;" horiz-adv-x="864" 
d="M657 0h-684l7 25l532 708l-238 676l5 25h684l-5 -25h-655l236 -676l-531 -708h656z" />
    <glyph glyph-name="Tau" unicode="&#x3a4;" horiz-adv-x="804" 
d="M223 1434h733l-4 -25h-354l-301 -1409h-25l301 1409h-354z" />
    <glyph glyph-name="Upsilon" unicode="&#x3a5;" horiz-adv-x="935" 
d="M1044 1434h31l-612 -959l-101 -475h-24l102 481l-202 953h24l197 -918z" />
    <glyph glyph-name="Phi" unicode="&#x3a6;" horiz-adv-x="1177" 
d="M788 1434l-32 -158q213 -2 307 -151.5t39 -407.5q-55 -259 -213 -409t-373 -152l-33 -156h-24l33 156q-212 3 -304.5 153.5t-37.5 407.5t211.5 406.5t369.5 152.5l33 158h24zM1077 717q52 247 -36 388t-291 146l-228 -1069q204 3 353.5 145.5t201.5 389.5zM174 717
q-54 -245 34.5 -387.5t289.5 -147.5l227 1069q-203 -5 -351 -146.5t-200 -387.5z" />
    <glyph glyph-name="Chi" unicode="&#x3a7;" horiz-adv-x="899" 
d="M991 1436h31l-518 -703l223 -733h-27l-213 711l-518 -711h-30l536 731l-219 705h27l209 -684z" />
    <glyph glyph-name="Psi" unicode="&#x3a8;" horiz-adv-x="1052" 
d="M938 782l137 652h27l-135 -650q-40 -179 -157 -283.5t-304 -107.5l-84 -393h-27l84 393q-179 4 -253.5 108t-35.5 287l138 646h24l-137 -650q-37 -165 29.5 -263.5t238.5 -102.5l217 1016h27l-217 -1016q171 3 281 98t147 266z" />
    <glyph glyph-name="uni03A9" unicode="&#x3a9;" horiz-adv-x="1087" 
d="M737 1450q191 0 279 -150.5t31 -412.5q-23 -108 -69 -217t-119.5 -225.5t-136.5 -203t-163 -216.5h270l-6 -25h-299l6 25q99 124 163.5 212.5t138 203.5t120.5 226t70 220q52 240 -26 389t-267 149q-179 0 -322.5 -143t-197.5 -395q-18 -89 -20 -183t8 -173t34 -174
t47 -165t58 -167l-6 -25h-301l6 25h272q-35 100 -57.5 171t-46 166.5t-32.5 174t-7 171t20 179.5q55 252 204 407.5t349 155.5z" />
    <glyph glyph-name="Iotadieresis" unicode="&#x3aa;" horiz-adv-x="356" 
d="M303 1618h-29l41 197h29zM537 1618h-29l41 197h29zM74 0h-25l305 1434h25z" />
    <glyph glyph-name="Upsilondieresis" unicode="&#x3ab;" horiz-adv-x="935" 
d="M604 1815h29l-41 -197h-29zM838 1815h28l-41 -197h-28zM1044 1434h31l-612 -959l-101 -475h-24l102 481l-202 953h24l197 -918z" />
    <glyph glyph-name="alphatonos" unicode="&#x3ac;" horiz-adv-x="976" 
d="M690 1483h29l-86 -258h-21zM918 1090h24l-133 -537l-2 -8l-98 -545h-25l68 365q-72 -173 -189 -277t-241 -104q-158 0 -223 150t-9 411q53 253 180.5 407t288.5 154q123 0 197.5 -103.5t72.5 -271.5zM330 8q143 0 274 153t180 384q31 158 13 277t-81.5 189t-156.5 70
q-150 0 -270.5 -142.5t-173.5 -393.5q-53 -241 5 -389t210 -148z" />
    <glyph glyph-name="epsilontonos" unicode="&#x3ad;" horiz-adv-x="700" 
d="M623 1483l-86 -258h-21l78 258h29zM254 -16q-126 0 -191.5 85.5t-37.5 215.5q24 113 94.5 188.5t163.5 97.5q-79 20 -116 91t-15 167q27 131 123 204t227 73q64 0 126 -21.5t103 -54.5l-10 -24q-91 75 -221 75q-122 0 -211 -68.5t-115 -183.5q-23 -114 33.5 -180.5
t167.5 -66.5h127l-6 -25h-125q-117 0 -206.5 -76t-115.5 -196q-27 -124 35 -200.5t178 -76.5q74 0 145.5 23t124.5 59l5 -27q-52 -34 -130 -56.5t-153 -22.5z" />
    <glyph glyph-name="etatonos" unicode="&#x3ae;" horiz-adv-x="909" 
d="M686 1483h29l-86 -258h-21zM616 1106q131 0 185 -99t16 -284l-153 -717v-4l-76 -352h-25l74 350l156 723q35 174 -13 266t-172 92t-236.5 -119t-183.5 -348l-131 -614h-24l233 1090h25l-70 -322q67 162 171.5 250t223.5 88z" />
    <glyph glyph-name="iotatonos" unicode="&#x3af;" horiz-adv-x="395" 
d="M381 1483l-86 -258h-21l78 258h29zM203 -16q-191 0 -142 229l187 877h24l-184 -871q-27 -113 5.5 -162t115.5 -49q13 0 33 4l-2 -24q-24 -4 -37 -4z" />
    <glyph glyph-name="upsilondieresistonos" unicode="&#x3b0;" horiz-adv-x="888" 
d="M702 1593l-86 -258h-20l78 258h28zM449 1171h-29l41 197h28zM737 1171h-28l41 197h28zM696 379l152 711h24l-151 -711q-39 -188 -146 -291.5t-249 -103.5q-138 0 -204.5 100.5t-25.5 294.5l152 711h24l-151 -711q-37 -179 20.5 -275t190.5 -96q125 0 225.5 94.5
t138.5 276.5z" />
    <glyph glyph-name="alpha" unicode="&#x3b1;" horiz-adv-x="976" 
d="M918 1090h24l-133 -537l-2 -8l-98 -545h-25l68 365q-72 -173 -189 -277t-241 -104q-158 0 -223 150t-9 411q53 253 180.5 407t288.5 154q123 0 197.5 -103.5t72.5 -271.5zM330 8q143 0 274 153t180 384q31 158 13 277t-81.5 189t-156.5 70q-150 0 -270.5 -142.5
t-173.5 -393.5q-53 -241 5 -389t210 -148z" />
    <glyph glyph-name="beta" unicode="&#x3b2;" horiz-adv-x="884" 
d="M-8 -350h-25l320 1501q33 154 118.5 245t204.5 91t169.5 -91t15.5 -255q-24 -103 -89 -193t-145 -121q129 -20 185 -132.5t20 -282.5q-40 -193 -158 -310.5t-280 -117.5q-72 0 -135.5 26t-106.5 72zM311 1151l-219 -1036q44 -49 107.5 -78t132.5 -29q153 0 261.5 110
t147.5 294q37 174 -26 284.5t-207 110.5h-123l6 24h82q99 0 184 89.5t113 222.5q30 147 -12.5 233t-151.5 86q-104 0 -183.5 -82t-111.5 -229z" />
    <glyph glyph-name="gamma" unicode="&#x3b3;" horiz-adv-x="872" 
d="M899 1090h27l-574 -1002l-94 -438h-25l93 430l-146 1010h27l139 -969z" />
    <glyph glyph-name="delta" unicode="&#x3b4;" horiz-adv-x="847" 
d="M381 1511h504l-4 -24h-482q441 -569 336 -1049q-41 -195 -158.5 -323.5t-271.5 -128.5q-151 0 -216.5 123.5t-22.5 324.5q33 152 97 268t165.5 215t267.5 213q-35 70 -82.5 146.5t-71.5 111t-71 99.5zM711 438q67 309 -105 670q-246 -166 -357.5 -311.5t-158.5 -362.5
q-38 -183 20.5 -303.5t200.5 -120.5q138 0 249 119t151 309z" />
    <glyph glyph-name="epsilon" unicode="&#x3b5;" horiz-adv-x="700" 
d="M254 -16q-126 0 -191.5 85.5t-37.5 215.5q24 113 94.5 188.5t163.5 97.5q-79 20 -116 91t-15 167q27 131 123 204t227 73q64 0 126 -21.5t103 -54.5l-10 -24q-91 75 -221 75q-122 0 -211 -68.5t-115 -183.5q-23 -114 33.5 -180.5t167.5 -66.5h127l-6 -25h-125
q-117 0 -206.5 -76t-115.5 -196q-27 -124 35 -200.5t178 -76.5q74 0 145.5 23t124.5 59l5 -27q-52 -34 -130 -56.5t-153 -22.5z" />
    <glyph glyph-name="zeta" unicode="&#x3b6;" horiz-adv-x="659" 
d="M354 1511h467l-6 -20l2 -4q-628 -589 -711 -987q-28 -129 14 -220.5t165 -162.5q49 -28 80 -47.5t57.5 -40.5t39.5 -38.5t20.5 -40t6.5 -46.5t-8 -56q-15 -73 -108 -198h-29q32 42 50 67.5t37 62t26 68.5q6 30 7 52t-7.5 43t-20.5 36.5t-38.5 35t-54.5 36.5t-75 43
q-128 71 -172.5 167.5t-13.5 238.5q86 406 704 987h-436z" />
    <glyph glyph-name="eta" unicode="&#x3b7;" horiz-adv-x="909" 
d="M616 1106q131 0 185 -99t16 -284l-153 -717v-4l-76 -352h-25l74 350l156 723q35 174 -13 266t-172 92t-236.5 -119t-183.5 -348l-131 -614h-24l233 1090h25l-70 -322q67 162 171.5 250t223.5 88z" />
    <glyph glyph-name="theta" unicode="&#x3b8;" horiz-adv-x="929" 
d="M674 1522q173 0 229.5 -203t-18.5 -565q-74 -347 -217.5 -558.5t-321.5 -211.5q-174 0 -231.5 204.5t18.5 565.5q49 227 127.5 398.5t186 270.5t227.5 99zM160 766h702q43 220 39 382.5t-64 255.5t-169 93q-162 0 -297.5 -195.5t-210.5 -535.5zM350 8q162 0 298 197
t210 536h-702q-43 -221 -39 -384t64 -256t169 -93z" />
    <glyph glyph-name="iota" unicode="&#x3b9;" horiz-adv-x="395" 
d="M203 -16q-191 0 -142 229l187 877h24l-184 -871q-27 -113 5.5 -162t115.5 -49q13 0 33 4l-2 -24q-24 -4 -37 -4z" />
    <glyph glyph-name="kappa" unicode="&#x3ba;" horiz-adv-x="772" 
d="M776 1090h29l-402 -545l189 -545h-29l-184 532h-207l-115 -532h-24l233 1090h25l-115 -533h207z" />
    <glyph glyph-name="lambda" unicode="&#x3bb;" horiz-adv-x="860" 
d="M-29 0h-24l590 1096l-25 231q-10 88 -30 125t-72 37l4 24q63 0 88 -41t35 -135l143 -1337h-25l-114 1051z" />
    <glyph glyph-name="uni03BC" unicode="&#x3bc;" horiz-adv-x="909" 
d="M721 475l131 615h25l-234 -1090h-25l68 319q-65 -160 -169 -247.5t-222 -87.5q-96 0 -151 51.5t-64 152.5l-115 -540h-24l202 956h2l103 486h24l-153 -723q-37 -174 10.5 -266.5t171.5 -92.5t236.5 119t183.5 348z" />
    <glyph glyph-name="nu" unicode="&#x3bd;" horiz-adv-x="866" 
d="M328 0h-27l-121 1090h25l117 -1055l571 1055h27z" />
    <glyph glyph-name="xi" unicode="&#x3be;" horiz-adv-x="708" 
d="M373 -352h-29q53 70 80 113.5t35 84.5q13 67 -27.5 117t-171.5 125q-135 81 -174 166.5t-10 228.5q34 157 115.5 258.5t197.5 122.5q-75 20 -104.5 105t0.5 229q30 141 123.5 235.5t214.5 94.5q127 0 215 -70l-13 -22q-85 67 -209 67q-108 0 -193 -85t-114 -220
q-32 -151 12.5 -237.5t153.5 -86.5h105l-5 -24h-118q-127 0 -223 -97.5t-134 -269.5q-22 -90 -8 -158.5t58 -118t129 -97.5q133 -73 176 -129t28 -134q-15 -73 -110 -198z" />
    <glyph glyph-name="omicron" unicode="&#x3bf;" horiz-adv-x="923" 
d="M362 -16q-134 0 -213 96.5t-79 261.5q0 70 13.5 151t39 167.5t67.5 165.5t94 142t124 100.5t153 37.5q134 0 214.5 -96.5t80.5 -261.5q0 -70 -14 -151.5t-40 -167.5t-68.5 -165t-95.5 -142t-124.5 -100.5t-151.5 -37.5zM367 8q87 0 164.5 51.5t131 132.5t92.5 180
t57.5 194.5t18.5 174.5q0 156 -72 248t-200 92q-90 0 -168 -51.5t-131 -132.5t-91.5 -180t-56.5 -193.5t-18 -173.5q0 -156 70.5 -249t202.5 -93z" />
    <glyph glyph-name="pi" unicode="&#x3c0;" horiz-adv-x="915" 
d="M881 1090l-234 -1090h-24l227 1065h-565l-228 -1065h-24l233 1090h615z" />
    <glyph glyph-name="rho" unicode="&#x3c1;" horiz-adv-x="954" 
d="M-35 -350h-24l190 895q55 253 186 407t299 154q166 0 235 -149t13 -410q-53 -254 -182 -408.5t-295 -154.5q-126 0 -199 97t-75 263zM156 545q-16 -76 -17.5 -152t13.5 -145t45 -122.5t80.5 -85.5t115.5 -32q150 0 272 143.5t175 393.5q53 241 -8.5 388.5t-219.5 147.5
q-155 0 -279 -142.5t-177 -393.5z" />
    <glyph glyph-name="uni03C2" unicode="&#x3c2;" horiz-adv-x="757" 
d="M395 -350h-28q91 122 110 198q7 30 8 51t-8.5 43t-20 36t-43.5 39.5t-60.5 43.5t-88.5 56q-104 73 -151.5 195.5t-10.5 293.5q46 218 177 359t294 141q135 0 224 -86l-15 -25q-86 86 -211 86q-154 0 -277.5 -134.5t-166.5 -340.5q-35 -167 11 -284.5t147 -184.5
q60 -38 93.5 -61t64 -48t42.5 -41.5t19.5 -39.5t6 -44.5t-8.5 -54.5q-16 -72 -107 -198z" />
    <glyph glyph-name="sigma" unicode="&#x3c3;" horiz-adv-x="950" 
d="M973 1090l-6 -25q-42 0 -88.5 2t-102.5 5.5t-88 4.5q79 -37 123.5 -123t44.5 -206q0 -70 -14 -151.5t-40 -167.5t-68.5 -165t-95.5 -142t-124.5 -100.5t-151.5 -37.5q-134 0 -213 96.5t-79 261.5q0 70 13.5 151t39 167.5t67.5 165.5t94 142t124 100.5t153 37.5h21
q67 0 196.5 -8t194.5 -8zM831 741q0 156 -72 248t-200 92q-90 0 -168 -51.5t-131 -132.5t-91.5 -180t-56.5 -193.5t-18 -173.5q0 -156 70.5 -249t202.5 -93q87 0 164.5 51.5t131 132.5t92.5 180t57.5 194.5t18.5 174.5z" />
    <glyph glyph-name="tau" unicode="&#x3c4;" horiz-adv-x="575" 
d="M602 1065h-233l-179 -846q-25 -113 7.5 -162t113.5 -49q13 0 33 4l-2 -24q-24 -4 -37 -4q-190 0 -141 229l180 852h-158l7 25h413z" />
    <glyph glyph-name="upsilon" unicode="&#x3c5;" horiz-adv-x="888" 
d="M696 379l152 711h24l-151 -711q-39 -188 -146 -291.5t-249 -103.5q-138 0 -204.5 100.5t-25.5 294.5l152 711h24l-151 -711q-37 -179 20.5 -275t190.5 -96q125 0 225.5 94.5t138.5 276.5z" />
    <glyph glyph-name="phi" unicode="&#x3c6;" horiz-adv-x="1048" 
d="M725 1434l-72 -334q192 0 277.5 -147t30.5 -406q-55 -252 -200.5 -404t-342.5 -153l-72 -338h-24l71 338q-192 2 -275.5 149t-27.5 406q53 249 199 401.5t340 153.5l71 334h25zM115 545q-53 -237 22.5 -382.5t261.5 -148.5l226 1061q-182 -2 -319.5 -142t-190.5 -388z
M936 545q52 239 -25 384.5t-262 145.5l-225 -1061q183 2 321 142t191 389z" />
    <glyph glyph-name="chi" unicode="&#x3c7;" horiz-adv-x="823" 
d="M838 1090h26l-471 -705l176 -735h-26l-170 704l-473 -704h-27l492 733l-170 707h26l162 -680z" />
    <glyph glyph-name="psi" unicode="&#x3c8;" horiz-adv-x="1026" 
d="M821 406l148 684h24l-147 -684q-38 -173 -150.5 -275t-287.5 -106l-82 -375h-25l82 375q-166 3 -242.5 103t-38.5 278l146 684h24l-145 -684q-36 -161 32.5 -257t227.5 -100l221 1041h25l-221 -1041q159 3 266.5 96.5t142.5 260.5z" />
    <glyph glyph-name="omega" unicode="&#x3c9;" horiz-adv-x="1251" 
d="M76 481q60 280 274 609h29q-223 -344 -279 -609q-50 -227 -12 -350t162 -123q126 0 213 116.5t133 336.5l55 254h25l-55 -254q-49 -224 -12 -338.5t163 -114.5q123 0 213.5 123t138.5 350q57 259 -18 609h27q71 -346 16 -609q-52 -239 -148.5 -368t-230.5 -129
q-227 0 -197 315q-112 -315 -329 -315q-133 0 -177 129t9 368z" />
    <glyph glyph-name="iotadieresis" unicode="&#x3ca;" horiz-adv-x="395" 
d="M197 1274h-29l41 196h29zM430 1274h-29l41 196h29zM203 -16q-191 0 -142 229l187 877h24l-184 -871q-27 -113 5.5 -162t115.5 -49q13 0 33 4l-2 -24q-24 -4 -37 -4z" />
    <glyph glyph-name="upsilondieresis" unicode="&#x3cb;" horiz-adv-x="888" 
d="M498 1274h-29l41 196h29zM731 1274h-29l41 196h29zM696 379l152 711h24l-151 -711q-39 -188 -146 -291.5t-249 -103.5q-138 0 -204.5 100.5t-25.5 294.5l152 711h24l-151 -711q-37 -179 20.5 -275t190.5 -96q125 0 225.5 94.5t138.5 276.5z" />
    <glyph glyph-name="omicrontonos" unicode="&#x3cc;" horiz-adv-x="923" 
d="M698 1483l-86 -258h-20l78 258h28zM362 -16q-134 0 -213 96.5t-79 261.5q0 70 13.5 151t39 167.5t67.5 165.5t94 142t124 100.5t153 37.5q134 0 214.5 -96.5t80.5 -261.5q0 -70 -14 -151.5t-40 -167.5t-68.5 -165t-95.5 -142t-124.5 -100.5t-151.5 -37.5zM367 8
q87 0 164.5 51.5t131 132.5t92.5 180t57.5 194.5t18.5 174.5q0 156 -72 248t-200 92q-90 0 -168 -51.5t-131 -132.5t-91.5 -180t-56.5 -193.5t-18 -173.5q0 -156 70.5 -249t202.5 -93z" />
    <glyph glyph-name="upsilontonos" unicode="&#x3cd;" horiz-adv-x="888" 
d="M682 1483l-86 -258h-21l78 258h29zM696 379l152 711h24l-151 -711q-39 -188 -146 -291.5t-249 -103.5q-138 0 -204.5 100.5t-25.5 294.5l152 711h24l-151 -711q-37 -179 20.5 -275t190.5 -96q125 0 225.5 94.5t138.5 276.5z" />
    <glyph glyph-name="omegatonos" unicode="&#x3ce;" horiz-adv-x="1251" 
d="M862 1483l-86 -258h-20l78 258h28zM76 481q60 280 274 609h29q-223 -344 -279 -609q-50 -227 -12 -350t162 -123q126 0 213 116.5t133 336.5l55 254h25l-55 -254q-49 -224 -12 -338.5t163 -114.5q123 0 213.5 123t138.5 350q57 259 -18 609h27q71 -346 16 -609
q-52 -239 -148.5 -368t-230.5 -129q-227 0 -197 315q-112 -315 -329 -315q-133 0 -177 129t9 368z" />
    <glyph glyph-name="uni0400" unicode="&#x400;" horiz-adv-x="933" 
d="M645 1827l103 -207l-19 -10l-117 198zM1018 1434l-4 -25h-639l-144 -670h557l-4 -24h-557l-147 -690h653l-6 -25h-678l305 1434h664z" />
    <glyph glyph-name="uni0401" unicode="&#x401;" horiz-adv-x="933" 
d="M631 1815h28l-41 -197h-28zM864 1815h29l-41 -197h-29zM1018 1434l-4 -25h-639l-144 -670h557l-4 -24h-557l-147 -690h653l-6 -25h-678l305 1434h664z" />
    <glyph glyph-name="uni0402" unicode="&#x402;" horiz-adv-x="1062" 
d="M741 915q133 0 186.5 -111t10.5 -319l-14 -59q-42 -204 -134 -321t-237 -117q-96 0 -154 47l13 24q34 -26 65 -36.5t80 -10.5q68 0 125.5 33t99.5 92.5t71.5 134.5t49.5 168l10 45q39 188 -6.5 297t-173.5 109q-151 0 -323 -96v4l-170 -799h-25l299 1409h-295l4 25h729
l-4 -25h-409l-123 -586q168 92 325 92z" />
    <glyph glyph-name="uni0403" unicode="&#x403;" horiz-adv-x="796" 
d="M838 1808l-203 -198l-14 10l192 207zM49 0l305 1434h596l-4 -25h-571l-301 -1409h-25z" />
    <glyph glyph-name="uni0404" unicode="&#x404;" horiz-adv-x="968" 
d="M762 1425q-106 0 -202 -61t-167.5 -163t-124 -220.5t-84.5 -247.5h582l-4 -24h-584q-39 -153 -39 -289q0 -191 85 -301.5t247 -110.5q158 0 313 92l-2 -26q-155 -90 -311 -90q-168 0 -262 115t-94 321q0 107 25.5 238.5t79.5 271.5t128.5 255.5t184 190t233.5 74.5
q166 0 291 -94l-10 -23q-64 47 -130.5 69.5t-154.5 22.5z" />
    <glyph glyph-name="uni0405" unicode="&#x405;" horiz-adv-x="882" 
d="M303 -16q-192 0 -328 92l13 20q133 -88 321 -88q178 0 296 117.5t118 275.5q0 54 -14 99.5t-33.5 77t-56 63t-67 51t-79.5 47.5q-64 41 -103.5 71.5t-75.5 71.5t-52.5 89t-16.5 108q0 69 30.5 135.5t83 119t130 84.5t164.5 32q163 0 282 -80l-10 -24q-113 79 -274 79
q-157 0 -269 -103t-112 -239q0 -47 11.5 -86t28.5 -68t50.5 -60t65 -54t83.5 -57q63 -37 103.5 -67t79.5 -72.5t57.5 -96.5t18.5 -121q0 -82 -32.5 -157.5t-89.5 -133t-141.5 -92t-181.5 -34.5z" />
    <glyph glyph-name="uni0406" unicode="&#x406;" horiz-adv-x="356" 
d="M74 0h-25l305 1434h25z" />
    <glyph glyph-name="uni0407" unicode="&#x407;" horiz-adv-x="356" 
d="M303 1618h-29l41 197h29zM537 1618h-29l41 197h29zM74 0h-25l305 1434h25z" />
    <glyph glyph-name="uni0408" unicode="&#x408;" horiz-adv-x="700" 
d="M154 -16q-123 0 -201 61l8 25q82 -62 197 -62q128 0 213 80t123 260l227 1061h-217l4 25h242l-230 -1084q-42 -196 -134.5 -281t-231.5 -85z" />
    <glyph glyph-name="uni0409" unicode="&#x409;" horiz-adv-x="1597" 
d="M946 899h191q223 0 319 -120t51 -330q-45 -215 -194.5 -332t-366.5 -117h-217l2 2l299 1407h-565l-178 -731q-96 -390 -173.5 -540t-195.5 -138l6 25q103 -10 173 131t165 526l184 752h615zM1483 446q44 207 -49.5 317.5t-300.5 110.5h-191l-180 -849h192
q211 0 349 112.5t180 308.5z" />
    <glyph glyph-name="uni040A" unicode="&#x40a;" horiz-adv-x="1597" 
d="M946 838h176q226 0 324 -108.5t55 -311.5q-43 -200 -186.5 -309t-368.5 -109h-203l172 811h-669l-172 -811h-25l305 1434h25l-127 -598h670l127 598h24zM1477 416q40 191 -52 294t-305 103h-178l-168 -788h180q213 0 348 101.5t175 289.5z" />
    <glyph glyph-name="uni040B" unicode="&#x40b;" horiz-adv-x="1081" 
d="M739 909q140 5 196.5 -80.5t20.5 -253.5l-122 -575h-25l123 575q33 156 -19 235.5t-180 74.5q-166 -8 -325 -97l-168 -788h-25l299 1409h-295l4 25h729l-4 -25h-409l-125 -592q142 83 325 92z" />
    <glyph glyph-name="uni040C" unicode="&#x40c;" horiz-adv-x="921" 
d="M850 1749l24 -16l-192 -197l-12 8zM995 1434h29l-518 -713l242 -721h-29l-236 702h-260l-149 -702h-25l305 1434h25l-150 -707h256z" />
    <glyph glyph-name="uni040D" unicode="&#x40d;" horiz-adv-x="1095" 
d="M801 1620l-19 -10l-116 198l32 19zM1118 1434l-305 -1434h-25l297 1389l-1005 -1389h-31l305 1434h25l-295 -1389l1006 1389h28z" />
    <glyph glyph-name="uni040E" unicode="&#x40e;" horiz-adv-x="851" 
d="M645 1579q-73 0 -101 50.5t-7 150.5h24q-39 -176 90 -176q123 0 164 176h25q-20 -96 -70.5 -148.5t-124.5 -52.5zM956 1434h25l-584 -1074l-90 -172q-59 -106 -114 -150t-123 -44q-38 0 -66 12t-39 31l12 26q25 -45 99 -45q58 0 106 40t101 135l92 174l-127 1067h24
l125 -1024z" />
    <glyph glyph-name="uni040F" unicode="&#x40f;" horiz-adv-x="1064" 
d="M764 25l299 1409h24l-305 -1434h-356l-51 -246h-25l53 246h-354l305 1434h25l-299 -1409h684z" />
    <glyph glyph-name="uni0410" unicode="&#x410;" 
d="M866 0h-24l-41 412h-617l-215 -412h-26l751 1434h33zM705 1405l-506 -969h600z" />
    <glyph glyph-name="uni0411" unicode="&#x411;" horiz-adv-x="1011" 
d="M967 1434l-4 -25h-590l-129 -608h313q194 0 277 -99.5t45 -281.5q-44 -206 -173 -313t-321 -107h-336l305 1434h613zM553 776h-313l-160 -751h301q186 0 309 100.5t164 294.5q36 172 -43 264t-258 92z" />
    <glyph glyph-name="uni0412" unicode="&#x412;" horiz-adv-x="1021" 
d="M647 743q117 -17 180.5 -85.5t63.5 -182.5q0 -67 -17.5 -132t-57.5 -127.5t-97 -110t-143.5 -76.5t-190.5 -29h-336l305 1434h310q149 0 233 -69t84 -196q0 -67 -20.5 -132.5t-59.5 -125.5t-105 -105t-149 -63zM647 1409h-272l-139 -655h299q102 0 184 36t132 95
t76.5 130t26.5 146q0 248 -307 248zM80 25h301q123 0 219.5 39.5t152 104.5t83.5 141t28 157q0 126 -79.5 194t-241.5 68h-314z" />
    <glyph glyph-name="uni0413" unicode="&#x413;" horiz-adv-x="796" 
d="M49 0l305 1434h596l-4 -25h-571l-301 -1409h-25z" />
    <glyph glyph-name="uni0414" unicode="&#x414;" horiz-adv-x="1046" 
d="M-109 -242h-24l57 267h88q65 60 156 295.5t186 656.5l111 457h608l-299 -1409h125l-57 -267h-25l51 242h-925zM49 25h701l292 1384h-559l-104 -436q-91 -403 -178.5 -642t-151.5 -306z" />
    <glyph glyph-name="uni0415" unicode="&#x415;" horiz-adv-x="933" 
d="M1018 1434l-4 -25h-639l-144 -670h557l-4 -24h-557l-147 -690h653l-6 -25h-678l305 1434h664z" />
    <glyph glyph-name="uni0416" unicode="&#x416;" horiz-adv-x="1349" 
d="M1423 1434h29l-518 -713l244 -721h-29l-236 702h-194l-150 -702h-24l149 702h-190l-537 -702h-28l550 719l-215 715h29l211 -707h186l150 707h24l-149 -707h188z" />
    <glyph glyph-name="uni0417" unicode="&#x417;" horiz-adv-x="847" 
d="M588 1450q161 0 243 -95.5t48 -260.5q-29 -135 -115.5 -223.5t-212.5 -110.5q119 -25 167.5 -133t14.5 -267q-36 -172 -163 -274t-291 -102q-84 0 -163.5 22.5t-131.5 61.5l12 28q52 -41 128.5 -64.5t156.5 -23.5q155 0 274 95.5t154 256.5q36 173 -32 280.5t-218 107.5
h-185l7 24h184q146 0 251.5 86t137.5 234q32 154 -45 243.5t-227 89.5q-167 0 -324 -88v27q74 40 162.5 63t167.5 23z" />
    <glyph glyph-name="uni0418" unicode="&#x418;" horiz-adv-x="1095" 
d="M1118 1434l-305 -1434h-25l297 1389l-1005 -1389h-31l305 1434h25l-295 -1389l1006 1389h28z" />
    <glyph glyph-name="uni0419" unicode="&#x419;" horiz-adv-x="1095" 
d="M766 1581q-73 0 -101.5 50.5t-7.5 150.5h25q-39 -176 90 -176q123 0 164 176h25q-20 -96 -70.5 -148.5t-124.5 -52.5zM84 45l1006 1389h28l-305 -1434h-25l297 1389l-1005 -1389h-31l305 1434h25z" />
    <glyph glyph-name="uni041A" unicode="&#x41a;" horiz-adv-x="921" 
d="M995 1434h29l-518 -713l242 -721h-29l-236 702h-260l-149 -702h-25l305 1434h25l-150 -707h256z" />
    <glyph glyph-name="uni041B" unicode="&#x41b;" horiz-adv-x="1069" 
d="M-82 0l6 25q103 -10 173 131t165 526l184 752h646l-306 -1434h-24l299 1409h-596l-178 -731q-96 -390 -173.5 -540t-195.5 -138z" />
    <glyph glyph-name="uni041C" unicode="&#x41c;" horiz-adv-x="1253" 
d="M582 346l673 1088h21l-305 -1434h-25l287 1348l-651 -1053h-19l-201 1053l-288 -1348h-25l305 1434h19z" />
    <glyph glyph-name="uni041D" unicode="&#x41d;" horiz-adv-x="1089" 
d="M940 739l147 695h25l-305 -1434h-25l152 715h-709l-151 -715h-25l305 1434h25l-148 -695h709z" />
    <glyph glyph-name="uni041E" unicode="&#x41e;" horiz-adv-x="1153" 
d="M477 -16q-166 0 -262 121t-96 331q0 75 12.5 164t38.5 186.5t62.5 192t89 180t114.5 150.5t142 103t167 38q169 0 266 -119.5t97 -333.5q0 -88 -18 -194t-51.5 -220.5t-88 -220.5t-122 -191t-159 -136t-192.5 -51zM479 8q95 0 182 49.5t151.5 131.5t117 185.5t85.5 214
t50.5 214.5t17.5 190q0 202 -89 317t-249 115q-83 0 -159.5 -37.5t-135.5 -101t-110 -147t-86.5 -175.5t-61 -187t-37.5 -181t-12 -158q0 -197 88.5 -313.5t247.5 -116.5z" />
    <glyph glyph-name="uni041F" unicode="&#x41f;" horiz-adv-x="1064" 
d="M1087 1434l-305 -1434h-24l299 1409h-684l-299 -1409h-25l305 1434h733z" />
    <glyph glyph-name="uni0420" unicode="&#x420;" horiz-adv-x="946" 
d="M592 1434q184 0 287.5 -84.5t103.5 -241.5q0 -77 -19.5 -155t-64.5 -154t-110 -134t-164 -94t-219 -36h-218l-114 -535h-25l305 1434h238zM193 559h213q112 0 206 33t157 87.5t106.5 126t63 146.5t19.5 152q0 144 -92.5 224.5t-269.5 80.5h-223z" />
    <glyph glyph-name="uni0421" unicode="&#x421;" horiz-adv-x="968" 
d="M471 -16q-168 0 -262 115t-94 321q0 107 25.5 238.5t79.5 271.5t128.5 255.5t184 190t233.5 74.5q166 0 291 -94l-10 -23q-64 47 -130.5 69.5t-154.5 22.5q-114 0 -217 -72t-175 -184t-125.5 -248t-79.5 -266t-26 -235q0 -191 85 -301.5t247 -110.5q158 0 313 92l-2 -26
q-155 -90 -311 -90z" />
    <glyph glyph-name="uni0422" unicode="&#x422;" horiz-adv-x="804" 
d="M223 1434h733l-4 -25h-354l-301 -1409h-25l301 1409h-354z" />
    <glyph glyph-name="uni0423" unicode="&#x423;" horiz-adv-x="851" 
d="M956 1434h25l-584 -1074l-90 -172q-59 -106 -114 -150t-123 -44q-38 0 -66 12t-39 31l12 26q25 -45 99 -45q58 0 106 40t101 135l92 174l-127 1067h24l125 -1024z" />
    <glyph glyph-name="uni0424" unicode="&#x424;" horiz-adv-x="1177" 
d="M788 1434l-32 -158q213 -2 307 -151.5t39 -407.5q-55 -259 -213 -409t-373 -152l-33 -156h-24l33 156q-212 3 -304.5 153.5t-37.5 407.5t211.5 406.5t369.5 152.5l33 158h24zM1077 717q52 247 -36 388t-291 146l-228 -1069q204 3 353.5 145.5t201.5 389.5zM174 717
q-54 -245 34.5 -387.5t289.5 -147.5l227 1069q-203 -5 -351 -146.5t-200 -387.5z" />
    <glyph glyph-name="uni0425" unicode="&#x425;" horiz-adv-x="899" 
d="M991 1436h31l-518 -703l223 -733h-27l-213 711l-518 -711h-30l536 731l-219 705h27l209 -684z" />
    <glyph glyph-name="uni0426" unicode="&#x426;" horiz-adv-x="1058" 
d="M883 0h-834l305 1434h25l-299 -1409h684l299 1409h24l-299 -1409h125l-57 -267h-25z" />
    <glyph glyph-name="uni0427" unicode="&#x427;" horiz-adv-x="942" 
d="M768 629l172 805h25l-306 -1434h-24l127 598q-153 -84 -342 -84q-139 0 -195.5 83t-21.5 251l125 586h24l-125 -586q-32 -156 20.5 -232.5t180.5 -76.5q178 0 340 90z" />
    <glyph glyph-name="uni0428" unicode="&#x428;" horiz-adv-x="1538" 
d="M1255 0h-1206l305 1434h25l-299 -1409h565l299 1409h25l-299 -1409h567l299 1409h25z" />
    <glyph glyph-name="uni0429" unicode="&#x429;" horiz-adv-x="1531" 
d="M1561 1434l-299 -1409h124l-57 -267h-24l51 242h-1307l305 1434h25l-299 -1409h565l299 1409h25l-299 -1409h567l299 1409h25z" />
    <glyph glyph-name="uni042A" unicode="&#x42a;" horiz-adv-x="1048" 
d="M348 899h219q223 0 319.5 -120t51.5 -330q-45 -215 -194 -332t-365 -117h-246l299 1409h-213l4 25h240zM915 446q42 207 -51.5 317.5t-300.5 110.5h-219l-180 -849h221q211 0 349 112t181 309z" />
    <glyph glyph-name="uni042B" unicode="&#x42b;" horiz-adv-x="1300" 
d="M264 899h219q223 0 319.5 -120t51.5 -330q-45 -215 -194.5 -332t-366.5 -117h-244l305 1434h25zM993 0l305 1434h25l-305 -1434h-25zM829 446q44 206 -50 317t-300 111h-219l-180 -849h221q211 0 348.5 112.5t179.5 308.5z" />
    <glyph glyph-name="uni042C" unicode="&#x42c;" horiz-adv-x="944" 
d="M264 899h219q223 0 319.5 -120t51.5 -330q-45 -215 -194.5 -332t-366.5 -117h-244l305 1434h25zM829 446q44 206 -50 317t-300 111h-219l-180 -849h221q211 0 348.5 112.5t179.5 308.5z" />
    <glyph glyph-name="uni042D" unicode="&#x42d;" horiz-adv-x="960" 
d="M569 1448q146 0 235 -94.5t107.5 -257.5t-24.5 -381q-73 -343 -246 -538t-383 -195q-87 0 -150 23.5t-120 74.5l12 29q59 -53 119 -78t143 -25q204 0 367.5 195.5t230.5 507.5h-588l7 24h587q43 220 17 373.5t-108.5 235t-209.5 81.5q-87 0 -153 -23.5t-156 -78.5v27
q90 55 158 77.5t155 22.5z" />
    <glyph glyph-name="uni042E" unicode="&#x42e;" horiz-adv-x="1513" 
d="M1126 1450q211 0 297.5 -195t14.5 -538q-47 -217 -138 -382.5t-217 -258t-268 -92.5q-209 0 -295 193.5t-14 535.5h-281l-151 -713h-25l305 1434h25l-148 -697h279q73 323 239 518t377 195zM1413 717q41 214 24 371t-99.5 247t-217.5 90q-198 0 -358.5 -188t-231.5 -520
q-42 -214 -25.5 -371.5t98.5 -247.5t216 -90q200 0 361.5 188.5t232.5 520.5z" />
    <glyph glyph-name="uni042F" unicode="&#x42f;" horiz-adv-x="974" 
d="M748 1434h249l-305 -1434h-24l123 575h-224q-15 0 -73 5l-484 -580h-28l485 582q-172 26 -242 136t-32 288q44 208 189.5 318t365.5 110zM571 600h224l172 809h-226q-213 0 -349 -106.5t-175 -294.5q-42 -197 52 -302.5t302 -105.5z" />
    <glyph glyph-name="uni0430" unicode="&#x430;" horiz-adv-x="964" 
d="M930 1090l-111 -517q-1 -4 -2 -10.5t-2 -9.5l-2 -8l-117 -545h-24l71 332q-72 -159 -181 -253.5t-222 -94.5q-126 0 -200 94.5t-74 257.5q0 83 19 183t59.5 204t96 189t137 139.5t173.5 54.5q55 0 101 -21t77 -56.5t53 -83.5t33.5 -100.5t13.5 -109.5l76 355h25zM342 8
q135 0 265.5 153.5t180.5 383.5q14 66 15.5 137.5t-12 143t-42 128t-80.5 92t-120 35.5q-86 0 -162 -52.5t-129 -134.5t-92 -182t-57.5 -195.5t-18.5 -174.5q0 -153 65.5 -243.5t186.5 -90.5z" />
    <glyph glyph-name="uni0431" unicode="&#x431;" horiz-adv-x="878" 
d="M338 -16q-160 0 -228.5 129t-33.5 356q0 3 24 133q39 182 91 320t106 223t124.5 144.5t132.5 88.5t144 52q18 5 59 16t58 16t45 16.5t53 26.5v-26q-10 -5 -20.5 -10.5t-19 -9.5t-21.5 -8.5t-20 -7t-22 -7t-21 -6t-23 -6t-22 -5.5t-24.5 -6t-23.5 -6q-84 -23 -149 -56.5
t-127.5 -91.5t-112 -140.5t-94 -204t-80.5 -281.5q64 154 182 253t236 99q152 0 214 -135t13 -367q-52 -233 -166.5 -366t-273.5 -133zM342 8q142 0 251.5 119t158.5 354q27 143 15 249.5t-70 168.5t-154 62q-64 0 -134 -40.5t-130.5 -107t-108 -157.5t-68.5 -187
q-14 -71 -16 -136t12 -125t43 -104t80.5 -70t120.5 -26z" />
    <glyph glyph-name="uni0432" unicode="&#x432;" horiz-adv-x="835" 
d="M766 817q-22 -103 -90.5 -171.5t-169.5 -90.5q110 -17 158.5 -90.5t23.5 -185.5q-26 -127 -131 -203t-258 -76h-266l233 1090h246q142 0 211.5 -73t42.5 -200zM178 565h232q128 0 216.5 66t114.5 186q25 114 -39 181t-208 67h-209zM666 281q25 120 -40.5 190t-209.5 70
h-242l-111 -516h232q148 0 246.5 66.5t124.5 189.5z" />
    <glyph glyph-name="uni0433" unicode="&#x433;" horiz-adv-x="643" 
d="M33 0l233 1090h457l-6 -25h-432l-228 -1065h-24z" />
    <glyph glyph-name="uni0434" unicode="&#x434;" horiz-adv-x="931" 
d="M905 1090l-227 -1065h104l-49 -238h-24l45 213h-807l-45 -213h-25l45 213h-2l6 25h58q57 32 103 122.5t93 280.5l164 662h561zM20 25h633l221 1040h-512l-159 -643q-78 -319 -183 -397z" />
    <glyph glyph-name="uni0435" unicode="&#x435;" horiz-adv-x="860" 
d="M553 1106q120 0 186 -80t66 -225q0 -44 -5.5 -92t-11.5 -78.5t-12 -57.5t-6 -28h-653q-25 -116 -25 -201q0 -157 68 -246.5t196 -89.5q147 0 275 98l4 -24q-59 -46 -133.5 -72t-147.5 -26q-132 0 -209 94.5t-77 261.5q0 86 19 186.5t59.5 203.5t96 186.5t137 136.5
t173.5 53zM121 569h629q30 150 30 228q0 134 -57.5 209t-171.5 75q-81 0 -153.5 -45t-125 -120.5t-90.5 -162.5t-61 -184z" />
    <glyph glyph-name="uni0436" unicode="&#x436;" horiz-adv-x="1165" 
d="M1169 1090h29l-401 -545l188 -545h-29l-184 532h-178l-115 -532h-26l114 532h-178l-414 -532h-28l422 545l-168 545h28l162 -533h180l115 533h27l-115 -533h178z" />
    <glyph glyph-name="uni0437" unicode="&#x437;" horiz-adv-x="696" 
d="M207 -16q-76 0 -143.5 23.5t-102.5 58.5l12 24q38 -36 99 -59t135 -23q117 0 211 76t121 201q26 120 -31 196t-174 76h-125l4 25h127q112 0 194.5 63t106.5 174q25 118 -32.5 190t-178.5 72q-132 0 -256 -75v24q131 76 260 76t195 -77t37 -208q-20 -97 -84.5 -164.5
t-155.5 -87.5q85 -21 123 -96t14 -188q-28 -131 -128.5 -216t-227.5 -85z" />
    <glyph glyph-name="uni0438" unicode="&#x438;" horiz-adv-x="913" 
d="M881 1090l-234 -1090h-24l223 1044l-785 -1044h-28l233 1090h25l-221 -1043l782 1043h29z" />
    <glyph glyph-name="uni0439" unicode="&#x439;" horiz-adv-x="913" 
d="M606 1237q-73 0 -101 50.5t-7 150.5h24q-39 -176 90 -176q123 0 164 176h25q-20 -96 -70.5 -148.5t-124.5 -52.5zM70 47l782 1043h29l-234 -1090h-24l223 1044l-785 -1044h-28l233 1090h25z" />
    <glyph glyph-name="uni043A" unicode="&#x43a;" horiz-adv-x="772" 
d="M776 1090h29l-402 -545l189 -545h-29l-184 532h-207l-115 -532h-24l233 1090h25l-115 -533h207z" />
    <glyph glyph-name="uni043B" unicode="&#x43b;" horiz-adv-x="892" 
d="M860 1090l-233 -1090h-25l227 1065h-489l-164 -696q-35 -147 -71 -226.5t-78.5 -111t-106.5 -31.5l6 25q88 0 132.5 74t93.5 280l170 711h538z" />
    <glyph glyph-name="uni043C" unicode="&#x43c;" horiz-adv-x="1044" 
d="M467 285l522 805h21l-234 -1090h-24l217 1010l-504 -774h-16l-175 774l-215 -1010h-26l233 1090h23z" />
    <glyph glyph-name="uni043D" unicode="&#x43d;" horiz-adv-x="915" 
d="M743 565l113 525h25l-234 -1090h-24l116 541h-565l-117 -541h-24l233 1090h25l-113 -525h565z" />
    <glyph glyph-name="uni043E" unicode="&#x43e;" horiz-adv-x="923" 
d="M362 -16q-134 0 -213 96.5t-79 261.5q0 70 13.5 151t39 167.5t67.5 165.5t94 142t124 100.5t153 37.5q134 0 214.5 -96.5t80.5 -261.5q0 -70 -14 -151.5t-40 -167.5t-68.5 -165t-95.5 -142t-124.5 -100.5t-151.5 -37.5zM367 8q87 0 164.5 51.5t131 132.5t92.5 180
t57.5 194.5t18.5 174.5q0 156 -72 248t-200 92q-90 0 -168 -51.5t-131 -132.5t-91.5 -180t-56.5 -193.5t-18 -173.5q0 -156 70.5 -249t202.5 -93z" />
    <glyph glyph-name="uni043F" unicode="&#x43f;" horiz-adv-x="915" 
d="M881 1090l-234 -1090h-24l227 1065h-565l-228 -1065h-24l233 1090h615z" />
    <glyph glyph-name="uni0440" unicode="&#x440;" horiz-adv-x="968" 
d="M-16 -350h-25l313 1440h25l-70 -314q70 150 175.5 240t226.5 90q126 0 199 -94.5t73 -261.5q0 -84 -19.5 -184t-60.5 -203t-97 -187.5t-136.5 -138t-171.5 -53.5q-89 0 -152.5 51.5t-94 133.5t-32.5 185zM418 8q85 0 161 52.5t128.5 134.5t91 182t57 196t18.5 175
q0 157 -65 245t-184 88q-95 0 -183 -69t-148 -174.5t-96 -230.5t-36 -238q0 -102 28 -182t87 -129.5t141 -49.5z" />
    <glyph glyph-name="uni0441" unicode="&#x441;" horiz-adv-x="776" 
d="M352 -16q-133 0 -209.5 93.5t-76.5 252.5q0 89 20.5 191.5t63.5 206.5t103 188t147 137t186 53q122 0 229 -68l-10 -22q-104 65 -221 65q-78 0 -149.5 -36.5t-124 -97.5t-95.5 -138t-69.5 -161t-41 -164t-14.5 -148q0 -150 68 -239t194 -89q119 0 256 78v-25
q-124 -77 -256 -77z" />
    <glyph glyph-name="uni0442" unicode="&#x442;" horiz-adv-x="741" 
d="M193 1090h589l-6 -25h-282l-228 -1065h-24l227 1065h-283z" />
    <glyph glyph-name="uni0443" unicode="&#x443;" horiz-adv-x="866" 
d="M10 -367q-45 0 -104 25l12 25q48 -25 100 -25q56 0 108 49t114 164l65 119l-125 1100h25l121 -1055l565 1055h29l-654 -1219q-69 -127 -128 -182.5t-128 -55.5z" />
    <glyph glyph-name="uni0444" unicode="&#x444;" horiz-adv-x="1048" 
d="M725 1434l-72 -334q192 0 277.5 -147t30.5 -406q-55 -252 -200.5 -404t-342.5 -153l-72 -338h-24l71 338q-192 2 -275.5 149t-27.5 406q53 249 199 401.5t340 153.5l71 334h25zM115 545q-53 -237 22.5 -382.5t261.5 -148.5l226 1061q-182 -2 -319.5 -142t-190.5 -388z
M936 545q52 239 -25 384.5t-262 145.5l-225 -1061q183 2 321 142t191 389z" />
    <glyph glyph-name="uni0445" unicode="&#x445;" horiz-adv-x="802" 
d="M815 1090h33l-426 -535l203 -555h-27l-197 535l-424 -535h-30l442 559l-199 531h27l191 -512z" />
    <glyph glyph-name="uni0446" unicode="&#x446;" horiz-adv-x="907" 
d="M881 1094l-226 -1065h105l-4 -25h-2l-45 -213h-25l45 213h-694l231 1090h25l-225 -1065h565l225 1065h25z" />
    <glyph glyph-name="uni0447" unicode="&#x447;" horiz-adv-x="882" 
d="M696 500l127 590h25l-234 -1090h-24l98 463q-65 -51 -148.5 -85t-168.5 -34q-131 0 -191.5 99t-23.5 270l80 377h24l-80 -379q-35 -158 20.5 -250t176.5 -92q86 0 169.5 36.5t149.5 94.5z" />
    <glyph glyph-name="uni0448" unicode="&#x448;" horiz-adv-x="1294" 
d="M1010 25l227 1065h25l-234 -1090h-995l233 1090h25l-228 -1065h461l228 1065h24l-227 -1065h461z" />
    <glyph glyph-name="uni0449" unicode="&#x449;" horiz-adv-x="1288" 
d="M1262 1090l-228 -1065h105l-49 -238h-25l45 213h-1077l233 1090h25l-228 -1065h461l228 1065h24l-227 -1065h461l227 1065h25z" />
    <glyph glyph-name="uni044A" unicode="&#x44a;" horiz-adv-x="782" 
d="M205 686h172q182 0 260 -88t41 -256q-34 -166 -148.5 -254t-296.5 -88h-200l227 1065h-174l4 25h201zM653 342q34 155 -38.5 238.5t-241.5 83.5h-174l-136 -639h177q169 0 275 81t138 236z" />
    <glyph glyph-name="uni044B" unicode="&#x44b;" horiz-adv-x="1107" 
d="M205 686h172q182 0 260 -88t41 -256q-34 -166 -148.5 -254t-296.5 -88h-200l233 1090h25zM815 0l234 1090h24l-233 -1090h-25zM653 342q34 155 -38.5 238.5t-241.5 83.5h-174l-136 -639h177q169 0 275 81t138 236z" />
    <glyph glyph-name="uni044C" unicode="&#x44c;" horiz-adv-x="782" 
d="M205 686h172q182 0 260 -88t41 -256q-34 -166 -148.5 -254t-296.5 -88h-200l233 1090h25zM653 342q34 155 -38.5 238.5t-241.5 83.5h-174l-136 -639h177q169 0 275 81t138 236z" />
    <glyph glyph-name="uni044D" unicode="&#x44d;" horiz-adv-x="780" 
d="M422 1106q116 0 188.5 -71t90 -196t-16.5 -294q-55 -262 -190.5 -411.5t-307.5 -149.5q-136 0 -223 90l14 22q88 -88 211 -88q163 0 289.5 143.5t179.5 380.5h-479l4 23h480q52 247 -15.5 386.5t-226.5 139.5q-123 0 -250 -86l-4 25q125 86 256 86z" />
    <glyph glyph-name="uni044E" unicode="&#x44e;" horiz-adv-x="1259" 
d="M922 1106q165 0 234.5 -148.5t14.5 -410.5q-55 -255 -186 -409t-301 -154q-165 0 -234 148t-16 407h-262l-115 -539h-24l233 1090h25l-113 -527h262q54 245 185 394t297 149zM1147 545q52 242 -9.5 389t-219.5 147q-156 0 -280 -142.5t-177 -393.5q-53 -241 9.5 -388
t221.5 -147q154 0 277 142t178 393z" />
    <glyph glyph-name="uni044F" unicode="&#x44f;" horiz-adv-x="796" 
d="M557 1090h207l-234 -1090h-24l94 438h-178q-37 0 -55 2l-381 -440h-29l383 444q-129 22 -184 106.5t-27 215.5q33 154 149 239t279 85zM426 463h178l129 602h-182q-158 0 -262.5 -80.5t-134.5 -218.5q-30 -145 43.5 -224t228.5 -79z" />
    <glyph glyph-name="uni0450" unicode="&#x450;" horiz-adv-x="864" 
d="M528 1483l103 -207l-19 -10l-116 198zM557 1106q120 0 190 -76.5t70 -212.5q0 -117 -49 -274h-651q-25 -113 -25 -203q0 -152 67.5 -242t194.5 -90q139 0 271 78v-27q-132 -75 -271 -75q-136 0 -211 94.5t-75 259.5q0 89 20 191.5t62 204.5t98.5 185t137.5 135t171 52z
M121 567h631q41 128 41 248q0 124 -62 195t-174 71q-66 0 -126.5 -30t-108 -79.5t-87.5 -116.5t-68 -139t-46 -149z" />
    <glyph glyph-name="uni0451" unicode="&#x451;" horiz-adv-x="864" 
d="M514 1470h29l-41 -196h-29zM748 1470h28l-41 -196h-28zM557 1106q120 0 190 -76.5t70 -212.5q0 -117 -49 -274h-651q-25 -113 -25 -203q0 -152 67.5 -242t194.5 -90q139 0 271 78v-27q-132 -75 -271 -75q-136 0 -211 94.5t-75 259.5q0 89 20 191.5t62 204.5t98.5 185
t137.5 135t171 52zM121 567h631q41 128 41 248q0 124 -62 195t-174 71q-66 0 -126.5 -30t-108 -79.5t-87.5 -116.5t-68 -139t-46 -149z" />
    <glyph glyph-name="uni0452" unicode="&#x452;" horiz-adv-x="917" 
d="M621 1106q133 0 188 -99t16 -284l-49 -229l-45 -213l-78 -369q-57 -262 -276 -262q-45 0 -76 24l8 27q30 -27 74 -27q93 0 157 58.5t89 181.5l18 86h-2l156 723q36 173 -12.5 265.5t-172.5 92.5q-130 0 -243.5 -123t-177.5 -356l-129 -602h-25l268 1262h-145l4 24h147
l47 225h25l-47 -225h252l-4 -24h-254l-103 -480q67 155 170 239.5t220 84.5z" />
    <glyph glyph-name="uni0453" unicode="&#x453;" horiz-adv-x="643" 
d="M725 1464l-203 -198l-14 10l192 207zM33 0l233 1090h457l-6 -25h-432l-228 -1065h-24z" />
    <glyph glyph-name="uni0454" unicode="&#x454;" horiz-adv-x="776" 
d="M584 1081q-72 0 -137.5 -31t-116 -82t-93 -120t-71 -142t-47.5 -151h477l-4 -23h-479q-23 -118 -23 -196q0 -150 68 -239t194 -89q119 0 256 78v-25q-124 -77 -256 -77q-133 0 -209.5 93.5t-76.5 252.5q0 89 20.5 191.5t63.5 206.5t103 188t147 137t186 53q122 0 229 -68
l-10 -22q-104 65 -221 65z" />
    <glyph glyph-name="uni0455" unicode="&#x455;" horiz-adv-x="716" 
d="M233 -16q-146 0 -264 65l13 25q109 -66 256 -66q143 0 231 87.5t88 209.5q0 92 -47.5 149t-147.5 107q-194 96 -194 250q0 121 83.5 208t233.5 87q130 0 226 -55l-11 -23q-87 53 -215 53q-71 0 -128 -23t-92 -61.5t-53.5 -85t-18.5 -96.5q0 -76 44 -130.5t142 -106.5
q102 -53 152.5 -115.5t50.5 -157.5q0 -135 -98 -228t-251 -93z" />
    <glyph glyph-name="uni0456" unicode="&#x456;" horiz-adv-x="325" 
d="M328 1253h-29l41 197h29zM57 0h-24l233 1090h25z" />
    <glyph glyph-name="uni0457" unicode="&#x457;" horiz-adv-x="325" 
d="M215 1274h-29l41 196h29zM449 1274h-29l41 196h28zM57 0h-24l233 1090h25z" />
    <glyph glyph-name="uni0458" unicode="&#x458;" horiz-adv-x="344" 
d="M348 1253h-29l41 197h29zM-236 -346l7 24q28 -4 63 -4q149 0 199 230l254 1186h24l-254 -1188q-28 -134 -85.5 -193t-143.5 -59q-36 0 -64 4z" />
    <glyph glyph-name="uni0459" unicode="&#x459;" horiz-adv-x="1347" 
d="M768 686h145q182 0 260 -88t41 -256q-34 -165 -149 -253.5t-295 -88.5h-174l227 1065h-483l-164 -696q-35 -147 -71 -226.5t-78.5 -111t-106.5 -31.5l6 25q88 0 132.5 74t93.5 280l170 711h532zM1190 342q34 155 -39 238.5t-242 83.5h-147l-135 -639h149q168 0 275 81
t139 236z" />
    <glyph glyph-name="uni045A" unicode="&#x45a;" horiz-adv-x="1374" 
d="M786 645h152q171 0 251.5 -83.5t49.5 -225.5q-34 -163 -145 -249.5t-291 -86.5h-180l133 623h-566l-133 -623h-24l233 1090h25l-94 -443h565l94 443h25zM1214 336q28 130 -46 207.5t-234 77.5h-154l-127 -596h156q168 0 271 80t134 231z" />
    <glyph glyph-name="uni045B" unicode="&#x45b;" horiz-adv-x="917" 
d="M621 1106q133 0 188 -99t16 -284l-155 -723h-25l156 723q36 173 -12.5 265.5t-172.5 92.5q-130 0 -243.5 -123t-177.5 -356l-129 -602h-25l268 1262h-145l4 24h147l47 225h25l-47 -225h252l-4 -24h-254l-103 -480q67 155 170 239.5t220 84.5z" />
    <glyph glyph-name="uni045C" unicode="&#x45c;" horiz-adv-x="772" 
d="M707 1483l24 -19l-203 -198l-14 10zM776 1090h29l-402 -545l189 -545h-29l-184 532h-207l-115 -532h-24l233 1090h25l-115 -533h207z" />
    <glyph glyph-name="uni045D" unicode="&#x45d;" horiz-adv-x="913" 
d="M639 1276l-18 -10l-117 198l33 19zM881 1090l-234 -1090h-24l223 1044l-785 -1044h-28l233 1090h25l-221 -1043l782 1043h29z" />
    <glyph glyph-name="uni045E" unicode="&#x45e;" horiz-adv-x="866" 
d="M604 1237q-73 0 -101 50.5t-7 150.5h24q-39 -176 90 -176q123 0 164 176h25q-20 -96 -70.5 -148.5t-124.5 -52.5zM326 35l565 1055h29l-654 -1219q-69 -127 -128 -182.5t-128 -55.5q-45 0 -104 25l12 25q48 -25 100 -25q56 0 108 49t114 164l65 119l-125 1100h25z" />
    <glyph glyph-name="uni045F" unicode="&#x45f;" horiz-adv-x="915" 
d="M629 25l227 1065h25l-234 -1090h-291l-53 -244h-24l53 244h-299l233 1090h25l-228 -1065h566z" />
    <glyph glyph-name="uni0474" unicode="&#x474;" horiz-adv-x="1038" 
d="M406 0h-27l-131 1434h24l129 -1391l584 1171q121 236 219 236l-6 -27q-77 0 -190 -215z" />
    <glyph glyph-name="uni0474" unicode="&#x475;" horiz-adv-x="1038" 
d="M406 0h-27l-131 1434h24l129 -1391l584 1171q121 236 219 236l-6 -27q-77 0 -190 -215z" />
    <glyph glyph-name="uni0490" unicode="&#x490;" horiz-adv-x="796" 
d="M926 1434l53 252h25l-54 -252l-4 -25h-571l-301 -1409h-25l305 1434h572z" />
    <glyph glyph-name="uni0491" unicode="&#x491;" horiz-adv-x="643" 
d="M741 1290h25l-43 -200l-6 -25h-432l-228 -1065h-24l233 1090h432z" />
    <glyph glyph-name="uni04D9" unicode="&#x4d9;" horiz-adv-x="860" 
d="M506 1106q132 0 209.5 -94.5t77.5 -261.5q0 -86 -19 -186.5t-60 -203.5t-96.5 -186.5t-137 -136.5t-173.5 -53q-120 0 -186 80t-66 225q0 44 5.5 92t11.5 78.5t12 57.5t6 28h653q25 116 25 200q0 157 -68 246.5t-196 89.5q-147 0 -275 -98l-4 25q59 46 133.5 72t147.5 26
zM309 8q81 0 153.5 45t125 120.5t90.5 162.5t61 184h-628q-31 -155 -31 -227q0 -134 57.5 -209.5t171.5 -75.5z" />
    <glyph glyph-name="uni1E0C" unicode="&#x1e0c;" horiz-adv-x="1124" 
d="M305 0h-256l305 1434h246q227 0 351 -121t124 -344q0 -106 -20.5 -216t-61 -219t-105.5 -205t-147.5 -169.5t-195 -116.5t-240.5 -43zM375 1411l-295 -1386h225q148 0 274 60t210.5 157t144.5 221t87.5 251t27.5 249q0 217 -114.5 332.5t-330.5 115.5h-229zM297 -297
l43 197h29l-43 -197h-29z" />
    <glyph glyph-name="uni1E0D" unicode="&#x1e0d;" horiz-adv-x="972" 
d="M340 -16q-127 0 -199.5 96.5t-72.5 255.5q0 85 19.5 185.5t60 204t96.5 188.5t137 138.5t172 53.5q124 0 198.5 -99t79.5 -266l164 770h25l-322 -1511h-24l65 313q-68 -149 -174 -239t-225 -90zM342 8q96 0 188 70t159 189t97 263q22 102 15.5 201t-32 176.5t-82.5 125.5
t-136 48q-86 0 -162 -52.5t-129 -134.5t-92 -182t-57.5 -195.5t-18.5 -174.5q0 -156 66 -245t184 -89zM262 -291l43 197h29l-43 -197h-29z" />
    <glyph glyph-name="uni1E0E" unicode="&#x1e0e;" horiz-adv-x="1124" 
d="M305 0h-256l305 1434h246q227 0 351 -121t124 -344q0 -106 -20.5 -216t-61 -219t-105.5 -205t-147.5 -169.5t-195 -116.5t-240.5 -43zM375 1411l-295 -1386h225q148 0 274 60t210.5 157t144.5 221t87.5 251t27.5 249q0 217 -114.5 332.5t-330.5 115.5h-229zM526 -231
h-399l6 24h399z" />
    <glyph glyph-name="uni1E0F" unicode="&#x1e0f;" horiz-adv-x="972" 
d="M340 -16q-127 0 -199.5 96.5t-72.5 255.5q0 85 19.5 185.5t60 204t96.5 188.5t137 138.5t172 53.5q124 0 198.5 -99t79.5 -266l164 770h25l-322 -1511h-24l65 313q-68 -149 -174 -239t-225 -90zM342 8q96 0 188 70t159 189t97 263q22 102 15.5 201t-32 176.5t-82.5 125.5
t-136 48q-86 0 -162 -52.5t-129 -134.5t-92 -182t-57.5 -195.5t-18.5 -174.5q0 -156 66 -245t184 -89zM492 -225h-400l6 24h400z" />
    <glyph glyph-name="uni1E20" unicode="&#x1e20;" horiz-adv-x="1067" 
d="M598 1614h399l-6 -25h-399zM758 1425q-95 0 -182.5 -48t-153 -128.5t-119.5 -182.5t-88.5 -212.5t-53 -217t-18.5 -196.5q0 -203 89.5 -317.5t248.5 -114.5q170 0 348 127l117 547h-196l6 25h221l-125 -586q-185 -137 -371 -137q-169 0 -265.5 119t-96.5 337q0 93 19 202
t54.5 222.5t91.5 218t125 187t160.5 131.5t192.5 49q170 0 301 -94l-12 -21q-124 90 -293 90z" />
    <glyph glyph-name="uni1E21" unicode="&#x1e21;" horiz-adv-x="964" 
d="M836 1303h-400l6 24h400zM260 -367q-151 0 -252 95l15 24q96 -92 239 -92q158 0 274 125.5t162 341.5l50 215q-79 -179 -189.5 -268.5t-232.5 -89.5q-126 0 -194.5 84.5t-68.5 238.5q0 130 37 270t100 258t159.5 194.5t203.5 76.5q120 0 192.5 -95t78.5 -255l69 334h25
l-205 -965q-47 -226 -171.5 -359t-291.5 -133zM334 8q95 0 185.5 72t152.5 180.5t99.5 236.5t37.5 240q0 156 -67 250t-181 94q-83 0 -159 -49t-132 -129t-98 -180t-63 -206t-21 -202q0 -146 64.5 -226.5t181.5 -80.5z" />
    <glyph glyph-name="uni1E24" unicode="&#x1e24;" horiz-adv-x="1089" 
d="M940 739l147 695h25l-305 -1434h-25l152 715h-709l-151 -715h-25l305 1434h25l-148 -695h709zM379 -297h-29l43 197h29z" />
    <glyph glyph-name="uni1E25" unicode="&#x1e25;" horiz-adv-x="917" 
d="M621 1106q133 0 188 -99t16 -284l-155 -723h-25l156 723q36 173 -12.5 265.5t-172.5 92.5q-130 0 -243.5 -123t-177.5 -356l-129 -602h-25l321 1511h25l-156 -729q67 155 170 239.5t220 84.5zM311 -297h-28l43 197h28z" />
    </font>
</defs>
</svg>
